<?xml version="1.0" encoding="utf-8"?>
<!-- Generator: Adobe Illustrator 26.0.1, SVG Export Plug-In . SVG Version: 6.00 Build 0)  -->
<svg version="1.1" id="Capa_1" xmlns="http://www.w3.org/2000/svg" xmlns:xlink="http://www.w3.org/1999/xlink" x="0px" y="0px"
	 width="1908px" height="768px" viewBox="0 0 1908 768" style="enable-background:new 0 0 1908 768;" xml:space="preserve">
<style type="text/css">
	.st0{fill:#EDEDED;}
	.st1{fill:#BABABA;}
</style>
<rect y="346.1" class="st0" width="1908" height="253.6"/>
<g>
	<g>
		<path class="st1" d="M700.9,377.6l-6.7,6.7c4,4,8.7,7.2,14,9.3c2.5,1,5.2,1.8,7.8,2.3c2.6,0.5,5.4,0.8,8.1,0.8
			c2.7,0,5.4-0.3,8.1-0.8c2.7-0.5,5.3-1.3,7.8-2.3c5.2-2.1,9.9-5.2,14-9.3l-6.7-6.7c-3.1,3.1-6.8,5.6-10.8,7.2
			c-3.9,1.6-8.1,2.4-12.3,2.4c-4.3,0-8.4-0.8-12.3-2.4C707.7,383.1,704.1,380.7,700.9,377.6z"/>
	</g>
</g>
</svg>
