<?xml version="1.0" encoding="utf-8"?>
<!-- Generator: Adobe Illustrator 26.0.1, SVG Export Plug-In . SVG Version: 6.00 Build 0)  -->
<svg version="1.1" id="Capa_1" xmlns="http://www.w3.org/2000/svg" xmlns:xlink="http://www.w3.org/1999/xlink" x="0px" y="0px"
	 width="59.5px" height="38px" viewBox="0 0 59.5 38" style="enable-background:new 0 0 59.5 38;" xml:space="preserve">
<style type="text/css">
	.st0{fill:none;stroke:#00A89C;stroke-width:2.31;stroke-linecap:round;stroke-linejoin:round;stroke-miterlimit:10;}
</style>
<g>
	<path class="st0" d="M12.4,7.7c-3.1,0-5.6,2.5-5.6,5.6v0c0,3.1,2.5,5.7,5.6,5.7s5.6-2.5,5.6-5.7S15.5,7.7,12.4,7.7L12.4,7.7z"/>
	<path class="st0" d="M47.5,7.7c-3.1,0-5.6,2.5-5.6,5.6v0c0,3.1,2.5,5.7,5.6,5.7s5.6-2.5,5.6-5.7S50.6,7.7,47.5,7.7L47.5,7.7z"/>
	<path class="st0" d="M30,2.2c-3.5,0-6.4,2.9-6.4,6.4v0c0,3.6,2.9,6.5,6.4,6.5s6.4-2.9,6.4-6.5S33.5,2.1,30,2.2L30,2.2z"/>
	<path class="st0" d="M39,35.9H21c-1.2,0-2.3-0.5-3-1.5c-0.7-0.9-1-2.1-0.7-3.2C19,24,26,19.6,33,21.3c4.8,1.2,8.5,5,9.7,9.8
		c0.3,1.1,0,2.3-0.7,3.2C41.3,35.3,40.2,35.9,39,35.9z"/>
	<path class="st0" d="M41.1,26.3c4.5-3.1,10.8-2.6,14.5,1.4c1.1,1.2,2,2.7,2.4,4.3c0.2,0.9,0,1.9-0.6,2.6c-0.6,0.7-1.6,1.2-2.6,1.2
		h-15"/>
	<path class="st0" d="M19.1,26.4c-4.5-3.2-10.9-2.7-14.6,1.4c-1.1,1.2-2,2.7-2.4,4.3c-0.2,0.9,0,1.9,0.6,2.6
		c0.6,0.7,1.6,1.2,2.6,1.2h15"/>
</g>
</svg>
