<?xml version="1.0" encoding="utf-8"?>
<!-- Generator: Adobe Illustrator 26.0.1, SVG Export Plug-In . SVG Version: 6.00 Build 0)  -->
<svg version="1.1" id="Capa_1" xmlns="http://www.w3.org/2000/svg" xmlns:xlink="http://www.w3.org/1999/xlink" x="0px" y="0px"
	 width="37.5px" height="49px" viewBox="0 0 37.5 49" style="enable-background:new 0 0 37.5 49;" xml:space="preserve">
<style type="text/css">
	.st0{fill:none;stroke:#00A89C;stroke-width:2.5203;stroke-linecap:round;stroke-linejoin:round;stroke-miterlimit:10;}
	.st1{fill:none;stroke:#00A89C;stroke-width:2.31;stroke-linecap:round;stroke-linejoin:round;stroke-miterlimit:10;}
</style>
<g>
	<path class="st0" d="M18.7,1.5c-9,0-16.4,7.3-16.4,16.3s7.3,16.4,16.3,16.4c9,0,16.4-7.3,16.4-16.3c0,0,0,0,0,0
		C35,8.9,27.7,1.5,18.7,1.5z"/>
	<path class="st1" d="M8.7,31v15.5l8.9-4.8c0.7-0.4,1.5-0.4,2.2,0l8.9,4.8V31"/>
	<polygon class="st1" points="18.7,9.4 20.8,15.9 27.6,15.9 22.1,19.9 24.2,26.4 18.7,22.4 13.1,26.4 15.3,19.9 9.7,15.9 16.6,15.9 
			"/>
</g>
</svg>
