<?xml version="1.0" encoding="utf-8"?>
<!-- Generator: Adobe Illustrator 25.4.1, SVG Export Plug-In . SVG Version: 6.00 Build 0)  -->
<svg version="1.1" id="Capa_1" xmlns="http://www.w3.org/2000/svg" xmlns:xlink="http://www.w3.org/1999/xlink" x="0px" y="0px"
	 viewBox="0 0 1024 256.78" style="enable-background:new 0 0 1024 256.78;" xml:space="preserve">
<style type="text/css">
	.st0{fill:#00a89c;}
	.st1{clip-path:url(#SVGID_00000119822872273113689090000007062594919056530852_);}
	.st2{fill:#FFFFFF;}
</style>
<rect class="st0" width="1024" height="256.78"/>
<g>
	<defs>
		<rect id="SVGID_1_" x="754.15" y="78.48" width="269.85" height="179.81"/>
	</defs>
	<clipPath id="SVGID_00000154427891617343896450000016195351773566131072_">
		<use xlink:href="#SVGID_1_"  style="overflow:visible;"/>
	</clipPath>
	<g style="clip-path:url(#SVGID_00000154427891617343896450000016195351773566131072_);">
		<g>
			<path class="st2" d="M1091.03,161.34l0.2-64.45c-38.79-0.12-76.46,7.36-111.97,22.25c-17.06,7.15-33.52,16.02-48.92,26.35
				c-15.25,10.23-29.59,21.99-42.63,34.95c-13.04,12.96-24.89,27.23-35.21,42.41c-10.43,15.34-19.4,31.74-26.66,48.75
				c-15.11,35.41-22.83,73.03-22.96,111.82l64.45,0.2c0.1-30.12,6.08-59.3,17.79-86.73c11.31-26.51,27.47-50.31,48.03-70.74
				c20.55-20.42,44.46-36.43,71.04-47.58C1031.69,167.05,1060.91,161.25,1091.03,161.34z"/>
		</g>
	</g>
</g>
<g>
</g>
<g>
</g>
<g>
</g>
<g>
</g>
<g>
</g>
<g>
</g>
<g>
</g>
<g>
</g>
<g>
</g>
<g>
</g>
<g>
</g>
<g>
</g>
<g>
</g>
<g>
</g>
<g>
</g>
</svg>
