<?xml version="1.0" encoding="utf-8"?>
<!-- Generator: Adobe Illustrator 26.0.3, SVG Export Plug-In . SVG Version: 6.00 Build 0)  -->
<svg version="1.1" id="Capa_1" xmlns="http://www.w3.org/2000/svg" xmlns:xlink="http://www.w3.org/1999/xlink" x="0px" y="0px"
	 width="1318px" height="427px" viewBox="0 0 1318 427" style="enable-background:new 0 0 1318 427;" xml:space="preserve">
<style type="text/css">
	.st0{clip-path:url(#SVGID_00000019663976339942758400000008078859043658459838_);fill:#FFFFFF;}
	.st1{clip-path:url(#SVGID_00000054965165510249088150000010731665891569561526_);}
	.st2{clip-path:url(#SVGID_00000087401420282965569490000003583481557079671442_);}
	.st3{fill:#00A69A;}
	.st4{clip-path:url(#SVGID_00000036228388551121367540000008687598036076577716_);}
	.st5{fill:#D4D4D4;}
</style>
<g>
	<g>
		<defs>
			<rect id="SVGID_1_" x="294.1" y="0.2" width="1024" height="426.5"/>
		</defs>
		<clipPath id="SVGID_00000056428584760738340370000011737735662141483962_">
			<use xlink:href="#SVGID_1_"  style="overflow:visible;"/>
		</clipPath>
		
			<rect x="294.1" y="0.2" style="clip-path:url(#SVGID_00000056428584760738340370000011737735662141483962_);fill:#FFFFFF;" width="1024" height="426.5"/>
	</g>
	<g>
		<defs>
			<rect id="SVGID_00000160870957481973376440000006691673464234983318_" x="294.1" y="0.2" width="1024" height="426.5"/>
		</defs>
		<clipPath id="SVGID_00000002366049301542478850000008292184134714882487_">
			<use xlink:href="#SVGID_00000160870957481973376440000006691673464234983318_"  style="overflow:visible;"/>
		</clipPath>
		<g style="clip-path:url(#SVGID_00000002366049301542478850000008292184134714882487_);">
			<g>
				<defs>
					<rect id="SVGID_00000118369822738839847350000014262433585867377031_" x="787.1" y="103.2" width="542.2" height="529"/>
				</defs>
				<clipPath id="SVGID_00000101097922164992890500000001417447195268530605_">
					<use xlink:href="#SVGID_00000118369822738839847350000014262433585867377031_"  style="overflow:visible;"/>
				</clipPath>
				<g style="clip-path:url(#SVGID_00000101097922164992890500000001417447195268530605_);">
					<g>
						<path class="st3" d="M1368.9,319.9V204.3c-69.5,0-137,13.6-200.6,40.5c-30.6,12.9-60,28.9-87.6,47.5
							c-27.3,18.4-52.9,39.6-76.2,62.9c-23.3,23.3-44.5,49-62.9,76.2C923,459,907,488.5,894.1,519c-26.9,63.6-40.5,131.1-40.5,200.6
							h115.5c0-54,10.6-106.3,31.4-155.6c20.1-47.6,49-90.4,85.7-127.1c36.7-36.7,79.5-65.6,127.1-85.7
							C1262.6,330.4,1314.9,319.9,1368.9,319.9z"/>
					</g>
				</g>
			</g>
		</g>
	</g>
	<g>
		<defs>
			<rect id="SVGID_00000147924171820900468760000015671740257364420268_" x="38" y="0.2" width="1280.1" height="426.5"/>
		</defs>
		<clipPath id="SVGID_00000102511409114823902340000013525861058500873097_">
			<use xlink:href="#SVGID_00000147924171820900468760000015671740257364420268_"  style="overflow:visible;"/>
		</clipPath>
		<g style="clip-path:url(#SVGID_00000102511409114823902340000013525861058500873097_);">
			<g>
				<path class="st5" d="M105.9,420.2L105.9,420.2c0-0.7,0.5-1.2,1.2-1.2l0,0c0.7,0,1.2,0.5,1.2,1.2l0,0c0,0.7-0.5,1.2-1.2,1.2l0,0
					C106.4,421.4,105.9,420.9,105.9,420.2z"/>
				<path class="st5" d="M105.9,395.8L105.9,395.8c0-0.7,0.5-1.2,1.2-1.2l0,0c0.7,0,1.2,0.5,1.2,1.2l0,0c0,0.7-0.5,1.2-1.2,1.2l0,0
					C106.4,397,105.9,396.4,105.9,395.8z"/>
				<path class="st5" d="M81.6,420.2L81.6,420.2c0-0.7,0.5-1.2,1.2-1.2l0,0c0.7,0,1.2,0.5,1.2,1.2l0,0c0,0.7-0.5,1.2-1.2,1.2l0,0
					C82.1,421.4,81.6,420.9,81.6,420.2z"/>
				<path class="st5" d="M81.6,395.8L81.6,395.8c0-0.7,0.5-1.2,1.2-1.2l0,0c0.7,0,1.2,0.5,1.2,1.2l0,0c0,0.7-0.5,1.2-1.2,1.2l0,0
					C82.1,397,81.6,396.4,81.6,395.8z"/>
				<path class="st5" d="M57.2,420.2L57.2,420.2c0-0.7,0.5-1.2,1.2-1.2l0,0c0.7,0,1.2,0.5,1.2,1.2l0,0c0,0.7-0.5,1.2-1.2,1.2l0,0
					C57.8,421.4,57.2,420.9,57.2,420.2z"/>
				<path class="st5" d="M57.2,395.8L57.2,395.8c0-0.7,0.5-1.2,1.2-1.2l0,0c0.7,0,1.2,0.5,1.2,1.2l0,0c0,0.7-0.5,1.2-1.2,1.2l0,0
					C57.8,397,57.2,396.4,57.2,395.8z"/>
				<path class="st5" d="M105.9,371.4L105.9,371.4c0-0.7,0.5-1.2,1.2-1.2l0,0c0.7,0,1.2,0.5,1.2,1.2l0,0c0,0.7-0.5,1.2-1.2,1.2l0,0
					C106.4,372.6,105.9,372,105.9,371.4z"/>
				<path class="st5" d="M81.6,371.4L81.6,371.4c0-0.7,0.5-1.2,1.2-1.2l0,0c0.7,0,1.2,0.5,1.2,1.2l0,0c0,0.7-0.5,1.2-1.2,1.2l0,0
					C82.1,372.6,81.6,372,81.6,371.4z"/>
				<path class="st5" d="M57.2,371.4L57.2,371.4c0-0.7,0.5-1.2,1.2-1.2l0,0c0.7,0,1.2,0.5,1.2,1.2l0,0c0,0.7-0.5,1.2-1.2,1.2l0,0
					C57.8,372.6,57.2,372,57.2,371.4z"/>
				<path class="st5" d="M105.9,346.9L105.9,346.9c0-0.7,0.5-1.2,1.2-1.2l0,0c0.7,0,1.2,0.5,1.2,1.2l0,0c0,0.7-0.5,1.2-1.2,1.2l0,0
					C106.4,348.1,105.9,347.6,105.9,346.9z"/>
				<path class="st5" d="M81.6,346.9L81.6,346.9c0-0.7,0.5-1.2,1.2-1.2l0,0c0.7,0,1.2,0.5,1.2,1.2l0,0c0,0.7-0.5,1.2-1.2,1.2l0,0
					C82.1,348.1,81.6,347.6,81.6,346.9z"/>
				<path class="st5" d="M57.2,346.9L57.2,346.9c0-0.7,0.5-1.2,1.2-1.2l0,0c0.7,0,1.2,0.5,1.2,1.2l0,0c0,0.7-0.5,1.2-1.2,1.2l0,0
					C57.8,348.1,57.2,347.6,57.2,346.9z"/>
				<path class="st5" d="M105.9,322.5L105.9,322.5c0-0.7,0.5-1.2,1.2-1.2l0,0c0.7,0,1.2,0.5,1.2,1.2l0,0c0,0.7-0.5,1.2-1.2,1.2l0,0
					C106.4,323.7,105.9,323.2,105.9,322.5z"/>
				<path class="st5" d="M81.6,322.5L81.6,322.5c0-0.7,0.5-1.2,1.2-1.2l0,0c0.7,0,1.2,0.5,1.2,1.2l0,0c0,0.7-0.5,1.2-1.2,1.2l0,0
					C82.1,323.7,81.6,323.2,81.6,322.5z"/>
				<path class="st5" d="M57.2,322.5L57.2,322.5c0-0.7,0.5-1.2,1.2-1.2l0,0c0.7,0,1.2,0.5,1.2,1.2l0,0c0,0.7-0.5,1.2-1.2,1.2l0,0
					C57.8,323.7,57.2,323.2,57.2,322.5z"/>
				<path class="st5" d="M105.9,298.1L105.9,298.1c0-0.7,0.5-1.2,1.2-1.2l0,0c0.7,0,1.2,0.5,1.2,1.2l0,0c0,0.7-0.5,1.2-1.2,1.2l0,0
					C106.4,299.3,105.9,298.8,105.9,298.1z"/>
				<path class="st5" d="M81.6,298.1L81.6,298.1c0-0.7,0.5-1.2,1.2-1.2l0,0c0.7,0,1.2,0.5,1.2,1.2l0,0c0,0.7-0.5,1.2-1.2,1.2l0,0
					C82.1,299.3,81.6,298.8,81.6,298.1z"/>
				<path class="st5" d="M57.2,298.1L57.2,298.1c0-0.7,0.5-1.2,1.2-1.2l0,0c0.7,0,1.2,0.5,1.2,1.2l0,0c0,0.7-0.5,1.2-1.2,1.2l0,0
					C57.8,299.3,57.2,298.8,57.2,298.1z"/>
				<path class="st5" d="M105.9,273.7L105.9,273.7c0-0.7,0.5-1.2,1.2-1.2l0,0c0.7,0,1.2,0.5,1.2,1.2l0,0c0,0.7-0.5,1.2-1.2,1.2l0,0
					C106.4,274.9,105.9,274.3,105.9,273.7z"/>
				<path class="st5" d="M81.6,273.7L81.6,273.7c0-0.7,0.5-1.2,1.2-1.2l0,0c0.7,0,1.2,0.5,1.2,1.2l0,0c0,0.7-0.5,1.2-1.2,1.2l0,0
					C82.1,274.9,81.6,274.3,81.6,273.7z"/>
				<path class="st5" d="M57.2,273.7L57.2,273.7c0-0.7,0.5-1.2,1.2-1.2l0,0c0.7,0,1.2,0.5,1.2,1.2l0,0c0,0.7-0.5,1.2-1.2,1.2l0,0
					C57.8,274.9,57.2,274.3,57.2,273.7z"/>
				<path class="st5" d="M105.9,249.3L105.9,249.3c0-0.7,0.5-1.2,1.2-1.2l0,0c0.7,0,1.2,0.5,1.2,1.2l0,0c0,0.7-0.5,1.2-1.2,1.2l0,0
					C106.4,250.5,105.9,249.9,105.9,249.3z"/>
				<path class="st5" d="M81.6,249.3L81.6,249.3c0-0.7,0.5-1.2,1.2-1.2l0,0c0.7,0,1.2,0.5,1.2,1.2l0,0c0,0.7-0.5,1.2-1.2,1.2l0,0
					C82.1,250.5,81.6,249.9,81.6,249.3z"/>
				<path class="st5" d="M57.2,249.3L57.2,249.3c0-0.7,0.5-1.2,1.2-1.2l0,0c0.7,0,1.2,0.5,1.2,1.2l0,0c0,0.7-0.5,1.2-1.2,1.2l0,0
					C57.8,250.5,57.2,249.9,57.2,249.3z"/>
				<path class="st5" d="M105.9,249.3L105.9,249.3c0-0.7,0.5-1.2,1.2-1.2l0,0c0.7,0,1.2,0.5,1.2,1.2l0,0c0,0.7-0.5,1.2-1.2,1.2l0,0
					C106.4,250.5,105.9,249.9,105.9,249.3z"/>
				<path class="st5" d="M105.9,224.8L105.9,224.8c0-0.7,0.5-1.2,1.2-1.2l0,0c0.7,0,1.2,0.5,1.2,1.2l0,0c0,0.7-0.5,1.2-1.2,1.2l0,0
					C106.4,226,105.9,225.5,105.9,224.8z"/>
				<path class="st5" d="M81.6,249.3L81.6,249.3c0-0.7,0.5-1.2,1.2-1.2l0,0c0.7,0,1.2,0.5,1.2,1.2l0,0c0,0.7-0.5,1.2-1.2,1.2l0,0
					C82.1,250.5,81.6,249.9,81.6,249.3z"/>
				<path class="st5" d="M81.6,224.8L81.6,224.8c0-0.7,0.5-1.2,1.2-1.2l0,0c0.7,0,1.2,0.5,1.2,1.2l0,0c0,0.7-0.5,1.2-1.2,1.2l0,0
					C82.1,226,81.6,225.5,81.6,224.8z"/>
				<path class="st5" d="M57.2,249.3L57.2,249.3c0-0.7,0.5-1.2,1.2-1.2l0,0c0.7,0,1.2,0.5,1.2,1.2l0,0c0,0.7-0.5,1.2-1.2,1.2l0,0
					C57.8,250.5,57.2,249.9,57.2,249.3z"/>
				<path class="st5" d="M57.2,224.8L57.2,224.8c0-0.7,0.5-1.2,1.2-1.2l0,0c0.7,0,1.2,0.5,1.2,1.2l0,0c0,0.7-0.5,1.2-1.2,1.2l0,0
					C57.8,226,57.2,225.5,57.2,224.8z"/>
				<path class="st5" d="M105.9,200.4L105.9,200.4c0-0.7,0.5-1.2,1.2-1.2l0,0c0.7,0,1.2,0.5,1.2,1.2l0,0c0,0.7-0.5,1.2-1.2,1.2l0,0
					C106.4,201.6,105.9,201.1,105.9,200.4z"/>
				<path class="st5" d="M81.6,200.4L81.6,200.4c0-0.7,0.5-1.2,1.2-1.2l0,0c0.7,0,1.2,0.5,1.2,1.2l0,0c0,0.7-0.5,1.2-1.2,1.2l0,0
					C82.1,201.6,81.6,201.1,81.6,200.4z"/>
				<path class="st5" d="M57.2,200.4L57.2,200.4c0-0.7,0.5-1.2,1.2-1.2l0,0c0.7,0,1.2,0.5,1.2,1.2l0,0c0,0.7-0.5,1.2-1.2,1.2l0,0
					C57.8,201.6,57.2,201.1,57.2,200.4z"/>
				<path class="st5" d="M105.9,176L105.9,176c0-0.7,0.5-1.2,1.2-1.2l0,0c0.7,0,1.2,0.5,1.2,1.2l0,0c0,0.7-0.5,1.2-1.2,1.2l0,0
					C106.4,177.2,105.9,176.7,105.9,176z"/>
				<path class="st5" d="M81.6,176L81.6,176c0-0.7,0.5-1.2,1.2-1.2l0,0c0.7,0,1.2,0.5,1.2,1.2l0,0c0,0.7-0.5,1.2-1.2,1.2l0,0
					C82.1,177.2,81.6,176.7,81.6,176z"/>
				<path class="st5" d="M57.2,176L57.2,176c0-0.7,0.5-1.2,1.2-1.2l0,0c0.7,0,1.2,0.5,1.2,1.2l0,0c0,0.7-0.5,1.2-1.2,1.2l0,0
					C57.8,177.2,57.2,176.7,57.2,176z"/>
				<path class="st5" d="M105.9,151.6L105.9,151.6c0-0.7,0.5-1.2,1.2-1.2l0,0c0.7,0,1.2,0.5,1.2,1.2l0,0c0,0.7-0.5,1.2-1.2,1.2l0,0
					C106.4,152.8,105.9,152.2,105.9,151.6z"/>
				<path class="st5" d="M81.6,151.6L81.6,151.6c0-0.7,0.5-1.2,1.2-1.2l0,0c0.7,0,1.2,0.5,1.2,1.2l0,0c0,0.7-0.5,1.2-1.2,1.2l0,0
					C82.1,152.8,81.6,152.2,81.6,151.6z"/>
				<path class="st5" d="M57.2,151.6L57.2,151.6c0-0.7,0.5-1.2,1.2-1.2l0,0c0.7,0,1.2,0.5,1.2,1.2l0,0c0,0.7-0.5,1.2-1.2,1.2l0,0
					C57.8,152.8,57.2,152.2,57.2,151.6z"/>
				<path class="st5" d="M105.9,127.2L105.9,127.2c0-0.7,0.5-1.2,1.2-1.2l0,0c0.7,0,1.2,0.5,1.2,1.2l0,0c0,0.7-0.5,1.2-1.2,1.2l0,0
					C106.4,128.4,105.9,127.8,105.9,127.2z"/>
				<path class="st5" d="M81.6,127.2L81.6,127.2c0-0.7,0.5-1.2,1.2-1.2l0,0c0.7,0,1.2,0.5,1.2,1.2l0,0c0,0.7-0.5,1.2-1.2,1.2l0,0
					C82.1,128.4,81.6,127.8,81.6,127.2z"/>
				<path class="st5" d="M57.2,127.2L57.2,127.2c0-0.7,0.5-1.2,1.2-1.2l0,0c0.7,0,1.2,0.5,1.2,1.2l0,0c0,0.7-0.5,1.2-1.2,1.2l0,0
					C57.8,128.4,57.2,127.8,57.2,127.2z"/>
				<path class="st5" d="M105.9,102.7L105.9,102.7c0-0.7,0.5-1.2,1.2-1.2l0,0c0.7,0,1.2,0.5,1.2,1.2l0,0c0,0.7-0.5,1.2-1.2,1.2l0,0
					C106.4,103.9,105.9,103.4,105.9,102.7z"/>
				<path class="st5" d="M81.6,102.7L81.6,102.7c0-0.7,0.5-1.2,1.2-1.2l0,0c0.7,0,1.2,0.5,1.2,1.2l0,0c0,0.7-0.5,1.2-1.2,1.2l0,0
					C82.1,103.9,81.6,103.4,81.6,102.7z"/>
				<path class="st5" d="M57.2,102.7L57.2,102.7c0-0.7,0.5-1.2,1.2-1.2l0,0c0.7,0,1.2,0.5,1.2,1.2l0,0c0,0.7-0.5,1.2-1.2,1.2l0,0
					C57.8,103.9,57.2,103.4,57.2,102.7z"/>
				<path class="st5" d="M105.9,78.3L105.9,78.3c0-0.7,0.5-1.2,1.2-1.2l0,0c0.7,0,1.2,0.5,1.2,1.2l0,0c0,0.7-0.5,1.2-1.2,1.2l0,0
					C106.4,79.5,105.9,79,105.9,78.3z"/>
				<path class="st5" d="M81.6,78.3L81.6,78.3c0-0.7,0.5-1.2,1.2-1.2l0,0c0.7,0,1.2,0.5,1.2,1.2l0,0c0,0.7-0.5,1.2-1.2,1.2l0,0
					C82.1,79.5,81.6,79,81.6,78.3z"/>
				<path class="st5" d="M57.2,78.3L57.2,78.3c0-0.7,0.5-1.2,1.2-1.2l0,0c0.7,0,1.2,0.5,1.2,1.2l0,0c0,0.7-0.5,1.2-1.2,1.2l0,0
					C57.8,79.5,57.2,79,57.2,78.3z"/>
			</g>
			<g>
				<path class="st5" d="M154,420.2L154,420.2c0-0.7,0.5-1.2,1.2-1.2l0,0c0.7,0,1.2,0.5,1.2,1.2l0,0c0,0.7-0.5,1.2-1.2,1.2l0,0
					C154.6,421.4,154,420.9,154,420.2z"/>
				<path class="st5" d="M154,395.8L154,395.8c0-0.7,0.5-1.2,1.2-1.2l0,0c0.7,0,1.2,0.5,1.2,1.2l0,0c0,0.7-0.5,1.2-1.2,1.2l0,0
					C154.6,397,154,396.4,154,395.8z"/>
				<path class="st5" d="M129.7,420.2L129.7,420.2c0-0.7,0.5-1.2,1.2-1.2l0,0c0.7,0,1.2,0.5,1.2,1.2l0,0c0,0.7-0.5,1.2-1.2,1.2l0,0
					C130.3,421.4,129.7,420.9,129.7,420.2z"/>
				<path class="st5" d="M129.7,395.8L129.7,395.8c0-0.7,0.5-1.2,1.2-1.2l0,0c0.7,0,1.2,0.5,1.2,1.2l0,0c0,0.7-0.5,1.2-1.2,1.2l0,0
					C130.3,397,129.7,396.4,129.7,395.8z"/>
				<path class="st5" d="M105.4,420.2L105.4,420.2c0-0.7,0.5-1.2,1.2-1.2l0,0c0.7,0,1.2,0.5,1.2,1.2l0,0c0,0.7-0.5,1.2-1.2,1.2l0,0
					C105.9,421.4,105.4,420.9,105.4,420.2z"/>
				<path class="st5" d="M105.4,395.8L105.4,395.8c0-0.7,0.5-1.2,1.2-1.2l0,0c0.7,0,1.2,0.5,1.2,1.2l0,0c0,0.7-0.5,1.2-1.2,1.2l0,0
					C105.9,397,105.4,396.4,105.4,395.8z"/>
				<path class="st5" d="M154,371.4L154,371.4c0-0.7,0.5-1.2,1.2-1.2l0,0c0.7,0,1.2,0.5,1.2,1.2l0,0c0,0.7-0.5,1.2-1.2,1.2l0,0
					C154.6,372.6,154,372,154,371.4z"/>
				<path class="st5" d="M129.7,371.4L129.7,371.4c0-0.7,0.5-1.2,1.2-1.2l0,0c0.7,0,1.2,0.5,1.2,1.2l0,0c0,0.7-0.5,1.2-1.2,1.2l0,0
					C130.3,372.6,129.7,372,129.7,371.4z"/>
				<path class="st5" d="M105.4,371.4L105.4,371.4c0-0.7,0.5-1.2,1.2-1.2l0,0c0.7,0,1.2,0.5,1.2,1.2l0,0c0,0.7-0.5,1.2-1.2,1.2l0,0
					C105.9,372.6,105.4,372,105.4,371.4z"/>
				<path class="st5" d="M154,346.9L154,346.9c0-0.7,0.5-1.2,1.2-1.2l0,0c0.7,0,1.2,0.5,1.2,1.2l0,0c0,0.7-0.5,1.2-1.2,1.2l0,0
					C154.6,348.1,154,347.6,154,346.9z"/>
				<path class="st5" d="M129.7,346.9L129.7,346.9c0-0.7,0.5-1.2,1.2-1.2l0,0c0.7,0,1.2,0.5,1.2,1.2l0,0c0,0.7-0.5,1.2-1.2,1.2l0,0
					C130.3,348.1,129.7,347.6,129.7,346.9z"/>
				<path class="st5" d="M105.4,346.9L105.4,346.9c0-0.7,0.5-1.2,1.2-1.2l0,0c0.7,0,1.2,0.5,1.2,1.2l0,0c0,0.7-0.5,1.2-1.2,1.2l0,0
					C105.9,348.1,105.4,347.6,105.4,346.9z"/>
				<path class="st5" d="M154,322.5L154,322.5c0-0.7,0.5-1.2,1.2-1.2l0,0c0.7,0,1.2,0.5,1.2,1.2l0,0c0,0.7-0.5,1.2-1.2,1.2l0,0
					C154.6,323.7,154,323.2,154,322.5z"/>
				<path class="st5" d="M129.7,322.5L129.7,322.5c0-0.7,0.5-1.2,1.2-1.2l0,0c0.7,0,1.2,0.5,1.2,1.2l0,0c0,0.7-0.5,1.2-1.2,1.2l0,0
					C130.3,323.7,129.7,323.2,129.7,322.5z"/>
				<path class="st5" d="M105.4,322.5L105.4,322.5c0-0.7,0.5-1.2,1.2-1.2l0,0c0.7,0,1.2,0.5,1.2,1.2l0,0c0,0.7-0.5,1.2-1.2,1.2l0,0
					C105.9,323.7,105.4,323.2,105.4,322.5z"/>
				<path class="st5" d="M154,298.1L154,298.1c0-0.7,0.5-1.2,1.2-1.2l0,0c0.7,0,1.2,0.5,1.2,1.2l0,0c0,0.7-0.5,1.2-1.2,1.2l0,0
					C154.6,299.3,154,298.8,154,298.1z"/>
				<path class="st5" d="M129.7,298.1L129.7,298.1c0-0.7,0.5-1.2,1.2-1.2l0,0c0.7,0,1.2,0.5,1.2,1.2l0,0c0,0.7-0.5,1.2-1.2,1.2l0,0
					C130.3,299.3,129.7,298.8,129.7,298.1z"/>
				<path class="st5" d="M105.4,298.1L105.4,298.1c0-0.7,0.5-1.2,1.2-1.2l0,0c0.7,0,1.2,0.5,1.2,1.2l0,0c0,0.7-0.5,1.2-1.2,1.2l0,0
					C105.9,299.3,105.4,298.8,105.4,298.1z"/>
				<path class="st5" d="M154,273.7L154,273.7c0-0.7,0.5-1.2,1.2-1.2l0,0c0.7,0,1.2,0.5,1.2,1.2l0,0c0,0.7-0.5,1.2-1.2,1.2l0,0
					C154.6,274.9,154,274.3,154,273.7z"/>
				<path class="st5" d="M129.7,273.7L129.7,273.7c0-0.7,0.5-1.2,1.2-1.2l0,0c0.7,0,1.2,0.5,1.2,1.2l0,0c0,0.7-0.5,1.2-1.2,1.2l0,0
					C130.3,274.9,129.7,274.3,129.7,273.7z"/>
				<path class="st5" d="M105.4,273.7L105.4,273.7c0-0.7,0.5-1.2,1.2-1.2l0,0c0.7,0,1.2,0.5,1.2,1.2l0,0c0,0.7-0.5,1.2-1.2,1.2l0,0
					C105.9,274.9,105.4,274.3,105.4,273.7z"/>
				<path class="st5" d="M154,249.3L154,249.3c0-0.7,0.5-1.2,1.2-1.2l0,0c0.7,0,1.2,0.5,1.2,1.2l0,0c0,0.7-0.5,1.2-1.2,1.2l0,0
					C154.6,250.5,154,249.9,154,249.3z"/>
				<path class="st5" d="M129.7,249.3L129.7,249.3c0-0.7,0.5-1.2,1.2-1.2l0,0c0.7,0,1.2,0.5,1.2,1.2l0,0c0,0.7-0.5,1.2-1.2,1.2l0,0
					C130.3,250.5,129.7,249.9,129.7,249.3z"/>
				<path class="st5" d="M105.4,249.3L105.4,249.3c0-0.7,0.5-1.2,1.2-1.2l0,0c0.7,0,1.2,0.5,1.2,1.2l0,0c0,0.7-0.5,1.2-1.2,1.2l0,0
					C105.9,250.5,105.4,249.9,105.4,249.3z"/>
				<path class="st5" d="M154,249.3L154,249.3c0-0.7,0.5-1.2,1.2-1.2l0,0c0.7,0,1.2,0.5,1.2,1.2l0,0c0,0.7-0.5,1.2-1.2,1.2l0,0
					C154.6,250.5,154,249.9,154,249.3z"/>
				<path class="st5" d="M154,224.8L154,224.8c0-0.7,0.5-1.2,1.2-1.2l0,0c0.7,0,1.2,0.5,1.2,1.2l0,0c0,0.7-0.5,1.2-1.2,1.2l0,0
					C154.6,226,154,225.5,154,224.8z"/>
				<path class="st5" d="M129.7,249.3L129.7,249.3c0-0.7,0.5-1.2,1.2-1.2l0,0c0.7,0,1.2,0.5,1.2,1.2l0,0c0,0.7-0.5,1.2-1.2,1.2l0,0
					C130.3,250.5,129.7,249.9,129.7,249.3z"/>
				<path class="st5" d="M129.7,224.8L129.7,224.8c0-0.7,0.5-1.2,1.2-1.2l0,0c0.7,0,1.2,0.5,1.2,1.2l0,0c0,0.7-0.5,1.2-1.2,1.2l0,0
					C130.3,226,129.7,225.5,129.7,224.8z"/>
				<path class="st5" d="M105.4,249.3L105.4,249.3c0-0.7,0.5-1.2,1.2-1.2l0,0c0.7,0,1.2,0.5,1.2,1.2l0,0c0,0.7-0.5,1.2-1.2,1.2l0,0
					C105.9,250.5,105.4,249.9,105.4,249.3z"/>
				<path class="st5" d="M105.4,224.8L105.4,224.8c0-0.7,0.5-1.2,1.2-1.2l0,0c0.7,0,1.2,0.5,1.2,1.2l0,0c0,0.7-0.5,1.2-1.2,1.2l0,0
					C105.9,226,105.4,225.5,105.4,224.8z"/>
				<path class="st5" d="M154,200.4L154,200.4c0-0.7,0.5-1.2,1.2-1.2l0,0c0.7,0,1.2,0.5,1.2,1.2l0,0c0,0.7-0.5,1.2-1.2,1.2l0,0
					C154.6,201.6,154,201.1,154,200.4z"/>
				<path class="st5" d="M129.7,200.4L129.7,200.4c0-0.7,0.5-1.2,1.2-1.2l0,0c0.7,0,1.2,0.5,1.2,1.2l0,0c0,0.7-0.5,1.2-1.2,1.2l0,0
					C130.3,201.6,129.7,201.1,129.7,200.4z"/>
				<path class="st5" d="M105.4,200.4L105.4,200.4c0-0.7,0.5-1.2,1.2-1.2l0,0c0.7,0,1.2,0.5,1.2,1.2l0,0c0,0.7-0.5,1.2-1.2,1.2l0,0
					C105.9,201.6,105.4,201.1,105.4,200.4z"/>
				<path class="st5" d="M154,176L154,176c0-0.7,0.5-1.2,1.2-1.2l0,0c0.7,0,1.2,0.5,1.2,1.2l0,0c0,0.7-0.5,1.2-1.2,1.2l0,0
					C154.6,177.2,154,176.7,154,176z"/>
				<path class="st5" d="M129.7,176L129.7,176c0-0.7,0.5-1.2,1.2-1.2l0,0c0.7,0,1.2,0.5,1.2,1.2l0,0c0,0.7-0.5,1.2-1.2,1.2l0,0
					C130.3,177.2,129.7,176.7,129.7,176z"/>
				<path class="st5" d="M105.4,176L105.4,176c0-0.7,0.5-1.2,1.2-1.2l0,0c0.7,0,1.2,0.5,1.2,1.2l0,0c0,0.7-0.5,1.2-1.2,1.2l0,0
					C105.9,177.2,105.4,176.7,105.4,176z"/>
				<path class="st5" d="M154,151.6L154,151.6c0-0.7,0.5-1.2,1.2-1.2l0,0c0.7,0,1.2,0.5,1.2,1.2l0,0c0,0.7-0.5,1.2-1.2,1.2l0,0
					C154.6,152.8,154,152.2,154,151.6z"/>
				<path class="st5" d="M129.7,151.6L129.7,151.6c0-0.7,0.5-1.2,1.2-1.2l0,0c0.7,0,1.2,0.5,1.2,1.2l0,0c0,0.7-0.5,1.2-1.2,1.2l0,0
					C130.3,152.8,129.7,152.2,129.7,151.6z"/>
				<path class="st5" d="M105.4,151.6L105.4,151.6c0-0.7,0.5-1.2,1.2-1.2l0,0c0.7,0,1.2,0.5,1.2,1.2l0,0c0,0.7-0.5,1.2-1.2,1.2l0,0
					C105.9,152.8,105.4,152.2,105.4,151.6z"/>
				<path class="st5" d="M154,127.2L154,127.2c0-0.7,0.5-1.2,1.2-1.2l0,0c0.7,0,1.2,0.5,1.2,1.2l0,0c0,0.7-0.5,1.2-1.2,1.2l0,0
					C154.6,128.4,154,127.8,154,127.2z"/>
				<path class="st5" d="M129.7,127.2L129.7,127.2c0-0.7,0.5-1.2,1.2-1.2l0,0c0.7,0,1.2,0.5,1.2,1.2l0,0c0,0.7-0.5,1.2-1.2,1.2l0,0
					C130.3,128.4,129.7,127.8,129.7,127.2z"/>
				<path class="st5" d="M105.4,127.2L105.4,127.2c0-0.7,0.5-1.2,1.2-1.2l0,0c0.7,0,1.2,0.5,1.2,1.2l0,0c0,0.7-0.5,1.2-1.2,1.2l0,0
					C105.9,128.4,105.4,127.8,105.4,127.2z"/>
				<path class="st5" d="M154,102.7L154,102.7c0-0.7,0.5-1.2,1.2-1.2l0,0c0.7,0,1.2,0.5,1.2,1.2l0,0c0,0.7-0.5,1.2-1.2,1.2l0,0
					C154.6,103.9,154,103.4,154,102.7z"/>
				<path class="st5" d="M129.7,102.7L129.7,102.7c0-0.7,0.5-1.2,1.2-1.2l0,0c0.7,0,1.2,0.5,1.2,1.2l0,0c0,0.7-0.5,1.2-1.2,1.2l0,0
					C130.3,103.9,129.7,103.4,129.7,102.7z"/>
				<path class="st5" d="M105.4,102.7L105.4,102.7c0-0.7,0.5-1.2,1.2-1.2l0,0c0.7,0,1.2,0.5,1.2,1.2l0,0c0,0.7-0.5,1.2-1.2,1.2l0,0
					C105.9,103.9,105.4,103.4,105.4,102.7z"/>
				<path class="st5" d="M154,78.3L154,78.3c0-0.7,0.5-1.2,1.2-1.2l0,0c0.7,0,1.2,0.5,1.2,1.2l0,0c0,0.7-0.5,1.2-1.2,1.2l0,0
					C154.6,79.5,154,79,154,78.3z"/>
				<path class="st5" d="M129.7,78.3L129.7,78.3c0-0.7,0.5-1.2,1.2-1.2l0,0c0.7,0,1.2,0.5,1.2,1.2l0,0c0,0.7-0.5,1.2-1.2,1.2l0,0
					C130.3,79.5,129.7,79,129.7,78.3z"/>
				<path class="st5" d="M105.4,78.3L105.4,78.3c0-0.7,0.5-1.2,1.2-1.2l0,0c0.7,0,1.2,0.5,1.2,1.2l0,0c0,0.7-0.5,1.2-1.2,1.2l0,0
					C105.9,79.5,105.4,79,105.4,78.3z"/>
			</g>
			<g>
				<path class="st5" d="M202.2,420.2L202.2,420.2c0-0.7,0.5-1.2,1.2-1.2l0,0c0.7,0,1.2,0.5,1.2,1.2l0,0c0,0.7-0.5,1.2-1.2,1.2l0,0
					C202.7,421.4,202.2,420.9,202.2,420.2z"/>
				<path class="st5" d="M202.2,395.8L202.2,395.8c0-0.7,0.5-1.2,1.2-1.2l0,0c0.7,0,1.2,0.5,1.2,1.2l0,0c0,0.7-0.5,1.2-1.2,1.2l0,0
					C202.7,397,202.2,396.4,202.2,395.8z"/>
				<path class="st5" d="M177.9,420.2L177.9,420.2c0-0.7,0.5-1.2,1.2-1.2l0,0c0.7,0,1.2,0.5,1.2,1.2l0,0c0,0.7-0.5,1.2-1.2,1.2l0,0
					C178.4,421.4,177.9,420.9,177.9,420.2z"/>
				<path class="st5" d="M177.9,395.8L177.9,395.8c0-0.7,0.5-1.2,1.2-1.2l0,0c0.7,0,1.2,0.5,1.2,1.2l0,0c0,0.7-0.5,1.2-1.2,1.2l0,0
					C178.4,397,177.9,396.4,177.9,395.8z"/>
				<path class="st5" d="M153.5,420.2L153.5,420.2c0-0.7,0.5-1.2,1.2-1.2l0,0c0.7,0,1.2,0.5,1.2,1.2l0,0c0,0.7-0.5,1.2-1.2,1.2l0,0
					C154.1,421.4,153.5,420.9,153.5,420.2z"/>
				<path class="st5" d="M153.5,395.8L153.5,395.8c0-0.7,0.5-1.2,1.2-1.2l0,0c0.7,0,1.2,0.5,1.2,1.2l0,0c0,0.7-0.5,1.2-1.2,1.2l0,0
					C154.1,397,153.5,396.4,153.5,395.8z"/>
				<path class="st5" d="M202.2,371.4L202.2,371.4c0-0.7,0.5-1.2,1.2-1.2l0,0c0.7,0,1.2,0.5,1.2,1.2l0,0c0,0.7-0.5,1.2-1.2,1.2l0,0
					C202.7,372.6,202.2,372,202.2,371.4z"/>
				<path class="st5" d="M177.9,371.4L177.9,371.4c0-0.7,0.5-1.2,1.2-1.2l0,0c0.7,0,1.2,0.5,1.2,1.2l0,0c0,0.7-0.5,1.2-1.2,1.2l0,0
					C178.4,372.6,177.9,372,177.9,371.4z"/>
				<path class="st5" d="M153.5,371.4L153.5,371.4c0-0.7,0.5-1.2,1.2-1.2l0,0c0.7,0,1.2,0.5,1.2,1.2l0,0c0,0.7-0.5,1.2-1.2,1.2l0,0
					C154.1,372.6,153.5,372,153.5,371.4z"/>
				<path class="st5" d="M202.2,346.9L202.2,346.9c0-0.7,0.5-1.2,1.2-1.2l0,0c0.7,0,1.2,0.5,1.2,1.2l0,0c0,0.7-0.5,1.2-1.2,1.2l0,0
					C202.7,348.1,202.2,347.6,202.2,346.9z"/>
				<path class="st5" d="M177.9,346.9L177.9,346.9c0-0.7,0.5-1.2,1.2-1.2l0,0c0.7,0,1.2,0.5,1.2,1.2l0,0c0,0.7-0.5,1.2-1.2,1.2l0,0
					C178.4,348.1,177.9,347.6,177.9,346.9z"/>
				<path class="st5" d="M153.5,346.9L153.5,346.9c0-0.7,0.5-1.2,1.2-1.2l0,0c0.7,0,1.2,0.5,1.2,1.2l0,0c0,0.7-0.5,1.2-1.2,1.2l0,0
					C154.1,348.1,153.5,347.6,153.5,346.9z"/>
				<path class="st5" d="M202.2,322.5L202.2,322.5c0-0.7,0.5-1.2,1.2-1.2l0,0c0.7,0,1.2,0.5,1.2,1.2l0,0c0,0.7-0.5,1.2-1.2,1.2l0,0
					C202.7,323.7,202.2,323.2,202.2,322.5z"/>
				<path class="st5" d="M177.9,322.5L177.9,322.5c0-0.7,0.5-1.2,1.2-1.2l0,0c0.7,0,1.2,0.5,1.2,1.2l0,0c0,0.7-0.5,1.2-1.2,1.2l0,0
					C178.4,323.7,177.9,323.2,177.9,322.5z"/>
				<path class="st5" d="M153.5,322.5L153.5,322.5c0-0.7,0.5-1.2,1.2-1.2l0,0c0.7,0,1.2,0.5,1.2,1.2l0,0c0,0.7-0.5,1.2-1.2,1.2l0,0
					C154.1,323.7,153.5,323.2,153.5,322.5z"/>
				<path class="st5" d="M202.2,298.1L202.2,298.1c0-0.7,0.5-1.2,1.2-1.2l0,0c0.7,0,1.2,0.5,1.2,1.2l0,0c0,0.7-0.5,1.2-1.2,1.2l0,0
					C202.7,299.3,202.2,298.8,202.2,298.1z"/>
				<path class="st5" d="M177.9,298.1L177.9,298.1c0-0.7,0.5-1.2,1.2-1.2l0,0c0.7,0,1.2,0.5,1.2,1.2l0,0c0,0.7-0.5,1.2-1.2,1.2l0,0
					C178.4,299.3,177.9,298.8,177.9,298.1z"/>
				<path class="st5" d="M153.5,298.1L153.5,298.1c0-0.7,0.5-1.2,1.2-1.2l0,0c0.7,0,1.2,0.5,1.2,1.2l0,0c0,0.7-0.5,1.2-1.2,1.2l0,0
					C154.1,299.3,153.5,298.8,153.5,298.1z"/>
				<path class="st5" d="M202.2,273.7L202.2,273.7c0-0.7,0.5-1.2,1.2-1.2l0,0c0.7,0,1.2,0.5,1.2,1.2l0,0c0,0.7-0.5,1.2-1.2,1.2l0,0
					C202.7,274.9,202.2,274.3,202.2,273.7z"/>
				<path class="st5" d="M177.9,273.7L177.9,273.7c0-0.7,0.5-1.2,1.2-1.2l0,0c0.7,0,1.2,0.5,1.2,1.2l0,0c0,0.7-0.5,1.2-1.2,1.2l0,0
					C178.4,274.9,177.9,274.3,177.9,273.7z"/>
				<path class="st5" d="M153.5,273.7L153.5,273.7c0-0.7,0.5-1.2,1.2-1.2l0,0c0.7,0,1.2,0.5,1.2,1.2l0,0c0,0.7-0.5,1.2-1.2,1.2l0,0
					C154.1,274.9,153.5,274.3,153.5,273.7z"/>
				<path class="st5" d="M202.2,249.3L202.2,249.3c0-0.7,0.5-1.2,1.2-1.2l0,0c0.7,0,1.2,0.5,1.2,1.2l0,0c0,0.7-0.5,1.2-1.2,1.2l0,0
					C202.7,250.5,202.2,249.9,202.2,249.3z"/>
				<path class="st5" d="M177.9,249.3L177.9,249.3c0-0.7,0.5-1.2,1.2-1.2l0,0c0.7,0,1.2,0.5,1.2,1.2l0,0c0,0.7-0.5,1.2-1.2,1.2l0,0
					C178.4,250.5,177.9,249.9,177.9,249.3z"/>
				<path class="st5" d="M153.5,249.3L153.5,249.3c0-0.7,0.5-1.2,1.2-1.2l0,0c0.7,0,1.2,0.5,1.2,1.2l0,0c0,0.7-0.5,1.2-1.2,1.2l0,0
					C154.1,250.5,153.5,249.9,153.5,249.3z"/>
				<path class="st5" d="M202.2,249.3L202.2,249.3c0-0.7,0.5-1.2,1.2-1.2l0,0c0.7,0,1.2,0.5,1.2,1.2l0,0c0,0.7-0.5,1.2-1.2,1.2l0,0
					C202.7,250.5,202.2,249.9,202.2,249.3z"/>
				<path class="st5" d="M202.2,224.8L202.2,224.8c0-0.7,0.5-1.2,1.2-1.2l0,0c0.7,0,1.2,0.5,1.2,1.2l0,0c0,0.7-0.5,1.2-1.2,1.2l0,0
					C202.7,226,202.2,225.5,202.2,224.8z"/>
				<path class="st5" d="M177.9,249.3L177.9,249.3c0-0.7,0.5-1.2,1.2-1.2l0,0c0.7,0,1.2,0.5,1.2,1.2l0,0c0,0.7-0.5,1.2-1.2,1.2l0,0
					C178.4,250.5,177.9,249.9,177.9,249.3z"/>
				<path class="st5" d="M177.9,224.8L177.9,224.8c0-0.7,0.5-1.2,1.2-1.2l0,0c0.7,0,1.2,0.5,1.2,1.2l0,0c0,0.7-0.5,1.2-1.2,1.2l0,0
					C178.4,226,177.9,225.5,177.9,224.8z"/>
				<path class="st5" d="M153.5,249.3L153.5,249.3c0-0.7,0.5-1.2,1.2-1.2l0,0c0.7,0,1.2,0.5,1.2,1.2l0,0c0,0.7-0.5,1.2-1.2,1.2l0,0
					C154.1,250.5,153.5,249.9,153.5,249.3z"/>
				<path class="st5" d="M153.5,224.8L153.5,224.8c0-0.7,0.5-1.2,1.2-1.2l0,0c0.7,0,1.2,0.5,1.2,1.2l0,0c0,0.7-0.5,1.2-1.2,1.2l0,0
					C154.1,226,153.5,225.5,153.5,224.8z"/>
				<path class="st5" d="M202.2,200.4L202.2,200.4c0-0.7,0.5-1.2,1.2-1.2l0,0c0.7,0,1.2,0.5,1.2,1.2l0,0c0,0.7-0.5,1.2-1.2,1.2l0,0
					C202.7,201.6,202.2,201.1,202.2,200.4z"/>
				<path class="st5" d="M177.9,200.4L177.9,200.4c0-0.7,0.5-1.2,1.2-1.2l0,0c0.7,0,1.2,0.5,1.2,1.2l0,0c0,0.7-0.5,1.2-1.2,1.2l0,0
					C178.4,201.6,177.9,201.1,177.9,200.4z"/>
				<path class="st5" d="M153.5,200.4L153.5,200.4c0-0.7,0.5-1.2,1.2-1.2l0,0c0.7,0,1.2,0.5,1.2,1.2l0,0c0,0.7-0.5,1.2-1.2,1.2l0,0
					C154.1,201.6,153.5,201.1,153.5,200.4z"/>
				<path class="st5" d="M202.2,176L202.2,176c0-0.7,0.5-1.2,1.2-1.2l0,0c0.7,0,1.2,0.5,1.2,1.2l0,0c0,0.7-0.5,1.2-1.2,1.2l0,0
					C202.7,177.2,202.2,176.7,202.2,176z"/>
				<path class="st5" d="M177.9,176L177.9,176c0-0.7,0.5-1.2,1.2-1.2l0,0c0.7,0,1.2,0.5,1.2,1.2l0,0c0,0.7-0.5,1.2-1.2,1.2l0,0
					C178.4,177.2,177.9,176.7,177.9,176z"/>
				<path class="st5" d="M153.5,176L153.5,176c0-0.7,0.5-1.2,1.2-1.2l0,0c0.7,0,1.2,0.5,1.2,1.2l0,0c0,0.7-0.5,1.2-1.2,1.2l0,0
					C154.1,177.2,153.5,176.7,153.5,176z"/>
				<path class="st5" d="M202.2,151.6L202.2,151.6c0-0.7,0.5-1.2,1.2-1.2l0,0c0.7,0,1.2,0.5,1.2,1.2l0,0c0,0.7-0.5,1.2-1.2,1.2l0,0
					C202.7,152.8,202.2,152.2,202.2,151.6z"/>
				<path class="st5" d="M177.9,151.6L177.9,151.6c0-0.7,0.5-1.2,1.2-1.2l0,0c0.7,0,1.2,0.5,1.2,1.2l0,0c0,0.7-0.5,1.2-1.2,1.2l0,0
					C178.4,152.8,177.9,152.2,177.9,151.6z"/>
				<path class="st5" d="M153.5,151.6L153.5,151.6c0-0.7,0.5-1.2,1.2-1.2l0,0c0.7,0,1.2,0.5,1.2,1.2l0,0c0,0.7-0.5,1.2-1.2,1.2l0,0
					C154.1,152.8,153.5,152.2,153.5,151.6z"/>
				<path class="st5" d="M202.2,127.2L202.2,127.2c0-0.7,0.5-1.2,1.2-1.2l0,0c0.7,0,1.2,0.5,1.2,1.2l0,0c0,0.7-0.5,1.2-1.2,1.2l0,0
					C202.7,128.4,202.2,127.8,202.2,127.2z"/>
				<path class="st5" d="M177.9,127.2L177.9,127.2c0-0.7,0.5-1.2,1.2-1.2l0,0c0.7,0,1.2,0.5,1.2,1.2l0,0c0,0.7-0.5,1.2-1.2,1.2l0,0
					C178.4,128.4,177.9,127.8,177.9,127.2z"/>
				<path class="st5" d="M153.5,127.2L153.5,127.2c0-0.7,0.5-1.2,1.2-1.2l0,0c0.7,0,1.2,0.5,1.2,1.2l0,0c0,0.7-0.5,1.2-1.2,1.2l0,0
					C154.1,128.4,153.5,127.8,153.5,127.2z"/>
				<path class="st5" d="M202.2,102.7L202.2,102.7c0-0.7,0.5-1.2,1.2-1.2l0,0c0.7,0,1.2,0.5,1.2,1.2l0,0c0,0.7-0.5,1.2-1.2,1.2l0,0
					C202.7,103.9,202.2,103.4,202.2,102.7z"/>
				<path class="st5" d="M177.9,102.7L177.9,102.7c0-0.7,0.5-1.2,1.2-1.2l0,0c0.7,0,1.2,0.5,1.2,1.2l0,0c0,0.7-0.5,1.2-1.2,1.2l0,0
					C178.4,103.9,177.9,103.4,177.9,102.7z"/>
				<path class="st5" d="M153.5,102.7L153.5,102.7c0-0.7,0.5-1.2,1.2-1.2l0,0c0.7,0,1.2,0.5,1.2,1.2l0,0c0,0.7-0.5,1.2-1.2,1.2l0,0
					C154.1,103.9,153.5,103.4,153.5,102.7z"/>
				<path class="st5" d="M202.2,78.3L202.2,78.3c0-0.7,0.5-1.2,1.2-1.2l0,0c0.7,0,1.2,0.5,1.2,1.2l0,0c0,0.7-0.5,1.2-1.2,1.2l0,0
					C202.7,79.5,202.2,79,202.2,78.3z"/>
				<path class="st5" d="M177.9,78.3L177.9,78.3c0-0.7,0.5-1.2,1.2-1.2l0,0c0.7,0,1.2,0.5,1.2,1.2l0,0c0,0.7-0.5,1.2-1.2,1.2l0,0
					C178.4,79.5,177.9,79,177.9,78.3z"/>
				<path class="st5" d="M153.5,78.3L153.5,78.3c0-0.7,0.5-1.2,1.2-1.2l0,0c0.7,0,1.2,0.5,1.2,1.2l0,0c0,0.7-0.5,1.2-1.2,1.2l0,0
					C154.1,79.5,153.5,79,153.5,78.3z"/>
			</g>
			<g>
				<path class="st5" d="M250.3,420.2L250.3,420.2c0-0.7,0.5-1.2,1.2-1.2l0,0c0.7,0,1.2,0.5,1.2,1.2l0,0c0,0.7-0.5,1.2-1.2,1.2l0,0
					C250.8,421.4,250.3,420.9,250.3,420.2z"/>
				<path class="st5" d="M250.3,395.8L250.3,395.8c0-0.7,0.5-1.2,1.2-1.2l0,0c0.7,0,1.2,0.5,1.2,1.2l0,0c0,0.7-0.5,1.2-1.2,1.2l0,0
					C250.8,397,250.3,396.4,250.3,395.8z"/>
				<path class="st5" d="M226,420.2L226,420.2c0-0.7,0.5-1.2,1.2-1.2l0,0c0.7,0,1.2,0.5,1.2,1.2l0,0c0,0.7-0.5,1.2-1.2,1.2l0,0
					C226.5,421.4,226,420.9,226,420.2z"/>
				<path class="st5" d="M226,395.8L226,395.8c0-0.7,0.5-1.2,1.2-1.2l0,0c0.7,0,1.2,0.5,1.2,1.2l0,0c0,0.7-0.5,1.2-1.2,1.2l0,0
					C226.5,397,226,396.4,226,395.8z"/>
				<path class="st5" d="M201.7,420.2L201.7,420.2c0-0.7,0.5-1.2,1.2-1.2l0,0c0.7,0,1.2,0.5,1.2,1.2l0,0c0,0.7-0.5,1.2-1.2,1.2l0,0
					C202.2,421.4,201.7,420.9,201.7,420.2z"/>
				<path class="st5" d="M201.7,395.8L201.7,395.8c0-0.7,0.5-1.2,1.2-1.2l0,0c0.7,0,1.2,0.5,1.2,1.2l0,0c0,0.7-0.5,1.2-1.2,1.2l0,0
					C202.2,397,201.7,396.4,201.7,395.8z"/>
				<path class="st5" d="M250.3,371.4L250.3,371.4c0-0.7,0.5-1.2,1.2-1.2l0,0c0.7,0,1.2,0.5,1.2,1.2l0,0c0,0.7-0.5,1.2-1.2,1.2l0,0
					C250.8,372.6,250.3,372,250.3,371.4z"/>
				<path class="st5" d="M226,371.4L226,371.4c0-0.7,0.5-1.2,1.2-1.2l0,0c0.7,0,1.2,0.5,1.2,1.2l0,0c0,0.7-0.5,1.2-1.2,1.2l0,0
					C226.5,372.6,226,372,226,371.4z"/>
				<path class="st5" d="M201.7,371.4L201.7,371.4c0-0.7,0.5-1.2,1.2-1.2l0,0c0.7,0,1.2,0.5,1.2,1.2l0,0c0,0.7-0.5,1.2-1.2,1.2l0,0
					C202.2,372.6,201.7,372,201.7,371.4z"/>
				<path class="st5" d="M250.3,346.9L250.3,346.9c0-0.7,0.5-1.2,1.2-1.2l0,0c0.7,0,1.2,0.5,1.2,1.2l0,0c0,0.7-0.5,1.2-1.2,1.2l0,0
					C250.8,348.1,250.3,347.6,250.3,346.9z"/>
				<path class="st5" d="M226,346.9L226,346.9c0-0.7,0.5-1.2,1.2-1.2l0,0c0.7,0,1.2,0.5,1.2,1.2l0,0c0,0.7-0.5,1.2-1.2,1.2l0,0
					C226.5,348.1,226,347.6,226,346.9z"/>
				<path class="st5" d="M201.7,346.9L201.7,346.9c0-0.7,0.5-1.2,1.2-1.2l0,0c0.7,0,1.2,0.5,1.2,1.2l0,0c0,0.7-0.5,1.2-1.2,1.2l0,0
					C202.2,348.1,201.7,347.6,201.7,346.9z"/>
				<path class="st5" d="M250.3,322.5L250.3,322.5c0-0.7,0.5-1.2,1.2-1.2l0,0c0.7,0,1.2,0.5,1.2,1.2l0,0c0,0.7-0.5,1.2-1.2,1.2l0,0
					C250.8,323.7,250.3,323.2,250.3,322.5z"/>
				<path class="st5" d="M226,322.5L226,322.5c0-0.7,0.5-1.2,1.2-1.2l0,0c0.7,0,1.2,0.5,1.2,1.2l0,0c0,0.7-0.5,1.2-1.2,1.2l0,0
					C226.5,323.7,226,323.2,226,322.5z"/>
				<path class="st5" d="M201.7,322.5L201.7,322.5c0-0.7,0.5-1.2,1.2-1.2l0,0c0.7,0,1.2,0.5,1.2,1.2l0,0c0,0.7-0.5,1.2-1.2,1.2l0,0
					C202.2,323.7,201.7,323.2,201.7,322.5z"/>
				<path class="st5" d="M250.3,298.1L250.3,298.1c0-0.7,0.5-1.2,1.2-1.2l0,0c0.7,0,1.2,0.5,1.2,1.2l0,0c0,0.7-0.5,1.2-1.2,1.2l0,0
					C250.8,299.3,250.3,298.8,250.3,298.1z"/>
				<path class="st5" d="M226,298.1L226,298.1c0-0.7,0.5-1.2,1.2-1.2l0,0c0.7,0,1.2,0.5,1.2,1.2l0,0c0,0.7-0.5,1.2-1.2,1.2l0,0
					C226.5,299.3,226,298.8,226,298.1z"/>
				<path class="st5" d="M201.7,298.1L201.7,298.1c0-0.7,0.5-1.2,1.2-1.2l0,0c0.7,0,1.2,0.5,1.2,1.2l0,0c0,0.7-0.5,1.2-1.2,1.2l0,0
					C202.2,299.3,201.7,298.8,201.7,298.1z"/>
				<path class="st5" d="M250.3,273.7L250.3,273.7c0-0.7,0.5-1.2,1.2-1.2l0,0c0.7,0,1.2,0.5,1.2,1.2l0,0c0,0.7-0.5,1.2-1.2,1.2l0,0
					C250.8,274.9,250.3,274.3,250.3,273.7z"/>
				<path class="st5" d="M226,273.7L226,273.7c0-0.7,0.5-1.2,1.2-1.2l0,0c0.7,0,1.2,0.5,1.2,1.2l0,0c0,0.7-0.5,1.2-1.2,1.2l0,0
					C226.5,274.9,226,274.3,226,273.7z"/>
				<path class="st5" d="M201.7,273.7L201.7,273.7c0-0.7,0.5-1.2,1.2-1.2l0,0c0.7,0,1.2,0.5,1.2,1.2l0,0c0,0.7-0.5,1.2-1.2,1.2l0,0
					C202.2,274.9,201.7,274.3,201.7,273.7z"/>
				<path class="st5" d="M250.3,249.3L250.3,249.3c0-0.7,0.5-1.2,1.2-1.2l0,0c0.7,0,1.2,0.5,1.2,1.2l0,0c0,0.7-0.5,1.2-1.2,1.2l0,0
					C250.8,250.5,250.3,249.9,250.3,249.3z"/>
				<path class="st5" d="M226,249.3L226,249.3c0-0.7,0.5-1.2,1.2-1.2l0,0c0.7,0,1.2,0.5,1.2,1.2l0,0c0,0.7-0.5,1.2-1.2,1.2l0,0
					C226.5,250.5,226,249.9,226,249.3z"/>
				<path class="st5" d="M201.7,249.3L201.7,249.3c0-0.7,0.5-1.2,1.2-1.2l0,0c0.7,0,1.2,0.5,1.2,1.2l0,0c0,0.7-0.5,1.2-1.2,1.2l0,0
					C202.2,250.5,201.7,249.9,201.7,249.3z"/>
				<path class="st5" d="M250.3,249.3L250.3,249.3c0-0.7,0.5-1.2,1.2-1.2l0,0c0.7,0,1.2,0.5,1.2,1.2l0,0c0,0.7-0.5,1.2-1.2,1.2l0,0
					C250.8,250.5,250.3,249.9,250.3,249.3z"/>
				<path class="st5" d="M250.3,224.8L250.3,224.8c0-0.7,0.5-1.2,1.2-1.2l0,0c0.7,0,1.2,0.5,1.2,1.2l0,0c0,0.7-0.5,1.2-1.2,1.2l0,0
					C250.8,226,250.3,225.5,250.3,224.8z"/>
				<path class="st5" d="M226,249.3L226,249.3c0-0.7,0.5-1.2,1.2-1.2l0,0c0.7,0,1.2,0.5,1.2,1.2l0,0c0,0.7-0.5,1.2-1.2,1.2l0,0
					C226.5,250.5,226,249.9,226,249.3z"/>
				<path class="st5" d="M226,224.8L226,224.8c0-0.7,0.5-1.2,1.2-1.2l0,0c0.7,0,1.2,0.5,1.2,1.2l0,0c0,0.7-0.5,1.2-1.2,1.2l0,0
					C226.5,226,226,225.5,226,224.8z"/>
				<path class="st5" d="M201.7,249.3L201.7,249.3c0-0.7,0.5-1.2,1.2-1.2l0,0c0.7,0,1.2,0.5,1.2,1.2l0,0c0,0.7-0.5,1.2-1.2,1.2l0,0
					C202.2,250.5,201.7,249.9,201.7,249.3z"/>
				<path class="st5" d="M201.7,224.8L201.7,224.8c0-0.7,0.5-1.2,1.2-1.2l0,0c0.7,0,1.2,0.5,1.2,1.2l0,0c0,0.7-0.5,1.2-1.2,1.2l0,0
					C202.2,226,201.7,225.5,201.7,224.8z"/>
				<path class="st5" d="M250.3,200.4L250.3,200.4c0-0.7,0.5-1.2,1.2-1.2l0,0c0.7,0,1.2,0.5,1.2,1.2l0,0c0,0.7-0.5,1.2-1.2,1.2l0,0
					C250.8,201.6,250.3,201.1,250.3,200.4z"/>
				<path class="st5" d="M226,200.4L226,200.4c0-0.7,0.5-1.2,1.2-1.2l0,0c0.7,0,1.2,0.5,1.2,1.2l0,0c0,0.7-0.5,1.2-1.2,1.2l0,0
					C226.5,201.6,226,201.1,226,200.4z"/>
				<path class="st5" d="M201.7,200.4L201.7,200.4c0-0.7,0.5-1.2,1.2-1.2l0,0c0.7,0,1.2,0.5,1.2,1.2l0,0c0,0.7-0.5,1.2-1.2,1.2l0,0
					C202.2,201.6,201.7,201.1,201.7,200.4z"/>
				<path class="st5" d="M250.3,176L250.3,176c0-0.7,0.5-1.2,1.2-1.2l0,0c0.7,0,1.2,0.5,1.2,1.2l0,0c0,0.7-0.5,1.2-1.2,1.2l0,0
					C250.8,177.2,250.3,176.7,250.3,176z"/>
				<path class="st5" d="M226,176L226,176c0-0.7,0.5-1.2,1.2-1.2l0,0c0.7,0,1.2,0.5,1.2,1.2l0,0c0,0.7-0.5,1.2-1.2,1.2l0,0
					C226.5,177.2,226,176.7,226,176z"/>
				<path class="st5" d="M201.7,176L201.7,176c0-0.7,0.5-1.2,1.2-1.2l0,0c0.7,0,1.2,0.5,1.2,1.2l0,0c0,0.7-0.5,1.2-1.2,1.2l0,0
					C202.2,177.2,201.7,176.7,201.7,176z"/>
				<path class="st5" d="M250.3,151.6L250.3,151.6c0-0.7,0.5-1.2,1.2-1.2l0,0c0.7,0,1.2,0.5,1.2,1.2l0,0c0,0.7-0.5,1.2-1.2,1.2l0,0
					C250.8,152.8,250.3,152.2,250.3,151.6z"/>
				<path class="st5" d="M226,151.6L226,151.6c0-0.7,0.5-1.2,1.2-1.2l0,0c0.7,0,1.2,0.5,1.2,1.2l0,0c0,0.7-0.5,1.2-1.2,1.2l0,0
					C226.5,152.8,226,152.2,226,151.6z"/>
				<path class="st5" d="M201.7,151.6L201.7,151.6c0-0.7,0.5-1.2,1.2-1.2l0,0c0.7,0,1.2,0.5,1.2,1.2l0,0c0,0.7-0.5,1.2-1.2,1.2l0,0
					C202.2,152.8,201.7,152.2,201.7,151.6z"/>
				<path class="st5" d="M250.3,127.2L250.3,127.2c0-0.7,0.5-1.2,1.2-1.2l0,0c0.7,0,1.2,0.5,1.2,1.2l0,0c0,0.7-0.5,1.2-1.2,1.2l0,0
					C250.8,128.4,250.3,127.8,250.3,127.2z"/>
				<path class="st5" d="M226,127.2L226,127.2c0-0.7,0.5-1.2,1.2-1.2l0,0c0.7,0,1.2,0.5,1.2,1.2l0,0c0,0.7-0.5,1.2-1.2,1.2l0,0
					C226.5,128.4,226,127.8,226,127.2z"/>
				<path class="st5" d="M201.7,127.2L201.7,127.2c0-0.7,0.5-1.2,1.2-1.2l0,0c0.7,0,1.2,0.5,1.2,1.2l0,0c0,0.7-0.5,1.2-1.2,1.2l0,0
					C202.2,128.4,201.7,127.8,201.7,127.2z"/>
				<path class="st5" d="M250.3,102.7L250.3,102.7c0-0.7,0.5-1.2,1.2-1.2l0,0c0.7,0,1.2,0.5,1.2,1.2l0,0c0,0.7-0.5,1.2-1.2,1.2l0,0
					C250.8,103.9,250.3,103.4,250.3,102.7z"/>
				<path class="st5" d="M226,102.7L226,102.7c0-0.7,0.5-1.2,1.2-1.2l0,0c0.7,0,1.2,0.5,1.2,1.2l0,0c0,0.7-0.5,1.2-1.2,1.2l0,0
					C226.5,103.9,226,103.4,226,102.7z"/>
				<path class="st5" d="M201.7,102.7L201.7,102.7c0-0.7,0.5-1.2,1.2-1.2l0,0c0.7,0,1.2,0.5,1.2,1.2l0,0c0,0.7-0.5,1.2-1.2,1.2l0,0
					C202.2,103.9,201.7,103.4,201.7,102.7z"/>
				<path class="st5" d="M250.3,78.3L250.3,78.3c0-0.7,0.5-1.2,1.2-1.2l0,0c0.7,0,1.2,0.5,1.2,1.2l0,0c0,0.7-0.5,1.2-1.2,1.2l0,0
					C250.8,79.5,250.3,79,250.3,78.3z"/>
				<path class="st5" d="M226,78.3L226,78.3c0-0.7,0.5-1.2,1.2-1.2l0,0c0.7,0,1.2,0.5,1.2,1.2l0,0c0,0.7-0.5,1.2-1.2,1.2l0,0
					C226.5,79.5,226,79,226,78.3z"/>
				<path class="st5" d="M201.7,78.3L201.7,78.3c0-0.7,0.5-1.2,1.2-1.2l0,0c0.7,0,1.2,0.5,1.2,1.2l0,0c0,0.7-0.5,1.2-1.2,1.2l0,0
					C202.2,79.5,201.7,79,201.7,78.3z"/>
			</g>
			<g>
				<path class="st5" d="M298.5,420.2L298.5,420.2c0-0.7,0.5-1.2,1.2-1.2l0,0c0.7,0,1.2,0.5,1.2,1.2l0,0c0,0.7-0.5,1.2-1.2,1.2l0,0
					C299,421.4,298.5,420.9,298.5,420.2z"/>
				<path class="st5" d="M298.5,395.8L298.5,395.8c0-0.7,0.5-1.2,1.2-1.2l0,0c0.7,0,1.2,0.5,1.2,1.2l0,0c0,0.7-0.5,1.2-1.2,1.2l0,0
					C299,397,298.5,396.4,298.5,395.8z"/>
				<path class="st5" d="M274.1,420.2L274.1,420.2c0-0.7,0.5-1.2,1.2-1.2l0,0c0.7,0,1.2,0.5,1.2,1.2l0,0c0,0.7-0.5,1.2-1.2,1.2l0,0
					C274.7,421.4,274.1,420.9,274.1,420.2z"/>
				<path class="st5" d="M274.1,395.8L274.1,395.8c0-0.7,0.5-1.2,1.2-1.2l0,0c0.7,0,1.2,0.5,1.2,1.2l0,0c0,0.7-0.5,1.2-1.2,1.2l0,0
					C274.7,397,274.1,396.4,274.1,395.8z"/>
				<path class="st5" d="M249.8,420.2L249.8,420.2c0-0.7,0.5-1.2,1.2-1.2l0,0c0.7,0,1.2,0.5,1.2,1.2l0,0c0,0.7-0.5,1.2-1.2,1.2l0,0
					C250.4,421.4,249.8,420.9,249.8,420.2z"/>
				<path class="st5" d="M249.8,395.8L249.8,395.8c0-0.7,0.5-1.2,1.2-1.2l0,0c0.7,0,1.2,0.5,1.2,1.2l0,0c0,0.7-0.5,1.2-1.2,1.2l0,0
					C250.4,397,249.8,396.4,249.8,395.8z"/>
				<path class="st5" d="M298.5,371.4L298.5,371.4c0-0.7,0.5-1.2,1.2-1.2l0,0c0.7,0,1.2,0.5,1.2,1.2l0,0c0,0.7-0.5,1.2-1.2,1.2l0,0
					C299,372.6,298.5,372,298.5,371.4z"/>
				<path class="st5" d="M274.1,371.4L274.1,371.4c0-0.7,0.5-1.2,1.2-1.2l0,0c0.7,0,1.2,0.5,1.2,1.2l0,0c0,0.7-0.5,1.2-1.2,1.2l0,0
					C274.7,372.6,274.1,372,274.1,371.4z"/>
				<path class="st5" d="M249.8,371.4L249.8,371.4c0-0.7,0.5-1.2,1.2-1.2l0,0c0.7,0,1.2,0.5,1.2,1.2l0,0c0,0.7-0.5,1.2-1.2,1.2l0,0
					C250.4,372.6,249.8,372,249.8,371.4z"/>
				<path class="st5" d="M298.5,346.9L298.5,346.9c0-0.7,0.5-1.2,1.2-1.2l0,0c0.7,0,1.2,0.5,1.2,1.2l0,0c0,0.7-0.5,1.2-1.2,1.2l0,0
					C299,348.1,298.5,347.6,298.5,346.9z"/>
				<path class="st5" d="M274.1,346.9L274.1,346.9c0-0.7,0.5-1.2,1.2-1.2l0,0c0.7,0,1.2,0.5,1.2,1.2l0,0c0,0.7-0.5,1.2-1.2,1.2l0,0
					C274.7,348.1,274.1,347.6,274.1,346.9z"/>
				<path class="st5" d="M249.8,346.9L249.8,346.9c0-0.7,0.5-1.2,1.2-1.2l0,0c0.7,0,1.2,0.5,1.2,1.2l0,0c0,0.7-0.5,1.2-1.2,1.2l0,0
					C250.4,348.1,249.8,347.6,249.8,346.9z"/>
				<path class="st5" d="M298.5,322.5L298.5,322.5c0-0.7,0.5-1.2,1.2-1.2l0,0c0.7,0,1.2,0.5,1.2,1.2l0,0c0,0.7-0.5,1.2-1.2,1.2l0,0
					C299,323.7,298.5,323.2,298.5,322.5z"/>
				<path class="st5" d="M274.1,322.5L274.1,322.5c0-0.7,0.5-1.2,1.2-1.2l0,0c0.7,0,1.2,0.5,1.2,1.2l0,0c0,0.7-0.5,1.2-1.2,1.2l0,0
					C274.7,323.7,274.1,323.2,274.1,322.5z"/>
				<path class="st5" d="M249.8,322.5L249.8,322.5c0-0.7,0.5-1.2,1.2-1.2l0,0c0.7,0,1.2,0.5,1.2,1.2l0,0c0,0.7-0.5,1.2-1.2,1.2l0,0
					C250.4,323.7,249.8,323.2,249.8,322.5z"/>
				<path class="st5" d="M298.5,298.1L298.5,298.1c0-0.7,0.5-1.2,1.2-1.2l0,0c0.7,0,1.2,0.5,1.2,1.2l0,0c0,0.7-0.5,1.2-1.2,1.2l0,0
					C299,299.3,298.5,298.8,298.5,298.1z"/>
				<path class="st5" d="M274.1,298.1L274.1,298.1c0-0.7,0.5-1.2,1.2-1.2l0,0c0.7,0,1.2,0.5,1.2,1.2l0,0c0,0.7-0.5,1.2-1.2,1.2l0,0
					C274.7,299.3,274.1,298.8,274.1,298.1z"/>
				<path class="st5" d="M249.8,298.1L249.8,298.1c0-0.7,0.5-1.2,1.2-1.2l0,0c0.7,0,1.2,0.5,1.2,1.2l0,0c0,0.7-0.5,1.2-1.2,1.2l0,0
					C250.4,299.3,249.8,298.8,249.8,298.1z"/>
				<path class="st5" d="M298.5,273.7L298.5,273.7c0-0.7,0.5-1.2,1.2-1.2l0,0c0.7,0,1.2,0.5,1.2,1.2l0,0c0,0.7-0.5,1.2-1.2,1.2l0,0
					C299,274.9,298.5,274.3,298.5,273.7z"/>
				<path class="st5" d="M274.1,273.7L274.1,273.7c0-0.7,0.5-1.2,1.2-1.2l0,0c0.7,0,1.2,0.5,1.2,1.2l0,0c0,0.7-0.5,1.2-1.2,1.2l0,0
					C274.7,274.9,274.1,274.3,274.1,273.7z"/>
				<path class="st5" d="M249.8,273.7L249.8,273.7c0-0.7,0.5-1.2,1.2-1.2l0,0c0.7,0,1.2,0.5,1.2,1.2l0,0c0,0.7-0.5,1.2-1.2,1.2l0,0
					C250.4,274.9,249.8,274.3,249.8,273.7z"/>
				<path class="st5" d="M298.5,249.3L298.5,249.3c0-0.7,0.5-1.2,1.2-1.2l0,0c0.7,0,1.2,0.5,1.2,1.2l0,0c0,0.7-0.5,1.2-1.2,1.2l0,0
					C299,250.5,298.5,249.9,298.5,249.3z"/>
				<path class="st5" d="M274.1,249.3L274.1,249.3c0-0.7,0.5-1.2,1.2-1.2l0,0c0.7,0,1.2,0.5,1.2,1.2l0,0c0,0.7-0.5,1.2-1.2,1.2l0,0
					C274.7,250.5,274.1,249.9,274.1,249.3z"/>
				<path class="st5" d="M249.8,249.3L249.8,249.3c0-0.7,0.5-1.2,1.2-1.2l0,0c0.7,0,1.2,0.5,1.2,1.2l0,0c0,0.7-0.5,1.2-1.2,1.2l0,0
					C250.4,250.5,249.8,249.9,249.8,249.3z"/>
				<path class="st5" d="M298.5,249.3L298.5,249.3c0-0.7,0.5-1.2,1.2-1.2l0,0c0.7,0,1.2,0.5,1.2,1.2l0,0c0,0.7-0.5,1.2-1.2,1.2l0,0
					C299,250.5,298.5,249.9,298.5,249.3z"/>
				<path class="st5" d="M298.5,224.8L298.5,224.8c0-0.7,0.5-1.2,1.2-1.2l0,0c0.7,0,1.2,0.5,1.2,1.2l0,0c0,0.7-0.5,1.2-1.2,1.2l0,0
					C299,226,298.5,225.5,298.5,224.8z"/>
				<path class="st5" d="M274.1,249.3L274.1,249.3c0-0.7,0.5-1.2,1.2-1.2l0,0c0.7,0,1.2,0.5,1.2,1.2l0,0c0,0.7-0.5,1.2-1.2,1.2l0,0
					C274.7,250.5,274.1,249.9,274.1,249.3z"/>
				<path class="st5" d="M274.1,224.8L274.1,224.8c0-0.7,0.5-1.2,1.2-1.2l0,0c0.7,0,1.2,0.5,1.2,1.2l0,0c0,0.7-0.5,1.2-1.2,1.2l0,0
					C274.7,226,274.1,225.5,274.1,224.8z"/>
				<path class="st5" d="M249.8,249.3L249.8,249.3c0-0.7,0.5-1.2,1.2-1.2l0,0c0.7,0,1.2,0.5,1.2,1.2l0,0c0,0.7-0.5,1.2-1.2,1.2l0,0
					C250.4,250.5,249.8,249.9,249.8,249.3z"/>
				<path class="st5" d="M249.8,224.8L249.8,224.8c0-0.7,0.5-1.2,1.2-1.2l0,0c0.7,0,1.2,0.5,1.2,1.2l0,0c0,0.7-0.5,1.2-1.2,1.2l0,0
					C250.4,226,249.8,225.5,249.8,224.8z"/>
				<path class="st5" d="M298.5,200.4L298.5,200.4c0-0.7,0.5-1.2,1.2-1.2l0,0c0.7,0,1.2,0.5,1.2,1.2l0,0c0,0.7-0.5,1.2-1.2,1.2l0,0
					C299,201.6,298.5,201.1,298.5,200.4z"/>
				<path class="st5" d="M274.1,200.4L274.1,200.4c0-0.7,0.5-1.2,1.2-1.2l0,0c0.7,0,1.2,0.5,1.2,1.2l0,0c0,0.7-0.5,1.2-1.2,1.2l0,0
					C274.7,201.6,274.1,201.1,274.1,200.4z"/>
				<path class="st5" d="M249.8,200.4L249.8,200.4c0-0.7,0.5-1.2,1.2-1.2l0,0c0.7,0,1.2,0.5,1.2,1.2l0,0c0,0.7-0.5,1.2-1.2,1.2l0,0
					C250.4,201.6,249.8,201.1,249.8,200.4z"/>
				<path class="st5" d="M298.5,176L298.5,176c0-0.7,0.5-1.2,1.2-1.2l0,0c0.7,0,1.2,0.5,1.2,1.2l0,0c0,0.7-0.5,1.2-1.2,1.2l0,0
					C299,177.2,298.5,176.7,298.5,176z"/>
				<path class="st5" d="M274.1,176L274.1,176c0-0.7,0.5-1.2,1.2-1.2l0,0c0.7,0,1.2,0.5,1.2,1.2l0,0c0,0.7-0.5,1.2-1.2,1.2l0,0
					C274.7,177.2,274.1,176.7,274.1,176z"/>
				<path class="st5" d="M249.8,176L249.8,176c0-0.7,0.5-1.2,1.2-1.2l0,0c0.7,0,1.2,0.5,1.2,1.2l0,0c0,0.7-0.5,1.2-1.2,1.2l0,0
					C250.4,177.2,249.8,176.7,249.8,176z"/>
				<path class="st5" d="M298.5,151.6L298.5,151.6c0-0.7,0.5-1.2,1.2-1.2l0,0c0.7,0,1.2,0.5,1.2,1.2l0,0c0,0.7-0.5,1.2-1.2,1.2l0,0
					C299,152.8,298.5,152.2,298.5,151.6z"/>
				<path class="st5" d="M274.1,151.6L274.1,151.6c0-0.7,0.5-1.2,1.2-1.2l0,0c0.7,0,1.2,0.5,1.2,1.2l0,0c0,0.7-0.5,1.2-1.2,1.2l0,0
					C274.7,152.8,274.1,152.2,274.1,151.6z"/>
				<path class="st5" d="M249.8,151.6L249.8,151.6c0-0.7,0.5-1.2,1.2-1.2l0,0c0.7,0,1.2,0.5,1.2,1.2l0,0c0,0.7-0.5,1.2-1.2,1.2l0,0
					C250.4,152.8,249.8,152.2,249.8,151.6z"/>
				<path class="st5" d="M298.5,127.2L298.5,127.2c0-0.7,0.5-1.2,1.2-1.2l0,0c0.7,0,1.2,0.5,1.2,1.2l0,0c0,0.7-0.5,1.2-1.2,1.2l0,0
					C299,128.4,298.5,127.8,298.5,127.2z"/>
				<path class="st5" d="M274.1,127.2L274.1,127.2c0-0.7,0.5-1.2,1.2-1.2l0,0c0.7,0,1.2,0.5,1.2,1.2l0,0c0,0.7-0.5,1.2-1.2,1.2l0,0
					C274.7,128.4,274.1,127.8,274.1,127.2z"/>
				<path class="st5" d="M249.8,127.2L249.8,127.2c0-0.7,0.5-1.2,1.2-1.2l0,0c0.7,0,1.2,0.5,1.2,1.2l0,0c0,0.7-0.5,1.2-1.2,1.2l0,0
					C250.4,128.4,249.8,127.8,249.8,127.2z"/>
				<path class="st5" d="M298.5,102.7L298.5,102.7c0-0.7,0.5-1.2,1.2-1.2l0,0c0.7,0,1.2,0.5,1.2,1.2l0,0c0,0.7-0.5,1.2-1.2,1.2l0,0
					C299,103.9,298.5,103.4,298.5,102.7z"/>
				<path class="st5" d="M274.1,102.7L274.1,102.7c0-0.7,0.5-1.2,1.2-1.2l0,0c0.7,0,1.2,0.5,1.2,1.2l0,0c0,0.7-0.5,1.2-1.2,1.2l0,0
					C274.7,103.9,274.1,103.4,274.1,102.7z"/>
				<path class="st5" d="M249.8,102.7L249.8,102.7c0-0.7,0.5-1.2,1.2-1.2l0,0c0.7,0,1.2,0.5,1.2,1.2l0,0c0,0.7-0.5,1.2-1.2,1.2l0,0
					C250.4,103.9,249.8,103.4,249.8,102.7z"/>
				<path class="st5" d="M298.5,78.3L298.5,78.3c0-0.7,0.5-1.2,1.2-1.2l0,0c0.7,0,1.2,0.5,1.2,1.2l0,0c0,0.7-0.5,1.2-1.2,1.2l0,0
					C299,79.5,298.5,79,298.5,78.3z"/>
				<path class="st5" d="M274.1,78.3L274.1,78.3c0-0.7,0.5-1.2,1.2-1.2l0,0c0.7,0,1.2,0.5,1.2,1.2l0,0c0,0.7-0.5,1.2-1.2,1.2l0,0
					C274.7,79.5,274.1,79,274.1,78.3z"/>
				<path class="st5" d="M249.8,78.3L249.8,78.3c0-0.7,0.5-1.2,1.2-1.2l0,0c0.7,0,1.2,0.5,1.2,1.2l0,0c0,0.7-0.5,1.2-1.2,1.2l0,0
					C250.4,79.5,249.8,79,249.8,78.3z"/>
			</g>
			<g>
				<path class="st5" d="M346.6,420.2L346.6,420.2c0-0.7,0.5-1.2,1.2-1.2l0,0c0.7,0,1.2,0.5,1.2,1.2l0,0c0,0.7-0.5,1.2-1.2,1.2l0,0
					C347.1,421.4,346.6,420.9,346.6,420.2z"/>
				<path class="st5" d="M346.6,395.8L346.6,395.8c0-0.7,0.5-1.2,1.2-1.2l0,0c0.7,0,1.2,0.5,1.2,1.2l0,0c0,0.7-0.5,1.2-1.2,1.2l0,0
					C347.1,397,346.6,396.4,346.6,395.8z"/>
				<path class="st5" d="M322.3,420.2L322.3,420.2c0-0.7,0.5-1.2,1.2-1.2l0,0c0.7,0,1.2,0.5,1.2,1.2l0,0c0,0.7-0.5,1.2-1.2,1.2l0,0
					C322.8,421.4,322.3,420.9,322.3,420.2z"/>
				<path class="st5" d="M322.3,395.8L322.3,395.8c0-0.7,0.5-1.2,1.2-1.2l0,0c0.7,0,1.2,0.5,1.2,1.2l0,0c0,0.7-0.5,1.2-1.2,1.2l0,0
					C322.8,397,322.3,396.4,322.3,395.8z"/>
				<path class="st5" d="M298,420.2L298,420.2c0-0.7,0.5-1.2,1.2-1.2l0,0c0.7,0,1.2,0.5,1.2,1.2l0,0c0,0.7-0.5,1.2-1.2,1.2l0,0
					C298.5,421.4,298,420.9,298,420.2z"/>
				<path class="st5" d="M298,395.8L298,395.8c0-0.7,0.5-1.2,1.2-1.2l0,0c0.7,0,1.2,0.5,1.2,1.2l0,0c0,0.7-0.5,1.2-1.2,1.2l0,0
					C298.5,397,298,396.4,298,395.8z"/>
				<path class="st5" d="M346.6,371.4L346.6,371.4c0-0.7,0.5-1.2,1.2-1.2l0,0c0.7,0,1.2,0.5,1.2,1.2l0,0c0,0.7-0.5,1.2-1.2,1.2l0,0
					C347.1,372.6,346.6,372,346.6,371.4z"/>
				<path class="st5" d="M322.3,371.4L322.3,371.4c0-0.7,0.5-1.2,1.2-1.2l0,0c0.7,0,1.2,0.5,1.2,1.2l0,0c0,0.7-0.5,1.2-1.2,1.2l0,0
					C322.8,372.6,322.3,372,322.3,371.4z"/>
				<path class="st5" d="M298,371.4L298,371.4c0-0.7,0.5-1.2,1.2-1.2l0,0c0.7,0,1.2,0.5,1.2,1.2l0,0c0,0.7-0.5,1.2-1.2,1.2l0,0
					C298.5,372.6,298,372,298,371.4z"/>
				<path class="st5" d="M346.6,346.9L346.6,346.9c0-0.7,0.5-1.2,1.2-1.2l0,0c0.7,0,1.2,0.5,1.2,1.2l0,0c0,0.7-0.5,1.2-1.2,1.2l0,0
					C347.1,348.1,346.6,347.6,346.6,346.9z"/>
				<path class="st5" d="M322.3,346.9L322.3,346.9c0-0.7,0.5-1.2,1.2-1.2l0,0c0.7,0,1.2,0.5,1.2,1.2l0,0c0,0.7-0.5,1.2-1.2,1.2l0,0
					C322.8,348.1,322.3,347.6,322.3,346.9z"/>
				<path class="st5" d="M298,346.9L298,346.9c0-0.7,0.5-1.2,1.2-1.2l0,0c0.7,0,1.2,0.5,1.2,1.2l0,0c0,0.7-0.5,1.2-1.2,1.2l0,0
					C298.5,348.1,298,347.6,298,346.9z"/>
				<path class="st5" d="M346.6,322.5L346.6,322.5c0-0.7,0.5-1.2,1.2-1.2l0,0c0.7,0,1.2,0.5,1.2,1.2l0,0c0,0.7-0.5,1.2-1.2,1.2l0,0
					C347.1,323.7,346.6,323.2,346.6,322.5z"/>
				<path class="st5" d="M322.3,322.5L322.3,322.5c0-0.7,0.5-1.2,1.2-1.2l0,0c0.7,0,1.2,0.5,1.2,1.2l0,0c0,0.7-0.5,1.2-1.2,1.2l0,0
					C322.8,323.7,322.3,323.2,322.3,322.5z"/>
				<path class="st5" d="M298,322.5L298,322.5c0-0.7,0.5-1.2,1.2-1.2l0,0c0.7,0,1.2,0.5,1.2,1.2l0,0c0,0.7-0.5,1.2-1.2,1.2l0,0
					C298.5,323.7,298,323.2,298,322.5z"/>
				<path class="st5" d="M346.6,298.1L346.6,298.1c0-0.7,0.5-1.2,1.2-1.2l0,0c0.7,0,1.2,0.5,1.2,1.2l0,0c0,0.7-0.5,1.2-1.2,1.2l0,0
					C347.1,299.3,346.6,298.8,346.6,298.1z"/>
				<path class="st5" d="M322.3,298.1L322.3,298.1c0-0.7,0.5-1.2,1.2-1.2l0,0c0.7,0,1.2,0.5,1.2,1.2l0,0c0,0.7-0.5,1.2-1.2,1.2l0,0
					C322.8,299.3,322.3,298.8,322.3,298.1z"/>
				<path class="st5" d="M298,298.1L298,298.1c0-0.7,0.5-1.2,1.2-1.2l0,0c0.7,0,1.2,0.5,1.2,1.2l0,0c0,0.7-0.5,1.2-1.2,1.2l0,0
					C298.5,299.3,298,298.8,298,298.1z"/>
				<path class="st5" d="M346.6,273.7L346.6,273.7c0-0.7,0.5-1.2,1.2-1.2l0,0c0.7,0,1.2,0.5,1.2,1.2l0,0c0,0.7-0.5,1.2-1.2,1.2l0,0
					C347.1,274.9,346.6,274.3,346.6,273.7z"/>
				<path class="st5" d="M322.3,273.7L322.3,273.7c0-0.7,0.5-1.2,1.2-1.2l0,0c0.7,0,1.2,0.5,1.2,1.2l0,0c0,0.7-0.5,1.2-1.2,1.2l0,0
					C322.8,274.9,322.3,274.3,322.3,273.7z"/>
				<path class="st5" d="M298,273.7L298,273.7c0-0.7,0.5-1.2,1.2-1.2l0,0c0.7,0,1.2,0.5,1.2,1.2l0,0c0,0.7-0.5,1.2-1.2,1.2l0,0
					C298.5,274.9,298,274.3,298,273.7z"/>
				<path class="st5" d="M346.6,249.3L346.6,249.3c0-0.7,0.5-1.2,1.2-1.2l0,0c0.7,0,1.2,0.5,1.2,1.2l0,0c0,0.7-0.5,1.2-1.2,1.2l0,0
					C347.1,250.5,346.6,249.9,346.6,249.3z"/>
				<path class="st5" d="M322.3,249.3L322.3,249.3c0-0.7,0.5-1.2,1.2-1.2l0,0c0.7,0,1.2,0.5,1.2,1.2l0,0c0,0.7-0.5,1.2-1.2,1.2l0,0
					C322.8,250.5,322.3,249.9,322.3,249.3z"/>
				<path class="st5" d="M298,249.3L298,249.3c0-0.7,0.5-1.2,1.2-1.2l0,0c0.7,0,1.2,0.5,1.2,1.2l0,0c0,0.7-0.5,1.2-1.2,1.2l0,0
					C298.5,250.5,298,249.9,298,249.3z"/>
				<path class="st5" d="M346.6,249.3L346.6,249.3c0-0.7,0.5-1.2,1.2-1.2l0,0c0.7,0,1.2,0.5,1.2,1.2l0,0c0,0.7-0.5,1.2-1.2,1.2l0,0
					C347.1,250.5,346.6,249.9,346.6,249.3z"/>
				<path class="st5" d="M346.6,224.8L346.6,224.8c0-0.7,0.5-1.2,1.2-1.2l0,0c0.7,0,1.2,0.5,1.2,1.2l0,0c0,0.7-0.5,1.2-1.2,1.2l0,0
					C347.1,226,346.6,225.5,346.6,224.8z"/>
				<path class="st5" d="M322.3,249.3L322.3,249.3c0-0.7,0.5-1.2,1.2-1.2l0,0c0.7,0,1.2,0.5,1.2,1.2l0,0c0,0.7-0.5,1.2-1.2,1.2l0,0
					C322.8,250.5,322.3,249.9,322.3,249.3z"/>
				<path class="st5" d="M322.3,224.8L322.3,224.8c0-0.7,0.5-1.2,1.2-1.2l0,0c0.7,0,1.2,0.5,1.2,1.2l0,0c0,0.7-0.5,1.2-1.2,1.2l0,0
					C322.8,226,322.3,225.5,322.3,224.8z"/>
				<path class="st5" d="M298,249.3L298,249.3c0-0.7,0.5-1.2,1.2-1.2l0,0c0.7,0,1.2,0.5,1.2,1.2l0,0c0,0.7-0.5,1.2-1.2,1.2l0,0
					C298.5,250.5,298,249.9,298,249.3z"/>
				<path class="st5" d="M298,224.8L298,224.8c0-0.7,0.5-1.2,1.2-1.2l0,0c0.7,0,1.2,0.5,1.2,1.2l0,0c0,0.7-0.5,1.2-1.2,1.2l0,0
					C298.5,226,298,225.5,298,224.8z"/>
				<path class="st5" d="M346.6,200.4L346.6,200.4c0-0.7,0.5-1.2,1.2-1.2l0,0c0.7,0,1.2,0.5,1.2,1.2l0,0c0,0.7-0.5,1.2-1.2,1.2l0,0
					C347.1,201.6,346.6,201.1,346.6,200.4z"/>
				<path class="st5" d="M322.3,200.4L322.3,200.4c0-0.7,0.5-1.2,1.2-1.2l0,0c0.7,0,1.2,0.5,1.2,1.2l0,0c0,0.7-0.5,1.2-1.2,1.2l0,0
					C322.8,201.6,322.3,201.1,322.3,200.4z"/>
				<path class="st5" d="M298,200.4L298,200.4c0-0.7,0.5-1.2,1.2-1.2l0,0c0.7,0,1.2,0.5,1.2,1.2l0,0c0,0.7-0.5,1.2-1.2,1.2l0,0
					C298.5,201.6,298,201.1,298,200.4z"/>
				<path class="st5" d="M346.6,176L346.6,176c0-0.7,0.5-1.2,1.2-1.2l0,0c0.7,0,1.2,0.5,1.2,1.2l0,0c0,0.7-0.5,1.2-1.2,1.2l0,0
					C347.1,177.2,346.6,176.7,346.6,176z"/>
				<path class="st5" d="M322.3,176L322.3,176c0-0.7,0.5-1.2,1.2-1.2l0,0c0.7,0,1.2,0.5,1.2,1.2l0,0c0,0.7-0.5,1.2-1.2,1.2l0,0
					C322.8,177.2,322.3,176.7,322.3,176z"/>
				<path class="st5" d="M298,176L298,176c0-0.7,0.5-1.2,1.2-1.2l0,0c0.7,0,1.2,0.5,1.2,1.2l0,0c0,0.7-0.5,1.2-1.2,1.2l0,0
					C298.5,177.2,298,176.7,298,176z"/>
				<path class="st5" d="M346.6,151.6L346.6,151.6c0-0.7,0.5-1.2,1.2-1.2l0,0c0.7,0,1.2,0.5,1.2,1.2l0,0c0,0.7-0.5,1.2-1.2,1.2l0,0
					C347.1,152.8,346.6,152.2,346.6,151.6z"/>
				<path class="st5" d="M322.3,151.6L322.3,151.6c0-0.7,0.5-1.2,1.2-1.2l0,0c0.7,0,1.2,0.5,1.2,1.2l0,0c0,0.7-0.5,1.2-1.2,1.2l0,0
					C322.8,152.8,322.3,152.2,322.3,151.6z"/>
				<path class="st5" d="M298,151.6L298,151.6c0-0.7,0.5-1.2,1.2-1.2l0,0c0.7,0,1.2,0.5,1.2,1.2l0,0c0,0.7-0.5,1.2-1.2,1.2l0,0
					C298.5,152.8,298,152.2,298,151.6z"/>
				<path class="st5" d="M346.6,127.2L346.6,127.2c0-0.7,0.5-1.2,1.2-1.2l0,0c0.7,0,1.2,0.5,1.2,1.2l0,0c0,0.7-0.5,1.2-1.2,1.2l0,0
					C347.1,128.4,346.6,127.8,346.6,127.2z"/>
				<path class="st5" d="M322.3,127.2L322.3,127.2c0-0.7,0.5-1.2,1.2-1.2l0,0c0.7,0,1.2,0.5,1.2,1.2l0,0c0,0.7-0.5,1.2-1.2,1.2l0,0
					C322.8,128.4,322.3,127.8,322.3,127.2z"/>
				<path class="st5" d="M298,127.2L298,127.2c0-0.7,0.5-1.2,1.2-1.2l0,0c0.7,0,1.2,0.5,1.2,1.2l0,0c0,0.7-0.5,1.2-1.2,1.2l0,0
					C298.5,128.4,298,127.8,298,127.2z"/>
				<path class="st5" d="M346.6,102.7L346.6,102.7c0-0.7,0.5-1.2,1.2-1.2l0,0c0.7,0,1.2,0.5,1.2,1.2l0,0c0,0.7-0.5,1.2-1.2,1.2l0,0
					C347.1,103.9,346.6,103.4,346.6,102.7z"/>
				<path class="st5" d="M322.3,102.7L322.3,102.7c0-0.7,0.5-1.2,1.2-1.2l0,0c0.7,0,1.2,0.5,1.2,1.2l0,0c0,0.7-0.5,1.2-1.2,1.2l0,0
					C322.8,103.9,322.3,103.4,322.3,102.7z"/>
				<path class="st5" d="M298,102.7L298,102.7c0-0.7,0.5-1.2,1.2-1.2l0,0c0.7,0,1.2,0.5,1.2,1.2l0,0c0,0.7-0.5,1.2-1.2,1.2l0,0
					C298.5,103.9,298,103.4,298,102.7z"/>
				<path class="st5" d="M346.6,78.3L346.6,78.3c0-0.7,0.5-1.2,1.2-1.2l0,0c0.7,0,1.2,0.5,1.2,1.2l0,0c0,0.7-0.5,1.2-1.2,1.2l0,0
					C347.1,79.5,346.6,79,346.6,78.3z"/>
				<path class="st5" d="M322.3,78.3L322.3,78.3c0-0.7,0.5-1.2,1.2-1.2l0,0c0.7,0,1.2,0.5,1.2,1.2l0,0c0,0.7-0.5,1.2-1.2,1.2l0,0
					C322.8,79.5,322.3,79,322.3,78.3z"/>
				<path class="st5" d="M298,78.3L298,78.3c0-0.7,0.5-1.2,1.2-1.2l0,0c0.7,0,1.2,0.5,1.2,1.2l0,0c0,0.7-0.5,1.2-1.2,1.2l0,0
					C298.5,79.5,298,79,298,78.3z"/>
			</g>
		</g>
	</g>
</g>
</svg>
