<?xml version="1.0" encoding="utf-8"?>
<!-- Generator: Adobe Illustrator 26.0.3, SVG Export Plug-In . SVG Version: 6.00 Build 0)  -->
<svg version="1.1" id="Capa_1" xmlns="http://www.w3.org/2000/svg" xmlns:xlink="http://www.w3.org/1999/xlink" x="0px" y="0px"
	 width="1024px" height="361px" viewBox="0 0 1024 361" style="enable-background:new 0 0 1024 361;" xml:space="preserve">
<style type="text/css">
	.st0{fill:#0B0B0B;}
	.st1{fill:#3B3B3B;}
</style>
<g>
	<g>
		<defs>
			<rect id="SVGID_1_" x="0.3" y="-0.2" width="1023.9" height="339"/>
		</defs>
		<clipPath id="SVGID_00000114761162013491277740000007751946323843920822_">
			<use xlink:href="#SVGID_1_"  style="overflow:visible;"/>
		</clipPath>
	</g>
</g>
<rect x="1" y="0.4" class="st0" width="1022.8" height="360.3"/>
<g>
	<g>
		<path class="st1" d="M875.3,277.4l-13.1,13.1c7.9,7.9,17.1,14,27.3,18.1c4.9,2,10.1,3.5,15.3,4.5c5.2,1,10.5,1.5,15.8,1.5
			c5.3,0,10.6-0.5,15.8-1.5c5.2-1,10.4-2.5,15.3-4.5c10.2-4.2,19.5-10.3,27.3-18.1L966,277.4c-6.1,6.1-13.2,10.9-21.2,14.1
			c-7.7,3.1-15.8,4.7-24.1,4.7s-16.4-1.6-24.1-4.7C888.6,288.2,881.5,283.5,875.3,277.4z"/>
	</g>
</g>
<g>
	<path class="st1" d="M25.3,61.8L25.3,61.8c0,1-0.8,1.8-1.8,1.8l0,0c-1,0-1.8-0.8-1.8-1.8l0,0c0-1,0.8-1.8,1.8-1.8l0,0
		C24.5,60,25.3,60.8,25.3,61.8z"/>
	<path class="st1" d="M25.3,97.8L25.3,97.8c0,1-0.8,1.8-1.8,1.8l0,0c-1,0-1.8-0.8-1.8-1.8l0,0c0-1,0.8-1.8,1.8-1.8l0,0
		C24.5,96,25.3,96.8,25.3,97.8z"/>
	<path class="st1" d="M61.1,61.8L61.1,61.8c0,1-0.8,1.8-1.8,1.8l0,0c-1,0-1.8-0.8-1.8-1.8l0,0c0-1,0.8-1.8,1.8-1.8l0,0
		C60.3,60,61.1,60.8,61.1,61.8z"/>
	<path class="st1" d="M61.1,97.8L61.1,97.8c0,1-0.8,1.8-1.8,1.8l0,0c-1,0-1.8-0.8-1.8-1.8l0,0c0-1,0.8-1.8,1.8-1.8l0,0
		C60.3,96,61.1,96.8,61.1,97.8z"/>
	<path class="st1" d="M96.9,61.8L96.9,61.8c0,1-0.8,1.8-1.8,1.8l0,0c-1,0-1.8-0.8-1.8-1.8l0,0c0-1,0.8-1.8,1.8-1.8l0,0
		C96.1,60,96.9,60.8,96.9,61.8z"/>
	<path class="st1" d="M96.9,97.8L96.9,97.8c0,1-0.8,1.8-1.8,1.8l0,0c-1,0-1.8-0.8-1.8-1.8l0,0c0-1,0.8-1.8,1.8-1.8l0,0
		C96.1,96,96.9,96.8,96.9,97.8z"/>
	<path class="st1" d="M132.7,61.8L132.7,61.8c0,1-0.8,1.8-1.8,1.8l0,0c-1,0-1.8-0.8-1.8-1.8l0,0c0-1,0.8-1.8,1.8-1.8l0,0
		C131.9,60,132.7,60.8,132.7,61.8z"/>
	<path class="st1" d="M132.7,97.8L132.7,97.8c0,1-0.8,1.8-1.8,1.8l0,0c-1,0-1.8-0.8-1.8-1.8l0,0c0-1,0.8-1.8,1.8-1.8l0,0
		C131.9,96,132.7,96.8,132.7,97.8z"/>
	<path class="st1" d="M168.5,61.8L168.5,61.8c0,1-0.8,1.8-1.8,1.8l0,0c-1,0-1.8-0.8-1.8-1.8l0,0c0-1,0.8-1.8,1.8-1.8l0,0
		C167.7,60,168.5,60.8,168.5,61.8z"/>
	<path class="st1" d="M168.5,97.8L168.5,97.8c0,1-0.8,1.8-1.8,1.8l0,0c-1,0-1.8-0.8-1.8-1.8l0,0c0-1,0.8-1.8,1.8-1.8l0,0
		C167.7,96,168.5,96.8,168.5,97.8z"/>
	<path class="st1" d="M25.3,133.7L25.3,133.7c0,1-0.8,1.8-1.8,1.8l0,0c-1,0-1.8-0.8-1.8-1.8l0,0c0-1,0.8-1.8,1.8-1.8l0,0
		C24.5,131.9,25.3,132.8,25.3,133.7z"/>
	<path class="st1" d="M61.1,133.7L61.1,133.7c0,1-0.8,1.8-1.8,1.8l0,0c-1,0-1.8-0.8-1.8-1.8l0,0c0-1,0.8-1.8,1.8-1.8l0,0
		C60.3,131.9,61.1,132.8,61.1,133.7z"/>
	<path class="st1" d="M96.9,133.7L96.9,133.7c0,1-0.8,1.8-1.8,1.8l0,0c-1,0-1.8-0.8-1.8-1.8l0,0c0-1,0.8-1.8,1.8-1.8l0,0
		C96.1,131.9,96.9,132.8,96.9,133.7z"/>
	<path class="st1" d="M132.7,133.7L132.7,133.7c0,1-0.8,1.8-1.8,1.8l0,0c-1,0-1.8-0.8-1.8-1.8l0,0c0-1,0.8-1.8,1.8-1.8l0,0
		C131.9,131.9,132.7,132.8,132.7,133.7z"/>
	<path class="st1" d="M168.5,133.7L168.5,133.7c0,1-0.8,1.8-1.8,1.8l0,0c-1,0-1.8-0.8-1.8-1.8l0,0c0-1,0.8-1.8,1.8-1.8l0,0
		C167.7,131.9,168.5,132.8,168.5,133.7z"/>
	<path class="st1" d="M25.3,169.7L25.3,169.7c0,1-0.8,1.8-1.8,1.8l0,0c-1,0-1.8-0.8-1.8-1.8l0,0c0-1,0.8-1.8,1.8-1.8l0,0
		C24.5,167.9,25.3,168.7,25.3,169.7z"/>
	<path class="st1" d="M61.1,169.7L61.1,169.7c0,1-0.8,1.8-1.8,1.8l0,0c-1,0-1.8-0.8-1.8-1.8l0,0c0-1,0.8-1.8,1.8-1.8l0,0
		C60.3,167.9,61.1,168.7,61.1,169.7z"/>
	<path class="st1" d="M96.9,169.7L96.9,169.7c0,1-0.8,1.8-1.8,1.8l0,0c-1,0-1.8-0.8-1.8-1.8l0,0c0-1,0.8-1.8,1.8-1.8l0,0
		C96.1,167.9,96.9,168.7,96.9,169.7z"/>
	<path class="st1" d="M132.7,169.7L132.7,169.7c0,1-0.8,1.8-1.8,1.8l0,0c-1,0-1.8-0.8-1.8-1.8l0,0c0-1,0.8-1.8,1.8-1.8l0,0
		C131.9,167.9,132.7,168.7,132.7,169.7z"/>
	<path class="st1" d="M168.5,169.7L168.5,169.7c0,1-0.8,1.8-1.8,1.8l0,0c-1,0-1.8-0.8-1.8-1.8l0,0c0-1,0.8-1.8,1.8-1.8l0,0
		C167.7,167.9,168.5,168.7,168.5,169.7z"/>
	<path class="st1" d="M25.3,205.6L25.3,205.6c0,1-0.8,1.8-1.8,1.8l0,0c-1,0-1.8-0.8-1.8-1.8l0,0c0-1,0.8-1.8,1.8-1.8l0,0
		C24.5,203.9,25.3,204.7,25.3,205.6z"/>
	<path class="st1" d="M61.1,205.6L61.1,205.6c0,1-0.8,1.8-1.8,1.8l0,0c-1,0-1.8-0.8-1.8-1.8l0,0c0-1,0.8-1.8,1.8-1.8l0,0
		C60.3,203.9,61.1,204.7,61.1,205.6z"/>
	<path class="st1" d="M96.9,205.6L96.9,205.6c0,1-0.8,1.8-1.8,1.8l0,0c-1,0-1.8-0.8-1.8-1.8l0,0c0-1,0.8-1.8,1.8-1.8l0,0
		C96.1,203.9,96.9,204.7,96.9,205.6z"/>
	<path class="st1" d="M132.7,205.6L132.7,205.6c0,1-0.8,1.8-1.8,1.8l0,0c-1,0-1.8-0.8-1.8-1.8l0,0c0-1,0.8-1.8,1.8-1.8l0,0
		C131.9,203.9,132.7,204.7,132.7,205.6z"/>
	<path class="st1" d="M168.5,205.6L168.5,205.6c0,1-0.8,1.8-1.8,1.8l0,0c-1,0-1.8-0.8-1.8-1.8l0,0c0-1,0.8-1.8,1.8-1.8l0,0
		C167.7,203.9,168.5,204.7,168.5,205.6z"/>
	<path class="st1" d="M25.3,241.6L25.3,241.6c0,1-0.8,1.8-1.8,1.8l0,0c-1,0-1.8-0.8-1.8-1.8l0,0c0-1,0.8-1.8,1.8-1.8l0,0
		C24.5,239.8,25.3,240.6,25.3,241.6z"/>
	<path class="st1" d="M61.1,241.6L61.1,241.6c0,1-0.8,1.8-1.8,1.8l0,0c-1,0-1.8-0.8-1.8-1.8l0,0c0-1,0.8-1.8,1.8-1.8l0,0
		C60.3,239.8,61.1,240.6,61.1,241.6z"/>
	<path class="st1" d="M96.9,241.6L96.9,241.6c0,1-0.8,1.8-1.8,1.8l0,0c-1,0-1.8-0.8-1.8-1.8l0,0c0-1,0.8-1.8,1.8-1.8l0,0
		C96.1,239.8,96.9,240.6,96.9,241.6z"/>
	<path class="st1" d="M132.7,241.6L132.7,241.6c0,1-0.8,1.8-1.8,1.8l0,0c-1,0-1.8-0.8-1.8-1.8l0,0c0-1,0.8-1.8,1.8-1.8l0,0
		C131.9,239.8,132.7,240.6,132.7,241.6z"/>
	<path class="st1" d="M168.5,241.6L168.5,241.6c0,1-0.8,1.8-1.8,1.8l0,0c-1,0-1.8-0.8-1.8-1.8l0,0c0-1,0.8-1.8,1.8-1.8l0,0
		C167.7,239.8,168.5,240.6,168.5,241.6z"/>
	<path class="st1" d="M25.3,277.6L25.3,277.6c0,1-0.8,1.8-1.8,1.8l0,0c-1,0-1.8-0.8-1.8-1.8l0,0c0-1,0.8-1.8,1.8-1.8l0,0
		C24.5,275.8,25.3,276.6,25.3,277.6z"/>
	<path class="st1" d="M61.1,277.6L61.1,277.6c0,1-0.8,1.8-1.8,1.8l0,0c-1,0-1.8-0.8-1.8-1.8l0,0c0-1,0.8-1.8,1.8-1.8l0,0
		C60.3,275.8,61.1,276.6,61.1,277.6z"/>
	<path class="st1" d="M96.9,277.6L96.9,277.6c0,1-0.8,1.8-1.8,1.8l0,0c-1,0-1.8-0.8-1.8-1.8l0,0c0-1,0.8-1.8,1.8-1.8l0,0
		C96.1,275.8,96.9,276.6,96.9,277.6z"/>
	<path class="st1" d="M132.7,277.6L132.7,277.6c0,1-0.8,1.8-1.8,1.8l0,0c-1,0-1.8-0.8-1.8-1.8l0,0c0-1,0.8-1.8,1.8-1.8l0,0
		C131.9,275.8,132.7,276.6,132.7,277.6z"/>
	<path class="st1" d="M168.5,277.6L168.5,277.6c0,1-0.8,1.8-1.8,1.8l0,0c-1,0-1.8-0.8-1.8-1.8l0,0c0-1,0.8-1.8,1.8-1.8l0,0
		C167.7,275.8,168.5,276.6,168.5,277.6z"/>
	<path class="st1" d="M25.3,313.5L25.3,313.5c0,1-0.8,1.8-1.8,1.8l0,0c-1,0-1.8-0.8-1.8-1.8l0,0c0-1,0.8-1.8,1.8-1.8l0,0
		C24.5,311.8,25.3,312.5,25.3,313.5z"/>
	<path class="st1" d="M61.1,313.5L61.1,313.5c0,1-0.8,1.8-1.8,1.8l0,0c-1,0-1.8-0.8-1.8-1.8l0,0c0-1,0.8-1.8,1.8-1.8l0,0
		C60.3,311.8,61.1,312.5,61.1,313.5z"/>
	<path class="st1" d="M96.9,313.5L96.9,313.5c0,1-0.8,1.8-1.8,1.8l0,0c-1,0-1.8-0.8-1.8-1.8l0,0c0-1,0.8-1.8,1.8-1.8l0,0
		C96.1,311.8,96.9,312.5,96.9,313.5z"/>
	<path class="st1" d="M132.7,313.5L132.7,313.5c0,1-0.8,1.8-1.8,1.8l0,0c-1,0-1.8-0.8-1.8-1.8l0,0c0-1,0.8-1.8,1.8-1.8l0,0
		C131.9,311.8,132.7,312.5,132.7,313.5z"/>
	<path class="st1" d="M168.5,313.5L168.5,313.5c0,1-0.8,1.8-1.8,1.8l0,0c-1,0-1.8-0.8-1.8-1.8l0,0c0-1,0.8-1.8,1.8-1.8l0,0
		C167.7,311.8,168.5,312.5,168.5,313.5z"/>
	<path class="st1" d="M25.3,313.5L25.3,313.5c0,1-0.8,1.8-1.8,1.8l0,0c-1,0-1.8-0.8-1.8-1.8l0,0c0-1,0.8-1.8,1.8-1.8l0,0
		C24.5,311.7,25.3,312.5,25.3,313.5z"/>
	<path class="st1" d="M25.3,349.5L25.3,349.5c0,1-0.8,1.8-1.8,1.8l0,0c-1,0-1.8-0.8-1.8-1.8l0,0c0-1,0.8-1.8,1.8-1.8l0,0
		C24.5,347.7,25.3,348.5,25.3,349.5z"/>
	<path class="st1" d="M61.1,313.5L61.1,313.5c0,1-0.8,1.8-1.8,1.8l0,0c-1,0-1.8-0.8-1.8-1.8l0,0c0-1,0.8-1.8,1.8-1.8l0,0
		C60.3,311.7,61.1,312.5,61.1,313.5z"/>
	<path class="st1" d="M61.1,349.5L61.1,349.5c0,1-0.8,1.8-1.8,1.8l0,0c-1,0-1.8-0.8-1.8-1.8l0,0c0-1,0.8-1.8,1.8-1.8l0,0
		C60.3,347.7,61.1,348.5,61.1,349.5z"/>
	<path class="st1" d="M96.9,313.5L96.9,313.5c0,1-0.8,1.8-1.8,1.8l0,0c-1,0-1.8-0.8-1.8-1.8l0,0c0-1,0.8-1.8,1.8-1.8l0,0
		C96.1,311.7,96.9,312.5,96.9,313.5z"/>
	<path class="st1" d="M96.9,349.5L96.9,349.5c0,1-0.8,1.8-1.8,1.8l0,0c-1,0-1.8-0.8-1.8-1.8l0,0c0-1,0.8-1.8,1.8-1.8l0,0
		C96.1,347.7,96.9,348.5,96.9,349.5z"/>
	<path class="st1" d="M132.7,313.5L132.7,313.5c0,1-0.8,1.8-1.8,1.8l0,0c-1,0-1.8-0.8-1.8-1.8l0,0c0-1,0.8-1.8,1.8-1.8l0,0
		C131.9,311.7,132.7,312.5,132.7,313.5z"/>
	<path class="st1" d="M132.7,349.5L132.7,349.5c0,1-0.8,1.8-1.8,1.8l0,0c-1,0-1.8-0.8-1.8-1.8l0,0c0-1,0.8-1.8,1.8-1.8l0,0
		C131.9,347.7,132.7,348.5,132.7,349.5z"/>
	<path class="st1" d="M168.5,313.5L168.5,313.5c0,1-0.8,1.8-1.8,1.8l0,0c-1,0-1.8-0.8-1.8-1.8l0,0c0-1,0.8-1.8,1.8-1.8l0,0
		C167.7,311.7,168.5,312.5,168.5,313.5z"/>
	<path class="st1" d="M168.5,349.5L168.5,349.5c0,1-0.8,1.8-1.8,1.8l0,0c-1,0-1.8-0.8-1.8-1.8l0,0c0-1,0.8-1.8,1.8-1.8l0,0
		C167.7,347.7,168.5,348.5,168.5,349.5z"/>
	<path class="st1" d="M25.3,385.4L25.3,385.4c0,1-0.8,1.8-1.8,1.8l0,0c-1,0-1.8-0.8-1.8-1.8l0,0c0-1,0.8-1.8,1.8-1.8l0,0
		C24.5,383.6,25.3,384.4,25.3,385.4z"/>
	<path class="st1" d="M61.1,385.4L61.1,385.4c0,1-0.8,1.8-1.8,1.8l0,0c-1,0-1.8-0.8-1.8-1.8l0,0c0-1,0.8-1.8,1.8-1.8l0,0
		C60.3,383.6,61.1,384.4,61.1,385.4z"/>
	<path class="st1" d="M96.9,385.4L96.9,385.4c0,1-0.8,1.8-1.8,1.8l0,0c-1,0-1.8-0.8-1.8-1.8l0,0c0-1,0.8-1.8,1.8-1.8l0,0
		C96.1,383.6,96.9,384.4,96.9,385.4z"/>
	<path class="st1" d="M132.7,385.4L132.7,385.4c0,1-0.8,1.8-1.8,1.8l0,0c-1,0-1.8-0.8-1.8-1.8l0,0c0-1,0.8-1.8,1.8-1.8l0,0
		C131.9,383.6,132.7,384.4,132.7,385.4z"/>
	<path class="st1" d="M168.5,385.4L168.5,385.4c0,1-0.8,1.8-1.8,1.8l0,0c-1,0-1.8-0.8-1.8-1.8l0,0c0-1,0.8-1.8,1.8-1.8l0,0
		C167.7,383.6,168.5,384.4,168.5,385.4z"/>
	<path class="st1" d="M25.3,421.4L25.3,421.4c0,1-0.8,1.8-1.8,1.8l0,0c-1,0-1.8-0.8-1.8-1.8l0,0c0-1,0.8-1.8,1.8-1.8l0,0
		C24.5,419.6,25.3,420.4,25.3,421.4z"/>
	<path class="st1" d="M61.1,421.4L61.1,421.4c0,1-0.8,1.8-1.8,1.8l0,0c-1,0-1.8-0.8-1.8-1.8l0,0c0-1,0.8-1.8,1.8-1.8l0,0
		C60.3,419.6,61.1,420.4,61.1,421.4z"/>
	<path class="st1" d="M96.9,421.4L96.9,421.4c0,1-0.8,1.8-1.8,1.8l0,0c-1,0-1.8-0.8-1.8-1.8l0,0c0-1,0.8-1.8,1.8-1.8l0,0
		C96.1,419.6,96.9,420.4,96.9,421.4z"/>
	<path class="st1" d="M132.7,421.4L132.7,421.4c0,1-0.8,1.8-1.8,1.8l0,0c-1,0-1.8-0.8-1.8-1.8l0,0c0-1,0.8-1.8,1.8-1.8l0,0
		C131.9,419.6,132.7,420.4,132.7,421.4z"/>
	<path class="st1" d="M168.5,421.4L168.5,421.4c0,1-0.8,1.8-1.8,1.8l0,0c-1,0-1.8-0.8-1.8-1.8l0,0c0-1,0.8-1.8,1.8-1.8l0,0
		C167.7,419.6,168.5,420.4,168.5,421.4z"/>
	<path class="st1" d="M25.3,457.3L25.3,457.3c0,1-0.8,1.8-1.8,1.8l0,0c-1,0-1.8-0.8-1.8-1.8l0,0c0-1,0.8-1.8,1.8-1.8l0,0
		C24.5,455.6,25.3,456.4,25.3,457.3z"/>
	<path class="st1" d="M61.1,457.3L61.1,457.3c0,1-0.8,1.8-1.8,1.8l0,0c-1,0-1.8-0.8-1.8-1.8l0,0c0-1,0.8-1.8,1.8-1.8l0,0
		C60.3,455.6,61.1,456.4,61.1,457.3z"/>
	<path class="st1" d="M96.9,457.3L96.9,457.3c0,1-0.8,1.8-1.8,1.8l0,0c-1,0-1.8-0.8-1.8-1.8l0,0c0-1,0.8-1.8,1.8-1.8l0,0
		C96.1,455.6,96.9,456.4,96.9,457.3z"/>
	<path class="st1" d="M132.7,457.3L132.7,457.3c0,1-0.8,1.8-1.8,1.8l0,0c-1,0-1.8-0.8-1.8-1.8l0,0c0-1,0.8-1.8,1.8-1.8l0,0
		C131.9,455.6,132.7,456.4,132.7,457.3z"/>
	<path class="st1" d="M168.5,457.3L168.5,457.3c0,1-0.8,1.8-1.8,1.8l0,0c-1,0-1.8-0.8-1.8-1.8l0,0c0-1,0.8-1.8,1.8-1.8l0,0
		C167.7,455.6,168.5,456.4,168.5,457.3z"/>
	<path class="st1" d="M25.3,493.3L25.3,493.3c0,1-0.8,1.8-1.8,1.8l0,0c-1,0-1.8-0.8-1.8-1.8l0,0c0-1,0.8-1.8,1.8-1.8l0,0
		C24.5,491.5,25.3,492.3,25.3,493.3z"/>
	<path class="st1" d="M61.1,493.3L61.1,493.3c0,1-0.8,1.8-1.8,1.8l0,0c-1,0-1.8-0.8-1.8-1.8l0,0c0-1,0.8-1.8,1.8-1.8l0,0
		C60.3,491.5,61.1,492.3,61.1,493.3z"/>
	<path class="st1" d="M96.9,493.3L96.9,493.3c0,1-0.8,1.8-1.8,1.8l0,0c-1,0-1.8-0.8-1.8-1.8l0,0c0-1,0.8-1.8,1.8-1.8l0,0
		C96.1,491.5,96.9,492.3,96.9,493.3z"/>
	<path class="st1" d="M132.7,493.3L132.7,493.3c0,1-0.8,1.8-1.8,1.8l0,0c-1,0-1.8-0.8-1.8-1.8l0,0c0-1,0.8-1.8,1.8-1.8l0,0
		C131.9,491.5,132.7,492.3,132.7,493.3z"/>
	<path class="st1" d="M168.5,493.3L168.5,493.3c0,1-0.8,1.8-1.8,1.8l0,0c-1,0-1.8-0.8-1.8-1.8l0,0c0-1,0.8-1.8,1.8-1.8l0,0
		C167.7,491.5,168.5,492.3,168.5,493.3z"/>
	<path class="st1" d="M25.3,529.3L25.3,529.3c0,1-0.8,1.8-1.8,1.8l0,0c-1,0-1.8-0.8-1.8-1.8l0,0c0-1,0.8-1.8,1.8-1.8l0,0
		C24.5,527.5,25.3,528.3,25.3,529.3z"/>
	<path class="st1" d="M61.1,529.3L61.1,529.3c0,1-0.8,1.8-1.8,1.8l0,0c-1,0-1.8-0.8-1.8-1.8l0,0c0-1,0.8-1.8,1.8-1.8l0,0
		C60.3,527.5,61.1,528.3,61.1,529.3z"/>
	<path class="st1" d="M96.9,529.3L96.9,529.3c0,1-0.8,1.8-1.8,1.8l0,0c-1,0-1.8-0.8-1.8-1.8l0,0c0-1,0.8-1.8,1.8-1.8l0,0
		C96.1,527.5,96.9,528.3,96.9,529.3z"/>
	<path class="st1" d="M132.7,529.3L132.7,529.3c0,1-0.8,1.8-1.8,1.8l0,0c-1,0-1.8-0.8-1.8-1.8l0,0c0-1,0.8-1.8,1.8-1.8l0,0
		C131.9,527.5,132.7,528.3,132.7,529.3z"/>
	<path class="st1" d="M168.5,529.3L168.5,529.3c0,1-0.8,1.8-1.8,1.8l0,0c-1,0-1.8-0.8-1.8-1.8l0,0c0-1,0.8-1.8,1.8-1.8l0,0
		C167.7,527.5,168.5,528.3,168.5,529.3z"/>
	<path class="st1" d="M25.3,565.2L25.3,565.2c0,1-0.8,1.8-1.8,1.8l0,0c-1,0-1.8-0.8-1.8-1.8l0,0c0-1,0.8-1.8,1.8-1.8l0,0
		C24.5,563.5,25.3,564.2,25.3,565.2z"/>
	<path class="st1" d="M61.1,565.2L61.1,565.2c0,1-0.8,1.8-1.8,1.8l0,0c-1,0-1.8-0.8-1.8-1.8l0,0c0-1,0.8-1.8,1.8-1.8l0,0
		C60.3,563.5,61.1,564.2,61.1,565.2z"/>
	<path class="st1" d="M96.9,565.2L96.9,565.2c0,1-0.8,1.8-1.8,1.8l0,0c-1,0-1.8-0.8-1.8-1.8l0,0c0-1,0.8-1.8,1.8-1.8l0,0
		C96.1,563.5,96.9,564.2,96.9,565.2z"/>
	<path class="st1" d="M132.7,565.2L132.7,565.2c0,1-0.8,1.8-1.8,1.8l0,0c-1,0-1.8-0.8-1.8-1.8l0,0c0-1,0.8-1.8,1.8-1.8l0,0
		C131.9,563.5,132.7,564.2,132.7,565.2z"/>
	<path class="st1" d="M168.5,565.2L168.5,565.2c0,1-0.8,1.8-1.8,1.8l0,0c-1,0-1.8-0.8-1.8-1.8l0,0c0-1,0.8-1.8,1.8-1.8l0,0
		C167.7,563.5,168.5,564.2,168.5,565.2z"/>
</g>
</svg>
