<?xml version="1.0" encoding="utf-8"?>
<!-- Generator: Adobe Illustrator 26.0.3, SVG Export Plug-In . SVG Version: 6.00 Build 0)  -->
<svg version="1.1" id="Capa_1" xmlns="http://www.w3.org/2000/svg" xmlns:xlink="http://www.w3.org/1999/xlink" x="0px" y="0px"
	 width="1017px" height="510.8px" viewBox="0 0 1017 510.8" style="enable-background:new 0 0 1017 510.8;" xml:space="preserve">
<style type="text/css">
	.st0{fill:#E33425;}
	.st1{fill:#FFFFFF;}
	.st2{fill:#3B3B3B;}
</style>
<rect x="-18" y="-14.2" class="st0" width="1052" height="530.5"/>
<g>
	<g>
		<path class="st1" d="M1015,384.8v-36.4c-21.9,0-43.2,4.3-63.2,12.8c-9.6,4.1-18.9,9.1-27.6,15c-8.6,5.8-16.7,12.5-24,19.8
			s-14,15.4-19.8,24c-5.9,8.7-10.9,18-15,27.6c-8.5,20-12.8,41.3-12.8,63.2H889c0-17,3.3-33.5,9.9-49c6.3-15,15.4-28.5,27-40
			c11.6-11.6,25-20.7,40-27C981.5,388.1,998,384.8,1015,384.8z"/>
	</g>
</g>
<g>
	<g>
		<path class="st2" d="M639.6,76.4l-6.9,6.9c4.2,4.2,9,7.4,14.5,9.6c2.6,1.1,5.3,1.9,8.1,2.4c2.7,0.5,5.5,0.8,8.3,0.8
			c2.8,0,5.6-0.3,8.3-0.8c2.8-0.5,5.5-1.3,8.1-2.4c5.4-2.2,10.3-5.4,14.5-9.6l-6.9-6.9c-3.2,3.2-7,5.7-11.2,7.4
			c-4.1,1.7-8.3,2.5-12.8,2.5s-8.7-0.8-12.8-2.5C646.6,82.1,642.8,79.6,639.6,76.4z"/>
	</g>
</g>
</svg>
