<?xml version="1.0" encoding="utf-8"?>
<!-- Generator: Adobe Illustrator 25.4.1, SVG Export Plug-In . SVG Version: 6.00 Build 0)  -->
<svg version="1.1" id="Capa_1" xmlns="http://www.w3.org/2000/svg" xmlns:xlink="http://www.w3.org/1999/xlink" x="0px" y="0px"
	 viewBox="0 0 1024 637" style="enable-background:new 0 0 1024 637;" xml:space="preserve">
<style type="text/css">
	.st0{fill:#FFFFFF;}
	.st1{fill:#3B3B3B;}
	.st2{fill:none;stroke:#0B0B0B;stroke-width:1.7116;stroke-miterlimit:10;}
	.st3{fill:none;stroke:#FFFFFF;stroke-width:2.31;stroke-linecap:round;stroke-linejoin:round;stroke-miterlimit:10;}
	.st4{fill:#00A69A;}
</style>
<g>
	<g>
		<path class="st0" d="M875.08,2256.24L875.08,2256.24c0,0.89-0.72,1.62-1.62,1.62h0c-0.89,0-1.62-0.72-1.62-1.62l0,0
			c0-0.89,0.72-1.62,1.62-1.62h0C874.36,2254.63,875.08,2255.35,875.08,2256.24z"/>
		<path class="st0" d="M875.08,2289.02L875.08,2289.02c0,0.89-0.72,1.62-1.62,1.62h0c-0.89,0-1.62-0.72-1.62-1.62l0,0
			c0-0.89,0.72-1.62,1.62-1.62h0C874.36,2287.41,875.08,2288.13,875.08,2289.02z"/>
		<path class="st0" d="M907.72,2256.24L907.72,2256.24c0,0.89-0.72,1.62-1.62,1.62l0,0c-0.89,0-1.62-0.72-1.62-1.62l0,0
			c0-0.89,0.72-1.62,1.62-1.62l0,0C907,2254.63,907.72,2255.35,907.72,2256.24z"/>
		<path class="st0" d="M907.72,2289.02L907.72,2289.02c0,0.89-0.72,1.62-1.62,1.62l0,0c-0.89,0-1.62-0.72-1.62-1.62l0,0
			c0-0.89,0.72-1.62,1.62-1.62l0,0C907,2287.41,907.72,2288.13,907.72,2289.02z"/>
		<path class="st0" d="M940.36,2256.24L940.36,2256.24c0,0.89-0.72,1.62-1.62,1.62l0,0c-0.89,0-1.62-0.72-1.62-1.62l0,0
			c0-0.89,0.72-1.62,1.62-1.62l0,0C939.64,2254.63,940.36,2255.35,940.36,2256.24z"/>
		<path class="st0" d="M940.36,2289.02L940.36,2289.02c0,0.89-0.72,1.62-1.62,1.62l0,0c-0.89,0-1.62-0.72-1.62-1.62l0,0
			c0-0.89,0.72-1.62,1.62-1.62l0,0C939.64,2287.41,940.36,2288.13,940.36,2289.02z"/>
		<path class="st0" d="M973,2256.24L973,2256.24c0,0.89-0.72,1.62-1.62,1.62l0,0c-0.89,0-1.62-0.72-1.62-1.62l0,0
			c0-0.89,0.72-1.62,1.62-1.62l0,0C972.28,2254.63,973,2255.35,973,2256.24z"/>
		<path class="st0" d="M973,2289.02L973,2289.02c0,0.89-0.72,1.62-1.62,1.62l0,0c-0.89,0-1.62-0.72-1.62-1.62l0,0
			c0-0.89,0.72-1.62,1.62-1.62l0,0C972.28,2287.41,973,2288.13,973,2289.02z"/>
		<path class="st0" d="M1005.64,2256.24L1005.64,2256.24c0,0.89-0.72,1.62-1.62,1.62l0,0c-0.89,0-1.62-0.72-1.62-1.62l0,0
			c0-0.89,0.72-1.62,1.62-1.62l0,0C1004.92,2254.63,1005.64,2255.35,1005.64,2256.24z"/>
		<path class="st0" d="M1005.64,2289.02L1005.64,2289.02c0,0.89-0.72,1.62-1.62,1.62l0,0c-0.89,0-1.62-0.72-1.62-1.62l0,0
			c0-0.89,0.72-1.62,1.62-1.62l0,0C1004.92,2287.41,1005.64,2288.13,1005.64,2289.02z"/>
		<path class="st0" d="M875.08,2321.8L875.08,2321.8c0,0.89-0.72,1.62-1.62,1.62h0c-0.89,0-1.62-0.72-1.62-1.62l0,0
			c0-0.89,0.72-1.62,1.62-1.62h0C874.36,2320.19,875.08,2320.91,875.08,2321.8z"/>
		<path class="st0" d="M907.72,2321.8L907.72,2321.8c0,0.89-0.72,1.62-1.62,1.62l0,0c-0.89,0-1.62-0.72-1.62-1.62l0,0
			c0-0.89,0.72-1.62,1.62-1.62l0,0C907,2320.19,907.72,2320.91,907.72,2321.8z"/>
		<path class="st0" d="M940.36,2321.8L940.36,2321.8c0,0.89-0.72,1.62-1.62,1.62l0,0c-0.89,0-1.62-0.72-1.62-1.62l0,0
			c0-0.89,0.72-1.62,1.62-1.62l0,0C939.64,2320.19,940.36,2320.91,940.36,2321.8z"/>
		<path class="st0" d="M973,2321.8L973,2321.8c0,0.89-0.72,1.62-1.62,1.62l0,0c-0.89,0-1.62-0.72-1.62-1.62l0,0
			c0-0.89,0.72-1.62,1.62-1.62l0,0C972.28,2320.19,973,2320.91,973,2321.8z"/>
		<path class="st0" d="M1005.64,2321.8L1005.64,2321.8c0,0.89-0.72,1.62-1.62,1.62l0,0c-0.89,0-1.62-0.72-1.62-1.62l0,0
			c0-0.89,0.72-1.62,1.62-1.62l0,0C1004.92,2320.19,1005.64,2320.91,1005.64,2321.8z"/>
		<path class="st0" d="M875.08,2354.58L875.08,2354.58c0,0.89-0.72,1.62-1.62,1.62h0c-0.89,0-1.62-0.72-1.62-1.62l0,0
			c0-0.89,0.72-1.62,1.62-1.62h0C874.36,2352.97,875.08,2353.69,875.08,2354.58z"/>
		<path class="st0" d="M907.72,2354.58L907.72,2354.58c0,0.89-0.72,1.62-1.62,1.62l0,0c-0.89,0-1.62-0.72-1.62-1.62l0,0
			c0-0.89,0.72-1.62,1.62-1.62l0,0C907,2352.97,907.72,2353.69,907.72,2354.58z"/>
		<path class="st0" d="M940.36,2354.58L940.36,2354.58c0,0.89-0.72,1.62-1.62,1.62l0,0c-0.89,0-1.62-0.72-1.62-1.62l0,0
			c0-0.89,0.72-1.62,1.62-1.62l0,0C939.64,2352.97,940.36,2353.69,940.36,2354.58z"/>
		<path class="st0" d="M973,2354.58L973,2354.58c0,0.89-0.72,1.62-1.62,1.62l0,0c-0.89,0-1.62-0.72-1.62-1.62l0,0
			c0-0.89,0.72-1.62,1.62-1.62l0,0C972.28,2352.97,973,2353.69,973,2354.58z"/>
		<path class="st0" d="M1005.64,2354.58L1005.64,2354.58c0,0.89-0.72,1.62-1.62,1.62l0,0c-0.89,0-1.62-0.72-1.62-1.62l0,0
			c0-0.89,0.72-1.62,1.62-1.62l0,0C1004.92,2352.97,1005.64,2353.69,1005.64,2354.58z"/>
		<path class="st0" d="M875.08,2387.36L875.08,2387.36c0,0.89-0.72,1.62-1.62,1.62h0c-0.89,0-1.62-0.72-1.62-1.62l0,0
			c0-0.89,0.72-1.62,1.62-1.62h0C874.36,2385.75,875.08,2386.47,875.08,2387.36z"/>
		<path class="st0" d="M907.72,2387.36L907.72,2387.36c0,0.89-0.72,1.62-1.62,1.62l0,0c-0.89,0-1.62-0.72-1.62-1.62l0,0
			c0-0.89,0.72-1.62,1.62-1.62l0,0C907,2385.75,907.72,2386.47,907.72,2387.36z"/>
		<path class="st0" d="M940.36,2387.36L940.36,2387.36c0,0.89-0.72,1.62-1.62,1.62l0,0c-0.89,0-1.62-0.72-1.62-1.62l0,0
			c0-0.89,0.72-1.62,1.62-1.62l0,0C939.64,2385.75,940.36,2386.47,940.36,2387.36z"/>
		<path class="st0" d="M973,2387.36L973,2387.36c0,0.89-0.72,1.62-1.62,1.62l0,0c-0.89,0-1.62-0.72-1.62-1.62l0,0
			c0-0.89,0.72-1.62,1.62-1.62l0,0C972.28,2385.75,973,2386.47,973,2387.36z"/>
		<path class="st0" d="M1005.64,2387.36L1005.64,2387.36c0,0.89-0.72,1.62-1.62,1.62l0,0c-0.89,0-1.62-0.72-1.62-1.62l0,0
			c0-0.89,0.72-1.62,1.62-1.62l0,0C1004.92,2385.75,1005.64,2386.47,1005.64,2387.36z"/>
		<path class="st0" d="M875.08,2420.14L875.08,2420.14c0,0.89-0.72,1.62-1.62,1.62h0c-0.89,0-1.62-0.72-1.62-1.62l0,0
			c0-0.89,0.72-1.62,1.62-1.62h0C874.36,2418.53,875.08,2419.25,875.08,2420.14z"/>
		<path class="st0" d="M907.72,2420.14L907.72,2420.14c0,0.89-0.72,1.62-1.62,1.62l0,0c-0.89,0-1.62-0.72-1.62-1.62l0,0
			c0-0.89,0.72-1.62,1.62-1.62l0,0C907,2418.53,907.72,2419.25,907.72,2420.14z"/>
		<path class="st0" d="M940.36,2420.14L940.36,2420.14c0,0.89-0.72,1.62-1.62,1.62l0,0c-0.89,0-1.62-0.72-1.62-1.62l0,0
			c0-0.89,0.72-1.62,1.62-1.62l0,0C939.64,2418.53,940.36,2419.25,940.36,2420.14z"/>
		<path class="st0" d="M973,2420.14L973,2420.14c0,0.89-0.72,1.62-1.62,1.62l0,0c-0.89,0-1.62-0.72-1.62-1.62l0,0
			c0-0.89,0.72-1.62,1.62-1.62l0,0C972.28,2418.53,973,2419.25,973,2420.14z"/>
		<path class="st0" d="M1005.64,2420.14L1005.64,2420.14c0,0.89-0.72,1.62-1.62,1.62l0,0c-0.89,0-1.62-0.72-1.62-1.62l0,0
			c0-0.89,0.72-1.62,1.62-1.62l0,0C1004.92,2418.53,1005.64,2419.25,1005.64,2420.14z"/>
		<path class="st0" d="M875.08,2452.92L875.08,2452.92c0,0.89-0.72,1.62-1.62,1.62h0c-0.89,0-1.62-0.72-1.62-1.62l0,0
			c0-0.89,0.72-1.62,1.62-1.62h0C874.36,2451.31,875.08,2452.03,875.08,2452.92z"/>
		<path class="st0" d="M907.72,2452.92L907.72,2452.92c0,0.89-0.72,1.62-1.62,1.62l0,0c-0.89,0-1.62-0.72-1.62-1.62l0,0
			c0-0.89,0.72-1.62,1.62-1.62l0,0C907,2451.31,907.72,2452.03,907.72,2452.92z"/>
		<path class="st0" d="M940.36,2452.92L940.36,2452.92c0,0.89-0.72,1.62-1.62,1.62l0,0c-0.89,0-1.62-0.72-1.62-1.62l0,0
			c0-0.89,0.72-1.62,1.62-1.62l0,0C939.64,2451.31,940.36,2452.03,940.36,2452.92z"/>
		<path class="st0" d="M973,2452.92L973,2452.92c0,0.89-0.72,1.62-1.62,1.62l0,0c-0.89,0-1.62-0.72-1.62-1.62l0,0
			c0-0.89,0.72-1.62,1.62-1.62l0,0C972.28,2451.31,973,2452.03,973,2452.92z"/>
		<path class="st0" d="M1005.64,2452.92L1005.64,2452.92c0,0.89-0.72,1.62-1.62,1.62l0,0c-0.89,0-1.62-0.72-1.62-1.62l0,0
			c0-0.89,0.72-1.62,1.62-1.62l0,0C1004.92,2451.31,1005.64,2452.03,1005.64,2452.92z"/>
		<path class="st0" d="M875.08,2485.7L875.08,2485.7c0,0.89-0.72,1.62-1.62,1.62h0c-0.89,0-1.62-0.72-1.62-1.62l0,0
			c0-0.89,0.72-1.62,1.62-1.62h0C874.36,2484.09,875.08,2484.81,875.08,2485.7z"/>
		<path class="st0" d="M907.72,2485.7L907.72,2485.7c0,0.89-0.72,1.62-1.62,1.62l0,0c-0.89,0-1.62-0.72-1.62-1.62l0,0
			c0-0.89,0.72-1.62,1.62-1.62l0,0C907,2484.09,907.72,2484.81,907.72,2485.7z"/>
		<path class="st0" d="M940.36,2485.7L940.36,2485.7c0,0.89-0.72,1.62-1.62,1.62l0,0c-0.89,0-1.62-0.72-1.62-1.62l0,0
			c0-0.89,0.72-1.62,1.62-1.62l0,0C939.64,2484.09,940.36,2484.81,940.36,2485.7z"/>
		<path class="st0" d="M973,2485.7L973,2485.7c0,0.89-0.72,1.62-1.62,1.62l0,0c-0.89,0-1.62-0.72-1.62-1.62l0,0
			c0-0.89,0.72-1.62,1.62-1.62l0,0C972.28,2484.09,973,2484.81,973,2485.7z"/>
		<path class="st0" d="M1005.64,2485.7L1005.64,2485.7c0,0.89-0.72,1.62-1.62,1.62l0,0c-0.89,0-1.62-0.72-1.62-1.62l0,0
			c0-0.89,0.72-1.62,1.62-1.62l0,0C1004.92,2484.09,1005.64,2484.81,1005.64,2485.7z"/>
		<path class="st0" d="M875.08,2485.69L875.08,2485.69c0,0.89-0.72,1.62-1.62,1.62h0c-0.89,0-1.62-0.72-1.62-1.62l0,0
			c0-0.89,0.72-1.62,1.62-1.62h0C874.36,2484.07,875.08,2484.8,875.08,2485.69z"/>
		<path class="st0" d="M875.08,2518.47L875.08,2518.47c0,0.89-0.72,1.62-1.62,1.62h0c-0.89,0-1.62-0.72-1.62-1.62l0,0
			c0-0.89,0.72-1.62,1.62-1.62h0C874.36,2516.85,875.08,2517.58,875.08,2518.47z"/>
		<path class="st0" d="M907.72,2485.69L907.72,2485.69c0,0.89-0.72,1.62-1.62,1.62l0,0c-0.89,0-1.62-0.72-1.62-1.62l0,0
			c0-0.89,0.72-1.62,1.62-1.62l0,0C907,2484.07,907.72,2484.8,907.72,2485.69z"/>
		<path class="st0" d="M907.72,2518.47L907.72,2518.47c0,0.89-0.72,1.62-1.62,1.62l0,0c-0.89,0-1.62-0.72-1.62-1.62l0,0
			c0-0.89,0.72-1.62,1.62-1.62l0,0C907,2516.85,907.72,2517.58,907.72,2518.47z"/>
		<path class="st0" d="M940.36,2485.69L940.36,2485.69c0,0.89-0.72,1.62-1.62,1.62l0,0c-0.89,0-1.62-0.72-1.62-1.62l0,0
			c0-0.89,0.72-1.62,1.62-1.62l0,0C939.64,2484.07,940.36,2484.8,940.36,2485.69z"/>
		<path class="st0" d="M940.36,2518.47L940.36,2518.47c0,0.89-0.72,1.62-1.62,1.62l0,0c-0.89,0-1.62-0.72-1.62-1.62l0,0
			c0-0.89,0.72-1.62,1.62-1.62l0,0C939.64,2516.85,940.36,2517.58,940.36,2518.47z"/>
		<path class="st0" d="M973,2485.69L973,2485.69c0,0.89-0.72,1.62-1.62,1.62l0,0c-0.89,0-1.62-0.72-1.62-1.62l0,0
			c0-0.89,0.72-1.62,1.62-1.62l0,0C972.28,2484.07,973,2484.8,973,2485.69z"/>
		<path class="st0" d="M973,2518.47L973,2518.47c0,0.89-0.72,1.62-1.62,1.62l0,0c-0.89,0-1.62-0.72-1.62-1.62l0,0
			c0-0.89,0.72-1.62,1.62-1.62l0,0C972.28,2516.85,973,2517.58,973,2518.47z"/>
		<path class="st0" d="M1005.64,2485.69L1005.64,2485.69c0,0.89-0.72,1.62-1.62,1.62l0,0c-0.89,0-1.62-0.72-1.62-1.62l0,0
			c0-0.89,0.72-1.62,1.62-1.62l0,0C1004.92,2484.07,1005.64,2484.8,1005.64,2485.69z"/>
		<path class="st0" d="M1005.64,2518.47L1005.64,2518.47c0,0.89-0.72,1.62-1.62,1.62l0,0c-0.89,0-1.62-0.72-1.62-1.62l0,0
			c0-0.89,0.72-1.62,1.62-1.62l0,0C1004.92,2516.85,1005.64,2517.58,1005.64,2518.47z"/>
		<path class="st0" d="M875.08,2551.25L875.08,2551.25c0,0.89-0.72,1.62-1.62,1.62h0c-0.89,0-1.62-0.72-1.62-1.62l0,0
			c0-0.89,0.72-1.62,1.62-1.62h0C874.36,2549.63,875.08,2550.36,875.08,2551.25z"/>
		<path class="st0" d="M907.72,2551.25L907.72,2551.25c0,0.89-0.72,1.62-1.62,1.62l0,0c-0.89,0-1.62-0.72-1.62-1.62l0,0
			c0-0.89,0.72-1.62,1.62-1.62l0,0C907,2549.63,907.72,2550.36,907.72,2551.25z"/>
		<path class="st0" d="M940.36,2551.25L940.36,2551.25c0,0.89-0.72,1.62-1.62,1.62l0,0c-0.89,0-1.62-0.72-1.62-1.62l0,0
			c0-0.89,0.72-1.62,1.62-1.62l0,0C939.64,2549.63,940.36,2550.36,940.36,2551.25z"/>
		<path class="st0" d="M973,2551.25L973,2551.25c0,0.89-0.72,1.62-1.62,1.62l0,0c-0.89,0-1.62-0.72-1.62-1.62l0,0
			c0-0.89,0.72-1.62,1.62-1.62l0,0C972.28,2549.63,973,2550.36,973,2551.25z"/>
		<path class="st0" d="M1005.64,2551.25L1005.64,2551.25c0,0.89-0.72,1.62-1.62,1.62l0,0c-0.89,0-1.62-0.72-1.62-1.62l0,0
			c0-0.89,0.72-1.62,1.62-1.62l0,0C1004.92,2549.63,1005.64,2550.36,1005.64,2551.25z"/>
		<path class="st0" d="M875.08,2584.03L875.08,2584.03c0,0.89-0.72,1.62-1.62,1.62h0c-0.89,0-1.62-0.72-1.62-1.62l0,0
			c0-0.89,0.72-1.62,1.62-1.62h0C874.36,2582.41,875.08,2583.14,875.08,2584.03z"/>
		<path class="st0" d="M907.72,2584.03L907.72,2584.03c0,0.89-0.72,1.62-1.62,1.62l0,0c-0.89,0-1.62-0.72-1.62-1.62l0,0
			c0-0.89,0.72-1.62,1.62-1.62l0,0C907,2582.41,907.72,2583.14,907.72,2584.03z"/>
		<path class="st0" d="M940.36,2584.03L940.36,2584.03c0,0.89-0.72,1.62-1.62,1.62l0,0c-0.89,0-1.62-0.72-1.62-1.62l0,0
			c0-0.89,0.72-1.62,1.62-1.62l0,0C939.64,2582.41,940.36,2583.14,940.36,2584.03z"/>
		<path class="st0" d="M973,2584.03L973,2584.03c0,0.89-0.72,1.62-1.62,1.62l0,0c-0.89,0-1.62-0.72-1.62-1.62l0,0
			c0-0.89,0.72-1.62,1.62-1.62l0,0C972.28,2582.41,973,2583.14,973,2584.03z"/>
		<path class="st0" d="M1005.64,2584.03L1005.64,2584.03c0,0.89-0.72,1.62-1.62,1.62l0,0c-0.89,0-1.62-0.72-1.62-1.62l0,0
			c0-0.89,0.72-1.62,1.62-1.62l0,0C1004.92,2582.41,1005.64,2583.14,1005.64,2584.03z"/>
		<path class="st0" d="M875.08,2616.81L875.08,2616.81c0,0.89-0.72,1.62-1.62,1.62h0c-0.89,0-1.62-0.72-1.62-1.62l0,0
			c0-0.89,0.72-1.62,1.62-1.62h0C874.36,2615.19,875.08,2615.92,875.08,2616.81z"/>
		<path class="st0" d="M907.72,2616.81L907.72,2616.81c0,0.89-0.72,1.62-1.62,1.62l0,0c-0.89,0-1.62-0.72-1.62-1.62l0,0
			c0-0.89,0.72-1.62,1.62-1.62l0,0C907,2615.19,907.72,2615.92,907.72,2616.81z"/>
		<path class="st0" d="M940.36,2616.81L940.36,2616.81c0,0.89-0.72,1.62-1.62,1.62l0,0c-0.89,0-1.62-0.72-1.62-1.62l0,0
			c0-0.89,0.72-1.62,1.62-1.62l0,0C939.64,2615.19,940.36,2615.92,940.36,2616.81z"/>
		<path class="st0" d="M973,2616.81L973,2616.81c0,0.89-0.72,1.62-1.62,1.62l0,0c-0.89,0-1.62-0.72-1.62-1.62l0,0
			c0-0.89,0.72-1.62,1.62-1.62l0,0C972.28,2615.19,973,2615.92,973,2616.81z"/>
		<path class="st0" d="M1005.64,2616.81L1005.64,2616.81c0,0.89-0.72,1.62-1.62,1.62l0,0c-0.89,0-1.62-0.72-1.62-1.62l0,0
			c0-0.89,0.72-1.62,1.62-1.62l0,0C1004.92,2615.19,1005.64,2615.92,1005.64,2616.81z"/>
		<path class="st0" d="M875.08,2649.59L875.08,2649.59c0,0.89-0.72,1.62-1.62,1.62h0c-0.89,0-1.62-0.72-1.62-1.62l0,0
			c0-0.89,0.72-1.62,1.62-1.62h0C874.36,2647.97,875.08,2648.7,875.08,2649.59z"/>
		<path class="st0" d="M907.72,2649.59L907.72,2649.59c0,0.89-0.72,1.62-1.62,1.62l0,0c-0.89,0-1.62-0.72-1.62-1.62l0,0
			c0-0.89,0.72-1.62,1.62-1.62l0,0C907,2647.97,907.72,2648.7,907.72,2649.59z"/>
		<path class="st0" d="M940.36,2649.59L940.36,2649.59c0,0.89-0.72,1.62-1.62,1.62l0,0c-0.89,0-1.62-0.72-1.62-1.62l0,0
			c0-0.89,0.72-1.62,1.62-1.62l0,0C939.64,2647.97,940.36,2648.7,940.36,2649.59z"/>
		<path class="st0" d="M973,2649.59L973,2649.59c0,0.89-0.72,1.62-1.62,1.62l0,0c-0.89,0-1.62-0.72-1.62-1.62l0,0
			c0-0.89,0.72-1.62,1.62-1.62l0,0C972.28,2647.97,973,2648.7,973,2649.59z"/>
		<path class="st0" d="M1005.64,2649.59L1005.64,2649.59c0,0.89-0.72,1.62-1.62,1.62l0,0c-0.89,0-1.62-0.72-1.62-1.62l0,0
			c0-0.89,0.72-1.62,1.62-1.62l0,0C1004.92,2647.97,1005.64,2648.7,1005.64,2649.59z"/>
		<path class="st0" d="M875.08,2682.37L875.08,2682.37c0,0.89-0.72,1.62-1.62,1.62h0c-0.89,0-1.62-0.72-1.62-1.62l0,0
			c0-0.89,0.72-1.62,1.62-1.62h0C874.36,2680.75,875.08,2681.48,875.08,2682.37z"/>
		<path class="st0" d="M907.72,2682.37L907.72,2682.37c0,0.89-0.72,1.62-1.62,1.62l0,0c-0.89,0-1.62-0.72-1.62-1.62l0,0
			c0-0.89,0.72-1.62,1.62-1.62l0,0C907,2680.75,907.72,2681.48,907.72,2682.37z"/>
		<path class="st0" d="M940.36,2682.37L940.36,2682.37c0,0.89-0.72,1.62-1.62,1.62l0,0c-0.89,0-1.62-0.72-1.62-1.62l0,0
			c0-0.89,0.72-1.62,1.62-1.62l0,0C939.64,2680.75,940.36,2681.48,940.36,2682.37z"/>
		<path class="st0" d="M973,2682.37L973,2682.37c0,0.89-0.72,1.62-1.62,1.62l0,0c-0.89,0-1.62-0.72-1.62-1.62l0,0
			c0-0.89,0.72-1.62,1.62-1.62l0,0C972.28,2680.75,973,2681.48,973,2682.37z"/>
		<path class="st0" d="M1005.64,2682.37L1005.64,2682.37c0,0.89-0.72,1.62-1.62,1.62l0,0c-0.89,0-1.62-0.72-1.62-1.62l0,0
			c0-0.89,0.72-1.62,1.62-1.62l0,0C1004.92,2680.75,1005.64,2681.48,1005.64,2682.37z"/>
		<path class="st0" d="M875.08,2715.15L875.08,2715.15c0,0.89-0.72,1.62-1.62,1.62h0c-0.89,0-1.62-0.72-1.62-1.62l0,0
			c0-0.89,0.72-1.62,1.62-1.62h0C874.36,2713.53,875.08,2714.26,875.08,2715.15z"/>
		<path class="st0" d="M907.72,2715.15L907.72,2715.15c0,0.89-0.72,1.62-1.62,1.62l0,0c-0.89,0-1.62-0.72-1.62-1.62l0,0
			c0-0.89,0.72-1.62,1.62-1.62l0,0C907,2713.53,907.72,2714.26,907.72,2715.15z"/>
		<path class="st0" d="M940.36,2715.15L940.36,2715.15c0,0.89-0.72,1.62-1.62,1.62l0,0c-0.89,0-1.62-0.72-1.62-1.62l0,0
			c0-0.89,0.72-1.62,1.62-1.62l0,0C939.64,2713.53,940.36,2714.26,940.36,2715.15z"/>
		<path class="st0" d="M973,2715.15L973,2715.15c0,0.89-0.72,1.62-1.62,1.62l0,0c-0.89,0-1.62-0.72-1.62-1.62l0,0
			c0-0.89,0.72-1.62,1.62-1.62l0,0C972.28,2713.53,973,2714.26,973,2715.15z"/>
		<path class="st0" d="M1005.64,2715.15L1005.64,2715.15c0,0.89-0.72,1.62-1.62,1.62l0,0c-0.89,0-1.62-0.72-1.62-1.62l0,0
			c0-0.89,0.72-1.62,1.62-1.62l0,0C1004.92,2713.53,1005.64,2714.26,1005.64,2715.15z"/>
	</g>
	<g>
		<g>
			<path class="st0" d="M120.63,2740.75h34.86c0-20.98-4.11-41.35-12.23-60.53c-3.9-9.22-8.72-18.11-14.34-26.42
				c-5.56-8.23-11.94-15.97-18.98-23c-7.03-7.03-14.77-13.42-23-18.98c-8.31-5.62-17.2-10.44-26.42-14.34
				c-19.18-8.11-39.55-12.23-60.53-12.23l0,34.86c16.29,0,32.09,3.19,46.95,9.47c14.36,6.07,27.26,14.77,38.35,25.86
				s19.78,23.99,25.86,38.35C117.44,2708.66,120.63,2724.45,120.63,2740.75z"/>
		</g>
	</g>
	<g>
		<g>
			<path class="st1" d="M108.64,2405.94l-11.69,11.69c7.03,7.03,15.24,12.48,24.39,16.19c4.4,1.78,8.99,3.15,13.66,4.05
				c4.62,0.9,9.36,1.35,14.07,1.35c4.71,0,9.45-0.45,14.07-1.35c4.67-0.9,9.27-2.27,13.66-4.05c9.15-3.71,17.36-9.16,24.39-16.19
				l-11.69-11.69c-5.46,5.46-11.82,9.69-18.91,12.56c-6.85,2.78-14.09,4.19-21.52,4.19s-14.67-1.41-21.52-4.19
				C120.46,2415.63,114.1,2411.4,108.64,2405.94z"/>
		</g>
	</g>
	<rect x="229.17" y="2253.47" style="fill:none;" width="542.72" height="233.7"/>
	<text transform="matrix(1 0 0 1 229.1709 2278.2007)"><tspan x="0" y="0" class="st0" style="font-family:'Avenir-Black'; font-size:32.7076px;">NUESTRAS CERTIFICACIONES</tspan><tspan x="0" y="47.57" style="fill:#0B0B0B; font-family:'TitilliumWeb-SemiBold'; font-size:14px;">Para Ecosan S.A. es estratégico como parte de su gestión asegurar la calidad de nuestros </tspan><tspan x="0" y="64.33" style="fill:#0B0B0B; font-family:'TitilliumWeb-SemiBold'; font-size:14px;">productos y servicios, establecer acciones para la preservación y cuidado del medio ambi</tspan><tspan x="535.89" y="64.33" style="fill:#0B0B0B; font-family:'TitilliumWeb-SemiBold'; font-size:14px;">-</tspan><tspan x="0" y="81.09" style="fill:#0B0B0B; font-family:'TitilliumWeb-SemiBold'; font-size:14px;">ente, como la certificación en el diseño, producción y construcción, además de la seguri</tspan><tspan x="525.91" y="81.09" style="fill:#0B0B0B; font-family:'TitilliumWeb-SemiBold'; font-size:14px;">-</tspan><tspan x="0" y="97.85" style="fill:#0B0B0B; font-family:'TitilliumWeb-SemiBold'; font-size:14px;">dad de nuestros colaboradores. Bajo este objetivo asumimos el compromiso de trabajar </tspan><tspan x="0" y="114.61" style="fill:#0B0B0B; font-family:'TitilliumWeb-SemiBold'; font-size:14px;">en conformidad con los requisitos de nuestros clientes y bajo los requisitos de normas </tspan><tspan x="0" y="131.37" style="fill:#0B0B0B; font-family:'TitilliumWeb-SemiBold'; font-size:14px;">nacionales e internacionales.</tspan></text>
	<g>
		<g>
			<text transform="matrix(1 0 0 1 250.3105 2673.127)" class="st0" style="font-family:'Avenir-Medium'; font-size:14.7712px;"> POLÍTICA DE CALIDAD Y MEDIOAMBIENTE</text>
			<rect x="229.17" y="2648.25" class="st2" width="393.72" height="39.44"/>
		</g>
		<g>
			<path class="st3" d="M588.14,2665.78l6.2,6.2l6.47-6.45"/>
		</g>
	</g>
</g>
<rect x="-22" y="-14.01" class="st4" width="1055" height="665.9"/>
<g>
	<g>
		<path class="st0" d="M884.34,82.12L884.34,82.12c0,0.89-0.72,1.62-1.62,1.62l0,0c-0.89,0-1.62-0.72-1.62-1.62v0
			c0-0.89,0.72-1.62,1.62-1.62l0,0C883.62,80.5,884.34,81.23,884.34,82.12z"/>
		<path class="st0" d="M884.34,114.9L884.34,114.9c0,0.89-0.72,1.62-1.62,1.62l0,0c-0.89,0-1.62-0.72-1.62-1.62l0,0
			c0-0.89,0.72-1.62,1.62-1.62l0,0C883.62,113.28,884.34,114.01,884.34,114.9z"/>
		<path class="st0" d="M916.98,82.12L916.98,82.12c0,0.89-0.72,1.62-1.62,1.62l0,0c-0.89,0-1.62-0.72-1.62-1.62v0
			c0-0.89,0.72-1.62,1.62-1.62l0,0C916.26,80.5,916.98,81.23,916.98,82.12z"/>
		<path class="st0" d="M916.98,114.9L916.98,114.9c0,0.89-0.72,1.62-1.62,1.62l0,0c-0.89,0-1.62-0.72-1.62-1.62l0,0
			c0-0.89,0.72-1.62,1.62-1.62l0,0C916.26,113.28,916.98,114.01,916.98,114.9z"/>
		<path class="st0" d="M949.62,82.12L949.62,82.12c0,0.89-0.72,1.62-1.62,1.62l0,0c-0.89,0-1.62-0.72-1.62-1.62v0
			c0-0.89,0.72-1.62,1.62-1.62l0,0C948.9,80.5,949.62,81.23,949.62,82.12z"/>
		<path class="st0" d="M949.62,114.9L949.62,114.9c0,0.89-0.72,1.62-1.62,1.62l0,0c-0.89,0-1.62-0.72-1.62-1.62l0,0
			c0-0.89,0.72-1.62,1.62-1.62l0,0C948.9,113.28,949.62,114.01,949.62,114.9z"/>
		<path class="st0" d="M982.26,82.12L982.26,82.12c0,0.89-0.72,1.62-1.62,1.62l0,0c-0.89,0-1.62-0.72-1.62-1.62v0
			c0-0.89,0.72-1.62,1.62-1.62l0,0C981.54,80.5,982.26,81.23,982.26,82.12z"/>
		<path class="st0" d="M982.26,114.9L982.26,114.9c0,0.89-0.72,1.62-1.62,1.62l0,0c-0.89,0-1.62-0.72-1.62-1.62l0,0
			c0-0.89,0.72-1.62,1.62-1.62l0,0C981.54,113.28,982.26,114.01,982.26,114.9z"/>
		<path class="st0" d="M1014.9,82.12L1014.9,82.12c0,0.89-0.72,1.62-1.62,1.62l0,0c-0.89,0-1.62-0.72-1.62-1.62v0
			c0-0.89,0.72-1.62,1.62-1.62l0,0C1014.17,80.5,1014.9,81.23,1014.9,82.12z"/>
		<path class="st0" d="M1014.9,114.9L1014.9,114.9c0,0.89-0.72,1.62-1.62,1.62l0,0c-0.89,0-1.62-0.72-1.62-1.62l0,0
			c0-0.89,0.72-1.62,1.62-1.62l0,0C1014.17,113.28,1014.9,114.01,1014.9,114.9z"/>
		<path class="st0" d="M884.34,147.68L884.34,147.68c0,0.89-0.72,1.62-1.62,1.62l0,0c-0.89,0-1.62-0.72-1.62-1.62v0
			c0-0.89,0.72-1.62,1.62-1.62l0,0C883.62,146.06,884.34,146.79,884.34,147.68z"/>
		<path class="st0" d="M916.98,147.68L916.98,147.68c0,0.89-0.72,1.62-1.62,1.62l0,0c-0.89,0-1.62-0.72-1.62-1.62v0
			c0-0.89,0.72-1.62,1.62-1.62l0,0C916.26,146.06,916.98,146.79,916.98,147.68z"/>
		<path class="st0" d="M949.62,147.68L949.62,147.68c0,0.89-0.72,1.62-1.62,1.62l0,0c-0.89,0-1.62-0.72-1.62-1.62v0
			c0-0.89,0.72-1.62,1.62-1.62l0,0C948.9,146.06,949.62,146.79,949.62,147.68z"/>
		<path class="st0" d="M982.26,147.68L982.26,147.68c0,0.89-0.72,1.62-1.62,1.62l0,0c-0.89,0-1.62-0.72-1.62-1.62v0
			c0-0.89,0.72-1.62,1.62-1.62l0,0C981.54,146.06,982.26,146.79,982.26,147.68z"/>
		<path class="st0" d="M1014.9,147.68L1014.9,147.68c0,0.89-0.72,1.62-1.62,1.62l0,0c-0.89,0-1.62-0.72-1.62-1.62v0
			c0-0.89,0.72-1.62,1.62-1.62l0,0C1014.17,146.06,1014.9,146.79,1014.9,147.68z"/>
		<path class="st0" d="M884.34,180.46L884.34,180.46c0,0.89-0.72,1.62-1.62,1.62l0,0c-0.89,0-1.62-0.72-1.62-1.62v0
			c0-0.89,0.72-1.62,1.62-1.62l0,0C883.62,178.84,884.34,179.57,884.34,180.46z"/>
		<path class="st0" d="M916.98,180.46L916.98,180.46c0,0.89-0.72,1.62-1.62,1.62l0,0c-0.89,0-1.62-0.72-1.62-1.62v0
			c0-0.89,0.72-1.62,1.62-1.62l0,0C916.26,178.84,916.98,179.57,916.98,180.46z"/>
		<path class="st0" d="M949.62,180.46L949.62,180.46c0,0.89-0.72,1.62-1.62,1.62l0,0c-0.89,0-1.62-0.72-1.62-1.62v0
			c0-0.89,0.72-1.62,1.62-1.62l0,0C948.9,178.84,949.62,179.57,949.62,180.46z"/>
		<path class="st0" d="M982.26,180.46L982.26,180.46c0,0.89-0.72,1.62-1.62,1.62l0,0c-0.89,0-1.62-0.72-1.62-1.62v0
			c0-0.89,0.72-1.62,1.62-1.62l0,0C981.54,178.84,982.26,179.57,982.26,180.46z"/>
		<path class="st0" d="M1014.9,180.46L1014.9,180.46c0,0.89-0.72,1.62-1.62,1.62l0,0c-0.89,0-1.62-0.72-1.62-1.62v0
			c0-0.89,0.72-1.62,1.62-1.62l0,0C1014.17,178.84,1014.9,179.57,1014.9,180.46z"/>
		<path class="st0" d="M884.34,213.24L884.34,213.24c0,0.89-0.72,1.62-1.62,1.62l0,0c-0.89,0-1.62-0.72-1.62-1.62l0,0
			c0-0.89,0.72-1.62,1.62-1.62l0,0C883.62,211.62,884.34,212.35,884.34,213.24z"/>
		<path class="st0" d="M916.98,213.24L916.98,213.24c0,0.89-0.72,1.62-1.62,1.62l0,0c-0.89,0-1.62-0.72-1.62-1.62l0,0
			c0-0.89,0.72-1.62,1.62-1.62l0,0C916.26,211.62,916.98,212.35,916.98,213.24z"/>
		<path class="st0" d="M949.62,213.24L949.62,213.24c0,0.89-0.72,1.62-1.62,1.62l0,0c-0.89,0-1.62-0.72-1.62-1.62l0,0
			c0-0.89,0.72-1.62,1.62-1.62l0,0C948.9,211.62,949.62,212.35,949.62,213.24z"/>
		<path class="st0" d="M982.26,213.24L982.26,213.24c0,0.89-0.72,1.62-1.62,1.62l0,0c-0.89,0-1.62-0.72-1.62-1.62l0,0
			c0-0.89,0.72-1.62,1.62-1.62l0,0C981.54,211.62,982.26,212.35,982.26,213.24z"/>
		<path class="st0" d="M1014.9,213.24L1014.9,213.24c0,0.89-0.72,1.62-1.62,1.62l0,0c-0.89,0-1.62-0.72-1.62-1.62l0,0
			c0-0.89,0.72-1.62,1.62-1.62l0,0C1014.17,211.62,1014.9,212.35,1014.9,213.24z"/>
		<path class="st0" d="M884.34,246.02L884.34,246.02c0,0.89-0.72,1.62-1.62,1.62l0,0c-0.89,0-1.62-0.72-1.62-1.62l0,0
			c0-0.89,0.72-1.62,1.62-1.62l0,0C883.62,244.4,884.34,245.13,884.34,246.02z"/>
		<path class="st0" d="M916.98,246.02L916.98,246.02c0,0.89-0.72,1.62-1.62,1.62l0,0c-0.89,0-1.62-0.72-1.62-1.62l0,0
			c0-0.89,0.72-1.62,1.62-1.62l0,0C916.26,244.4,916.98,245.13,916.98,246.02z"/>
		<path class="st0" d="M949.62,246.02L949.62,246.02c0,0.89-0.72,1.62-1.62,1.62l0,0c-0.89,0-1.62-0.72-1.62-1.62l0,0
			c0-0.89,0.72-1.62,1.62-1.62l0,0C948.9,244.4,949.62,245.13,949.62,246.02z"/>
		<path class="st0" d="M982.26,246.02L982.26,246.02c0,0.89-0.72,1.62-1.62,1.62l0,0c-0.89,0-1.62-0.72-1.62-1.62l0,0
			c0-0.89,0.72-1.62,1.62-1.62l0,0C981.54,244.4,982.26,245.13,982.26,246.02z"/>
		<path class="st0" d="M1014.9,246.02L1014.9,246.02c0,0.89-0.72,1.62-1.62,1.62l0,0c-0.89,0-1.62-0.72-1.62-1.62l0,0
			c0-0.89,0.72-1.62,1.62-1.62l0,0C1014.17,244.4,1014.9,245.13,1014.9,246.02z"/>
		<path class="st0" d="M884.34,278.8L884.34,278.8c0,0.89-0.72,1.62-1.62,1.62l0,0c-0.89,0-1.62-0.72-1.62-1.62l0,0
			c0-0.89,0.72-1.62,1.62-1.62l0,0C883.62,277.18,884.34,277.91,884.34,278.8z"/>
		<path class="st0" d="M916.98,278.8L916.98,278.8c0,0.89-0.72,1.62-1.62,1.62l0,0c-0.89,0-1.62-0.72-1.62-1.62l0,0
			c0-0.89,0.72-1.62,1.62-1.62l0,0C916.26,277.18,916.98,277.91,916.98,278.8z"/>
		<path class="st0" d="M949.62,278.8L949.62,278.8c0,0.89-0.72,1.62-1.62,1.62l0,0c-0.89,0-1.62-0.72-1.62-1.62l0,0
			c0-0.89,0.72-1.62,1.62-1.62l0,0C948.9,277.18,949.62,277.91,949.62,278.8z"/>
		<path class="st0" d="M982.26,278.8L982.26,278.8c0,0.89-0.72,1.62-1.62,1.62l0,0c-0.89,0-1.62-0.72-1.62-1.62l0,0
			c0-0.89,0.72-1.62,1.62-1.62l0,0C981.54,277.18,982.26,277.91,982.26,278.8z"/>
		<path class="st0" d="M1014.9,278.8L1014.9,278.8c0,0.89-0.72,1.62-1.62,1.62l0,0c-0.89,0-1.62-0.72-1.62-1.62l0,0
			c0-0.89,0.72-1.62,1.62-1.62l0,0C1014.17,277.18,1014.9,277.91,1014.9,278.8z"/>
		<path class="st0" d="M884.34,311.58L884.34,311.58c0,0.89-0.72,1.62-1.62,1.62l0,0c-0.89,0-1.62-0.72-1.62-1.62l0,0
			c0-0.89,0.72-1.62,1.62-1.62l0,0C883.62,309.96,884.34,310.69,884.34,311.58z"/>
		<path class="st0" d="M916.98,311.58L916.98,311.58c0,0.89-0.72,1.62-1.62,1.62l0,0c-0.89,0-1.62-0.72-1.62-1.62l0,0
			c0-0.89,0.72-1.62,1.62-1.62l0,0C916.26,309.96,916.98,310.69,916.98,311.58z"/>
		<path class="st0" d="M949.62,311.58L949.62,311.58c0,0.89-0.72,1.62-1.62,1.62l0,0c-0.89,0-1.62-0.72-1.62-1.62l0,0
			c0-0.89,0.72-1.62,1.62-1.62l0,0C948.9,309.96,949.62,310.69,949.62,311.58z"/>
		<path class="st0" d="M982.26,311.58L982.26,311.58c0,0.89-0.72,1.62-1.62,1.62l0,0c-0.89,0-1.62-0.72-1.62-1.62l0,0
			c0-0.89,0.72-1.62,1.62-1.62l0,0C981.54,309.96,982.26,310.69,982.26,311.58z"/>
		<path class="st0" d="M1014.9,311.58L1014.9,311.58c0,0.89-0.72,1.62-1.62,1.62l0,0c-0.89,0-1.62-0.72-1.62-1.62l0,0
			c0-0.89,0.72-1.62,1.62-1.62l0,0C1014.17,309.96,1014.9,310.69,1014.9,311.58z"/>
		<path class="st0" d="M884.34,311.57L884.34,311.57c0,0.89-0.72,1.62-1.62,1.62l0,0c-0.89,0-1.62-0.72-1.62-1.62l0,0
			c0-0.89,0.72-1.62,1.62-1.62l0,0C883.62,309.95,884.34,310.67,884.34,311.57z"/>
		<path class="st0" d="M884.34,344.35L884.34,344.35c0,0.89-0.72,1.62-1.62,1.62l0,0c-0.89,0-1.62-0.72-1.62-1.62l0,0
			c0-0.89,0.72-1.62,1.62-1.62l0,0C883.62,342.73,884.34,343.45,884.34,344.35z"/>
		<path class="st0" d="M916.98,311.57L916.98,311.57c0,0.89-0.72,1.62-1.62,1.62l0,0c-0.89,0-1.62-0.72-1.62-1.62l0,0
			c0-0.89,0.72-1.62,1.62-1.62l0,0C916.26,309.95,916.98,310.67,916.98,311.57z"/>
		<path class="st0" d="M916.98,344.35L916.98,344.35c0,0.89-0.72,1.62-1.62,1.62l0,0c-0.89,0-1.62-0.72-1.62-1.62l0,0
			c0-0.89,0.72-1.62,1.62-1.62l0,0C916.26,342.73,916.98,343.45,916.98,344.35z"/>
		<path class="st0" d="M949.62,311.57L949.62,311.57c0,0.89-0.72,1.62-1.62,1.62l0,0c-0.89,0-1.62-0.72-1.62-1.62l0,0
			c0-0.89,0.72-1.62,1.62-1.62l0,0C948.9,309.95,949.62,310.67,949.62,311.57z"/>
		<path class="st0" d="M949.62,344.35L949.62,344.35c0,0.89-0.72,1.62-1.62,1.62l0,0c-0.89,0-1.62-0.72-1.62-1.62l0,0
			c0-0.89,0.72-1.62,1.62-1.62l0,0C948.9,342.73,949.62,343.45,949.62,344.35z"/>
		<path class="st0" d="M982.26,311.57L982.26,311.57c0,0.89-0.72,1.62-1.62,1.62l0,0c-0.89,0-1.62-0.72-1.62-1.62l0,0
			c0-0.89,0.72-1.62,1.62-1.62l0,0C981.54,309.95,982.26,310.67,982.26,311.57z"/>
		<path class="st0" d="M982.26,344.35L982.26,344.35c0,0.89-0.72,1.62-1.62,1.62l0,0c-0.89,0-1.62-0.72-1.62-1.62l0,0
			c0-0.89,0.72-1.62,1.62-1.62l0,0C981.54,342.73,982.26,343.45,982.26,344.35z"/>
		<path class="st0" d="M1014.9,311.57L1014.9,311.57c0,0.89-0.72,1.62-1.62,1.62l0,0c-0.89,0-1.62-0.72-1.62-1.62l0,0
			c0-0.89,0.72-1.62,1.62-1.62l0,0C1014.17,309.95,1014.9,310.67,1014.9,311.57z"/>
		<path class="st0" d="M1014.9,344.35L1014.9,344.35c0,0.89-0.72,1.62-1.62,1.62l0,0c-0.89,0-1.62-0.72-1.62-1.62l0,0
			c0-0.89,0.72-1.62,1.62-1.62l0,0C1014.17,342.73,1014.9,343.45,1014.9,344.35z"/>
		<path class="st0" d="M884.34,377.13L884.34,377.13c0,0.89-0.72,1.62-1.62,1.62l0,0c-0.89,0-1.62-0.72-1.62-1.62l0,0
			c0-0.89,0.72-1.62,1.62-1.62l0,0C883.62,375.51,884.34,376.23,884.34,377.13z"/>
		<path class="st0" d="M916.98,377.13L916.98,377.13c0,0.89-0.72,1.62-1.62,1.62l0,0c-0.89,0-1.62-0.72-1.62-1.62l0,0
			c0-0.89,0.72-1.62,1.62-1.62l0,0C916.26,375.51,916.98,376.23,916.98,377.13z"/>
		<path class="st0" d="M949.62,377.13L949.62,377.13c0,0.89-0.72,1.62-1.62,1.62l0,0c-0.89,0-1.62-0.72-1.62-1.62l0,0
			c0-0.89,0.72-1.62,1.62-1.62l0,0C948.9,375.51,949.62,376.23,949.62,377.13z"/>
		<path class="st0" d="M982.26,377.13L982.26,377.13c0,0.89-0.72,1.62-1.62,1.62l0,0c-0.89,0-1.62-0.72-1.62-1.62l0,0
			c0-0.89,0.72-1.62,1.62-1.62l0,0C981.54,375.51,982.26,376.23,982.26,377.13z"/>
		<path class="st0" d="M1014.9,377.13L1014.9,377.13c0,0.89-0.72,1.62-1.62,1.62l0,0c-0.89,0-1.62-0.72-1.62-1.62l0,0
			c0-0.89,0.72-1.62,1.62-1.62l0,0C1014.17,375.51,1014.9,376.23,1014.9,377.13z"/>
		<path class="st0" d="M884.34,409.91L884.34,409.91c0,0.89-0.72,1.62-1.62,1.62l0,0c-0.89,0-1.62-0.72-1.62-1.62l0,0
			c0-0.89,0.72-1.62,1.62-1.62l0,0C883.62,408.29,884.34,409.01,884.34,409.91z"/>
		<path class="st0" d="M916.98,409.91L916.98,409.91c0,0.89-0.72,1.62-1.62,1.62l0,0c-0.89,0-1.62-0.72-1.62-1.62l0,0
			c0-0.89,0.72-1.62,1.62-1.62l0,0C916.26,408.29,916.98,409.01,916.98,409.91z"/>
		<path class="st0" d="M949.62,409.91L949.62,409.91c0,0.89-0.72,1.62-1.62,1.62l0,0c-0.89,0-1.62-0.72-1.62-1.62l0,0
			c0-0.89,0.72-1.62,1.62-1.62l0,0C948.9,408.29,949.62,409.01,949.62,409.91z"/>
		<path class="st0" d="M982.26,409.91L982.26,409.91c0,0.89-0.72,1.62-1.62,1.62l0,0c-0.89,0-1.62-0.72-1.62-1.62l0,0
			c0-0.89,0.72-1.62,1.62-1.62l0,0C981.54,408.29,982.26,409.01,982.26,409.91z"/>
		<path class="st0" d="M1014.9,409.91L1014.9,409.91c0,0.89-0.72,1.62-1.62,1.62l0,0c-0.89,0-1.62-0.72-1.62-1.62l0,0
			c0-0.89,0.72-1.62,1.62-1.62l0,0C1014.17,408.29,1014.9,409.01,1014.9,409.91z"/>
		<path class="st0" d="M884.34,442.69L884.34,442.69c0,0.89-0.72,1.62-1.62,1.62l0,0c-0.89,0-1.62-0.72-1.62-1.62l0,0
			c0-0.89,0.72-1.62,1.62-1.62l0,0C883.62,441.07,884.34,441.79,884.34,442.69z"/>
		<path class="st0" d="M916.98,442.69L916.98,442.69c0,0.89-0.72,1.62-1.62,1.62l0,0c-0.89,0-1.62-0.72-1.62-1.62l0,0
			c0-0.89,0.72-1.62,1.62-1.62l0,0C916.26,441.07,916.98,441.79,916.98,442.69z"/>
		<path class="st0" d="M949.62,442.69L949.62,442.69c0,0.89-0.72,1.62-1.62,1.62l0,0c-0.89,0-1.62-0.72-1.62-1.62l0,0
			c0-0.89,0.72-1.62,1.62-1.62l0,0C948.9,441.07,949.62,441.79,949.62,442.69z"/>
		<path class="st0" d="M982.26,442.69L982.26,442.69c0,0.89-0.72,1.62-1.62,1.62l0,0c-0.89,0-1.62-0.72-1.62-1.62l0,0
			c0-0.89,0.72-1.62,1.62-1.62l0,0C981.54,441.07,982.26,441.79,982.26,442.69z"/>
		<path class="st0" d="M1014.9,442.69L1014.9,442.69c0,0.89-0.72,1.62-1.62,1.62l0,0c-0.89,0-1.62-0.72-1.62-1.62l0,0
			c0-0.89,0.72-1.62,1.62-1.62l0,0C1014.17,441.07,1014.9,441.79,1014.9,442.69z"/>
		<path class="st0" d="M884.34,475.47L884.34,475.47c0,0.89-0.72,1.62-1.62,1.62l0,0c-0.89,0-1.62-0.72-1.62-1.62l0,0
			c0-0.89,0.72-1.62,1.62-1.62l0,0C883.62,473.85,884.34,474.57,884.34,475.47z"/>
		<path class="st0" d="M916.98,475.47L916.98,475.47c0,0.89-0.72,1.62-1.62,1.62l0,0c-0.89,0-1.62-0.72-1.62-1.62l0,0
			c0-0.89,0.72-1.62,1.62-1.62l0,0C916.26,473.85,916.98,474.57,916.98,475.47z"/>
		<path class="st0" d="M949.62,475.47L949.62,475.47c0,0.89-0.72,1.62-1.62,1.62l0,0c-0.89,0-1.62-0.72-1.62-1.62l0,0
			c0-0.89,0.72-1.62,1.62-1.62l0,0C948.9,473.85,949.62,474.57,949.62,475.47z"/>
		<path class="st0" d="M982.26,475.47L982.26,475.47c0,0.89-0.72,1.62-1.62,1.62l0,0c-0.89,0-1.62-0.72-1.62-1.62l0,0
			c0-0.89,0.72-1.62,1.62-1.62l0,0C981.54,473.85,982.26,474.57,982.26,475.47z"/>
		<path class="st0" d="M1014.9,475.47L1014.9,475.47c0,0.89-0.72,1.62-1.62,1.62l0,0c-0.89,0-1.62-0.72-1.62-1.62l0,0
			c0-0.89,0.72-1.62,1.62-1.62l0,0C1014.17,473.85,1014.9,474.57,1014.9,475.47z"/>
		<path class="st0" d="M884.34,508.25L884.34,508.25c0,0.89-0.72,1.62-1.62,1.62l0,0c-0.89,0-1.62-0.72-1.62-1.62l0,0
			c0-0.89,0.72-1.62,1.62-1.62l0,0C883.62,506.63,884.34,507.35,884.34,508.25z"/>
		<path class="st0" d="M916.98,508.25L916.98,508.25c0,0.89-0.72,1.62-1.62,1.62l0,0c-0.89,0-1.62-0.72-1.62-1.62l0,0
			c0-0.89,0.72-1.62,1.62-1.62l0,0C916.26,506.63,916.98,507.35,916.98,508.25z"/>
		<path class="st0" d="M949.62,508.25L949.62,508.25c0,0.89-0.72,1.62-1.62,1.62l0,0c-0.89,0-1.62-0.72-1.62-1.62l0,0
			c0-0.89,0.72-1.62,1.62-1.62l0,0C948.9,506.63,949.62,507.35,949.62,508.25z"/>
		<path class="st0" d="M982.26,508.25L982.26,508.25c0,0.89-0.72,1.62-1.62,1.62l0,0c-0.89,0-1.62-0.72-1.62-1.62l0,0
			c0-0.89,0.72-1.62,1.62-1.62l0,0C981.54,506.63,982.26,507.35,982.26,508.25z"/>
		<path class="st0" d="M1014.9,508.25L1014.9,508.25c0,0.89-0.72,1.62-1.62,1.62l0,0c-0.89,0-1.62-0.72-1.62-1.62l0,0
			c0-0.89,0.72-1.62,1.62-1.62l0,0C1014.17,506.63,1014.9,507.35,1014.9,508.25z"/>
		<path class="st0" d="M884.34,541.03L884.34,541.03c0,0.89-0.72,1.62-1.62,1.62l0,0c-0.89,0-1.62-0.72-1.62-1.62l0,0
			c0-0.89,0.72-1.62,1.62-1.62l0,0C883.62,539.41,884.34,540.13,884.34,541.03z"/>
		<path class="st0" d="M916.98,541.03L916.98,541.03c0,0.89-0.72,1.62-1.62,1.62l0,0c-0.89,0-1.62-0.72-1.62-1.62l0,0
			c0-0.89,0.72-1.62,1.62-1.62l0,0C916.26,539.41,916.98,540.13,916.98,541.03z"/>
		<path class="st0" d="M949.62,541.03L949.62,541.03c0,0.89-0.72,1.62-1.62,1.62l0,0c-0.89,0-1.62-0.72-1.62-1.62l0,0
			c0-0.89,0.72-1.62,1.62-1.62l0,0C948.9,539.41,949.62,540.13,949.62,541.03z"/>
		<path class="st0" d="M982.26,541.03L982.26,541.03c0,0.89-0.72,1.62-1.62,1.62l0,0c-0.89,0-1.62-0.72-1.62-1.62l0,0
			c0-0.89,0.72-1.62,1.62-1.62l0,0C981.54,539.41,982.26,540.13,982.26,541.03z"/>
		<path class="st0" d="M1014.9,541.03L1014.9,541.03c0,0.89-0.72,1.62-1.62,1.62l0,0c-0.89,0-1.62-0.72-1.62-1.62l0,0
			c0-0.89,0.72-1.62,1.62-1.62l0,0C1014.17,539.41,1014.9,540.13,1014.9,541.03z"/>
	</g>
	<g>
		<g>
			<path class="st0" d="M110.63,645h34.86c0-20.98-4.11-41.35-12.23-60.53c-3.9-9.22-8.72-18.11-14.34-26.42
				c-5.56-8.23-11.94-15.97-18.98-23c-7.03-7.03-14.77-13.42-23-18.98c-8.31-5.62-17.2-10.44-26.42-14.34
				c-19.18-8.11-39.55-12.23-60.53-12.23v34.86c16.29,0,32.09,3.19,46.95,9.47c14.36,6.07,27.26,14.77,38.35,25.86
				s19.78,23.99,25.86,38.35C107.44,612.91,110.63,628.71,110.63,645z"/>
		</g>
	</g>
</g>
</svg>
