<?xml version="1.0" encoding="utf-8"?>
<!-- Generator: Adobe Illustrator 25.4.1, SVG Export Plug-In . SVG Version: 6.00 Build 0)  -->
<svg version="1.1" id="Capa_1" xmlns="http://www.w3.org/2000/svg" xmlns:xlink="http://www.w3.org/1999/xlink" x="0px" y="0px"
	 viewBox="0 0 1022.91 436.03" style="enable-background:new 0 0 1022.91 436.03;" xml:space="preserve">
<style type="text/css">
	.st0{fill:#FFFFFF;}
	.st1{fill:#3B3B3B;}
	.st2{fill:none;stroke:#0B0B0B;stroke-width:1.7116;stroke-miterlimit:10;}
	.st3{fill:none;stroke:#FFFFFF;stroke-width:2.31;stroke-linecap:round;stroke-linejoin:round;stroke-miterlimit:10;}
	.st4{fill:#00A69A;}
	.st5{font-family:'Avenir-Black';}
	.st6{font-size:16.6129px;}
	.st7{font-size:13.2905px;}
	.st8{font-family:'Avenir-Medium';}
	.st9{letter-spacing:1;}
	.st10{font-size:13.2903px;}
	.st11{fill:none;stroke:#FFFFFF;stroke-width:0.7587;}
	.st12{fill:#F37920;}
	.st13{fill:none;stroke:#FFFFFF;stroke-width:0.5659;}
	.st14{fill:none;stroke:#FFFFFF;stroke-width:0.5189;}
	.st15{fill:none;stroke:#FFFFFF;stroke-width:1.6613;stroke-linecap:round;stroke-linejoin:round;stroke-miterlimit:10;}
	.st16{fill:none;stroke:#3B3B3B;stroke-width:0.5659;}
	.st17{font-family:'Avenir-BlackOblique';}
	.st18{font-size:17.3047px;}
	.st19{font-size:8.6709px;}
	.st20{letter-spacing:2;}
	.st21{fill:none;stroke:#3B3B3B;stroke-width:1.0799;stroke-linecap:round;stroke-linejoin:round;stroke-miterlimit:10;}
</style>
<g>
	<g>
		<path class="st0" d="M1344.62,2620.49L1344.62,2620.49c0,0.89-0.72,1.62-1.62,1.62l0,0c-0.89,0-1.62-0.72-1.62-1.62l0,0
			c0-0.89,0.72-1.62,1.62-1.62l0,0C1343.9,2618.87,1344.62,2619.6,1344.62,2620.49z"/>
		<path class="st0" d="M1344.62,2653.27L1344.62,2653.27c0,0.89-0.72,1.62-1.62,1.62l0,0c-0.89,0-1.62-0.72-1.62-1.62l0,0
			c0-0.89,0.72-1.62,1.62-1.62l0,0C1343.9,2651.65,1344.62,2652.38,1344.62,2653.27z"/>
		<path class="st0" d="M1377.26,2620.49L1377.26,2620.49c0,0.89-0.72,1.62-1.62,1.62l0,0c-0.89,0-1.62-0.72-1.62-1.62l0,0
			c0-0.89,0.72-1.62,1.62-1.62l0,0C1376.54,2618.87,1377.26,2619.6,1377.26,2620.49z"/>
		<path class="st0" d="M1377.26,2653.27L1377.26,2653.27c0,0.89-0.72,1.62-1.62,1.62l0,0c-0.89,0-1.62-0.72-1.62-1.62l0,0
			c0-0.89,0.72-1.62,1.62-1.62l0,0C1376.54,2651.65,1377.26,2652.38,1377.26,2653.27z"/>
		<path class="st0" d="M1409.9,2620.49L1409.9,2620.49c0,0.89-0.72,1.62-1.62,1.62l0,0c-0.89,0-1.62-0.72-1.62-1.62l0,0
			c0-0.89,0.72-1.62,1.62-1.62l0,0C1409.18,2618.87,1409.9,2619.6,1409.9,2620.49z"/>
		<path class="st0" d="M1409.9,2653.27L1409.9,2653.27c0,0.89-0.72,1.62-1.62,1.62l0,0c-0.89,0-1.62-0.72-1.62-1.62l0,0
			c0-0.89,0.72-1.62,1.62-1.62l0,0C1409.18,2651.65,1409.9,2652.38,1409.9,2653.27z"/>
		<path class="st0" d="M1442.54,2620.49L1442.54,2620.49c0,0.89-0.72,1.62-1.62,1.62l0,0c-0.89,0-1.62-0.72-1.62-1.62l0,0
			c0-0.89,0.72-1.62,1.62-1.62l0,0C1441.82,2618.87,1442.54,2619.6,1442.54,2620.49z"/>
		<path class="st0" d="M1442.54,2653.27L1442.54,2653.27c0,0.89-0.72,1.62-1.62,1.62l0,0c-0.89,0-1.62-0.72-1.62-1.62l0,0
			c0-0.89,0.72-1.62,1.62-1.62l0,0C1441.82,2651.65,1442.54,2652.38,1442.54,2653.27z"/>
		<path class="st0" d="M1475.18,2620.49L1475.18,2620.49c0,0.89-0.72,1.62-1.62,1.62l0,0c-0.89,0-1.62-0.72-1.62-1.62l0,0
			c0-0.89,0.72-1.62,1.62-1.62l0,0C1474.46,2618.87,1475.18,2619.6,1475.18,2620.49z"/>
		<path class="st0" d="M1475.18,2653.27L1475.18,2653.27c0,0.89-0.72,1.62-1.62,1.62l0,0c-0.89,0-1.62-0.72-1.62-1.62l0,0
			c0-0.89,0.72-1.62,1.62-1.62l0,0C1474.46,2651.65,1475.18,2652.38,1475.18,2653.27z"/>
		<path class="st0" d="M1344.62,2686.05L1344.62,2686.05c0,0.89-0.72,1.62-1.62,1.62l0,0c-0.89,0-1.62-0.72-1.62-1.62l0,0
			c0-0.89,0.72-1.62,1.62-1.62l0,0C1343.9,2684.43,1344.62,2685.16,1344.62,2686.05z"/>
		<path class="st0" d="M1377.26,2686.05L1377.26,2686.05c0,0.89-0.72,1.62-1.62,1.62l0,0c-0.89,0-1.62-0.72-1.62-1.62l0,0
			c0-0.89,0.72-1.62,1.62-1.62l0,0C1376.54,2684.43,1377.26,2685.16,1377.26,2686.05z"/>
		<path class="st0" d="M1409.9,2686.05L1409.9,2686.05c0,0.89-0.72,1.62-1.62,1.62l0,0c-0.89,0-1.62-0.72-1.62-1.62l0,0
			c0-0.89,0.72-1.62,1.62-1.62l0,0C1409.18,2684.43,1409.9,2685.16,1409.9,2686.05z"/>
		<path class="st0" d="M1442.54,2686.05L1442.54,2686.05c0,0.89-0.72,1.62-1.62,1.62l0,0c-0.89,0-1.62-0.72-1.62-1.62l0,0
			c0-0.89,0.72-1.62,1.62-1.62l0,0C1441.82,2684.43,1442.54,2685.16,1442.54,2686.05z"/>
		<path class="st0" d="M1475.18,2686.05L1475.18,2686.05c0,0.89-0.72,1.62-1.62,1.62l0,0c-0.89,0-1.62-0.72-1.62-1.62l0,0
			c0-0.89,0.72-1.62,1.62-1.62l0,0C1474.46,2684.43,1475.18,2685.16,1475.18,2686.05z"/>
		<path class="st0" d="M1344.62,2718.83L1344.62,2718.83c0,0.89-0.72,1.62-1.62,1.62l0,0c-0.89,0-1.62-0.72-1.62-1.62l0,0
			c0-0.89,0.72-1.62,1.62-1.62l0,0C1343.9,2717.21,1344.62,2717.94,1344.62,2718.83z"/>
		<path class="st0" d="M1377.26,2718.83L1377.26,2718.83c0,0.89-0.72,1.62-1.62,1.62l0,0c-0.89,0-1.62-0.72-1.62-1.62l0,0
			c0-0.89,0.72-1.62,1.62-1.62l0,0C1376.54,2717.21,1377.26,2717.94,1377.26,2718.83z"/>
		<path class="st0" d="M1409.9,2718.83L1409.9,2718.83c0,0.89-0.72,1.62-1.62,1.62l0,0c-0.89,0-1.62-0.72-1.62-1.62l0,0
			c0-0.89,0.72-1.62,1.62-1.62l0,0C1409.18,2717.21,1409.9,2717.94,1409.9,2718.83z"/>
		<path class="st0" d="M1442.54,2718.83L1442.54,2718.83c0,0.89-0.72,1.62-1.62,1.62l0,0c-0.89,0-1.62-0.72-1.62-1.62l0,0
			c0-0.89,0.72-1.62,1.62-1.62l0,0C1441.82,2717.21,1442.54,2717.94,1442.54,2718.83z"/>
		<path class="st0" d="M1475.18,2718.83L1475.18,2718.83c0,0.89-0.72,1.62-1.62,1.62l0,0c-0.89,0-1.62-0.72-1.62-1.62l0,0
			c0-0.89,0.72-1.62,1.62-1.62l0,0C1474.46,2717.21,1475.18,2717.94,1475.18,2718.83z"/>
		<path class="st0" d="M1344.62,2751.61L1344.62,2751.61c0,0.89-0.72,1.62-1.62,1.62l0,0c-0.89,0-1.62-0.72-1.62-1.62l0,0
			c0-0.89,0.72-1.62,1.62-1.62l0,0C1343.9,2749.99,1344.62,2750.72,1344.62,2751.61z"/>
		<path class="st0" d="M1377.26,2751.61L1377.26,2751.61c0,0.89-0.72,1.62-1.62,1.62l0,0c-0.89,0-1.62-0.72-1.62-1.62l0,0
			c0-0.89,0.72-1.62,1.62-1.62l0,0C1376.54,2749.99,1377.26,2750.72,1377.26,2751.61z"/>
		<path class="st0" d="M1409.9,2751.61L1409.9,2751.61c0,0.89-0.72,1.62-1.62,1.62l0,0c-0.89,0-1.62-0.72-1.62-1.62l0,0
			c0-0.89,0.72-1.62,1.62-1.62l0,0C1409.18,2749.99,1409.9,2750.72,1409.9,2751.61z"/>
		<path class="st0" d="M1442.54,2751.61L1442.54,2751.61c0,0.89-0.72,1.62-1.62,1.62l0,0c-0.89,0-1.62-0.72-1.62-1.62l0,0
			c0-0.89,0.72-1.62,1.62-1.62l0,0C1441.82,2749.99,1442.54,2750.72,1442.54,2751.61z"/>
		<path class="st0" d="M1475.18,2751.61L1475.18,2751.61c0,0.89-0.72,1.62-1.62,1.62l0,0c-0.89,0-1.62-0.72-1.62-1.62l0,0
			c0-0.89,0.72-1.62,1.62-1.62l0,0C1474.46,2749.99,1475.18,2750.72,1475.18,2751.61z"/>
		<path class="st0" d="M1344.62,2784.39L1344.62,2784.39c0,0.89-0.72,1.62-1.62,1.62l0,0c-0.89,0-1.62-0.72-1.62-1.62l0,0
			c0-0.89,0.72-1.62,1.62-1.62l0,0C1343.9,2782.77,1344.62,2783.5,1344.62,2784.39z"/>
		<path class="st0" d="M1377.26,2784.39L1377.26,2784.39c0,0.89-0.72,1.62-1.62,1.62l0,0c-0.89,0-1.62-0.72-1.62-1.62l0,0
			c0-0.89,0.72-1.62,1.62-1.62l0,0C1376.54,2782.77,1377.26,2783.5,1377.26,2784.39z"/>
		<path class="st0" d="M1409.9,2784.39L1409.9,2784.39c0,0.89-0.72,1.62-1.62,1.62l0,0c-0.89,0-1.62-0.72-1.62-1.62l0,0
			c0-0.89,0.72-1.62,1.62-1.62l0,0C1409.18,2782.77,1409.9,2783.5,1409.9,2784.39z"/>
		<path class="st0" d="M1442.54,2784.39L1442.54,2784.39c0,0.89-0.72,1.62-1.62,1.62l0,0c-0.89,0-1.62-0.72-1.62-1.62l0,0
			c0-0.89,0.72-1.62,1.62-1.62l0,0C1441.82,2782.77,1442.54,2783.5,1442.54,2784.39z"/>
		<path class="st0" d="M1475.18,2784.39L1475.18,2784.39c0,0.89-0.72,1.62-1.62,1.62l0,0c-0.89,0-1.62-0.72-1.62-1.62l0,0
			c0-0.89,0.72-1.62,1.62-1.62l0,0C1474.46,2782.77,1475.18,2783.5,1475.18,2784.39z"/>
		<path class="st0" d="M1344.62,2817.17L1344.62,2817.17c0,0.89-0.72,1.62-1.62,1.62l0,0c-0.89,0-1.62-0.72-1.62-1.62l0,0
			c0-0.89,0.72-1.62,1.62-1.62l0,0C1343.9,2815.55,1344.62,2816.28,1344.62,2817.17z"/>
		<path class="st0" d="M1377.26,2817.17L1377.26,2817.17c0,0.89-0.72,1.62-1.62,1.62l0,0c-0.89,0-1.62-0.72-1.62-1.62l0,0
			c0-0.89,0.72-1.62,1.62-1.62l0,0C1376.54,2815.55,1377.26,2816.28,1377.26,2817.17z"/>
		<path class="st0" d="M1409.9,2817.17L1409.9,2817.17c0,0.89-0.72,1.62-1.62,1.62l0,0c-0.89,0-1.62-0.72-1.62-1.62l0,0
			c0-0.89,0.72-1.62,1.62-1.62l0,0C1409.18,2815.55,1409.9,2816.28,1409.9,2817.17z"/>
		<path class="st0" d="M1442.54,2817.17L1442.54,2817.17c0,0.89-0.72,1.62-1.62,1.62l0,0c-0.89,0-1.62-0.72-1.62-1.62l0,0
			c0-0.89,0.72-1.62,1.62-1.62l0,0C1441.82,2815.55,1442.54,2816.28,1442.54,2817.17z"/>
		<path class="st0" d="M1475.18,2817.17L1475.18,2817.17c0,0.89-0.72,1.62-1.62,1.62l0,0c-0.89,0-1.62-0.72-1.62-1.62l0,0
			c0-0.89,0.72-1.62,1.62-1.62l0,0C1474.46,2815.55,1475.18,2816.28,1475.18,2817.17z"/>
		<path class="st0" d="M1344.62,2849.95L1344.62,2849.95c0,0.89-0.72,1.62-1.62,1.62l0,0c-0.89,0-1.62-0.72-1.62-1.62l0,0
			c0-0.89,0.72-1.62,1.62-1.62l0,0C1343.9,2848.33,1344.62,2849.06,1344.62,2849.95z"/>
		<path class="st0" d="M1377.26,2849.95L1377.26,2849.95c0,0.89-0.72,1.62-1.62,1.62l0,0c-0.89,0-1.62-0.72-1.62-1.62l0,0
			c0-0.89,0.72-1.62,1.62-1.62l0,0C1376.54,2848.33,1377.26,2849.06,1377.26,2849.95z"/>
		<path class="st0" d="M1409.9,2849.95L1409.9,2849.95c0,0.89-0.72,1.62-1.62,1.62l0,0c-0.89,0-1.62-0.72-1.62-1.62l0,0
			c0-0.89,0.72-1.62,1.62-1.62l0,0C1409.18,2848.33,1409.9,2849.06,1409.9,2849.95z"/>
		<path class="st0" d="M1442.54,2849.95L1442.54,2849.95c0,0.89-0.72,1.62-1.62,1.62l0,0c-0.89,0-1.62-0.72-1.62-1.62l0,0
			c0-0.89,0.72-1.62,1.62-1.62l0,0C1441.82,2848.33,1442.54,2849.06,1442.54,2849.95z"/>
		<path class="st0" d="M1475.18,2849.95L1475.18,2849.95c0,0.89-0.72,1.62-1.62,1.62l0,0c-0.89,0-1.62-0.72-1.62-1.62l0,0
			c0-0.89,0.72-1.62,1.62-1.62l0,0C1474.46,2848.33,1475.18,2849.06,1475.18,2849.95z"/>
		<path class="st0" d="M1344.62,2849.94L1344.62,2849.94c0,0.89-0.72,1.62-1.62,1.62l0,0c-0.89,0-1.62-0.72-1.62-1.62l0,0
			c0-0.89,0.72-1.62,1.62-1.62l0,0C1343.9,2848.32,1344.62,2849.04,1344.62,2849.94z"/>
		<path class="st0" d="M1344.62,2882.72L1344.62,2882.72c0,0.89-0.72,1.62-1.62,1.62l0,0c-0.89,0-1.62-0.72-1.62-1.62l0,0
			c0-0.89,0.72-1.62,1.62-1.62l0,0C1343.9,2881.1,1344.62,2881.82,1344.62,2882.72z"/>
		<path class="st0" d="M1377.26,2849.94L1377.26,2849.94c0,0.89-0.72,1.62-1.62,1.62l0,0c-0.89,0-1.62-0.72-1.62-1.62l0,0
			c0-0.89,0.72-1.62,1.62-1.62l0,0C1376.54,2848.32,1377.26,2849.04,1377.26,2849.94z"/>
		<path class="st0" d="M1377.26,2882.72L1377.26,2882.72c0,0.89-0.72,1.62-1.62,1.62l0,0c-0.89,0-1.62-0.72-1.62-1.62l0,0
			c0-0.89,0.72-1.62,1.62-1.62l0,0C1376.54,2881.1,1377.26,2881.82,1377.26,2882.72z"/>
		<path class="st0" d="M1409.9,2849.94L1409.9,2849.94c0,0.89-0.72,1.62-1.62,1.62l0,0c-0.89,0-1.62-0.72-1.62-1.62l0,0
			c0-0.89,0.72-1.62,1.62-1.62l0,0C1409.18,2848.32,1409.9,2849.04,1409.9,2849.94z"/>
		<path class="st0" d="M1409.9,2882.72L1409.9,2882.72c0,0.89-0.72,1.62-1.62,1.62l0,0c-0.89,0-1.62-0.72-1.62-1.62l0,0
			c0-0.89,0.72-1.62,1.62-1.62l0,0C1409.18,2881.1,1409.9,2881.82,1409.9,2882.72z"/>
		<path class="st0" d="M1442.54,2849.94L1442.54,2849.94c0,0.89-0.72,1.62-1.62,1.62l0,0c-0.89,0-1.62-0.72-1.62-1.62l0,0
			c0-0.89,0.72-1.62,1.62-1.62l0,0C1441.82,2848.32,1442.54,2849.04,1442.54,2849.94z"/>
		<path class="st0" d="M1442.54,2882.72L1442.54,2882.72c0,0.89-0.72,1.62-1.62,1.62l0,0c-0.89,0-1.62-0.72-1.62-1.62l0,0
			c0-0.89,0.72-1.62,1.62-1.62l0,0C1441.82,2881.1,1442.54,2881.82,1442.54,2882.72z"/>
		<path class="st0" d="M1475.18,2849.94L1475.18,2849.94c0,0.89-0.72,1.62-1.62,1.62l0,0c-0.89,0-1.62-0.72-1.62-1.62l0,0
			c0-0.89,0.72-1.62,1.62-1.62l0,0C1474.46,2848.32,1475.18,2849.04,1475.18,2849.94z"/>
		<path class="st0" d="M1475.18,2882.72L1475.18,2882.72c0,0.89-0.72,1.62-1.62,1.62l0,0c-0.89,0-1.62-0.72-1.62-1.62l0,0
			c0-0.89,0.72-1.62,1.62-1.62l0,0C1474.46,2881.1,1475.18,2881.82,1475.18,2882.72z"/>
		<path class="st0" d="M1344.62,2915.5L1344.62,2915.5c0,0.89-0.72,1.62-1.62,1.62l0,0c-0.89,0-1.62-0.72-1.62-1.62l0,0
			c0-0.89,0.72-1.62,1.62-1.62l0,0C1343.9,2913.88,1344.62,2914.6,1344.62,2915.5z"/>
		<path class="st0" d="M1377.26,2915.5L1377.26,2915.5c0,0.89-0.72,1.62-1.62,1.62l0,0c-0.89,0-1.62-0.72-1.62-1.62l0,0
			c0-0.89,0.72-1.62,1.62-1.62l0,0C1376.54,2913.88,1377.26,2914.6,1377.26,2915.5z"/>
		<path class="st0" d="M1409.9,2915.5L1409.9,2915.5c0,0.89-0.72,1.62-1.62,1.62l0,0c-0.89,0-1.62-0.72-1.62-1.62l0,0
			c0-0.89,0.72-1.62,1.62-1.62l0,0C1409.18,2913.88,1409.9,2914.6,1409.9,2915.5z"/>
		<path class="st0" d="M1442.54,2915.5L1442.54,2915.5c0,0.89-0.72,1.62-1.62,1.62l0,0c-0.89,0-1.62-0.72-1.62-1.62l0,0
			c0-0.89,0.72-1.62,1.62-1.62l0,0C1441.82,2913.88,1442.54,2914.6,1442.54,2915.5z"/>
		<path class="st0" d="M1475.18,2915.5L1475.18,2915.5c0,0.89-0.72,1.62-1.62,1.62l0,0c-0.89,0-1.62-0.72-1.62-1.62l0,0
			c0-0.89,0.72-1.62,1.62-1.62l0,0C1474.46,2913.88,1475.18,2914.6,1475.18,2915.5z"/>
		<path class="st0" d="M1344.62,2948.28L1344.62,2948.28c0,0.89-0.72,1.62-1.62,1.62l0,0c-0.89,0-1.62-0.72-1.62-1.62l0,0
			c0-0.89,0.72-1.62,1.62-1.62l0,0C1343.9,2946.66,1344.62,2947.38,1344.62,2948.28z"/>
		<path class="st0" d="M1377.26,2948.28L1377.26,2948.28c0,0.89-0.72,1.62-1.62,1.62l0,0c-0.89,0-1.62-0.72-1.62-1.62l0,0
			c0-0.89,0.72-1.62,1.62-1.62l0,0C1376.54,2946.66,1377.26,2947.38,1377.26,2948.28z"/>
		<path class="st0" d="M1409.9,2948.28L1409.9,2948.28c0,0.89-0.72,1.62-1.62,1.62l0,0c-0.89,0-1.62-0.72-1.62-1.62l0,0
			c0-0.89,0.72-1.62,1.62-1.62l0,0C1409.18,2946.66,1409.9,2947.38,1409.9,2948.28z"/>
		<path class="st0" d="M1442.54,2948.28L1442.54,2948.28c0,0.89-0.72,1.62-1.62,1.62l0,0c-0.89,0-1.62-0.72-1.62-1.62l0,0
			c0-0.89,0.72-1.62,1.62-1.62l0,0C1441.82,2946.66,1442.54,2947.38,1442.54,2948.28z"/>
		<path class="st0" d="M1475.18,2948.28L1475.18,2948.28c0,0.89-0.72,1.62-1.62,1.62l0,0c-0.89,0-1.62-0.72-1.62-1.62l0,0
			c0-0.89,0.72-1.62,1.62-1.62l0,0C1474.46,2946.66,1475.18,2947.38,1475.18,2948.28z"/>
		<path class="st0" d="M1344.62,2981.06L1344.62,2981.06c0,0.89-0.72,1.62-1.62,1.62l0,0c-0.89,0-1.62-0.72-1.62-1.62l0,0
			c0-0.89,0.72-1.62,1.62-1.62l0,0C1343.9,2979.44,1344.62,2980.16,1344.62,2981.06z"/>
		<path class="st0" d="M1377.26,2981.06L1377.26,2981.06c0,0.89-0.72,1.62-1.62,1.62l0,0c-0.89,0-1.62-0.72-1.62-1.62l0,0
			c0-0.89,0.72-1.62,1.62-1.62l0,0C1376.54,2979.44,1377.26,2980.16,1377.26,2981.06z"/>
		<path class="st0" d="M1409.9,2981.06L1409.9,2981.06c0,0.89-0.72,1.62-1.62,1.62l0,0c-0.89,0-1.62-0.72-1.62-1.62l0,0
			c0-0.89,0.72-1.62,1.62-1.62l0,0C1409.18,2979.44,1409.9,2980.16,1409.9,2981.06z"/>
		<path class="st0" d="M1442.54,2981.06L1442.54,2981.06c0,0.89-0.72,1.62-1.62,1.62l0,0c-0.89,0-1.62-0.72-1.62-1.62l0,0
			c0-0.89,0.72-1.62,1.62-1.62l0,0C1441.82,2979.44,1442.54,2980.16,1442.54,2981.06z"/>
		<path class="st0" d="M1475.18,2981.06L1475.18,2981.06c0,0.89-0.72,1.62-1.62,1.62l0,0c-0.89,0-1.62-0.72-1.62-1.62l0,0
			c0-0.89,0.72-1.62,1.62-1.62l0,0C1474.46,2979.44,1475.18,2980.16,1475.18,2981.06z"/>
		<path class="st0" d="M1344.62,3013.84L1344.62,3013.84c0,0.89-0.72,1.62-1.62,1.62l0,0c-0.89,0-1.62-0.72-1.62-1.62l0,0
			c0-0.89,0.72-1.62,1.62-1.62l0,0C1343.9,3012.22,1344.62,3012.94,1344.62,3013.84z"/>
		<path class="st0" d="M1377.26,3013.84L1377.26,3013.84c0,0.89-0.72,1.62-1.62,1.62l0,0c-0.89,0-1.62-0.72-1.62-1.62l0,0
			c0-0.89,0.72-1.62,1.62-1.62l0,0C1376.54,3012.22,1377.26,3012.94,1377.26,3013.84z"/>
		<path class="st0" d="M1409.9,3013.84L1409.9,3013.84c0,0.89-0.72,1.62-1.62,1.62l0,0c-0.89,0-1.62-0.72-1.62-1.62l0,0
			c0-0.89,0.72-1.62,1.62-1.62l0,0C1409.18,3012.22,1409.9,3012.94,1409.9,3013.84z"/>
		<path class="st0" d="M1442.54,3013.84L1442.54,3013.84c0,0.89-0.72,1.62-1.62,1.62l0,0c-0.89,0-1.62-0.72-1.62-1.62l0,0
			c0-0.89,0.72-1.62,1.62-1.62l0,0C1441.82,3012.22,1442.54,3012.94,1442.54,3013.84z"/>
		<path class="st0" d="M1475.18,3013.84L1475.18,3013.84c0,0.89-0.72,1.62-1.62,1.62l0,0c-0.89,0-1.62-0.72-1.62-1.62l0,0
			c0-0.89,0.72-1.62,1.62-1.62l0,0C1474.46,3012.22,1475.18,3012.94,1475.18,3013.84z"/>
		<path class="st0" d="M1344.62,3046.62L1344.62,3046.62c0,0.89-0.72,1.62-1.62,1.62l0,0c-0.89,0-1.62-0.72-1.62-1.62l0,0
			c0-0.89,0.72-1.62,1.62-1.62l0,0C1343.9,3045,1344.62,3045.72,1344.62,3046.62z"/>
		<path class="st0" d="M1377.26,3046.62L1377.26,3046.62c0,0.89-0.72,1.62-1.62,1.62l0,0c-0.89,0-1.62-0.72-1.62-1.62l0,0
			c0-0.89,0.72-1.62,1.62-1.62l0,0C1376.54,3045,1377.26,3045.72,1377.26,3046.62z"/>
		<path class="st0" d="M1409.9,3046.62L1409.9,3046.62c0,0.89-0.72,1.62-1.62,1.62l0,0c-0.89,0-1.62-0.72-1.62-1.62l0,0
			c0-0.89,0.72-1.62,1.62-1.62l0,0C1409.18,3045,1409.9,3045.72,1409.9,3046.62z"/>
		<path class="st0" d="M1442.54,3046.62L1442.54,3046.62c0,0.89-0.72,1.62-1.62,1.62l0,0c-0.89,0-1.62-0.72-1.62-1.62l0,0
			c0-0.89,0.72-1.62,1.62-1.62l0,0C1441.82,3045,1442.54,3045.72,1442.54,3046.62z"/>
		<path class="st0" d="M1475.18,3046.62L1475.18,3046.62c0,0.89-0.72,1.62-1.62,1.62l0,0c-0.89,0-1.62-0.72-1.62-1.62l0,0
			c0-0.89,0.72-1.62,1.62-1.62l0,0C1474.46,3045,1475.18,3045.72,1475.18,3046.62z"/>
		<path class="st0" d="M1344.62,3079.4L1344.62,3079.4c0,0.89-0.72,1.62-1.62,1.62l0,0c-0.89,0-1.62-0.72-1.62-1.62l0,0
			c0-0.89,0.72-1.62,1.62-1.62l0,0C1343.9,3077.78,1344.62,3078.5,1344.62,3079.4z"/>
		<path class="st0" d="M1377.26,3079.4L1377.26,3079.4c0,0.89-0.72,1.62-1.62,1.62l0,0c-0.89,0-1.62-0.72-1.62-1.62l0,0
			c0-0.89,0.72-1.62,1.62-1.62l0,0C1376.54,3077.78,1377.26,3078.5,1377.26,3079.4z"/>
		<path class="st0" d="M1409.9,3079.4L1409.9,3079.4c0,0.89-0.72,1.62-1.62,1.62l0,0c-0.89,0-1.62-0.72-1.62-1.62l0,0
			c0-0.89,0.72-1.62,1.62-1.62l0,0C1409.18,3077.78,1409.9,3078.5,1409.9,3079.4z"/>
		<path class="st0" d="M1442.54,3079.4L1442.54,3079.4c0,0.89-0.72,1.62-1.62,1.62l0,0c-0.89,0-1.62-0.72-1.62-1.62l0,0
			c0-0.89,0.72-1.62,1.62-1.62l0,0C1441.82,3077.78,1442.54,3078.5,1442.54,3079.4z"/>
		<path class="st0" d="M1475.18,3079.4L1475.18,3079.4c0,0.89-0.72,1.62-1.62,1.62l0,0c-0.89,0-1.62-0.72-1.62-1.62l0,0
			c0-0.89,0.72-1.62,1.62-1.62l0,0C1474.46,3077.78,1475.18,3078.5,1475.18,3079.4z"/>
	</g>
	<g>
		<g>
			<path class="st0" d="M590.17,3104.99h34.86c0-20.98-4.11-41.35-12.23-60.53c-3.9-9.22-8.72-18.11-14.34-26.42
				c-5.56-8.23-11.94-15.97-18.98-23c-7.03-7.03-14.77-13.42-23-18.98c-8.31-5.62-17.2-10.44-26.42-14.34
				c-19.18-8.11-39.55-12.23-60.53-12.23v34.86c16.29,0,32.09,3.19,46.95,9.47c14.36,6.07,27.26,14.77,38.35,25.86
				c11.08,11.08,19.78,23.99,25.86,38.35C586.98,3072.91,590.17,3088.7,590.17,3104.99z"/>
		</g>
	</g>
	<g>
		<g>
			<path class="st1" d="M578.18,2770.19l-11.69,11.69c7.03,7.03,15.24,12.48,24.39,16.19c4.4,1.78,8.99,3.15,13.66,4.05
				c4.62,0.89,9.36,1.35,14.07,1.35s9.45-0.45,14.07-1.35c4.67-0.9,9.27-2.27,13.66-4.05c9.15-3.71,17.36-9.16,24.39-16.19
				l-11.69-11.69c-5.46,5.46-11.82,9.69-18.91,12.56c-6.85,2.78-14.09,4.19-21.52,4.19c-7.43,0-14.67-1.41-21.52-4.19
				C590,2779.87,583.64,2775.65,578.18,2770.19z"/>
		</g>
	</g>
	<rect x="698.71" y="2617.72" style="fill:none;" width="542.72" height="233.7"/>
	<text transform="matrix(1 0 0 1 698.7109 2642.4475)"><tspan x="0" y="0" class="st0 st5" style="font-size:32.7076px;">NUESTRAS CERTIFICACIONES</tspan><tspan x="0" y="47.57" style="fill:#0B0B0B; font-family:'TitilliumWeb-SemiBold'; font-size:14px;">Para Ecosan S.A. es estratégico como parte de su gestión asegurar la calidad de nuestros </tspan><tspan x="0" y="64.33" style="fill:#0B0B0B; font-family:'TitilliumWeb-SemiBold'; font-size:14px;">productos y servicios, establecer acciones para la preservación y cuidado del medio ambi</tspan><tspan x="535.89" y="64.33" style="fill:#0B0B0B; font-family:'TitilliumWeb-SemiBold'; font-size:14px;">-</tspan><tspan x="0" y="81.09" style="fill:#0B0B0B; font-family:'TitilliumWeb-SemiBold'; font-size:14px;">ente, como la certificación en el diseño, producción y construcción, además de la seguri</tspan><tspan x="525.91" y="81.09" style="fill:#0B0B0B; font-family:'TitilliumWeb-SemiBold'; font-size:14px;">-</tspan><tspan x="0" y="97.85" style="fill:#0B0B0B; font-family:'TitilliumWeb-SemiBold'; font-size:14px;">dad de nuestros colaboradores. Bajo este objetivo asumimos el compromiso de trabajar </tspan><tspan x="0" y="114.61" style="fill:#0B0B0B; font-family:'TitilliumWeb-SemiBold'; font-size:14px;">en conformidad con los requisitos de nuestros clientes y bajo los requisitos de normas </tspan><tspan x="0" y="131.37" style="fill:#0B0B0B; font-family:'TitilliumWeb-SemiBold'; font-size:14px;">nacionales e internacionales.</tspan></text>
	<g>
		<g>
			<text transform="matrix(1 0 0 1 719.8505 3037.3738)" class="st0 st8" style="font-size:14.7712px;"> POLÍTICA DE CALIDAD Y MEDIOAMBIENTE</text>
			<rect x="698.71" y="3012.5" class="st2" width="393.72" height="39.44"/>
		</g>
		<g>
			<path class="st3" d="M1057.68,3030.03l6.2,6.2l6.47-6.45"/>
		</g>
	</g>
</g>
<rect x="-38.46" y="-23.75" class="st4" width="1086" height="472"/>
<g>
	<g>
		<text transform="matrix(1 0 0 1 567.1478 197.9652)" class="st0 st5 st6">AUTOPISTA PANAMERICANA</text>
	</g>
	<g>
		<text transform="matrix(1 0 0 1 908.1859 206.1068)"><tspan x="0" y="0" class="st0 st5 st7">CAPITAL </tspan><tspan x="0" y="16.37" class="st0 st5 st7">FEDERAL</tspan></text>
	</g>
	<g>
		<text transform="matrix(1 0 0 1 89.5872 186.3588)"><tspan x="0" y="0" class="st0 st5 st7">CAMPANA</tspan><tspan x="0" y="16.37" class="st0 st8 st7">Y </tspan><tspan x="13.42" y="16.37" class="st0 st5 st7">PILAR</tspan></text>
	</g>
	<g>
		<text transform="matrix(1 0 0 1 363.0472 57.4613)"><tspan x="0" y="0" class="st0 st5 st7 st9">PACHECO </tspan><tspan x="82.64" y="0" class="st0 st8 st7 st9">(TIGRE)</tspan></text>
	</g>
	<g>
		<text transform="matrix(1 0 0 1 833.4163 57.4613)" class="st0 st5 st7 st9">SAN FERNANDO</text>
	</g>
	<g>
		<text transform="matrix(1 0 0 1 520.1224 92.5424)"><tspan x="0" y="0" class="st1 st5 st10">SALIDA </tspan><tspan x="0" y="13.04" class="st1 st5 st10">BELGRANO</tspan></text>
	</g>
	<g>
		<text transform="matrix(1 0 0 1 348.5833 197.9662)" class="st1 st5 st10">SALIDA BELGRANO</text>
	</g>
	<g>
		<text transform="matrix(1 0 0 1 324.3783 296.8412)" class="st1 st5 st10">J.J. URQUIZA</text>
	</g>
	<g>
		<text transform="matrix(1 0 0 1 246.9564 245.0619)" class="st0 st5 st10">COLECTORA</text>
	</g>
	<g>
		<text transform="matrix(1 0 0 1 558.0784 245.0619)" class="st0 st8 st10">(A CAPITAL)</text>
	</g>
	<g>
		<text transform="matrix(1 0 0 1 91.8646 355.1351)"><tspan x="0" y="0" class="st0 st5 st10">POLVORINES </tspan><tspan x="0" y="16.37" class="st0 st8 st10">(MALVINAS ARGENTINAS)</tspan></text>
	</g>
	<g>
		<text transform="matrix(1 0 0 1 594.7532 355.1351)" class="st0 st5 st10">DON TORCUATO</text>
	</g>
	<line class="st11" x1="218.64" y1="216.06" x2="242.51" y2="216.06"/>
	<line class="st11" x1="246.95" y1="162.65" x2="271.07" y2="162.65"/>
	<line class="st11" x1="714.62" y1="162.65" x2="746.3" y2="162.65"/>
	<line class="st11" x1="693.64" y1="216.06" x2="709.46" y2="216.06"/>
	<path class="st12" d="M610.49,216.05"/>
	<path class="st11" d="M778.81,162.66c4.06,0-40.67,0-47.59,0c-0.34,0-0.51-0.41-0.28-0.66l19.18-20.5
		c0.18-0.19,0.47-0.16,0.61,0.06C755.27,149.06,771.26,162.66,778.81,162.66z M722.24,155.13l-6.88,7.41
		c-0.07,0.08-0.18,0.12-0.29,0.12h-20.1c-0.47,0-0.55-0.68-0.09-0.77c5.21-1.03,14.76-3.22,26.93-7.4
		C722.2,154.36,722.52,154.83,722.24,155.13z M305.54,162.66h-41.51c-0.34,0-0.52-0.41-0.29-0.66l19.17-20.49
		c0.18-0.19,0.48-0.16,0.61,0.06c3.81,6.43,13.98,17.38,22.14,20.34C306.08,162.06,305.98,162.66,305.54,162.66z M255.05,155.11
		l-6.88,7.43c-0.07,0.08-0.18,0.13-0.29,0.13h-23.75c-0.48,0-0.55-0.7-0.07-0.77c6.65-1.03,18.25-3.22,30.57-7.4
		C255.02,154.36,255.32,154.82,255.05,155.11z M178.23,216.05h47.61c0.33,0,0.51,0.39,0.3,0.65L208.54,237
		c-0.16,0.19-0.45,0.18-0.6-0.03c-6.58-9.25-24.3-17.68-29.88-20.18C177.68,216.62,177.81,216.05,178.23,216.05z M230.86,227.11
		l10.89-10.95c0.07-0.07,0.17-0.12,0.28-0.12h18.57c0.44,0,0.54,0.61,0.14,0.76l-29.46,10.95
		C230.88,227.9,230.57,227.41,230.86,227.11z M645.9,216.05h47.61c0.33,0,0.51,0.39,0.3,0.65L676.21,237
		c-0.16,0.19-0.45,0.18-0.6-0.03c-6.58-9.25-24.3-17.68-29.88-20.18C645.35,216.62,645.48,216.05,645.9,216.05z M698.53,227.11
		l10.89-10.95c0.07-0.07,0.17-0.12,0.28-0.12h18.57c0.44,0,0.54,0.61,0.14,0.76l-29.46,10.95
		C698.55,227.9,698.24,227.41,698.53,227.11z M537.51,216.47c24.06,0,37.51,0.01,38.02,0.02c2.12,0.05,37.38,0.15,38.3,0.25
		c20.44,2.17,24.45,7.62,38.08,14.44c0.01,0,0.01,0.01,0.02,0.01c9.18,5.32,13.94,8.83,16.96,14.14c0.09,0.15,0.06,0.35-0.06,0.47
		l-66.37,69.44l13.58-0.18l66.43-69.08c1.08-1.42,14.36-9.08,21.2-11.77c24.07-9.46,53.12-18.16,82.09-18.16h67.41
		c0.22,0,0.39-0.17,0.39-0.39v-52.6c0-0.22-0.17-0.39-0.39-0.39h-20.29c-33.43,0-63.28-5.35-76.02-28.42
		c-0.07-0.14-0.06-0.31,0.03-0.43l33.41-45.56c0.19-0.26,0.01-0.62-0.31-0.62l-12.23-0.04c-0.12,0-0.24,0.06-0.31,0.16l-32.17,42.72
		c-1.63,2.16-3.74,3.92-6.18,5.09c-43.89,21.14-71.16,24.2-87.81,25.68c-0.61,0.05-18.77,0.1-25.12,0.14c0,0-12.92-0.01-13.77-0.01
		c-14.56,0-38.25-27.66-49.79-37.62c-4.18-3.61-9.4-3.21-7.85-3.21c1.54,0-15.02,0.09-15.02,0.09s-13.91-0.56-13.91,11.31
		c0,11.69,0,55.25,0,55.25v150.98v7.48c0,0,0,0.44,0,3.36s-3.16,2.92-3.16,2.92h-13.96 M390.23,216.5
		c50.72-0.03,92.64-0.04,135.61-0.03 M525.68,161.46c-56.66,0-183.02-0.01-184.14-0.06c-17.7-0.82-40.52-9.09-51.14-28.31
		c-0.08-0.14,1.55-2.49,1.64-2.62l30.77-42.22c0.19-0.26,0.01-0.62-0.31-0.62l-12.23-0.04c-0.12,0-0.24,0.06-0.31,0.15l-39.86,51.1
		c-0.03,0.04-0.07,0.07-0.11,0.1c-17.15,10.06-59.5,20.36-128.74,23.73c0,0,0,0,0,0c-0.03,0-15.07,0-15.07,0H76.58l-0.33,53.48
		h49.58l24.32-0.22c0.03,0,0.05,0,0.08,0.01c10.79,1.73,19.3,7.86,34.07,15.25c0.01,0,0.01,0.01,0.02,0.01
		c8.04,4.63,12.75,8.58,16.91,14.14c0.11,0.15,0.1,0.36-0.02,0.5l-38.08,43.48c-0.22,0.25-0.04,0.65-22.14,25.88l13.62-0.18
		c22.55-25.24,22.66-25.29,22.73-25.37l37.52-43.65c1.07-1.42,14.37-9.08,21.2-11.77c18-7.07,38.8-13.73,60.26-16.63
		c3-0.41,4.55-0.87,15.71-1.02c2.27-0.03,1.78-0.05,4.95-0.05 M209.47,252.27h217.12c0,0,1.73,0,1.73,2.12v56.36v7.48
		c0,0,0,1.84,0,4.76s-3.16,2.92-3.16,2.92h-62.62c-0.81,0-1.58,0.36-2.06,1.01c-0.39,0.52-0.69,1.2-0.69,1.96v59.87
		c0,1.54,1.25,2.79,2.79,2.79h143.32c1.54,0,2.79-1.25,2.79-2.79v-24.54h17.62h7.63c0,0,3.56-0.23,3.56-3.86c0-3.63,0-11.81,0-11.81
		s0-204.79,0-210.25c0-4.99,3.38-4.98,3.38-4.98s10.11,0,12.39,0s4.17,1.52,5.01,2.37c8.5,8.69,22.36,23.51,27.44,25.78l-48.22,0
		 M525.83,187.18v150.98v6.09c0,0,0,1.84,0,4.76s-3.16,2.92-3.16,2.92h-13.96v-23.04c0-1.54-1.25-2.79-3.61-2.96l-60.44,0.08
		c0,0-3.51-0.23-3.51-3.86s0-11.81,0-11.81s0-54.26,0-56.32s2.33-1.73,2.33-1.73h82.34 M513.39,364.19h12.94h7.63
		c0,0,3.56-0.23,3.56-3.86c0-3.63,0-11.81,0-11.81s0-204.79,0-210.25"/>
	<path class="st13" d="M428.32,261.48v49.27v7.48c0,0,0,1.84,0,4.76s-3.16,2.92-3.16,2.92h-9.48"/>
	<line class="st11" x1="646.56" y1="228.6" x2="537.36" y2="228.6"/>
	<polyline class="st11" points="676.27,252.27 853.57,252.27 853.57,228.6 718.75,228.6 	"/>
	<line class="st14" x1="537.67" y1="252.27" x2="662.69" y2="252.27"/>
	<polyline class="st11" points="179.29,228.6 76.25,228.6 76.25,252.27 195.56,252.27 	"/>
	<line class="st11" x1="525.83" y1="228.6" x2="371.18" y2="228.6"/>
	<path class="st1" d="M501.54,329.88H366.97c-1.4,0-2.54,1.14-2.54,2.54v52.59c0,1.4,1.14,2.54,2.54,2.54h134.57
		c1.4,0,2.54-1.14,2.54-2.54v-52.59C504.08,331.02,502.94,329.88,501.54,329.88z"/>
	<g>
		<g>
			<path class="st4" d="M377.83,374.9v-7.37h0.66v7.37H377.83z"/>
			<path class="st4" d="M381.22,374.9h-0.63v-5.3h0.63v0.39c0.59-0.33,1.17-0.5,1.73-0.5c0.71,0,1.18,0.19,1.42,0.56
				c0.24,0.38,0.36,1.06,0.36,2.06v2.79h-0.64v-2.76c0-0.81-0.08-1.36-0.23-1.65c-0.16-0.29-0.49-0.43-1-0.43
				c-0.25,0-0.51,0.04-0.78,0.11c-0.27,0.07-0.48,0.15-0.63,0.23l-0.22,0.11V374.9z"/>
			<path class="st4" d="M387.27,374.9h-0.63v-5.3h0.63v0.39c0.59-0.33,1.17-0.5,1.73-0.5c0.71,0,1.18,0.19,1.42,0.56
				c0.24,0.38,0.36,1.06,0.36,2.06v2.79h-0.64v-2.76c0-0.81-0.08-1.36-0.23-1.65c-0.16-0.29-0.49-0.43-1-0.43
				c-0.25,0-0.51,0.04-0.78,0.11c-0.27,0.07-0.48,0.15-0.63,0.23l-0.22,0.11V374.9z"/>
			<path class="st4" d="M392.47,372.24c0-1,0.17-1.7,0.5-2.12c0.34-0.42,0.91-0.63,1.72-0.63s1.38,0.21,1.72,0.63
				c0.34,0.42,0.5,1.12,0.5,2.12c0,1-0.15,1.71-0.46,2.13c-0.31,0.42-0.89,0.64-1.76,0.64c-0.86,0-1.45-0.21-1.76-0.64
				C392.62,373.95,392.47,373.24,392.47,372.24z M393.13,372.22c0,0.84,0.1,1.42,0.29,1.74c0.19,0.32,0.62,0.48,1.27,0.48
				s1.08-0.16,1.28-0.49c0.2-0.33,0.3-0.9,0.3-1.73c0-0.83-0.11-1.4-0.33-1.71c-0.22-0.31-0.63-0.46-1.24-0.46
				c-0.6,0-1.01,0.15-1.24,0.46C393.24,370.82,393.13,371.39,393.13,372.22z"/>
			<path class="st4" d="M398.07,369.6h0.7l1.33,4.75h0.42l1.38-4.75h0.66l-1.55,5.3h-1.39L398.07,369.6z"/>
			<path class="st4" d="M407.6,371.18v2.84c0.03,0.26,0.26,0.42,0.69,0.47l-0.03,0.51c-0.54,0-0.94-0.14-1.2-0.42
				c-0.66,0.29-1.33,0.43-1.99,0.43c-0.47,0-0.83-0.14-1.08-0.41c-0.25-0.27-0.37-0.66-0.37-1.17c0-0.51,0.13-0.88,0.38-1.12
				c0.25-0.24,0.65-0.39,1.18-0.45l1.8-0.18v-0.5c0-0.4-0.09-0.68-0.26-0.85c-0.17-0.17-0.4-0.26-0.69-0.26
				c-0.45,0-1.04,0.04-1.76,0.13l-0.33,0.03l-0.03-0.51c0.78-0.15,1.46-0.22,2.04-0.22c0.58,0,1.01,0.14,1.27,0.41
				C407.47,370.18,407.6,370.61,407.6,371.18z M404.27,373.4c0,0.71,0.29,1.07,0.88,1.07c0.25,0,0.53-0.03,0.84-0.09
				c0.3-0.06,0.54-0.12,0.72-0.19l0.27-0.1v-1.92l-1.73,0.18c-0.35,0.03-0.6,0.13-0.75,0.3
				C404.34,372.82,404.27,373.07,404.27,373.4z"/>
			<path class="st4" d="M409.63,374.9v-5.3h0.63v0.76c0.26-0.18,0.58-0.36,0.96-0.53c0.38-0.17,0.73-0.28,1.05-0.34v0.64
				c-0.3,0.06-0.62,0.16-0.95,0.29c-0.33,0.13-0.59,0.25-0.77,0.34l-0.28,0.16v3.98H409.63z"/>
			<path class="st4" d="M419.86,374.37l0.32-0.03l0.02,0.52c-0.8,0.1-1.47,0.15-2.03,0.15c-0.76-0.01-1.3-0.23-1.6-0.68
				c-0.3-0.45-0.46-1.13-0.46-2.06c0-1.85,0.73-2.78,2.19-2.78c0.7,0,1.22,0.2,1.57,0.6c0.35,0.4,0.52,1.04,0.52,1.91l-0.02,0.51
				h-3.61c0,0.65,0.11,1.13,0.33,1.45c0.22,0.31,0.6,0.47,1.15,0.47S419.32,374.42,419.86,374.37z M416.76,371.99h2.99
				c0-0.7-0.12-1.2-0.34-1.5c-0.23-0.3-0.6-0.45-1.1-0.45c-0.51,0-0.89,0.15-1.15,0.46C416.89,370.81,416.76,371.31,416.76,371.99z"
				/>
			<path class="st4" d="M422.71,374.9h-0.63v-5.3h0.63v0.39c0.59-0.33,1.17-0.5,1.73-0.5c0.71,0,1.18,0.19,1.42,0.56
				c0.24,0.38,0.36,1.06,0.36,2.06v2.79h-0.64v-2.76c0-0.81-0.08-1.36-0.23-1.65c-0.16-0.29-0.49-0.43-1-0.43
				c-0.25,0-0.51,0.04-0.78,0.11c-0.27,0.07-0.48,0.15-0.63,0.23l-0.22,0.11V374.9z"/>
			<path class="st4" d="M435.39,374.79c-0.73,0.15-1.35,0.22-1.87,0.22c-0.52,0-0.93-0.05-1.25-0.16c-0.31-0.11-0.57-0.26-0.77-0.46
				c-0.2-0.2-0.35-0.46-0.47-0.77c-0.21-0.58-0.32-1.37-0.32-2.37c0-1.6,0.25-2.66,0.76-3.17c0.42-0.43,1.05-0.65,1.91-0.65
				c0.59,0,1.25,0.07,1.99,0.22l-0.03,0.57c-0.74-0.13-1.33-0.2-1.77-0.2c-0.45,0-0.79,0.05-1.03,0.14
				c-0.24,0.1-0.44,0.22-0.59,0.38c-0.15,0.16-0.27,0.38-0.34,0.66c-0.14,0.48-0.21,1.08-0.21,1.8c0,0.72,0.02,1.26,0.07,1.62
				c0.05,0.36,0.14,0.68,0.29,0.97c0.14,0.29,0.35,0.5,0.63,0.63c0.28,0.13,0.66,0.19,1.15,0.19s1.1-0.07,1.82-0.2L435.39,374.79z"
				/>
			<path class="st4" d="M436.69,372.24c0-1,0.17-1.7,0.5-2.12c0.34-0.42,0.91-0.63,1.72-0.63s1.38,0.21,1.72,0.63
				c0.34,0.42,0.5,1.12,0.5,2.12c0,1-0.15,1.71-0.46,2.13c-0.31,0.42-0.89,0.64-1.76,0.64c-0.86,0-1.45-0.21-1.76-0.64
				C436.84,373.95,436.69,373.24,436.69,372.24z M437.34,372.22c0,0.84,0.1,1.42,0.29,1.74c0.19,0.32,0.62,0.48,1.27,0.48
				c0.65,0,1.08-0.16,1.28-0.49c0.2-0.33,0.3-0.9,0.3-1.73c0-0.83-0.11-1.4-0.33-1.71c-0.22-0.31-0.63-0.46-1.24-0.46
				c-0.6,0-1.01,0.15-1.24,0.46C437.46,370.82,437.34,371.39,437.34,372.22z"/>
			<path class="st4" d="M443.52,374.9h-0.63v-5.3h0.63v0.39c0.59-0.33,1.17-0.5,1.73-0.5c0.71,0,1.18,0.19,1.42,0.56
				c0.24,0.38,0.36,1.06,0.36,2.06v2.79h-0.64v-2.76c0-0.81-0.08-1.36-0.23-1.65c-0.16-0.29-0.49-0.43-1-0.43
				c-0.25,0-0.51,0.04-0.78,0.11c-0.27,0.07-0.48,0.15-0.63,0.23l-0.22,0.11V374.9z"/>
			<path class="st4" d="M450.54,370.08c-0.83,0-1.25,0.3-1.25,0.9c0,0.28,0.09,0.47,0.28,0.58c0.18,0.11,0.6,0.22,1.25,0.33
				c0.65,0.11,1.1,0.26,1.37,0.45s0.4,0.56,0.4,1.1c0,0.54-0.17,0.94-0.52,1.19c-0.35,0.25-0.86,0.38-1.53,0.38
				c-0.39,0-0.89-0.05-1.51-0.15l-0.31-0.04l0.04-0.56c0.79,0.12,1.4,0.18,1.82,0.18s0.75-0.07,0.99-0.22
				c0.24-0.15,0.36-0.4,0.36-0.75c0-0.35-0.1-0.59-0.29-0.71c-0.19-0.12-0.61-0.22-1.25-0.32c-0.64-0.1-1.09-0.24-1.35-0.42
				c-0.26-0.18-0.39-0.53-0.39-1.04c0-0.51,0.18-0.88,0.54-1.11c0.36-0.23,0.81-0.35,1.34-0.35c0.42,0,0.95,0.05,1.59,0.14
				l0.29,0.04l-0.02,0.56C451.62,370.13,451.01,370.08,450.54,370.08z"/>
			<path class="st4" d="M456.94,370.16h-1.77v2.62c0,0.69,0.05,1.14,0.15,1.35c0.1,0.21,0.33,0.32,0.7,0.32l0.98-0.07l0.04,0.54
				c-0.47,0.07-0.82,0.11-1.07,0.11c-0.54,0-0.91-0.13-1.12-0.4c-0.21-0.27-0.31-0.77-0.31-1.52v-2.94h-0.79v-0.56h0.79v-1.67h0.64
				v1.67h1.77V370.16z"/>
			<path class="st4" d="M458.33,374.9v-5.3h0.63v0.76c0.26-0.18,0.58-0.36,0.96-0.53c0.38-0.17,0.73-0.28,1.05-0.34v0.64
				c-0.3,0.06-0.62,0.16-0.95,0.29c-0.33,0.13-0.59,0.25-0.77,0.34l-0.28,0.16v3.98H458.33z"/>
			<path class="st4" d="M465.67,369.6h0.63v5.3h-0.63v-0.39c-0.54,0.33-1.09,0.5-1.63,0.5c-0.72,0-1.2-0.18-1.43-0.55
				c-0.23-0.37-0.34-1.06-0.34-2.09v-2.77h0.63v2.76c0,0.82,0.08,1.37,0.23,1.65c0.15,0.28,0.48,0.42,0.99,0.42
				c0.25,0,0.5-0.04,0.76-0.11c0.26-0.07,0.46-0.15,0.59-0.23l0.2-0.11V369.6z"/>
			<path class="st4" d="M470.25,369.49c0.32,0,0.7,0.04,1.14,0.11l0.24,0.03l-0.03,0.54c-0.56-0.07-0.97-0.11-1.24-0.11
				c-0.63,0-1.06,0.15-1.29,0.46c-0.23,0.31-0.35,0.87-0.35,1.7c0,0.82,0.11,1.4,0.32,1.72c0.21,0.33,0.65,0.49,1.33,0.49l1.26-0.1
				l0.02,0.54c-0.63,0.08-1.1,0.13-1.4,0.13c-0.84,0-1.42-0.21-1.72-0.63c-0.31-0.42-0.46-1.14-0.46-2.15c0-1.02,0.17-1.73,0.5-2.13
				C468.9,369.69,469.46,369.49,470.25,369.49z"/>
			<path class="st4" d="M475.16,369.49c0.32,0,0.7,0.04,1.14,0.11l0.24,0.03l-0.03,0.54c-0.56-0.07-0.97-0.11-1.24-0.11
				c-0.63,0-1.06,0.15-1.29,0.46c-0.23,0.31-0.35,0.87-0.35,1.7c0,0.82,0.11,1.4,0.32,1.72c0.21,0.33,0.65,0.49,1.33,0.49l1.26-0.1
				l0.02,0.54c-0.63,0.08-1.1,0.13-1.4,0.13c-0.84,0-1.42-0.21-1.72-0.63c-0.31-0.42-0.46-1.14-0.46-2.15c0-1.02,0.17-1.73,0.5-2.13
				C473.81,369.69,474.37,369.49,475.16,369.49z"/>
			<path class="st4" d="M478.18,368.27v-0.8h0.63v0.8H478.18z M478.18,374.9v-5.3h0.63v5.3H478.18z"/>
			<path class="st4" d="M482.79,369.49c0.81,0,1.38,0.21,1.72,0.63c0.34,0.42,0.5,1.12,0.5,2.12c0,1-0.15,1.71-0.46,2.13
				c-0.31,0.42-0.89,0.64-1.76,0.64c-0.86,0-1.45-0.21-1.76-0.64c-0.31-0.42-0.47-1.14-0.47-2.13c0-1,0.17-1.7,0.5-2.12
				C481.4,369.7,481.98,369.49,482.79,369.49z M482.79,374.45c0.65,0,1.08-0.16,1.28-0.49c0.2-0.33,0.3-0.9,0.3-1.73
				c0-0.83-0.11-1.4-0.33-1.71c-0.22-0.31-0.63-0.46-1.24-0.46c-0.6,0-1.01,0.15-1.24,0.46c-0.22,0.3-0.33,0.88-0.33,1.71
				c0,0.84,0.1,1.42,0.29,1.74C481.71,374.29,482.13,374.45,482.79,374.45z M481.72,368.11l2.2-1.03l0.23,0.55l-2.23,0.92
				L481.72,368.11z"/>
			<path class="st4" d="M487.4,374.9h-0.63v-5.3h0.63v0.39c0.59-0.33,1.17-0.5,1.73-0.5c0.71,0,1.18,0.19,1.42,0.56
				c0.24,0.38,0.36,1.06,0.36,2.06v2.79h-0.64v-2.76c0-0.81-0.08-1.36-0.23-1.65c-0.16-0.29-0.49-0.43-1-0.43
				c-0.25,0-0.51,0.04-0.78,0.11c-0.27,0.07-0.48,0.15-0.63,0.23l-0.22,0.11V374.9z"/>
			<g>
				<g>
					<g>
						<g>
							<path class="st0" d="M390.08,344.46h-12.01c-0.14,0-0.25,0.11-0.25,0.25v16.93c0,0.14,0.11,0.25,0.25,0.25h12.01
								c0.14,0,0.25-0.11,0.25-0.25v-2.79c0-0.14-0.11-0.25-0.25-0.25h-8.74c-0.14,0-0.25-0.11-0.25-0.25v-3.31
								c0-0.14,0.11-0.25,0.25-0.25H389c0.14,0,0.25-0.11,0.25-0.25v-2.77c0-0.14-0.11-0.25-0.25-0.25h-7.66
								c-0.14,0-0.25-0.11-0.25-0.25v-3.31c0-0.14,0.11-0.25,0.25-0.25h8.74c0.14,0,0.25-0.11,0.25-0.25v-2.77
								C390.33,344.57,390.22,344.46,390.08,344.46z M424.17,343.99c-5.26,0-9.48,4.44-9.11,9.78c0.31,4.5,3.96,8.15,8.46,8.46
								c5.34,0.37,9.78-3.85,9.78-9.11C433.31,348.08,429.22,343.99,424.17,343.99z M430.04,353.8c-0.3,2.71-2.48,4.89-5.19,5.19
								c-3.56,0.4-6.58-2.39-6.58-5.87c0-3.26,2.65-5.9,5.9-5.9C427.65,347.22,430.44,350.24,430.04,353.8z M411.27,358.44
								l-1.95-1.55c-0.19-0.15-0.34-0.17-0.46-0.02c-1.19,1.45-3.04,2.32-5.09,2.14c-2.88-0.25-5.18-2.62-5.36-5.5
								c-0.22-3.43,2.51-6.28,5.89-6.28c1.66,0,3.17,0.69,4.24,1.8c0.06,0.06,0.22,0.19,0.4,0.02c0.01-0.01,0.03-0.03,0.03-0.03
								l2.07-1.66c0,0,0.2-0.2-0.01-0.41c-1.86-1.86-4.37-3.1-7.24-2.95c-4.56,0.25-8.28,3.92-8.6,8.47
								c-0.37,5.34,3.85,9.78,9.11,9.78c2.83,0,5.35-1.28,7.03-3.3c0.01-0.01,0.02-0.02,0.03-0.03
								C411.59,358.63,411.27,358.44,411.27,358.44z"/>
						</g>
					</g>
					<path class="st0" d="M490.64,361.88h-2.89c-0.09,0-0.17-0.05-0.22-0.12l-8.33-11.39c-0.14-0.22-0.48-0.13-0.48,0.14v11.12
						c0,0.14-0.12,0.26-0.26,0.26h-2.73c-0.14,0-0.26-0.12-0.26-0.26v-16.9c0-0.14,0.12-0.26,0.26-0.26h3.12
						c0.09,0,0.17,0.05,0.22,0.12l8.1,11.07c0.14,0.22,0.48,0.12,0.48-0.14v-10.79c0-0.14,0.12-0.26,0.26-0.26h2.73
						c0.14,0,0.26,0.12,0.26,0.26v16.9C490.9,361.77,490.78,361.88,490.64,361.88z"/>
					<path class="st0" d="M471.56,361.49l-1-2.4c0,0,0,0,0,0l-4.99-12.02c0,0,0,0,0,0l-1.01-2.42c-0.04-0.11-0.15-0.17-0.26-0.17
						l-3.33,0c-0.11,0-0.22,0.07-0.26,0.17l-0.93,2.22l0,0c-0.62,1.49-1.22,2.92-1.78,4.27l-4.31,10.37
						c-0.08,0.19,0.06,0.39,0.26,0.39l2.92-0.01c0.11,0,0.22-0.07,0.26-0.17l0.63-1.52c0,0,0.01,0,0.01,0l0.81-1.93
						c0.04-0.07,0.11-0.14,0.23-0.14l7.61,0c0.1,0,0.17,0.03,0.23,0.1l1.45,3.49c0.04,0.11,0.15,0.17,0.26,0.17l2.92,0
						C471.5,361.88,471.64,361.67,471.56,361.49z M464.89,354.85h-4.51c-0.17,0-0.29-0.16-0.25-0.32l2.24-5.37
						c0.1-0.23,0.43-0.23,0.52,0l2.25,5.41C465.16,354.72,465.05,354.85,464.89,354.85z"/>
					<path class="st0" d="M449.54,354.57c-0.33-0.58-0.77-1.06-1.29-1.44c-0.52-0.38-1.1-0.69-1.72-0.92
						c-0.61-0.23-1.21-0.43-1.79-0.61c-0.5-0.15-0.97-0.29-1.39-0.44c-0.41-0.14-0.77-0.31-1.06-0.5c-0.28-0.19-0.51-0.42-0.67-0.68
						c-0.16-0.26-0.24-0.58-0.24-0.96c0-0.41,0.09-0.76,0.28-1.04c0.19-0.29,0.43-0.53,0.72-0.71c0.3-0.18,0.63-0.32,0.99-0.41
						c0.98-0.23,1.96-0.16,2.92,0.29c0.52,0.24,0.94,0.54,1.26,0.88c0.08,0.09,0.24,0.2,0.45-0.01c0.16-0.16,1.21-1.28,1.7-1.81
						c0.01-0.01,0.01-0.02,0.02-0.02c0.18-0.17,0.14-0.34-0.02-0.47c-0.01-0.01-0.02-0.02-0.04-0.03c-0.65-0.53-1.4-0.94-2.25-1.22
						c-0.94-0.31-1.88-0.47-2.8-0.47c-0.81,0-1.62,0.1-2.41,0.31c-0.79,0.21-1.51,0.52-2.13,0.94c-0.62,0.42-1.13,0.96-1.52,1.6
						c-0.39,0.65-0.58,1.43-0.58,2.32c0,0.82,0.14,1.52,0.41,2.08c0.27,0.55,0.63,1.03,1.07,1.41c0.44,0.38,0.93,0.69,1.48,0.92
						c0.54,0.23,1.09,0.43,1.63,0.59l1.59,0.51c0.5,0.16,0.94,0.35,1.3,0.57c0.36,0.21,0.65,0.47,0.86,0.76
						c0.21,0.29,0.31,0.65,0.31,1.09c0,0.45-0.09,0.84-0.28,1.14c-0.19,0.31-0.43,0.57-0.73,0.77c-0.3,0.21-0.65,0.35-1.02,0.44
						c-0.38,0.09-0.76,0.13-1.12,0.13c-0.69,0-1.41-0.17-2.13-0.51c-0.63-0.29-1.15-0.68-1.56-1.15c-0.01-0.01-0.02-0.02-0.02-0.03
						c-0.13-0.15-0.29-0.17-0.45-0.04c-0.01,0.01-0.02,0.02-0.02,0.02l-1.9,1.72c0,0,0.19-0.17-0.02,0.01
						c-0.2,0.19-0.08,0.38,0,0.45c0.01,0.01,0.01,0.01,0.02,0.02c0.69,0.72,1.55,1.28,2.58,1.66c1.12,0.42,2.28,0.63,3.45,0.63
						c0.88,0,1.73-0.12,2.53-0.35c0.8-0.23,1.51-0.58,2.1-1.04c0.6-0.46,1.08-1.05,1.44-1.75c0.36-0.7,0.54-1.53,0.54-2.47
						C450.04,355.88,449.87,355.15,449.54,354.57z"/>
				</g>
			</g>
		</g>
	</g>
	<g>
		<g>
			<path class="st15" d="M878.48,223.02l13.72-13.72L877.94,195"/>
		</g>
	</g>
	<g>
		<g>
			<path class="st15" d="M56.87,190.02l-13.72,13.72l14.26,14.3"/>
		</g>
	</g>
	<path class="st11" d="M316.96,216.51l3.94-0.02c2.08,0.04,4.81-0.05,5.66-0.05c6.16,0,13.95,4.95,21.77,11.42
		c0.27,0.22,0.57,0.75-0.59,0.75s-96.28,0-96.28,0"/>
	<path class="st11" d="M385.38,228.6c0,0-11.57,0-13.85,0c-2.28,0-13.14-6.97-18.29-12.26l48.22,0"/>
	<g>
		<polygon class="st16" points="320.43,72.43 300.03,52.02 300.03,27.81 343.64,27.81 343.64,51.32 		"/>
		<g>
			<text transform="matrix(1 0 0 1 304.7191 54.8392)" class="st1 st17 st18">197</text>
		</g>
		<g>
			<text transform="matrix(1 0 0 1 306.848 40.0541)" class="st1 st5 st19 st20">RUTA</text>
		</g>
	</g>
	<g>
		<polygon class="st16" points="792.39,72.43 771.99,52.02 771.99,27.81 815.61,27.81 815.61,51.32 		"/>
		<g>
			<text transform="matrix(1 0 0 1 777.764 54.8392)" class="st1 st17 st18">202</text>
		</g>
		<g>
			<text transform="matrix(1 0 0 1 779.8919 40.0541)" class="st1 st5 st19 st20">RUTA</text>
		</g>
	</g>
	<g>
		<g>
			<g>
				<g>
					<path class="st21" d="M336.83,206.07v3.89l-4.05,0.01"/>
				</g>
				<line class="st21" x1="336.83" y1="209.96" x2="331.22" y2="204.35"/>
			</g>
			<g>
				<g>
					<path class="st21" d="M368.66,235.67v3.89l-4.05,0.01"/>
				</g>
				<line class="st21" x1="368.66" y1="239.56" x2="363.05" y2="233.94"/>
			</g>
			<g>
				<g>
					<path class="st21" d="M286.59,201.38l2.75,2.75l-2.86,2.87"/>
				</g>
				<line class="st21" x1="289.34" y1="204.13" x2="281.4" y2="204.13"/>
			</g>
			<g>
				<g>
					<path class="st21" d="M417.98,237.78l2.75,2.75l-2.86,2.87"/>
				</g>
				<line class="st21" x1="420.73" y1="240.53" x2="412.79" y2="240.53"/>
			</g>
			<g>
				<g>
					<path class="st21" d="M437.07,274.94l-2.75,2.75l-2.87-2.86"/>
				</g>
				<line class="st21" x1="434.31" y1="277.69" x2="434.31" y2="269.75"/>
			</g>
			<g>
				<g>
					<path class="st21" d="M437.07,318.8l-2.75,2.75l-2.87-2.86"/>
				</g>
				<line class="st21" x1="434.31" y1="321.56" x2="434.31" y2="313.62"/>
			</g>
			<g>
				<g>
					<path class="st21" d="M228.78,201.38l2.75,2.75l-2.86,2.87"/>
				</g>
				<line class="st21" x1="231.53" y1="204.13" x2="223.59" y2="204.13"/>
			</g>
			<g>
				<g>
					<g>
						<path class="st21" d="M534.46,173.86l-2.75,2.75l-2.87-2.86"/>
					</g>
					<line class="st21" x1="531.71" y1="176.62" x2="531.71" y2="168.68"/>
				</g>
				<g>
					<g>
						<path class="st21" d="M540.27,130.37l-2.75-2.75l2.86-2.87"/>
					</g>
					<line class="st21" x1="537.51" y1="127.62" x2="545.45" y2="127.62"/>
				</g>
				<g>
					<g>
						<path class="st21" d="M599.52,170.71v-3.89l4.05-0.01"/>
					</g>
					<line class="st21" x1="599.52" y1="166.82" x2="605.14" y2="172.43"/>
				</g>
				<g>
					<g>
						<path class="st21" d="M567.69,141.12v-3.89l4.05-0.01"/>
					</g>
					<line class="st21" x1="567.69" y1="137.22" x2="573.31" y2="142.84"/>
				</g>
				<g>
					<g>
						<path class="st21" d="M649.77,175.4l-2.75-2.75l2.86-2.87"/>
					</g>
					<line class="st21" x1="647.01" y1="172.65" x2="654.95" y2="172.65"/>
				</g>
				<g>
					<g>
						<path class="st21" d="M534.46,223.13l-2.75,2.75l-2.87-2.86"/>
					</g>
					<line class="st21" x1="531.71" y1="225.88" x2="531.71" y2="217.94"/>
				</g>
				<g>
					<g>
						<path class="st21" d="M534.46,272.4l-2.75,2.75l-2.87-2.86"/>
					</g>
					<line class="st21" x1="531.71" y1="275.15" x2="531.71" y2="267.21"/>
				</g>
				<g>
					<g>
						<path class="st21" d="M534.46,321.67l-2.75,2.75l-2.87-2.86"/>
					</g>
					<line class="st21" x1="531.71" y1="324.42" x2="531.71" y2="316.48"/>
				</g>
				<g>
					<g>
						<path class="st21" d="M521.35,360.76L518.6,358l2.86-2.87"/>
					</g>
					<line class="st21" x1="518.6" y1="358" x2="526.54" y2="358"/>
				</g>
			</g>
		</g>
	</g>
</g>
</svg>
