<?xml version="1.0" encoding="utf-8"?>
<!-- Generator: Adobe Illustrator 26.0.2, SVG Export Plug-In . SVG Version: 6.00 Build 0)  -->
<svg version="1.1" id="Capa_1" xmlns="http://www.w3.org/2000/svg" xmlns:xlink="http://www.w3.org/1999/xlink" x="0px" y="0px"
	 width="15px" height="17px" viewBox="0 0 15 17" style="enable-background:new 0 0 15 17;" xml:space="preserve">
<style type="text/css">
	.st0{fill:#00A89C;}
</style>
<g>
	<g>
		<g>
			<g id="Layer_1-2_00000117673891673881006590000012511934653657308298_">
				<g id="headset_mic_00000088821270307162777380000005791864798411054249_">
					<path class="st0" d="M13.4,11.2c-0.4,0-0.6-0.3-0.6-0.6V7.8c0.1-2.9-2.2-5.2-5.1-5.3c-2.8-0.1-5.2,2.2-5.2,5c0,0.1,0,0.2,0,0.2
						v2.9c0,0.4-0.3,0.6-0.6,0.6S1.2,11,1.2,10.6V7.8C1.1,4.2,3.9,1.2,7.5,1.2S14,4,14.1,7.5c0,0.1,0,0.2,0,0.3v2.9
						C14.1,11,13.8,11.2,13.4,11.2z"/>
					<path class="st0" d="M3.6,13.9L3.6,13.9c-1.4,0-2.4-1-2.4-2.3V9.4c0-0.4,0.3-0.6,0.6-0.6h1.8c1,0,1.9,0.8,1.9,1.9v1.4
						C5.5,13.1,4.6,13.9,3.6,13.9L3.6,13.9z M2.5,10.1v1.6c0,0.6,0.5,1,1,1h0.1c0.3,0,0.6-0.3,0.6-0.6v-1.4c0-0.3-0.3-0.6-0.6-0.6
						H2.5z"/>
					<path class="st0" d="M11.8,13.9h-0.1c-1,0-1.9-0.8-1.9-1.9v-1.4c0-1,0.8-1.9,1.9-1.9h1.8c0.4,0,0.6,0.3,0.6,0.6v2.2
						C14.1,12.9,13.1,13.9,11.8,13.9L11.8,13.9z M11.7,10.1c-0.3,0-0.6,0.3-0.6,0.6v1.4c0,0.3,0.3,0.6,0.6,0.6h0.1c0.6,0,1-0.5,1-1
						v-1.6H11.7z"/>
					<path class="st0" d="M11.9,16.3h-0.6c-0.4,0-0.6-0.3-0.6-0.6S11,15,11.3,15h0.6c0.5,0,0.9-0.4,0.9-0.9v-2.6
						c0-0.4,0.3-0.6,0.6-0.6s0.6,0.3,0.6,0.6v2.6C14.1,15.3,13.1,16.3,11.9,16.3z"/>
				</g>
			</g>
		</g>
	</g>
</g>
</svg>
