<?xml version="1.0" encoding="utf-8"?>
<!-- Generator: Adobe Illustrator 26.0.3, SVG Export Plug-In . SVG Version: 6.00 Build 0)  -->
<svg version="1.1" id="Capa_1" xmlns="http://www.w3.org/2000/svg" xmlns:xlink="http://www.w3.org/1999/xlink" x="0px" y="0px"
	 width="515.3px" height="515.3px" viewBox="0 0 515.3 515.3" style="enable-background:new 0 0 515.3 515.3;" xml:space="preserve"
	>
<style type="text/css">
	.st0{fill:#00A69A;}
	.st1{fill:#FFFFFF;}
</style>
<g>
	<g>
		<path class="st0" d="M229.6,453.6l-6,6.5c3.6,3.9,7.8,7,12.6,9.1c2.3,1,4.6,1.8,7.1,2.3c2.4,0.5,4.8,0.8,7.3,0.8
			c2.5,0,4.8-0.3,7.3-0.8c2.4-0.5,4.8-1.3,7.1-2.3c4.7-2.1,9-5.2,12.6-9.1l-6-6.5c-2.8,3.1-6.1,5.5-9.7,7c-3.5,1.6-7.3,2.3-11.1,2.3
			s-7.6-0.8-11.1-2.3C235.6,459.1,232.3,456.6,229.6,453.6z"/>
	</g>
</g>
<g>
	<g>
		<path class="st0" d="M515.3,115.6V0c-69.5,0-137,13.6-200.6,40.5c-30.5,12.9-60,28.9-87.6,47.5c-27.3,18.4-52.9,39.6-76.2,62.9
			s-44.5,49-62.9,76.2c-18.6,27.6-34.6,57-47.5,87.6C13.6,378.3,0,445.8,0,515.3h115.6c0-54,10.6-106.3,31.4-155.6
			c20.1-47.6,49-90.4,85.7-127.1s79.5-65.6,127.1-85.7C409,126.1,461.3,115.6,515.3,115.6z"/>
	</g>
</g>
<path class="st0" d="M153.4,543.4"/>
<rect x="-12.6" y="436.4" class="st1" width="177" height="104"/>
</svg>
