<?xml version="1.0" encoding="utf-8"?>
<!-- Generator: Adobe Illustrator 26.0.2, SVG Export Plug-In . SVG Version: 6.00 Build 0)  -->
<svg version="1.1" id="Capa_1" xmlns="http://www.w3.org/2000/svg" xmlns:xlink="http://www.w3.org/1999/xlink" x="0px" y="0px"
	 width="15px" height="17px" viewBox="0 0 15 17" style="enable-background:new 0 0 15 17;" xml:space="preserve">
<style type="text/css">
	.st0{fill:#00A89C;}
</style>
<g>
	<title>phone</title>
	<g>
		<g id="Layer_1-2_2_">
			<g id="phone_7_">
				<path class="st0" d="M9.4,16.8H4.5c-1.6,0-2.9-1.3-2.9-2.9V3.4c0-1.6,1.3-2.9,2.9-2.9h4.9c1.6,0,2.9,1.3,2.9,2.9v10.4
					C12.3,15.5,11,16.8,9.4,16.8z M4.5,1.9C3.6,1.9,3,2.6,3,3.4v10.4c0,0.8,0.7,1.5,1.5,1.5h4.9c0.8,0,1.5-0.7,1.5-1.5V3.4
					c0-0.8-0.7-1.5-1.5-1.5H4.5z"/>
				<path class="st0" d="M8,4.7H5.8C5.5,4.7,5.2,4.4,5.2,4s0.3-0.7,0.7-0.7H8c0.4,0,0.7,0.3,0.7,0.7S8.4,4.7,8,4.7z"/>
				<path class="st0" d="M7.1,14.3H6.8c-0.4,0-0.7-0.3-0.7-0.7c0-0.4,0.3-0.7,0.7-0.7h0.3c0.4,0,0.7,0.3,0.7,0.7
					C7.8,14,7.5,14.3,7.1,14.3z"/>
			</g>
		</g>
	</g>
</g>
</svg>
