<?xml version="1.0" encoding="utf-8"?>
<!-- Generator: Adobe Illustrator 26.0.2, SVG Export Plug-In . SVG Version: 6.00 Build 0)  -->
<svg version="1.1" id="Capa_1" xmlns="http://www.w3.org/2000/svg" xmlns:xlink="http://www.w3.org/1999/xlink" x="0px" y="0px"
	 width="236px" height="109px" viewBox="0 0 236 109" style="enable-background:new 0 0 236 109;" xml:space="preserve">
<style type="text/css">
	.st0{fill:none;stroke:#EC3E33;stroke-width:1.1807;stroke-linecap:round;stroke-linejoin:round;stroke-miterlimit:10;}
	.st1{fill:#FFFFFF;}
	.st2{fill:none;stroke:#00A69A;stroke-width:1.1807;stroke-linecap:round;stroke-linejoin:round;stroke-miterlimit:10;}
</style>
<g>
	<path class="st0" d="M81.1,40.6c-0.1-0.1-0.1-0.3-0.2-0.4c-5.1-10.6-16-17.9-28.5-17.9c-12.7,0-23.7,7.5-28.7,18.3"/>
	<path class="st0" d="M23.3,66.6c4.9,11.2,16,19,29,19c13,0,24.1-7.8,29-19"/>
	<g>
		<g>
			<path class="st1" d="M11.7,46.7h3v13.6h-3V46.7z"/>
			<path class="st1" d="M24.5,50.1c-0.2-0.3-0.6-0.5-1-0.7c-0.4-0.1-0.8-0.2-1.2-0.2c-0.2,0-0.4,0-0.7,0.1c-0.2,0.1-0.4,0.1-0.7,0.2
				c-0.2,0.1-0.4,0.3-0.5,0.4c-0.1,0.2-0.2,0.4-0.2,0.7c0,0.4,0.2,0.7,0.5,0.9c0.3,0.2,0.7,0.4,1.2,0.6c0.5,0.2,1,0.3,1.5,0.5
				c0.5,0.2,1,0.4,1.5,0.7c0.5,0.3,0.9,0.7,1.2,1.1c0.3,0.5,0.5,1.1,0.5,1.9c0,0.8-0.1,1.4-0.4,2c-0.3,0.6-0.7,1-1.1,1.4
				c-0.5,0.4-1,0.6-1.7,0.8c-0.6,0.2-1.3,0.3-2,0.3c-0.9,0-1.7-0.1-2.5-0.4c-0.8-0.3-1.5-0.7-2.1-1.3l2.1-2.3c0.3,0.4,0.7,0.7,1.2,1
				c0.5,0.2,1,0.3,1.5,0.3c0.2,0,0.5,0,0.7-0.1c0.2-0.1,0.5-0.1,0.7-0.3c0.2-0.1,0.4-0.3,0.5-0.4c0.1-0.2,0.2-0.4,0.2-0.6
				c0-0.4-0.2-0.7-0.5-1c-0.3-0.2-0.7-0.4-1.2-0.6c-0.5-0.2-1-0.3-1.5-0.5c-0.6-0.2-1.1-0.4-1.5-0.7c-0.5-0.3-0.9-0.7-1.2-1.1
				c-0.3-0.5-0.5-1.1-0.5-1.8c0-0.7,0.1-1.4,0.4-1.9c0.3-0.6,0.7-1,1.2-1.4c0.5-0.4,1-0.7,1.7-0.8c0.6-0.2,1.3-0.3,1.9-0.3
				c0.8,0,1.5,0.1,2.2,0.3c0.7,0.2,1.4,0.6,1.9,1.1L24.5,50.1z"/>
			<path class="st1" d="M28.5,53.6c0-1.1,0.2-2.1,0.5-3c0.4-0.9,0.9-1.6,1.5-2.3c0.7-0.6,1.4-1.1,2.3-1.4c0.9-0.3,1.9-0.5,2.9-0.5
				c1.1,0,2,0.2,2.9,0.5c0.9,0.3,1.7,0.8,2.3,1.4c0.7,0.6,1.2,1.4,1.5,2.3c0.4,0.9,0.5,1.9,0.5,3s-0.2,2.1-0.5,3
				c-0.4,0.9-0.9,1.6-1.5,2.3c-0.7,0.6-1.4,1.1-2.3,1.4c-0.9,0.3-1.9,0.5-2.9,0.5c-1.1,0-2-0.2-2.9-0.5c-0.9-0.3-1.7-0.8-2.3-1.4
				c-0.7-0.6-1.2-1.4-1.5-2.3C28.6,55.6,28.5,54.6,28.5,53.6z M31.6,53.6c0,0.6,0.1,1.2,0.3,1.8c0.2,0.5,0.5,1,0.9,1.4
				c0.4,0.4,0.8,0.7,1.3,0.9c0.5,0.2,1.1,0.3,1.7,0.3c0.6,0,1.2-0.1,1.7-0.3c0.5-0.2,1-0.5,1.3-0.9c0.4-0.4,0.7-0.9,0.9-1.4
				c0.2-0.5,0.3-1.1,0.3-1.8c0-0.6-0.1-1.2-0.3-1.8c-0.2-0.5-0.5-1-0.9-1.4c-0.4-0.4-0.8-0.7-1.3-0.9c-0.5-0.2-1.1-0.3-1.7-0.3
				c-0.6,0-1.2,0.1-1.7,0.3c-0.5,0.2-1,0.5-1.3,0.9c-0.4,0.4-0.7,0.9-0.9,1.4C31.7,52.3,31.6,52.9,31.6,53.6z"/>
			<path class="st1" d="M57.3,55.5c-0.2,0-0.3,0.1-0.5,0.1c-0.2,0-0.3,0-0.5,0c-0.6,0-1.2-0.1-1.8-0.3c-0.5-0.2-1-0.5-1.3-0.9
				c-0.4-0.4-0.7-0.9-0.9-1.4c-0.2-0.5-0.3-1.1-0.3-1.7c0-0.7,0.1-1.3,0.4-1.9c0.3-0.6,0.6-1.1,1.1-1.5c0.5-0.4,1-0.7,1.6-1
				c0.6-0.2,1.3-0.3,2-0.3c0.7,0,1.4,0.1,2,0.3c0.6,0.2,1.2,0.5,1.6,1c0.5,0.4,0.8,0.9,1.1,1.5c0.3,0.6,0.4,1.2,0.4,1.9
				c0,0.5,0,0.9-0.1,1.3c-0.1,0.4-0.2,0.8-0.4,1.1c-0.1,0.4-0.3,0.7-0.5,1c-0.2,0.3-0.4,0.7-0.6,1l-3,4.7h-3.5L57.3,55.5z M55,51.3
				c0,0.6,0.2,1.1,0.6,1.5c0.4,0.4,0.9,0.6,1.6,0.6s1.2-0.2,1.6-0.6c0.4-0.4,0.6-0.9,0.6-1.5c0-0.6-0.2-1.1-0.6-1.5
				c-0.4-0.4-0.9-0.6-1.6-0.6s-1.2,0.2-1.6,0.6C55.2,50.2,55,50.7,55,51.3z"/>
			<path class="st1" d="M63.8,53.6c0-0.8,0.1-1.6,0.2-2.5c0.1-0.8,0.4-1.6,0.8-2.3c0.4-0.7,0.9-1.2,1.5-1.7c0.7-0.4,1.5-0.6,2.5-0.6
				c1,0,1.8,0.2,2.5,0.6c0.7,0.4,1.2,1,1.5,1.7c0.4,0.7,0.6,1.4,0.8,2.3c0.1,0.8,0.2,1.7,0.2,2.5c0,0.8-0.1,1.6-0.2,2.5
				s-0.4,1.6-0.8,2.3C72.6,59,72,59.5,71.4,60c-0.7,0.4-1.5,0.6-2.5,0.6c-1,0-1.8-0.2-2.5-0.6c-0.7-0.4-1.2-1-1.5-1.7
				c-0.4-0.7-0.6-1.4-0.8-2.3S63.8,54.4,63.8,53.6z M66.7,53.6c0,0.4,0,0.8,0,1.3c0,0.5,0.1,1,0.3,1.4c0.1,0.5,0.4,0.9,0.6,1.2
				c0.3,0.3,0.7,0.5,1.2,0.5c0.5,0,0.9-0.2,1.2-0.5c0.3-0.3,0.5-0.7,0.7-1.2s0.2-0.9,0.3-1.4c0-0.5,0-0.9,0-1.3s0-0.8,0-1.3
				c0-0.5-0.1-1-0.3-1.4s-0.4-0.9-0.7-1.2c-0.3-0.3-0.7-0.5-1.2-0.5c-0.5,0-0.9,0.2-1.2,0.5c-0.3,0.3-0.5,0.7-0.6,1.2
				c-0.1,0.5-0.2,0.9-0.3,1.4C66.7,52.8,66.7,53.2,66.7,53.6z"/>
			<path class="st1" d="M75.6,53.6c0-0.8,0.1-1.6,0.2-2.5c0.1-0.8,0.4-1.6,0.8-2.3c0.4-0.7,0.9-1.2,1.5-1.7c0.7-0.4,1.5-0.6,2.5-0.6
				c1,0,1.8,0.2,2.5,0.6c0.7,0.4,1.2,1,1.5,1.7c0.4,0.7,0.6,1.4,0.8,2.3c0.1,0.8,0.2,1.7,0.2,2.5c0,0.8-0.1,1.6-0.2,2.5
				c-0.1,0.8-0.4,1.6-0.8,2.3c-0.4,0.7-0.9,1.2-1.5,1.7c-0.7,0.4-1.5,0.6-2.5,0.6c-1,0-1.8-0.2-2.5-0.6c-0.7-0.4-1.2-1-1.5-1.7
				c-0.4-0.7-0.6-1.4-0.8-2.3C75.7,55.2,75.6,54.4,75.6,53.6z M78.5,53.6c0,0.4,0,0.8,0,1.3s0.1,1,0.3,1.4c0.1,0.5,0.4,0.9,0.6,1.2
				c0.3,0.3,0.7,0.5,1.2,0.5c0.5,0,0.9-0.2,1.2-0.5c0.3-0.3,0.5-0.7,0.7-1.2s0.2-0.9,0.3-1.4c0-0.5,0-0.9,0-1.3s0-0.8,0-1.3
				c0-0.5-0.1-1-0.3-1.4s-0.4-0.9-0.7-1.2c-0.3-0.3-0.7-0.5-1.2-0.5c-0.5,0-0.9,0.2-1.2,0.5c-0.3,0.3-0.5,0.7-0.6,1.2
				c-0.1,0.5-0.2,0.9-0.3,1.4C78.5,52.8,78.5,53.2,78.5,53.6z"/>
			<path class="st1" d="M92.3,50l-2.7,2.4l-1.6-1.9l4.4-3.8H95v13.6h-2.8V50z"/>
		</g>
	</g>
	<circle class="st0" cx="52.5" cy="54" r="52.7"/>
	<g>
		<path class="st1" d="M20.3,23.1l3-2.8l0.8,0.9l-2,1.9l0.8,0.8l1.9-1.8l0.8,0.9l-1.9,1.8l0.8,0.9l2.1-2l0.8,0.9l-3.1,2.9L20.3,23.1
			z"/>
		<path class="st1" d="M29.8,17.5c-0.2-0.1-0.4-0.1-0.6,0c-0.2,0-0.4,0.1-0.6,0.3S28.2,18,28,18.2c-0.1,0.2-0.2,0.4-0.2,0.6
			c0,0.2,0,0.5,0,0.7c0.1,0.2,0.2,0.5,0.3,0.7c0.2,0.2,0.3,0.4,0.5,0.6c0.2,0.1,0.4,0.2,0.6,0.3s0.5,0.1,0.7,0
			c0.2,0,0.4-0.1,0.6-0.3c0.2-0.2,0.4-0.3,0.5-0.5c0.1-0.2,0.2-0.4,0.2-0.7l1.4,0.1c0,0.4-0.1,0.8-0.4,1.2s-0.5,0.7-0.9,0.9
			c-0.4,0.3-0.8,0.4-1.2,0.5c-0.4,0.1-0.8,0.1-1.2,0.1c-0.4-0.1-0.8-0.2-1.1-0.5s-0.7-0.6-0.9-1c-0.3-0.4-0.4-0.8-0.5-1.2
			c-0.1-0.4-0.1-0.8,0-1.2c0.1-0.4,0.3-0.8,0.5-1.1c0.2-0.3,0.6-0.7,1-0.9c0.1-0.1,0.3-0.2,0.5-0.3c0.2-0.1,0.3-0.1,0.5-0.2
			c0.2,0,0.4-0.1,0.6-0.1c0.2,0,0.4,0,0.6,0.1L29.8,17.5z"/>
		<path class="st1" d="M33,17.2c-0.2-0.4-0.3-0.9-0.3-1.3c0-0.4,0.1-0.8,0.2-1.2c0.2-0.4,0.4-0.7,0.7-1c0.3-0.3,0.7-0.5,1.1-0.7
			c0.4-0.2,0.9-0.3,1.3-0.3c0.4,0,0.8,0,1.2,0.2s0.7,0.4,1,0.7c0.3,0.3,0.6,0.7,0.7,1.1c0.2,0.4,0.3,0.9,0.3,1.3
			c0,0.4-0.1,0.8-0.2,1.2c-0.2,0.4-0.4,0.7-0.7,1c-0.3,0.3-0.7,0.5-1.1,0.7c-0.4,0.2-0.9,0.3-1.3,0.3c-0.4,0-0.8,0-1.2-0.2
			s-0.7-0.4-1-0.7C33.5,18,33.2,17.6,33,17.2z M34.3,16.6c0.1,0.3,0.3,0.5,0.4,0.7c0.2,0.2,0.4,0.3,0.6,0.4c0.2,0.1,0.5,0.1,0.7,0.1
			c0.3,0,0.5-0.1,0.8-0.2c0.3-0.1,0.5-0.3,0.7-0.4c0.2-0.2,0.3-0.4,0.4-0.6c0.1-0.2,0.1-0.5,0.1-0.7c0-0.3-0.1-0.5-0.2-0.8
			c-0.1-0.3-0.3-0.5-0.4-0.7c-0.2-0.2-0.4-0.3-0.6-0.4c-0.2-0.1-0.5-0.1-0.7-0.1c-0.2,0-0.5,0.1-0.8,0.2c-0.3,0.1-0.5,0.3-0.7,0.4
			c-0.2,0.2-0.3,0.4-0.4,0.6c-0.1,0.2-0.1,0.5-0.1,0.7C34.1,16.1,34.2,16.4,34.3,16.6z"/>
		<path class="st1" d="M43.7,11.8c-0.1-0.1-0.3-0.2-0.5-0.2c-0.2,0-0.4,0-0.5,0c-0.1,0-0.2,0.1-0.3,0.1c-0.1,0-0.2,0.1-0.3,0.2
			C42.1,12,42,12.1,42,12.2c0,0.1,0,0.2,0,0.3c0,0.2,0.1,0.3,0.3,0.4c0.2,0.1,0.3,0.1,0.6,0.1c0.2,0,0.5,0,0.7,0
			c0.2,0,0.5,0.1,0.7,0.1c0.2,0.1,0.4,0.2,0.6,0.4c0.2,0.2,0.3,0.4,0.4,0.8c0.1,0.3,0.1,0.6,0,0.9c-0.1,0.3-0.2,0.5-0.4,0.7
			c-0.2,0.2-0.4,0.4-0.6,0.5c-0.3,0.1-0.5,0.2-0.8,0.3c-0.4,0.1-0.8,0.1-1.1,0.1c-0.4,0-0.7-0.2-1-0.4l0.7-1.2
			c0.2,0.1,0.4,0.2,0.6,0.3s0.4,0,0.7,0c0.1,0,0.2-0.1,0.3-0.1c0.1-0.1,0.2-0.1,0.3-0.2s0.1-0.2,0.2-0.2c0-0.1,0-0.2,0-0.3
			c0-0.2-0.1-0.3-0.3-0.4c-0.2-0.1-0.4-0.1-0.6-0.1c-0.2,0-0.5,0-0.7-0.1c-0.3,0-0.5-0.1-0.7-0.1c-0.2-0.1-0.4-0.2-0.6-0.4
			c-0.2-0.2-0.3-0.4-0.4-0.7c-0.1-0.3-0.1-0.6,0-0.9c0.1-0.3,0.2-0.5,0.4-0.7c0.2-0.2,0.4-0.4,0.6-0.5c0.3-0.1,0.5-0.2,0.8-0.3
			c0.3-0.1,0.7-0.1,1-0.1s0.6,0.1,1,0.3L43.7,11.8z"/>
		<path class="st1" d="M49,9.6l1.1-0.1l3,5.9l-1.5,0.1L51,14.2l-2.3,0.2l-0.4,1.3l-1.5,0.1L49,9.6z M49.6,11.3L49,13.2l1.5-0.1
			L49.6,11.3z"/>
		<path class="st1" d="M55.2,9.5L57,9.7l2,4.5l0,0l0.5-4.2l1.3,0.2l-0.8,6L58.4,16l-2.1-4.6l0,0l-0.5,4.3l-1.3-0.2L55.2,9.5z"/>
		<path class="st1" d="M69.8,14.6c0-0.2-0.1-0.3-0.3-0.4s-0.3-0.2-0.4-0.3c-0.1,0-0.2-0.1-0.3-0.1c-0.1,0-0.2,0-0.3,0
			c-0.1,0-0.2,0-0.3,0.1c-0.1,0.1-0.1,0.1-0.2,0.2c-0.1,0.2-0.1,0.3,0,0.5c0.1,0.1,0.2,0.3,0.4,0.4c0.2,0.1,0.3,0.3,0.5,0.4
			c0.2,0.2,0.4,0.3,0.5,0.5c0.1,0.2,0.2,0.4,0.3,0.7c0,0.2,0,0.5-0.1,0.9c-0.1,0.3-0.3,0.6-0.5,0.7c-0.2,0.2-0.4,0.3-0.7,0.4
			c-0.3,0.1-0.5,0.1-0.8,0.1c-0.3,0-0.6-0.1-0.9-0.2c-0.4-0.1-0.7-0.3-0.9-0.6c-0.3-0.2-0.5-0.5-0.6-0.9l1.3-0.6
			c0.1,0.2,0.2,0.4,0.3,0.6c0.2,0.2,0.3,0.3,0.5,0.4c0.1,0,0.2,0.1,0.3,0.1c0.1,0,0.2,0,0.3,0c0.1,0,0.2,0,0.3-0.1
			c0.1-0.1,0.1-0.1,0.2-0.2c0.1-0.2,0.1-0.3,0-0.5s-0.2-0.3-0.4-0.4c-0.2-0.1-0.3-0.3-0.5-0.5c-0.2-0.2-0.4-0.3-0.5-0.5
			s-0.2-0.4-0.3-0.7c-0.1-0.2,0-0.5,0.1-0.8c0.1-0.3,0.3-0.5,0.5-0.7c0.2-0.2,0.4-0.3,0.7-0.4s0.5-0.1,0.8-0.1
			c0.3,0,0.6,0.1,0.8,0.2c0.3,0.1,0.6,0.3,0.9,0.5c0.3,0.2,0.5,0.5,0.6,0.8L69.8,14.6z"/>
		<path class="st1" d="M70.8,19.3c0.1-0.1,0.1-0.2,0.2-0.2s0.2-0.1,0.3-0.1c0.1,0,0.2,0,0.3,0c0.1,0,0.2,0,0.3,0.1
			c0.1,0.1,0.2,0.1,0.2,0.2c0.1,0.1,0.1,0.2,0.1,0.3c0,0.1,0,0.2,0,0.3c0,0.1,0,0.2-0.1,0.3c-0.1,0.1-0.1,0.2-0.2,0.2
			s-0.2,0.1-0.3,0.1c-0.1,0-0.2,0-0.3,0c-0.1,0-0.2,0-0.3-0.1c-0.1-0.1-0.2-0.1-0.2-0.2c-0.1-0.1-0.1-0.2-0.1-0.3c0-0.1,0-0.2,0-0.3
			C70.7,19.5,70.7,19.4,70.8,19.3z"/>
		<path class="st1" d="M78.7,18l0.9,0.7l-1.5,6.4l-1.2-0.9l0.4-1.3l-1.9-1.4l-1.2,0.7L73,21.3L78.7,18z M78.1,19.7l-1.7,1.1l1.2,0.9
			L78.1,19.7z"/>
		<path class="st1" d="M79.5,25.6c0.1-0.1,0.2-0.1,0.3-0.2c0.1,0,0.2-0.1,0.3-0.1c0.1,0,0.2,0,0.3,0.1c0.1,0,0.2,0.1,0.3,0.2
			c0.1,0.1,0.1,0.2,0.2,0.3c0,0.1,0.1,0.2,0.1,0.3s0,0.2-0.1,0.3c0,0.1-0.1,0.2-0.2,0.3c-0.1,0.1-0.2,0.1-0.3,0.2
			c-0.1,0-0.2,0.1-0.3,0.1c-0.1,0-0.2,0-0.3-0.1c-0.1,0-0.2-0.1-0.3-0.2c-0.1-0.1-0.1-0.2-0.2-0.3c0-0.1-0.1-0.2-0.1-0.3
			c0-0.1,0-0.2,0.1-0.3C79.3,25.7,79.4,25.6,79.5,25.6z"/>
	</g>
	<g>
		<g>
			<path class="st1" d="M14.4,71.3c0.1-0.1,0.1-0.3,0.1-0.4c0-0.2,0-0.3-0.1-0.5c-0.1-0.2-0.2-0.3-0.3-0.4c-0.1-0.1-0.3-0.2-0.4-0.2
				c-0.2-0.1-0.3-0.1-0.5-0.1c-0.2,0-0.4,0.1-0.6,0.1c-0.2,0.1-0.4,0.2-0.5,0.3c-0.1,0.1-0.2,0.3-0.3,0.4c-0.1,0.2-0.1,0.3-0.1,0.5
				c0,0.2,0,0.3,0.1,0.5c0.1,0.2,0.2,0.3,0.3,0.4c0.1,0.1,0.3,0.2,0.5,0.2l-0.2,1c-0.3-0.1-0.6-0.2-0.8-0.4
				c-0.2-0.2-0.4-0.5-0.5-0.7c-0.1-0.3-0.2-0.6-0.2-0.9s0-0.6,0.1-0.9c0.1-0.3,0.3-0.5,0.5-0.8c0.2-0.2,0.5-0.4,0.8-0.6
				c0.3-0.1,0.7-0.2,1-0.2c0.3,0,0.6,0,0.9,0.1c0.3,0.1,0.5,0.3,0.7,0.5c0.2,0.2,0.4,0.5,0.5,0.8c0,0.1,0.1,0.2,0.1,0.4
				c0,0.1,0.1,0.3,0.1,0.4c0,0.1,0,0.3,0,0.4c0,0.1-0.1,0.3-0.2,0.4L14.4,71.3z"/>
			<path class="st1" d="M16.2,72.2l1.5,2.6l-0.8,0.4l-1-1.8l-0.7,0.4l0.9,1.7L15.2,76l-0.9-1.7l-0.8,0.4l1,1.8l-0.8,0.4l-1.5-2.7
				L16.2,72.2z"/>
			<path class="st1" d="M18.2,75.7l1,1.4c0.1,0.2,0.2,0.4,0.3,0.6s0.1,0.4,0.1,0.6c0,0.2,0,0.4-0.1,0.5c-0.1,0.2-0.3,0.3-0.5,0.5
				c-0.3,0.2-0.5,0.3-0.8,0.3c-0.3,0-0.5-0.1-0.8-0.3l-0.9,2l-0.7-0.9l1-1.8L16.5,78l-1.5,1l-0.5-0.8L18.2,75.7z M17.2,77.6l0.3,0.5
				c0,0.1,0.1,0.1,0.2,0.2c0.1,0.1,0.1,0.1,0.2,0.2c0.1,0,0.1,0.1,0.2,0.1c0.1,0,0.2,0,0.3-0.1c0.1-0.1,0.2-0.1,0.2-0.2
				c0-0.1,0-0.2,0-0.2c0-0.1,0-0.2-0.1-0.2c0-0.1-0.1-0.2-0.1-0.2L18,77L17.2,77.6z"/>
			<path class="st1" d="M20.5,80.3l-0.8-1l0.7-0.6l2.2,2.6L21.9,82l-0.8-1l-2.8,2.3l-0.6-0.7L20.5,80.3z"/>
			<path class="st1" d="M23.1,81.9l0.7,0.7l-3.3,3.1l-0.7-0.7L23.1,81.9z"/>
			<path class="st1" d="M24.5,83.4l2.2,2l-0.6,0.7l-1.5-1.3L24,85.4l1.4,1.2l-0.6,0.7l-1.4-1.2l-1.2,1.3l-0.7-0.6L24.5,83.4z"/>
			<path class="st1" d="M27.4,85.9l0.8,0.6l-2.8,3.6l-0.8-0.6L27.4,85.9z"/>
			<path class="st1" d="M30.8,89.8c0-0.2-0.1-0.3-0.1-0.4c-0.1-0.1-0.2-0.2-0.3-0.3c-0.2-0.1-0.3-0.2-0.5-0.2c-0.2,0-0.3,0-0.5,0
				c-0.2,0-0.3,0.1-0.5,0.2c-0.2,0.1-0.3,0.3-0.4,0.4c-0.1,0.2-0.2,0.4-0.2,0.5c0,0.2-0.1,0.4,0,0.5c0,0.2,0.1,0.3,0.2,0.5
				c0.1,0.1,0.2,0.3,0.3,0.4c0.2,0.1,0.3,0.2,0.5,0.2s0.3,0,0.5-0.1l0.3,1c-0.3,0.1-0.6,0.2-0.9,0.1c-0.3,0-0.6-0.2-0.8-0.3
				c-0.3-0.2-0.5-0.4-0.7-0.7s-0.3-0.5-0.4-0.8c-0.1-0.3-0.1-0.6,0-0.9c0.1-0.3,0.2-0.6,0.4-0.9c0.2-0.3,0.4-0.5,0.7-0.7
				c0.3-0.2,0.5-0.3,0.8-0.4c0.3-0.1,0.6-0.1,0.9,0c0.3,0.1,0.6,0.2,0.9,0.4c0.1,0.1,0.2,0.1,0.3,0.2c0.1,0.1,0.2,0.2,0.3,0.3
				c0.1,0.1,0.1,0.2,0.2,0.4c0.1,0.1,0.1,0.3,0.1,0.4L30.8,89.8z"/>
			<path class="st1" d="M34,90.2l0.7,0.4l-0.4,4.9l-1-0.5l0.1-1L32,93.2l-0.8,0.7l-0.9-0.5L34,90.2z M33.8,91.6l-1.1,1l1,0.5
				L33.8,91.6z"/>
			<path class="st1" d="M37,91.7l1.4,0.5c0.3,0.1,0.6,0.3,0.9,0.5c0.3,0.2,0.5,0.4,0.6,0.7c0.2,0.3,0.3,0.5,0.3,0.9
				c0,0.3,0,0.7-0.2,1.1c-0.1,0.3-0.3,0.6-0.5,0.8c-0.2,0.2-0.5,0.4-0.7,0.5c-0.3,0.1-0.6,0.1-0.9,0.1c-0.3,0-0.6-0.1-0.9-0.2
				l-1.5-0.5L37,91.7z M36.6,95.4l0.5,0.2c0.2,0.1,0.4,0.1,0.6,0.1c0.2,0,0.4,0,0.5,0c0.2-0.1,0.3-0.2,0.5-0.3
				c0.1-0.1,0.2-0.3,0.3-0.6c0.1-0.2,0.1-0.4,0.1-0.6c0-0.2-0.1-0.3-0.2-0.5c-0.1-0.1-0.2-0.3-0.4-0.4c-0.2-0.1-0.3-0.2-0.5-0.3
				l-0.5-0.2L36.6,95.4z"/>
			<path class="st1" d="M40.8,95.4c0.1-0.4,0.2-0.7,0.4-0.9c0.2-0.3,0.4-0.5,0.6-0.6c0.3-0.2,0.5-0.3,0.8-0.3c0.3,0,0.6,0,1,0
				c0.3,0.1,0.6,0.2,0.9,0.4c0.3,0.2,0.5,0.4,0.6,0.6c0.2,0.2,0.3,0.5,0.3,0.8c0,0.3,0,0.6,0,1c-0.1,0.4-0.2,0.7-0.4,0.9
				c-0.2,0.3-0.4,0.5-0.6,0.6c-0.3,0.2-0.5,0.3-0.8,0.3c-0.3,0-0.6,0-1,0c-0.3-0.1-0.6-0.2-0.9-0.4c-0.3-0.2-0.5-0.4-0.6-0.6
				c-0.2-0.2-0.3-0.5-0.3-0.8C40.7,96.1,40.7,95.8,40.8,95.4z M41.7,95.6c0,0.2-0.1,0.4,0,0.6s0.1,0.4,0.2,0.5
				c0.1,0.2,0.2,0.3,0.4,0.4c0.1,0.1,0.3,0.2,0.5,0.2c0.2,0,0.4,0.1,0.6,0c0.2,0,0.3-0.1,0.5-0.2s0.3-0.2,0.4-0.4
				c0.1-0.2,0.2-0.3,0.2-0.5c0-0.2,0.1-0.4,0-0.6c0-0.2-0.1-0.4-0.2-0.5c-0.1-0.2-0.2-0.3-0.4-0.4c-0.1-0.1-0.3-0.2-0.5-0.2
				c-0.2,0-0.4-0.1-0.6,0c-0.2,0-0.3,0.1-0.5,0.2s-0.3,0.2-0.4,0.4C41.9,95.3,41.8,95.4,41.7,95.6z"/>
			<path class="st1" d="M48.8,94.6l1,0.1l-0.4,4.5l-1-0.1L48.8,94.6z"/>
			<path class="st1" d="M50.8,94.8l1.3,0l1.9,3.1h0l0-3.1l1,0l0.1,4.5l-1.3,0l-2-3.2h0l0,3.2l-1,0L50.8,94.8z"/>
			<path class="st1" d="M56.9,95.4l-1.2,0.2l-0.1-0.9l3.4-0.4l0.1,0.9l-1.2,0.1l0.4,3.6l-1,0.1L56.9,95.4z"/>
			<path class="st1" d="M59.7,94.1l2.9-0.6l0.2,0.9l-2,0.4l0.2,0.8l1.9-0.4l0.2,0.9l-1.9,0.4l0.2,0.9l2.1-0.5l0.2,0.9l-3,0.7
				L59.7,94.1z"/>
			<path class="st1" d="M63.6,93.2l1.6-0.5c0.2-0.1,0.4-0.1,0.6-0.1s0.4,0,0.6,0c0.2,0.1,0.3,0.1,0.5,0.3c0.1,0.1,0.3,0.3,0.3,0.6
				c0.1,0.3,0.1,0.6,0,0.8c-0.1,0.3-0.3,0.5-0.5,0.6l1.7,1.5l-1.1,0.4l-1.4-1.4l-0.5,0.2l0.6,1.7L65,97.5L63.6,93.2z M65.1,94.7
				l0.5-0.2c0.1,0,0.2-0.1,0.3-0.1c0.1,0,0.2-0.1,0.2-0.1c0.1-0.1,0.1-0.1,0.1-0.2c0-0.1,0-0.2,0-0.3c0-0.1-0.1-0.2-0.2-0.2
				c-0.1-0.1-0.1-0.1-0.2-0.1c-0.1,0-0.2,0-0.3,0c-0.1,0-0.2,0-0.3,0.1l-0.6,0.2L65.1,94.7z"/>
			<path class="st1" d="M67.5,91.8l1.2-0.6l3,2.1l0,0l-1.3-2.8l0.9-0.4l1.9,4.1L72,94.7l-3.1-2.1l0,0l1.4,2.9l-0.9,0.4L67.5,91.8z"
				/>
			<path class="st1" d="M73.4,88.8l0.7-0.4l4,2.8l-0.9,0.6l-0.8-0.6l-1.4,0.9l0.2,1l-0.9,0.6L73.4,88.8z M74.4,89.7l0.3,1.5l0.9-0.6
				L74.4,89.7z"/>
			<path class="st1" d="M79.1,86.1c-0.1,0-0.3,0-0.4,0c-0.1,0-0.3,0.1-0.4,0.2c-0.1,0.1-0.3,0.2-0.3,0.4c-0.1,0.2-0.1,0.3-0.1,0.5
				c0,0.2,0,0.3,0.1,0.5c0.1,0.2,0.2,0.4,0.3,0.5c0.1,0.2,0.3,0.3,0.4,0.4c0.2,0.1,0.3,0.2,0.5,0.2c0.2,0,0.3,0,0.5,0
				c0.2,0,0.3-0.1,0.4-0.2c0.2-0.1,0.3-0.3,0.3-0.4c0.1-0.2,0.1-0.3,0.1-0.5l1,0c0,0.3,0,0.6-0.2,0.9c-0.1,0.3-0.3,0.5-0.6,0.7
				c-0.3,0.2-0.5,0.4-0.8,0.5c-0.3,0.1-0.6,0.1-0.9,0.1c-0.3,0-0.6-0.1-0.9-0.3c-0.3-0.2-0.5-0.4-0.7-0.7c-0.2-0.3-0.4-0.6-0.5-0.9
				c-0.1-0.3-0.1-0.6-0.1-0.9c0-0.3,0.1-0.6,0.3-0.8c0.2-0.3,0.4-0.5,0.6-0.7c0.1-0.1,0.2-0.1,0.3-0.2c0.1-0.1,0.2-0.1,0.4-0.2
				c0.1,0,0.3-0.1,0.4-0.1c0.1,0,0.3,0,0.4,0L79.1,86.1z"/>
			<path class="st1" d="M79.5,84.2l0.7-0.7l3.1,3.3l-0.7,0.7L79.5,84.2z"/>
			<path class="st1" d="M82.5,84.5c-0.3-0.2-0.5-0.5-0.6-0.8c-0.1-0.3-0.2-0.6-0.2-0.9c0-0.3,0-0.6,0.1-0.9c0.1-0.3,0.3-0.6,0.5-0.8
				c0.2-0.3,0.5-0.5,0.8-0.6c0.3-0.1,0.6-0.2,0.9-0.2c0.3,0,0.6,0,0.9,0.1c0.3,0.1,0.6,0.3,0.8,0.5c0.3,0.2,0.5,0.5,0.6,0.8
				c0.1,0.3,0.2,0.6,0.2,0.9s0,0.6-0.1,0.9c-0.1,0.3-0.3,0.6-0.5,0.8c-0.2,0.3-0.5,0.4-0.8,0.6c-0.3,0.1-0.6,0.2-0.9,0.2
				s-0.6,0-0.9-0.1C83.1,84.9,82.8,84.8,82.5,84.5z M83.2,83.8c0.2,0.1,0.3,0.2,0.5,0.3c0.2,0.1,0.3,0.1,0.5,0.1
				c0.2,0,0.3,0,0.5-0.1c0.2-0.1,0.3-0.2,0.5-0.3c0.1-0.2,0.2-0.3,0.3-0.5c0.1-0.2,0.1-0.3,0.1-0.5c0-0.2-0.1-0.3-0.2-0.5
				c-0.1-0.2-0.2-0.3-0.4-0.5c-0.2-0.1-0.3-0.2-0.5-0.3c-0.2-0.1-0.4-0.1-0.5-0.1c-0.2,0-0.3,0-0.5,0.1c-0.2,0.1-0.3,0.2-0.5,0.3
				c-0.1,0.2-0.2,0.3-0.3,0.5c-0.1,0.2-0.1,0.3-0.1,0.5c0,0.2,0.1,0.3,0.2,0.5C82.9,83.5,83.1,83.6,83.2,83.8z"/>
			<path class="st1" d="M84.5,78.9l0.8-1.1l3.6,0.3l0,0l-2.6-1.8l0.6-0.8l3.7,2.6l-0.7,1l-3.7-0.3l0,0l2.6,1.8l-0.6,0.8L84.5,78.9z"
				/>
			<path class="st1" d="M88.1,73.3l0.4-0.7l4.9,0.5l-0.5,1l-1-0.1L91,75.4l0.7,0.8l-0.5,0.9L88.1,73.3z M89.4,73.6l1,1.1l0.5-0.9
				L89.4,73.6z"/>
			<path class="st1" d="M89.6,70.3l0.4-0.9l3.3,1.4l0.7-1.6l0.8,0.4l-1.1,2.5L89.6,70.3z"/>
		</g>
	</g>
</g>
<g>
	<path class="st2" d="M210.2,40.6c-0.1-0.1-0.1-0.3-0.2-0.4c-5.1-10.6-16-17.9-28.5-17.9c-12.7,0-23.7,7.5-28.7,18.3"/>
	<path class="st2" d="M152.4,66.6c4.9,11.2,16,19,29,19c13,0,24.1-7.8,29-19"/>
	<circle class="st2" cx="181.5" cy="54" r="52.7"/>
	<g>
		<path class="st1" d="M149.4,23.1l3-2.8l0.8,0.9l-2,1.9l0.8,0.8l1.9-1.8l0.8,0.9l-1.9,1.8l0.8,0.9l2.1-2l0.8,0.9l-3.1,2.9
			L149.4,23.1z"/>
		<path class="st1" d="M158.9,17.5c-0.2-0.1-0.4-0.1-0.6,0c-0.2,0-0.4,0.1-0.6,0.3s-0.4,0.3-0.5,0.5c-0.1,0.2-0.2,0.4-0.2,0.6
			c0,0.2,0,0.5,0,0.7c0.1,0.2,0.2,0.5,0.3,0.7c0.2,0.2,0.3,0.4,0.5,0.6s0.4,0.2,0.6,0.3s0.5,0.1,0.7,0c0.2,0,0.4-0.1,0.6-0.3
			c0.2-0.2,0.4-0.3,0.5-0.5c0.1-0.2,0.2-0.4,0.2-0.7l1.4,0.1c0,0.4-0.1,0.8-0.4,1.2c-0.2,0.4-0.5,0.7-0.9,0.9
			c-0.4,0.3-0.8,0.4-1.2,0.5c-0.4,0.1-0.8,0.1-1.2,0.1c-0.4-0.1-0.8-0.2-1.1-0.5s-0.7-0.6-0.9-1c-0.3-0.4-0.4-0.8-0.5-1.2
			c-0.1-0.4-0.1-0.8,0-1.2c0.1-0.4,0.3-0.8,0.5-1.1c0.2-0.3,0.6-0.7,1-0.9c0.1-0.1,0.3-0.2,0.5-0.3c0.2-0.1,0.3-0.1,0.5-0.2
			c0.2,0,0.4-0.1,0.6-0.1s0.4,0,0.6,0.1L158.9,17.5z"/>
		<path class="st1" d="M162.1,17.2c-0.2-0.4-0.3-0.9-0.3-1.3c0-0.4,0.1-0.8,0.2-1.2c0.2-0.4,0.4-0.7,0.7-1c0.3-0.3,0.7-0.5,1.1-0.7
			c0.4-0.2,0.9-0.3,1.3-0.3c0.4,0,0.8,0,1.2,0.2s0.7,0.4,1,0.7c0.3,0.3,0.6,0.7,0.7,1.1c0.2,0.4,0.3,0.9,0.3,1.3
			c0,0.4-0.1,0.8-0.2,1.2c-0.2,0.4-0.4,0.7-0.7,1c-0.3,0.3-0.7,0.5-1.1,0.7c-0.4,0.2-0.9,0.3-1.3,0.3c-0.4,0-0.8,0-1.2-0.2
			s-0.7-0.4-1-0.7C162.6,18,162.3,17.6,162.1,17.2z M163.4,16.6c0.1,0.3,0.3,0.5,0.4,0.7c0.2,0.2,0.4,0.3,0.6,0.4
			c0.2,0.1,0.5,0.1,0.7,0.1c0.3,0,0.5-0.1,0.8-0.2c0.3-0.1,0.5-0.3,0.7-0.4c0.2-0.2,0.3-0.4,0.4-0.6c0.1-0.2,0.1-0.5,0.1-0.7
			c0-0.3-0.1-0.5-0.2-0.8c-0.1-0.3-0.3-0.5-0.4-0.7c-0.2-0.2-0.4-0.3-0.6-0.4c-0.2-0.1-0.5-0.1-0.7-0.1c-0.2,0-0.5,0.1-0.8,0.2
			c-0.3,0.1-0.5,0.3-0.7,0.4c-0.2,0.2-0.3,0.4-0.4,0.6c-0.1,0.2-0.1,0.5-0.1,0.7C163.2,16.1,163.3,16.4,163.4,16.6z"/>
		<path class="st1" d="M172.8,11.8c-0.1-0.1-0.3-0.2-0.5-0.2c-0.2,0-0.4,0-0.5,0c-0.1,0-0.2,0.1-0.3,0.1c-0.1,0-0.2,0.1-0.3,0.2
			c-0.1,0.1-0.1,0.1-0.2,0.2c0,0.1,0,0.2,0,0.3c0,0.2,0.1,0.3,0.3,0.4c0.2,0.1,0.3,0.1,0.6,0.1c0.2,0,0.5,0,0.7,0
			c0.2,0,0.5,0.1,0.7,0.1c0.2,0.1,0.4,0.2,0.6,0.4c0.2,0.2,0.3,0.4,0.4,0.8c0.1,0.3,0.1,0.6,0,0.9c-0.1,0.3-0.2,0.5-0.4,0.7
			c-0.2,0.2-0.4,0.4-0.6,0.5c-0.3,0.1-0.5,0.2-0.8,0.3c-0.4,0.1-0.8,0.1-1.1,0.1c-0.4,0-0.7-0.2-1-0.4l0.7-1.2
			c0.2,0.1,0.4,0.2,0.6,0.3s0.4,0,0.7,0c0.1,0,0.2-0.1,0.3-0.1c0.1-0.1,0.2-0.1,0.3-0.2s0.1-0.2,0.2-0.2c0-0.1,0-0.2,0-0.3
			c0-0.2-0.1-0.3-0.3-0.4c-0.2-0.1-0.4-0.1-0.6-0.1c-0.2,0-0.5,0-0.7-0.1c-0.3,0-0.5-0.1-0.7-0.1c-0.2-0.1-0.4-0.2-0.6-0.4
			c-0.2-0.2-0.3-0.4-0.4-0.7c-0.1-0.3-0.1-0.6,0-0.9c0.1-0.3,0.2-0.5,0.4-0.7c0.2-0.2,0.4-0.4,0.6-0.5c0.3-0.1,0.5-0.2,0.8-0.3
			c0.3-0.1,0.7-0.1,1-0.1s0.6,0.1,1,0.3L172.8,11.8z"/>
		<path class="st1" d="M178.1,9.6l1.1-0.1l3,5.9l-1.5,0.1l-0.6-1.2l-2.3,0.2l-0.4,1.3l-1.5,0.1L178.1,9.6z M178.7,11.3l-0.6,1.9
			l1.5-0.1L178.7,11.3z"/>
		<path class="st1" d="M184.3,9.5l1.8,0.2l2,4.5l0,0l0.5-4.2l1.3,0.2l-0.8,6l-1.7-0.2l-2.1-4.6l0,0l-0.5,4.3l-1.3-0.2L184.3,9.5z"/>
		<path class="st1" d="M198.9,14.6c0-0.2-0.1-0.3-0.3-0.4s-0.3-0.2-0.4-0.3c-0.1,0-0.2-0.1-0.3-0.1c-0.1,0-0.2,0-0.3,0
			c-0.1,0-0.2,0-0.3,0.1c-0.1,0.1-0.1,0.1-0.2,0.2c-0.1,0.2-0.1,0.3,0,0.5c0.1,0.1,0.2,0.3,0.4,0.4c0.2,0.1,0.3,0.3,0.5,0.4
			c0.2,0.2,0.4,0.3,0.5,0.5c0.1,0.2,0.2,0.4,0.3,0.7c0,0.2,0,0.5-0.1,0.9c-0.1,0.3-0.3,0.6-0.5,0.7c-0.2,0.2-0.4,0.3-0.7,0.4
			c-0.3,0.1-0.5,0.1-0.8,0.1c-0.3,0-0.6-0.1-0.9-0.2c-0.4-0.1-0.7-0.3-0.9-0.6c-0.3-0.2-0.5-0.5-0.6-0.9l1.3-0.6
			c0.1,0.2,0.2,0.4,0.3,0.6c0.2,0.2,0.3,0.3,0.5,0.4c0.1,0,0.2,0.1,0.3,0.1c0.1,0,0.2,0,0.3,0c0.1,0,0.2,0,0.3-0.1
			c0.1-0.1,0.1-0.1,0.2-0.2c0.1-0.2,0.1-0.3,0-0.5s-0.2-0.3-0.4-0.4c-0.2-0.1-0.3-0.3-0.5-0.5c-0.2-0.2-0.4-0.3-0.5-0.5
			s-0.2-0.4-0.3-0.7c-0.1-0.2,0-0.5,0.1-0.8c0.1-0.3,0.3-0.5,0.5-0.7c0.2-0.2,0.4-0.3,0.7-0.4s0.5-0.1,0.8-0.1
			c0.3,0,0.6,0.1,0.8,0.2c0.3,0.1,0.6,0.3,0.9,0.5c0.3,0.2,0.5,0.5,0.6,0.8L198.9,14.6z"/>
		<path class="st1" d="M199.9,19.3c0.1-0.1,0.1-0.2,0.2-0.2s0.2-0.1,0.3-0.1c0.1,0,0.2,0,0.3,0c0.1,0,0.2,0,0.3,0.1
			c0.1,0.1,0.2,0.1,0.2,0.2c0.1,0.1,0.1,0.2,0.1,0.3c0,0.1,0,0.2,0,0.3c0,0.1,0,0.2-0.1,0.3c-0.1,0.1-0.1,0.2-0.2,0.2
			s-0.2,0.1-0.3,0.1c-0.1,0-0.2,0-0.3,0c-0.1,0-0.2,0-0.3-0.1c-0.1-0.1-0.2-0.1-0.2-0.2c-0.1-0.1-0.1-0.2-0.1-0.3c0-0.1,0-0.2,0-0.3
			C199.8,19.5,199.8,19.4,199.9,19.3z"/>
		<path class="st1" d="M207.8,18l0.9,0.7l-1.5,6.4l-1.2-0.9l0.4-1.3l-1.9-1.4l-1.2,0.7l-1.2-0.9L207.8,18z M207.2,19.7l-1.7,1.1
			l1.2,0.9L207.2,19.7z"/>
		<path class="st1" d="M208.5,25.6c0.1-0.1,0.2-0.1,0.3-0.2c0.1,0,0.2-0.1,0.3-0.1c0.1,0,0.2,0,0.3,0.1c0.1,0,0.2,0.1,0.3,0.2
			c0.1,0.1,0.1,0.2,0.2,0.3c0,0.1,0.1,0.2,0.1,0.3s0,0.2-0.1,0.3c0,0.1-0.1,0.2-0.2,0.3c-0.1,0.1-0.2,0.1-0.3,0.2
			c-0.1,0-0.2,0.1-0.3,0.1c-0.1,0-0.2,0-0.3-0.1c-0.1,0-0.2-0.1-0.3-0.2c-0.1-0.1-0.1-0.2-0.2-0.3c0-0.1-0.1-0.2-0.1-0.3
			c0-0.1,0-0.2,0.1-0.3C208.4,25.7,208.5,25.6,208.5,25.6z"/>
	</g>
	<g>
		<g>
			<path class="st1" d="M143.5,71.3c0.1-0.1,0.1-0.3,0.1-0.4c0-0.2,0-0.3-0.1-0.5c-0.1-0.2-0.2-0.3-0.3-0.4
				c-0.1-0.1-0.3-0.2-0.4-0.2c-0.2-0.1-0.3-0.1-0.5-0.1c-0.2,0-0.4,0.1-0.6,0.1c-0.2,0.1-0.4,0.2-0.5,0.3c-0.1,0.1-0.2,0.3-0.3,0.4
				c-0.1,0.2-0.1,0.3-0.1,0.5c0,0.2,0,0.3,0.1,0.5c0.1,0.2,0.2,0.3,0.3,0.4c0.1,0.1,0.3,0.2,0.5,0.2l-0.2,1
				c-0.3-0.1-0.6-0.2-0.8-0.4c-0.2-0.2-0.4-0.5-0.5-0.7c-0.1-0.3-0.2-0.6-0.2-0.9s0-0.6,0.1-0.9c0.1-0.3,0.3-0.5,0.5-0.8
				c0.2-0.2,0.5-0.4,0.8-0.6c0.3-0.1,0.7-0.2,1-0.2c0.3,0,0.6,0,0.9,0.1c0.3,0.1,0.5,0.3,0.7,0.5c0.2,0.2,0.4,0.5,0.5,0.8
				c0,0.1,0.1,0.2,0.1,0.4c0,0.1,0.1,0.3,0.1,0.4c0,0.1,0,0.3,0,0.4c0,0.1-0.1,0.3-0.2,0.4L143.5,71.3z"/>
			<path class="st1" d="M145.3,72.2l1.5,2.6l-0.8,0.4l-1-1.8l-0.7,0.4l0.9,1.7l-0.8,0.4l-0.9-1.7l-0.8,0.4l1,1.8l-0.8,0.4l-1.5-2.7
				L145.3,72.2z"/>
			<path class="st1" d="M147.3,75.7l1,1.4c0.1,0.2,0.2,0.4,0.3,0.6s0.1,0.4,0.1,0.6c0,0.2,0,0.4-0.1,0.5c-0.1,0.2-0.3,0.3-0.5,0.5
				c-0.3,0.2-0.5,0.3-0.8,0.3c-0.3,0-0.5-0.1-0.8-0.3l-0.9,2l-0.7-0.9l1-1.8l-0.3-0.4l-1.5,1l-0.5-0.8L147.3,75.7z M146.3,77.6
				l0.3,0.5c0,0.1,0.1,0.1,0.2,0.2c0.1,0.1,0.1,0.1,0.2,0.2c0.1,0,0.1,0.1,0.2,0.1c0.1,0,0.2,0,0.3-0.1c0.1-0.1,0.2-0.1,0.2-0.2
				c0-0.1,0-0.2,0-0.2c0-0.1,0-0.2-0.1-0.2c0-0.1-0.1-0.2-0.1-0.2l-0.4-0.5L146.3,77.6z"/>
			<path class="st1" d="M149.6,80.3l-0.8-1l0.7-0.6l2.2,2.6L151,82l-0.8-1l-2.8,2.3l-0.6-0.7L149.6,80.3z"/>
			<path class="st1" d="M152.2,81.9l0.7,0.7l-3.3,3.1l-0.7-0.7L152.2,81.9z"/>
			<path class="st1" d="M153.6,83.4l2.2,2l-0.6,0.7l-1.5-1.3l-0.6,0.7l1.4,1.2l-0.6,0.7l-1.4-1.2l-1.2,1.3l-0.7-0.6L153.6,83.4z"/>
			<path class="st1" d="M156.5,85.9l0.8,0.6l-2.8,3.6l-0.8-0.6L156.5,85.9z"/>
			<path class="st1" d="M159.9,89.8c0-0.2-0.1-0.3-0.1-0.4c-0.1-0.1-0.2-0.2-0.3-0.3c-0.2-0.1-0.3-0.2-0.5-0.2c-0.2,0-0.3,0-0.5,0
				c-0.2,0-0.3,0.1-0.5,0.2c-0.2,0.1-0.3,0.3-0.4,0.4c-0.1,0.2-0.2,0.4-0.2,0.5c0,0.2-0.1,0.4,0,0.5c0,0.2,0.1,0.3,0.2,0.5
				c0.1,0.1,0.2,0.3,0.3,0.4c0.2,0.1,0.3,0.2,0.5,0.2c0.2,0,0.3,0,0.5-0.1l0.3,1c-0.3,0.1-0.6,0.2-0.9,0.1c-0.3,0-0.6-0.2-0.8-0.3
				c-0.3-0.2-0.5-0.4-0.7-0.7c-0.2-0.3-0.3-0.5-0.4-0.8c-0.1-0.3-0.1-0.6,0-0.9c0.1-0.3,0.2-0.6,0.4-0.9c0.2-0.3,0.4-0.5,0.7-0.7
				c0.3-0.2,0.5-0.3,0.8-0.4c0.3-0.1,0.6-0.1,0.9,0c0.3,0.1,0.6,0.2,0.9,0.4c0.1,0.1,0.2,0.1,0.3,0.2c0.1,0.1,0.2,0.2,0.3,0.3
				c0.1,0.1,0.1,0.2,0.2,0.4c0.1,0.1,0.1,0.3,0.1,0.4L159.9,89.8z"/>
			<path class="st1" d="M163.1,90.2l0.7,0.4l-0.4,4.9l-1-0.5l0.1-1l-1.5-0.8l-0.8,0.7l-0.9-0.5L163.1,90.2z M162.9,91.6l-1.1,1
				l1,0.5L162.9,91.6z"/>
			<path class="st1" d="M166.1,91.7l1.4,0.5c0.3,0.1,0.6,0.3,0.9,0.5c0.3,0.2,0.5,0.4,0.6,0.7c0.2,0.3,0.3,0.5,0.3,0.9
				c0,0.3,0,0.7-0.2,1.1c-0.1,0.3-0.3,0.6-0.5,0.8c-0.2,0.2-0.5,0.4-0.7,0.5c-0.3,0.1-0.6,0.1-0.9,0.1c-0.3,0-0.6-0.1-0.9-0.2
				l-1.5-0.5L166.1,91.7z M165.7,95.4l0.5,0.2c0.2,0.1,0.4,0.1,0.6,0.1c0.2,0,0.4,0,0.5,0c0.2-0.1,0.3-0.2,0.5-0.3
				c0.1-0.1,0.2-0.3,0.3-0.6c0.1-0.2,0.1-0.4,0.1-0.6c0-0.2-0.1-0.3-0.2-0.5c-0.1-0.1-0.2-0.3-0.4-0.4c-0.2-0.1-0.3-0.2-0.5-0.3
				l-0.5-0.2L165.7,95.4z"/>
			<path class="st1" d="M169.9,95.4c0.1-0.4,0.2-0.7,0.4-0.9c0.2-0.3,0.4-0.5,0.6-0.6c0.3-0.2,0.5-0.3,0.8-0.3s0.6,0,1,0
				c0.3,0.1,0.6,0.2,0.9,0.4c0.3,0.2,0.5,0.4,0.6,0.6c0.2,0.2,0.3,0.5,0.3,0.8c0,0.3,0,0.6,0,1c-0.1,0.4-0.2,0.7-0.4,0.9
				c-0.2,0.3-0.4,0.5-0.6,0.6c-0.3,0.2-0.5,0.3-0.8,0.3c-0.3,0-0.6,0-1,0c-0.3-0.1-0.6-0.2-0.9-0.4c-0.3-0.2-0.5-0.4-0.6-0.6
				c-0.2-0.2-0.3-0.5-0.3-0.8C169.8,96.1,169.8,95.8,169.9,95.4z M170.8,95.6c0,0.2-0.1,0.4,0,0.6s0.1,0.4,0.2,0.5
				c0.1,0.2,0.2,0.3,0.4,0.4c0.1,0.1,0.3,0.2,0.5,0.2c0.2,0,0.4,0.1,0.6,0c0.2,0,0.3-0.1,0.5-0.2s0.3-0.2,0.4-0.4
				c0.1-0.2,0.2-0.3,0.2-0.5c0-0.2,0.1-0.4,0-0.6c0-0.2-0.1-0.4-0.2-0.5c-0.1-0.2-0.2-0.3-0.4-0.4c-0.1-0.1-0.3-0.2-0.5-0.2
				c-0.2,0-0.4-0.1-0.6,0c-0.2,0-0.3,0.1-0.5,0.2s-0.3,0.2-0.4,0.4C171,95.3,170.9,95.4,170.8,95.6z"/>
			<path class="st1" d="M177.8,94.6l1,0.1l-0.4,4.5l-1-0.1L177.8,94.6z"/>
			<path class="st1" d="M179.9,94.8l1.3,0l1.9,3.1h0l0-3.1l1,0l0.1,4.5l-1.3,0l-2-3.2h0l0,3.2l-1,0L179.9,94.8z"/>
			<path class="st1" d="M186,95.4l-1.2,0.2l-0.1-0.9l3.4-0.4l0.1,0.9l-1.2,0.1l0.4,3.6l-1,0.1L186,95.4z"/>
			<path class="st1" d="M188.8,94.1l2.9-0.6l0.2,0.9l-2,0.4l0.2,0.8l1.9-0.4l0.2,0.9l-1.9,0.4l0.2,0.9l2.1-0.5l0.2,0.9l-3,0.7
				L188.8,94.1z"/>
			<path class="st1" d="M192.7,93.2l1.6-0.5c0.2-0.1,0.4-0.1,0.6-0.1c0.2,0,0.4,0,0.6,0c0.2,0.1,0.3,0.1,0.5,0.3
				c0.1,0.1,0.3,0.3,0.3,0.6c0.1,0.3,0.1,0.6,0,0.8c-0.1,0.3-0.3,0.5-0.5,0.6l1.7,1.5l-1.1,0.4l-1.4-1.4l-0.5,0.2l0.6,1.7l-0.9,0.3
				L192.7,93.2z M194.2,94.7l0.5-0.2c0.1,0,0.2-0.1,0.3-0.1c0.1,0,0.2-0.1,0.2-0.1c0.1-0.1,0.1-0.1,0.1-0.2c0-0.1,0-0.2,0-0.3
				c0-0.1-0.1-0.2-0.2-0.2c-0.1-0.1-0.1-0.1-0.2-0.1c-0.1,0-0.2,0-0.3,0c-0.1,0-0.2,0-0.3,0.1l-0.6,0.2L194.2,94.7z"/>
			<path class="st1" d="M196.6,91.8l1.2-0.6l3,2.1l0,0l-1.3-2.8l0.9-0.4l1.9,4.1l-1.1,0.5l-3.1-2.1l0,0l1.4,2.9l-0.9,0.4L196.6,91.8
				z"/>
			<path class="st1" d="M202.5,88.8l0.7-0.4l4,2.8l-0.9,0.6l-0.8-0.6l-1.4,0.9l0.2,1l-0.9,0.6L202.5,88.8z M203.5,89.7l0.3,1.5
				l0.9-0.6L203.5,89.7z"/>
			<path class="st1" d="M208.2,86.1c-0.1,0-0.3,0-0.4,0c-0.1,0-0.3,0.1-0.4,0.2c-0.1,0.1-0.3,0.2-0.3,0.4c-0.1,0.2-0.1,0.3-0.1,0.5
				c0,0.2,0,0.3,0.1,0.5c0.1,0.2,0.2,0.4,0.3,0.5c0.1,0.2,0.3,0.3,0.4,0.4c0.2,0.1,0.3,0.2,0.5,0.2c0.2,0,0.3,0,0.5,0
				c0.2,0,0.3-0.1,0.4-0.2c0.2-0.1,0.3-0.3,0.3-0.4c0.1-0.2,0.1-0.3,0.1-0.5l1,0c0,0.3,0,0.6-0.2,0.9c-0.1,0.3-0.3,0.5-0.6,0.7
				c-0.3,0.2-0.5,0.4-0.8,0.5c-0.3,0.1-0.6,0.1-0.9,0.1c-0.3,0-0.6-0.1-0.9-0.3c-0.3-0.2-0.5-0.4-0.7-0.7c-0.2-0.3-0.4-0.6-0.5-0.9
				c-0.1-0.3-0.1-0.6-0.1-0.9c0-0.3,0.1-0.6,0.3-0.8c0.2-0.3,0.4-0.5,0.6-0.7c0.1-0.1,0.2-0.1,0.3-0.2c0.1-0.1,0.2-0.1,0.4-0.2
				c0.1,0,0.3-0.1,0.4-0.1c0.1,0,0.3,0,0.4,0L208.2,86.1z"/>
			<path class="st1" d="M208.6,84.2l0.7-0.7l3.1,3.3l-0.7,0.7L208.6,84.2z"/>
			<path class="st1" d="M211.6,84.5c-0.3-0.2-0.5-0.5-0.6-0.8c-0.1-0.3-0.2-0.6-0.2-0.9c0-0.3,0-0.6,0.1-0.9
				c0.1-0.3,0.3-0.6,0.5-0.8c0.2-0.3,0.5-0.5,0.8-0.6c0.3-0.1,0.6-0.2,0.9-0.2c0.3,0,0.6,0,0.9,0.1s0.6,0.3,0.8,0.5
				c0.3,0.2,0.5,0.5,0.6,0.8c0.1,0.3,0.2,0.6,0.2,0.9c0,0.3,0,0.6-0.1,0.9c-0.1,0.3-0.3,0.6-0.5,0.8c-0.2,0.3-0.5,0.4-0.8,0.6
				c-0.3,0.1-0.6,0.2-0.9,0.2s-0.6,0-0.9-0.1C212.2,84.9,211.9,84.8,211.6,84.5z M212.3,83.8c0.2,0.1,0.3,0.2,0.5,0.3
				c0.2,0.1,0.3,0.1,0.5,0.1c0.2,0,0.3,0,0.5-0.1c0.2-0.1,0.3-0.2,0.5-0.3c0.1-0.2,0.2-0.3,0.3-0.5c0.1-0.2,0.1-0.3,0.1-0.5
				c0-0.2-0.1-0.3-0.2-0.5c-0.1-0.2-0.2-0.3-0.4-0.5c-0.2-0.1-0.3-0.2-0.5-0.3c-0.2-0.1-0.4-0.1-0.5-0.1c-0.2,0-0.3,0-0.5,0.1
				c-0.2,0.1-0.3,0.2-0.5,0.3c-0.1,0.2-0.2,0.3-0.3,0.5c-0.1,0.2-0.1,0.3-0.1,0.5c0,0.2,0.1,0.3,0.2,0.5
				C212,83.5,212.2,83.6,212.3,83.8z"/>
			<path class="st1" d="M213.6,78.9l0.8-1.1l3.6,0.3l0,0l-2.6-1.8l0.6-0.8l3.7,2.6l-0.7,1l-3.7-0.3l0,0l2.6,1.8l-0.6,0.8L213.6,78.9
				z"/>
			<path class="st1" d="M217.2,73.3l0.4-0.7l4.9,0.5l-0.5,1l-1-0.1l-0.8,1.5l0.7,0.8l-0.5,0.9L217.2,73.3z M218.5,73.6l1,1.1
				l0.5-0.9L218.5,73.6z"/>
			<path class="st1" d="M218.7,70.3l0.4-0.9l3.3,1.4l0.7-1.6l0.8,0.4l-1.1,2.5L218.7,70.3z"/>
		</g>
	</g>
	<g>
		<g>
			<path class="st1" d="M140.7,47.3h2.8v12.9h-2.8V47.3z"/>
			<path class="st1" d="M152.5,50.4c-0.2-0.3-0.5-0.5-0.9-0.6c-0.4-0.1-0.8-0.2-1.1-0.2c-0.2,0-0.4,0-0.6,0.1
				c-0.2,0-0.4,0.1-0.6,0.2s-0.4,0.2-0.5,0.4c-0.1,0.2-0.2,0.4-0.2,0.6c0,0.4,0.1,0.7,0.4,0.9c0.3,0.2,0.7,0.4,1.1,0.5
				c0.4,0.1,0.9,0.3,1.4,0.4c0.5,0.1,1,0.4,1.4,0.6c0.4,0.3,0.8,0.6,1.1,1.1c0.3,0.4,0.4,1,0.4,1.8c0,0.7-0.1,1.3-0.4,1.9
				c-0.3,0.5-0.6,1-1.1,1.3c-0.5,0.4-1,0.6-1.6,0.8c-0.6,0.2-1.2,0.3-1.9,0.3c-0.8,0-1.6-0.1-2.3-0.4c-0.7-0.3-1.4-0.7-2-1.2l2-2.2
				c0.3,0.4,0.7,0.7,1.1,0.9c0.4,0.2,0.9,0.3,1.4,0.3c0.2,0,0.5,0,0.7-0.1c0.2-0.1,0.4-0.1,0.6-0.2c0.2-0.1,0.3-0.2,0.5-0.4
				c0.1-0.2,0.2-0.4,0.2-0.6c0-0.4-0.1-0.7-0.4-0.9c-0.3-0.2-0.7-0.4-1.1-0.6c-0.4-0.2-0.9-0.3-1.5-0.5c-0.5-0.2-1-0.4-1.5-0.6
				c-0.4-0.3-0.8-0.6-1.1-1.1c-0.3-0.4-0.4-1-0.4-1.7c0-0.7,0.1-1.3,0.4-1.8c0.3-0.5,0.6-1,1.1-1.3c0.5-0.4,1-0.6,1.6-0.8
				c0.6-0.2,1.2-0.3,1.8-0.3c0.7,0,1.4,0.1,2.1,0.3c0.7,0.2,1.3,0.6,1.8,1L152.5,50.4z"/>
			<path class="st1" d="M155.9,53.7c0-1,0.2-2,0.5-2.8c0.3-0.8,0.8-1.5,1.4-2.1c0.6-0.6,1.4-1,2.2-1.4c0.8-0.3,1.8-0.5,2.8-0.5
				c1,0,1.9,0.2,2.8,0.5c0.8,0.3,1.6,0.8,2.2,1.4c0.6,0.6,1.1,1.3,1.4,2.1c0.3,0.8,0.5,1.8,0.5,2.8c0,1-0.2,2-0.5,2.8
				c-0.3,0.8-0.8,1.5-1.4,2.1c-0.6,0.6-1.4,1-2.2,1.4c-0.8,0.3-1.8,0.5-2.8,0.5c-1,0-1.9-0.2-2.8-0.5c-0.8-0.3-1.6-0.8-2.2-1.4
				c-0.6-0.6-1.1-1.3-1.4-2.1C156.1,55.7,155.9,54.7,155.9,53.7z M158.8,53.7c0,0.6,0.1,1.2,0.3,1.7c0.2,0.5,0.5,0.9,0.8,1.3
				c0.4,0.4,0.8,0.7,1.3,0.9c0.5,0.2,1,0.3,1.6,0.3c0.6,0,1.2-0.1,1.6-0.3c0.5-0.2,0.9-0.5,1.3-0.9c0.4-0.4,0.6-0.8,0.8-1.3
				c0.2-0.5,0.3-1.1,0.3-1.7c0-0.6-0.1-1.1-0.3-1.7c-0.2-0.5-0.5-0.9-0.8-1.3c-0.4-0.4-0.8-0.7-1.3-0.9c-0.5-0.2-1-0.3-1.6-0.3
				c-0.6,0-1.2,0.1-1.6,0.3c-0.5,0.2-0.9,0.5-1.3,0.9c-0.4,0.4-0.6,0.8-0.8,1.3C158.9,52.5,158.8,53.1,158.8,53.7z"/>
			<path class="st1" d="M179.6,50.3l-2.6,2.3l-1.5-1.8l4.2-3.5h2.5v12.9h-2.6V50.3z"/>
			<path class="st1" d="M190.4,57.5h-5.6v-2.3l5.3-8h3v8h1.7v2.3H193v2.6h-2.6V57.5z M190.4,50.8L190.4,50.8l-2.9,4.4h2.9V50.8z"/>
			<path class="st1" d="M195.7,53.7c0-0.8,0.1-1.5,0.2-2.3c0.1-0.8,0.4-1.5,0.7-2.1c0.4-0.6,0.8-1.2,1.5-1.6
				c0.6-0.4,1.4-0.6,2.4-0.6c1,0,1.7,0.2,2.4,0.6c0.6,0.4,1.1,0.9,1.5,1.6c0.4,0.6,0.6,1.4,0.7,2.1s0.2,1.6,0.2,2.3
				c0,0.8-0.1,1.5-0.2,2.3s-0.4,1.5-0.7,2.1c-0.4,0.6-0.8,1.2-1.5,1.6c-0.6,0.4-1.4,0.6-2.4,0.6c-1,0-1.7-0.2-2.4-0.6
				c-0.6-0.4-1.1-0.9-1.5-1.6c-0.4-0.6-0.6-1.4-0.7-2.1C195.8,55.2,195.7,54.5,195.7,53.7z M198.4,53.7c0,0.3,0,0.7,0,1.2
				c0,0.5,0.1,0.9,0.2,1.4c0.1,0.4,0.3,0.8,0.6,1.1c0.3,0.3,0.7,0.5,1.2,0.5c0.5,0,0.9-0.2,1.1-0.5c0.3-0.3,0.5-0.7,0.6-1.1
				c0.1-0.4,0.2-0.9,0.2-1.4c0-0.5,0-0.9,0-1.2c0-0.3,0-0.7,0-1.2c0-0.5-0.1-0.9-0.2-1.4c-0.1-0.4-0.3-0.8-0.6-1.1
				c-0.3-0.3-0.7-0.5-1.1-0.5c-0.5,0-0.9,0.2-1.2,0.5c-0.3,0.3-0.5,0.7-0.6,1.1c-0.1,0.4-0.2,0.9-0.2,1.4S198.4,53.4,198.4,53.7z"/>
			<path class="st1" d="M206.5,53.7c0-0.8,0.1-1.5,0.2-2.3c0.1-0.8,0.4-1.5,0.7-2.1c0.4-0.6,0.8-1.2,1.5-1.6
				c0.6-0.4,1.4-0.6,2.4-0.6c1,0,1.7,0.2,2.4,0.6c0.6,0.4,1.1,0.9,1.5,1.6c0.4,0.6,0.6,1.4,0.7,2.1s0.2,1.6,0.2,2.3
				c0,0.8-0.1,1.5-0.2,2.3s-0.4,1.5-0.7,2.1c-0.4,0.6-0.8,1.2-1.5,1.6c-0.6,0.4-1.4,0.6-2.4,0.6c-1,0-1.7-0.2-2.4-0.6
				c-0.6-0.4-1.1-0.9-1.5-1.6c-0.4-0.6-0.6-1.4-0.7-2.1C206.5,55.2,206.5,54.5,206.5,53.7z M209.2,53.7c0,0.3,0,0.7,0,1.2
				c0,0.5,0.1,0.9,0.2,1.4c0.1,0.4,0.3,0.8,0.6,1.1c0.3,0.3,0.7,0.5,1.2,0.5c0.5,0,0.9-0.2,1.1-0.5c0.3-0.3,0.5-0.7,0.6-1.1
				c0.1-0.4,0.2-0.9,0.2-1.4c0-0.5,0-0.9,0-1.2c0-0.3,0-0.7,0-1.2c0-0.5-0.1-0.9-0.2-1.4c-0.1-0.4-0.3-0.8-0.6-1.1
				c-0.3-0.3-0.7-0.5-1.1-0.5c-0.5,0-0.9,0.2-1.2,0.5c-0.3,0.3-0.5,0.7-0.6,1.1c-0.1,0.4-0.2,0.9-0.2,1.4S209.2,53.4,209.2,53.7z"/>
			<path class="st1" d="M221.5,50.3l-2.6,2.3l-1.5-1.8l4.2-3.5h2.5v12.9h-2.6V50.3z"/>
		</g>
	</g>
</g>
</svg>
