<?xml version="1.0" encoding="utf-8"?>
<!-- Generator: Adobe Illustrator 23.1.1, SVG Export Plug-In . SVG Version: 6.00 Build 0)  -->
<svg version="1.1" id="Capa_1" xmlns="http://www.w3.org/2000/svg" xmlns:xlink="http://www.w3.org/1999/xlink" x="0px" y="0px"
	 viewBox="0 0 157 53" style="enable-background:new 0 0 157 53;" xml:space="preserve">
<style type="text/css">
	.st0{fill:#FFFFFF;}
	.st1{fill:#00A79B;}
</style>
<g>
	<g>
		<g>
			<g>
				<path class="st0" d="M23.8,6.7h-15C8.6,6.7,8.5,6.9,8.5,7v21.2c0,0.2,0.1,0.3,0.3,0.3h15c0.2,0,0.3-0.1,0.3-0.3v-3.5
					c0-0.2-0.1-0.3-0.3-0.3H12.9c-0.2,0-0.3-0.1-0.3-0.3v-4.1c0-0.2,0.1-0.3,0.3-0.3h9.6c0.2,0,0.3-0.1,0.3-0.3v-3.5
					c0-0.2-0.1-0.3-0.3-0.3h-9.6c-0.2,0-0.3-0.1-0.3-0.3v-4.1c0-0.2,0.1-0.3,0.3-0.3h10.9c0.2,0,0.3-0.1,0.3-0.3V7
					C24.1,6.9,24,6.7,23.8,6.7z M66.4,6.1c-6.6,0-11.9,5.6-11.4,12.2c0.4,5.6,5,10.2,10.6,10.6c6.7,0.5,12.2-4.8,12.2-11.4
					C77.8,11.2,72.7,6.1,66.4,6.1z M73.7,18.4c-0.4,3.4-3.1,6.1-6.5,6.5c-4.4,0.5-8.2-3-8.2-7.3c0-4.1,3.3-7.4,7.4-7.4
					C70.8,10.2,74.2,13.9,73.7,18.4z M50.3,24.2l-2.4-1.9c-0.2-0.2-0.4-0.2-0.6,0c-1.5,1.8-3.8,2.9-6.4,2.7
					c-3.6-0.3-6.5-3.3-6.7-6.9c-0.3-4.3,3.1-7.9,7.4-7.9c2.1,0,4,0.9,5.3,2.3c0.1,0.1,0.3,0.2,0.5,0c0,0,0,0,0,0l2.6-2.1
					c0,0,0.3-0.2,0-0.5c-2.3-2.3-5.5-3.9-9.1-3.7C35.2,6.5,30.6,11,30.2,16.7C29.7,23.4,35,29,41.6,29c3.5,0,6.7-1.6,8.8-4.1
					c0,0,0,0,0,0C50.7,24.4,50.3,24.2,50.3,24.2z"/>
			</g>
		</g>
		<path class="st0" d="M149.5,28.5h-3.6c-0.1,0-0.2-0.1-0.3-0.2l-10.4-14.2c-0.2-0.3-0.6-0.2-0.6,0.2v13.9c0,0.2-0.1,0.3-0.3,0.3
			h-3.4c-0.2,0-0.3-0.1-0.3-0.3V7c0-0.2,0.1-0.3,0.3-0.3h3.9c0.1,0,0.2,0.1,0.3,0.2l10.1,13.8c0.2,0.3,0.6,0.2,0.6-0.2V7
			c0-0.2,0.1-0.3,0.3-0.3h3.4c0.2,0,0.3,0.1,0.3,0.3v21.1C149.8,28.3,149.7,28.5,149.5,28.5z"/>
		<path class="st0" d="M125.6,28l-1.2-3c0,0,0,0,0,0l-6.2-15c0,0,0,0,0,0l-1.3-3c-0.1-0.1-0.2-0.2-0.3-0.2l-4.2,0
			c-0.1,0-0.3,0.1-0.3,0.2l-1.2,2.8l0,0c-0.8,1.9-1.5,3.7-2.2,5.3l-5.4,13c-0.1,0.2,0.1,0.5,0.3,0.5l3.7,0c0.1,0,0.3-0.1,0.3-0.2
			l0.8-1.9c0,0,0,0,0,0l1-2.4c0.1-0.1,0.1-0.2,0.3-0.2l9.5,0c0.1,0,0.2,0,0.3,0.1l1.8,4.4c0.1,0.1,0.2,0.2,0.3,0.2l3.7,0
			C125.6,28.5,125.7,28.2,125.6,28z M117.3,19.7h-5.6c-0.2,0-0.4-0.2-0.3-0.4l2.8-6.7c0.1-0.3,0.5-0.3,0.7,0l2.8,6.8
			C117.6,19.5,117.5,19.7,117.3,19.7z"/>
		<path class="st0" d="M98.1,19.3c-0.4-0.7-1-1.3-1.6-1.8c-0.6-0.5-1.4-0.9-2.1-1.1c-0.8-0.3-1.5-0.5-2.2-0.8
			c-0.6-0.2-1.2-0.4-1.7-0.5c-0.5-0.2-1-0.4-1.3-0.6c-0.4-0.2-0.6-0.5-0.8-0.9c-0.2-0.3-0.3-0.7-0.3-1.2c0-0.5,0.1-0.9,0.3-1.3
			c0.2-0.4,0.5-0.7,0.9-0.9c0.4-0.2,0.8-0.4,1.2-0.5c1.2-0.3,2.4-0.2,3.6,0.4c0.6,0.3,1.2,0.7,1.6,1.1c0.1,0.1,0.3,0.2,0.6,0
			c0.2-0.2,1.5-1.6,2.1-2.3c0,0,0,0,0,0c0.2-0.2,0.2-0.4,0-0.6c0,0,0,0,0,0c-0.8-0.7-1.8-1.2-2.8-1.5c-1.2-0.4-2.4-0.6-3.5-0.6
			c-1,0-2,0.1-3,0.4c-1,0.3-1.9,0.7-2.7,1.2c-0.8,0.5-1.4,1.2-1.9,2c-0.5,0.8-0.7,1.8-0.7,2.9c0,1,0.2,1.9,0.5,2.6
			c0.3,0.7,0.8,1.3,1.3,1.8c0.5,0.5,1.2,0.9,1.8,1.1c0.7,0.3,1.4,0.5,2,0.7l2,0.6c0.6,0.2,1.2,0.4,1.6,0.7c0.4,0.3,0.8,0.6,1.1,0.9
			c0.3,0.4,0.4,0.8,0.4,1.4c0,0.6-0.1,1-0.3,1.4c-0.2,0.4-0.5,0.7-0.9,1c-0.4,0.3-0.8,0.4-1.3,0.5c-0.5,0.1-0.9,0.2-1.4,0.2
			c-0.9,0-1.8-0.2-2.7-0.6c-0.8-0.4-1.4-0.8-1.9-1.4c0,0,0,0,0,0c-0.2-0.2-0.4-0.2-0.6,0c0,0,0,0,0,0l-2.4,2.1c0,0,0.2-0.2,0,0
			c-0.3,0.2-0.1,0.5,0,0.6c0,0,0,0,0,0c0.9,0.9,1.9,1.6,3.2,2.1c1.4,0.5,2.8,0.8,4.3,0.8c1.1,0,2.2-0.1,3.2-0.4
			c1-0.3,1.9-0.7,2.6-1.3c0.7-0.6,1.4-1.3,1.8-2.2c0.4-0.9,0.7-1.9,0.7-3.1C98.7,21,98.5,20.1,98.1,19.3z"/>
	</g>
	<g>
		<path class="st1" d="M14.4,44.4c-1,0.2-1.8,0.3-2.5,0.3c-0.7,0-1.3-0.1-1.7-0.2c-0.4-0.1-0.8-0.4-1-0.6c-0.3-0.3-0.5-0.6-0.6-1
			C8.2,42,8.1,41,8.1,39.6c0-2.1,0.3-3.6,1-4.3c0.6-0.6,1.4-0.9,2.6-0.9c0.8,0,1.7,0.1,2.7,0.3l0,0.8c-1-0.2-1.8-0.3-2.4-0.3
			c-0.6,0-1.1,0.1-1.4,0.2c-0.3,0.1-0.6,0.3-0.8,0.5c-0.2,0.2-0.4,0.5-0.5,0.9C9.1,37.5,9,38.3,9,39.3c0,1,0,1.7,0.1,2.2
			c0.1,0.5,0.2,0.9,0.4,1.3c0.2,0.4,0.5,0.7,0.8,0.8c0.4,0.2,0.9,0.3,1.5,0.3s1.5-0.1,2.5-0.3L14.4,44.4z"/>
		<path class="st1" d="M16.2,41c0-1.3,0.2-2.3,0.7-2.9c0.5-0.6,1.2-0.8,2.3-0.8c1.1,0,1.9,0.3,2.3,0.8c0.5,0.6,0.7,1.5,0.7,2.9
			s-0.2,2.3-0.6,2.9c-0.4,0.6-1.2,0.9-2.4,0.9c-1.2,0-1.9-0.3-2.4-0.9C16.5,43.3,16.2,42.3,16.2,41z M17.1,40.9
			c0,1.1,0.1,1.9,0.4,2.3c0.3,0.4,0.8,0.6,1.7,0.6c0.9,0,1.5-0.2,1.7-0.7c0.3-0.4,0.4-1.2,0.4-2.3c0-1.1-0.1-1.9-0.4-2.3
			C20.6,38.2,20,38,19.2,38s-1.4,0.2-1.7,0.6C17.3,39.1,17.1,39.8,17.1,40.9z"/>
		<path class="st1" d="M25.6,44.5h-0.8v-7.1h0.8v0.5c0.8-0.4,1.6-0.7,2.3-0.7c0.9,0,1.6,0.3,1.9,0.8c0.3,0.5,0.5,1.4,0.5,2.8v3.7
			h-0.9v-3.7c0-1.1-0.1-1.8-0.3-2.2c-0.2-0.4-0.7-0.6-1.3-0.6c-0.3,0-0.7,0.1-1,0.1c-0.4,0.1-0.6,0.2-0.8,0.3l-0.3,0.1V44.5z"/>
		<path class="st1" d="M35.1,38.1c-1.1,0-1.7,0.4-1.7,1.2c0,0.4,0.1,0.6,0.4,0.8c0.2,0.2,0.8,0.3,1.7,0.4c0.9,0.1,1.5,0.3,1.8,0.6
			c0.4,0.3,0.5,0.7,0.5,1.5c0,0.7-0.2,1.3-0.7,1.6c-0.5,0.3-1.1,0.5-2.1,0.5c-0.5,0-1.2-0.1-2-0.2l-0.4-0.1l0.1-0.8
			c1.1,0.2,1.9,0.2,2.5,0.2c0.6,0,1-0.1,1.3-0.3c0.3-0.2,0.5-0.5,0.5-1c0-0.5-0.1-0.8-0.4-0.9c-0.3-0.2-0.8-0.3-1.7-0.4
			c-0.9-0.1-1.5-0.3-1.8-0.6c-0.4-0.2-0.5-0.7-0.5-1.4c0-0.7,0.2-1.2,0.7-1.5c0.5-0.3,1.1-0.5,1.8-0.5c0.6,0,1.3,0.1,2.1,0.2
			l0.4,0.1l0,0.8C36.6,38.1,35.8,38.1,35.1,38.1z"/>
		<path class="st1" d="M43.9,38.2h-2.4v3.5c0,0.9,0.1,1.5,0.2,1.8c0.1,0.3,0.4,0.4,0.9,0.4l1.3-0.1l0.1,0.7
			c-0.6,0.1-1.1,0.1-1.4,0.1c-0.7,0-1.2-0.2-1.5-0.5c-0.3-0.4-0.4-1-0.4-2v-3.9h-1.1v-0.8h1.1v-2.2h0.9v2.2h2.4V38.2z"/>
		<path class="st1" d="M45.9,44.5v-7.1h0.8v1c0.4-0.2,0.8-0.5,1.3-0.7c0.5-0.2,1-0.4,1.4-0.5v0.9c-0.4,0.1-0.8,0.2-1.3,0.4
			c-0.4,0.2-0.8,0.3-1,0.5l-0.4,0.2v5.3H45.9z"/>
		<path class="st1" d="M55.9,37.4h0.8v7.1h-0.8V44c-0.7,0.4-1.5,0.7-2.2,0.7c-1,0-1.6-0.2-1.9-0.7c-0.3-0.5-0.5-1.4-0.5-2.8v-3.7
			h0.8v3.7c0,1.1,0.1,1.8,0.3,2.2c0.2,0.4,0.6,0.6,1.3,0.6c0.3,0,0.7-0.1,1-0.1c0.4-0.1,0.6-0.2,0.8-0.3l0.3-0.1V37.4z"/>
		<path class="st1" d="M62.2,37.3c0.4,0,0.9,0,1.5,0.1l0.3,0l0,0.7c-0.8-0.1-1.3-0.1-1.7-0.1c-0.8,0-1.4,0.2-1.7,0.6
			c-0.3,0.4-0.5,1.2-0.5,2.3c0,1.1,0.1,1.9,0.4,2.3c0.3,0.4,0.9,0.7,1.8,0.7l1.7-0.1l0,0.7c-0.8,0.1-1.5,0.2-1.9,0.2
			c-1.1,0-1.9-0.3-2.3-0.8c-0.4-0.6-0.6-1.5-0.6-2.9s0.2-2.3,0.7-2.9C60.4,37.5,61.1,37.3,62.2,37.3z"/>
		<path class="st1" d="M68.9,37.3c0.4,0,0.9,0,1.5,0.1l0.3,0l0,0.7C70,38.1,69.4,38,69.1,38c-0.8,0-1.4,0.2-1.7,0.6
			c-0.3,0.4-0.5,1.2-0.5,2.3c0,1.1,0.1,1.9,0.4,2.3c0.3,0.4,0.9,0.7,1.8,0.7l1.7-0.1l0,0.7c-0.8,0.1-1.5,0.2-1.9,0.2
			c-1.1,0-1.9-0.3-2.3-0.8C66.2,43.3,66,42.3,66,41s0.2-2.3,0.7-2.9C67.1,37.5,67.9,37.3,68.9,37.3z"/>
		<path class="st1" d="M73.1,35.6v-1.1H74v1.1H73.1z M73.1,44.5v-7.1H74v7.1H73.1z"/>
		<path class="st1" d="M79.5,37.3c1.1,0,1.9,0.3,2.3,0.8c0.5,0.6,0.7,1.5,0.7,2.9s-0.2,2.3-0.6,2.9c-0.4,0.6-1.2,0.9-2.4,0.9
			s-1.9-0.3-2.4-0.9c-0.4-0.6-0.6-1.5-0.6-2.9s0.2-2.3,0.7-2.9C77.6,37.6,78.4,37.3,79.5,37.3z M79.5,43.9c0.9,0,1.5-0.2,1.7-0.7
			c0.3-0.4,0.4-1.2,0.4-2.3c0-1.1-0.1-1.9-0.4-2.3c-0.3-0.4-0.9-0.6-1.7-0.6c-0.8,0-1.4,0.2-1.7,0.6s-0.4,1.2-0.4,2.3
			c0,1.1,0.1,1.9,0.4,2.3C78,43.7,78.6,43.9,79.5,43.9z M78,35.4l3-1.4l0.3,0.7l-3,1.2L78,35.4z"/>
		<path class="st1" d="M85.8,44.5H85v-7.1h0.8v0.5c0.8-0.4,1.6-0.7,2.3-0.7c1,0,1.6,0.3,1.9,0.8c0.3,0.5,0.5,1.4,0.5,2.8v3.7h-0.9
			v-3.7c0-1.1-0.1-1.8-0.3-2.2C89.1,38.2,88.7,38,88,38c-0.3,0-0.7,0.1-1,0.1c-0.4,0.1-0.6,0.2-0.8,0.3l-0.3,0.1V44.5z"/>
		<path class="st1" d="M98.6,44.5v-9.9h1.7l3.1,8.7l3-8.7h1.7v9.9h-0.9v-9H107l-3.1,8.7h-1l-3.1-8.7h-0.2v9H98.6z"/>
		<path class="st1" d="M110.6,41c0-1.3,0.2-2.3,0.7-2.9c0.5-0.6,1.2-0.8,2.3-0.8c1.1,0,1.9,0.3,2.3,0.8c0.5,0.6,0.7,1.5,0.7,2.9
			s-0.2,2.3-0.6,2.9c-0.4,0.6-1.2,0.9-2.4,0.9s-1.9-0.3-2.4-0.9C110.9,43.3,110.6,42.3,110.6,41z M111.5,40.9c0,1.1,0.1,1.9,0.4,2.3
			c0.3,0.4,0.8,0.6,1.7,0.6c0.9,0,1.5-0.2,1.7-0.7c0.3-0.4,0.4-1.2,0.4-2.3c0-1.1-0.1-1.9-0.4-2.3c-0.3-0.4-0.9-0.6-1.7-0.6
			s-1.4,0.2-1.7,0.6S111.5,39.8,111.5,40.9z"/>
		<path class="st1" d="M124.5,34.3v10.3h-0.9V44c-0.8,0.4-1.5,0.7-2.3,0.7c-0.4,0-0.7,0-0.9-0.1c-0.3-0.1-0.5-0.2-0.8-0.5
			c-0.5-0.5-0.8-1.4-0.8-2.8c0-1.4,0.2-2.4,0.7-3c0.5-0.6,1.2-0.9,2.3-0.9c0.4,0,1,0.1,1.8,0.2v-3.2H124.5z M120.8,43.8
			c0.2,0.1,0.4,0.1,0.7,0.1c0.3,0,0.6-0.1,1-0.2c0.4-0.1,0.7-0.2,0.9-0.3l0.3-0.2v-5.1c-0.8-0.1-1.3-0.2-1.8-0.2
			c-0.8,0-1.4,0.2-1.7,0.7c-0.3,0.5-0.5,1.3-0.5,2.3c0,1.2,0.2,2,0.6,2.4C120.4,43.6,120.6,43.8,120.8,43.8z"/>
		<path class="st1" d="M131.8,37.4h0.8v7.1h-0.8V44c-0.7,0.4-1.5,0.7-2.2,0.7c-1,0-1.6-0.2-1.9-0.7c-0.3-0.5-0.5-1.4-0.5-2.8v-3.7
			h0.8v3.7c0,1.1,0.1,1.8,0.3,2.2c0.2,0.4,0.6,0.6,1.3,0.6c0.3,0,0.7-0.1,1-0.1c0.4-0.1,0.6-0.2,0.8-0.3l0.3-0.1V37.4z"/>
		<path class="st1" d="M135.5,44.5V34.3h0.8v10.3H135.5z"/>
		<path class="st1" d="M144.1,39.5v3.8c0,0.4,0.3,0.6,0.9,0.6l0,0.7c-0.7,0-1.3-0.2-1.6-0.6c-0.9,0.4-1.8,0.6-2.7,0.6
			c-0.6,0-1.1-0.2-1.5-0.5c-0.3-0.4-0.5-0.9-0.5-1.6c0-0.7,0.2-1.2,0.5-1.5c0.3-0.3,0.9-0.5,1.6-0.6l2.4-0.2v-0.7
			c0-0.5-0.1-0.9-0.3-1.1c-0.2-0.2-0.5-0.3-0.9-0.3c-0.6,0-1.4,0.1-2.4,0.2l-0.4,0l0-0.7c1-0.2,2-0.3,2.7-0.3c0.8,0,1.4,0.2,1.7,0.6
			C143.9,38.2,144.1,38.8,144.1,39.5z M139.6,42.5c0,1,0.4,1.4,1.2,1.4c0.3,0,0.7,0,1.1-0.1c0.4-0.1,0.7-0.2,1-0.2l0.4-0.1v-2.6
			l-2.3,0.2c-0.5,0-0.8,0.2-1,0.4C139.7,41.8,139.6,42.1,139.6,42.5z"/>
		<path class="st1" d="M147,44.5v-7.1h0.8v1c0.4-0.2,0.8-0.5,1.3-0.7c0.5-0.2,1-0.4,1.4-0.5v0.9c-0.4,0.1-0.8,0.2-1.3,0.4
			c-0.4,0.2-0.8,0.3-1,0.5l-0.4,0.2v5.3H147z"/>
	</g>
</g>
</svg>
