<?xml version="1.0" encoding="utf-8"?>
<!-- Generator: Adobe Illustrator 23.1.1, SVG Export Plug-In . SVG Version: 6.00 Build 0)  -->
<svg version="1.1" id="Capa_1" xmlns="http://www.w3.org/2000/svg" xmlns:xlink="http://www.w3.org/1999/xlink" x="0px" y="0px"
	 viewBox="0 0 132.9 30.2" style="enable-background:new 0 0 132.9 30.2;" xml:space="preserve">
<style type="text/css">
	.st0{fill:#00A79B;}
	.st1{fill:#878787;}
	.st2{fill:#FFFFFF;}
</style>
<g>
	<path class="st0" d="M14.1,6.3c-0.7-0.4-1.2-0.5-1.6,0c-0.3,0.2-0.3,0.6-0.3,1l0.4,6.1c0,0.4-0.1,0.7-0.3,1c-0.2,0.3-0.5,0.7-0.8,1
		c-0.1,0.1-0.1,0.2-0.2,0.3c-0.2,0.3-0.6,0.5-0.9,0.5l-5.9,0.9c-0.6,0.1-0.8,0.3-1,0.6c-0.2,0.4-0.1,0.9,0.2,1.3l3.8,4.7l0,0
		c0.2,0.3,0.3,0.7,0.3,1.1c0,0,0,0.1,0,0.1c-0.1,0.4-0.1,1-0.2,1.5c0,0.1,0,0.1,0,0.1c0,0.5,0.3,1.5,1.5,1.5c0.3,0,1.1,0,2.2,0
		c0.7,0,1.4-0.6,1.4-1.2c0,0,0,0,0-0.1c0.4-8.5,6.9-14.1,13.9-14.5c0.1,0,0.2,0,0.3,0c0.7-0.1,1.2-0.8,1.2-1.4c0-4.3,0-8,0-8
		c0-0.6-0.2-0.9-0.9-1.1c-0.4-0.1-0.9,0-1.2,0.6l-3,4.9l0,0.1c-0.2,0.3-0.5,0.6-0.8,0.6c0,0,0,0-0.1,0c-0.3,0.1-0.7,0.2-1.2,0.4
		c-0.2,0-0.3,0.1-0.5,0.2c-0.4,0.1-0.8,0.1-1.2,0l0,0l-4.9-2.2L14.1,6.3"/>
	<path class="st1" d="M28,26.7v-9.1c0-0.9-0.8-1.6-1.6-1.5c0,0-0.7,0.1-0.9,0.1c-5.2,1-8.6,4.9-9.2,10.2c-0.1,0.8,0.5,1.7,1.5,1.7
		h8.7C27.4,28.1,28,27.3,28,26.7z"/>
	<g>
		<g>
			<g>
				<path class="st2" d="M46.4,3.9h-9.5c-0.1,0-0.2,0.1-0.2,0.2v13.5c0,0.1,0.1,0.2,0.2,0.2h9.5c0.1,0,0.2-0.1,0.2-0.2v-2.2
					c0-0.1-0.1-0.2-0.2-0.2h-7c-0.1,0-0.2-0.1-0.2-0.2v-2.6c0-0.1,0.1-0.2,0.2-0.2h6.1c0.1,0,0.2-0.1,0.2-0.2V9.7
					c0-0.1-0.1-0.2-0.2-0.2h-6.1c-0.1,0-0.2-0.1-0.2-0.2V6.7c0-0.1,0.1-0.2,0.2-0.2h7c0.1,0,0.2-0.1,0.2-0.2V4.1
					C46.6,4,46.5,3.9,46.4,3.9z M73.5,3.5c-4.2,0-7.5,3.5-7.2,7.8c0.2,3.6,3.1,6.5,6.7,6.7c4.2,0.3,7.8-3.1,7.8-7.2
					C80.7,6.7,77.5,3.5,73.5,3.5z M78.1,11.3c-0.2,2.2-2,3.9-4.1,4.1c-2.8,0.3-5.2-1.9-5.2-4.7c0-2.6,2.1-4.7,4.7-4.7
					C76.2,6.1,78.4,8.5,78.1,11.3z M63.2,15l-1.5-1.2c-0.1-0.1-0.3-0.1-0.4,0c-0.9,1.1-2.4,1.8-4,1.7c-2.3-0.2-4.1-2.1-4.3-4.4
					c-0.2-2.7,2-5,4.7-5c1.3,0,2.5,0.5,3.4,1.4c0,0,0.2,0.1,0.3,0c0,0,0,0,0,0L63,6.2c0,0,0.2-0.2,0-0.3c-1.5-1.5-3.5-2.5-5.8-2.3
					c-3.6,0.2-6.6,3.1-6.8,6.7c-0.3,4.2,3.1,7.8,7.2,7.8c2.2,0,4.3-1,5.6-2.6c0,0,0,0,0,0C63.5,15.1,63.2,15,63.2,15z"/>
			</g>
		</g>
		<path class="st2" d="M126.3,17.7H124c-0.1,0-0.1,0-0.2-0.1l-6.6-9.1c-0.1-0.2-0.4-0.1-0.4,0.1v8.8c0,0.1-0.1,0.2-0.2,0.2h-2.2
			c-0.1,0-0.2-0.1-0.2-0.2V4.1c0-0.1,0.1-0.2,0.2-0.2h2.5c0.1,0,0.1,0,0.2,0.1l6.4,8.8c0.1,0.2,0.4,0.1,0.4-0.1V4.1
			c0-0.1,0.1-0.2,0.2-0.2h2.2c0.1,0,0.2,0.1,0.2,0.2v13.4C126.5,17.6,126.4,17.7,126.3,17.7z"/>
		<path class="st2" d="M111.1,17.4l-0.8-1.9c0,0,0,0,0,0l-4-9.6c0,0,0,0,0,0L105.6,4c0-0.1-0.1-0.1-0.2-0.1l-2.6,0
			c-0.1,0-0.2,0.1-0.2,0.1l-0.7,1.8l0,0c-0.5,1.2-1,2.3-1.4,3.4l-3.4,8.2c-0.1,0.1,0,0.3,0.2,0.3l2.3,0c0.1,0,0.2-0.1,0.2-0.1
			l0.5-1.2c0,0,0,0,0,0l0.6-1.5c0-0.1,0.1-0.1,0.2-0.1l6,0c0.1,0,0.1,0,0.2,0.1l1.2,2.8c0,0.1,0.1,0.1,0.2,0.1l2.3,0
			C111.1,17.7,111.2,17.6,111.1,17.4z M105.8,12.1h-3.6c-0.1,0-0.2-0.1-0.2-0.3l1.8-4.3c0.1-0.2,0.3-0.2,0.4,0l1.8,4.3
			C106.1,12,106,12.1,105.8,12.1z"/>
		<path class="st2" d="M93.6,11.9c-0.3-0.5-0.6-0.8-1-1.1c-0.4-0.3-0.9-0.5-1.4-0.7c-0.5-0.2-1-0.3-1.4-0.5
			c-0.4-0.1-0.8-0.2-1.1-0.3c-0.3-0.1-0.6-0.2-0.8-0.4c-0.2-0.1-0.4-0.3-0.5-0.5c-0.1-0.2-0.2-0.5-0.2-0.8c0-0.3,0.1-0.6,0.2-0.8
			c0.1-0.2,0.3-0.4,0.6-0.6c0.2-0.1,0.5-0.3,0.8-0.3c0.8-0.2,1.6-0.1,2.3,0.2c0.4,0.2,0.7,0.4,1,0.7c0.1,0.1,0.2,0.2,0.4,0
			c0.1-0.1,1-1,1.4-1.4c0,0,0,0,0,0c0.1-0.1,0.1-0.3,0-0.4c0,0,0,0,0,0c-0.5-0.4-1.1-0.7-1.8-1c-0.7-0.2-1.5-0.4-2.2-0.4
			c-0.6,0-1.3,0.1-1.9,0.2c-0.6,0.2-1.2,0.4-1.7,0.7c-0.5,0.3-0.9,0.8-1.2,1.3c-0.3,0.5-0.5,1.1-0.5,1.8c0,0.7,0.1,1.2,0.3,1.7
			c0.2,0.4,0.5,0.8,0.9,1.1c0.3,0.3,0.7,0.5,1.2,0.7c0.4,0.2,0.9,0.3,1.3,0.5l1.3,0.4c0.4,0.1,0.7,0.3,1,0.5
			c0.3,0.2,0.5,0.4,0.7,0.6c0.2,0.2,0.2,0.5,0.2,0.9c0,0.4-0.1,0.7-0.2,0.9c-0.1,0.2-0.3,0.4-0.6,0.6c-0.2,0.2-0.5,0.3-0.8,0.3
			c-0.3,0.1-0.6,0.1-0.9,0.1c-0.6,0-1.1-0.1-1.7-0.4c-0.5-0.2-0.9-0.5-1.2-0.9c0,0,0,0,0,0c-0.1-0.1-0.2-0.1-0.4,0c0,0,0,0,0,0
			L84,15.9c0,0,0.1-0.1,0,0c-0.2,0.1-0.1,0.3,0,0.4c0,0,0,0,0,0c0.5,0.6,1.2,1,2.1,1.3c0.9,0.3,1.8,0.5,2.7,0.5c0.7,0,1.4-0.1,2-0.3
			c0.6-0.2,1.2-0.5,1.7-0.8c0.5-0.4,0.9-0.8,1.1-1.4c0.3-0.6,0.4-1.2,0.4-2C94,12.9,93.9,12.4,93.6,11.9z"/>
	</g>
	<g>
		<path class="st0" d="M40.4,27.8C39.7,28,39.2,28,38.8,28c-0.4,0-0.8,0-1.1-0.1c-0.3-0.1-0.5-0.2-0.7-0.4c-0.2-0.2-0.3-0.4-0.4-0.7
			c-0.2-0.5-0.3-1.2-0.3-2c0-1.4,0.2-2.3,0.7-2.7c0.4-0.4,0.9-0.6,1.6-0.6c0.5,0,1.1,0.1,1.7,0.2l0,0.5c-0.6-0.1-1.1-0.2-1.5-0.2
			c-0.4,0-0.7,0-0.9,0.1c-0.2,0.1-0.4,0.2-0.5,0.3c-0.1,0.1-0.2,0.3-0.3,0.6C37,23.5,37,24,37,24.6c0,0.6,0,1.1,0.1,1.4
			c0,0.3,0.1,0.6,0.2,0.8c0.1,0.2,0.3,0.4,0.5,0.5c0.2,0.1,0.6,0.2,1,0.2c0.4,0,0.9-0.1,1.6-0.2L40.4,27.8z"/>
		<path class="st0" d="M41.6,25.7c0-0.9,0.1-1.5,0.4-1.8c0.3-0.4,0.8-0.5,1.5-0.5c0.7,0,1.2,0.2,1.5,0.5c0.3,0.4,0.4,1,0.4,1.8
			c0,0.9-0.1,1.5-0.4,1.8c-0.3,0.4-0.8,0.5-1.5,0.5c-0.7,0-1.2-0.2-1.5-0.5C41.7,27.1,41.6,26.5,41.6,25.7z M42.1,25.6
			c0,0.7,0.1,1.2,0.2,1.5c0.2,0.3,0.5,0.4,1.1,0.4c0.6,0,0.9-0.1,1.1-0.4c0.2-0.3,0.3-0.8,0.3-1.5c0-0.7-0.1-1.2-0.3-1.5
			c-0.2-0.3-0.5-0.4-1.1-0.4c-0.5,0-0.9,0.1-1.1,0.4C42.2,24.4,42.1,24.9,42.1,25.6z"/>
		<path class="st0" d="M47.5,27.9H47v-4.5h0.5v0.3c0.5-0.3,1-0.4,1.5-0.4c0.6,0,1,0.2,1.2,0.5c0.2,0.3,0.3,0.9,0.3,1.8v2.4h-0.5
			v-2.4c0-0.7-0.1-1.2-0.2-1.4c-0.1-0.2-0.4-0.4-0.9-0.4c-0.2,0-0.4,0-0.7,0.1C48,24,47.8,24,47.7,24.1l-0.2,0.1V27.9z"/>
		<path class="st0" d="M53.6,23.8c-0.7,0-1.1,0.3-1.1,0.8c0,0.2,0.1,0.4,0.2,0.5c0.2,0.1,0.5,0.2,1.1,0.3c0.6,0.1,0.9,0.2,1.2,0.4
			c0.2,0.2,0.3,0.5,0.3,0.9c0,0.5-0.1,0.8-0.4,1c-0.3,0.2-0.7,0.3-1.3,0.3c-0.3,0-0.8,0-1.3-0.1l-0.3,0l0-0.5
			c0.7,0.1,1.2,0.2,1.6,0.2c0.4,0,0.6-0.1,0.8-0.2c0.2-0.1,0.3-0.3,0.3-0.6c0-0.3-0.1-0.5-0.2-0.6c-0.2-0.1-0.5-0.2-1.1-0.3
			c-0.5-0.1-0.9-0.2-1.2-0.4C52.1,25.3,52,25,52,24.6s0.2-0.8,0.5-1c0.3-0.2,0.7-0.3,1.1-0.3c0.4,0,0.8,0,1.4,0.1l0.2,0l0,0.5
			C54.5,23.9,54,23.8,53.6,23.8z"/>
		<path class="st0" d="M59.1,23.9h-1.5v2.2c0,0.6,0,1,0.1,1.2c0.1,0.2,0.3,0.3,0.6,0.3l0.8-0.1l0,0.5C58.8,28,58.5,28,58.3,28
			c-0.5,0-0.8-0.1-1-0.3c-0.2-0.2-0.3-0.7-0.3-1.3v-2.5h-0.7v-0.5h0.7V22h0.5v1.4h1.5V23.9z"/>
		<path class="st0" d="M60.4,27.9v-4.5H61v0.7c0.2-0.2,0.5-0.3,0.8-0.5c0.3-0.1,0.6-0.2,0.9-0.3v0.5c-0.3,0.1-0.5,0.1-0.8,0.2
			c-0.3,0.1-0.5,0.2-0.7,0.3L61,24.5v3.4H60.4z"/>
		<path class="st0" d="M66.8,23.4h0.5v4.5h-0.5v-0.3c-0.5,0.3-0.9,0.4-1.4,0.4c-0.6,0-1-0.2-1.2-0.5c-0.2-0.3-0.3-0.9-0.3-1.8v-2.4
			h0.5v2.4c0,0.7,0.1,1.2,0.2,1.4c0.1,0.2,0.4,0.4,0.8,0.4c0.2,0,0.4,0,0.7-0.1c0.2-0.1,0.4-0.1,0.5-0.2l0.2-0.1V23.4z"/>
		<path class="st0" d="M70.8,23.3c0.3,0,0.6,0,1,0.1l0.2,0l0,0.5c-0.5-0.1-0.8-0.1-1.1-0.1c-0.5,0-0.9,0.1-1.1,0.4
			c-0.2,0.3-0.3,0.7-0.3,1.5c0,0.7,0.1,1.2,0.3,1.5c0.2,0.3,0.6,0.4,1.1,0.4l1.1-0.1l0,0.5C71.4,28,71,28,70.8,28
			c-0.7,0-1.2-0.2-1.5-0.5c-0.3-0.4-0.4-1-0.4-1.8s0.1-1.5,0.4-1.8C69.6,23.5,70.1,23.3,70.8,23.3z"/>
		<path class="st0" d="M75.1,23.3c0.3,0,0.6,0,1,0.1l0.2,0l0,0.5c-0.5-0.1-0.8-0.1-1.1-0.1c-0.5,0-0.9,0.1-1.1,0.4
			c-0.2,0.3-0.3,0.7-0.3,1.5c0,0.7,0.1,1.2,0.3,1.5c0.2,0.3,0.6,0.4,1.1,0.4l1.1-0.1l0,0.5C75.7,28,75.3,28,75.1,28
			c-0.7,0-1.2-0.2-1.5-0.5c-0.3-0.4-0.4-1-0.4-1.8s0.1-1.5,0.4-1.8C73.9,23.5,74.4,23.3,75.1,23.3z"/>
		<path class="st0" d="M77.7,22.3v-0.7h0.5v0.7H77.7z M77.7,27.9v-4.5h0.5v4.5H77.7z"/>
		<path class="st0" d="M81.8,23.3c0.7,0,1.2,0.2,1.5,0.5c0.3,0.4,0.4,1,0.4,1.8c0,0.9-0.1,1.5-0.4,1.8C83,27.8,82.5,28,81.8,28
			s-1.2-0.2-1.5-0.5c-0.3-0.4-0.4-1-0.4-1.8c0-0.9,0.1-1.5,0.4-1.8C80.6,23.5,81.1,23.3,81.8,23.3z M81.8,27.5
			c0.6,0,0.9-0.1,1.1-0.4c0.2-0.3,0.3-0.8,0.3-1.5c0-0.7-0.1-1.2-0.3-1.5c-0.2-0.3-0.5-0.4-1.1-0.4c-0.5,0-0.9,0.1-1.1,0.4
			c-0.2,0.3-0.3,0.7-0.3,1.5c0,0.7,0.1,1.2,0.2,1.5C80.8,27.4,81.2,27.5,81.8,27.5z M80.9,22.1l1.9-0.9l0.2,0.5L81,22.5L80.9,22.1z"
			/>
		<path class="st0" d="M85.8,27.9h-0.5v-4.5h0.5v0.3c0.5-0.3,1-0.4,1.5-0.4c0.6,0,1,0.2,1.2,0.5c0.2,0.3,0.3,0.9,0.3,1.8v2.4h-0.5
			v-2.4c0-0.7-0.1-1.2-0.2-1.4c-0.1-0.2-0.4-0.4-0.9-0.4c-0.2,0-0.4,0-0.7,0.1C86.3,24,86.1,24,86,24.1l-0.2,0.1V27.9z"/>
		<path class="st0" d="M94,27.9v-6.3H95l1.9,5.5l1.9-5.5h1.1v6.3h-0.6v-5.7h-0.1l-2,5.5h-0.7l-2-5.5h-0.1v5.7H94z"/>
		<path class="st0" d="M101.6,25.7c0-0.9,0.1-1.5,0.4-1.8c0.3-0.4,0.8-0.5,1.5-0.5c0.7,0,1.2,0.2,1.5,0.5c0.3,0.4,0.4,1,0.4,1.8
			c0,0.9-0.1,1.5-0.4,1.8c-0.3,0.4-0.8,0.5-1.5,0.5s-1.2-0.2-1.5-0.5C101.7,27.1,101.6,26.5,101.6,25.7z M102.2,25.6
			c0,0.7,0.1,1.2,0.2,1.5c0.2,0.3,0.5,0.4,1.1,0.4c0.6,0,0.9-0.1,1.1-0.4c0.2-0.3,0.3-0.8,0.3-1.5c0-0.7-0.1-1.2-0.3-1.5
			c-0.2-0.3-0.5-0.4-1.1-0.4c-0.5,0-0.9,0.1-1.1,0.4C102.3,24.4,102.2,24.9,102.2,25.6z"/>
		<path class="st0" d="M110.4,21.4v6.5h-0.5v-0.3c-0.5,0.3-1,0.4-1.5,0.4c-0.2,0-0.4,0-0.6-0.1c-0.2-0.1-0.3-0.2-0.5-0.3
			c-0.3-0.3-0.5-0.9-0.5-1.8c0-0.9,0.1-1.5,0.4-1.9c0.3-0.4,0.8-0.6,1.5-0.6c0.3,0,0.6,0,1.1,0.1v-2H110.4z M108.1,27.5
			c0.1,0,0.3,0.1,0.4,0.1c0.2,0,0.4,0,0.6-0.1c0.2-0.1,0.4-0.1,0.5-0.2l0.2-0.1v-3.2c-0.5-0.1-0.9-0.1-1.1-0.1
			c-0.5,0-0.9,0.2-1.1,0.5c-0.2,0.3-0.3,0.8-0.3,1.5c0,0.8,0.1,1.3,0.4,1.5C107.8,27.3,107.9,27.4,108.1,27.5z"/>
		<path class="st0" d="M115,23.4h0.5v4.5H115v-0.3c-0.5,0.3-0.9,0.4-1.4,0.4c-0.6,0-1-0.2-1.2-0.5c-0.2-0.3-0.3-0.9-0.3-1.8v-2.4
			h0.5v2.4c0,0.7,0.1,1.2,0.2,1.4c0.1,0.2,0.4,0.4,0.8,0.4c0.2,0,0.4,0,0.7-0.1c0.2-0.1,0.4-0.1,0.5-0.2l0.2-0.1V23.4z"/>
		<path class="st0" d="M117.4,27.9v-6.5h0.5v6.5H117.4z"/>
		<path class="st0" d="M122.9,24.7v2.4c0,0.2,0.2,0.4,0.6,0.4l0,0.4c-0.5,0-0.8-0.1-1-0.4c-0.6,0.2-1.1,0.4-1.7,0.4
			c-0.4,0-0.7-0.1-0.9-0.3c-0.2-0.2-0.3-0.6-0.3-1c0-0.4,0.1-0.8,0.3-1c0.2-0.2,0.6-0.3,1-0.4l1.5-0.2v-0.4c0-0.3-0.1-0.6-0.2-0.7
			c-0.1-0.1-0.3-0.2-0.6-0.2c-0.4,0-0.9,0-1.5,0.1l-0.3,0l0-0.4c0.7-0.1,1.2-0.2,1.7-0.2c0.5,0,0.9,0.1,1.1,0.4
			C122.8,23.9,122.9,24.3,122.9,24.7z M120,26.6c0,0.6,0.3,0.9,0.8,0.9c0.2,0,0.5,0,0.7-0.1c0.3-0.1,0.5-0.1,0.6-0.2l0.2-0.1v-1.6
			l-1.5,0.2c-0.3,0-0.5,0.1-0.6,0.3C120.1,26.2,120,26.4,120,26.6z"/>
		<path class="st0" d="M124.7,27.9v-4.5h0.5v0.7c0.2-0.2,0.5-0.3,0.8-0.5c0.3-0.1,0.6-0.2,0.9-0.3v0.5c-0.3,0.1-0.5,0.1-0.8,0.2
			c-0.3,0.1-0.5,0.2-0.7,0.3l-0.2,0.1v3.4H124.7z"/>
	</g>
</g>
</svg>
