<?xml version="1.0" encoding="utf-8"?>
<!-- Generator: Adobe Illustrator 26.0.3, SVG Export Plug-In . SVG Version: 6.00 Build 0)  -->
<svg version="1.1" id="Capa_1" xmlns="http://www.w3.org/2000/svg" xmlns:xlink="http://www.w3.org/1999/xlink" x="0px" y="0px"
	 width="157px" height="53px" viewBox="0 0 157 53" style="enable-background:new 0 0 157 53;" xml:space="preserve">
<g>
	<g>
		<g>
			<g>
				<g>
					<g>
						<path style="fill:#FFFFFF;" d="M22.2,5.7H6.9C6.7,5.7,6.6,5.8,6.6,6v21.5c0,0.2,0.1,0.3,0.3,0.3h15.3c0.2,0,0.3-0.1,0.3-0.3
							V24c0-0.2-0.1-0.3-0.3-0.3H11c-0.2,0-0.3-0.1-0.3-0.3v-4.2c0-0.2,0.1-0.3,0.3-0.3h9.7c0.2,0,0.3-0.1,0.3-0.3V15
							c0-0.2-0.1-0.3-0.3-0.3H11c-0.2,0-0.3-0.1-0.3-0.3v-4.2c0-0.2,0.1-0.3,0.3-0.3h11.1c0.2,0,0.3-0.1,0.3-0.3V6
							C22.5,5.8,22.3,5.7,22.2,5.7z M65.5,5.1c-6.7,0-12.1,5.7-11.6,12.4c0.4,5.7,5,10.4,10.8,10.8c6.8,0.5,12.4-4.9,12.4-11.6
							C77.1,10.3,71.9,5.1,65.5,5.1z M73,17.6c-0.4,3.4-3.2,6.2-6.6,6.6c-4.5,0.5-8.4-3-8.4-7.5c0-4.1,3.4-7.5,7.5-7.5
							C70,9.2,73.5,13,73,17.6z M49.1,23.5l-2.5-2c-0.2-0.2-0.4-0.2-0.6,0c-1.5,1.8-3.9,3-6.5,2.7c-3.7-0.3-6.6-3.3-6.8-7
							c-0.3-4.4,3.2-8,7.5-8c2.1,0,4,0.9,5.4,2.3c0.1,0.1,0.3,0.2,0.5,0c0,0,0,0,0,0l2.6-2.1c0,0,0.3-0.3,0-0.5
							c-2.4-2.4-5.6-3.9-9.2-3.7c-5.8,0.3-10.5,5-10.9,10.8c-0.5,6.8,4.9,12.4,11.6,12.4c3.6,0,6.8-1.6,8.9-4.2c0,0,0,0,0,0
							C49.5,23.7,49.1,23.5,49.1,23.5z"/>
					</g>
				</g>
				<path style="fill:#FFFFFF;" d="M150.1,27.8h-3.7c-0.1,0-0.2-0.1-0.3-0.2l-10.6-14.5c-0.2-0.3-0.6-0.2-0.6,0.2v14.1
					c0,0.2-0.1,0.3-0.3,0.3h-3.5c-0.2,0-0.3-0.1-0.3-0.3V6c0-0.2,0.1-0.3,0.3-0.3h4c0.1,0,0.2,0.1,0.3,0.2l10.3,14.1
					c0.2,0.3,0.6,0.2,0.6-0.2V6c0-0.2,0.1-0.3,0.3-0.3h3.5c0.2,0,0.3,0.1,0.3,0.3v21.5C150.4,27.7,150.3,27.8,150.1,27.8z"/>
				<path style="fill:#FFFFFF;" d="M125.8,27.3l-1.3-3.1c0,0,0,0,0,0L118.2,9c0,0,0,0,0,0l-1.3-3.1c-0.1-0.1-0.2-0.2-0.3-0.2l-4.2,0
					c-0.1,0-0.3,0.1-0.3,0.2l-1.2,2.8l0,0c-0.8,1.9-1.5,3.7-2.3,5.4l-5.5,13.2c-0.1,0.2,0.1,0.5,0.3,0.5l3.7,0
					c0.1,0,0.3-0.1,0.3-0.2l0.8-1.9c0,0,0,0,0,0l1-2.5c0.1-0.1,0.1-0.2,0.3-0.2l9.7,0c0.1,0,0.2,0,0.3,0.1l1.8,4.4
					c0.1,0.1,0.2,0.2,0.3,0.2l3.7,0C125.7,27.8,125.9,27.6,125.8,27.3z M117.3,18.9h-5.7c-0.2,0-0.4-0.2-0.3-0.4l2.9-6.8
					c0.1-0.3,0.5-0.3,0.7,0l2.9,6.9C117.7,18.7,117.5,18.9,117.3,18.9z"/>
				<path style="fill:#FFFFFF;" d="M97.8,18.5c-0.4-0.7-1-1.4-1.6-1.8c-0.7-0.5-1.4-0.9-2.2-1.2c-0.8-0.3-1.5-0.5-2.3-0.8
					c-0.6-0.2-1.2-0.4-1.8-0.6c-0.5-0.2-1-0.4-1.3-0.6c-0.4-0.2-0.6-0.5-0.9-0.9c-0.2-0.3-0.3-0.7-0.3-1.2c0-0.5,0.1-1,0.4-1.3
					c0.2-0.4,0.5-0.7,0.9-0.9C89.1,9,89.5,8.8,90,8.7c1.2-0.3,2.5-0.2,3.7,0.4c0.7,0.3,1.2,0.7,1.6,1.1c0.1,0.1,0.3,0.3,0.6,0
					C96,10,97.4,8.6,98,7.9c0,0,0,0,0,0c0.2-0.2,0.2-0.4,0-0.6c0,0,0,0,0,0c-0.8-0.7-1.8-1.2-2.9-1.6c-1.2-0.4-2.4-0.6-3.6-0.6
					c-1,0-2.1,0.1-3.1,0.4c-1,0.3-1.9,0.7-2.7,1.2c-0.8,0.5-1.4,1.2-1.9,2c-0.5,0.8-0.7,1.8-0.7,2.9c0,1,0.2,1.9,0.5,2.6
					c0.3,0.7,0.8,1.3,1.4,1.8c0.6,0.5,1.2,0.9,1.9,1.2c0.7,0.3,1.4,0.5,2.1,0.7l2,0.7c0.6,0.2,1.2,0.4,1.7,0.7
					c0.5,0.3,0.8,0.6,1.1,1c0.3,0.4,0.4,0.8,0.4,1.4c0,0.6-0.1,1.1-0.4,1.5c-0.2,0.4-0.6,0.7-0.9,1c-0.4,0.3-0.8,0.4-1.3,0.6
					c-0.5,0.1-1,0.2-1.4,0.2c-0.9,0-1.8-0.2-2.7-0.6c-0.8-0.4-1.5-0.9-2-1.5c0,0,0,0,0,0c-0.2-0.2-0.4-0.2-0.6,0c0,0,0,0,0,0
					l-2.4,2.2c0,0,0.2-0.2,0,0c-0.3,0.2-0.1,0.5,0,0.6c0,0,0,0,0,0c0.9,0.9,2,1.6,3.3,2.1c1.4,0.5,2.9,0.8,4.4,0.8
					c1.1,0,2.2-0.1,3.2-0.4c1-0.3,1.9-0.7,2.7-1.3c0.8-0.6,1.4-1.3,1.8-2.2c0.5-0.9,0.7-2,0.7-3.1C98.4,20.2,98.2,19.3,97.8,18.5z"
					/>
			</g>
		</g>
	</g>
</g>
<g>
	<path style="fill:#878787;" d="M7.6,41.4V45H6.8v-9.2h3.4c1,0,1.7,0.2,2.2,0.7c0.5,0.4,0.7,1.1,0.7,2.1c0,1.5-0.6,2.4-1.8,2.7
		l1.9,3.8h-0.9l-1.8-3.6H7.6z M12.2,38.5c0-0.7-0.2-1.2-0.5-1.5c-0.3-0.3-0.8-0.5-1.5-0.5H7.6v4.1h2.6
		C11.6,40.6,12.2,39.9,12.2,38.5z"/>
	<path style="fill:#878787;" d="M19,44.3l0.4,0l0,0.7c-1,0.1-1.8,0.2-2.5,0.2c-1,0-1.6-0.3-2-0.8c-0.4-0.6-0.6-1.4-0.6-2.6
		c0-2.3,0.9-3.5,2.7-3.5c0.9,0,1.5,0.3,2,0.8c0.4,0.5,0.7,1.3,0.7,2.4l0,0.6h-4.5c0,0.8,0.1,1.4,0.4,1.8c0.3,0.4,0.8,0.6,1.4,0.6
		S18.4,44.4,19,44.3z M15.1,41.4h3.7c0-0.9-0.1-1.5-0.4-1.9c-0.3-0.4-0.7-0.6-1.4-0.6s-1.1,0.2-1.4,0.6
		C15.3,39.9,15.1,40.5,15.1,41.4z"/>
	<path style="fill:#878787;" d="M22,45h-0.8v-6.6H22v0.5c0.7-0.4,1.5-0.6,2.2-0.6c0.9,0,1.5,0.2,1.8,0.7c0.3,0.5,0.4,1.3,0.4,2.6V45
		h-0.8v-3.5c0-1-0.1-1.7-0.3-2.1S24.7,39,24.1,39c-0.3,0-0.6,0-1,0.1c-0.3,0.1-0.6,0.2-0.8,0.3L22,39.5V45z"/>
	<path style="fill:#878787;" d="M31.5,39.1h-2.2v3.3c0,0.9,0.1,1.4,0.2,1.7c0.1,0.3,0.4,0.4,0.9,0.4l1.2-0.1l0.1,0.7
		c-0.6,0.1-1,0.1-1.3,0.1c-0.7,0-1.1-0.2-1.4-0.5c-0.3-0.3-0.4-1-0.4-1.9v-3.7h-1v-0.7h1v-2.1h0.8v2.1h2.2V39.1z"/>
	<path style="fill:#878787;" d="M37.3,40.4v3.6c0,0.3,0.3,0.5,0.9,0.6l0,0.6c-0.7,0-1.2-0.2-1.5-0.5c-0.8,0.4-1.7,0.5-2.5,0.5
		c-0.6,0-1-0.2-1.4-0.5c-0.3-0.3-0.5-0.8-0.5-1.5c0-0.6,0.2-1.1,0.5-1.4c0.3-0.3,0.8-0.5,1.5-0.6l2.3-0.2v-0.6
		c0-0.5-0.1-0.9-0.3-1.1C36,39.1,35.7,39,35.3,39c-0.6,0-1.3,0.1-2.2,0.2l-0.4,0l0-0.6c1-0.2,1.8-0.3,2.6-0.3c0.7,0,1.3,0.2,1.6,0.5
		C37.1,39.1,37.3,39.6,37.3,40.4z M33.1,43.1c0,0.9,0.4,1.3,1.1,1.3c0.3,0,0.7,0,1-0.1c0.4-0.1,0.7-0.2,0.9-0.2l0.3-0.1v-2.4
		l-2.2,0.2c-0.4,0-0.7,0.2-0.9,0.4C33.2,42.4,33.1,42.7,33.1,43.1z"/>
	<path style="fill:#878787;" d="M39.3,45v-9.6h0.8V45H39.3z"/>
	<path style="fill:#878787;" d="M49.4,35.4V45h-0.8v-0.5c-0.7,0.4-1.4,0.6-2.1,0.6c-0.3,0-0.6,0-0.8-0.1c-0.2-0.1-0.5-0.2-0.7-0.4
		c-0.5-0.5-0.8-1.3-0.8-2.6s0.2-2.3,0.6-2.8c0.4-0.6,1.1-0.9,2.2-0.9c0.4,0,0.9,0.1,1.7,0.2v-3H49.4z M46,44.3
		c0.2,0.1,0.4,0.1,0.6,0.1c0.3,0,0.6,0,0.9-0.1c0.3-0.1,0.6-0.2,0.8-0.3l0.3-0.1v-4.8c-0.7-0.1-1.3-0.2-1.6-0.2
		c-0.8,0-1.3,0.2-1.6,0.7c-0.3,0.5-0.4,1.2-0.4,2.1c0,1.1,0.2,1.9,0.5,2.2C45.6,44.2,45.8,44.3,46,44.3z"/>
	<path style="fill:#878787;" d="M55.7,44.3l0.4,0l0,0.7c-1,0.1-1.8,0.2-2.5,0.2c-1,0-1.6-0.3-2-0.8c-0.4-0.6-0.6-1.4-0.6-2.6
		c0-2.3,0.9-3.5,2.7-3.5c0.9,0,1.5,0.3,2,0.8c0.4,0.5,0.7,1.3,0.7,2.4l0,0.6h-4.5c0,0.8,0.1,1.4,0.4,1.8c0.3,0.4,0.8,0.6,1.4,0.6
		C54.3,44.4,55,44.4,55.7,44.3z M51.8,41.4h3.7c0-0.9-0.1-1.5-0.4-1.9c-0.3-0.4-0.7-0.6-1.4-0.6c-0.6,0-1.1,0.2-1.4,0.6
		C52,39.9,51.8,40.5,51.8,41.4z"/>
	<path style="fill:#878787;" d="M60.6,45v-9.2h1.5l2.9,8.1l2.8-8.1h1.5V45h-0.8v-8.4h-0.2l-2.9,8.1h-1l-2.9-8.1h-0.2V45H60.6z"/>
	<path style="fill:#878787;" d="M73.9,38.2c1,0,1.7,0.3,2.2,0.8c0.4,0.5,0.6,1.4,0.6,2.7c0,1.2-0.2,2.1-0.6,2.7
		c-0.4,0.5-1.1,0.8-2.2,0.8c-1.1,0-1.8-0.3-2.2-0.8c-0.4-0.5-0.6-1.4-0.6-2.7c0-1.2,0.2-2.1,0.6-2.7C72.2,38.5,72.9,38.2,73.9,38.2z
		 M73.9,44.4c0.8,0,1.4-0.2,1.6-0.6c0.2-0.4,0.4-1.1,0.4-2.2c0-1-0.1-1.8-0.4-2.1c-0.3-0.4-0.8-0.6-1.5-0.6c-0.8,0-1.3,0.2-1.5,0.6
		c-0.3,0.4-0.4,1.1-0.4,2.1c0,1,0.1,1.8,0.4,2.2C72.6,44.2,73.1,44.4,73.9,44.4z M72.6,36.5l2.7-1.3l0.3,0.7l-2.8,1.2L72.6,36.5z"/>
	<path style="fill:#878787;" d="M83.3,35.4V45h-0.8v-0.5c-0.7,0.4-1.4,0.6-2.1,0.6c-0.3,0-0.6,0-0.8-0.1c-0.2-0.1-0.5-0.2-0.7-0.4
		c-0.5-0.5-0.8-1.3-0.8-2.6s0.2-2.3,0.6-2.8c0.4-0.6,1.1-0.9,2.2-0.9c0.4,0,0.9,0.1,1.7,0.2v-3H83.3z M79.9,44.3
		c0.2,0.1,0.4,0.1,0.6,0.1s0.6,0,0.9-0.1c0.3-0.1,0.6-0.2,0.8-0.3l0.3-0.1v-4.8c-0.7-0.1-1.3-0.2-1.6-0.2c-0.8,0-1.3,0.2-1.6,0.7
		c-0.3,0.5-0.4,1.2-0.4,2.1c0,1.1,0.2,1.9,0.5,2.2C79.6,44.2,79.7,44.3,79.9,44.3z"/>
	<path style="fill:#878787;" d="M89.4,38.4h0.8V45h-0.8v-0.5c-0.7,0.4-1.4,0.6-2,0.6c-0.9,0-1.5-0.2-1.8-0.7
		c-0.3-0.5-0.4-1.3-0.4-2.6v-3.5h0.8v3.5c0,1,0.1,1.7,0.3,2.1c0.2,0.4,0.6,0.5,1.2,0.5c0.3,0,0.6,0,1-0.1c0.3-0.1,0.6-0.2,0.7-0.3
		l0.3-0.1V38.4z"/>
	<path style="fill:#878787;" d="M92.2,45v-9.6H93V45H92.2z"/>
	<path style="fill:#878787;" d="M94.7,41.7c0-1.2,0.2-2.1,0.6-2.7c0.4-0.5,1.1-0.8,2.2-0.8s1.7,0.3,2.2,0.8c0.4,0.5,0.6,1.4,0.6,2.7
		c0,1.2-0.2,2.1-0.6,2.7c-0.4,0.5-1.1,0.8-2.2,0.8c-1.1,0-1.8-0.3-2.2-0.8C94.9,43.8,94.7,42.9,94.7,41.7z M95.5,41.7
		c0,1,0.1,1.8,0.4,2.2c0.2,0.4,0.8,0.6,1.6,0.6c0.8,0,1.4-0.2,1.6-0.6c0.2-0.4,0.4-1.1,0.4-2.2c0-1-0.1-1.8-0.4-2.1
		c-0.3-0.4-0.8-0.6-1.5-0.6c-0.8,0-1.3,0.2-1.5,0.6C95.6,39.9,95.5,40.6,95.5,41.7z"/>
	<path style="fill:#878787;" d="M103.9,39c-1,0-1.6,0.4-1.6,1.1c0,0.3,0.1,0.6,0.3,0.7c0.2,0.1,0.8,0.3,1.6,0.4
		c0.8,0.1,1.4,0.3,1.7,0.6c0.3,0.2,0.5,0.7,0.5,1.4c0,0.7-0.2,1.2-0.7,1.5c-0.4,0.3-1.1,0.5-1.9,0.5c-0.5,0-1.1-0.1-1.9-0.2
		l-0.4-0.1l0.1-0.7c1,0.2,1.8,0.2,2.3,0.2c0.5,0,0.9-0.1,1.2-0.3c0.3-0.2,0.4-0.5,0.4-0.9s-0.1-0.7-0.4-0.9
		c-0.2-0.1-0.8-0.3-1.6-0.4c-0.8-0.1-1.4-0.3-1.7-0.5c-0.3-0.2-0.5-0.7-0.5-1.3c0-0.6,0.2-1.1,0.7-1.4c0.5-0.3,1-0.4,1.7-0.4
		c0.5,0,1.2,0.1,2,0.2l0.4,0.1l0,0.7C105.2,39,104.5,39,103.9,39z"/>
	<path style="fill:#878787;" d="M109.9,38.4h0.8l1.8,5.9h0.5l1.8-5.9h0.8l-2.9,9.6h-0.8l0.9-3h-0.9L109.9,38.4z"/>
	<path style="fill:#878787;" d="M119.3,35.8h3.3c1.8,0,2.7,0.8,2.7,2.3c0,1.1-0.4,1.8-1.2,2.2c1,0.3,1.5,1,1.5,2.2
		c0,0.9-0.2,1.6-0.7,2c-0.5,0.4-1.2,0.6-2.1,0.6h-3.5V35.8z M122.5,36.5h-2.4V40h2.5c0.6,0,1.1-0.1,1.4-0.4c0.3-0.3,0.4-0.7,0.4-1.3
		c0-0.6-0.2-1-0.5-1.3C123.7,36.6,123.2,36.5,122.5,36.5z M122.7,40.7h-2.6v3.6h2.6c0.6,0,1.1-0.1,1.5-0.4c0.3-0.3,0.5-0.8,0.5-1.4
		C124.7,41.3,124.1,40.7,122.7,40.7z"/>
	<path style="fill:#878787;" d="M131.8,40.4v3.6c0,0.3,0.3,0.5,0.9,0.6l0,0.6c-0.7,0-1.2-0.2-1.5-0.5c-0.8,0.4-1.7,0.5-2.5,0.5
		c-0.6,0-1-0.2-1.4-0.5c-0.3-0.3-0.5-0.8-0.5-1.5c0-0.6,0.2-1.1,0.5-1.4c0.3-0.3,0.8-0.5,1.5-0.6L131,41v-0.6c0-0.5-0.1-0.9-0.3-1.1
		c-0.2-0.2-0.5-0.3-0.9-0.3c-0.6,0-1.3,0.1-2.2,0.2l-0.4,0l0-0.6c1-0.2,1.8-0.3,2.6-0.3c0.7,0,1.3,0.2,1.6,0.5
		C131.6,39.1,131.8,39.6,131.8,40.4z M127.6,43.1c0,0.9,0.4,1.3,1.1,1.3c0.3,0,0.7,0,1-0.1c0.4-0.1,0.7-0.2,0.9-0.2L131,44v-2.4
		l-2.2,0.2c-0.4,0-0.7,0.2-0.9,0.4C127.7,42.4,127.6,42.7,127.6,43.1z"/>
	<path style="fill:#878787;" d="M133.8,45v-6.6h0.8v0.5l0.3-0.1c0.2-0.1,0.5-0.2,0.8-0.3c0.4-0.1,0.7-0.2,1-0.2
		c0.9,0,1.5,0.2,1.8,0.7c0.3,0.5,0.4,1.3,0.4,2.6V45h-0.8v-3.5c0-1-0.1-1.7-0.3-2.1s-0.6-0.5-1.3-0.5c-0.7,0-1.3,0.2-2,0.6V45H133.8
		z M137.4,36.8c-0.2,0-0.5-0.1-1-0.3c-0.5-0.2-0.8-0.3-0.9-0.3c-0.2,0-0.5,0.1-0.8,0.4l-0.2,0.1l-0.2-0.5c0.4-0.4,0.8-0.7,1.2-0.7
		c0.2,0,0.5,0.1,1,0.3c0.5,0.2,0.8,0.3,0.9,0.3c0.2,0,0.4-0.1,0.8-0.4l0.2-0.1l0.2,0.6C138.1,36.6,137.7,36.8,137.4,36.8z"/>
	<path style="fill:#878787;" d="M140.5,41.7c0-1.2,0.2-2.1,0.6-2.7c0.4-0.5,1.1-0.8,2.2-0.8c1,0,1.7,0.3,2.2,0.8
		c0.4,0.5,0.6,1.4,0.6,2.7c0,1.2-0.2,2.1-0.6,2.7c-0.4,0.5-1.1,0.8-2.2,0.8c-1.1,0-1.8-0.3-2.2-0.8
		C140.7,43.8,140.5,42.9,140.5,41.7z M141.3,41.7c0,1,0.1,1.8,0.4,2.2c0.2,0.4,0.8,0.6,1.6,0.6c0.8,0,1.4-0.2,1.6-0.6
		c0.2-0.4,0.4-1.1,0.4-2.2c0-1-0.1-1.8-0.4-2.1c-0.3-0.4-0.8-0.6-1.5-0.6c-0.8,0-1.3,0.2-1.5,0.6C141.5,39.9,141.3,40.6,141.3,41.7z
		"/>
	<path style="fill:#878787;" d="M149.7,39c-1,0-1.6,0.4-1.6,1.1c0,0.3,0.1,0.6,0.3,0.7c0.2,0.1,0.8,0.3,1.6,0.4
		c0.8,0.1,1.4,0.3,1.7,0.6c0.3,0.2,0.5,0.7,0.5,1.4c0,0.7-0.2,1.2-0.7,1.5c-0.4,0.3-1.1,0.5-1.9,0.5c-0.5,0-1.1-0.1-1.9-0.2
		l-0.4-0.1l0.1-0.7c1,0.2,1.8,0.2,2.3,0.2c0.5,0,0.9-0.1,1.2-0.3c0.3-0.2,0.4-0.5,0.4-0.9s-0.1-0.7-0.4-0.9
		c-0.2-0.1-0.8-0.3-1.6-0.4c-0.8-0.1-1.4-0.3-1.7-0.5c-0.3-0.2-0.5-0.7-0.5-1.3c0-0.6,0.2-1.1,0.7-1.4c0.5-0.3,1-0.4,1.7-0.4
		c0.5,0,1.2,0.1,2,0.2l0.4,0.1l0,0.7C151.1,39,150.3,39,149.7,39z"/>
</g>
</svg>
