<?xml version="1.0" encoding="utf-8"?>
<!-- Generator: Adobe Illustrator 23.1.1, SVG Export Plug-In . SVG Version: 6.00 Build 0)  -->
<svg version="1.1" id="Capa_1" xmlns="http://www.w3.org/2000/svg" xmlns:xlink="http://www.w3.org/1999/xlink" x="0px" y="0px"
	 viewBox="0 0 136.7 138" style="enable-background:new 0 0 136.7 138;" xml:space="preserve">
<style type="text/css">
	.st0{fill:#07A89C;}
	.st1{fill:#878787;}
	.st2{fill:#3B3B3B;}
</style>
<g>
	<g>
		<path class="st0" d="M58.2,45.8c-1.7-0.9-2.8-1.1-3.9,0c-0.6,0.6-0.8,1.4-0.7,2.4l0.9,14.7c0.1,0.9-0.2,1.7-0.8,2.4
			s-1.3,1.6-2,2.5c-0.2,0.2-0.3,0.4-0.5,0.6c-0.5,0.7-1.3,1.2-2.2,1.3l-14.2,2c-1.5,0.2-1.9,0.6-2.4,1.5c-0.5,0.9-0.3,2.1,0.5,3
			l9,11.2l0.1,0.1c0.6,0.7,0.8,1.7,0.7,2.6c0,0.1,0,0.1,0,0.2c-0.2,1-0.3,2.4-0.4,3.6c0,0.1,0,0.2,0,0.4c0,1.3,0.7,3.5,3.5,3.6
			c0.8,0,2.6,0,5.2,0c1.7,0,3.3-1.5,3.4-3c0-0.1,0-0.1,0-0.2C55.5,74.4,71.2,61,87.9,60.2c0.2,0,0.5-0.1,0.7-0.1
			c1.6-0.2,2.9-1.8,2.9-3.3c0-10.4,0-19.1,0-19.1c0.1-1.5-0.6-2.2-2.1-2.6c-1-0.3-2,0.1-2.8,1.4l-7.1,11.7l-0.1,0.2
			c-0.4,0.7-1.2,1.3-2,1.6c-0.1,0-0.1,0-0.2,0.1c-0.7,0.2-1.6,0.5-3,0.9c-0.4,0.1-0.7,0.2-1.1,0.4c-0.9,0.3-1.9,0.3-2.8-0.1h-0.1
			l-11.8-5.2L58.2,45.8"/>
		<path class="st1" d="M91.4,94.7V72.8c0-2.1-1.8-3.8-3.7-3.6c-0.1,0-1.8,0.3-2.1,0.4C73.2,72,65,81.4,63.6,94c-0.2,2,1.3,4,3.5,4
			h20.8C90,98,91.4,96.2,91.4,94.7z"/>
		<path class="st1" d="M22.2,32.4c-0.2-0.2-0.3-0.3-0.4-0.5s-0.2-0.4-0.2-0.6s0-0.4,0.1-0.7c0.1-0.2,0.2-0.4,0.3-0.6
			c0.2-0.2,0.3-0.3,0.5-0.4s0.4-0.2,0.6-0.2s0.4,0,0.7,0.1c0.2,0.1,0.4,0.2,0.6,0.3c0.2,0.2,0.3,0.3,0.4,0.5s0.2,0.4,0.2,0.6
			s0,0.4-0.1,0.7c-0.1,0.2-0.2,0.4-0.3,0.6c-0.2,0.2-0.3,0.3-0.5,0.4c-0.2,0.1-0.4,0.2-0.6,0.2s-0.4,0-0.7-0.1
			C22.6,32.7,22.4,32.5,22.2,32.4z"/>
		<path class="st1" d="M111.9,29.3c0.2-0.2,0.4-0.3,0.6-0.3c0.2-0.1,0.4-0.1,0.7-0.1c0.2,0,0.4,0.1,0.6,0.2s0.4,0.2,0.5,0.4
			c0.2,0.2,0.3,0.4,0.3,0.6c0.1,0.2,0.1,0.4,0.1,0.7c0,0.2-0.1,0.4-0.2,0.6s-0.2,0.4-0.4,0.5c-0.2,0.2-0.4,0.3-0.6,0.3
			c-0.2,0.1-0.4,0.1-0.7,0.1c-0.2,0-0.4-0.1-0.6-0.2c-0.2-0.1-0.4-0.2-0.5-0.4c-0.2-0.2-0.3-0.4-0.3-0.6c-0.1-0.2-0.1-0.4-0.1-0.7
			c0-0.2,0.1-0.4,0.2-0.6S111.7,29.4,111.9,29.3z"/>
		<g>
			<path class="st2" d="M120.2,47.6c-0.6-0.7-1-1.4-1.3-1.9c-0.3-0.6-0.5-1.1-0.5-1.5c-0.1-0.4,0-0.8,0.1-1.1s0.3-0.6,0.6-0.9
				c0.5-0.6,1.3-1.1,2.4-1.7c1.8-0.9,3.1-1.2,3.9-0.9c0.7,0.2,1.3,0.8,1.8,1.8c0.3,0.6,0.6,1.4,0.9,2.3l-0.6,0.3
				c-0.3-0.9-0.5-1.6-0.8-2.1c-0.2-0.5-0.5-0.8-0.7-1.1c-0.2-0.2-0.5-0.4-0.8-0.4c-0.3-0.1-0.6-0.1-0.9,0c-0.6,0.1-1.3,0.4-2.1,0.8
				c-0.8,0.4-1.4,0.7-1.7,1c-0.4,0.3-0.7,0.5-0.9,0.9c-0.2,0.3-0.4,0.7-0.3,1c0,0.4,0.2,0.8,0.4,1.4c0.3,0.5,0.7,1.2,1.2,1.9
				L120.2,47.6z"/>
			<path class="st2" d="M124.1,48.8c1.2-0.4,2.1-0.5,2.7-0.2c0.6,0.2,1.1,0.8,1.4,1.8s0.3,1.7-0.1,2.3c-0.4,0.6-1.1,1-2.3,1.4
				c-1.2,0.4-2.1,0.5-2.7,0.3s-1.1-0.8-1.4-1.8s-0.3-1.8,0.1-2.3C122.2,49.6,122.9,49.1,124.1,48.8z M124.4,49.5
				c-1,0.3-1.6,0.7-1.9,1c-0.3,0.4-0.3,0.9-0.1,1.7c0.3,0.8,0.6,1.2,1.1,1.3s1.2,0,2.2-0.3s1.6-0.7,1.9-1.1c0.3-0.4,0.3-0.9,0.1-1.6
				s-0.6-1.1-1-1.3C126.1,49.1,125.4,49.2,124.4,49.5z"/>
			<path class="st2" d="M123.6,58.7l-0.1-0.8l6.5-1.2l0.1,0.8l-0.5,0.1c0.5,0.7,0.9,1.3,1,2c0.2,0.9,0,1.5-0.4,1.9s-1.2,0.7-2.4,0.9
				l-3.4,0.6l-0.1-0.8l3.4-0.6c1-0.2,1.6-0.4,2-0.6c0.3-0.3,0.4-0.7,0.3-1.3c-0.1-0.3-0.2-0.6-0.3-0.9c-0.2-0.3-0.3-0.6-0.4-0.7
				l-0.2-0.3L123.6,58.7z"/>
			<path class="st2" d="M130.7,67.8c0-1-0.4-1.5-1.2-1.5c-0.3,0-0.6,0.1-0.7,0.4c-0.1,0.2-0.2,0.8-0.4,1.6c-0.1,0.8-0.3,1.4-0.5,1.7
				c-0.2,0.3-0.7,0.5-1.3,0.5c-0.7,0-1.2-0.2-1.5-0.6s-0.5-1-0.5-1.9c0-0.5,0-1.1,0.1-1.9v-0.4h0.7c-0.1,1-0.1,1.7-0.1,2.3
				c0,0.5,0.1,0.9,0.3,1.2c0.2,0.3,0.5,0.4,0.9,0.4s0.7-0.2,0.9-0.4c0.1-0.2,0.2-0.8,0.3-1.6c0.1-0.8,0.2-1.4,0.5-1.7
				c0.2-0.3,0.6-0.5,1.3-0.5c0.6,0,1.1,0.2,1.4,0.6c0.3,0.4,0.5,1,0.5,1.6c0,0.5,0,1.2-0.1,2V70h-0.7
				C130.7,69.1,130.8,68.3,130.7,67.8z"/>
			<path class="st2" d="M130.3,77.1l0.2-2.2l-3.2-0.2c-0.8-0.1-1.4,0-1.7,0.1c-0.3,0.1-0.4,0.4-0.5,0.8v1.2h-0.7c0-0.6-0.1-1,0-1.3
				c0.1-0.7,0.2-1.1,0.6-1.3c0.3-0.2,1-0.3,1.9-0.2l3.7,0.2l0.1-1l0.7,0.1l-0.1,1l2.1,0.2l-0.1,0.8l-2.1-0.2l-0.2,2.2L130.3,77.1z"
				/>
			<path class="st2" d="M124.1,79.1l6.5,1.2l-0.1,0.8l-0.9-0.2c0.2,0.4,0.3,0.8,0.4,1.3s0.2,1,0.2,1.3l-0.8-0.1
				c0-0.4-0.1-0.8-0.1-1.2c-0.1-0.4-0.2-0.8-0.3-1l-0.1-0.4l-4.9-0.9L124.1,79.1z"/>
			<path class="st2" d="M128.1,90.6l-0.2,0.7l-6.3-1.9l0.2-0.7l0.5,0.1c-0.2-0.8-0.2-1.5,0-2.1c0.3-0.9,0.7-1.3,1.2-1.5
				c0.5-0.1,1.4,0,2.6,0.4l3.3,1l-0.2,0.7l-3.3-1c-1-0.3-1.7-0.4-2-0.3c-0.4,0.1-0.7,0.4-0.9,1c-0.1,0.3-0.1,0.6-0.1,0.9
				s0,0.6,0,0.8L123,89L128.1,90.6z"/>
			<path class="st2" d="M125.4,97.5c-0.2,0.4-0.4,0.8-0.7,1.2l-0.2,0.3l-0.6-0.3c0.4-0.6,0.6-1,0.8-1.3c0.3-0.7,0.4-1.3,0.2-1.7
				c-0.2-0.4-0.8-0.9-1.7-1.3c-0.9-0.4-1.6-0.6-2.1-0.5s-0.9,0.5-1.2,1.2l-0.6,1.5l-0.7-0.4c0.2-0.8,0.4-1.3,0.6-1.6
				c0.4-0.9,1-1.5,1.6-1.6s1.5,0.1,2.7,0.6c1.1,0.5,1.9,1.1,2.1,1.7C125.9,95.9,125.8,96.6,125.4,97.5z"/>
			<path class="st2" d="M121.7,104.1c-0.2,0.3-0.5,0.7-0.9,1.1l-0.2,0.2l-0.5-0.4c0.4-0.5,0.7-1,0.9-1.2c0.4-0.7,0.5-1.2,0.4-1.7
				c-0.2-0.4-0.7-0.9-1.6-1.5s-1.5-0.8-2-0.8s-0.9,0.4-1.4,1.1l-0.7,1.4l-0.6-0.3c0.3-0.7,0.6-1.2,0.8-1.6c0.6-0.9,1.1-1.4,1.8-1.4
				c0.6-0.1,1.5,0.3,2.6,0.9c1.1,0.7,1.7,1.3,1.9,1.9C122.4,102.6,122.2,103.3,121.7,104.1z"/>
			<path class="st2" d="M113.5,104.3l5.2,4l-0.5,0.6l-5.2-4L113.5,104.3z M120,109.3l0.8,0.6l-0.5,0.6l-0.8-0.6L120,109.3z"/>
			<path class="st2" d="M114.2,113.8c-0.7,0.7-1.4,1.1-2,1c-0.7-0.1-1.4-0.5-2.3-1.4s-1.4-1.6-1.5-2.2s0.2-1.3,0.9-2.1
				c0.7-0.8,1.4-1.1,2.1-1c0.6,0.1,1.4,0.5,2.3,1.4s1.4,1.6,1.5,2.3S114.9,113.1,114.2,113.8z M109.7,109.6
				c-0.6,0.6-0.8,1.1-0.7,1.6c0.1,0.5,0.6,1,1.3,1.7c0.7,0.7,1.4,1.1,1.8,1.2c0.5,0.1,1-0.2,1.5-0.7s0.7-1,0.6-1.5s-0.5-1-1.3-1.8
				c-0.8-0.7-1.4-1.1-1.8-1.2C110.8,108.7,110.3,109,109.7,109.6z M116.3,114l-1,2.9l-0.7-0.3l1.1-2.8L116.3,114z"/>
			<path class="st2" d="M104.6,113.7l0.6-0.5l4.1,5.2l-0.6,0.5l-0.3-0.4c-0.3,0.8-0.8,1.4-1.3,1.8c-0.7,0.5-1.3,0.7-1.8,0.5
				s-1.2-0.8-1.9-1.7l-2.1-2.7l0.6-0.5l2.1,2.7c0.6,0.8,1.1,1.3,1.5,1.4c0.4,0.2,0.8,0,1.3-0.3c0.2-0.2,0.5-0.4,0.7-0.7
				c0.2-0.3,0.4-0.5,0.4-0.7l0.1-0.3L104.6,113.7z"/>
			<path class="st2" d="M91.2,122.1l3,8.6l-1.4,0.5l-5.3-6.6v8.5l-1.4,0.5l-3-8.6l0.8-0.3l2.7,7.8l0.2-0.1l0.1-8.5l0.9-0.3l5.3,6.6
				l0.2-0.1l-2.7-7.8L91.2,122.1z"/>
			<path class="st2" d="M78.3,132.6c-1,0.2-1.7,0-2.2-0.4s-0.8-1.3-1-2.5s-0.1-2.1,0.1-2.7c0.3-0.6,1-1,2-1.1c1.1-0.2,1.8,0,2.3,0.4
				c0.5,0.5,0.8,1.3,1,2.5s0.1,2.1-0.2,2.7C80,132.1,79.3,132.5,78.3,132.6z M77.4,126.6c-0.8,0.1-1.3,0.4-1.5,0.8s-0.2,1.2,0,2.2
				s0.4,1.7,0.7,2c0.3,0.3,0.9,0.4,1.6,0.3c0.7-0.1,1.2-0.4,1.4-0.8c0.2-0.4,0.2-1.1,0.1-2.2c-0.2-1-0.4-1.7-0.7-2.1
				C78.7,126.6,78.2,126.4,77.4,126.6z M79.9,134.1l-2.5,1.7l-0.4-0.6l2.5-1.6L79.9,134.1z"/>
			<path class="st2" d="M66.9,136.2l-0.1-9.5h0.8v0.5c0.7-0.4,1.4-0.6,2.1-0.6c0.3,0,0.6,0,0.8,0.1c0.2,0.1,0.5,0.2,0.7,0.4
				c0.5,0.4,0.8,1.3,0.8,2.6s-0.2,2.2-0.6,2.8s-1.1,0.9-2.1,0.9c-0.4,0-0.9,0-1.7-0.1v3L66.9,136.2z M70.1,127.4
				c-0.2-0.1-0.4-0.1-0.6-0.1c-0.3,0-0.6,0.1-0.9,0.2s-0.6,0.2-0.8,0.3l-0.3,0.1l0.1,4.7c0.7,0.1,1.2,0.1,1.6,0.1
				c0.7,0,1.3-0.2,1.5-0.7c0.3-0.5,0.4-1.2,0.4-2.1c0-1.1-0.2-1.9-0.5-2.2C70.5,127.5,70.3,127.4,70.1,127.4z"/>
			<path class="st2" d="M58.6,132.5l-0.8-0.1l0.9-6.5l0.8,0.1l-0.1,0.5c0.7-0.3,1.4-0.4,2.1-0.3c0.9,0.1,1.4,0.4,1.7,0.9
				c0.2,0.5,0.3,1.4,0.1,2.6l-0.4,3.4l-0.8-0.1l0.4-3.4c0.1-1,0.1-1.7,0-2.1s-0.5-0.6-1.1-0.7c-0.3,0-0.6,0-1,0
				c-0.3,0-0.6,0.1-0.8,0.2l-0.3,0.1L58.6,132.5z"/>
			<path class="st2" d="M55.4,125.2l-2.3,9.2l-0.8-0.2l2.3-9.2L55.4,125.2z"/>
			<path class="st2" d="M45.7,127l1.2-3.3c0.1-0.3-0.1-0.6-0.6-0.8l0.2-0.6c0.6,0.2,1,0.6,1.2,1c0.9-0.1,1.7,0.1,2.5,0.3
				c0.6,0.2,0.9,0.5,1.1,0.9c0.2,0.4,0.2,0.9-0.1,1.5c-0.2,0.6-0.5,1-0.9,1.2s-0.9,0.2-1.6,0l-2.2-0.5l-0.2,0.6
				c-0.2,0.5-0.2,0.8-0.1,1.1c0.1,0.3,0.4,0.5,0.7,0.6c0.5,0.2,1.2,0.4,2.1,0.6l0.4,0.1l-0.2,0.6c-1-0.2-1.8-0.4-2.5-0.6
				c-0.7-0.2-1.1-0.6-1.3-1C45.4,128.2,45.4,127.6,45.7,127z M50.5,125.8c0.3-0.8,0.1-1.4-0.6-1.6c-0.3-0.1-0.6-0.2-1-0.2
				c-0.4-0.1-0.7-0.1-0.9-0.1h-0.4l-0.8,2.2l2.1,0.5c0.4,0.1,0.7,0.1,1,0C50.1,126.4,50.3,126.2,50.5,125.8z"/>
			<path class="st2" d="M44.2,121.3l-3,5.9l-0.7-0.4l0.4-0.8c-0.4,0.1-0.8,0.1-1.4,0.1c-0.5,0-1-0.1-1.3-0.2l0.4-0.7
				c0.4,0.1,0.8,0.2,1.2,0.2s0.8,0.1,1,0h0.4l2.2-4.4L44.2,121.3z"/>
			<path class="st2" d="M28.6,119.1l-0.6-0.5l2.6-5.6l-0.4-0.3l-5.2,3.2l-0.6-0.5l8.5-5.2l0.6,0.5l-2.6,1.6l0.7,0.6L28.6,119.1z"/>
			<path class="st2" d="M22.5,103.2l-9.2,2.6l-1-1.6l6.4-7.1l0.4,0.7l-1.8,2l2.1,3.5l2.5-0.7L22.5,103.2z M13.6,104.9l5.2-1.5
				l-1.9-3.1l-3.6,4L13.6,104.9z"/>
			<path class="st2" d="M17.6,94.7l-8.6,4L8.7,98l8.6-4L17.6,94.7z"/>
			<path class="st2" d="M15.4,89c0.3,0.8,0.2,1.5-0.1,2c-0.4,0.5-1.1,1-2.3,1.4s-2.1,0.5-2.7,0.2c-0.7-0.3-1.2-0.9-1.5-2l-0.6-2
				l9-3.1l0.3,0.7l-3.1,1.1C14.8,87.7,15.2,88.3,15.4,89z M9.4,90.3c0.3,0.8,0.7,1.3,1.2,1.5s1.2,0.1,2.1-0.2c0.9-0.3,1.5-0.7,1.8-1
				s0.4-0.9,0.2-1.5c-0.1-0.3-0.2-0.6-0.4-0.8c-0.2-0.3-0.3-0.5-0.4-0.6l-0.2-0.2l-4.6,1.6C9.2,89.7,9.3,90.1,9.4,90.3z"/>
			<path class="st2" d="M6.3,80.4l-0.1-0.8l6.5-1.2l0.1,0.8l-0.5,0.1c0.5,0.6,0.9,1.2,1,1.9c0.2,0.9,0.1,1.5-0.3,1.9
				c-0.4,0.4-1.2,0.7-2.5,0.9l-3.4,0.6L7,83.8l3.3-0.6c1-0.2,1.7-0.4,2-0.7c0.3-0.2,0.4-0.7,0.3-1.3c-0.1-0.3-0.2-0.6-0.3-0.9
				c-0.2-0.3-0.3-0.5-0.4-0.7l-0.2-0.2L6.3,80.4z"/>
			<path class="st2" d="M4.1,75.9l-1,0.1v-0.8l1-0.1V75.9z M12.3,75.2l-6.6,0.5l-0.1-0.8l6.6-0.5L12.3,75.2z"/>
			<path class="st2" d="M12.1,71.2H2.6v-0.8l9.5-0.1V71.2z"/>
			<path class="st2" d="M11.9,62.7v-0.4h0.6c0,1,0,1.8-0.1,2.5c-0.1,0.9-0.4,1.6-1,1.9S9.9,67.1,8.8,67c-2.3-0.2-3.3-1.2-3.2-3
				c0.2-0.8,0.5-1.5,1-1.8c0.5-0.4,1.3-0.5,2.4-0.4l0.6,0.1l-0.4,4.4c0.8,0.1,1.4,0,1.8-0.2c0.4-0.2,0.7-0.7,0.7-1.4
				C11.9,64,11.9,63.4,11.9,62.7z M8.6,66.2L9,62.5c-0.9-0.1-1.5,0-1.9,0.2S6.5,63.4,6.4,64c-0.1,0.6,0.1,1.1,0.4,1.5
				C7.2,65.9,7.8,66.2,8.6,66.2z"/>
			<path class="st2" d="M13.2,59.3l-6.4-1.4L7,57.1l0.9,0.2c-0.2-0.4-0.3-0.8-0.4-1.3s-0.1-1-0.1-1.4l0.8,0.2c0,0.4,0,0.8,0.1,1.2
				c0.1,0.4,0.1,0.8,0.2,1l0.1,0.4l4.8,1.1L13.2,59.3z"/>
			<path class="st2" d="M15.3,49.6l0.1-0.4l0.6,0.2c-0.2,1-0.4,1.8-0.7,2.4c-0.3,0.9-0.8,1.4-1.5,1.6c-0.6,0.2-1.5,0.1-2.6-0.3
				c-2.2-0.8-3-2-2.4-3.7c0.3-0.8,0.7-1.3,1.3-1.6c0.6-0.2,1.4-0.2,2.5,0.2l0.6,0.2l-1.5,4.2c0.8,0.3,1.4,0.3,1.8,0.2
				c0.5-0.1,0.8-0.5,1-1.1C14.9,50.9,15.1,50.2,15.3,49.6z M11.2,52.2l1.2-3.5c-0.8-0.3-1.4-0.4-1.9-0.2c-0.4,0.1-0.8,0.5-1,1.1
				c-0.1,0.6-0.1,1.1,0.2,1.6C9.9,51.6,10.4,52,11.2,52.2z"/>
			<path class="st2" d="M12.9,42.1c-0.5,0.9-0.4,1.6,0.3,1.9c0.3,0.2,0.6,0.2,0.8,0c0.2-0.1,0.6-0.5,1.1-1.2s0.9-1.1,1.3-1.3
				c0.4-0.2,0.8-0.1,1.4,0.2s0.9,0.7,1,1.2s-0.1,1.2-0.4,1.9c-0.2,0.4-0.6,1-1,1.6l-0.2,0.3l-0.6-0.4c0.6-0.8,1-1.4,1.2-1.9
				s0.3-0.9,0.3-1.2s-0.2-0.6-0.6-0.8s-0.7-0.2-0.9-0.1c-0.2,0.1-0.6,0.5-1.1,1.2c-0.5,0.6-0.9,1.1-1.2,1.3s-0.8,0.1-1.4-0.2
				c-0.6-0.3-0.9-0.7-0.9-1.2c-0.1-0.5,0.1-1.1,0.4-1.7c0.2-0.5,0.6-1,1.1-1.7l0.2-0.3l0.6,0.3C13.6,40.9,13.2,41.5,12.9,42.1z"/>
		</g>
	</g>
	<g>
		<path class="st0" d="M33,26.8c0.9-1.9,1.5-3.6,1.8-4.9c0.3-1.5,0.2-2.5-0.4-3.5c-0.6-0.9-1.4-1.1-2.2-0.6c-0.8,0.6-1,1.4-0.4,2.3
			c0.2,0.2,0.4,0.5,0.6,0.7L30,22.2c-0.2-0.2-0.4-0.5-0.6-0.7c-1.2-1.8-0.6-4,1.7-5.5c2.2-1.5,4.3-1.3,5.6,0.6
			c0.9,1.3,1.1,2.8,0.6,4.7c-0.3,1-0.7,2.1-1.3,3.3l4.3-2.9l1.2,1.8l-7.3,5L33,26.8z"/>
		<path class="st0" d="M43.5,22.3c-1.4-3.1-1.3-6.7-0.1-10.2l-5.2,2.4l-0.9-2.1l7.7-3.5l0.9,1.9c-1.2,3.4-1.2,6.7,0.3,10.1l0.2,0.4
			l-2.7,1.2L43.5,22.3z"/>
		<path class="st0" d="M62.4,14L58,14.6l-0.5,2.9l-2.8,0.4l2.7-12.6l3.2-0.5l6,11.3l-2.9,0.4L62.4,14z M61.5,12.1l-1.6-3.2
			c-0.2-0.5-0.5-0.9-0.7-1.6l0,0C59.2,8,59.1,8.5,59,9l-0.6,3.5L61.5,12.1z"/>
		<path class="st0" d="M69.2,4.3l3.2,0.3l3.2,7.2c0.2,0.5,0.5,1.2,0.6,1.6l0,0c0-0.5,0.1-1,0.1-1.5L77,5.1l2.6,0.3l-1.2,12l-3-0.3
			l-3.3-7.3c-0.2-0.6-0.5-1.1-0.6-1.5l0,0c0,0.5-0.1,1-0.1,1.6l-0.7,6.8l-2.6-0.3L69.2,4.3z M73.4,3.1c-0.4,0-0.7,0.2-0.9,0.8
			l-1.3-0.6c0.4-1.2,1.2-1.9,2.3-1.8c1.3,0.1,1.6,1.2,2.4,1.3c0.4,0,0.7-0.2,0.9-0.8L78,2.7c-0.3,1.2-1.2,1.8-2.3,1.7
			C74.5,4.3,74.1,3.2,73.4,3.1z"/>
		<path class="st0" d="M82.5,12c1.3-3.7,4.3-5.2,7.7-3.9c3.4,1.2,4.8,4.3,3.5,8c-1.3,3.7-4.3,5.2-7.7,3.9
			C82.6,18.8,81.2,15.7,82.5,12z M90.9,15.1c0.9-2.4,0.3-4.2-1.4-4.8s-3.3,0.4-4.2,2.8c-0.9,2.4-0.3,4.2,1.5,4.9
			C88.5,18.5,90.1,17.5,90.9,15.1z"/>
		<path class="st0" d="M93.4,19.8l2.6-0.1c-0.1,1.4,0.3,2.7,1.7,3.5c1,0.6,2,0.7,2.5-0.1c0.5-0.8,0.2-1.3-0.7-2.2l-1.2-1.2
			c-1.5-1.5-2-3.1-0.9-4.8c1.2-1.9,3.4-2.1,5.9-0.5c1.8,1.1,2.9,2.8,2.8,4.6l-2.4,0.3c0.1-1.3-0.5-2.5-1.6-3.2c-1-0.6-1.8-0.6-2.2,0
			c-0.4,0.7-0.2,1.2,0.7,2.2l1.3,1.3c1.6,1.5,2,3,0.9,4.8c-1.2,1.9-3.6,2.3-6.2,0.6C94.1,23.6,93.2,21.7,93.4,19.8z"/>
	</g>
</g>
</svg>
