<?xml version="1.0" encoding="utf-8"?>
<!-- Generator: Adobe Illustrator 23.1.1, SVG Export Plug-In . SVG Version: 6.00 Build 0)  -->
<svg version="1.1" id="Capa_1" xmlns="http://www.w3.org/2000/svg" xmlns:xlink="http://www.w3.org/1999/xlink" x="0px" y="0px"
	 viewBox="0 0 136.7 138" style="enable-background:new 0 0 136.7 138;" xml:space="preserve">
<style type="text/css">
	.st0{fill:#07A89C;}
	.st1{fill:#878787;}
	.st2{fill:#3B3B3B;}
</style>
<g>
	<g>
		<path class="st0" d="M58.7,45.1c-1.7-0.9-2.8-1.1-3.9,0c-0.6,0.6-0.8,1.4-0.7,2.4L55,62.2c0.1,0.9-0.2,1.7-0.8,2.4s-1.3,1.6-2,2.5
			c-0.2,0.2-0.3,0.4-0.5,0.6c-0.5,0.7-1.3,1.2-2.2,1.3l-14.2,2c-1.5,0.2-1.9,0.6-2.4,1.5s-0.3,2.1,0.5,3l9,11.2l0.1,0.1
			c0.6,0.7,0.8,1.7,0.7,2.6c0,0.1,0,0.1,0,0.2c-0.2,1-0.3,2.4-0.4,3.6c0,0.1,0,0.2,0,0.4c0,1.3,0.7,3.5,3.5,3.6c0.8,0,2.6,0,5.2,0
			c1.7,0,3.3-1.5,3.4-3c0-0.1,0-0.1,0-0.2C56,73.7,71.7,60.3,88.4,59.5c0.2,0,0.5-0.1,0.7-0.1c1.6-0.2,2.9-1.8,2.9-3.3
			C92,45.7,92,37,92,37c0.1-1.5-0.6-2.2-2.1-2.6c-1-0.3-2,0.1-2.8,1.4L80,47.5l-0.1,0.2c-0.4,0.7-1.2,1.3-2,1.6
			c-0.1,0-0.1,0-0.2,0.1c-0.7,0.2-1.6,0.5-3,0.9c-0.4,0.1-0.7,0.2-1.1,0.4c-0.9,0.3-1.9,0.3-2.8-0.1h-0.1l-11.8-5.2L58.7,45.1"/>
		<path class="st1" d="M91.9,94V72.1c0-2.1-1.8-3.8-3.7-3.6c-0.1,0-1.8,0.3-2.1,0.4c-12.4,2.4-20.6,11.8-22,24.4c-0.2,2,1.3,4,3.5,4
			h20.8C90.5,97.3,91.9,95.5,91.9,94z"/>
		<path class="st1" d="M22.7,31.7c-0.2-0.2-0.3-0.3-0.4-0.5s-0.2-0.4-0.2-0.6s0-0.4,0.1-0.7c0.1-0.2,0.2-0.4,0.3-0.6
			c0.2-0.2,0.3-0.3,0.5-0.4c0.2-0.1,0.4-0.2,0.6-0.2s0.4,0,0.7,0.1c0.2,0.1,0.4,0.2,0.6,0.3c0.2,0.2,0.3,0.3,0.4,0.5
			s0.2,0.4,0.2,0.6s0,0.4-0.1,0.7c-0.1,0.2-0.2,0.4-0.3,0.6c-0.2,0.2-0.3,0.3-0.5,0.4c-0.2,0.1-0.4,0.2-0.6,0.2s-0.4,0-0.7-0.1
			C23.1,32,22.9,31.8,22.7,31.7z"/>
		<path class="st1" d="M112.4,28.6c0.2-0.2,0.4-0.3,0.6-0.3c0.2-0.1,0.4-0.1,0.7-0.1c0.2,0,0.4,0.1,0.6,0.2c0.2,0.1,0.4,0.2,0.5,0.4
			c0.2,0.2,0.3,0.4,0.3,0.6c0.1,0.2,0.1,0.4,0.1,0.7c0,0.2-0.1,0.4-0.2,0.6s-0.2,0.4-0.4,0.5c-0.2,0.2-0.4,0.3-0.6,0.3
			c-0.2,0.1-0.4,0.1-0.7,0.1c-0.2,0-0.4-0.1-0.6-0.2s-0.4-0.2-0.5-0.4c-0.2-0.2-0.3-0.4-0.3-0.6c-0.1-0.2-0.1-0.4-0.1-0.7
			c0-0.2,0.1-0.4,0.2-0.6S112.2,28.7,112.4,28.6z"/>
		<g>
			<path class="st2" d="M120.7,46.9c-0.6-0.7-1-1.4-1.3-1.9c-0.3-0.6-0.5-1.1-0.5-1.5c-0.1-0.4,0-0.8,0.1-1.1s0.3-0.6,0.6-0.9
				c0.5-0.6,1.3-1.1,2.4-1.7c1.8-0.9,3.1-1.2,3.9-0.9c0.7,0.2,1.3,0.8,1.8,1.8c0.3,0.6,0.6,1.4,0.9,2.3l-0.6,0.3
				c-0.3-0.9-0.5-1.6-0.8-2.1c-0.2-0.5-0.5-0.8-0.7-1.1c-0.2-0.2-0.5-0.4-0.8-0.4c-0.3-0.1-0.6-0.1-0.9,0c-0.6,0.1-1.3,0.4-2.1,0.8
				c-0.8,0.4-1.4,0.7-1.7,1c-0.4,0.3-0.7,0.5-0.9,0.9c-0.2,0.3-0.4,0.7-0.3,1c0,0.4,0.2,0.8,0.4,1.4c0.3,0.5,0.7,1.2,1.2,1.9
				L120.7,46.9z"/>
			<path class="st2" d="M124.6,48.1c1.2-0.4,2.1-0.5,2.7-0.2c0.6,0.2,1.1,0.8,1.4,1.8s0.3,1.7-0.1,2.3c-0.4,0.6-1.1,1-2.3,1.4
				c-1.2,0.4-2.1,0.5-2.7,0.3s-1.1-0.8-1.4-1.8s-0.3-1.8,0.1-2.3C122.7,48.9,123.4,48.4,124.6,48.1z M124.9,48.8
				c-1,0.3-1.6,0.7-1.9,1c-0.3,0.4-0.3,0.9-0.1,1.7c0.3,0.8,0.6,1.2,1.1,1.3s1.2,0,2.2-0.3s1.6-0.7,1.9-1.1c0.3-0.4,0.3-0.9,0.1-1.6
				c-0.2-0.7-0.6-1.1-1-1.3C126.6,48.4,125.9,48.5,124.9,48.8z"/>
			<path class="st2" d="M124.1,58l-0.1-0.8l6.5-1.2l0.1,0.8l-0.5,0.1c0.5,0.7,0.9,1.3,1,2c0.2,0.9,0,1.5-0.4,1.9s-1.2,0.7-2.4,0.9
				l-3.4,0.6l-0.1-0.8l3.4-0.6c1-0.2,1.6-0.4,2-0.6c0.3-0.3,0.4-0.7,0.3-1.3c-0.1-0.3-0.2-0.6-0.3-0.9c-0.2-0.3-0.3-0.6-0.4-0.7
				l-0.2-0.3L124.1,58z"/>
			<path class="st2" d="M131.2,67.1c0-1-0.4-1.5-1.2-1.5c-0.3,0-0.6,0.1-0.7,0.4c-0.1,0.2-0.2,0.8-0.4,1.6c-0.1,0.8-0.3,1.4-0.5,1.7
				c-0.2,0.3-0.7,0.5-1.3,0.5c-0.7,0-1.2-0.2-1.5-0.6s-0.5-1-0.5-1.9c0-0.5,0-1.1,0.1-1.9V65h0.7c-0.1,1-0.1,1.7-0.1,2.3
				c0,0.5,0.1,0.9,0.3,1.2c0.2,0.3,0.5,0.4,0.9,0.4s0.7-0.2,0.9-0.4c0.1-0.2,0.2-0.8,0.3-1.6c0.1-0.8,0.2-1.4,0.5-1.7
				c0.2-0.3,0.6-0.5,1.3-0.5c0.6,0,1.1,0.2,1.4,0.6c0.3,0.4,0.5,1,0.5,1.6c0,0.5,0,1.2-0.1,2v0.4h-0.7
				C131.2,68.4,131.3,67.6,131.2,67.1z"/>
			<path class="st2" d="M130.8,76.4l0.2-2.2l-3.2-0.2c-0.8-0.1-1.4,0-1.7,0.1c-0.3,0.1-0.4,0.4-0.5,0.8v1.2h-0.7c0-0.6-0.1-1,0-1.3
				c0.1-0.7,0.2-1.1,0.6-1.3c0.3-0.2,1-0.3,1.9-0.2l3.7,0.2l0.1-1l0.7,0.1l-0.1,1l2.1,0.2l-0.1,0.8l-2.1-0.2l-0.2,2.2L130.8,76.4z"
				/>
			<path class="st2" d="M124.6,78.4l6.5,1.2l-0.1,0.8l-0.9-0.2c0.2,0.4,0.3,0.8,0.4,1.3c0.1,0.5,0.2,1,0.2,1.3l-0.8-0.1
				c0-0.4-0.1-0.8-0.1-1.2c-0.1-0.4-0.2-0.8-0.3-1l-0.1-0.4l-4.9-0.9L124.6,78.4z"/>
			<path class="st2" d="M128.6,89.9l-0.2,0.7l-6.3-1.9l0.2-0.7l0.5,0.1c-0.2-0.8-0.2-1.5,0-2.1c0.3-0.9,0.7-1.3,1.2-1.5
				c0.5-0.1,1.4,0,2.6,0.4l3.3,1l-0.2,0.7l-3.3-1c-1-0.3-1.7-0.4-2-0.3c-0.4,0.1-0.7,0.4-0.9,1c-0.1,0.3-0.1,0.6-0.1,0.9
				s0,0.6,0,0.8l0.1,0.3L128.6,89.9z"/>
			<path class="st2" d="M125.9,96.8c-0.2,0.4-0.4,0.8-0.7,1.2l-0.2,0.3l-0.6-0.3c0.4-0.6,0.6-1,0.8-1.3c0.3-0.7,0.4-1.3,0.2-1.7
				c-0.2-0.4-0.8-0.9-1.7-1.3c-0.9-0.4-1.6-0.6-2.1-0.5s-0.9,0.5-1.2,1.2l-0.6,1.5l-0.7-0.4c0.2-0.8,0.4-1.3,0.6-1.6
				c0.4-0.9,1-1.5,1.6-1.6s1.5,0.1,2.7,0.6c1.1,0.5,1.9,1.1,2.1,1.7C126.4,95.2,126.3,95.9,125.9,96.8z"/>
			<path class="st2" d="M122.2,103.4c-0.2,0.3-0.5,0.7-0.9,1.1l-0.2,0.2l-0.5-0.4c0.4-0.5,0.7-1,0.9-1.2c0.4-0.7,0.5-1.2,0.4-1.7
				c-0.2-0.4-0.7-0.9-1.6-1.5s-1.5-0.8-2-0.8s-0.9,0.4-1.4,1.1l-0.7,1.4l-0.6-0.3c0.3-0.7,0.6-1.2,0.8-1.6c0.6-0.9,1.1-1.4,1.8-1.4
				c0.6-0.1,1.5,0.3,2.6,0.9c1.1,0.7,1.7,1.3,1.9,1.9C122.9,101.9,122.7,102.6,122.2,103.4z"/>
			<path class="st2" d="M114,103.6l5.2,4l-0.5,0.6l-5.2-4L114,103.6z M120.5,108.6l0.8,0.6l-0.5,0.6l-0.8-0.6L120.5,108.6z"/>
			<path class="st2" d="M114.7,113.1c-0.7,0.7-1.4,1.1-2,1c-0.7-0.1-1.4-0.5-2.3-1.4s-1.4-1.6-1.5-2.2s0.2-1.3,0.9-2.1
				c0.7-0.8,1.4-1.1,2.1-1c0.6,0.1,1.4,0.5,2.3,1.4s1.4,1.6,1.5,2.3S115.4,112.4,114.7,113.1z M110.2,108.9
				c-0.6,0.6-0.8,1.1-0.7,1.6c0.1,0.5,0.6,1,1.3,1.7c0.7,0.7,1.4,1.1,1.8,1.2c0.5,0.1,1-0.2,1.5-0.7s0.7-1,0.6-1.5s-0.5-1-1.3-1.8
				c-0.8-0.7-1.4-1.1-1.8-1.2C111.3,108,110.8,108.3,110.2,108.9z M116.8,113.3l-1,2.9l-0.7-0.3l1.1-2.8L116.8,113.3z"/>
			<path class="st2" d="M105.1,113l0.6-0.5l4.1,5.2l-0.6,0.5l-0.3-0.4c-0.3,0.8-0.8,1.4-1.3,1.8c-0.7,0.5-1.3,0.7-1.8,0.5
				s-1.2-0.8-1.9-1.7l-2.1-2.7l0.6-0.5l2.1,2.7c0.6,0.8,1.1,1.3,1.5,1.4c0.4,0.2,0.8,0,1.3-0.3c0.2-0.2,0.5-0.4,0.7-0.7
				c0.2-0.3,0.4-0.5,0.4-0.7l0.1-0.3L105.1,113z"/>
			<path class="st2" d="M91.7,121.4l3,8.6l-1.4,0.5l-5.3-6.6v8.5l-1.4,0.5l-3-8.6l0.8-0.3l2.7,7.8l0.2-0.1l0.1-8.5l0.9-0.3l5.3,6.6
				l0.2-0.1l-2.7-7.8L91.7,121.4z"/>
			<path class="st2" d="M78.8,131.9c-1,0.2-1.7,0-2.2-0.4s-0.8-1.3-1-2.5s-0.1-2.1,0.1-2.7c0.3-0.6,1-1,2-1.1c1.1-0.2,1.8,0,2.3,0.4
				c0.5,0.5,0.8,1.3,1,2.5s0.1,2.1-0.2,2.7C80.5,131.4,79.8,131.8,78.8,131.9z M77.9,125.9c-0.8,0.1-1.3,0.4-1.5,0.8s-0.2,1.2,0,2.2
				s0.4,1.7,0.7,2c0.3,0.3,0.9,0.4,1.6,0.3c0.7-0.1,1.2-0.4,1.4-0.8c0.2-0.4,0.2-1.1,0.1-2.2c-0.2-1-0.4-1.7-0.7-2.1
				C79.2,125.9,78.7,125.7,77.9,125.9z M80.4,133.4l-2.5,1.7l-0.4-0.6l2.5-1.6L80.4,133.4z"/>
			<path class="st2" d="M67.4,135.5l-0.1-9.5h0.8v0.5c0.7-0.4,1.4-0.6,2.1-0.6c0.3,0,0.6,0,0.8,0.1c0.2,0.1,0.5,0.2,0.7,0.4
				c0.5,0.4,0.8,1.3,0.8,2.6s-0.2,2.2-0.6,2.8s-1.1,0.9-2.1,0.9c-0.4,0-0.9,0-1.7-0.1v3L67.4,135.5z M70.6,126.7
				c-0.2-0.1-0.4-0.1-0.6-0.1c-0.3,0-0.6,0.1-0.9,0.2s-0.6,0.2-0.8,0.3l-0.3,0.1l0.1,4.7c0.7,0.1,1.2,0.1,1.6,0.1
				c0.7,0,1.3-0.2,1.5-0.7c0.3-0.5,0.4-1.2,0.4-2.1c0-1.1-0.2-1.9-0.5-2.2C71,126.8,70.8,126.7,70.6,126.7z"/>
			<path class="st2" d="M59.1,131.8l-0.8-0.1l0.9-6.5l0.8,0.1l-0.1,0.5c0.7-0.3,1.4-0.4,2.1-0.3c0.9,0.1,1.4,0.4,1.7,0.9
				c0.2,0.5,0.3,1.4,0.1,2.6l-0.4,3.4l-0.8-0.1l0.4-3.4c0.1-1,0.1-1.7,0-2.1s-0.5-0.6-1.1-0.7c-0.3,0-0.6,0-1,0
				c-0.3,0-0.6,0.1-0.8,0.2l-0.3,0.1L59.1,131.8z"/>
			<path class="st2" d="M55.9,124.5l-2.3,9.2l-0.8-0.2l2.3-9.2L55.9,124.5z"/>
			<path class="st2" d="M46.2,126.3l1.2-3.3c0.1-0.3-0.1-0.6-0.6-0.8l0.2-0.6c0.6,0.2,1,0.6,1.2,1c0.9-0.1,1.7,0.1,2.5,0.3
				c0.6,0.2,0.9,0.5,1.1,0.9c0.2,0.4,0.2,0.9-0.1,1.5c-0.2,0.6-0.5,1-0.9,1.2s-0.9,0.2-1.6,0L47,126l-0.2,0.6
				c-0.2,0.5-0.2,0.8-0.1,1.1c0.1,0.3,0.4,0.5,0.7,0.6c0.5,0.2,1.2,0.4,2.1,0.6l0.4,0.1l-0.2,0.6c-1-0.2-1.8-0.4-2.5-0.6
				c-0.7-0.2-1.1-0.6-1.3-1C45.9,127.5,45.9,126.9,46.2,126.3z M51,125.1c0.3-0.8,0.1-1.4-0.6-1.6c-0.3-0.1-0.6-0.2-1-0.2
				c-0.4-0.1-0.7-0.1-0.9-0.1h-0.4l-0.8,2.2l2.1,0.5c0.4,0.1,0.7,0.1,1,0C50.6,125.7,50.8,125.5,51,125.1z"/>
			<path class="st2" d="M44.7,120.6l-3,5.9l-0.7-0.4l0.4-0.8c-0.4,0.1-0.8,0.1-1.4,0.1c-0.5,0-1-0.1-1.3-0.2l0.4-0.7
				c0.4,0.1,0.8,0.2,1.2,0.2s0.8,0.1,1,0h0.4l2.2-4.4L44.7,120.6z"/>
			<path class="st2" d="M29.1,118.4l-0.6-0.5l2.6-5.6l-0.4-0.3l-5.2,3.2l-0.6-0.5l8.5-5.2L34,110l-2.6,1.6l0.7,0.6L29.1,118.4z"/>
			<path class="st2" d="M23,102.5l-9.2,2.6l-1-1.6l6.4-7.1l0.4,0.7l-1.8,2l2.1,3.5l2.5-0.7L23,102.5z M14.1,104.2l5.2-1.5l-1.9-3.1
				l-3.6,4L14.1,104.2z"/>
			<path class="st2" d="M18.1,94l-8.6,4l-0.3-0.7l8.6-4L18.1,94z"/>
			<path class="st2" d="M15.9,88.3c0.3,0.8,0.2,1.5-0.1,2c-0.4,0.5-1.1,1-2.3,1.4s-2.1,0.5-2.7,0.2c-0.7-0.3-1.2-0.9-1.5-2l-0.6-2
				l9-3.1l0.3,0.7l-3.1,1.1C15.3,87,15.7,87.6,15.9,88.3z M9.9,89.6c0.3,0.8,0.7,1.3,1.2,1.5s1.2,0.1,2.1-0.2c0.9-0.3,1.5-0.7,1.8-1
				s0.4-0.9,0.2-1.5c-0.1-0.3-0.2-0.6-0.4-0.8c-0.2-0.3-0.3-0.5-0.4-0.6l-0.2-0.2l-4.6,1.6C9.7,89,9.8,89.4,9.9,89.6z"/>
			<path class="st2" d="M6.8,79.7l-0.1-0.8l6.5-1.2l0.1,0.8l-0.5,0.1c0.5,0.6,0.9,1.2,1,1.9c0.2,0.9,0.1,1.5-0.3,1.9
				c-0.4,0.4-1.2,0.7-2.5,0.9l-3.4,0.6l-0.1-0.8l3.3-0.6c1-0.2,1.7-0.4,2-0.7c0.3-0.2,0.4-0.7,0.3-1.3c-0.1-0.3-0.2-0.6-0.3-0.9
				c-0.2-0.3-0.3-0.5-0.4-0.7l-0.2-0.2L6.8,79.7z"/>
			<path class="st2" d="M4.6,75.2l-1,0.1v-0.8l1-0.1V75.2z M12.8,74.5L6.2,75l-0.1-0.8l6.6-0.5L12.8,74.5z"/>
			<path class="st2" d="M12.6,70.5H3.1v-0.8l9.5-0.1V70.5z"/>
			<path class="st2" d="M12.4,62v-0.4H13c0,1,0,1.8-0.1,2.5c-0.1,0.9-0.4,1.6-1,1.9s-1.5,0.4-2.6,0.3c-2.3-0.2-3.3-1.2-3.2-3
				c0.2-0.8,0.5-1.5,1-1.8c0.5-0.4,1.3-0.5,2.4-0.4l0.6,0.1l-0.4,4.4c0.8,0.1,1.4,0,1.8-0.2c0.4-0.2,0.7-0.7,0.7-1.4
				C12.4,63.3,12.4,62.7,12.4,62z M9.1,65.5l0.4-3.7c-0.9-0.1-1.5,0-1.9,0.2S7,62.7,6.9,63.3c-0.1,0.6,0.1,1.1,0.4,1.5
				C7.7,65.2,8.3,65.5,9.1,65.5z"/>
			<path class="st2" d="M13.7,58.6l-6.4-1.4l0.2-0.8l0.9,0.2c-0.2-0.4-0.3-0.8-0.4-1.3c-0.1-0.5-0.1-1-0.1-1.4l0.8,0.2
				c0,0.4,0,0.8,0.1,1.2c0.1,0.4,0.1,0.8,0.2,1l0.1,0.4l4.8,1.1L13.7,58.6z"/>
			<path class="st2" d="M15.8,48.9l0.1-0.4l0.6,0.2c-0.2,1-0.4,1.8-0.7,2.4c-0.3,0.9-0.8,1.4-1.5,1.6c-0.6,0.2-1.5,0.1-2.6-0.3
				c-2.2-0.8-3-2-2.4-3.7c0.3-0.8,0.7-1.3,1.3-1.6c0.6-0.2,1.4-0.2,2.5,0.2l0.6,0.2l-1.5,4.2C13,52,13.6,52,14,51.9
				c0.5-0.1,0.8-0.5,1-1.1C15.4,50.2,15.6,49.5,15.8,48.9z M11.7,51.5l1.2-3.5c-0.8-0.3-1.4-0.4-1.9-0.2c-0.4,0.1-0.8,0.5-1,1.1
				c-0.1,0.6-0.1,1.1,0.2,1.6C10.4,50.9,10.9,51.3,11.7,51.5z"/>
			<path class="st2" d="M13.4,41.4c-0.5,0.9-0.4,1.6,0.3,1.9c0.3,0.2,0.6,0.2,0.8,0c0.2-0.1,0.6-0.5,1.1-1.2s0.9-1.1,1.3-1.3
				s0.8-0.1,1.4,0.2s0.9,0.7,1,1.2s-0.1,1.2-0.4,1.9c-0.2,0.4-0.6,1-1,1.6L17.7,46l-0.6-0.4c0.6-0.8,1-1.4,1.2-1.9s0.3-0.9,0.3-1.2
				s-0.2-0.6-0.6-0.8s-0.7-0.2-0.9-0.1c-0.2,0.1-0.6,0.5-1.1,1.2c-0.5,0.6-0.9,1.1-1.2,1.3s-0.8,0.1-1.4-0.2
				c-0.6-0.3-0.9-0.7-0.9-1.2c-0.1-0.5,0.1-1.1,0.4-1.7c0.2-0.5,0.6-1,1.1-1.7l0.2-0.3l0.6,0.3C14.1,40.2,13.7,40.8,13.4,41.4z"/>
		</g>
	</g>
	<g>
		<path class="st0" d="M33.6,26.1c0.9-1.9,1.5-3.6,1.8-4.9c0.3-1.5,0.2-2.5-0.4-3.5c-0.6-0.9-1.4-1.1-2.2-0.6
			c-0.8,0.6-1,1.4-0.4,2.3c0.2,0.2,0.4,0.5,0.6,0.7l-2.5,1.4c-0.2-0.2-0.4-0.5-0.6-0.7c-1.2-1.8-0.6-4,1.7-5.6
			c2.2-1.5,4.3-1.3,5.6,0.6c0.9,1.3,1.1,2.8,0.6,4.7c-0.3,1-0.7,2.1-1.3,3.3l4.3-2.9l1.2,1.8l-7.3,5L33.6,26.1z"/>
		<path class="st0" d="M49.5,14.9c1,2.3,0.1,4.6-2.3,5.7c-2.8,1.2-5.3,0-6.9-3.5c-1.6-3.6-0.9-6.6,1.9-7.8c2.2-1,3.9-0.6,5,1.1
			l-2.2,1.4c-0.6-0.8-1.3-1-2.1-0.7c-1.2,0.5-1.4,2-0.6,4c0.2-1.1,0.9-1.9,2.1-2.5C46.7,11.9,48.6,12.7,49.5,14.9z M47.2,16.1
			c-0.5-1.1-1.5-1.6-2.5-1.2c-0.9,0.4-1.4,1.3-1.2,2.3c0.8,1.4,1.9,1.9,3,1.5C47.4,18.3,47.7,17.3,47.2,16.1z"/>
		<path class="st0" d="M64.3,13.2l-4.4,0.5l-0.6,2.9L56.4,17l3-12.5l3.3-0.4l5.7,11.5l-2.9,0.3L64.3,13.2z M63.4,11.3l-1.5-3.2
			c-0.2-0.5-0.4-0.9-0.6-1.6l0,0c0,0.7-0.1,1.2-0.2,1.7l-0.7,3.5L63.4,11.3z"/>
		<path class="st0" d="M71.3,3.7l3.2,0.4l3,7.3c0.2,0.5,0.4,1.2,0.5,1.6l0,0c0.1-0.5,0.1-1,0.2-1.5l0.8-6.9L81.7,5l-1.5,12l-3-0.4
			l-3.1-7.4c-0.2-0.6-0.4-1.1-0.5-1.6l0,0c-0.1,0.5-0.1,1-0.2,1.6L72.5,16l-2.6-0.3L71.3,3.7z M75.5,2.6c-0.4,0-0.7,0.2-0.9,0.8
			l-1.3-0.6c0.4-1.2,1.3-1.8,2.3-1.7c1.3,0.2,1.6,1.3,2.4,1.3c0.4,0,0.7-0.2,0.9-0.8l1.2,0.6c-0.4,1.2-1.2,1.8-2.3,1.7
			C76.6,3.8,76.3,2.7,75.5,2.6z"/>
		<path class="st0" d="M84.4,11.7c1.4-3.6,4.5-5.1,7.8-3.8c3.4,1.3,4.7,4.4,3.3,8c-1.4,3.6-4.4,5.1-7.8,3.8
			C84.3,18.5,83,15.3,84.4,11.7z M92.8,14.9c0.9-2.4,0.4-4.2-1.3-4.9c-1.8-0.7-3.4,0.3-4.3,2.7c-0.9,2.4-0.4,4.2,1.3,4.9
			C90.3,18.3,91.9,17.3,92.8,14.9z"/>
		<path class="st0" d="M95.1,19.8l2.6-0.1c-0.2,1.4,0.3,2.7,1.6,3.5c1,0.6,2,0.8,2.5,0c0.5-0.8,0.2-1.3-0.6-2.2l-1.2-1.2
			c-1.5-1.5-1.9-3.2-0.8-4.9c1.2-1.8,3.5-2,5.9-0.4c1.8,1.2,2.8,2.8,2.7,4.6l-2.4,0.3c0.1-1.3-0.4-2.5-1.6-3.3
			c-0.9-0.6-1.8-0.6-2.2,0c-0.4,0.7-0.3,1.2,0.6,2.2l1.2,1.3c1.5,1.6,1.9,3.1,0.8,4.8c-1.3,1.9-3.6,2.2-6.2,0.5
			C95.8,23.6,94.8,21.7,95.1,19.8z"/>
	</g>
</g>
</svg>
