<?xml version="1.0" encoding="utf-8"?>
<!-- Generator: Adobe Illustrator 25.4.1, SVG Export Plug-In . SVG Version: 6.00 Build 0)  -->
<svg version="1.1" id="Capa_1" xmlns="http://www.w3.org/2000/svg" xmlns:xlink="http://www.w3.org/1999/xlink" x="0px" y="0px"
	 viewBox="0 0 354 188" style="enable-background:new 0 0 354 188;" xml:space="preserve">
<style type="text/css">
	.st0{fill:#FFFFFF;}
	.st1{fill:#3B3B3B;}
	.st2{fill:none;stroke:#0B0B0B;stroke-width:1.7116;stroke-miterlimit:10;}
	.st3{fill:none;stroke:#FFFFFF;stroke-width:2.31;stroke-linecap:round;stroke-linejoin:round;stroke-miterlimit:10;}
	.st4{fill:none;stroke:#FFFFFF;stroke-width:1.7363;stroke-linecap:round;stroke-linejoin:round;stroke-miterlimit:10;}
</style>
<g>
	<g>
		<path class="st0" d="M524.08,1976.24L524.08,1976.24c0,0.89-0.72,1.62-1.62,1.62h0c-0.89,0-1.62-0.72-1.62-1.62l0,0
			c0-0.89,0.72-1.62,1.62-1.62h0C523.36,1974.63,524.08,1975.35,524.08,1976.24z"/>
		<path class="st0" d="M524.08,2009.02L524.08,2009.02c0,0.89-0.72,1.62-1.62,1.62h0c-0.89,0-1.62-0.72-1.62-1.62l0,0
			c0-0.89,0.72-1.62,1.62-1.62h0C523.36,2007.41,524.08,2008.13,524.08,2009.02z"/>
		<path class="st0" d="M556.72,1976.24L556.72,1976.24c0,0.89-0.72,1.62-1.62,1.62l0,0c-0.89,0-1.62-0.72-1.62-1.62l0,0
			c0-0.89,0.72-1.62,1.62-1.62l0,0C556,1974.63,556.72,1975.35,556.72,1976.24z"/>
		<path class="st0" d="M556.72,2009.02L556.72,2009.02c0,0.89-0.72,1.62-1.62,1.62l0,0c-0.89,0-1.62-0.72-1.62-1.62l0,0
			c0-0.89,0.72-1.62,1.62-1.62l0,0C556,2007.41,556.72,2008.13,556.72,2009.02z"/>
		<path class="st0" d="M589.36,1976.24L589.36,1976.24c0,0.89-0.72,1.62-1.62,1.62l0,0c-0.89,0-1.62-0.72-1.62-1.62l0,0
			c0-0.89,0.72-1.62,1.62-1.62l0,0C588.64,1974.63,589.36,1975.35,589.36,1976.24z"/>
		<path class="st0" d="M589.36,2009.02L589.36,2009.02c0,0.89-0.72,1.62-1.62,1.62l0,0c-0.89,0-1.62-0.72-1.62-1.62l0,0
			c0-0.89,0.72-1.62,1.62-1.62l0,0C588.64,2007.41,589.36,2008.13,589.36,2009.02z"/>
		<path class="st0" d="M622,1976.24L622,1976.24c0,0.89-0.72,1.62-1.62,1.62l0,0c-0.89,0-1.62-0.72-1.62-1.62l0,0
			c0-0.89,0.72-1.62,1.62-1.62l0,0C621.28,1974.63,622,1975.35,622,1976.24z"/>
		<path class="st0" d="M622,2009.02L622,2009.02c0,0.89-0.72,1.62-1.62,1.62l0,0c-0.89,0-1.62-0.72-1.62-1.62l0,0
			c0-0.89,0.72-1.62,1.62-1.62l0,0C621.28,2007.41,622,2008.13,622,2009.02z"/>
		<path class="st0" d="M654.64,1976.24L654.64,1976.24c0,0.89-0.72,1.62-1.62,1.62l0,0c-0.89,0-1.62-0.72-1.62-1.62l0,0
			c0-0.89,0.72-1.62,1.62-1.62l0,0C653.92,1974.63,654.64,1975.35,654.64,1976.24z"/>
		<path class="st0" d="M654.64,2009.02L654.64,2009.02c0,0.89-0.72,1.62-1.62,1.62l0,0c-0.89,0-1.62-0.72-1.62-1.62l0,0
			c0-0.89,0.72-1.62,1.62-1.62l0,0C653.92,2007.41,654.64,2008.13,654.64,2009.02z"/>
		<path class="st0" d="M524.08,2041.8L524.08,2041.8c0,0.89-0.72,1.62-1.62,1.62h0c-0.89,0-1.62-0.72-1.62-1.62l0,0
			c0-0.89,0.72-1.62,1.62-1.62h0C523.36,2040.19,524.08,2040.91,524.08,2041.8z"/>
		<path class="st0" d="M556.72,2041.8L556.72,2041.8c0,0.89-0.72,1.62-1.62,1.62l0,0c-0.89,0-1.62-0.72-1.62-1.62l0,0
			c0-0.89,0.72-1.62,1.62-1.62l0,0C556,2040.19,556.72,2040.91,556.72,2041.8z"/>
		<path class="st0" d="M589.36,2041.8L589.36,2041.8c0,0.89-0.72,1.62-1.62,1.62l0,0c-0.89,0-1.62-0.72-1.62-1.62l0,0
			c0-0.89,0.72-1.62,1.62-1.62l0,0C588.64,2040.19,589.36,2040.91,589.36,2041.8z"/>
		<path class="st0" d="M622,2041.8L622,2041.8c0,0.89-0.72,1.62-1.62,1.62l0,0c-0.89,0-1.62-0.72-1.62-1.62l0,0
			c0-0.89,0.72-1.62,1.62-1.62l0,0C621.28,2040.19,622,2040.91,622,2041.8z"/>
		<path class="st0" d="M654.64,2041.8L654.64,2041.8c0,0.89-0.72,1.62-1.62,1.62l0,0c-0.89,0-1.62-0.72-1.62-1.62l0,0
			c0-0.89,0.72-1.62,1.62-1.62l0,0C653.92,2040.19,654.64,2040.91,654.64,2041.8z"/>
		<path class="st0" d="M524.08,2074.58L524.08,2074.58c0,0.89-0.72,1.62-1.62,1.62h0c-0.89,0-1.62-0.72-1.62-1.62l0,0
			c0-0.89,0.72-1.62,1.62-1.62h0C523.36,2072.97,524.08,2073.69,524.08,2074.58z"/>
		<path class="st0" d="M556.72,2074.58L556.72,2074.58c0,0.89-0.72,1.62-1.62,1.62l0,0c-0.89,0-1.62-0.72-1.62-1.62l0,0
			c0-0.89,0.72-1.62,1.62-1.62l0,0C556,2072.97,556.72,2073.69,556.72,2074.58z"/>
		<path class="st0" d="M589.36,2074.58L589.36,2074.58c0,0.89-0.72,1.62-1.62,1.62l0,0c-0.89,0-1.62-0.72-1.62-1.62l0,0
			c0-0.89,0.72-1.62,1.62-1.62l0,0C588.64,2072.97,589.36,2073.69,589.36,2074.58z"/>
		<path class="st0" d="M622,2074.58L622,2074.58c0,0.89-0.72,1.62-1.62,1.62l0,0c-0.89,0-1.62-0.72-1.62-1.62l0,0
			c0-0.89,0.72-1.62,1.62-1.62l0,0C621.28,2072.97,622,2073.69,622,2074.58z"/>
		<path class="st0" d="M654.64,2074.58L654.64,2074.58c0,0.89-0.72,1.62-1.62,1.62l0,0c-0.89,0-1.62-0.72-1.62-1.62l0,0
			c0-0.89,0.72-1.62,1.62-1.62l0,0C653.92,2072.97,654.64,2073.69,654.64,2074.58z"/>
		<path class="st0" d="M524.08,2107.36L524.08,2107.36c0,0.89-0.72,1.62-1.62,1.62h0c-0.89,0-1.62-0.72-1.62-1.62l0,0
			c0-0.89,0.72-1.62,1.62-1.62h0C523.36,2105.75,524.08,2106.47,524.08,2107.36z"/>
		<path class="st0" d="M556.72,2107.36L556.72,2107.36c0,0.89-0.72,1.62-1.62,1.62l0,0c-0.89,0-1.62-0.72-1.62-1.62l0,0
			c0-0.89,0.72-1.62,1.62-1.62l0,0C556,2105.75,556.72,2106.47,556.72,2107.36z"/>
		<path class="st0" d="M589.36,2107.36L589.36,2107.36c0,0.89-0.72,1.62-1.62,1.62l0,0c-0.89,0-1.62-0.72-1.62-1.62l0,0
			c0-0.89,0.72-1.62,1.62-1.62l0,0C588.64,2105.75,589.36,2106.47,589.36,2107.36z"/>
		<path class="st0" d="M622,2107.36L622,2107.36c0,0.89-0.72,1.62-1.62,1.62l0,0c-0.89,0-1.62-0.72-1.62-1.62l0,0
			c0-0.89,0.72-1.62,1.62-1.62l0,0C621.28,2105.75,622,2106.47,622,2107.36z"/>
		<path class="st0" d="M654.64,2107.36L654.64,2107.36c0,0.89-0.72,1.62-1.62,1.62l0,0c-0.89,0-1.62-0.72-1.62-1.62l0,0
			c0-0.89,0.72-1.62,1.62-1.62l0,0C653.92,2105.75,654.64,2106.47,654.64,2107.36z"/>
		<path class="st0" d="M524.08,2140.14L524.08,2140.14c0,0.89-0.72,1.62-1.62,1.62h0c-0.89,0-1.62-0.72-1.62-1.62l0,0
			c0-0.89,0.72-1.62,1.62-1.62h0C523.36,2138.53,524.08,2139.25,524.08,2140.14z"/>
		<path class="st0" d="M556.72,2140.14L556.72,2140.14c0,0.89-0.72,1.62-1.62,1.62l0,0c-0.89,0-1.62-0.72-1.62-1.62l0,0
			c0-0.89,0.72-1.62,1.62-1.62l0,0C556,2138.53,556.72,2139.25,556.72,2140.14z"/>
		<path class="st0" d="M589.36,2140.14L589.36,2140.14c0,0.89-0.72,1.62-1.62,1.62l0,0c-0.89,0-1.62-0.72-1.62-1.62l0,0
			c0-0.89,0.72-1.62,1.62-1.62l0,0C588.64,2138.53,589.36,2139.25,589.36,2140.14z"/>
		<path class="st0" d="M622,2140.14L622,2140.14c0,0.89-0.72,1.62-1.62,1.62l0,0c-0.89,0-1.62-0.72-1.62-1.62l0,0
			c0-0.89,0.72-1.62,1.62-1.62l0,0C621.28,2138.53,622,2139.25,622,2140.14z"/>
		<path class="st0" d="M654.64,2140.14L654.64,2140.14c0,0.89-0.72,1.62-1.62,1.62l0,0c-0.89,0-1.62-0.72-1.62-1.62l0,0
			c0-0.89,0.72-1.62,1.62-1.62l0,0C653.92,2138.53,654.64,2139.25,654.64,2140.14z"/>
		<path class="st0" d="M524.08,2172.92L524.08,2172.92c0,0.89-0.72,1.62-1.62,1.62h0c-0.89,0-1.62-0.72-1.62-1.62l0,0
			c0-0.89,0.72-1.62,1.62-1.62h0C523.36,2171.31,524.08,2172.03,524.08,2172.92z"/>
		<path class="st0" d="M556.72,2172.92L556.72,2172.92c0,0.89-0.72,1.62-1.62,1.62l0,0c-0.89,0-1.62-0.72-1.62-1.62l0,0
			c0-0.89,0.72-1.62,1.62-1.62l0,0C556,2171.31,556.72,2172.03,556.72,2172.92z"/>
		<path class="st0" d="M589.36,2172.92L589.36,2172.92c0,0.89-0.72,1.62-1.62,1.62l0,0c-0.89,0-1.62-0.72-1.62-1.62l0,0
			c0-0.89,0.72-1.62,1.62-1.62l0,0C588.64,2171.31,589.36,2172.03,589.36,2172.92z"/>
		<path class="st0" d="M622,2172.92L622,2172.92c0,0.89-0.72,1.62-1.62,1.62l0,0c-0.89,0-1.62-0.72-1.62-1.62l0,0
			c0-0.89,0.72-1.62,1.62-1.62l0,0C621.28,2171.31,622,2172.03,622,2172.92z"/>
		<path class="st0" d="M654.64,2172.92L654.64,2172.92c0,0.89-0.72,1.62-1.62,1.62l0,0c-0.89,0-1.62-0.72-1.62-1.62l0,0
			c0-0.89,0.72-1.62,1.62-1.62l0,0C653.92,2171.31,654.64,2172.03,654.64,2172.92z"/>
		<path class="st0" d="M524.08,2205.7L524.08,2205.7c0,0.89-0.72,1.62-1.62,1.62h0c-0.89,0-1.62-0.72-1.62-1.62l0,0
			c0-0.89,0.72-1.62,1.62-1.62h0C523.36,2204.09,524.08,2204.81,524.08,2205.7z"/>
		<path class="st0" d="M556.72,2205.7L556.72,2205.7c0,0.89-0.72,1.62-1.62,1.62l0,0c-0.89,0-1.62-0.72-1.62-1.62l0,0
			c0-0.89,0.72-1.62,1.62-1.62l0,0C556,2204.09,556.72,2204.81,556.72,2205.7z"/>
		<path class="st0" d="M589.36,2205.7L589.36,2205.7c0,0.89-0.72,1.62-1.62,1.62l0,0c-0.89,0-1.62-0.72-1.62-1.62l0,0
			c0-0.89,0.72-1.62,1.62-1.62l0,0C588.64,2204.09,589.36,2204.81,589.36,2205.7z"/>
		<path class="st0" d="M622,2205.7L622,2205.7c0,0.89-0.72,1.62-1.62,1.62l0,0c-0.89,0-1.62-0.72-1.62-1.62l0,0
			c0-0.89,0.72-1.62,1.62-1.62l0,0C621.28,2204.09,622,2204.81,622,2205.7z"/>
		<path class="st0" d="M654.64,2205.7L654.64,2205.7c0,0.89-0.72,1.62-1.62,1.62l0,0c-0.89,0-1.62-0.72-1.62-1.62l0,0
			c0-0.89,0.72-1.62,1.62-1.62l0,0C653.92,2204.09,654.64,2204.81,654.64,2205.7z"/>
		<path class="st0" d="M524.08,2205.69L524.08,2205.69c0,0.89-0.72,1.62-1.62,1.62h0c-0.89,0-1.62-0.72-1.62-1.62l0,0
			c0-0.89,0.72-1.62,1.62-1.62h0C523.36,2204.07,524.08,2204.8,524.08,2205.69z"/>
		<path class="st0" d="M524.08,2238.47L524.08,2238.47c0,0.89-0.72,1.62-1.62,1.62h0c-0.89,0-1.62-0.72-1.62-1.62l0,0
			c0-0.89,0.72-1.62,1.62-1.62h0C523.36,2236.85,524.08,2237.58,524.08,2238.47z"/>
		<path class="st0" d="M556.72,2205.69L556.72,2205.69c0,0.89-0.72,1.62-1.62,1.62l0,0c-0.89,0-1.62-0.72-1.62-1.62l0,0
			c0-0.89,0.72-1.62,1.62-1.62l0,0C556,2204.07,556.72,2204.8,556.72,2205.69z"/>
		<path class="st0" d="M556.72,2238.47L556.72,2238.47c0,0.89-0.72,1.62-1.62,1.62l0,0c-0.89,0-1.62-0.72-1.62-1.62l0,0
			c0-0.89,0.72-1.62,1.62-1.62l0,0C556,2236.85,556.72,2237.58,556.72,2238.47z"/>
		<path class="st0" d="M589.36,2205.69L589.36,2205.69c0,0.89-0.72,1.62-1.62,1.62l0,0c-0.89,0-1.62-0.72-1.62-1.62l0,0
			c0-0.89,0.72-1.62,1.62-1.62l0,0C588.64,2204.07,589.36,2204.8,589.36,2205.69z"/>
		<path class="st0" d="M589.36,2238.47L589.36,2238.47c0,0.89-0.72,1.62-1.62,1.62l0,0c-0.89,0-1.62-0.72-1.62-1.62l0,0
			c0-0.89,0.72-1.62,1.62-1.62l0,0C588.64,2236.85,589.36,2237.58,589.36,2238.47z"/>
		<path class="st0" d="M622,2205.69L622,2205.69c0,0.89-0.72,1.62-1.62,1.62l0,0c-0.89,0-1.62-0.72-1.62-1.62l0,0
			c0-0.89,0.72-1.62,1.62-1.62l0,0C621.28,2204.07,622,2204.8,622,2205.69z"/>
		<path class="st0" d="M622,2238.47L622,2238.47c0,0.89-0.72,1.62-1.62,1.62l0,0c-0.89,0-1.62-0.72-1.62-1.62l0,0
			c0-0.89,0.72-1.62,1.62-1.62l0,0C621.28,2236.85,622,2237.58,622,2238.47z"/>
		<path class="st0" d="M654.64,2205.69L654.64,2205.69c0,0.89-0.72,1.62-1.62,1.62l0,0c-0.89,0-1.62-0.72-1.62-1.62l0,0
			c0-0.89,0.72-1.62,1.62-1.62l0,0C653.92,2204.07,654.64,2204.8,654.64,2205.69z"/>
		<path class="st0" d="M654.64,2238.47L654.64,2238.47c0,0.89-0.72,1.62-1.62,1.62l0,0c-0.89,0-1.62-0.72-1.62-1.62l0,0
			c0-0.89,0.72-1.62,1.62-1.62l0,0C653.92,2236.85,654.64,2237.58,654.64,2238.47z"/>
		<path class="st0" d="M524.08,2271.25L524.08,2271.25c0,0.89-0.72,1.62-1.62,1.62h0c-0.89,0-1.62-0.72-1.62-1.62l0,0
			c0-0.89,0.72-1.62,1.62-1.62h0C523.36,2269.63,524.08,2270.36,524.08,2271.25z"/>
		<path class="st0" d="M556.72,2271.25L556.72,2271.25c0,0.89-0.72,1.62-1.62,1.62l0,0c-0.89,0-1.62-0.72-1.62-1.62l0,0
			c0-0.89,0.72-1.62,1.62-1.62l0,0C556,2269.63,556.72,2270.36,556.72,2271.25z"/>
		<path class="st0" d="M589.36,2271.25L589.36,2271.25c0,0.89-0.72,1.62-1.62,1.62l0,0c-0.89,0-1.62-0.72-1.62-1.62l0,0
			c0-0.89,0.72-1.62,1.62-1.62l0,0C588.64,2269.63,589.36,2270.36,589.36,2271.25z"/>
		<path class="st0" d="M622,2271.25L622,2271.25c0,0.89-0.72,1.62-1.62,1.62l0,0c-0.89,0-1.62-0.72-1.62-1.62l0,0
			c0-0.89,0.72-1.62,1.62-1.62l0,0C621.28,2269.63,622,2270.36,622,2271.25z"/>
		<path class="st0" d="M654.64,2271.25L654.64,2271.25c0,0.89-0.72,1.62-1.62,1.62l0,0c-0.89,0-1.62-0.72-1.62-1.62l0,0
			c0-0.89,0.72-1.62,1.62-1.62l0,0C653.92,2269.63,654.64,2270.36,654.64,2271.25z"/>
		<path class="st0" d="M524.08,2304.03L524.08,2304.03c0,0.89-0.72,1.62-1.62,1.62h0c-0.89,0-1.62-0.72-1.62-1.62l0,0
			c0-0.89,0.72-1.62,1.62-1.62h0C523.36,2302.41,524.08,2303.14,524.08,2304.03z"/>
		<path class="st0" d="M556.72,2304.03L556.72,2304.03c0,0.89-0.72,1.62-1.62,1.62l0,0c-0.89,0-1.62-0.72-1.62-1.62l0,0
			c0-0.89,0.72-1.62,1.62-1.62l0,0C556,2302.41,556.72,2303.14,556.72,2304.03z"/>
		<path class="st0" d="M589.36,2304.03L589.36,2304.03c0,0.89-0.72,1.62-1.62,1.62l0,0c-0.89,0-1.62-0.72-1.62-1.62l0,0
			c0-0.89,0.72-1.62,1.62-1.62l0,0C588.64,2302.41,589.36,2303.14,589.36,2304.03z"/>
		<path class="st0" d="M622,2304.03L622,2304.03c0,0.89-0.72,1.62-1.62,1.62l0,0c-0.89,0-1.62-0.72-1.62-1.62l0,0
			c0-0.89,0.72-1.62,1.62-1.62l0,0C621.28,2302.41,622,2303.14,622,2304.03z"/>
		<path class="st0" d="M654.64,2304.03L654.64,2304.03c0,0.89-0.72,1.62-1.62,1.62l0,0c-0.89,0-1.62-0.72-1.62-1.62l0,0
			c0-0.89,0.72-1.62,1.62-1.62l0,0C653.92,2302.41,654.64,2303.14,654.64,2304.03z"/>
		<path class="st0" d="M524.08,2336.81L524.08,2336.81c0,0.89-0.72,1.62-1.62,1.62h0c-0.89,0-1.62-0.72-1.62-1.62l0,0
			c0-0.89,0.72-1.62,1.62-1.62h0C523.36,2335.19,524.08,2335.92,524.08,2336.81z"/>
		<path class="st0" d="M556.72,2336.81L556.72,2336.81c0,0.89-0.72,1.62-1.62,1.62l0,0c-0.89,0-1.62-0.72-1.62-1.62l0,0
			c0-0.89,0.72-1.62,1.62-1.62l0,0C556,2335.19,556.72,2335.92,556.72,2336.81z"/>
		<path class="st0" d="M589.36,2336.81L589.36,2336.81c0,0.89-0.72,1.62-1.62,1.62l0,0c-0.89,0-1.62-0.72-1.62-1.62l0,0
			c0-0.89,0.72-1.62,1.62-1.62l0,0C588.64,2335.19,589.36,2335.92,589.36,2336.81z"/>
		<path class="st0" d="M622,2336.81L622,2336.81c0,0.89-0.72,1.62-1.62,1.62l0,0c-0.89,0-1.62-0.72-1.62-1.62l0,0
			c0-0.89,0.72-1.62,1.62-1.62l0,0C621.28,2335.19,622,2335.92,622,2336.81z"/>
		<path class="st0" d="M654.64,2336.81L654.64,2336.81c0,0.89-0.72,1.62-1.62,1.62l0,0c-0.89,0-1.62-0.72-1.62-1.62l0,0
			c0-0.89,0.72-1.62,1.62-1.62l0,0C653.92,2335.19,654.64,2335.92,654.64,2336.81z"/>
		<path class="st0" d="M524.08,2369.59L524.08,2369.59c0,0.89-0.72,1.62-1.62,1.62h0c-0.89,0-1.62-0.72-1.62-1.62l0,0
			c0-0.89,0.72-1.62,1.62-1.62h0C523.36,2367.97,524.08,2368.7,524.08,2369.59z"/>
		<path class="st0" d="M556.72,2369.59L556.72,2369.59c0,0.89-0.72,1.62-1.62,1.62l0,0c-0.89,0-1.62-0.72-1.62-1.62l0,0
			c0-0.89,0.72-1.62,1.62-1.62l0,0C556,2367.97,556.72,2368.7,556.72,2369.59z"/>
		<path class="st0" d="M589.36,2369.59L589.36,2369.59c0,0.89-0.72,1.62-1.62,1.62l0,0c-0.89,0-1.62-0.72-1.62-1.62l0,0
			c0-0.89,0.72-1.62,1.62-1.62l0,0C588.64,2367.97,589.36,2368.7,589.36,2369.59z"/>
		<path class="st0" d="M622,2369.59L622,2369.59c0,0.89-0.72,1.62-1.62,1.62l0,0c-0.89,0-1.62-0.72-1.62-1.62l0,0
			c0-0.89,0.72-1.62,1.62-1.62l0,0C621.28,2367.97,622,2368.7,622,2369.59z"/>
		<path class="st0" d="M654.64,2369.59L654.64,2369.59c0,0.89-0.72,1.62-1.62,1.62l0,0c-0.89,0-1.62-0.72-1.62-1.62l0,0
			c0-0.89,0.72-1.62,1.62-1.62l0,0C653.92,2367.97,654.64,2368.7,654.64,2369.59z"/>
		<path class="st0" d="M524.08,2402.37L524.08,2402.37c0,0.89-0.72,1.62-1.62,1.62h0c-0.89,0-1.62-0.72-1.62-1.62l0,0
			c0-0.89,0.72-1.62,1.62-1.62h0C523.36,2400.75,524.08,2401.48,524.08,2402.37z"/>
		<path class="st0" d="M556.72,2402.37L556.72,2402.37c0,0.89-0.72,1.62-1.62,1.62l0,0c-0.89,0-1.62-0.72-1.62-1.62l0,0
			c0-0.89,0.72-1.62,1.62-1.62l0,0C556,2400.75,556.72,2401.48,556.72,2402.37z"/>
		<path class="st0" d="M589.36,2402.37L589.36,2402.37c0,0.89-0.72,1.62-1.62,1.62l0,0c-0.89,0-1.62-0.72-1.62-1.62l0,0
			c0-0.89,0.72-1.62,1.62-1.62l0,0C588.64,2400.75,589.36,2401.48,589.36,2402.37z"/>
		<path class="st0" d="M622,2402.37L622,2402.37c0,0.89-0.72,1.62-1.62,1.62l0,0c-0.89,0-1.62-0.72-1.62-1.62l0,0
			c0-0.89,0.72-1.62,1.62-1.62l0,0C621.28,2400.75,622,2401.48,622,2402.37z"/>
		<path class="st0" d="M654.64,2402.37L654.64,2402.37c0,0.89-0.72,1.62-1.62,1.62l0,0c-0.89,0-1.62-0.72-1.62-1.62l0,0
			c0-0.89,0.72-1.62,1.62-1.62l0,0C653.92,2400.75,654.64,2401.48,654.64,2402.37z"/>
		<path class="st0" d="M524.08,2435.15L524.08,2435.15c0,0.89-0.72,1.62-1.62,1.62h0c-0.89,0-1.62-0.72-1.62-1.62l0,0
			c0-0.89,0.72-1.62,1.62-1.62h0C523.36,2433.53,524.08,2434.26,524.08,2435.15z"/>
		<path class="st0" d="M556.72,2435.15L556.72,2435.15c0,0.89-0.72,1.62-1.62,1.62l0,0c-0.89,0-1.62-0.72-1.62-1.62l0,0
			c0-0.89,0.72-1.62,1.62-1.62l0,0C556,2433.53,556.72,2434.26,556.72,2435.15z"/>
		<path class="st0" d="M589.36,2435.15L589.36,2435.15c0,0.89-0.72,1.62-1.62,1.62l0,0c-0.89,0-1.62-0.72-1.62-1.62l0,0
			c0-0.89,0.72-1.62,1.62-1.62l0,0C588.64,2433.53,589.36,2434.26,589.36,2435.15z"/>
		<path class="st0" d="M622,2435.15L622,2435.15c0,0.89-0.72,1.62-1.62,1.62l0,0c-0.89,0-1.62-0.72-1.62-1.62l0,0
			c0-0.89,0.72-1.62,1.62-1.62l0,0C621.28,2433.53,622,2434.26,622,2435.15z"/>
		<path class="st0" d="M654.64,2435.15L654.64,2435.15c0,0.89-0.72,1.62-1.62,1.62l0,0c-0.89,0-1.62-0.72-1.62-1.62l0,0
			c0-0.89,0.72-1.62,1.62-1.62l0,0C653.92,2433.53,654.64,2434.26,654.64,2435.15z"/>
	</g>
	<g>
		<g>
			<path class="st0" d="M-230.37,2460.75h34.86c0-20.98-4.11-41.35-12.23-60.53c-3.9-9.22-8.72-18.11-14.34-26.42
				c-5.56-8.23-11.94-15.97-18.98-23c-7.03-7.03-14.77-13.42-23-18.98c-8.31-5.62-17.2-10.44-26.42-14.34
				c-19.18-8.11-39.55-12.23-60.53-12.23v34.86c16.29,0,32.09,3.19,46.95,9.47c14.36,6.07,27.26,14.77,38.35,25.86
				c11.08,11.08,19.78,23.99,25.86,38.35C-233.56,2428.66-230.37,2444.45-230.37,2460.75z"/>
		</g>
	</g>
	<g>
		<g>
			<path class="st1" d="M-242.36,2125.94l-11.69,11.69c7.03,7.03,15.24,12.48,24.39,16.19c4.4,1.78,8.99,3.15,13.66,4.05
				c4.62,0.9,9.36,1.35,14.07,1.35c4.71,0,9.45-0.45,14.07-1.35c4.67-0.9,9.27-2.27,13.66-4.05c9.15-3.71,17.36-9.16,24.39-16.19
				l-11.69-11.69c-5.46,5.46-11.82,9.69-18.91,12.56c-6.85,2.78-14.09,4.19-21.52,4.19s-14.67-1.41-21.52-4.19
				C-230.54,2135.63-236.9,2131.4-242.36,2125.94z"/>
		</g>
	</g>
	<rect x="-121.83" y="1973.47" style="fill:none;" width="542.72" height="233.7"/>
	<text transform="matrix(1 0 0 1 -121.8291 1998.2007)"><tspan x="0" y="0" class="st0" style="font-family:'Avenir-Black'; font-size:32.7076px;">NUESTRAS CERTIFICACIONES</tspan><tspan x="0" y="47.57" style="fill:#0B0B0B; font-family:'TitilliumWeb-SemiBold'; font-size:14px;">Para Ecosan S.A. es estratégico como parte de su gestión asegurar la calidad de nuestros </tspan><tspan x="0" y="64.33" style="fill:#0B0B0B; font-family:'TitilliumWeb-SemiBold'; font-size:14px;">productos y servicios, establecer acciones para la preservación y cuidado del medio ambi</tspan><tspan x="535.89" y="64.33" style="fill:#0B0B0B; font-family:'TitilliumWeb-SemiBold'; font-size:14px;">-</tspan><tspan x="0" y="81.09" style="fill:#0B0B0B; font-family:'TitilliumWeb-SemiBold'; font-size:14px;">ente, como la certificación en el diseño, producción y construcción, además de la seguri</tspan><tspan x="525.91" y="81.09" style="fill:#0B0B0B; font-family:'TitilliumWeb-SemiBold'; font-size:14px;">-</tspan><tspan x="0" y="97.85" style="fill:#0B0B0B; font-family:'TitilliumWeb-SemiBold'; font-size:14px;">dad de nuestros colaboradores. Bajo este objetivo asumimos el compromiso de trabajar </tspan><tspan x="0" y="114.61" style="fill:#0B0B0B; font-family:'TitilliumWeb-SemiBold'; font-size:14px;">en conformidad con los requisitos de nuestros clientes y bajo los requisitos de normas </tspan><tspan x="0" y="131.37" style="fill:#0B0B0B; font-family:'TitilliumWeb-SemiBold'; font-size:14px;">nacionales e internacionales.</tspan></text>
	<g>
		<g>
			<text transform="matrix(1 0 0 1 -100.6895 2393.127)" class="st0" style="font-family:'Avenir-Medium'; font-size:14.7712px;"> POLÍTICA DE CALIDAD Y MEDIOAMBIENTE</text>
			<rect x="-121.83" y="2368.25" class="st2" width="393.72" height="39.44"/>
		</g>
		<g>
			<path class="st3" d="M237.14,2385.78l6.2,6.2l6.47-6.45"/>
		</g>
	</g>
</g>
<g>
	<g>
		<path class="st0" d="M533.34-197.88L533.34-197.88c0,0.89-0.72,1.62-1.62,1.62l0,0c-0.89,0-1.62-0.72-1.62-1.62l0,0
			c0-0.89,0.72-1.62,1.62-1.62l0,0C532.62-199.5,533.34-198.77,533.34-197.88z"/>
		<path class="st0" d="M533.34-165.1L533.34-165.1c0,0.89-0.72,1.62-1.62,1.62l0,0c-0.89,0-1.62-0.72-1.62-1.62l0,0
			c0-0.89,0.72-1.62,1.62-1.62l0,0C532.62-166.72,533.34-165.99,533.34-165.1z"/>
		<path class="st0" d="M565.98-197.88L565.98-197.88c0,0.89-0.72,1.62-1.62,1.62l0,0c-0.89,0-1.62-0.72-1.62-1.62l0,0
			c0-0.89,0.72-1.62,1.62-1.62l0,0C565.26-199.5,565.98-198.77,565.98-197.88z"/>
		<path class="st0" d="M565.98-165.1L565.98-165.1c0,0.89-0.72,1.62-1.62,1.62l0,0c-0.89,0-1.62-0.72-1.62-1.62l0,0
			c0-0.89,0.72-1.62,1.62-1.62l0,0C565.26-166.72,565.98-165.99,565.98-165.1z"/>
		<path class="st0" d="M598.62-197.88L598.62-197.88c0,0.89-0.72,1.62-1.62,1.62l0,0c-0.89,0-1.62-0.72-1.62-1.62l0,0
			c0-0.89,0.72-1.62,1.62-1.62l0,0C597.9-199.5,598.62-198.77,598.62-197.88z"/>
		<path class="st0" d="M598.62-165.1L598.62-165.1c0,0.89-0.72,1.62-1.62,1.62l0,0c-0.89,0-1.62-0.72-1.62-1.62l0,0
			c0-0.89,0.72-1.62,1.62-1.62l0,0C597.9-166.72,598.62-165.99,598.62-165.1z"/>
		<path class="st0" d="M631.26-197.88L631.26-197.88c0,0.89-0.72,1.62-1.62,1.62l0,0c-0.89,0-1.62-0.72-1.62-1.62l0,0
			c0-0.89,0.72-1.62,1.62-1.62l0,0C630.54-199.5,631.26-198.77,631.26-197.88z"/>
		<path class="st0" d="M631.26-165.1L631.26-165.1c0,0.89-0.72,1.62-1.62,1.62l0,0c-0.89,0-1.62-0.72-1.62-1.62l0,0
			c0-0.89,0.72-1.62,1.62-1.62l0,0C630.54-166.72,631.26-165.99,631.26-165.1z"/>
		<path class="st0" d="M663.9-197.88L663.9-197.88c0,0.89-0.72,1.62-1.62,1.62l0,0c-0.89,0-1.62-0.72-1.62-1.62l0,0
			c0-0.89,0.72-1.62,1.62-1.62l0,0C663.17-199.5,663.9-198.77,663.9-197.88z"/>
		<path class="st0" d="M663.9-165.1L663.9-165.1c0,0.89-0.72,1.62-1.62,1.62l0,0c-0.89,0-1.62-0.72-1.62-1.62l0,0
			c0-0.89,0.72-1.62,1.62-1.62l0,0C663.17-166.72,663.9-165.99,663.9-165.1z"/>
		<path class="st0" d="M533.34-132.32L533.34-132.32c0,0.89-0.72,1.62-1.62,1.62l0,0c-0.89,0-1.62-0.72-1.62-1.62v0
			c0-0.89,0.72-1.62,1.62-1.62l0,0C532.62-133.94,533.34-133.21,533.34-132.32z"/>
		<path class="st0" d="M565.98-132.32L565.98-132.32c0,0.89-0.72,1.62-1.62,1.62l0,0c-0.89,0-1.62-0.72-1.62-1.62v0
			c0-0.89,0.72-1.62,1.62-1.62l0,0C565.26-133.94,565.98-133.21,565.98-132.32z"/>
		<path class="st0" d="M598.62-132.32L598.62-132.32c0,0.89-0.72,1.62-1.62,1.62l0,0c-0.89,0-1.62-0.72-1.62-1.62v0
			c0-0.89,0.72-1.62,1.62-1.62l0,0C597.9-133.94,598.62-133.21,598.62-132.32z"/>
		<path class="st0" d="M631.26-132.32L631.26-132.32c0,0.89-0.72,1.62-1.62,1.62l0,0c-0.89,0-1.62-0.72-1.62-1.62v0
			c0-0.89,0.72-1.62,1.62-1.62l0,0C630.54-133.94,631.26-133.21,631.26-132.32z"/>
		<path class="st0" d="M663.9-132.32L663.9-132.32c0,0.89-0.72,1.62-1.62,1.62l0,0c-0.89,0-1.62-0.72-1.62-1.62v0
			c0-0.89,0.72-1.62,1.62-1.62l0,0C663.17-133.94,663.9-133.21,663.9-132.32z"/>
		<path class="st0" d="M533.34-99.54L533.34-99.54c0,0.89-0.72,1.62-1.62,1.62l0,0c-0.89,0-1.62-0.72-1.62-1.62l0,0
			c0-0.89,0.72-1.62,1.62-1.62l0,0C532.62-101.16,533.34-100.43,533.34-99.54z"/>
		<path class="st0" d="M565.98-99.54L565.98-99.54c0,0.89-0.72,1.62-1.62,1.62l0,0c-0.89,0-1.62-0.72-1.62-1.62l0,0
			c0-0.89,0.72-1.62,1.62-1.62l0,0C565.26-101.16,565.98-100.43,565.98-99.54z"/>
		<path class="st0" d="M598.62-99.54L598.62-99.54c0,0.89-0.72,1.62-1.62,1.62l0,0c-0.89,0-1.62-0.72-1.62-1.62l0,0
			c0-0.89,0.72-1.62,1.62-1.62l0,0C597.9-101.16,598.62-100.43,598.62-99.54z"/>
		<path class="st0" d="M631.26-99.54L631.26-99.54c0,0.89-0.72,1.62-1.62,1.62l0,0c-0.89,0-1.62-0.72-1.62-1.62l0,0
			c0-0.89,0.72-1.62,1.62-1.62l0,0C630.54-101.16,631.26-100.43,631.26-99.54z"/>
		<path class="st0" d="M663.9-99.54L663.9-99.54c0,0.89-0.72,1.62-1.62,1.62l0,0c-0.89,0-1.62-0.72-1.62-1.62l0,0
			c0-0.89,0.72-1.62,1.62-1.62l0,0C663.17-101.16,663.9-100.43,663.9-99.54z"/>
		<path class="st0" d="M533.34-66.76L533.34-66.76c0,0.89-0.72,1.62-1.62,1.62l0,0c-0.89,0-1.62-0.72-1.62-1.62v0
			c0-0.89,0.72-1.62,1.62-1.62l0,0C532.62-68.38,533.34-67.65,533.34-66.76z"/>
		<path class="st0" d="M565.98-66.76L565.98-66.76c0,0.89-0.72,1.62-1.62,1.62l0,0c-0.89,0-1.62-0.72-1.62-1.62v0
			c0-0.89,0.72-1.62,1.62-1.62l0,0C565.26-68.38,565.98-67.65,565.98-66.76z"/>
		<path class="st0" d="M598.62-66.76L598.62-66.76c0,0.89-0.72,1.62-1.62,1.62l0,0c-0.89,0-1.62-0.72-1.62-1.62v0
			c0-0.89,0.72-1.62,1.62-1.62l0,0C597.9-68.38,598.62-67.65,598.62-66.76z"/>
		<path class="st0" d="M631.26-66.76L631.26-66.76c0,0.89-0.72,1.62-1.62,1.62l0,0c-0.89,0-1.62-0.72-1.62-1.62v0
			c0-0.89,0.72-1.62,1.62-1.62l0,0C630.54-68.38,631.26-67.65,631.26-66.76z"/>
		<path class="st0" d="M663.9-66.76L663.9-66.76c0,0.89-0.72,1.62-1.62,1.62l0,0c-0.89,0-1.62-0.72-1.62-1.62v0
			c0-0.89,0.72-1.62,1.62-1.62l0,0C663.17-68.38,663.9-67.65,663.9-66.76z"/>
		<path class="st0" d="M533.34-33.98L533.34-33.98c0,0.89-0.72,1.62-1.62,1.62l0,0c-0.89,0-1.62-0.72-1.62-1.62l0,0
			c0-0.89,0.72-1.62,1.62-1.62l0,0C532.62-35.6,533.34-34.87,533.34-33.98z"/>
		<path class="st0" d="M565.98-33.98L565.98-33.98c0,0.89-0.72,1.62-1.62,1.62l0,0c-0.89,0-1.62-0.72-1.62-1.62l0,0
			c0-0.89,0.72-1.62,1.62-1.62l0,0C565.26-35.6,565.98-34.87,565.98-33.98z"/>
		<path class="st0" d="M598.62-33.98L598.62-33.98c0,0.89-0.72,1.62-1.62,1.62l0,0c-0.89,0-1.62-0.72-1.62-1.62l0,0
			c0-0.89,0.72-1.62,1.62-1.62l0,0C597.9-35.6,598.62-34.87,598.62-33.98z"/>
		<path class="st0" d="M631.26-33.98L631.26-33.98c0,0.89-0.72,1.62-1.62,1.62l0,0c-0.89,0-1.62-0.72-1.62-1.62l0,0
			c0-0.89,0.72-1.62,1.62-1.62l0,0C630.54-35.6,631.26-34.87,631.26-33.98z"/>
		<path class="st0" d="M663.9-33.98L663.9-33.98c0,0.89-0.72,1.62-1.62,1.62l0,0c-0.89,0-1.62-0.72-1.62-1.62l0,0
			c0-0.89,0.72-1.62,1.62-1.62l0,0C663.17-35.6,663.9-34.87,663.9-33.98z"/>
		<path class="st0" d="M533.34-1.2L533.34-1.2c0,0.89-0.72,1.62-1.62,1.62l0,0c-0.89,0-1.62-0.72-1.62-1.62v0
			c0-0.89,0.72-1.62,1.62-1.62l0,0C532.62-2.82,533.34-2.09,533.34-1.2z"/>
		<path class="st0" d="M565.98-1.2L565.98-1.2c0,0.89-0.72,1.62-1.62,1.62l0,0c-0.89,0-1.62-0.72-1.62-1.62v0
			c0-0.89,0.72-1.62,1.62-1.62l0,0C565.26-2.82,565.98-2.09,565.98-1.2z"/>
		<path class="st0" d="M598.62-1.2L598.62-1.2c0,0.89-0.72,1.62-1.62,1.62l0,0c-0.89,0-1.62-0.72-1.62-1.62v0
			c0-0.89,0.72-1.62,1.62-1.62l0,0C597.9-2.82,598.62-2.09,598.62-1.2z"/>
		<path class="st0" d="M631.26-1.2L631.26-1.2c0,0.89-0.72,1.62-1.62,1.62l0,0c-0.89,0-1.62-0.72-1.62-1.62v0
			c0-0.89,0.72-1.62,1.62-1.62l0,0C630.54-2.82,631.26-2.09,631.26-1.2z"/>
		<path class="st0" d="M663.9-1.2L663.9-1.2c0,0.89-0.72,1.62-1.62,1.62l0,0c-0.89,0-1.62-0.72-1.62-1.62v0
			c0-0.89,0.72-1.62,1.62-1.62l0,0C663.17-2.82,663.9-2.09,663.9-1.2z"/>
		<path class="st0" d="M533.34,31.58L533.34,31.58c0,0.89-0.72,1.62-1.62,1.62l0,0c-0.89,0-1.62-0.72-1.62-1.62v0
			c0-0.89,0.72-1.62,1.62-1.62l0,0C532.62,29.96,533.34,30.69,533.34,31.58z"/>
		<path class="st0" d="M565.98,31.58L565.98,31.58c0,0.89-0.72,1.62-1.62,1.62l0,0c-0.89,0-1.62-0.72-1.62-1.62v0
			c0-0.89,0.72-1.62,1.62-1.62l0,0C565.26,29.96,565.98,30.69,565.98,31.58z"/>
		<path class="st0" d="M598.62,31.58L598.62,31.58c0,0.89-0.72,1.62-1.62,1.62l0,0c-0.89,0-1.62-0.72-1.62-1.62v0
			c0-0.89,0.72-1.62,1.62-1.62l0,0C597.9,29.96,598.62,30.69,598.62,31.58z"/>
		<path class="st0" d="M631.26,31.58L631.26,31.58c0,0.89-0.72,1.62-1.62,1.62l0,0c-0.89,0-1.62-0.72-1.62-1.62v0
			c0-0.89,0.72-1.62,1.62-1.62l0,0C630.54,29.96,631.26,30.69,631.26,31.58z"/>
		<path class="st0" d="M663.9,31.58L663.9,31.58c0,0.89-0.72,1.62-1.62,1.62l0,0c-0.89,0-1.62-0.72-1.62-1.62v0
			c0-0.89,0.72-1.62,1.62-1.62l0,0C663.17,29.96,663.9,30.69,663.9,31.58z"/>
		<path class="st0" d="M533.34,31.57L533.34,31.57c0,0.89-0.72,1.62-1.62,1.62l0,0c-0.89,0-1.62-0.72-1.62-1.62v0
			c0-0.89,0.72-1.62,1.62-1.62l0,0C532.62,29.95,533.34,30.67,533.34,31.57z"/>
		<path class="st0" d="M533.34,64.35L533.34,64.35c0,0.89-0.72,1.62-1.62,1.62l0,0c-0.89,0-1.62-0.72-1.62-1.62l0,0
			c0-0.89,0.72-1.62,1.62-1.62l0,0C532.62,62.73,533.34,63.45,533.34,64.35z"/>
		<path class="st0" d="M565.98,31.57L565.98,31.57c0,0.89-0.72,1.62-1.62,1.62l0,0c-0.89,0-1.62-0.72-1.62-1.62v0
			c0-0.89,0.72-1.62,1.62-1.62l0,0C565.26,29.95,565.98,30.67,565.98,31.57z"/>
		<path class="st0" d="M565.98,64.35L565.98,64.35c0,0.89-0.72,1.62-1.62,1.62l0,0c-0.89,0-1.62-0.72-1.62-1.62l0,0
			c0-0.89,0.72-1.62,1.62-1.62l0,0C565.26,62.73,565.98,63.45,565.98,64.35z"/>
		<path class="st0" d="M598.62,31.57L598.62,31.57c0,0.89-0.72,1.62-1.62,1.62l0,0c-0.89,0-1.62-0.72-1.62-1.62v0
			c0-0.89,0.72-1.62,1.62-1.62l0,0C597.9,29.95,598.62,30.67,598.62,31.57z"/>
		<path class="st0" d="M598.62,64.35L598.62,64.35c0,0.89-0.72,1.62-1.62,1.62l0,0c-0.89,0-1.62-0.72-1.62-1.62l0,0
			c0-0.89,0.72-1.62,1.62-1.62l0,0C597.9,62.73,598.62,63.45,598.62,64.35z"/>
		<path class="st0" d="M631.26,31.57L631.26,31.57c0,0.89-0.72,1.62-1.62,1.62l0,0c-0.89,0-1.62-0.72-1.62-1.62v0
			c0-0.89,0.72-1.62,1.62-1.62l0,0C630.54,29.95,631.26,30.67,631.26,31.57z"/>
		<path class="st0" d="M631.26,64.35L631.26,64.35c0,0.89-0.72,1.62-1.62,1.62l0,0c-0.89,0-1.62-0.72-1.62-1.62l0,0
			c0-0.89,0.72-1.62,1.62-1.62l0,0C630.54,62.73,631.26,63.45,631.26,64.35z"/>
		<path class="st0" d="M663.9,31.57L663.9,31.57c0,0.89-0.72,1.62-1.62,1.62l0,0c-0.89,0-1.62-0.72-1.62-1.62v0
			c0-0.89,0.72-1.62,1.62-1.62l0,0C663.17,29.95,663.9,30.67,663.9,31.57z"/>
		<path class="st0" d="M663.9,64.35L663.9,64.35c0,0.89-0.72,1.62-1.62,1.62l0,0c-0.89,0-1.62-0.72-1.62-1.62l0,0
			c0-0.89,0.72-1.62,1.62-1.62l0,0C663.17,62.73,663.9,63.45,663.9,64.35z"/>
		<path class="st0" d="M533.34,97.13L533.34,97.13c0,0.89-0.72,1.62-1.62,1.62l0,0c-0.89,0-1.62-0.72-1.62-1.62v0
			c0-0.89,0.72-1.62,1.62-1.62l0,0C532.62,95.51,533.34,96.23,533.34,97.13z"/>
		<path class="st0" d="M565.98,97.13L565.98,97.13c0,0.89-0.72,1.62-1.62,1.62l0,0c-0.89,0-1.62-0.72-1.62-1.62v0
			c0-0.89,0.72-1.62,1.62-1.62l0,0C565.26,95.51,565.98,96.23,565.98,97.13z"/>
		<path class="st0" d="M598.62,97.13L598.62,97.13c0,0.89-0.72,1.62-1.62,1.62l0,0c-0.89,0-1.62-0.72-1.62-1.62v0
			c0-0.89,0.72-1.62,1.62-1.62l0,0C597.9,95.51,598.62,96.23,598.62,97.13z"/>
		<path class="st0" d="M631.26,97.13L631.26,97.13c0,0.89-0.72,1.62-1.62,1.62l0,0c-0.89,0-1.62-0.72-1.62-1.62v0
			c0-0.89,0.72-1.62,1.62-1.62l0,0C630.54,95.51,631.26,96.23,631.26,97.13z"/>
		<path class="st0" d="M663.9,97.13L663.9,97.13c0,0.89-0.72,1.62-1.62,1.62l0,0c-0.89,0-1.62-0.72-1.62-1.62v0
			c0-0.89,0.72-1.62,1.62-1.62l0,0C663.17,95.51,663.9,96.23,663.9,97.13z"/>
		<path class="st0" d="M533.34,129.91L533.34,129.91c0,0.89-0.72,1.62-1.62,1.62l0,0c-0.89,0-1.62-0.72-1.62-1.62l0,0
			c0-0.89,0.72-1.62,1.62-1.62l0,0C532.62,128.29,533.34,129.01,533.34,129.91z"/>
		<path class="st0" d="M565.98,129.91L565.98,129.91c0,0.89-0.72,1.62-1.62,1.62l0,0c-0.89,0-1.62-0.72-1.62-1.62l0,0
			c0-0.89,0.72-1.62,1.62-1.62l0,0C565.26,128.29,565.98,129.01,565.98,129.91z"/>
		<path class="st0" d="M598.62,129.91L598.62,129.91c0,0.89-0.72,1.62-1.62,1.62l0,0c-0.89,0-1.62-0.72-1.62-1.62l0,0
			c0-0.89,0.72-1.62,1.62-1.62l0,0C597.9,128.29,598.62,129.01,598.62,129.91z"/>
		<path class="st0" d="M631.26,129.91L631.26,129.91c0,0.89-0.72,1.62-1.62,1.62l0,0c-0.89,0-1.62-0.72-1.62-1.62l0,0
			c0-0.89,0.72-1.62,1.62-1.62l0,0C630.54,128.29,631.26,129.01,631.26,129.91z"/>
		<path class="st0" d="M663.9,129.91L663.9,129.91c0,0.89-0.72,1.62-1.62,1.62l0,0c-0.89,0-1.62-0.72-1.62-1.62l0,0
			c0-0.89,0.72-1.62,1.62-1.62l0,0C663.17,128.29,663.9,129.01,663.9,129.91z"/>
		<path class="st0" d="M533.34,162.69L533.34,162.69c0,0.89-0.72,1.62-1.62,1.62l0,0c-0.89,0-1.62-0.72-1.62-1.62l0,0
			c0-0.89,0.72-1.62,1.62-1.62l0,0C532.62,161.07,533.34,161.79,533.34,162.69z"/>
		<path class="st0" d="M565.98,162.69L565.98,162.69c0,0.89-0.72,1.62-1.62,1.62l0,0c-0.89,0-1.62-0.72-1.62-1.62l0,0
			c0-0.89,0.72-1.62,1.62-1.62l0,0C565.26,161.07,565.98,161.79,565.98,162.69z"/>
		<path class="st0" d="M598.62,162.69L598.62,162.69c0,0.89-0.72,1.62-1.62,1.62l0,0c-0.89,0-1.62-0.72-1.62-1.62l0,0
			c0-0.89,0.72-1.62,1.62-1.62l0,0C597.9,161.07,598.62,161.79,598.62,162.69z"/>
		<path class="st0" d="M631.26,162.69L631.26,162.69c0,0.89-0.72,1.62-1.62,1.62l0,0c-0.89,0-1.62-0.72-1.62-1.62l0,0
			c0-0.89,0.72-1.62,1.62-1.62l0,0C630.54,161.07,631.26,161.79,631.26,162.69z"/>
		<path class="st0" d="M663.9,162.69L663.9,162.69c0,0.89-0.72,1.62-1.62,1.62l0,0c-0.89,0-1.62-0.72-1.62-1.62l0,0
			c0-0.89,0.72-1.62,1.62-1.62l0,0C663.17,161.07,663.9,161.79,663.9,162.69z"/>
		<path class="st0" d="M533.34,195.47L533.34,195.47c0,0.89-0.72,1.62-1.62,1.62l0,0c-0.89,0-1.62-0.72-1.62-1.62l0,0
			c0-0.89,0.72-1.62,1.62-1.62l0,0C532.62,193.85,533.34,194.57,533.34,195.47z"/>
		<path class="st0" d="M565.98,195.47L565.98,195.47c0,0.89-0.72,1.62-1.62,1.62l0,0c-0.89,0-1.62-0.72-1.62-1.62l0,0
			c0-0.89,0.72-1.62,1.62-1.62l0,0C565.26,193.85,565.98,194.57,565.98,195.47z"/>
		<path class="st0" d="M598.62,195.47L598.62,195.47c0,0.89-0.72,1.62-1.62,1.62l0,0c-0.89,0-1.62-0.72-1.62-1.62l0,0
			c0-0.89,0.72-1.62,1.62-1.62l0,0C597.9,193.85,598.62,194.57,598.62,195.47z"/>
		<path class="st0" d="M631.26,195.47L631.26,195.47c0,0.89-0.72,1.62-1.62,1.62l0,0c-0.89,0-1.62-0.72-1.62-1.62l0,0
			c0-0.89,0.72-1.62,1.62-1.62l0,0C630.54,193.85,631.26,194.57,631.26,195.47z"/>
		<path class="st0" d="M663.9,195.47L663.9,195.47c0,0.89-0.72,1.62-1.62,1.62l0,0c-0.89,0-1.62-0.72-1.62-1.62l0,0
			c0-0.89,0.72-1.62,1.62-1.62l0,0C663.17,193.85,663.9,194.57,663.9,195.47z"/>
		<path class="st0" d="M533.34,228.25L533.34,228.25c0,0.89-0.72,1.62-1.62,1.62l0,0c-0.89,0-1.62-0.72-1.62-1.62l0,0
			c0-0.89,0.72-1.62,1.62-1.62l0,0C532.62,226.63,533.34,227.35,533.34,228.25z"/>
		<path class="st0" d="M565.98,228.25L565.98,228.25c0,0.89-0.72,1.62-1.62,1.62l0,0c-0.89,0-1.62-0.72-1.62-1.62l0,0
			c0-0.89,0.72-1.62,1.62-1.62l0,0C565.26,226.63,565.98,227.35,565.98,228.25z"/>
		<path class="st0" d="M598.62,228.25L598.62,228.25c0,0.89-0.72,1.62-1.62,1.62l0,0c-0.89,0-1.62-0.72-1.62-1.62l0,0
			c0-0.89,0.72-1.62,1.62-1.62l0,0C597.9,226.63,598.62,227.35,598.62,228.25z"/>
		<path class="st0" d="M631.26,228.25L631.26,228.25c0,0.89-0.72,1.62-1.62,1.62l0,0c-0.89,0-1.62-0.72-1.62-1.62l0,0
			c0-0.89,0.72-1.62,1.62-1.62l0,0C630.54,226.63,631.26,227.35,631.26,228.25z"/>
		<path class="st0" d="M663.9,228.25L663.9,228.25c0,0.89-0.72,1.62-1.62,1.62l0,0c-0.89,0-1.62-0.72-1.62-1.62l0,0
			c0-0.89,0.72-1.62,1.62-1.62l0,0C663.17,226.63,663.9,227.35,663.9,228.25z"/>
		<path class="st0" d="M533.34,261.03L533.34,261.03c0,0.89-0.72,1.62-1.62,1.62l0,0c-0.89,0-1.62-0.72-1.62-1.62l0,0
			c0-0.89,0.72-1.62,1.62-1.62l0,0C532.62,259.41,533.34,260.13,533.34,261.03z"/>
		<path class="st0" d="M565.98,261.03L565.98,261.03c0,0.89-0.72,1.62-1.62,1.62l0,0c-0.89,0-1.62-0.72-1.62-1.62l0,0
			c0-0.89,0.72-1.62,1.62-1.62l0,0C565.26,259.41,565.98,260.13,565.98,261.03z"/>
		<path class="st0" d="M598.62,261.03L598.62,261.03c0,0.89-0.72,1.62-1.62,1.62l0,0c-0.89,0-1.62-0.72-1.62-1.62l0,0
			c0-0.89,0.72-1.62,1.62-1.62l0,0C597.9,259.41,598.62,260.13,598.62,261.03z"/>
		<path class="st0" d="M631.26,261.03L631.26,261.03c0,0.89-0.72,1.62-1.62,1.62l0,0c-0.89,0-1.62-0.72-1.62-1.62l0,0
			c0-0.89,0.72-1.62,1.62-1.62l0,0C630.54,259.41,631.26,260.13,631.26,261.03z"/>
		<path class="st0" d="M663.9,261.03L663.9,261.03c0,0.89-0.72,1.62-1.62,1.62l0,0c-0.89,0-1.62-0.72-1.62-1.62l0,0
			c0-0.89,0.72-1.62,1.62-1.62l0,0C663.17,259.41,663.9,260.13,663.9,261.03z"/>
	</g>
	<g>
		<g>
			<path class="st0" d="M-221.12,286.62h34.86c0-20.98-4.11-41.35-12.23-60.53c-3.9-9.22-8.72-18.11-14.34-26.42
				c-5.56-8.23-11.94-15.97-18.98-23c-7.03-7.03-14.77-13.42-23-18.98c-8.31-5.62-17.2-10.44-26.42-14.34
				c-19.18-8.11-39.55-12.23-60.53-12.23V166c16.29,0,32.09,3.19,46.95,9.47c14.36,6.07,27.26,14.77,38.35,25.86
				c11.08,11.08,19.78,23.99,25.86,38.35C-224.31,254.54-221.12,270.33-221.12,286.62z"/>
		</g>
	</g>
</g>
<g>
	<path class="st4" d="M119.85,80.24c-0.1-0.21-0.2-0.43-0.3-0.64c-7.54-15.57-23.48-26.31-41.93-26.33
		c-18.72,0-34.86,11.04-42.25,26.97"/>
	<path class="st4" d="M34.89,118.39c7.17,16.48,23.6,28,42.72,28c19.08,0,35.48-11.48,42.68-27.91"/>
	<g>
		<g>
			<path d="M17.69,89.26h4.41v20.02h-4.41V89.26z"/>
			<path d="M36.58,94.15c-0.36-0.45-0.84-0.79-1.46-1c-0.61-0.22-1.19-0.33-1.74-0.33c-0.32,0-0.65,0.04-0.99,0.11
				c-0.34,0.08-0.66,0.19-0.96,0.35c-0.3,0.16-0.55,0.37-0.73,0.64c-0.19,0.26-0.28,0.58-0.28,0.96c0,0.6,0.23,1.07,0.68,1.39
				c0.45,0.32,1.02,0.59,1.71,0.82s1.43,0.45,2.22,0.68c0.79,0.23,1.53,0.55,2.22,0.96c0.69,0.42,1.26,0.97,1.71,1.67
				c0.45,0.7,0.68,1.63,0.68,2.8c0,1.11-0.21,2.08-0.62,2.91c-0.42,0.83-0.98,1.52-1.68,2.06c-0.71,0.55-1.53,0.95-2.46,1.22
				c-0.93,0.26-1.92,0.4-2.96,0.4c-1.3,0-2.51-0.2-3.62-0.59c-1.11-0.4-2.15-1.04-3.11-1.92l3.14-3.45c0.45,0.6,1.02,1.07,1.71,1.4
				c0.69,0.33,1.4,0.5,2.14,0.5c0.36,0,0.72-0.04,1.09-0.13c0.37-0.08,0.7-0.21,0.99-0.38c0.29-0.17,0.53-0.39,0.71-0.65
				c0.18-0.26,0.27-0.58,0.27-0.93c0-0.6-0.23-1.08-0.69-1.43c-0.46-0.35-1.04-0.65-1.74-0.89c-0.7-0.24-1.45-0.49-2.26-0.74
				c-0.81-0.24-1.56-0.57-2.26-0.99c-0.7-0.42-1.28-0.96-1.74-1.64c-0.46-0.68-0.69-1.57-0.69-2.69c0-1.08,0.21-2.02,0.64-2.83
				c0.42-0.81,0.99-1.49,1.7-2.04c0.71-0.55,1.52-0.96,2.45-1.23c0.92-0.27,1.88-0.41,2.86-0.41c1.13,0,2.22,0.16,3.28,0.48
				c1.06,0.32,2.01,0.86,2.86,1.61L36.58,94.15z"/>
			<path d="M42.41,99.27c0-1.6,0.27-3.05,0.81-4.35c0.54-1.3,1.29-2.41,2.25-3.32c0.96-0.91,2.1-1.62,3.42-2.11
				c1.32-0.49,2.76-0.74,4.33-0.74c1.56,0,3.01,0.25,4.33,0.74c1.32,0.49,2.46,1.19,3.42,2.11c0.96,0.92,1.71,2.02,2.25,3.32
				c0.54,1.3,0.81,2.75,0.81,4.35s-0.27,3.05-0.81,4.35c-0.54,1.3-1.29,2.41-2.25,3.32c-0.96,0.92-2.1,1.62-3.42,2.11
				c-1.32,0.49-2.76,0.73-4.33,0.73c-1.57,0-3.01-0.24-4.33-0.73c-1.32-0.49-2.46-1.19-3.42-2.11c-0.96-0.91-1.71-2.02-2.25-3.32
				C42.68,102.33,42.41,100.88,42.41,99.27z M46.99,99.27c0,0.94,0.15,1.81,0.44,2.59c0.29,0.78,0.71,1.46,1.26,2.04
				c0.55,0.58,1.2,1.02,1.97,1.34c0.76,0.32,1.62,0.48,2.56,0.48c0.94,0,1.8-0.16,2.56-0.48c0.76-0.32,1.42-0.77,1.97-1.34
				c0.55-0.58,0.97-1.25,1.26-2.04c0.29-0.78,0.44-1.64,0.44-2.59c0-0.92-0.15-1.78-0.44-2.57c-0.29-0.79-0.71-1.48-1.26-2.05
				c-0.55-0.58-1.2-1.02-1.97-1.34c-0.76-0.32-1.62-0.48-2.56-0.48c-0.94,0-1.8,0.16-2.56,0.48c-0.76,0.32-1.42,0.77-1.97,1.34
				c-0.55,0.58-0.97,1.26-1.26,2.05C47.14,97.49,46.99,98.35,46.99,99.27z"/>
			<path d="M84.8,102.13c-0.23,0.06-0.45,0.1-0.68,0.14s-0.46,0.06-0.71,0.06c-0.94,0-1.8-0.17-2.57-0.51
				c-0.77-0.34-1.43-0.8-1.98-1.38c-0.55-0.58-0.97-1.28-1.27-2.08c-0.3-0.8-0.45-1.65-0.45-2.56c0-1.04,0.19-1.98,0.58-2.81
				c0.39-0.84,0.91-1.56,1.58-2.16c0.67-0.6,1.46-1.07,2.36-1.4c0.91-0.33,1.89-0.5,2.94-0.5c1.04,0,2.01,0.17,2.93,0.5
				c0.91,0.33,1.71,0.8,2.38,1.4c0.67,0.6,1.2,1.32,1.58,2.16c0.39,0.84,0.58,1.78,0.58,2.81c0,0.72-0.07,1.37-0.2,1.97
				c-0.13,0.59-0.31,1.15-0.52,1.68c-0.22,0.53-0.47,1.03-0.76,1.51c-0.29,0.48-0.6,0.98-0.92,1.48l-4.38,6.84h-5.18L84.8,102.13z
				 M81.38,95.96c0,0.9,0.3,1.65,0.89,2.25c0.59,0.59,1.37,0.89,2.33,0.89c0.96,0,1.74-0.3,2.33-0.89c0.59-0.59,0.89-1.34,0.89-2.25
				c0-0.91-0.3-1.65-0.89-2.25c-0.59-0.59-1.37-0.89-2.33-0.89c-0.96,0-1.74,0.3-2.33,0.89C81.68,94.31,81.38,95.06,81.38,95.96z"/>
			<path d="M94.42,99.27c0-1.19,0.11-2.39,0.33-3.62c0.22-1.23,0.6-2.34,1.16-3.34c0.56-1,1.32-1.82,2.28-2.45
				c0.96-0.63,2.19-0.95,3.68-0.95c1.49,0,2.71,0.32,3.68,0.95c0.96,0.63,1.72,1.45,2.28,2.45c0.56,1,0.94,2.11,1.16,3.34
				c0.22,1.23,0.33,2.43,0.33,3.62s-0.11,2.39-0.33,3.62c-0.22,1.23-0.6,2.34-1.16,3.34c-0.56,1-1.32,1.82-2.28,2.45
				c-0.96,0.63-2.19,0.95-3.68,0.95c-1.49,0-2.72-0.32-3.68-0.95c-0.96-0.63-1.72-1.45-2.28-2.45c-0.56-1-0.94-2.11-1.16-3.34
				C94.53,101.67,94.42,100.46,94.42,99.27z M98.66,99.27c0,0.53,0.02,1.16,0.07,1.89c0.05,0.73,0.17,1.44,0.38,2.12
				c0.21,0.68,0.52,1.25,0.95,1.73c0.42,0.47,1.02,0.71,1.8,0.71c0.75,0,1.35-0.24,1.78-0.71c0.43-0.47,0.75-1.05,0.96-1.73
				c0.21-0.68,0.33-1.39,0.38-2.12c0.05-0.73,0.07-1.37,0.07-1.89s-0.02-1.16-0.07-1.89c-0.05-0.73-0.17-1.44-0.38-2.12
				c-0.21-0.68-0.53-1.25-0.96-1.73c-0.43-0.47-1.03-0.71-1.78-0.71c-0.77,0-1.37,0.24-1.8,0.71c-0.42,0.47-0.74,1.05-0.95,1.73
				c-0.21,0.68-0.33,1.39-0.38,2.12C98.68,98.11,98.66,98.74,98.66,99.27z"/>
			<path d="M111.73,99.27c0-1.19,0.11-2.39,0.33-3.62c0.22-1.23,0.6-2.34,1.16-3.34c0.56-1,1.32-1.82,2.28-2.45
				c0.96-0.63,2.19-0.95,3.68-0.95c1.49,0,2.71,0.32,3.68,0.95c0.96,0.63,1.72,1.45,2.28,2.45c0.56,1,0.94,2.11,1.16,3.34
				c0.22,1.23,0.33,2.43,0.33,3.62s-0.11,2.39-0.33,3.62c-0.22,1.23-0.6,2.34-1.16,3.34c-0.56,1-1.32,1.82-2.28,2.45
				c-0.96,0.63-2.19,0.95-3.68,0.95c-1.49,0-2.72-0.32-3.68-0.95c-0.96-0.63-1.72-1.45-2.28-2.45c-0.56-1-0.94-2.11-1.16-3.34
				C111.83,101.67,111.73,100.46,111.73,99.27z M115.97,99.27c0,0.53,0.02,1.16,0.07,1.89c0.05,0.73,0.17,1.44,0.38,2.12
				c0.21,0.68,0.52,1.25,0.95,1.73c0.42,0.47,1.02,0.71,1.8,0.71c0.75,0,1.35-0.24,1.78-0.71c0.43-0.47,0.75-1.05,0.96-1.73
				c0.21-0.68,0.33-1.39,0.38-2.12c0.05-0.73,0.07-1.37,0.07-1.89s-0.02-1.16-0.07-1.89c-0.05-0.73-0.17-1.44-0.38-2.12
				c-0.21-0.68-0.53-1.25-0.96-1.73c-0.43-0.47-1.03-0.71-1.78-0.71c-0.77,0-1.37,0.24-1.8,0.71c-0.42,0.47-0.74,1.05-0.95,1.73
				c-0.21,0.68-0.33,1.39-0.38,2.12C115.99,98.11,115.97,98.74,115.97,99.27z"/>
			<path d="M136.25,94.01l-4.02,3.54l-2.4-2.77l6.53-5.51h3.96v20.02h-4.07V94.01z"/>
		</g>
	</g>
	<circle class="st4" cx="77.7" cy="99.92" r="77.43"/>
	<g>
		<path d="M30.43,54.51l4.38-4.16l1.25,1.31l-2.96,2.81l1.14,1.2l2.79-2.66l1.25,1.31l-2.79,2.66l1.25,1.31l3.12-2.97l1.25,1.31
			l-4.54,4.32L30.43,54.51z"/>
		<path d="M44.34,46.21c-0.29-0.09-0.59-0.1-0.89-0.05c-0.3,0.05-0.61,0.18-0.91,0.39c-0.31,0.21-0.55,0.46-0.73,0.75
			c-0.18,0.29-0.29,0.61-0.34,0.95c-0.05,0.34-0.03,0.69,0.06,1.06c0.09,0.36,0.25,0.72,0.48,1.06c0.23,0.35,0.5,0.63,0.81,0.84
			c0.3,0.22,0.62,0.36,0.95,0.45c0.33,0.08,0.66,0.1,1,0.05c0.33-0.05,0.64-0.18,0.94-0.38c0.33-0.23,0.58-0.49,0.74-0.81
			c0.16-0.31,0.24-0.65,0.24-1.01l2.03,0.09c-0.02,0.65-0.19,1.24-0.53,1.77s-0.76,0.97-1.27,1.31c-0.58,0.39-1.17,0.66-1.77,0.81
			c-0.61,0.15-1.2,0.17-1.78,0.08c-0.58-0.1-1.13-0.32-1.65-0.66s-0.98-0.81-1.38-1.4c-0.4-0.59-0.66-1.19-0.79-1.8
			c-0.13-0.61-0.13-1.21,0-1.78c0.13-0.58,0.37-1.12,0.73-1.63c0.36-0.51,0.83-0.96,1.41-1.35c0.21-0.14,0.44-0.27,0.69-0.38
			c0.25-0.11,0.51-0.2,0.79-0.27c0.28-0.06,0.56-0.1,0.86-0.09c0.29,0,0.59,0.05,0.89,0.14L44.34,46.21z"/>
		<path d="M49.15,45.75c-0.28-0.65-0.43-1.29-0.44-1.92c-0.01-0.63,0.1-1.21,0.33-1.75c0.23-0.54,0.57-1.03,1.03-1.46
			c0.45-0.43,1-0.79,1.64-1.06c0.64-0.28,1.27-0.43,1.89-0.46c0.62-0.03,1.21,0.05,1.77,0.26c0.55,0.2,1.05,0.52,1.5,0.96
			c0.45,0.44,0.81,0.98,1.09,1.63c0.28,0.65,0.43,1.29,0.44,1.92c0.01,0.63-0.1,1.21-0.33,1.75c-0.23,0.54-0.57,1.03-1.02,1.46
			c-0.45,0.43-1,0.79-1.64,1.06c-0.64,0.28-1.27,0.43-1.89,0.46c-0.62,0.03-1.21-0.05-1.77-0.26c-0.55-0.2-1.05-0.52-1.5-0.96
			C49.79,46.95,49.43,46.4,49.15,45.75z M51.02,44.94c0.17,0.38,0.38,0.71,0.63,0.98c0.26,0.27,0.55,0.47,0.87,0.61
			c0.32,0.14,0.67,0.21,1.04,0.2c0.37,0,0.74-0.09,1.13-0.25c0.38-0.17,0.7-0.38,0.96-0.65c0.25-0.27,0.44-0.56,0.57-0.89
			c0.12-0.33,0.17-0.68,0.16-1.05c-0.02-0.37-0.11-0.75-0.28-1.13c-0.16-0.38-0.37-0.7-0.63-0.97c-0.26-0.27-0.55-0.48-0.87-0.62
			c-0.32-0.14-0.67-0.21-1.04-0.2c-0.37,0-0.74,0.09-1.13,0.25c-0.38,0.17-0.7,0.38-0.96,0.65c-0.25,0.27-0.44,0.56-0.57,0.89
			c-0.12,0.33-0.17,0.68-0.15,1.06C50.76,44.19,50.85,44.57,51.02,44.94z"/>
		<path d="M64.87,37.89c-0.2-0.16-0.45-0.26-0.73-0.29c-0.29-0.03-0.55-0.02-0.78,0.04c-0.14,0.03-0.28,0.08-0.42,0.15
			c-0.14,0.07-0.27,0.15-0.38,0.25c-0.11,0.1-0.2,0.22-0.25,0.35c-0.05,0.13-0.06,0.28-0.03,0.45c0.06,0.26,0.21,0.44,0.43,0.53
			c0.23,0.09,0.5,0.15,0.82,0.18c0.32,0.03,0.66,0.05,1.03,0.07c0.37,0.02,0.72,0.08,1.06,0.19c0.34,0.11,0.64,0.29,0.91,0.55
			c0.27,0.26,0.46,0.64,0.58,1.14c0.11,0.48,0.12,0.92,0.03,1.32c-0.1,0.4-0.27,0.75-0.52,1.06c-0.25,0.31-0.56,0.57-0.94,0.77
			c-0.38,0.21-0.79,0.37-1.24,0.47c-0.56,0.13-1.1,0.17-1.63,0.11c-0.52-0.06-1.03-0.23-1.54-0.52l1.01-1.81
			c0.26,0.22,0.55,0.36,0.88,0.43c0.33,0.07,0.66,0.07,0.97,0c0.16-0.04,0.31-0.09,0.46-0.17c0.15-0.07,0.28-0.16,0.39-0.27
			c0.11-0.1,0.19-0.22,0.24-0.35c0.05-0.13,0.06-0.28,0.02-0.43c-0.06-0.26-0.21-0.44-0.44-0.55c-0.24-0.1-0.52-0.17-0.84-0.21
			c-0.33-0.03-0.68-0.06-1.05-0.09c-0.38-0.02-0.74-0.09-1.08-0.2c-0.34-0.11-0.65-0.29-0.92-0.53c-0.27-0.25-0.46-0.61-0.57-1.09
			c-0.11-0.46-0.11-0.89-0.01-1.29c0.1-0.39,0.28-0.74,0.53-1.05c0.25-0.31,0.56-0.57,0.93-0.78c0.37-0.21,0.77-0.37,1.19-0.47
			c0.49-0.11,0.98-0.16,1.47-0.12c0.49,0.03,0.96,0.17,1.4,0.41L64.87,37.89z"/>
		<path d="M72.63,34.63l1.62-0.1l4.43,8.63l-2.21,0.14l-0.89-1.83l-3.45,0.22l-0.62,1.93l-2.16,0.14L72.63,34.63z M73.54,37.16
			l-0.9,2.83l2.17-0.14L73.54,37.16z"/>
		<path d="M81.74,34.43l2.64,0.33l2.98,6.6l0.03,0l0.77-6.13l1.94,0.24L89,44.3l-2.54-0.32l-3.06-6.76l-0.03,0l-0.79,6.28
			l-1.94-0.24L81.74,34.43z"/>
		<path d="M103.24,41.96c-0.07-0.25-0.21-0.47-0.43-0.66c-0.22-0.19-0.44-0.33-0.66-0.43c-0.13-0.05-0.27-0.09-0.43-0.12
			c-0.15-0.03-0.3-0.03-0.46-0.02c-0.15,0.02-0.29,0.06-0.41,0.14c-0.12,0.08-0.21,0.19-0.28,0.35c-0.1,0.25-0.09,0.48,0.05,0.68
			c0.13,0.21,0.32,0.42,0.57,0.63c0.24,0.21,0.51,0.43,0.8,0.65c0.29,0.23,0.54,0.48,0.75,0.77c0.21,0.29,0.35,0.61,0.42,0.97
			c0.07,0.36,0.01,0.79-0.19,1.27c-0.19,0.46-0.44,0.82-0.75,1.09c-0.31,0.27-0.66,0.46-1.04,0.57c-0.38,0.1-0.79,0.13-1.22,0.08
			c-0.43-0.05-0.86-0.16-1.28-0.33c-0.53-0.22-1-0.5-1.39-0.85c-0.39-0.35-0.71-0.79-0.96-1.31l1.87-0.89
			c0.08,0.32,0.24,0.61,0.47,0.86c0.23,0.25,0.49,0.44,0.79,0.56c0.15,0.06,0.3,0.1,0.47,0.13c0.17,0.03,0.32,0.03,0.47,0.01
			c0.15-0.02,0.28-0.07,0.4-0.15c0.12-0.08,0.21-0.19,0.27-0.34c0.1-0.25,0.09-0.48-0.04-0.7c-0.13-0.22-0.32-0.44-0.57-0.66
			s-0.51-0.45-0.81-0.68c-0.29-0.24-0.55-0.5-0.76-0.79c-0.22-0.29-0.36-0.61-0.44-0.97c-0.08-0.36-0.02-0.76,0.17-1.22
			c0.18-0.44,0.43-0.79,0.74-1.06c0.31-0.26,0.66-0.45,1.04-0.55c0.38-0.11,0.79-0.14,1.21-0.09c0.43,0.04,0.84,0.15,1.24,0.31
			c0.46,0.19,0.89,0.44,1.27,0.75c0.38,0.31,0.68,0.69,0.9,1.14L103.24,41.96z"/>
		<path d="M104.67,48.93c0.08-0.14,0.18-0.26,0.3-0.35c0.12-0.1,0.25-0.16,0.39-0.2c0.14-0.04,0.29-0.05,0.44-0.03
			c0.15,0.02,0.3,0.07,0.44,0.14c0.14,0.08,0.26,0.18,0.35,0.3c0.1,0.12,0.16,0.25,0.2,0.39c0.04,0.14,0.05,0.29,0.03,0.44
			c-0.02,0.15-0.07,0.3-0.14,0.44c-0.08,0.14-0.18,0.26-0.3,0.35c-0.12,0.1-0.25,0.16-0.39,0.21c-0.14,0.04-0.29,0.05-0.44,0.03
			c-0.15-0.02-0.3-0.06-0.44-0.14c-0.14-0.08-0.26-0.18-0.35-0.3c-0.1-0.12-0.16-0.25-0.2-0.39c-0.04-0.14-0.05-0.29-0.03-0.44
			C104.55,49.21,104.6,49.06,104.67,48.93z"/>
		<path d="M116.3,47.02l1.3,0.97l-2.24,9.44l-1.77-1.33l0.52-1.97l-2.76-2.07l-1.72,1.06l-1.73-1.3L116.3,47.02z M115.35,49.54
			l-2.52,1.56l1.74,1.3L115.35,49.54z"/>
		<path d="M117.41,58.09c0.11-0.11,0.24-0.2,0.38-0.26c0.14-0.06,0.29-0.09,0.43-0.09c0.15,0,0.29,0.03,0.44,0.09
			c0.14,0.06,0.27,0.14,0.38,0.25c0.11,0.11,0.2,0.24,0.26,0.38c0.06,0.14,0.09,0.29,0.09,0.44c0,0.15-0.03,0.29-0.09,0.44
			c-0.06,0.14-0.14,0.27-0.25,0.38c-0.11,0.11-0.24,0.2-0.38,0.26c-0.14,0.06-0.29,0.09-0.43,0.09c-0.15,0-0.29-0.03-0.44-0.09
			c-0.14-0.06-0.27-0.14-0.38-0.26c-0.11-0.11-0.2-0.24-0.26-0.38c-0.06-0.14-0.09-0.29-0.09-0.43c0-0.15,0.03-0.29,0.09-0.44
			C117.21,58.33,117.3,58.2,117.41,58.09z"/>
	</g>
	<g>
		<g>
			<path d="M21.75,125.31c0.1-0.2,0.16-0.41,0.16-0.63c0-0.22-0.05-0.46-0.15-0.7c-0.11-0.24-0.25-0.45-0.44-0.61
				c-0.19-0.17-0.4-0.29-0.65-0.36c-0.24-0.08-0.5-0.1-0.78-0.09c-0.28,0.02-0.56,0.09-0.84,0.21c-0.29,0.13-0.53,0.28-0.73,0.47
				c-0.2,0.19-0.35,0.4-0.46,0.62c-0.11,0.23-0.17,0.46-0.18,0.71c-0.01,0.25,0.04,0.48,0.14,0.72c0.12,0.27,0.28,0.48,0.48,0.63
				c0.2,0.16,0.44,0.25,0.7,0.3l-0.36,1.45c-0.47-0.09-0.88-0.29-1.21-0.6c-0.34-0.31-0.6-0.66-0.78-1.07
				c-0.2-0.46-0.31-0.92-0.33-1.37c-0.02-0.45,0.05-0.88,0.2-1.29s0.39-0.77,0.72-1.1s0.73-0.6,1.22-0.82
				c0.49-0.21,0.96-0.33,1.43-0.34s0.9,0.06,1.3,0.22c0.4,0.16,0.76,0.4,1.08,0.73c0.32,0.32,0.58,0.71,0.78,1.18
				c0.07,0.17,0.13,0.35,0.18,0.54c0.05,0.19,0.07,0.39,0.08,0.6c0.01,0.2-0.01,0.41-0.06,0.62c-0.04,0.21-0.12,0.42-0.23,0.62
				L21.75,125.31z"/>
			<path d="M24.35,126.71l2.13,3.81l-1.18,0.66l-1.44-2.57l-1.08,0.61l1.36,2.43l-1.18,0.66l-1.36-2.43l-1.18,0.66l1.52,2.72
				l-1.18,0.66l-2.21-3.95L24.35,126.71z"/>
			<path d="M27.31,131.84l1.42,2.04c0.19,0.27,0.34,0.54,0.45,0.82c0.11,0.28,0.17,0.55,0.17,0.82c0,0.27-0.07,0.53-0.21,0.79
				c-0.14,0.25-0.37,0.49-0.69,0.71c-0.39,0.27-0.78,0.4-1.19,0.39c-0.4-0.01-0.77-0.17-1.1-0.49l-1.37,2.94l-0.97-1.39l1.42-2.62
				l-0.4-0.57l-2.18,1.51l-0.81-1.16L27.31,131.84z M25.85,134.57l0.48,0.69c0.07,0.1,0.15,0.21,0.24,0.32
				c0.09,0.11,0.19,0.2,0.29,0.27c0.1,0.07,0.22,0.1,0.34,0.11c0.13,0.01,0.26-0.04,0.41-0.15c0.14-0.1,0.23-0.2,0.27-0.31
				c0.04-0.11,0.06-0.23,0.04-0.34c-0.02-0.12-0.05-0.23-0.11-0.35c-0.06-0.12-0.13-0.23-0.2-0.34l-0.53-0.76L25.85,134.57z"/>
			<path d="M30.71,138.64l-1.18-1.4l0.99-0.83l3.27,3.89l-0.99,0.83l-1.18-1.4l-4.09,3.45l-0.91-1.08L30.71,138.64z"/>
			<path d="M34.52,141.01l0.98,1.02l-4.78,4.62l-0.98-1.02L34.52,141.01z"/>
			<path d="M36.66,143.2l3.21,2.88l-0.9,1.01l-2.15-1.94l-0.9,1l1.99,1.79l-0.9,1L35,147.17l-1.73,1.93l-1.05-0.95L36.66,143.2z"/>
			<path d="M40.91,146.89l1.12,0.87l-4.08,5.25l-1.12-0.87L40.91,146.89z"/>
			<path d="M45.84,152.5c-0.02-0.22-0.09-0.43-0.21-0.62c-0.12-0.19-0.29-0.36-0.51-0.5c-0.22-0.15-0.46-0.24-0.71-0.27
				c-0.25-0.04-0.49-0.02-0.74,0.05c-0.24,0.07-0.48,0.19-0.7,0.35c-0.22,0.17-0.42,0.38-0.59,0.64c-0.17,0.26-0.29,0.53-0.36,0.79
				c-0.06,0.27-0.08,0.53-0.05,0.78c0.03,0.25,0.11,0.48,0.24,0.69c0.13,0.21,0.3,0.39,0.51,0.53c0.24,0.16,0.49,0.25,0.75,0.27
				c0.26,0.02,0.51-0.03,0.75-0.13l0.48,1.41c-0.44,0.18-0.89,0.23-1.34,0.16c-0.45-0.07-0.86-0.23-1.23-0.47
				c-0.42-0.28-0.76-0.6-1.03-0.97c-0.26-0.37-0.44-0.76-0.53-1.19c-0.09-0.42-0.09-0.86,0-1.32c0.09-0.46,0.29-0.91,0.58-1.35
				s0.63-0.8,1.01-1.06c0.38-0.26,0.78-0.44,1.21-0.52c0.42-0.08,0.86-0.08,1.3,0.02c0.44,0.1,0.87,0.28,1.29,0.56
				c0.15,0.1,0.3,0.22,0.45,0.36c0.14,0.14,0.28,0.29,0.39,0.46c0.12,0.17,0.22,0.35,0.29,0.55c0.08,0.2,0.12,0.42,0.14,0.64
				L45.84,152.5z"/>
			<path d="M50.6,153.2l1.04,0.53l-0.52,7.19l-1.42-0.72l0.15-1.51l-2.22-1.13l-1.12,1.01l-1.39-0.71L50.6,153.2z M50.21,155.17
				l-1.63,1.49l1.4,0.71L50.21,155.17z"/>
			<path d="M54.94,155.31l1.99,0.73c0.48,0.18,0.92,0.4,1.32,0.67c0.39,0.27,0.71,0.59,0.94,0.96c0.23,0.37,0.37,0.79,0.41,1.26
				c0.04,0.47-0.04,0.99-0.25,1.56c-0.19,0.51-0.44,0.92-0.77,1.23s-0.69,0.55-1.1,0.7c-0.41,0.15-0.84,0.21-1.3,0.2
				c-0.46-0.01-0.91-0.1-1.36-0.27l-2.17-0.8L54.94,155.31z M54.45,160.77l0.69,0.25c0.31,0.11,0.6,0.19,0.89,0.22
				c0.29,0.03,0.56,0.01,0.8-0.07c0.25-0.08,0.47-0.22,0.67-0.42c0.2-0.2,0.36-0.48,0.49-0.83c0.11-0.31,0.15-0.59,0.13-0.86
				c-0.03-0.27-0.11-0.51-0.24-0.72c-0.13-0.22-0.31-0.41-0.54-0.57c-0.23-0.17-0.48-0.3-0.76-0.4l-0.78-0.29L54.45,160.77z"/>
			<path d="M60.51,160.83c0.12-0.52,0.31-0.97,0.57-1.35c0.26-0.38,0.58-0.69,0.95-0.91c0.37-0.23,0.78-0.37,1.23-0.44
				c0.45-0.06,0.92-0.04,1.41,0.07c0.49,0.11,0.92,0.29,1.3,0.55c0.38,0.25,0.68,0.56,0.91,0.93c0.23,0.36,0.39,0.78,0.46,1.24
				s0.05,0.95-0.07,1.47c-0.12,0.52-0.31,0.97-0.57,1.35c-0.26,0.38-0.58,0.69-0.95,0.91c-0.37,0.23-0.78,0.37-1.23,0.44
				c-0.45,0.06-0.92,0.04-1.41-0.07c-0.49-0.11-0.92-0.29-1.3-0.55c-0.38-0.25-0.68-0.56-0.91-0.93c-0.23-0.36-0.39-0.78-0.46-1.24
				C60.37,161.84,60.39,161.35,60.51,160.83z M61.95,161.16c-0.07,0.31-0.09,0.59-0.05,0.87c0.03,0.27,0.11,0.52,0.24,0.75
				c0.13,0.22,0.3,0.42,0.52,0.57c0.22,0.16,0.47,0.27,0.77,0.34c0.29,0.07,0.57,0.08,0.84,0.03c0.26-0.05,0.5-0.15,0.71-0.29
				c0.21-0.15,0.4-0.34,0.54-0.57c0.15-0.23,0.26-0.5,0.33-0.81c0.07-0.3,0.09-0.59,0.05-0.86c-0.03-0.28-0.11-0.53-0.24-0.75
				c-0.13-0.22-0.3-0.42-0.52-0.57c-0.21-0.16-0.47-0.27-0.77-0.34c-0.3-0.07-0.57-0.08-0.84-0.03c-0.26,0.05-0.5,0.15-0.71,0.29
				c-0.21,0.15-0.4,0.34-0.55,0.57C62.12,160.6,62.01,160.86,61.95,161.16z"/>
			<path d="M72.26,159.59l1.41,0.11l-0.53,6.63l-1.41-0.11L72.26,159.59z"/>
			<path d="M75.25,159.87l1.92-0.03l2.79,4.58h0.02l-0.06-4.62l1.42-0.02l0.09,6.65l-1.85,0.02l-2.87-4.69h-0.02l0.06,4.73
				l-1.42,0.02L75.25,159.87z"/>
			<path d="M84.25,160.78L82.43,161l-0.16-1.29l5.05-0.61l0.16,1.29l-1.82,0.22l0.64,5.31l-1.41,0.17L84.25,160.78z"/>
			<path d="M88.31,158.91l4.26-0.95l0.29,1.32l-2.88,0.64l0.27,1.21l2.72-0.6l0.29,1.32l-2.72,0.6l0.29,1.32l3.04-0.67l0.29,1.32
				l-4.42,0.98L88.31,158.91z"/>
			<path d="M94.09,157.55l2.36-0.79c0.31-0.1,0.61-0.17,0.91-0.2s0.58-0.01,0.84,0.07c0.26,0.08,0.49,0.22,0.7,0.42
				c0.21,0.2,0.37,0.49,0.49,0.86c0.15,0.45,0.16,0.86,0.04,1.25c-0.12,0.39-0.38,0.69-0.78,0.92l2.44,2.14l-1.61,0.54l-2.12-2.09
				l-0.66,0.22l0.84,2.52l-1.34,0.45L94.09,157.55z M96.31,159.71l0.79-0.27c0.12-0.04,0.25-0.09,0.38-0.14
				c0.13-0.05,0.25-0.12,0.34-0.2c0.09-0.08,0.16-0.18,0.2-0.3c0.04-0.12,0.03-0.26-0.03-0.44c-0.05-0.16-0.13-0.28-0.22-0.35
				c-0.09-0.07-0.2-0.12-0.31-0.14c-0.11-0.02-0.24-0.02-0.37,0.01c-0.13,0.02-0.26,0.06-0.38,0.1l-0.88,0.29L96.31,159.71z"/>
			<path d="M99.84,155.58l1.74-0.82l4.44,3.02l0.02-0.01l-1.96-4.18l1.28-0.6l2.83,6.02l-1.68,0.79l-4.55-3.09l-0.02,0.01l2.01,4.28
				l-1.28,0.6L99.84,155.58z"/>
			<path d="M108.46,151.12l0.99-0.62l5.91,4.14l-1.35,0.85l-1.22-0.9l-2.11,1.33l0.3,1.48l-1.32,0.83L108.46,151.12z M109.95,152.46
				l0.44,2.16l1.33-0.84L109.95,152.46z"/>
			<path d="M116.88,147.18c-0.22-0.05-0.44-0.05-0.65,0c-0.22,0.05-0.43,0.16-0.64,0.33c-0.21,0.17-0.37,0.36-0.48,0.59
				c-0.11,0.22-0.17,0.46-0.18,0.72c-0.01,0.25,0.03,0.51,0.12,0.78c0.09,0.26,0.23,0.52,0.42,0.76c0.19,0.25,0.41,0.44,0.65,0.59
				c0.24,0.14,0.48,0.24,0.72,0.29c0.25,0.05,0.49,0.04,0.73-0.01c0.24-0.05,0.46-0.16,0.66-0.32c0.23-0.18,0.39-0.39,0.49-0.63
				c0.1-0.24,0.13-0.49,0.11-0.76l1.49-0.02c0.03,0.48-0.06,0.92-0.27,1.33c-0.21,0.41-0.49,0.75-0.83,1.02
				c-0.39,0.31-0.81,0.54-1.24,0.67s-0.86,0.18-1.29,0.14c-0.43-0.05-0.85-0.18-1.25-0.41c-0.4-0.23-0.77-0.55-1.1-0.97
				c-0.33-0.42-0.56-0.85-0.7-1.29c-0.13-0.45-0.17-0.88-0.12-1.31c0.05-0.43,0.19-0.84,0.42-1.23c0.23-0.39,0.54-0.74,0.93-1.06
				c0.14-0.11,0.3-0.22,0.48-0.31c0.18-0.1,0.36-0.17,0.56-0.23c0.2-0.06,0.4-0.09,0.62-0.11c0.22-0.01,0.43,0.01,0.66,0.07
				L116.88,147.18z"/>
			<path d="M117.5,144.31l1.04-0.96l4.53,4.87l-1.04,0.96L117.5,144.31z"/>
			<path d="M121.95,144.79c-0.39-0.36-0.69-0.74-0.9-1.16c-0.2-0.42-0.32-0.84-0.33-1.28c-0.02-0.43,0.05-0.86,0.22-1.28
				c0.16-0.42,0.41-0.82,0.75-1.19s0.71-0.66,1.11-0.87c0.4-0.21,0.82-0.32,1.25-0.35c0.43-0.02,0.87,0.04,1.3,0.2
				s0.85,0.42,1.25,0.78c0.39,0.36,0.69,0.74,0.9,1.16c0.21,0.42,0.32,0.84,0.34,1.28c0.02,0.43-0.05,0.86-0.22,1.28
				c-0.16,0.42-0.41,0.82-0.75,1.19c-0.34,0.37-0.71,0.66-1.11,0.87c-0.4,0.21-0.82,0.32-1.25,0.35c-0.43,0.03-0.87-0.04-1.3-0.2
				S122.35,145.14,121.95,144.79z M122.94,143.7c0.23,0.21,0.48,0.37,0.73,0.47c0.26,0.1,0.51,0.16,0.77,0.15
				c0.26,0,0.51-0.06,0.75-0.17c0.24-0.11,0.47-0.28,0.67-0.5c0.2-0.23,0.35-0.46,0.43-0.72c0.09-0.25,0.12-0.51,0.09-0.77
				c-0.02-0.26-0.1-0.51-0.23-0.75c-0.13-0.24-0.31-0.47-0.54-0.68c-0.23-0.21-0.47-0.36-0.73-0.47c-0.26-0.11-0.52-0.16-0.78-0.16
				c-0.26,0-0.51,0.06-0.75,0.17c-0.24,0.11-0.47,0.28-0.67,0.5c-0.2,0.22-0.35,0.46-0.43,0.72c-0.09,0.25-0.12,0.51-0.09,0.77
				c0.02,0.26,0.1,0.51,0.23,0.76C122.53,143.26,122.71,143.49,122.94,143.7z"/>
			<path d="M124.84,136.49l1.11-1.58l5.35,0.42l0.01-0.02l-3.78-2.65l0.81-1.16l5.44,3.82l-1.06,1.52l-5.48-0.42l-0.01,0.01
				l3.87,2.72l-0.81,1.16L124.84,136.49z"/>
			<path d="M130.14,128.33l0.56-1.03l7.18,0.71l-0.76,1.4l-1.5-0.18l-1.19,2.2l0.98,1.14l-0.74,1.37L130.14,128.33z M132.1,128.77
				l1.44,1.67l0.75-1.38L132.1,128.77z"/>
			<path d="M132.38,123.92l0.55-1.3l4.88,2.07l1.02-2.41l1.24,0.53l-1.58,3.72L132.38,123.92z"/>
		</g>
	</g>
</g>
<g>
	<path class="st4" d="M309.68,80.24c-0.1-0.21-0.2-0.43-0.3-0.64c-7.54-15.57-23.48-26.31-41.93-26.33
		c-18.72,0-34.86,11.04-42.25,26.97"/>
	<path class="st4" d="M224.73,118.39c7.17,16.48,23.6,28,42.72,28c19.08,0,35.48-11.48,42.68-27.91"/>
	<circle class="st4" cx="267.53" cy="99.92" r="77.43"/>
	<g>
		<path d="M220.27,54.51l4.38-4.16l1.25,1.31l-2.96,2.81l1.14,1.2l2.79-2.66l1.25,1.31l-2.79,2.66l1.25,1.31l3.12-2.97l1.25,1.31
			l-4.54,4.32L220.27,54.51z"/>
		<path d="M234.17,46.21c-0.29-0.09-0.59-0.1-0.89-0.05c-0.3,0.05-0.61,0.18-0.91,0.39s-0.55,0.46-0.73,0.75
			c-0.18,0.29-0.29,0.61-0.34,0.95c-0.05,0.34-0.03,0.69,0.06,1.06c0.09,0.36,0.25,0.72,0.48,1.06c0.23,0.35,0.5,0.63,0.81,0.84
			c0.3,0.22,0.62,0.36,0.95,0.45c0.33,0.08,0.66,0.1,1,0.05c0.33-0.05,0.64-0.18,0.94-0.38c0.33-0.23,0.58-0.49,0.74-0.81
			c0.16-0.31,0.24-0.65,0.24-1.01l2.03,0.09c-0.02,0.65-0.19,1.24-0.53,1.77c-0.34,0.53-0.76,0.97-1.27,1.31
			c-0.58,0.39-1.17,0.66-1.77,0.81c-0.61,0.15-1.2,0.17-1.78,0.08c-0.58-0.1-1.13-0.32-1.65-0.66c-0.52-0.34-0.98-0.81-1.38-1.4
			c-0.4-0.59-0.66-1.19-0.79-1.8c-0.13-0.61-0.13-1.21,0-1.78c0.13-0.58,0.37-1.12,0.73-1.63c0.36-0.51,0.83-0.96,1.41-1.35
			c0.21-0.14,0.44-0.27,0.69-0.38c0.25-0.11,0.51-0.2,0.79-0.27c0.27-0.06,0.56-0.1,0.85-0.09s0.59,0.05,0.89,0.14L234.17,46.21z"/>
		<path d="M238.98,45.75c-0.28-0.65-0.43-1.29-0.44-1.92c-0.01-0.63,0.1-1.21,0.33-1.75c0.23-0.54,0.57-1.03,1.03-1.46
			c0.45-0.43,1-0.79,1.64-1.06c0.64-0.28,1.27-0.43,1.89-0.46c0.62-0.03,1.21,0.05,1.77,0.26s1.05,0.52,1.5,0.96
			c0.45,0.44,0.81,0.98,1.09,1.63c0.28,0.65,0.43,1.29,0.44,1.92c0.01,0.63-0.1,1.21-0.33,1.75c-0.23,0.54-0.57,1.03-1.02,1.46
			c-0.45,0.43-1,0.79-1.64,1.06c-0.64,0.28-1.27,0.43-1.89,0.46c-0.62,0.03-1.21-0.05-1.77-0.26c-0.55-0.2-1.05-0.52-1.5-0.96
			C239.63,46.95,239.26,46.4,238.98,45.75z M240.85,44.94c0.17,0.38,0.38,0.71,0.63,0.98c0.26,0.27,0.55,0.47,0.87,0.61
			c0.32,0.14,0.67,0.21,1.04,0.2c0.37,0,0.74-0.09,1.13-0.25c0.38-0.17,0.7-0.38,0.96-0.65c0.25-0.27,0.44-0.56,0.57-0.89
			c0.12-0.33,0.17-0.68,0.16-1.05c-0.02-0.37-0.11-0.75-0.28-1.13c-0.16-0.38-0.37-0.7-0.63-0.97c-0.26-0.27-0.55-0.48-0.87-0.62
			c-0.32-0.14-0.67-0.21-1.04-0.2c-0.37,0-0.74,0.09-1.13,0.25c-0.38,0.17-0.7,0.38-0.96,0.65c-0.25,0.27-0.44,0.56-0.57,0.89
			c-0.12,0.33-0.17,0.68-0.15,1.06C240.6,44.19,240.69,44.57,240.85,44.94z"/>
		<path d="M254.7,37.89c-0.2-0.16-0.45-0.26-0.73-0.29c-0.29-0.03-0.55-0.02-0.78,0.04c-0.14,0.03-0.28,0.08-0.42,0.15
			c-0.14,0.07-0.27,0.15-0.38,0.25c-0.11,0.1-0.2,0.22-0.25,0.35c-0.05,0.13-0.06,0.28-0.03,0.45c0.06,0.26,0.21,0.44,0.43,0.53
			c0.23,0.09,0.5,0.15,0.82,0.18c0.32,0.03,0.66,0.05,1.03,0.07c0.37,0.02,0.72,0.08,1.06,0.19c0.34,0.11,0.64,0.29,0.91,0.55
			c0.27,0.26,0.46,0.64,0.58,1.14c0.11,0.48,0.12,0.92,0.03,1.32c-0.1,0.4-0.27,0.75-0.52,1.06c-0.25,0.31-0.56,0.57-0.94,0.77
			c-0.38,0.21-0.79,0.37-1.24,0.47c-0.56,0.13-1.1,0.17-1.63,0.11c-0.52-0.06-1.03-0.23-1.54-0.52l1.01-1.81
			c0.26,0.22,0.55,0.36,0.88,0.43s0.66,0.07,0.97,0c0.16-0.04,0.31-0.09,0.46-0.17c0.15-0.07,0.28-0.16,0.39-0.27
			c0.11-0.1,0.19-0.22,0.24-0.35c0.05-0.13,0.06-0.28,0.02-0.43c-0.06-0.26-0.21-0.44-0.44-0.55c-0.24-0.1-0.52-0.17-0.84-0.21
			c-0.33-0.03-0.68-0.06-1.05-0.09c-0.38-0.02-0.74-0.09-1.08-0.2c-0.34-0.11-0.65-0.29-0.92-0.53c-0.27-0.25-0.46-0.61-0.57-1.09
			c-0.11-0.46-0.11-0.89-0.01-1.29c0.1-0.39,0.28-0.74,0.53-1.05c0.25-0.31,0.56-0.57,0.93-0.78c0.37-0.21,0.77-0.37,1.19-0.47
			c0.49-0.11,0.98-0.16,1.47-0.12s0.96,0.17,1.4,0.41L254.7,37.89z"/>
		<path d="M262.46,34.63l1.62-0.1l4.43,8.63l-2.21,0.14l-0.89-1.83l-3.45,0.22l-0.62,1.93l-2.16,0.14L262.46,34.63z M263.38,37.16
			l-0.9,2.83l2.17-0.14L263.38,37.16z"/>
		<path d="M271.58,34.43l2.64,0.33l2.98,6.6l0.03,0l0.77-6.13l1.94,0.24l-1.11,8.82l-2.54-0.32l-3.06-6.76l-0.03,0l-0.79,6.28
			l-1.94-0.24L271.58,34.43z"/>
		<path d="M293.08,41.96c-0.07-0.25-0.21-0.47-0.43-0.66c-0.22-0.19-0.44-0.33-0.66-0.43c-0.13-0.05-0.27-0.09-0.43-0.12
			c-0.15-0.03-0.3-0.03-0.46-0.02c-0.15,0.02-0.29,0.06-0.41,0.14c-0.12,0.08-0.21,0.19-0.28,0.35c-0.1,0.25-0.09,0.48,0.05,0.68
			c0.13,0.21,0.32,0.42,0.57,0.63c0.24,0.21,0.51,0.43,0.8,0.65c0.29,0.23,0.54,0.48,0.75,0.77c0.21,0.29,0.35,0.61,0.42,0.97
			c0.07,0.36,0.01,0.79-0.19,1.27c-0.19,0.46-0.44,0.82-0.75,1.09c-0.31,0.27-0.66,0.46-1.04,0.57c-0.38,0.1-0.79,0.13-1.22,0.08
			c-0.43-0.05-0.86-0.16-1.28-0.33c-0.53-0.22-1-0.5-1.39-0.85c-0.39-0.35-0.71-0.79-0.96-1.31l1.87-0.89
			c0.08,0.32,0.24,0.61,0.47,0.86c0.23,0.25,0.49,0.44,0.79,0.56c0.15,0.06,0.3,0.1,0.47,0.13c0.17,0.03,0.32,0.03,0.47,0.01
			c0.15-0.02,0.28-0.07,0.4-0.15c0.12-0.08,0.21-0.19,0.27-0.34c0.1-0.25,0.09-0.48-0.04-0.7c-0.13-0.22-0.32-0.44-0.57-0.66
			s-0.51-0.45-0.81-0.68c-0.29-0.24-0.55-0.5-0.76-0.79c-0.22-0.29-0.36-0.61-0.44-0.97c-0.08-0.36-0.02-0.76,0.17-1.22
			c0.18-0.44,0.43-0.79,0.74-1.06c0.31-0.26,0.66-0.45,1.04-0.55c0.38-0.11,0.79-0.14,1.21-0.09c0.43,0.04,0.84,0.15,1.24,0.31
			c0.46,0.19,0.89,0.44,1.27,0.75c0.38,0.31,0.68,0.69,0.9,1.14L293.08,41.96z"/>
		<path d="M294.51,48.93c0.08-0.14,0.18-0.26,0.3-0.35c0.12-0.1,0.25-0.16,0.39-0.2c0.14-0.04,0.29-0.05,0.44-0.03
			c0.15,0.02,0.3,0.07,0.44,0.14c0.14,0.08,0.26,0.18,0.35,0.3c0.1,0.12,0.16,0.25,0.2,0.39c0.04,0.14,0.05,0.29,0.03,0.44
			c-0.02,0.15-0.07,0.3-0.14,0.44c-0.08,0.14-0.18,0.26-0.3,0.35c-0.12,0.1-0.25,0.16-0.39,0.21c-0.14,0.04-0.29,0.05-0.44,0.03
			c-0.15-0.02-0.3-0.06-0.44-0.14c-0.14-0.08-0.26-0.18-0.35-0.3c-0.1-0.12-0.16-0.25-0.2-0.39c-0.04-0.14-0.05-0.29-0.03-0.44
			C294.38,49.21,294.43,49.06,294.51,48.93z"/>
		<path d="M306.14,47.02l1.3,0.97l-2.24,9.44l-1.77-1.33l0.52-1.97l-2.76-2.07l-1.72,1.06l-1.73-1.3L306.14,47.02z M305.19,49.54
			l-2.52,1.56l1.74,1.3L305.19,49.54z"/>
		<path d="M307.25,58.09c0.11-0.11,0.24-0.2,0.38-0.26c0.14-0.06,0.29-0.09,0.43-0.09c0.15,0,0.29,0.03,0.44,0.09
			c0.14,0.06,0.27,0.14,0.38,0.25c0.11,0.11,0.2,0.24,0.26,0.38c0.06,0.14,0.09,0.29,0.09,0.44c0,0.15-0.03,0.29-0.09,0.44
			c-0.06,0.14-0.14,0.27-0.25,0.38c-0.11,0.11-0.24,0.2-0.38,0.26c-0.14,0.06-0.29,0.09-0.43,0.09c-0.15,0-0.29-0.03-0.44-0.09
			c-0.14-0.06-0.27-0.14-0.38-0.26c-0.11-0.11-0.2-0.24-0.26-0.38c-0.06-0.14-0.09-0.29-0.09-0.43c0-0.15,0.03-0.29,0.09-0.44
			C307.05,58.33,307.13,58.2,307.25,58.09z"/>
	</g>
	<g>
		<g>
			<path d="M211.59,125.31c0.1-0.2,0.16-0.41,0.16-0.63c0-0.22-0.05-0.46-0.15-0.7c-0.11-0.24-0.25-0.45-0.44-0.61
				c-0.19-0.17-0.4-0.29-0.65-0.36c-0.24-0.08-0.5-0.1-0.78-0.09c-0.28,0.02-0.56,0.09-0.84,0.21c-0.29,0.13-0.53,0.28-0.73,0.47
				s-0.35,0.4-0.46,0.62c-0.11,0.23-0.17,0.46-0.18,0.71c-0.01,0.25,0.04,0.48,0.14,0.72c0.12,0.27,0.28,0.48,0.48,0.63
				c0.2,0.16,0.44,0.25,0.7,0.3l-0.36,1.45c-0.47-0.09-0.88-0.29-1.21-0.6c-0.34-0.31-0.6-0.66-0.78-1.07
				c-0.2-0.46-0.31-0.92-0.33-1.37c-0.02-0.45,0.05-0.88,0.2-1.29s0.39-0.77,0.72-1.1c0.33-0.33,0.73-0.6,1.22-0.82
				c0.49-0.21,0.96-0.33,1.43-0.34c0.46-0.02,0.9,0.06,1.3,0.22c0.4,0.16,0.76,0.4,1.08,0.73c0.32,0.32,0.58,0.71,0.78,1.18
				c0.07,0.17,0.13,0.35,0.18,0.54c0.05,0.19,0.07,0.39,0.08,0.6c0.01,0.2-0.01,0.41-0.06,0.62c-0.04,0.21-0.12,0.42-0.23,0.62
				L211.59,125.31z"/>
			<path d="M214.19,126.71l2.13,3.81l-1.18,0.66l-1.44-2.57l-1.08,0.61l1.36,2.43l-1.18,0.66l-1.36-2.43l-1.18,0.66l1.52,2.72
				l-1.18,0.66l-2.21-3.95L214.19,126.71z"/>
			<path d="M217.14,131.84l1.42,2.04c0.19,0.27,0.34,0.54,0.45,0.82s0.17,0.55,0.17,0.82c0,0.27-0.07,0.53-0.21,0.79
				c-0.14,0.25-0.37,0.49-0.69,0.71c-0.39,0.27-0.78,0.4-1.19,0.39c-0.4-0.01-0.77-0.17-1.1-0.49l-1.37,2.94l-0.97-1.39l1.42-2.62
				l-0.4-0.57l-2.18,1.51l-0.81-1.16L217.14,131.84z M215.69,134.57l0.48,0.69c0.07,0.1,0.15,0.21,0.24,0.32
				c0.09,0.11,0.19,0.2,0.29,0.27c0.1,0.07,0.22,0.1,0.34,0.11c0.13,0.01,0.26-0.04,0.41-0.15c0.14-0.1,0.23-0.2,0.27-0.31
				c0.04-0.11,0.06-0.23,0.04-0.34c-0.02-0.12-0.05-0.23-0.11-0.35c-0.06-0.12-0.13-0.23-0.2-0.34l-0.53-0.76L215.69,134.57z"/>
			<path d="M220.54,138.64l-1.18-1.4l0.99-0.83l3.27,3.89l-0.99,0.83l-1.18-1.4l-4.09,3.45l-0.91-1.08L220.54,138.64z"/>
			<path d="M224.36,141.01l0.98,1.02l-4.78,4.62l-0.98-1.02L224.36,141.01z"/>
			<path d="M226.49,143.2l3.21,2.88l-0.9,1.01l-2.15-1.94l-0.9,1l1.99,1.79l-0.9,1l-1.99-1.79l-1.73,1.93l-1.05-0.95L226.49,143.2z"
				/>
			<path d="M230.75,146.89l1.12,0.87l-4.08,5.25l-1.12-0.87L230.75,146.89z"/>
			<path d="M235.68,152.5c-0.02-0.22-0.09-0.43-0.21-0.62c-0.12-0.19-0.29-0.36-0.51-0.5c-0.22-0.15-0.46-0.24-0.71-0.27
				c-0.25-0.04-0.49-0.02-0.74,0.05c-0.24,0.07-0.48,0.19-0.7,0.35c-0.22,0.17-0.42,0.38-0.59,0.64c-0.17,0.26-0.29,0.53-0.36,0.79
				c-0.06,0.27-0.08,0.53-0.05,0.78c0.03,0.25,0.11,0.48,0.24,0.69c0.13,0.21,0.3,0.39,0.51,0.53c0.24,0.16,0.49,0.25,0.75,0.27
				s0.51-0.03,0.75-0.13l0.48,1.41c-0.44,0.18-0.89,0.23-1.34,0.16c-0.45-0.07-0.86-0.23-1.23-0.47c-0.42-0.28-0.76-0.6-1.03-0.97
				c-0.26-0.37-0.44-0.76-0.53-1.19c-0.09-0.42-0.09-0.86,0-1.32c0.09-0.46,0.29-0.91,0.58-1.35s0.63-0.8,1.01-1.06
				c0.38-0.26,0.78-0.44,1.21-0.52c0.42-0.08,0.86-0.08,1.3,0.02c0.44,0.1,0.87,0.28,1.29,0.56c0.15,0.1,0.3,0.22,0.45,0.36
				c0.14,0.14,0.28,0.29,0.39,0.46c0.12,0.17,0.22,0.35,0.29,0.55c0.08,0.2,0.12,0.42,0.14,0.64L235.68,152.5z"/>
			<path d="M240.43,153.2l1.04,0.53l-0.52,7.19l-1.42-0.72l0.15-1.51l-2.22-1.13l-1.12,1.01l-1.39-0.71L240.43,153.2z
				 M240.04,155.17l-1.63,1.49l1.4,0.71L240.04,155.17z"/>
			<path d="M244.78,155.31l1.99,0.73c0.48,0.18,0.92,0.4,1.32,0.67c0.39,0.27,0.71,0.59,0.94,0.96c0.23,0.37,0.37,0.79,0.41,1.26
				c0.04,0.47-0.04,0.99-0.25,1.56c-0.19,0.51-0.44,0.92-0.77,1.23s-0.69,0.55-1.1,0.7c-0.41,0.15-0.84,0.21-1.3,0.2
				c-0.46-0.01-0.91-0.1-1.36-0.27l-2.17-0.8L244.78,155.31z M244.28,160.77l0.69,0.25c0.31,0.11,0.6,0.19,0.89,0.22
				c0.29,0.03,0.56,0.01,0.8-0.07c0.25-0.08,0.47-0.22,0.67-0.42c0.2-0.2,0.36-0.48,0.49-0.83c0.11-0.31,0.15-0.59,0.13-0.86
				c-0.03-0.27-0.11-0.51-0.24-0.72c-0.13-0.22-0.31-0.41-0.54-0.57c-0.23-0.17-0.48-0.3-0.76-0.4l-0.78-0.29L244.28,160.77z"/>
			<path d="M250.35,160.83c0.12-0.52,0.31-0.97,0.57-1.35c0.26-0.38,0.58-0.69,0.95-0.91c0.37-0.23,0.78-0.37,1.23-0.44
				s0.92-0.04,1.41,0.07c0.49,0.11,0.92,0.29,1.3,0.55c0.38,0.25,0.68,0.56,0.91,0.93c0.23,0.36,0.39,0.78,0.46,1.24
				s0.05,0.95-0.07,1.47c-0.12,0.52-0.31,0.97-0.57,1.35c-0.26,0.38-0.58,0.69-0.95,0.91c-0.37,0.23-0.78,0.37-1.23,0.44
				c-0.45,0.06-0.92,0.04-1.41-0.07c-0.49-0.11-0.92-0.29-1.3-0.55c-0.38-0.25-0.68-0.56-0.91-0.93c-0.23-0.36-0.39-0.78-0.46-1.24
				C250.21,161.84,250.23,161.35,250.35,160.83z M251.78,161.16c-0.07,0.31-0.09,0.59-0.05,0.87c0.03,0.27,0.11,0.52,0.24,0.75
				c0.13,0.22,0.3,0.42,0.52,0.57c0.22,0.16,0.47,0.27,0.77,0.34c0.29,0.07,0.57,0.08,0.84,0.03c0.26-0.05,0.5-0.15,0.71-0.29
				c0.21-0.15,0.4-0.34,0.54-0.57c0.15-0.23,0.26-0.5,0.33-0.81c0.07-0.3,0.09-0.59,0.05-0.86c-0.03-0.28-0.11-0.53-0.24-0.75
				c-0.13-0.22-0.3-0.42-0.52-0.57c-0.21-0.16-0.47-0.27-0.77-0.34c-0.3-0.07-0.57-0.08-0.84-0.03c-0.26,0.05-0.5,0.15-0.71,0.29
				c-0.21,0.15-0.4,0.34-0.55,0.57C251.96,160.6,251.85,160.86,251.78,161.16z"/>
			<path d="M262.1,159.59l1.41,0.11l-0.53,6.63l-1.41-0.11L262.1,159.59z"/>
			<path d="M265.08,159.87l1.92-0.03l2.79,4.58h0.02l-0.06-4.62l1.42-0.02l0.09,6.65l-1.85,0.02l-2.87-4.69h-0.02l0.06,4.73
				l-1.42,0.02L265.08,159.87z"/>
			<path d="M274.08,160.78l-1.82,0.22l-0.16-1.29l5.05-0.61l0.16,1.29l-1.82,0.22l0.64,5.31l-1.41,0.17L274.08,160.78z"/>
			<path d="M278.15,158.91l4.26-0.95l0.29,1.32l-2.88,0.64l0.27,1.21l2.72-0.6l0.29,1.32l-2.72,0.6l0.29,1.32l3.04-0.67l0.29,1.32
				l-4.42,0.98L278.15,158.91z"/>
			<path d="M283.93,157.55l2.36-0.79c0.31-0.1,0.61-0.17,0.91-0.2s0.58-0.01,0.84,0.07c0.26,0.08,0.49,0.22,0.7,0.42
				c0.21,0.2,0.37,0.49,0.49,0.86c0.15,0.45,0.16,0.86,0.04,1.25c-0.12,0.39-0.38,0.69-0.78,0.92l2.44,2.14l-1.61,0.54l-2.12-2.09
				l-0.66,0.22l0.84,2.52l-1.34,0.45L283.93,157.55z M286.15,159.71l0.79-0.27c0.12-0.04,0.25-0.09,0.38-0.14
				c0.13-0.05,0.25-0.12,0.34-0.2c0.09-0.08,0.16-0.18,0.2-0.3c0.04-0.12,0.03-0.26-0.03-0.44c-0.05-0.16-0.13-0.28-0.22-0.35
				c-0.09-0.07-0.2-0.12-0.31-0.14c-0.11-0.02-0.24-0.02-0.37,0.01s-0.26,0.06-0.38,0.1l-0.88,0.29L286.15,159.71z"/>
			<path d="M289.67,155.58l1.74-0.82l4.44,3.02l0.02-0.01l-1.96-4.18l1.28-0.6l2.83,6.02l-1.68,0.79l-4.55-3.09l-0.02,0.01
				l2.01,4.28l-1.28,0.6L289.67,155.58z"/>
			<path d="M298.3,151.12l0.99-0.62l5.91,4.14l-1.35,0.85l-1.22-0.9l-2.11,1.33l0.3,1.48l-1.32,0.83L298.3,151.12z M299.79,152.46
				l0.44,2.16l1.33-0.84L299.79,152.46z"/>
			<path d="M306.72,147.18c-0.22-0.05-0.44-0.05-0.65,0c-0.22,0.05-0.43,0.16-0.64,0.33c-0.21,0.17-0.37,0.36-0.48,0.59
				c-0.11,0.22-0.17,0.46-0.18,0.72c-0.01,0.25,0.03,0.51,0.12,0.78c0.09,0.26,0.23,0.52,0.42,0.76c0.19,0.25,0.41,0.44,0.65,0.59
				c0.24,0.14,0.48,0.24,0.72,0.29c0.25,0.05,0.49,0.04,0.73-0.01c0.24-0.05,0.46-0.16,0.66-0.32c0.23-0.18,0.39-0.39,0.49-0.63
				c0.1-0.24,0.13-0.49,0.11-0.76l1.49-0.02c0.03,0.48-0.06,0.92-0.27,1.33c-0.21,0.41-0.49,0.75-0.83,1.02
				c-0.39,0.31-0.81,0.54-1.24,0.67s-0.86,0.18-1.29,0.14c-0.43-0.05-0.85-0.18-1.25-0.41c-0.4-0.23-0.77-0.55-1.1-0.97
				c-0.33-0.42-0.56-0.85-0.7-1.29c-0.13-0.45-0.17-0.88-0.12-1.31c0.05-0.43,0.19-0.84,0.42-1.23c0.23-0.39,0.54-0.74,0.93-1.06
				c0.14-0.11,0.3-0.22,0.48-0.31c0.18-0.1,0.36-0.17,0.56-0.23c0.2-0.06,0.4-0.09,0.62-0.11c0.22-0.01,0.43,0.01,0.66,0.07
				L306.72,147.18z"/>
			<path d="M307.34,144.31l1.04-0.96l4.53,4.87l-1.04,0.96L307.34,144.31z"/>
			<path d="M311.79,144.79c-0.39-0.36-0.69-0.74-0.9-1.16c-0.2-0.42-0.32-0.84-0.33-1.28c-0.02-0.43,0.05-0.86,0.22-1.28
				c0.16-0.42,0.41-0.82,0.75-1.19c0.34-0.37,0.71-0.66,1.11-0.87c0.4-0.21,0.82-0.32,1.25-0.35c0.43-0.02,0.87,0.04,1.3,0.2
				c0.44,0.16,0.85,0.42,1.25,0.78c0.39,0.36,0.69,0.74,0.9,1.16c0.21,0.42,0.32,0.84,0.34,1.28c0.02,0.43-0.05,0.86-0.22,1.28
				c-0.16,0.42-0.41,0.82-0.75,1.19c-0.34,0.37-0.71,0.66-1.11,0.87c-0.4,0.21-0.82,0.32-1.25,0.35c-0.43,0.03-0.87-0.04-1.3-0.2
				C312.6,145.4,312.18,145.14,311.79,144.79z M312.78,143.7c0.23,0.21,0.48,0.37,0.73,0.47c0.26,0.1,0.51,0.16,0.77,0.15
				c0.26,0,0.51-0.06,0.75-0.17c0.24-0.11,0.47-0.28,0.67-0.5c0.2-0.23,0.35-0.46,0.43-0.72c0.09-0.25,0.12-0.51,0.09-0.77
				c-0.02-0.26-0.1-0.51-0.23-0.75c-0.13-0.24-0.31-0.47-0.54-0.68c-0.23-0.21-0.47-0.36-0.73-0.47c-0.26-0.11-0.52-0.16-0.78-0.16
				c-0.26,0-0.51,0.06-0.75,0.17c-0.24,0.11-0.47,0.28-0.67,0.5c-0.2,0.22-0.35,0.46-0.43,0.72c-0.09,0.25-0.12,0.51-0.09,0.77
				c0.02,0.26,0.1,0.51,0.23,0.76C312.37,143.26,312.55,143.49,312.78,143.7z"/>
			<path d="M314.67,136.49l1.11-1.58l5.35,0.42l0.01-0.02l-3.78-2.65l0.81-1.16l5.44,3.82l-1.06,1.52l-5.48-0.42l-0.01,0.01
				l3.87,2.72l-0.81,1.16L314.67,136.49z"/>
			<path d="M319.97,128.33l0.56-1.03l7.18,0.71l-0.76,1.4l-1.5-0.18l-1.19,2.2l0.98,1.14l-0.74,1.37L319.97,128.33z M321.93,128.77
				l1.44,1.67l0.75-1.38L321.93,128.77z"/>
			<path d="M322.22,123.92l0.55-1.3l4.88,2.07l1.02-2.41l1.24,0.53l-1.58,3.72L322.22,123.92z"/>
		</g>
	</g>
	<g>
		<g>
			<path d="M207.53,90.01h4.17v18.92h-4.17V90.01z"/>
			<path d="M224.85,94.63c-0.34-0.43-0.8-0.74-1.38-0.95c-0.58-0.2-1.13-0.31-1.64-0.31c-0.3,0-0.62,0.04-0.94,0.11
				c-0.32,0.07-0.62,0.18-0.91,0.33c-0.28,0.15-0.52,0.35-0.69,0.6c-0.18,0.25-0.27,0.55-0.27,0.91c0,0.57,0.21,1.01,0.64,1.31
				c0.43,0.3,0.97,0.56,1.62,0.77c0.65,0.21,1.35,0.43,2.1,0.64c0.75,0.21,1.45,0.52,2.1,0.91c0.65,0.39,1.19,0.92,1.62,1.58
				c0.43,0.66,0.64,1.54,0.64,2.65c0,1.05-0.2,1.97-0.59,2.75c-0.39,0.78-0.92,1.43-1.59,1.95c-0.67,0.52-1.44,0.9-2.33,1.15
				c-0.88,0.25-1.81,0.37-2.79,0.37c-1.23,0-2.37-0.19-3.42-0.56c-1.05-0.37-2.03-0.98-2.94-1.82l2.97-3.26
				c0.43,0.57,0.97,1.01,1.62,1.32c0.65,0.31,1.32,0.47,2.02,0.47c0.34,0,0.68-0.04,1.03-0.12c0.35-0.08,0.66-0.2,0.94-0.36
				c0.28-0.16,0.5-0.36,0.67-0.61c0.17-0.25,0.25-0.54,0.25-0.88c0-0.57-0.22-1.02-0.66-1.35c-0.44-0.33-0.98-0.61-1.64-0.84
				c-0.66-0.23-1.37-0.46-2.14-0.7c-0.77-0.23-1.48-0.54-2.14-0.93c-0.66-0.39-1.21-0.91-1.64-1.55c-0.44-0.64-0.66-1.49-0.66-2.54
				c0-1.02,0.2-1.91,0.6-2.67c0.4-0.77,0.94-1.41,1.6-1.92c0.67-0.52,1.44-0.9,2.31-1.16c0.87-0.26,1.77-0.39,2.7-0.39
				c1.07,0,2.1,0.15,3.1,0.45c1,0.3,1.9,0.81,2.7,1.52L224.85,94.63z"/>
			<path d="M229.82,99.47c0-1.51,0.25-2.89,0.76-4.12c0.51-1.23,1.22-2.28,2.12-3.14c0.91-0.86,1.99-1.53,3.23-1.99
				c1.25-0.46,2.61-0.7,4.09-0.7c1.48,0,2.84,0.23,4.09,0.7c1.25,0.46,2.32,1.13,3.23,1.99c0.91,0.87,1.62,1.91,2.13,3.14
				c0.51,1.23,0.76,2.6,0.76,4.12s-0.25,2.89-0.76,4.12c-0.51,1.23-1.22,2.28-2.13,3.14c-0.91,0.87-1.99,1.53-3.23,1.99
				c-1.25,0.46-2.61,0.69-4.09,0.69c-1.48,0-2.84-0.23-4.09-0.69c-1.25-0.46-2.33-1.13-3.23-1.99c-0.91-0.86-1.62-1.91-2.12-3.14
				C230.07,102.36,229.82,100.98,229.82,99.47z M234.15,99.47c0,0.89,0.14,1.71,0.41,2.45c0.28,0.74,0.67,1.38,1.19,1.92
				c0.52,0.54,1.14,0.97,1.86,1.27c0.72,0.3,1.53,0.45,2.42,0.45c0.89,0,1.7-0.15,2.42-0.45c0.72-0.3,1.34-0.73,1.86-1.27
				c0.52-0.54,0.91-1.19,1.19-1.92c0.28-0.74,0.41-1.55,0.41-2.45c0-0.87-0.14-1.68-0.41-2.43c-0.28-0.75-0.67-1.39-1.19-1.94
				c-0.52-0.54-1.14-0.97-1.86-1.27c-0.72-0.3-1.53-0.45-2.42-0.45c-0.89,0-1.7,0.15-2.42,0.45c-0.72,0.3-1.34,0.73-1.86,1.27
				c-0.52,0.54-0.91,1.19-1.19,1.94C234.29,97.79,234.15,98.6,234.15,99.47z"/>
			<path d="M264.62,94.5l-3.8,3.34l-2.27-2.62l6.17-5.21h3.74v18.92h-3.85V94.5z"/>
			<path d="M280.57,105.14h-8.26v-3.37l7.72-11.76h4.38v11.76h2.43v3.37h-2.43v3.8h-3.85V105.14z M280.57,95.25h-0.05l-4.2,6.52
				h4.25V95.25z"/>
			<path d="M288.38,99.47c0-1.12,0.1-2.26,0.31-3.42s0.57-2.21,1.1-3.15c0.53-0.95,1.24-1.72,2.15-2.31c0.91-0.6,2.07-0.9,3.48-0.9
				c1.41,0,2.57,0.3,3.47,0.9c0.91,0.6,1.63,1.37,2.15,2.31c0.53,0.94,0.89,2,1.1,3.15s0.31,2.3,0.31,3.42s-0.1,2.26-0.31,3.42
				s-0.57,2.21-1.1,3.15c-0.53,0.95-1.24,1.72-2.15,2.31c-0.91,0.6-2.07,0.9-3.47,0.9c-1.41,0-2.57-0.3-3.48-0.9
				c-0.91-0.6-1.63-1.37-2.15-2.31c-0.53-0.94-0.89-2-1.1-3.15S288.38,100.59,288.38,99.47z M292.39,99.47c0,0.5,0.02,1.1,0.07,1.79
				c0.04,0.69,0.16,1.36,0.36,2c0.2,0.64,0.49,1.19,0.9,1.63s0.97,0.67,1.7,0.67c0.71,0,1.27-0.22,1.68-0.67
				c0.41-0.45,0.71-0.99,0.91-1.63c0.2-0.64,0.32-1.31,0.36-2c0.04-0.69,0.07-1.29,0.07-1.79s-0.02-1.1-0.07-1.79
				c-0.04-0.69-0.16-1.36-0.36-2c-0.2-0.64-0.5-1.19-0.91-1.63c-0.41-0.45-0.97-0.67-1.68-0.67c-0.73,0-1.3,0.22-1.7,0.67
				s-0.7,0.99-0.9,1.63c-0.2,0.64-0.32,1.31-0.36,2C292.41,98.37,292.39,98.97,292.39,99.47z"/>
			<path d="M304.2,99.47c0-1.12,0.1-2.26,0.31-3.42c0.2-1.16,0.57-2.21,1.1-3.15c0.53-0.95,1.24-1.72,2.15-2.31
				c0.91-0.6,2.07-0.9,3.48-0.9c1.41,0,2.57,0.3,3.47,0.9c0.91,0.6,1.63,1.37,2.15,2.31c0.53,0.94,0.89,2,1.1,3.15
				s0.31,2.3,0.31,3.42s-0.1,2.26-0.31,3.42s-0.57,2.21-1.1,3.15c-0.53,0.95-1.24,1.72-2.15,2.31c-0.91,0.6-2.07,0.9-3.47,0.9
				c-1.41,0-2.57-0.3-3.48-0.9c-0.91-0.6-1.63-1.37-2.15-2.31c-0.53-0.94-0.89-2-1.1-3.15C304.3,101.73,304.2,100.59,304.2,99.47z
				 M308.21,99.47c0,0.5,0.02,1.1,0.07,1.79s0.16,1.36,0.36,2c0.2,0.64,0.49,1.19,0.9,1.63c0.4,0.45,0.97,0.67,1.7,0.67
				c0.71,0,1.27-0.22,1.68-0.67c0.41-0.45,0.71-0.99,0.91-1.63c0.2-0.64,0.32-1.31,0.36-2c0.04-0.69,0.07-1.29,0.07-1.79
				s-0.02-1.1-0.07-1.79c-0.04-0.69-0.16-1.36-0.36-2c-0.2-0.64-0.5-1.19-0.91-1.63c-0.41-0.45-0.97-0.67-1.68-0.67
				c-0.73,0-1.3,0.22-1.7,0.67c-0.4,0.45-0.7,0.99-0.9,1.63c-0.2,0.64-0.32,1.31-0.36,2S308.21,98.97,308.21,99.47z"/>
			<path d="M326.31,94.5l-3.8,3.34l-2.27-2.62l6.17-5.21h3.74v18.92h-3.85V94.5z"/>
		</g>
	</g>
</g>
</svg>
