<?xml version="1.0" encoding="utf-8"?>
<!-- Generator: Adobe Illustrator 26.0.3, SVG Export Plug-In . SVG Version: 6.00 Build 0)  -->
<svg version="1.1" id="Capa_1" xmlns="http://www.w3.org/2000/svg" xmlns:xlink="http://www.w3.org/1999/xlink" x="0px" y="0px"
	 width="145.9px" height="43.4px" viewBox="0 0 145.9 43.4" style="enable-background:new 0 0 145.9 43.4;" xml:space="preserve">
<g>
	<g>
		<g>
			<g>
				<g>
					<g>
						<path style="fill:#FFFFFF;" d="M15.6,0.6H0.3C0.1,0.6,0,0.7,0,0.9v21.5c0,0.2,0.1,0.3,0.3,0.3h15.3c0.2,0,0.3-0.1,0.3-0.3
							v-3.5c0-0.2-0.1-0.3-0.3-0.3H4.5c-0.2,0-0.3-0.1-0.3-0.3v-4.2c0-0.2,0.1-0.3,0.3-0.3h9.7c0.2,0,0.3-0.1,0.3-0.3V9.9
							c0-0.2-0.1-0.3-0.3-0.3H4.5c-0.2,0-0.3-0.1-0.3-0.3V5.1c0-0.2,0.1-0.3,0.3-0.3h11.1c0.2,0,0.3-0.1,0.3-0.3V0.9
							C15.9,0.7,15.8,0.6,15.6,0.6z M59,0c-6.7,0-12.1,5.7-11.6,12.4c0.4,5.7,5,10.4,10.8,10.8c6.8,0.5,12.4-4.9,12.4-11.6
							C70.6,5.2,65.4,0,59,0z M66.4,12.5c-0.4,3.4-3.2,6.2-6.6,6.6c-4.5,0.5-8.4-3-8.4-7.5c0-4.1,3.4-7.5,7.5-7.5
							C63.4,4.1,66.9,8,66.4,12.5z M42.5,18.4l-2.5-2c-0.2-0.2-0.4-0.2-0.6,0c-1.5,1.8-3.9,3-6.5,2.7c-3.7-0.3-6.6-3.3-6.8-7
							c-0.3-4.4,3.2-8,7.5-8c2.1,0,4,0.9,5.4,2.3c0.1,0.1,0.3,0.2,0.5,0c0,0,0,0,0,0l2.6-2.1c0,0,0.3-0.3,0-0.5
							C39.9,1.4,36.7-0.2,33,0c-5.8,0.3-10.5,5-10.9,10.8c-0.5,6.8,4.9,12.4,11.6,12.4c3.6,0,6.8-1.6,8.9-4.2c0,0,0,0,0,0
							C43,18.6,42.5,18.4,42.5,18.4z"/>
					</g>
				</g>
				<path style="fill:#FFFFFF;" d="M143.5,22.8h-3.7c-0.1,0-0.2-0.1-0.3-0.2L129,8.1c-0.2-0.3-0.6-0.2-0.6,0.2v14.1
					c0,0.2-0.1,0.3-0.3,0.3h-3.5c-0.2,0-0.3-0.1-0.3-0.3V0.9c0-0.2,0.1-0.3,0.3-0.3h4c0.1,0,0.2,0.1,0.3,0.2l10.3,14.1
					c0.2,0.3,0.6,0.2,0.6-0.2V0.9c0-0.2,0.1-0.3,0.3-0.3h3.5c0.2,0,0.3,0.1,0.3,0.3v21.5C143.9,22.6,143.7,22.8,143.5,22.8z"/>
				<path style="fill:#FFFFFF;" d="M119.3,22.3l-1.3-3.1c0,0,0,0,0,0l-6.4-15.3c0,0,0,0,0,0l-1.3-3.1c-0.1-0.1-0.2-0.2-0.3-0.2
					l-4.2,0c-0.1,0-0.3,0.1-0.3,0.2l-1.2,2.8l0,0c-0.8,1.9-1.5,3.7-2.3,5.4l-5.5,13.2c-0.1,0.2,0.1,0.5,0.3,0.5l3.7,0
					c0.1,0,0.3-0.1,0.3-0.2l0.8-1.9c0,0,0,0,0,0l1-2.5c0.1-0.1,0.1-0.2,0.3-0.2l9.7,0c0.1,0,0.2,0,0.3,0.1l1.8,4.4
					c0.1,0.1,0.2,0.2,0.3,0.2l3.7,0C119.2,22.8,119.4,22.5,119.3,22.3z M110.8,13.8H105c-0.2,0-0.4-0.2-0.3-0.4l2.9-6.8
					c0.1-0.3,0.5-0.3,0.7,0l2.9,6.9C111.1,13.7,111,13.8,110.8,13.8z"/>
				<path style="fill:#FFFFFF;" d="M91.2,13.5c-0.4-0.7-1-1.4-1.6-1.8c-0.7-0.5-1.4-0.9-2.2-1.2c-0.8-0.3-1.5-0.5-2.3-0.8
					c-0.6-0.2-1.2-0.4-1.8-0.6c-0.5-0.2-1-0.4-1.3-0.6c-0.4-0.2-0.6-0.5-0.9-0.9c-0.2-0.3-0.3-0.7-0.3-1.2c0-0.5,0.1-1,0.4-1.3
					c0.2-0.4,0.5-0.7,0.9-0.9c0.4-0.2,0.8-0.4,1.3-0.5c1.2-0.3,2.5-0.2,3.7,0.4c0.7,0.3,1.2,0.7,1.6,1.1c0.1,0.1,0.3,0.3,0.6,0
					c0.2-0.2,1.5-1.6,2.2-2.3c0,0,0,0,0,0c0.2-0.2,0.2-0.4,0-0.6c0,0,0,0,0,0c-0.8-0.7-1.8-1.2-2.9-1.6C87.3,0.2,86.1,0,85,0
					c-1,0-2.1,0.1-3.1,0.4c-1,0.3-1.9,0.7-2.7,1.2c-0.8,0.5-1.4,1.2-1.9,2c-0.5,0.8-0.7,1.8-0.7,2.9c0,1,0.2,1.9,0.5,2.6
					c0.3,0.7,0.8,1.3,1.4,1.8c0.6,0.5,1.2,0.9,1.9,1.2c0.7,0.3,1.4,0.5,2.1,0.7l2,0.7c0.6,0.2,1.2,0.4,1.7,0.7
					c0.5,0.3,0.8,0.6,1.1,1c0.3,0.4,0.4,0.8,0.4,1.4c0,0.6-0.1,1.1-0.4,1.5c-0.2,0.4-0.6,0.7-0.9,1c-0.4,0.3-0.8,0.4-1.3,0.6
					c-0.5,0.1-1,0.2-1.4,0.2c-0.9,0-1.8-0.2-2.7-0.6c-0.8-0.4-1.5-0.9-2-1.5c0,0,0,0,0,0c-0.2-0.2-0.4-0.2-0.6,0c0,0,0,0,0,0
					l-2.4,2.2c0,0,0.2-0.2,0,0c-0.3,0.2-0.1,0.5,0,0.6c0,0,0,0,0,0c0.9,0.9,2,1.6,3.3,2.1c1.4,0.5,2.9,0.8,4.4,0.8
					c1.1,0,2.2-0.1,3.2-0.4c1-0.3,1.9-0.7,2.7-1.3c0.8-0.6,1.4-1.3,1.8-2.2c0.5-0.9,0.7-2,0.7-3.1C91.9,15.1,91.7,14.2,91.2,13.5z"
					/>
			</g>
		</g>
	</g>
</g>
<g>
	<path style="fill:#878787;" d="M1.1,36.3v3.6H0.3v-9.2h3.4c1,0,1.7,0.2,2.2,0.7c0.5,0.4,0.7,1.1,0.7,2.1c0,1.5-0.6,2.4-1.8,2.7
		l1.9,3.8H5.7l-1.8-3.6H1.1z M5.7,33.4c0-0.7-0.2-1.2-0.5-1.5c-0.3-0.3-0.8-0.5-1.5-0.5H1.1v4.1h2.6C5,35.6,5.7,34.9,5.7,33.4z"/>
	<path style="fill:#878787;" d="M12.5,39.3l0.4,0l0,0.7c-1,0.1-1.8,0.2-2.5,0.2c-1,0-1.6-0.3-2-0.8c-0.4-0.6-0.6-1.4-0.6-2.6
		c0-2.3,0.9-3.5,2.7-3.5c0.9,0,1.5,0.3,2,0.8c0.4,0.5,0.7,1.3,0.7,2.4l0,0.6H8.6c0,0.8,0.1,1.4,0.4,1.8c0.3,0.4,0.8,0.6,1.4,0.6
		S11.8,39.3,12.5,39.3z M8.6,36.3h3.7c0-0.9-0.1-1.5-0.4-1.9c-0.3-0.4-0.7-0.6-1.4-0.6c-0.6,0-1.1,0.2-1.4,0.6
		C8.8,34.8,8.6,35.4,8.6,36.3z"/>
	<path style="fill:#878787;" d="M15.5,39.9h-0.8v-6.6h0.8v0.5c0.7-0.4,1.5-0.6,2.2-0.6c0.9,0,1.5,0.2,1.8,0.7
		c0.3,0.5,0.4,1.3,0.4,2.6v3.5h-0.8v-3.5c0-1-0.1-1.7-0.3-2.1c-0.2-0.4-0.6-0.5-1.2-0.5c-0.3,0-0.6,0-1,0.1
		c-0.3,0.1-0.6,0.2-0.8,0.3l-0.3,0.1V39.9z"/>
	<path style="fill:#878787;" d="M25,34h-2.2v3.3c0,0.9,0.1,1.4,0.2,1.7c0.1,0.3,0.4,0.4,0.9,0.4l1.2-0.1l0.1,0.7
		c-0.6,0.1-1,0.1-1.3,0.1c-0.7,0-1.1-0.2-1.4-0.5c-0.3-0.3-0.4-1-0.4-1.9V34h-1v-0.7h1v-2.1h0.8v2.1H25V34z"/>
	<path style="fill:#878787;" d="M30.7,35.3v3.6c0,0.3,0.3,0.5,0.9,0.6l0,0.6c-0.7,0-1.2-0.2-1.5-0.5c-0.8,0.4-1.7,0.5-2.5,0.5
		c-0.6,0-1-0.2-1.4-0.5c-0.3-0.3-0.5-0.8-0.5-1.5c0-0.6,0.2-1.1,0.5-1.4c0.3-0.3,0.8-0.5,1.5-0.6l2.3-0.2v-0.6
		c0-0.5-0.1-0.9-0.3-1.1s-0.5-0.3-0.9-0.3c-0.6,0-1.3,0.1-2.2,0.2l-0.4,0l0-0.6c1-0.2,1.8-0.3,2.6-0.3c0.7,0,1.3,0.2,1.6,0.5
		C30.6,34,30.7,34.6,30.7,35.3z M26.6,38c0,0.9,0.4,1.3,1.1,1.3c0.3,0,0.7,0,1-0.1c0.4-0.1,0.7-0.2,0.9-0.2l0.3-0.1v-2.4l-2.2,0.2
		c-0.4,0-0.7,0.2-0.9,0.4C26.7,37.3,26.6,37.6,26.6,38z"/>
	<path style="fill:#878787;" d="M32.8,39.9v-9.6h0.8v9.6H32.8z"/>
	<path style="fill:#878787;" d="M42.8,30.3v9.6H42v-0.5c-0.7,0.4-1.4,0.6-2.1,0.6c-0.3,0-0.6,0-0.8-0.1c-0.2-0.1-0.5-0.2-0.7-0.4
		c-0.5-0.5-0.8-1.3-0.8-2.6s0.2-2.3,0.6-2.8c0.4-0.6,1.1-0.9,2.2-0.9c0.4,0,0.9,0.1,1.7,0.2v-3H42.8z M39.4,39.3
		c0.2,0.1,0.4,0.1,0.6,0.1c0.3,0,0.6,0,0.9-0.1c0.3-0.1,0.6-0.2,0.8-0.3l0.3-0.1V34c-0.7-0.1-1.3-0.2-1.6-0.2
		c-0.8,0-1.3,0.2-1.6,0.7c-0.3,0.5-0.4,1.2-0.4,2.1c0,1.1,0.2,1.9,0.5,2.2C39.1,39.1,39.3,39.2,39.4,39.3z"/>
	<path style="fill:#878787;" d="M49.1,39.3l0.4,0l0,0.7c-1,0.1-1.8,0.2-2.5,0.2c-1,0-1.6-0.3-2-0.8c-0.4-0.6-0.6-1.4-0.6-2.6
		c0-2.3,0.9-3.5,2.7-3.5c0.9,0,1.5,0.3,2,0.8c0.4,0.5,0.7,1.3,0.7,2.4l0,0.6h-4.5c0,0.8,0.1,1.4,0.4,1.8c0.3,0.4,0.8,0.6,1.4,0.6
		C47.8,39.3,48.5,39.3,49.1,39.3z M45.3,36.3H49c0-0.9-0.1-1.5-0.4-1.9c-0.3-0.4-0.7-0.6-1.4-0.6c-0.6,0-1.1,0.2-1.4,0.6
		C45.4,34.8,45.3,35.4,45.3,36.3z"/>
	<path style="fill:#878787;" d="M54.1,39.9v-9.2h1.5l2.9,8.1l2.8-8.1h1.5v9.2H62v-8.4h-0.2L59,39.6h-1l-2.9-8.1h-0.2v8.4H54.1z"/>
	<path style="fill:#878787;" d="M67.4,33.2c1,0,1.7,0.3,2.2,0.8c0.4,0.5,0.6,1.4,0.6,2.7c0,1.2-0.2,2.1-0.6,2.7
		c-0.4,0.5-1.1,0.8-2.2,0.8c-1.1,0-1.8-0.3-2.2-0.8c-0.4-0.5-0.6-1.4-0.6-2.7c0-1.2,0.2-2.1,0.6-2.7C65.6,33.4,66.4,33.2,67.4,33.2z
		 M67.4,39.4c0.8,0,1.4-0.2,1.6-0.6c0.2-0.4,0.4-1.1,0.4-2.2c0-1-0.1-1.8-0.4-2.1c-0.3-0.4-0.8-0.6-1.5-0.6c-0.8,0-1.3,0.2-1.5,0.6
		c-0.3,0.4-0.4,1.1-0.4,2.1c0,1,0.1,1.8,0.4,2.2C66,39.2,66.6,39.4,67.4,39.4z M66,31.4l2.7-1.3l0.3,0.7L66.3,32L66,31.4z"/>
	<path style="fill:#878787;" d="M76.8,30.3v9.6H76v-0.5c-0.7,0.4-1.4,0.6-2.1,0.6c-0.3,0-0.6,0-0.8-0.1c-0.2-0.1-0.5-0.2-0.7-0.4
		c-0.5-0.5-0.8-1.3-0.8-2.6s0.2-2.3,0.6-2.8c0.4-0.6,1.1-0.9,2.2-0.9c0.4,0,0.9,0.1,1.7,0.2v-3H76.8z M73.3,39.3
		c0.2,0.1,0.4,0.1,0.6,0.1c0.3,0,0.6,0,0.9-0.1c0.3-0.1,0.6-0.2,0.8-0.3l0.3-0.1V34c-0.7-0.1-1.3-0.2-1.6-0.2
		c-0.8,0-1.3,0.2-1.6,0.7c-0.3,0.5-0.4,1.2-0.4,2.1c0,1.1,0.2,1.9,0.5,2.2C73,39.1,73.2,39.2,73.3,39.3z"/>
	<path style="fill:#878787;" d="M82.9,33.3h0.8v6.6h-0.8v-0.5c-0.7,0.4-1.4,0.6-2,0.6c-0.9,0-1.5-0.2-1.8-0.7
		c-0.3-0.5-0.4-1.3-0.4-2.6v-3.5h0.8v3.5c0,1,0.1,1.7,0.3,2.1c0.2,0.4,0.6,0.5,1.2,0.5c0.3,0,0.6,0,1-0.1c0.3-0.1,0.6-0.2,0.7-0.3
		l0.3-0.1V33.3z"/>
	<path style="fill:#878787;" d="M85.6,39.9v-9.6h0.8v9.6H85.6z"/>
	<path style="fill:#878787;" d="M88.1,36.6c0-1.2,0.2-2.1,0.6-2.7c0.4-0.5,1.1-0.8,2.2-0.8s1.7,0.3,2.2,0.8c0.4,0.5,0.6,1.4,0.6,2.7
		c0,1.2-0.2,2.1-0.6,2.7c-0.4,0.5-1.1,0.8-2.2,0.8c-1.1,0-1.8-0.3-2.2-0.8C88.3,38.7,88.1,37.8,88.1,36.6z M88.9,36.6
		c0,1,0.1,1.8,0.4,2.2c0.2,0.4,0.8,0.6,1.6,0.6c0.8,0,1.4-0.2,1.6-0.6s0.4-1.1,0.4-2.2c0-1-0.1-1.8-0.4-2.1
		c-0.3-0.4-0.8-0.6-1.5-0.6c-0.8,0-1.3,0.2-1.5,0.6C89.1,34.8,88.9,35.5,88.9,36.6z"/>
	<path style="fill:#878787;" d="M97.3,33.9c-1,0-1.6,0.4-1.6,1.1c0,0.3,0.1,0.6,0.3,0.7c0.2,0.1,0.8,0.3,1.6,0.4
		c0.8,0.1,1.4,0.3,1.7,0.6c0.3,0.2,0.5,0.7,0.5,1.4c0,0.7-0.2,1.2-0.7,1.5c-0.4,0.3-1.1,0.5-1.9,0.5c-0.5,0-1.1-0.1-1.9-0.2L95,39.8
		l0.1-0.7c1,0.2,1.8,0.2,2.3,0.2c0.5,0,0.9-0.1,1.2-0.3c0.3-0.2,0.4-0.5,0.4-0.9s-0.1-0.7-0.4-0.9c-0.2-0.1-0.8-0.3-1.6-0.4
		c-0.8-0.1-1.4-0.3-1.7-0.5C95.1,36.1,95,35.6,95,35c0-0.6,0.2-1.1,0.7-1.4c0.5-0.3,1-0.4,1.7-0.4c0.5,0,1.2,0.1,2,0.2l0.4,0.1
		l0,0.7C98.7,34,97.9,33.9,97.3,33.9z"/>
	<path style="fill:#878787;" d="M103.3,33.3h0.8l1.8,5.9h0.5l1.8-5.9h0.8l-2.9,9.6h-0.8l0.9-3h-0.9L103.3,33.3z"/>
	<path style="fill:#878787;" d="M112.7,30.7h3.3c1.8,0,2.7,0.8,2.7,2.3c0,1.1-0.4,1.8-1.2,2.2c1,0.3,1.5,1,1.5,2.2
		c0,0.9-0.2,1.6-0.7,2c-0.5,0.4-1.2,0.6-2.1,0.6h-3.5V30.7z M116,31.4h-2.4v3.4h2.5c0.6,0,1.1-0.1,1.4-0.4c0.3-0.3,0.4-0.7,0.4-1.3
		c0-0.6-0.2-1-0.5-1.3C117.1,31.6,116.6,31.4,116,31.4z M116.1,35.6h-2.6v3.6h2.6c0.6,0,1.1-0.1,1.5-0.4c0.3-0.3,0.5-0.8,0.5-1.4
		C118.2,36.2,117.5,35.6,116.1,35.6z"/>
	<path style="fill:#878787;" d="M125.2,35.3v3.6c0,0.3,0.3,0.5,0.9,0.6l0,0.6c-0.7,0-1.2-0.2-1.5-0.5c-0.8,0.4-1.7,0.5-2.5,0.5
		c-0.6,0-1-0.2-1.4-0.5c-0.3-0.3-0.5-0.8-0.5-1.5c0-0.6,0.2-1.1,0.5-1.4c0.3-0.3,0.8-0.5,1.5-0.6l2.3-0.2v-0.6
		c0-0.5-0.1-0.9-0.3-1.1s-0.5-0.3-0.9-0.3c-0.6,0-1.3,0.1-2.2,0.2l-0.4,0l0-0.6c1-0.2,1.8-0.3,2.6-0.3c0.7,0,1.3,0.2,1.6,0.5
		C125.1,34,125.2,34.6,125.2,35.3z M121.1,38c0,0.9,0.4,1.3,1.1,1.3c0.3,0,0.7,0,1-0.1c0.4-0.1,0.7-0.2,0.9-0.2l0.3-0.1v-2.4
		l-2.2,0.2c-0.4,0-0.7,0.2-0.9,0.4C121.2,37.3,121.1,37.6,121.1,38z"/>
	<path style="fill:#878787;" d="M127.2,39.9v-6.6h0.8v0.5l0.3-0.1c0.2-0.1,0.5-0.2,0.8-0.3s0.7-0.2,1-0.2c0.9,0,1.5,0.2,1.8,0.7
		c0.3,0.5,0.4,1.3,0.4,2.6v3.5h-0.8v-3.5c0-1-0.1-1.7-0.3-2.1c-0.2-0.4-0.6-0.5-1.3-0.5c-0.7,0-1.3,0.2-2,0.6v5.5H127.2z
		 M130.9,31.7c-0.2,0-0.5-0.1-1-0.3c-0.5-0.2-0.8-0.3-0.9-0.3c-0.2,0-0.5,0.1-0.8,0.4l-0.2,0.1l-0.2-0.5c0.4-0.4,0.8-0.7,1.2-0.7
		c0.2,0,0.5,0.1,1,0.3c0.5,0.2,0.8,0.3,0.9,0.3c0.2,0,0.4-0.1,0.8-0.4l0.2-0.1l0.2,0.6C131.5,31.5,131.2,31.7,130.9,31.7z"/>
	<path style="fill:#878787;" d="M133.9,36.6c0-1.2,0.2-2.1,0.6-2.7c0.4-0.5,1.1-0.8,2.2-0.8c1,0,1.7,0.3,2.2,0.8
		c0.4,0.5,0.6,1.4,0.6,2.7c0,1.2-0.2,2.1-0.6,2.7c-0.4,0.5-1.1,0.8-2.2,0.8c-1.1,0-1.8-0.3-2.2-0.8
		C134.1,38.7,133.9,37.8,133.9,36.6z M134.8,36.6c0,1,0.1,1.8,0.4,2.2c0.2,0.4,0.8,0.6,1.6,0.6c0.8,0,1.4-0.2,1.6-0.6
		c0.2-0.4,0.4-1.1,0.4-2.2c0-1-0.1-1.8-0.4-2.1c-0.3-0.4-0.8-0.6-1.5-0.6c-0.8,0-1.3,0.2-1.5,0.6C134.9,34.8,134.8,35.5,134.8,36.6z
		"/>
	<path style="fill:#878787;" d="M143.1,33.9c-1,0-1.6,0.4-1.6,1.1c0,0.3,0.1,0.6,0.3,0.7c0.2,0.1,0.8,0.3,1.6,0.4
		c0.8,0.1,1.4,0.3,1.7,0.6c0.3,0.2,0.5,0.7,0.5,1.4c0,0.7-0.2,1.2-0.7,1.5c-0.4,0.3-1.1,0.5-1.9,0.5c-0.5,0-1.1-0.1-1.9-0.2
		l-0.4-0.1l0.1-0.7c1,0.2,1.8,0.2,2.3,0.2c0.5,0,0.9-0.1,1.2-0.3c0.3-0.2,0.4-0.5,0.4-0.9s-0.1-0.7-0.4-0.9
		c-0.2-0.1-0.8-0.3-1.6-0.4c-0.8-0.1-1.4-0.3-1.7-0.5c-0.3-0.2-0.5-0.7-0.5-1.3c0-0.6,0.2-1.1,0.7-1.4c0.5-0.3,1-0.4,1.7-0.4
		c0.5,0,1.2,0.1,2,0.2l0.4,0.1l0,0.7C144.5,34,143.7,33.9,143.1,33.9z"/>
</g>
</svg>
