<?xml version="1.0" encoding="utf-8"?>
<!-- Generator: Adobe Illustrator 26.0.2, SVG Export Plug-In . SVG Version: 6.00 Build 0)  -->
<svg version="1.1" id="Capa_1" xmlns="http://www.w3.org/2000/svg" xmlns:xlink="http://www.w3.org/1999/xlink" x="0px" y="0px"
	 width="15px" height="17px" viewBox="0 0 15 17" style="enable-background:new 0 0 15 17;" xml:space="preserve">
<style type="text/css">
	.st0{fill:#00A89C;}
</style>
<g>
	<g id="Layer_1-2_75_">
		<g id="mail_17_">
			<path class="st0" d="M12.2,15.2H2.8c-1.4,0-2.6-1.2-2.6-2.6V5.1c0-1.4,1.2-2.6,2.6-2.6h9.5c1.4,0,2.6,1.2,2.6,2.6v7.5
				C14.9,14,13.7,15.2,12.2,15.2z M2.8,3.7C2,3.7,1.4,4.3,1.4,5.1v7.5c0,0.8,0.6,1.4,1.4,1.4h9.5c0.8,0,1.4-0.6,1.4-1.4V5.1
				c0-0.8-0.6-1.4-1.4-1.4H2.8z"/>
			<path class="st0" d="M7.5,9.6C7,9.6,6.6,9.4,6.2,9.2L0.5,6C0.2,5.8,0.1,5.5,0.2,5.2s0.6-0.4,0.9-0.2l0,0l5.7,3.2
				c0.4,0.2,0.9,0.2,1.3,0l5.7-3.2c0.3-0.2,0.7-0.1,0.9,0.2c0.2,0.3,0.1,0.7-0.2,0.9L8.8,9.2C8.4,9.4,8,9.6,7.5,9.6z"/>
		</g>
	</g>
</g>
</svg>
