<?xml version="1.0" encoding="utf-8"?>
<!-- Generator: Adobe Illustrator 26.0.1, SVG Export Plug-In . SVG Version: 6.00 Build 0)  -->
<svg version="1.1" id="Capa_1" xmlns="http://www.w3.org/2000/svg" xmlns:xlink="http://www.w3.org/1999/xlink" x="0px" y="0px"
	 viewBox="0 0 20 18" style="enable-background:new 0 0 20 18;" xml:space="preserve">
<g>
	<path style="fill:none;stroke:#01A79B;stroke-width:1.1724;stroke-linecap:round;stroke-linejoin:round;stroke-miterlimit:10;" d="
		M15,5.9L15,5.9c0,2.1-3.2,6.2-4.9,8.1c-1.6-1.9-4.9-6-4.9-8.1C5.3,3.2,7.5,1,10.2,1C12.8,1,15,3.2,15,5.9"/>
	<path style="fill:none;stroke:#01A79B;stroke-width:1.1724;stroke-linecap:round;stroke-linejoin:round;stroke-miterlimit:10;" d="
		M11.8,5.6c0,0.9-0.7,1.6-1.6,1.6c-0.9,0-1.6-0.7-1.6-1.6C8.5,4.7,9.3,4,10.2,4C11,4,11.8,4.7,11.8,5.6L11.8,5.6z"/>
	<path style="fill:none;stroke:#01A79B;stroke-width:1.0994;stroke-linecap:round;stroke-linejoin:round;stroke-miterlimit:10;" d="
		M7.2,10.9l-5.9,2.4c-0.3,0.1-0.3,0.7,0,0.8l7.9,3.1c0.7,0.3,1.4,0.3,2,0l7.9-3.1c0.3-0.1,0.3-0.7,0-0.8l-6-2.4"/>
</g>
<g>
</g>
<g>
</g>
<g>
</g>
<g>
</g>
<g>
</g>
<g>
</g>
<g>
</g>
<g>
</g>
<g>
</g>
<g>
</g>
<g>
</g>
<g>
</g>
<g>
</g>
<g>
</g>
<g>
</g>
</svg>
