<?xml version="1.0" encoding="utf-8"?>
<!-- Generator: Adobe Illustrator 26.0.1, SVG Export Plug-In . SVG Version: 6.00 Build 0)  -->
<svg version="1.1" id="Capa_1" xmlns="http://www.w3.org/2000/svg" xmlns:xlink="http://www.w3.org/1999/xlink" x="0px" y="0px"
	 viewBox="0 0 15 17" style="enable-background:new 0 0 15 17;" xml:space="preserve">
<g>
	<g>
		<g>
			<g id="Layer_1-2_00000112617806109887294290000014102491499758654878_">
				<g id="call_00000015342182282959369230000011991987252295218865_">
					<path style="fill:#00A89C;" d="M11.5,16.1c-0.4,0-0.8-0.1-1.2-0.3c-2.1-1-4-2.4-5.7-4c-1.7-1.7-3-3.6-4-5.7
						C0.1,5,0.3,3.7,1.2,2.9l1.3-1.4c0.1-0.1,0.3-0.2,0.4-0.2l0,0c0.2,0,0.3,0.1,0.4,0.2l3.2,3.2c0.2,0.2,0.2,0.6,0,0.9c0,0,0,0,0,0
						L5.4,6.8C6,7.6,6.6,8.4,7.3,9.1C8,9.8,8.8,10.5,9.6,11l1.2-1.2c0.2-0.2,0.6-0.2,0.9,0c0,0,0,0,0,0l3.2,3.2
						c0.2,0.2,0.2,0.6,0,0.9l-1.4,1.3C13,15.8,12.3,16.1,11.5,16.1z M2.9,2.8L2,3.8C1.6,4.2,1.4,4.9,1.7,5.5c1,2,2.2,3.8,3.8,5.3
						c1.6,1.6,3.4,2.8,5.3,3.8c0.6,0.3,1.3,0.2,1.8-0.3l0.9-0.9l-2.3-2.3l-1.1,1.1c-0.2,0.2-0.5,0.2-0.7,0.1c-1.1-0.6-2.1-1.4-3-2.3
						C5.5,9.1,4.7,8.1,4.1,7C4,6.7,4,6.4,4.2,6.2l1.1-1.1L2.9,2.8z"/>
				</g>
			</g>
		</g>
	</g>
</g>
<g>
</g>
<g>
</g>
<g>
</g>
<g>
</g>
<g>
</g>
<g>
</g>
<g>
</g>
<g>
</g>
<g>
</g>
<g>
</g>
<g>
</g>
<g>
</g>
<g>
</g>
<g>
</g>
<g>
</g>
</svg>
