<?xml version="1.0" encoding="utf-8"?>
<!-- Generator: Adobe Illustrator 26.0.1, SVG Export Plug-In . SVG Version: 6.00 Build 0)  -->
<svg version="1.1" id="Capa_1" xmlns="http://www.w3.org/2000/svg" xmlns:xlink="http://www.w3.org/1999/xlink" x="0px" y="0px"
	 width="1908px" height="768px" viewBox="0 0 1908 768" style="enable-background:new 0 0 1908 768;" xml:space="preserve">
<style type="text/css">
	.st0{fill:#00A89C;}
	.st1{fill:#D4D4D4;}
	.st2{fill:#FFFFFF;}
</style>
<rect x="-30" y="530.2" class="st0" width="1973" height="251.9"/>
<g>
	<g>
		<path class="st1" d="M193.2,501.8L193.2,501.8c0-0.8,0.7-1.5,1.5-1.5l0,0c0.8,0,1.5,0.7,1.5,1.5l0,0c0,0.8-0.7,1.5-1.5,1.5l0,0
			C193.9,503.3,193.2,502.6,193.2,501.8z"/>
		<path class="st1" d="M193.2,471.2L193.2,471.2c0-0.8,0.7-1.5,1.5-1.5l0,0c0.8,0,1.5,0.7,1.5,1.5l0,0c0,0.8-0.7,1.5-1.5,1.5l0,0
			C193.9,472.7,193.2,472.1,193.2,471.2z"/>
		<path class="st1" d="M162.8,501.8L162.8,501.8c0-0.8,0.7-1.5,1.5-1.5l0,0c0.8,0,1.5,0.7,1.5,1.5l0,0c0,0.8-0.7,1.5-1.5,1.5l0,0
			C163.4,503.3,162.8,502.6,162.8,501.8z"/>
		<path class="st1" d="M162.8,471.2L162.8,471.2c0-0.8,0.7-1.5,1.5-1.5l0,0c0.8,0,1.5,0.7,1.5,1.5l0,0c0,0.8-0.7,1.5-1.5,1.5l0,0
			C163.4,472.7,162.8,472.1,162.8,471.2z"/>
		<path class="st1" d="M132.3,501.8L132.3,501.8c0-0.8,0.7-1.5,1.5-1.5l0,0c0.8,0,1.5,0.7,1.5,1.5l0,0c0,0.8-0.7,1.5-1.5,1.5l0,0
			C133,503.3,132.3,502.6,132.3,501.8z"/>
		<path class="st1" d="M132.3,471.2L132.3,471.2c0-0.8,0.7-1.5,1.5-1.5l0,0c0.8,0,1.5,0.7,1.5,1.5l0,0c0,0.8-0.7,1.5-1.5,1.5l0,0
			C133,472.7,132.3,472.1,132.3,471.2z"/>
		<path class="st1" d="M193.2,440.6L193.2,440.6c0-0.8,0.7-1.5,1.5-1.5l0,0c0.8,0,1.5,0.7,1.5,1.5l0,0c0,0.8-0.7,1.5-1.5,1.5l0,0
			C193.9,442.1,193.2,441.5,193.2,440.6z"/>
		<path class="st1" d="M162.8,440.6L162.8,440.6c0-0.8,0.7-1.5,1.5-1.5l0,0c0.8,0,1.5,0.7,1.5,1.5l0,0c0,0.8-0.7,1.5-1.5,1.5l0,0
			C163.4,442.1,162.8,441.5,162.8,440.6z"/>
		<path class="st1" d="M132.3,440.6L132.3,440.6c0-0.8,0.7-1.5,1.5-1.5l0,0c0.8,0,1.5,0.7,1.5,1.5l0,0c0,0.8-0.7,1.5-1.5,1.5l0,0
			C133,442.1,132.3,441.5,132.3,440.6z"/>
		<path class="st1" d="M193.2,410L193.2,410c0-0.8,0.7-1.5,1.5-1.5l0,0c0.8,0,1.5,0.7,1.5,1.5l0,0c0,0.8-0.7,1.5-1.5,1.5l0,0
			C193.9,411.5,193.2,410.9,193.2,410z"/>
		<path class="st1" d="M162.8,410L162.8,410c0-0.8,0.7-1.5,1.5-1.5l0,0c0.8,0,1.5,0.7,1.5,1.5l0,0c0,0.8-0.7,1.5-1.5,1.5l0,0
			C163.4,411.5,162.8,410.9,162.8,410z"/>
		<path class="st1" d="M132.3,410L132.3,410c0-0.8,0.7-1.5,1.5-1.5l0,0c0.8,0,1.5,0.7,1.5,1.5l0,0c0,0.8-0.7,1.5-1.5,1.5l0,0
			C133,411.5,132.3,410.9,132.3,410z"/>
		<path class="st1" d="M193.2,379.4L193.2,379.4c0-0.8,0.7-1.5,1.5-1.5l0,0c0.8,0,1.5,0.7,1.5,1.5l0,0c0,0.8-0.7,1.5-1.5,1.5l0,0
			C193.9,380.9,193.2,380.3,193.2,379.4z"/>
		<path class="st1" d="M162.8,379.4L162.8,379.4c0-0.8,0.7-1.5,1.5-1.5l0,0c0.8,0,1.5,0.7,1.5,1.5l0,0c0,0.8-0.7,1.5-1.5,1.5l0,0
			C163.4,380.9,162.8,380.3,162.8,379.4z"/>
		<path class="st1" d="M132.3,379.4L132.3,379.4c0-0.8,0.7-1.5,1.5-1.5l0,0c0.8,0,1.5,0.7,1.5,1.5l0,0c0,0.8-0.7,1.5-1.5,1.5l0,0
			C133,380.9,132.3,380.3,132.3,379.4z"/>
		<path class="st1" d="M193.2,348.8L193.2,348.8c0-0.8,0.7-1.5,1.5-1.5l0,0c0.8,0,1.5,0.7,1.5,1.5l0,0c0,0.8-0.7,1.5-1.5,1.5l0,0
			C193.9,350.4,193.2,349.7,193.2,348.8z"/>
		<path class="st1" d="M162.8,348.8L162.8,348.8c0-0.8,0.7-1.5,1.5-1.5l0,0c0.8,0,1.5,0.7,1.5,1.5l0,0c0,0.8-0.7,1.5-1.5,1.5l0,0
			C163.4,350.4,162.8,349.7,162.8,348.8z"/>
		<path class="st1" d="M132.3,348.8L132.3,348.8c0-0.8,0.7-1.5,1.5-1.5l0,0c0.8,0,1.5,0.7,1.5,1.5l0,0c0,0.8-0.7,1.5-1.5,1.5l0,0
			C133,350.4,132.3,349.7,132.3,348.8z"/>
		<path class="st1" d="M193.2,318.2L193.2,318.2c0-0.8,0.7-1.5,1.5-1.5l0,0c0.8,0,1.5,0.7,1.5,1.5l0,0c0,0.8-0.7,1.5-1.5,1.5l0,0
			C193.9,319.8,193.2,319.1,193.2,318.2z"/>
		<path class="st1" d="M162.8,318.2L162.8,318.2c0-0.8,0.7-1.5,1.5-1.5l0,0c0.8,0,1.5,0.7,1.5,1.5l0,0c0,0.8-0.7,1.5-1.5,1.5l0,0
			C163.4,319.8,162.8,319.1,162.8,318.2z"/>
		<path class="st1" d="M132.3,318.2L132.3,318.2c0-0.8,0.7-1.5,1.5-1.5l0,0c0.8,0,1.5,0.7,1.5,1.5l0,0c0,0.8-0.7,1.5-1.5,1.5l0,0
			C133,319.8,132.3,319.1,132.3,318.2z"/>
		<path class="st1" d="M193.2,287.7L193.2,287.7c0-0.8,0.7-1.5,1.5-1.5l0,0c0.8,0,1.5,0.7,1.5,1.5l0,0c0,0.8-0.7,1.5-1.5,1.5l0,0
			C193.9,289.2,193.2,288.5,193.2,287.7z"/>
		<path class="st1" d="M162.8,287.7L162.8,287.7c0-0.8,0.7-1.5,1.5-1.5l0,0c0.8,0,1.5,0.7,1.5,1.5l0,0c0,0.8-0.7,1.5-1.5,1.5l0,0
			C163.4,289.2,162.8,288.5,162.8,287.7z"/>
		<path class="st1" d="M132.3,287.7L132.3,287.7c0-0.8,0.7-1.5,1.5-1.5l0,0c0.8,0,1.5,0.7,1.5,1.5l0,0c0,0.8-0.7,1.5-1.5,1.5l0,0
			C133,289.2,132.3,288.5,132.3,287.7z"/>
		<path class="st1" d="M193.2,287.7L193.2,287.7c0-0.8,0.7-1.5,1.5-1.5l0,0c0.8,0,1.5,0.7,1.5,1.5l0,0c0,0.8-0.7,1.5-1.5,1.5l0,0
			C193.9,289.2,193.2,288.5,193.2,287.7z"/>
		<path class="st1" d="M193.2,257.1L193.2,257.1c0-0.8,0.7-1.5,1.5-1.5l0,0c0.8,0,1.5,0.7,1.5,1.5l0,0c0,0.8-0.7,1.5-1.5,1.5l0,0
			C193.9,258.6,193.2,257.9,193.2,257.1z"/>
		<path class="st1" d="M162.8,287.7L162.8,287.7c0-0.8,0.7-1.5,1.5-1.5l0,0c0.8,0,1.5,0.7,1.5,1.5l0,0c0,0.8-0.7,1.5-1.5,1.5l0,0
			C163.4,289.2,162.8,288.5,162.8,287.7z"/>
		<path class="st1" d="M162.8,257.1L162.8,257.1c0-0.8,0.7-1.5,1.5-1.5l0,0c0.8,0,1.5,0.7,1.5,1.5l0,0c0,0.8-0.7,1.5-1.5,1.5l0,0
			C163.4,258.6,162.8,257.9,162.8,257.1z"/>
		<path class="st1" d="M132.3,287.7L132.3,287.7c0-0.8,0.7-1.5,1.5-1.5l0,0c0.8,0,1.5,0.7,1.5,1.5l0,0c0,0.8-0.7,1.5-1.5,1.5l0,0
			C133,289.2,132.3,288.5,132.3,287.7z"/>
		<path class="st1" d="M132.3,257.1L132.3,257.1c0-0.8,0.7-1.5,1.5-1.5l0,0c0.8,0,1.5,0.7,1.5,1.5l0,0c0,0.8-0.7,1.5-1.5,1.5l0,0
			C133,258.6,132.3,257.9,132.3,257.1z"/>
		<path class="st1" d="M193.2,226.5L193.2,226.5c0-0.8,0.7-1.5,1.5-1.5l0,0c0.8,0,1.5,0.7,1.5,1.5v0c0,0.8-0.7,1.5-1.5,1.5l0,0
			C193.9,228,193.2,227.3,193.2,226.5z"/>
		<path class="st1" d="M162.8,226.5L162.8,226.5c0-0.8,0.7-1.5,1.5-1.5l0,0c0.8,0,1.5,0.7,1.5,1.5v0c0,0.8-0.7,1.5-1.5,1.5l0,0
			C163.4,228,162.8,227.3,162.8,226.5z"/>
		<path class="st1" d="M132.3,226.5L132.3,226.5c0-0.8,0.7-1.5,1.5-1.5l0,0c0.8,0,1.5,0.7,1.5,1.5v0c0,0.8-0.7,1.5-1.5,1.5l0,0
			C133,228,132.3,227.3,132.3,226.5z"/>
		<path class="st1" d="M193.2,195.9L193.2,195.9c0-0.8,0.7-1.5,1.5-1.5l0,0c0.8,0,1.5,0.7,1.5,1.5l0,0c0,0.8-0.7,1.5-1.5,1.5l0,0
			C193.9,197.4,193.2,196.7,193.2,195.9z"/>
		<path class="st1" d="M162.8,195.9L162.8,195.9c0-0.8,0.7-1.5,1.5-1.5l0,0c0.8,0,1.5,0.7,1.5,1.5l0,0c0,0.8-0.7,1.5-1.5,1.5l0,0
			C163.4,197.4,162.8,196.7,162.8,195.9z"/>
		<path class="st1" d="M132.3,195.9L132.3,195.9c0-0.8,0.7-1.5,1.5-1.5l0,0c0.8,0,1.5,0.7,1.5,1.5l0,0c0,0.8-0.7,1.5-1.5,1.5l0,0
			C133,197.4,132.3,196.7,132.3,195.9z"/>
		<path class="st1" d="M193.2,165.3L193.2,165.3c0-0.8,0.7-1.5,1.5-1.5l0,0c0.8,0,1.5,0.7,1.5,1.5l0,0c0,0.8-0.7,1.5-1.5,1.5l0,0
			C193.9,166.8,193.2,166.1,193.2,165.3z"/>
		<path class="st1" d="M162.8,165.3L162.8,165.3c0-0.8,0.7-1.5,1.5-1.5l0,0c0.8,0,1.5,0.7,1.5,1.5l0,0c0,0.8-0.7,1.5-1.5,1.5l0,0
			C163.4,166.8,162.8,166.1,162.8,165.3z"/>
		<path class="st1" d="M132.3,165.3L132.3,165.3c0-0.8,0.7-1.5,1.5-1.5l0,0c0.8,0,1.5,0.7,1.5,1.5l0,0c0,0.8-0.7,1.5-1.5,1.5l0,0
			C133,166.8,132.3,166.1,132.3,165.3z"/>
		<path class="st1" d="M193.2,134.7L193.2,134.7c0-0.8,0.7-1.5,1.5-1.5l0,0c0.8,0,1.5,0.7,1.5,1.5l0,0c0,0.8-0.7,1.5-1.5,1.5l0,0
			C193.9,136.2,193.2,135.5,193.2,134.7z"/>
		<path class="st1" d="M162.8,134.7L162.8,134.7c0-0.8,0.7-1.5,1.5-1.5l0,0c0.8,0,1.5,0.7,1.5,1.5l0,0c0,0.8-0.7,1.5-1.5,1.5l0,0
			C163.4,136.2,162.8,135.5,162.8,134.7z"/>
		<path class="st1" d="M132.3,134.7L132.3,134.7c0-0.8,0.7-1.5,1.5-1.5l0,0c0.8,0,1.5,0.7,1.5,1.5l0,0c0,0.8-0.7,1.5-1.5,1.5l0,0
			C133,136.2,132.3,135.5,132.3,134.7z"/>
		<path class="st1" d="M193.2,104.1L193.2,104.1c0-0.8,0.7-1.5,1.5-1.5l0,0c0.8,0,1.5,0.7,1.5,1.5v0c0,0.8-0.7,1.5-1.5,1.5l0,0
			C193.9,105.6,193.2,104.9,193.2,104.1z"/>
		<path class="st1" d="M162.8,104.1L162.8,104.1c0-0.8,0.7-1.5,1.5-1.5l0,0c0.8,0,1.5,0.7,1.5,1.5v0c0,0.8-0.7,1.5-1.5,1.5l0,0
			C163.4,105.6,162.8,104.9,162.8,104.1z"/>
		<path class="st1" d="M132.3,104.1L132.3,104.1c0-0.8,0.7-1.5,1.5-1.5l0,0c0.8,0,1.5,0.7,1.5,1.5v0c0,0.8-0.7,1.5-1.5,1.5l0,0
			C133,105.6,132.3,104.9,132.3,104.1z"/>
		<path class="st1" d="M193.2,73.5L193.2,73.5c0-0.8,0.7-1.5,1.5-1.5l0,0c0.8,0,1.5,0.7,1.5,1.5l0,0c0,0.8-0.7,1.5-1.5,1.5l0,0
			C193.9,75,193.2,74.3,193.2,73.5z"/>
		<path class="st1" d="M162.8,73.5L162.8,73.5c0-0.8,0.7-1.5,1.5-1.5l0,0c0.8,0,1.5,0.7,1.5,1.5l0,0c0,0.8-0.7,1.5-1.5,1.5l0,0
			C163.4,75,162.8,74.3,162.8,73.5z"/>
		<path class="st1" d="M132.3,73.5L132.3,73.5c0-0.8,0.7-1.5,1.5-1.5l0,0c0.8,0,1.5,0.7,1.5,1.5l0,0c0,0.8-0.7,1.5-1.5,1.5l0,0
			C133,75,132.3,74.3,132.3,73.5z"/>
	</g>
	<g>
		<path class="st1" d="M253.5,501.8L253.5,501.8c0-0.8,0.7-1.5,1.5-1.5l0,0c0.8,0,1.5,0.7,1.5,1.5l0,0c0,0.8-0.7,1.5-1.5,1.5l0,0
			C254.2,503.3,253.5,502.6,253.5,501.8z"/>
		<path class="st1" d="M253.5,471.2L253.5,471.2c0-0.8,0.7-1.5,1.5-1.5l0,0c0.8,0,1.5,0.7,1.5,1.5l0,0c0,0.8-0.7,1.5-1.5,1.5l0,0
			C254.2,472.7,253.5,472.1,253.5,471.2z"/>
		<path class="st1" d="M223.1,501.8L223.1,501.8c0-0.8,0.7-1.5,1.5-1.5l0,0c0.8,0,1.5,0.7,1.5,1.5l0,0c0,0.8-0.7,1.5-1.5,1.5l0,0
			C223.8,503.3,223.1,502.6,223.1,501.8z"/>
		<path class="st1" d="M223.1,471.2L223.1,471.2c0-0.8,0.7-1.5,1.5-1.5l0,0c0.8,0,1.5,0.7,1.5,1.5l0,0c0,0.8-0.7,1.5-1.5,1.5l0,0
			C223.8,472.7,223.1,472.1,223.1,471.2z"/>
		<path class="st1" d="M192.6,501.8L192.6,501.8c0-0.8,0.7-1.5,1.5-1.5h0c0.8,0,1.5,0.7,1.5,1.5l0,0c0,0.8-0.7,1.5-1.5,1.5h0
			C193.3,503.3,192.6,502.6,192.6,501.8z"/>
		<path class="st1" d="M192.6,471.2L192.6,471.2c0-0.8,0.7-1.5,1.5-1.5h0c0.8,0,1.5,0.7,1.5,1.5l0,0c0,0.8-0.7,1.5-1.5,1.5h0
			C193.3,472.7,192.6,472.1,192.6,471.2z"/>
		<path class="st1" d="M253.5,440.6L253.5,440.6c0-0.8,0.7-1.5,1.5-1.5l0,0c0.8,0,1.5,0.7,1.5,1.5l0,0c0,0.8-0.7,1.5-1.5,1.5l0,0
			C254.2,442.1,253.5,441.5,253.5,440.6z"/>
		<path class="st1" d="M223.1,440.6L223.1,440.6c0-0.8,0.7-1.5,1.5-1.5l0,0c0.8,0,1.5,0.7,1.5,1.5l0,0c0,0.8-0.7,1.5-1.5,1.5l0,0
			C223.8,442.1,223.1,441.5,223.1,440.6z"/>
		<path class="st1" d="M192.6,440.6L192.6,440.6c0-0.8,0.7-1.5,1.5-1.5h0c0.8,0,1.5,0.7,1.5,1.5l0,0c0,0.8-0.7,1.5-1.5,1.5h0
			C193.3,442.1,192.6,441.5,192.6,440.6z"/>
		<path class="st1" d="M253.5,410L253.5,410c0-0.8,0.7-1.5,1.5-1.5l0,0c0.8,0,1.5,0.7,1.5,1.5l0,0c0,0.8-0.7,1.5-1.5,1.5l0,0
			C254.2,411.5,253.5,410.9,253.5,410z"/>
		<path class="st1" d="M223.1,410L223.1,410c0-0.8,0.7-1.5,1.5-1.5l0,0c0.8,0,1.5,0.7,1.5,1.5l0,0c0,0.8-0.7,1.5-1.5,1.5l0,0
			C223.8,411.5,223.1,410.9,223.1,410z"/>
		<path class="st1" d="M192.6,410L192.6,410c0-0.8,0.7-1.5,1.5-1.5h0c0.8,0,1.5,0.7,1.5,1.5l0,0c0,0.8-0.7,1.5-1.5,1.5h0
			C193.3,411.5,192.6,410.9,192.6,410z"/>
		<path class="st1" d="M253.5,379.4L253.5,379.4c0-0.8,0.7-1.5,1.5-1.5l0,0c0.8,0,1.5,0.7,1.5,1.5l0,0c0,0.8-0.7,1.5-1.5,1.5l0,0
			C254.2,380.9,253.5,380.3,253.5,379.4z"/>
		<path class="st1" d="M223.1,379.4L223.1,379.4c0-0.8,0.7-1.5,1.5-1.5l0,0c0.8,0,1.5,0.7,1.5,1.5l0,0c0,0.8-0.7,1.5-1.5,1.5l0,0
			C223.8,380.9,223.1,380.3,223.1,379.4z"/>
		<path class="st1" d="M192.6,379.4L192.6,379.4c0-0.8,0.7-1.5,1.5-1.5h0c0.8,0,1.5,0.7,1.5,1.5l0,0c0,0.8-0.7,1.5-1.5,1.5h0
			C193.3,380.9,192.6,380.3,192.6,379.4z"/>
		<path class="st1" d="M253.5,348.8L253.5,348.8c0-0.8,0.7-1.5,1.5-1.5l0,0c0.8,0,1.5,0.7,1.5,1.5l0,0c0,0.8-0.7,1.5-1.5,1.5l0,0
			C254.2,350.4,253.5,349.7,253.5,348.8z"/>
		<path class="st1" d="M223.1,348.8L223.1,348.8c0-0.8,0.7-1.5,1.5-1.5l0,0c0.8,0,1.5,0.7,1.5,1.5l0,0c0,0.8-0.7,1.5-1.5,1.5l0,0
			C223.8,350.4,223.1,349.7,223.1,348.8z"/>
		<path class="st1" d="M192.6,348.8L192.6,348.8c0-0.8,0.7-1.5,1.5-1.5h0c0.8,0,1.5,0.7,1.5,1.5l0,0c0,0.8-0.7,1.5-1.5,1.5h0
			C193.3,350.4,192.6,349.7,192.6,348.8z"/>
		<path class="st1" d="M253.5,318.2L253.5,318.2c0-0.8,0.7-1.5,1.5-1.5l0,0c0.8,0,1.5,0.7,1.5,1.5l0,0c0,0.8-0.7,1.5-1.5,1.5l0,0
			C254.2,319.8,253.5,319.1,253.5,318.2z"/>
		<path class="st1" d="M223.1,318.2L223.1,318.2c0-0.8,0.7-1.5,1.5-1.5l0,0c0.8,0,1.5,0.7,1.5,1.5l0,0c0,0.8-0.7,1.5-1.5,1.5l0,0
			C223.8,319.8,223.1,319.1,223.1,318.2z"/>
		<path class="st1" d="M192.6,318.2L192.6,318.2c0-0.8,0.7-1.5,1.5-1.5h0c0.8,0,1.5,0.7,1.5,1.5l0,0c0,0.8-0.7,1.5-1.5,1.5h0
			C193.3,319.8,192.6,319.1,192.6,318.2z"/>
		<path class="st1" d="M253.5,287.7L253.5,287.7c0-0.8,0.7-1.5,1.5-1.5l0,0c0.8,0,1.5,0.7,1.5,1.5l0,0c0,0.8-0.7,1.5-1.5,1.5l0,0
			C254.2,289.2,253.5,288.5,253.5,287.7z"/>
		<path class="st1" d="M223.1,287.7L223.1,287.7c0-0.8,0.7-1.5,1.5-1.5l0,0c0.8,0,1.5,0.7,1.5,1.5l0,0c0,0.8-0.7,1.5-1.5,1.5l0,0
			C223.8,289.2,223.1,288.5,223.1,287.7z"/>
		<path class="st1" d="M192.6,287.7L192.6,287.7c0-0.8,0.7-1.5,1.5-1.5h0c0.8,0,1.5,0.7,1.5,1.5l0,0c0,0.8-0.7,1.5-1.5,1.5h0
			C193.3,289.2,192.6,288.5,192.6,287.7z"/>
		<path class="st1" d="M253.5,287.7L253.5,287.7c0-0.8,0.7-1.5,1.5-1.5l0,0c0.8,0,1.5,0.7,1.5,1.5l0,0c0,0.8-0.7,1.5-1.5,1.5l0,0
			C254.2,289.2,253.5,288.5,253.5,287.7z"/>
		<path class="st1" d="M253.5,257.1L253.5,257.1c0-0.8,0.7-1.5,1.5-1.5l0,0c0.8,0,1.5,0.7,1.5,1.5l0,0c0,0.8-0.7,1.5-1.5,1.5l0,0
			C254.2,258.6,253.5,257.9,253.5,257.1z"/>
		<path class="st1" d="M223.1,287.7L223.1,287.7c0-0.8,0.7-1.5,1.5-1.5l0,0c0.8,0,1.5,0.7,1.5,1.5l0,0c0,0.8-0.7,1.5-1.5,1.5l0,0
			C223.8,289.2,223.1,288.5,223.1,287.7z"/>
		<path class="st1" d="M223.1,257.1L223.1,257.1c0-0.8,0.7-1.5,1.5-1.5l0,0c0.8,0,1.5,0.7,1.5,1.5l0,0c0,0.8-0.7,1.5-1.5,1.5l0,0
			C223.8,258.6,223.1,257.9,223.1,257.1z"/>
		<path class="st1" d="M192.6,287.7L192.6,287.7c0-0.8,0.7-1.5,1.5-1.5h0c0.8,0,1.5,0.7,1.5,1.5l0,0c0,0.8-0.7,1.5-1.5,1.5h0
			C193.3,289.2,192.6,288.5,192.6,287.7z"/>
		<path class="st1" d="M192.6,257.1L192.6,257.1c0-0.8,0.7-1.5,1.5-1.5h0c0.8,0,1.5,0.7,1.5,1.5l0,0c0,0.8-0.7,1.5-1.5,1.5h0
			C193.3,258.6,192.6,257.9,192.6,257.1z"/>
		<path class="st1" d="M253.5,226.5L253.5,226.5c0-0.8,0.7-1.5,1.5-1.5l0,0c0.8,0,1.5,0.7,1.5,1.5v0c0,0.8-0.7,1.5-1.5,1.5l0,0
			C254.2,228,253.5,227.3,253.5,226.5z"/>
		<path class="st1" d="M223.1,226.5L223.1,226.5c0-0.8,0.7-1.5,1.5-1.5l0,0c0.8,0,1.5,0.7,1.5,1.5v0c0,0.8-0.7,1.5-1.5,1.5l0,0
			C223.8,228,223.1,227.3,223.1,226.5z"/>
		<path class="st1" d="M192.6,226.5L192.6,226.5c0-0.8,0.7-1.5,1.5-1.5h0c0.8,0,1.5,0.7,1.5,1.5v0c0,0.8-0.7,1.5-1.5,1.5h0
			C193.3,228,192.6,227.3,192.6,226.5z"/>
		<path class="st1" d="M253.5,195.9L253.5,195.9c0-0.8,0.7-1.5,1.5-1.5l0,0c0.8,0,1.5,0.7,1.5,1.5l0,0c0,0.8-0.7,1.5-1.5,1.5l0,0
			C254.2,197.4,253.5,196.7,253.5,195.9z"/>
		<path class="st1" d="M223.1,195.9L223.1,195.9c0-0.8,0.7-1.5,1.5-1.5l0,0c0.8,0,1.5,0.7,1.5,1.5l0,0c0,0.8-0.7,1.5-1.5,1.5l0,0
			C223.8,197.4,223.1,196.7,223.1,195.9z"/>
		<path class="st1" d="M192.6,195.9L192.6,195.9c0-0.8,0.7-1.5,1.5-1.5h0c0.8,0,1.5,0.7,1.5,1.5l0,0c0,0.8-0.7,1.5-1.5,1.5h0
			C193.3,197.4,192.6,196.7,192.6,195.9z"/>
		<path class="st1" d="M253.5,165.3L253.5,165.3c0-0.8,0.7-1.5,1.5-1.5l0,0c0.8,0,1.5,0.7,1.5,1.5l0,0c0,0.8-0.7,1.5-1.5,1.5l0,0
			C254.2,166.8,253.5,166.1,253.5,165.3z"/>
		<path class="st1" d="M223.1,165.3L223.1,165.3c0-0.8,0.7-1.5,1.5-1.5l0,0c0.8,0,1.5,0.7,1.5,1.5l0,0c0,0.8-0.7,1.5-1.5,1.5l0,0
			C223.8,166.8,223.1,166.1,223.1,165.3z"/>
		<path class="st1" d="M192.6,165.3L192.6,165.3c0-0.8,0.7-1.5,1.5-1.5h0c0.8,0,1.5,0.7,1.5,1.5l0,0c0,0.8-0.7,1.5-1.5,1.5h0
			C193.3,166.8,192.6,166.1,192.6,165.3z"/>
		<path class="st1" d="M253.5,134.7L253.5,134.7c0-0.8,0.7-1.5,1.5-1.5l0,0c0.8,0,1.5,0.7,1.5,1.5l0,0c0,0.8-0.7,1.5-1.5,1.5l0,0
			C254.2,136.2,253.5,135.5,253.5,134.7z"/>
		<path class="st1" d="M223.1,134.7L223.1,134.7c0-0.8,0.7-1.5,1.5-1.5l0,0c0.8,0,1.5,0.7,1.5,1.5l0,0c0,0.8-0.7,1.5-1.5,1.5l0,0
			C223.8,136.2,223.1,135.5,223.1,134.7z"/>
		<path class="st1" d="M192.6,134.7L192.6,134.7c0-0.8,0.7-1.5,1.5-1.5h0c0.8,0,1.5,0.7,1.5,1.5l0,0c0,0.8-0.7,1.5-1.5,1.5h0
			C193.3,136.2,192.6,135.5,192.6,134.7z"/>
		<path class="st1" d="M253.5,104.1L253.5,104.1c0-0.8,0.7-1.5,1.5-1.5l0,0c0.8,0,1.5,0.7,1.5,1.5v0c0,0.8-0.7,1.5-1.5,1.5l0,0
			C254.2,105.6,253.5,104.9,253.5,104.1z"/>
		<path class="st1" d="M223.1,104.1L223.1,104.1c0-0.8,0.7-1.5,1.5-1.5l0,0c0.8,0,1.5,0.7,1.5,1.5v0c0,0.8-0.7,1.5-1.5,1.5l0,0
			C223.8,105.6,223.1,104.9,223.1,104.1z"/>
		<path class="st1" d="M192.6,104.1L192.6,104.1c0-0.8,0.7-1.5,1.5-1.5h0c0.8,0,1.5,0.7,1.5,1.5v0c0,0.8-0.7,1.5-1.5,1.5h0
			C193.3,105.6,192.6,104.9,192.6,104.1z"/>
		<path class="st1" d="M253.5,73.5L253.5,73.5c0-0.8,0.7-1.5,1.5-1.5l0,0c0.8,0,1.5,0.7,1.5,1.5l0,0c0,0.8-0.7,1.5-1.5,1.5l0,0
			C254.2,75,253.5,74.3,253.5,73.5z"/>
		<path class="st1" d="M223.1,73.5L223.1,73.5c0-0.8,0.7-1.5,1.5-1.5l0,0c0.8,0,1.5,0.7,1.5,1.5l0,0c0,0.8-0.7,1.5-1.5,1.5l0,0
			C223.8,75,223.1,74.3,223.1,73.5z"/>
		<path class="st1" d="M192.6,73.5L192.6,73.5c0-0.8,0.7-1.5,1.5-1.5h0c0.8,0,1.5,0.7,1.5,1.5l0,0c0,0.8-0.7,1.5-1.5,1.5h0
			C193.3,75,192.6,74.3,192.6,73.5z"/>
	</g>
	<g>
		<path class="st1" d="M313.8,501.8L313.8,501.8c0-0.8,0.7-1.5,1.5-1.5l0,0c0.8,0,1.5,0.7,1.5,1.5l0,0c0,0.8-0.7,1.5-1.5,1.5l0,0
			C314.5,503.3,313.8,502.6,313.8,501.8z"/>
		<path class="st1" d="M313.8,471.2L313.8,471.2c0-0.8,0.7-1.5,1.5-1.5l0,0c0.8,0,1.5,0.7,1.5,1.5l0,0c0,0.8-0.7,1.5-1.5,1.5l0,0
			C314.5,472.7,313.8,472.1,313.8,471.2z"/>
		<path class="st1" d="M283.4,501.8L283.4,501.8c0-0.8,0.7-1.5,1.5-1.5l0,0c0.8,0,1.5,0.7,1.5,1.5l0,0c0,0.8-0.7,1.5-1.5,1.5l0,0
			C284.1,503.3,283.4,502.6,283.4,501.8z"/>
		<path class="st1" d="M283.4,471.2L283.4,471.2c0-0.8,0.7-1.5,1.5-1.5l0,0c0.8,0,1.5,0.7,1.5,1.5l0,0c0,0.8-0.7,1.5-1.5,1.5l0,0
			C284.1,472.7,283.4,472.1,283.4,471.2z"/>
		<path class="st1" d="M252.9,501.8L252.9,501.8c0-0.8,0.7-1.5,1.5-1.5h0c0.8,0,1.5,0.7,1.5,1.5l0,0c0,0.8-0.7,1.5-1.5,1.5h0
			C253.6,503.3,252.9,502.6,252.9,501.8z"/>
		<path class="st1" d="M252.9,471.2L252.9,471.2c0-0.8,0.7-1.5,1.5-1.5h0c0.8,0,1.5,0.7,1.5,1.5l0,0c0,0.8-0.7,1.5-1.5,1.5h0
			C253.6,472.7,252.9,472.1,252.9,471.2z"/>
		<path class="st1" d="M313.8,440.6L313.8,440.6c0-0.8,0.7-1.5,1.5-1.5l0,0c0.8,0,1.5,0.7,1.5,1.5l0,0c0,0.8-0.7,1.5-1.5,1.5l0,0
			C314.5,442.1,313.8,441.5,313.8,440.6z"/>
		<path class="st1" d="M283.4,440.6L283.4,440.6c0-0.8,0.7-1.5,1.5-1.5l0,0c0.8,0,1.5,0.7,1.5,1.5l0,0c0,0.8-0.7,1.5-1.5,1.5l0,0
			C284.1,442.1,283.4,441.5,283.4,440.6z"/>
		<path class="st1" d="M252.9,440.6L252.9,440.6c0-0.8,0.7-1.5,1.5-1.5h0c0.8,0,1.5,0.7,1.5,1.5l0,0c0,0.8-0.7,1.5-1.5,1.5h0
			C253.6,442.1,252.9,441.5,252.9,440.6z"/>
		<path class="st1" d="M313.8,410L313.8,410c0-0.8,0.7-1.5,1.5-1.5l0,0c0.8,0,1.5,0.7,1.5,1.5l0,0c0,0.8-0.7,1.5-1.5,1.5l0,0
			C314.5,411.5,313.8,410.9,313.8,410z"/>
		<path class="st1" d="M283.4,410L283.4,410c0-0.8,0.7-1.5,1.5-1.5l0,0c0.8,0,1.5,0.7,1.5,1.5l0,0c0,0.8-0.7,1.5-1.5,1.5l0,0
			C284.1,411.5,283.4,410.9,283.4,410z"/>
		<path class="st1" d="M252.9,410L252.9,410c0-0.8,0.7-1.5,1.5-1.5h0c0.8,0,1.5,0.7,1.5,1.5l0,0c0,0.8-0.7,1.5-1.5,1.5h0
			C253.6,411.5,252.9,410.9,252.9,410z"/>
		<path class="st1" d="M313.8,379.4L313.8,379.4c0-0.8,0.7-1.5,1.5-1.5l0,0c0.8,0,1.5,0.7,1.5,1.5l0,0c0,0.8-0.7,1.5-1.5,1.5l0,0
			C314.5,380.9,313.8,380.3,313.8,379.4z"/>
		<path class="st1" d="M283.4,379.4L283.4,379.4c0-0.8,0.7-1.5,1.5-1.5l0,0c0.8,0,1.5,0.7,1.5,1.5l0,0c0,0.8-0.7,1.5-1.5,1.5l0,0
			C284.1,380.9,283.4,380.3,283.4,379.4z"/>
		<path class="st1" d="M252.9,379.4L252.9,379.4c0-0.8,0.7-1.5,1.5-1.5h0c0.8,0,1.5,0.7,1.5,1.5l0,0c0,0.8-0.7,1.5-1.5,1.5h0
			C253.6,380.9,252.9,380.3,252.9,379.4z"/>
		<path class="st1" d="M313.8,348.8L313.8,348.8c0-0.8,0.7-1.5,1.5-1.5l0,0c0.8,0,1.5,0.7,1.5,1.5l0,0c0,0.8-0.7,1.5-1.5,1.5l0,0
			C314.5,350.4,313.8,349.7,313.8,348.8z"/>
		<path class="st1" d="M283.4,348.8L283.4,348.8c0-0.8,0.7-1.5,1.5-1.5l0,0c0.8,0,1.5,0.7,1.5,1.5l0,0c0,0.8-0.7,1.5-1.5,1.5l0,0
			C284.1,350.4,283.4,349.7,283.4,348.8z"/>
		<path class="st1" d="M252.9,348.8L252.9,348.8c0-0.8,0.7-1.5,1.5-1.5h0c0.8,0,1.5,0.7,1.5,1.5l0,0c0,0.8-0.7,1.5-1.5,1.5h0
			C253.6,350.4,252.9,349.7,252.9,348.8z"/>
		<path class="st1" d="M313.8,318.2L313.8,318.2c0-0.8,0.7-1.5,1.5-1.5l0,0c0.8,0,1.5,0.7,1.5,1.5l0,0c0,0.8-0.7,1.5-1.5,1.5l0,0
			C314.5,319.8,313.8,319.1,313.8,318.2z"/>
		<path class="st1" d="M283.4,318.2L283.4,318.2c0-0.8,0.7-1.5,1.5-1.5l0,0c0.8,0,1.5,0.7,1.5,1.5l0,0c0,0.8-0.7,1.5-1.5,1.5l0,0
			C284.1,319.8,283.4,319.1,283.4,318.2z"/>
		<path class="st1" d="M252.9,318.2L252.9,318.2c0-0.8,0.7-1.5,1.5-1.5h0c0.8,0,1.5,0.7,1.5,1.5l0,0c0,0.8-0.7,1.5-1.5,1.5h0
			C253.6,319.8,252.9,319.1,252.9,318.2z"/>
		<path class="st1" d="M313.8,287.7L313.8,287.7c0-0.8,0.7-1.5,1.5-1.5l0,0c0.8,0,1.5,0.7,1.5,1.5l0,0c0,0.8-0.7,1.5-1.5,1.5l0,0
			C314.5,289.2,313.8,288.5,313.8,287.7z"/>
		<path class="st1" d="M283.4,287.7L283.4,287.7c0-0.8,0.7-1.5,1.5-1.5l0,0c0.8,0,1.5,0.7,1.5,1.5l0,0c0,0.8-0.7,1.5-1.5,1.5l0,0
			C284.1,289.2,283.4,288.5,283.4,287.7z"/>
		<path class="st1" d="M252.9,287.7L252.9,287.7c0-0.8,0.7-1.5,1.5-1.5h0c0.8,0,1.5,0.7,1.5,1.5l0,0c0,0.8-0.7,1.5-1.5,1.5h0
			C253.6,289.2,252.9,288.5,252.9,287.7z"/>
		<path class="st1" d="M313.8,287.7L313.8,287.7c0-0.8,0.7-1.5,1.5-1.5l0,0c0.8,0,1.5,0.7,1.5,1.5l0,0c0,0.8-0.7,1.5-1.5,1.5l0,0
			C314.5,289.2,313.8,288.5,313.8,287.7z"/>
		<path class="st1" d="M313.8,257.1L313.8,257.1c0-0.8,0.7-1.5,1.5-1.5l0,0c0.8,0,1.5,0.7,1.5,1.5l0,0c0,0.8-0.7,1.5-1.5,1.5l0,0
			C314.5,258.6,313.8,257.9,313.8,257.1z"/>
		<path class="st1" d="M283.4,287.7L283.4,287.7c0-0.8,0.7-1.5,1.5-1.5l0,0c0.8,0,1.5,0.7,1.5,1.5l0,0c0,0.8-0.7,1.5-1.5,1.5l0,0
			C284.1,289.2,283.4,288.5,283.4,287.7z"/>
		<path class="st1" d="M283.4,257.1L283.4,257.1c0-0.8,0.7-1.5,1.5-1.5l0,0c0.8,0,1.5,0.7,1.5,1.5l0,0c0,0.8-0.7,1.5-1.5,1.5l0,0
			C284.1,258.6,283.4,257.9,283.4,257.1z"/>
		<path class="st1" d="M252.9,287.7L252.9,287.7c0-0.8,0.7-1.5,1.5-1.5h0c0.8,0,1.5,0.7,1.5,1.5l0,0c0,0.8-0.7,1.5-1.5,1.5h0
			C253.6,289.2,252.9,288.5,252.9,287.7z"/>
		<path class="st1" d="M252.9,257.1L252.9,257.1c0-0.8,0.7-1.5,1.5-1.5h0c0.8,0,1.5,0.7,1.5,1.5l0,0c0,0.8-0.7,1.5-1.5,1.5h0
			C253.6,258.6,252.9,257.9,252.9,257.1z"/>
		<path class="st1" d="M313.8,226.5L313.8,226.5c0-0.8,0.7-1.5,1.5-1.5l0,0c0.8,0,1.5,0.7,1.5,1.5v0c0,0.8-0.7,1.5-1.5,1.5l0,0
			C314.5,228,313.8,227.3,313.8,226.5z"/>
		<path class="st1" d="M283.4,226.5L283.4,226.5c0-0.8,0.7-1.5,1.5-1.5l0,0c0.8,0,1.5,0.7,1.5,1.5v0c0,0.8-0.7,1.5-1.5,1.5l0,0
			C284.1,228,283.4,227.3,283.4,226.5z"/>
		<path class="st1" d="M252.9,226.5L252.9,226.5c0-0.8,0.7-1.5,1.5-1.5h0c0.8,0,1.5,0.7,1.5,1.5v0c0,0.8-0.7,1.5-1.5,1.5h0
			C253.6,228,252.9,227.3,252.9,226.5z"/>
		<path class="st1" d="M313.8,195.9L313.8,195.9c0-0.8,0.7-1.5,1.5-1.5l0,0c0.8,0,1.5,0.7,1.5,1.5l0,0c0,0.8-0.7,1.5-1.5,1.5l0,0
			C314.5,197.4,313.8,196.7,313.8,195.9z"/>
		<path class="st1" d="M283.4,195.9L283.4,195.9c0-0.8,0.7-1.5,1.5-1.5l0,0c0.8,0,1.5,0.7,1.5,1.5l0,0c0,0.8-0.7,1.5-1.5,1.5l0,0
			C284.1,197.4,283.4,196.7,283.4,195.9z"/>
		<path class="st1" d="M252.9,195.9L252.9,195.9c0-0.8,0.7-1.5,1.5-1.5h0c0.8,0,1.5,0.7,1.5,1.5l0,0c0,0.8-0.7,1.5-1.5,1.5h0
			C253.6,197.4,252.9,196.7,252.9,195.9z"/>
		<path class="st1" d="M313.8,165.3L313.8,165.3c0-0.8,0.7-1.5,1.5-1.5l0,0c0.8,0,1.5,0.7,1.5,1.5l0,0c0,0.8-0.7,1.5-1.5,1.5l0,0
			C314.5,166.8,313.8,166.1,313.8,165.3z"/>
		<path class="st1" d="M283.4,165.3L283.4,165.3c0-0.8,0.7-1.5,1.5-1.5l0,0c0.8,0,1.5,0.7,1.5,1.5l0,0c0,0.8-0.7,1.5-1.5,1.5l0,0
			C284.1,166.8,283.4,166.1,283.4,165.3z"/>
		<path class="st1" d="M252.9,165.3L252.9,165.3c0-0.8,0.7-1.5,1.5-1.5h0c0.8,0,1.5,0.7,1.5,1.5l0,0c0,0.8-0.7,1.5-1.5,1.5h0
			C253.6,166.8,252.9,166.1,252.9,165.3z"/>
		<path class="st1" d="M313.8,134.7L313.8,134.7c0-0.8,0.7-1.5,1.5-1.5l0,0c0.8,0,1.5,0.7,1.5,1.5l0,0c0,0.8-0.7,1.5-1.5,1.5l0,0
			C314.5,136.2,313.8,135.5,313.8,134.7z"/>
		<path class="st1" d="M283.4,134.7L283.4,134.7c0-0.8,0.7-1.5,1.5-1.5l0,0c0.8,0,1.5,0.7,1.5,1.5l0,0c0,0.8-0.7,1.5-1.5,1.5l0,0
			C284.1,136.2,283.4,135.5,283.4,134.7z"/>
		<path class="st1" d="M252.9,134.7L252.9,134.7c0-0.8,0.7-1.5,1.5-1.5h0c0.8,0,1.5,0.7,1.5,1.5l0,0c0,0.8-0.7,1.5-1.5,1.5h0
			C253.6,136.2,252.9,135.5,252.9,134.7z"/>
		<path class="st1" d="M313.8,104.1L313.8,104.1c0-0.8,0.7-1.5,1.5-1.5l0,0c0.8,0,1.5,0.7,1.5,1.5v0c0,0.8-0.7,1.5-1.5,1.5l0,0
			C314.5,105.6,313.8,104.9,313.8,104.1z"/>
		<path class="st1" d="M283.4,104.1L283.4,104.1c0-0.8,0.7-1.5,1.5-1.5l0,0c0.8,0,1.5,0.7,1.5,1.5v0c0,0.8-0.7,1.5-1.5,1.5l0,0
			C284.1,105.6,283.4,104.9,283.4,104.1z"/>
		<path class="st1" d="M252.9,104.1L252.9,104.1c0-0.8,0.7-1.5,1.5-1.5h0c0.8,0,1.5,0.7,1.5,1.5v0c0,0.8-0.7,1.5-1.5,1.5h0
			C253.6,105.6,252.9,104.9,252.9,104.1z"/>
		<path class="st1" d="M313.8,73.5L313.8,73.5c0-0.8,0.7-1.5,1.5-1.5l0,0c0.8,0,1.5,0.7,1.5,1.5l0,0c0,0.8-0.7,1.5-1.5,1.5l0,0
			C314.5,75,313.8,74.3,313.8,73.5z"/>
		<path class="st1" d="M283.4,73.5L283.4,73.5c0-0.8,0.7-1.5,1.5-1.5l0,0c0.8,0,1.5,0.7,1.5,1.5l0,0c0,0.8-0.7,1.5-1.5,1.5l0,0
			C284.1,75,283.4,74.3,283.4,73.5z"/>
		<path class="st1" d="M252.9,73.5L252.9,73.5c0-0.8,0.7-1.5,1.5-1.5h0c0.8,0,1.5,0.7,1.5,1.5l0,0c0,0.8-0.7,1.5-1.5,1.5h0
			C253.6,75,252.9,74.3,252.9,73.5z"/>
	</g>
	<g>
		<path class="st1" d="M374.2,501.8L374.2,501.8c0-0.8,0.7-1.5,1.5-1.5h0c0.8,0,1.5,0.7,1.5,1.5l0,0c0,0.8-0.7,1.5-1.5,1.5h0
			C374.8,503.3,374.2,502.6,374.2,501.8z"/>
		<path class="st1" d="M374.2,471.2L374.2,471.2c0-0.8,0.7-1.5,1.5-1.5h0c0.8,0,1.5,0.7,1.5,1.5l0,0c0,0.8-0.7,1.5-1.5,1.5h0
			C374.8,472.7,374.2,472.1,374.2,471.2z"/>
		<path class="st1" d="M343.7,501.8L343.7,501.8c0-0.8,0.7-1.5,1.5-1.5l0,0c0.8,0,1.5,0.7,1.5,1.5l0,0c0,0.8-0.7,1.5-1.5,1.5l0,0
			C344.4,503.3,343.7,502.6,343.7,501.8z"/>
		<path class="st1" d="M343.7,471.2L343.7,471.2c0-0.8,0.7-1.5,1.5-1.5l0,0c0.8,0,1.5,0.7,1.5,1.5l0,0c0,0.8-0.7,1.5-1.5,1.5l0,0
			C344.4,472.7,343.7,472.1,343.7,471.2z"/>
		<path class="st1" d="M313.2,501.8L313.2,501.8c0-0.8,0.7-1.5,1.5-1.5l0,0c0.8,0,1.5,0.7,1.5,1.5l0,0c0,0.8-0.7,1.5-1.5,1.5l0,0
			C313.9,503.3,313.2,502.6,313.2,501.8z"/>
		<path class="st1" d="M313.2,471.2L313.2,471.2c0-0.8,0.7-1.5,1.5-1.5l0,0c0.8,0,1.5,0.7,1.5,1.5l0,0c0,0.8-0.7,1.5-1.5,1.5l0,0
			C313.9,472.7,313.2,472.1,313.2,471.2z"/>
		<path class="st1" d="M374.2,440.6L374.2,440.6c0-0.8,0.7-1.5,1.5-1.5h0c0.8,0,1.5,0.7,1.5,1.5l0,0c0,0.8-0.7,1.5-1.5,1.5h0
			C374.8,442.1,374.2,441.5,374.2,440.6z"/>
		<path class="st1" d="M343.7,440.6L343.7,440.6c0-0.8,0.7-1.5,1.5-1.5l0,0c0.8,0,1.5,0.7,1.5,1.5l0,0c0,0.8-0.7,1.5-1.5,1.5l0,0
			C344.4,442.1,343.7,441.5,343.7,440.6z"/>
		<path class="st1" d="M313.2,440.6L313.2,440.6c0-0.8,0.7-1.5,1.5-1.5l0,0c0.8,0,1.5,0.7,1.5,1.5l0,0c0,0.8-0.7,1.5-1.5,1.5l0,0
			C313.9,442.1,313.2,441.5,313.2,440.6z"/>
		<path class="st1" d="M374.2,410L374.2,410c0-0.8,0.7-1.5,1.5-1.5h0c0.8,0,1.5,0.7,1.5,1.5l0,0c0,0.8-0.7,1.5-1.5,1.5h0
			C374.8,411.5,374.2,410.9,374.2,410z"/>
		<path class="st1" d="M343.7,410L343.7,410c0-0.8,0.7-1.5,1.5-1.5l0,0c0.8,0,1.5,0.7,1.5,1.5l0,0c0,0.8-0.7,1.5-1.5,1.5l0,0
			C344.4,411.5,343.7,410.9,343.7,410z"/>
		<path class="st1" d="M313.2,410L313.2,410c0-0.8,0.7-1.5,1.5-1.5l0,0c0.8,0,1.5,0.7,1.5,1.5l0,0c0,0.8-0.7,1.5-1.5,1.5l0,0
			C313.9,411.5,313.2,410.9,313.2,410z"/>
		<path class="st1" d="M374.2,379.4L374.2,379.4c0-0.8,0.7-1.5,1.5-1.5h0c0.8,0,1.5,0.7,1.5,1.5l0,0c0,0.8-0.7,1.5-1.5,1.5h0
			C374.8,380.9,374.2,380.3,374.2,379.4z"/>
		<path class="st1" d="M343.7,379.4L343.7,379.4c0-0.8,0.7-1.5,1.5-1.5l0,0c0.8,0,1.5,0.7,1.5,1.5l0,0c0,0.8-0.7,1.5-1.5,1.5l0,0
			C344.4,380.9,343.7,380.3,343.7,379.4z"/>
		<path class="st1" d="M313.2,379.4L313.2,379.4c0-0.8,0.7-1.5,1.5-1.5l0,0c0.8,0,1.5,0.7,1.5,1.5l0,0c0,0.8-0.7,1.5-1.5,1.5l0,0
			C313.9,380.9,313.2,380.3,313.2,379.4z"/>
		<path class="st1" d="M374.2,348.8L374.2,348.8c0-0.8,0.7-1.5,1.5-1.5h0c0.8,0,1.5,0.7,1.5,1.5l0,0c0,0.8-0.7,1.5-1.5,1.5h0
			C374.8,350.4,374.2,349.7,374.2,348.8z"/>
		<path class="st1" d="M343.7,348.8L343.7,348.8c0-0.8,0.7-1.5,1.5-1.5l0,0c0.8,0,1.5,0.7,1.5,1.5l0,0c0,0.8-0.7,1.5-1.5,1.5l0,0
			C344.4,350.4,343.7,349.7,343.7,348.8z"/>
		<path class="st1" d="M313.2,348.8L313.2,348.8c0-0.8,0.7-1.5,1.5-1.5l0,0c0.8,0,1.5,0.7,1.5,1.5l0,0c0,0.8-0.7,1.5-1.5,1.5l0,0
			C313.9,350.4,313.2,349.7,313.2,348.8z"/>
		<path class="st1" d="M374.2,318.2L374.2,318.2c0-0.8,0.7-1.5,1.5-1.5h0c0.8,0,1.5,0.7,1.5,1.5l0,0c0,0.8-0.7,1.5-1.5,1.5h0
			C374.8,319.8,374.2,319.1,374.2,318.2z"/>
		<path class="st1" d="M343.7,318.2L343.7,318.2c0-0.8,0.7-1.5,1.5-1.5l0,0c0.8,0,1.5,0.7,1.5,1.5l0,0c0,0.8-0.7,1.5-1.5,1.5l0,0
			C344.4,319.8,343.7,319.1,343.7,318.2z"/>
		<path class="st1" d="M313.2,318.2L313.2,318.2c0-0.8,0.7-1.5,1.5-1.5l0,0c0.8,0,1.5,0.7,1.5,1.5l0,0c0,0.8-0.7,1.5-1.5,1.5l0,0
			C313.9,319.8,313.2,319.1,313.2,318.2z"/>
		<path class="st1" d="M374.2,287.7L374.2,287.7c0-0.8,0.7-1.5,1.5-1.5h0c0.8,0,1.5,0.7,1.5,1.5l0,0c0,0.8-0.7,1.5-1.5,1.5h0
			C374.8,289.2,374.2,288.5,374.2,287.7z"/>
		<path class="st1" d="M343.7,287.7L343.7,287.7c0-0.8,0.7-1.5,1.5-1.5l0,0c0.8,0,1.5,0.7,1.5,1.5l0,0c0,0.8-0.7,1.5-1.5,1.5l0,0
			C344.4,289.2,343.7,288.5,343.7,287.7z"/>
		<path class="st1" d="M313.2,287.7L313.2,287.7c0-0.8,0.7-1.5,1.5-1.5l0,0c0.8,0,1.5,0.7,1.5,1.5l0,0c0,0.8-0.7,1.5-1.5,1.5l0,0
			C313.9,289.2,313.2,288.5,313.2,287.7z"/>
		<path class="st1" d="M374.2,287.7L374.2,287.7c0-0.8,0.7-1.5,1.5-1.5h0c0.8,0,1.5,0.7,1.5,1.5l0,0c0,0.8-0.7,1.5-1.5,1.5h0
			C374.8,289.2,374.2,288.5,374.2,287.7z"/>
		<path class="st1" d="M374.2,257.1L374.2,257.1c0-0.8,0.7-1.5,1.5-1.5h0c0.8,0,1.5,0.7,1.5,1.5l0,0c0,0.8-0.7,1.5-1.5,1.5h0
			C374.8,258.6,374.2,257.9,374.2,257.1z"/>
		<path class="st1" d="M343.7,287.7L343.7,287.7c0-0.8,0.7-1.5,1.5-1.5l0,0c0.8,0,1.5,0.7,1.5,1.5l0,0c0,0.8-0.7,1.5-1.5,1.5l0,0
			C344.4,289.2,343.7,288.5,343.7,287.7z"/>
		<path class="st1" d="M343.7,257.1L343.7,257.1c0-0.8,0.7-1.5,1.5-1.5l0,0c0.8,0,1.5,0.7,1.5,1.5l0,0c0,0.8-0.7,1.5-1.5,1.5l0,0
			C344.4,258.6,343.7,257.9,343.7,257.1z"/>
		<path class="st1" d="M313.2,287.7L313.2,287.7c0-0.8,0.7-1.5,1.5-1.5l0,0c0.8,0,1.5,0.7,1.5,1.5l0,0c0,0.8-0.7,1.5-1.5,1.5l0,0
			C313.9,289.2,313.2,288.5,313.2,287.7z"/>
		<path class="st1" d="M313.2,257.1L313.2,257.1c0-0.8,0.7-1.5,1.5-1.5l0,0c0.8,0,1.5,0.7,1.5,1.5l0,0c0,0.8-0.7,1.5-1.5,1.5l0,0
			C313.9,258.6,313.2,257.9,313.2,257.1z"/>
		<path class="st1" d="M374.2,226.5L374.2,226.5c0-0.8,0.7-1.5,1.5-1.5h0c0.8,0,1.5,0.7,1.5,1.5v0c0,0.8-0.7,1.5-1.5,1.5h0
			C374.8,228,374.2,227.3,374.2,226.5z"/>
		<path class="st1" d="M343.7,226.5L343.7,226.5c0-0.8,0.7-1.5,1.5-1.5l0,0c0.8,0,1.5,0.7,1.5,1.5v0c0,0.8-0.7,1.5-1.5,1.5l0,0
			C344.4,228,343.7,227.3,343.7,226.5z"/>
		<path class="st1" d="M313.2,226.5L313.2,226.5c0-0.8,0.7-1.5,1.5-1.5l0,0c0.8,0,1.5,0.7,1.5,1.5v0c0,0.8-0.7,1.5-1.5,1.5l0,0
			C313.9,228,313.2,227.3,313.2,226.5z"/>
		<path class="st1" d="M374.2,195.9L374.2,195.9c0-0.8,0.7-1.5,1.5-1.5h0c0.8,0,1.5,0.7,1.5,1.5l0,0c0,0.8-0.7,1.5-1.5,1.5h0
			C374.8,197.4,374.2,196.7,374.2,195.9z"/>
		<path class="st1" d="M343.7,195.9L343.7,195.9c0-0.8,0.7-1.5,1.5-1.5l0,0c0.8,0,1.5,0.7,1.5,1.5l0,0c0,0.8-0.7,1.5-1.5,1.5l0,0
			C344.4,197.4,343.7,196.7,343.7,195.9z"/>
		<path class="st1" d="M313.2,195.9L313.2,195.9c0-0.8,0.7-1.5,1.5-1.5l0,0c0.8,0,1.5,0.7,1.5,1.5l0,0c0,0.8-0.7,1.5-1.5,1.5l0,0
			C313.9,197.4,313.2,196.7,313.2,195.9z"/>
		<path class="st1" d="M374.2,165.3L374.2,165.3c0-0.8,0.7-1.5,1.5-1.5h0c0.8,0,1.5,0.7,1.5,1.5l0,0c0,0.8-0.7,1.5-1.5,1.5h0
			C374.8,166.8,374.2,166.1,374.2,165.3z"/>
		<path class="st1" d="M343.7,165.3L343.7,165.3c0-0.8,0.7-1.5,1.5-1.5l0,0c0.8,0,1.5,0.7,1.5,1.5l0,0c0,0.8-0.7,1.5-1.5,1.5l0,0
			C344.4,166.8,343.7,166.1,343.7,165.3z"/>
		<path class="st1" d="M313.2,165.3L313.2,165.3c0-0.8,0.7-1.5,1.5-1.5l0,0c0.8,0,1.5,0.7,1.5,1.5l0,0c0,0.8-0.7,1.5-1.5,1.5l0,0
			C313.9,166.8,313.2,166.1,313.2,165.3z"/>
		<path class="st1" d="M374.2,134.7L374.2,134.7c0-0.8,0.7-1.5,1.5-1.5h0c0.8,0,1.5,0.7,1.5,1.5l0,0c0,0.8-0.7,1.5-1.5,1.5h0
			C374.8,136.2,374.2,135.5,374.2,134.7z"/>
		<path class="st1" d="M343.7,134.7L343.7,134.7c0-0.8,0.7-1.5,1.5-1.5l0,0c0.8,0,1.5,0.7,1.5,1.5l0,0c0,0.8-0.7,1.5-1.5,1.5l0,0
			C344.4,136.2,343.7,135.5,343.7,134.7z"/>
		<path class="st1" d="M313.2,134.7L313.2,134.7c0-0.8,0.7-1.5,1.5-1.5l0,0c0.8,0,1.5,0.7,1.5,1.5l0,0c0,0.8-0.7,1.5-1.5,1.5l0,0
			C313.9,136.2,313.2,135.5,313.2,134.7z"/>
		<path class="st1" d="M374.2,104.1L374.2,104.1c0-0.8,0.7-1.5,1.5-1.5h0c0.8,0,1.5,0.7,1.5,1.5v0c0,0.8-0.7,1.5-1.5,1.5h0
			C374.8,105.6,374.2,104.9,374.2,104.1z"/>
		<path class="st1" d="M343.7,104.1L343.7,104.1c0-0.8,0.7-1.5,1.5-1.5l0,0c0.8,0,1.5,0.7,1.5,1.5v0c0,0.8-0.7,1.5-1.5,1.5l0,0
			C344.4,105.6,343.7,104.9,343.7,104.1z"/>
		<path class="st1" d="M313.2,104.1L313.2,104.1c0-0.8,0.7-1.5,1.5-1.5l0,0c0.8,0,1.5,0.7,1.5,1.5v0c0,0.8-0.7,1.5-1.5,1.5l0,0
			C313.9,105.6,313.2,104.9,313.2,104.1z"/>
		<path class="st1" d="M374.2,73.5L374.2,73.5c0-0.8,0.7-1.5,1.5-1.5h0c0.8,0,1.5,0.7,1.5,1.5l0,0c0,0.8-0.7,1.5-1.5,1.5h0
			C374.8,75,374.2,74.3,374.2,73.5z"/>
		<path class="st1" d="M343.7,73.5L343.7,73.5c0-0.8,0.7-1.5,1.5-1.5l0,0c0.8,0,1.5,0.7,1.5,1.5l0,0c0,0.8-0.7,1.5-1.5,1.5l0,0
			C344.4,75,343.7,74.3,343.7,73.5z"/>
		<path class="st1" d="M313.2,73.5L313.2,73.5c0-0.8,0.7-1.5,1.5-1.5l0,0c0.8,0,1.5,0.7,1.5,1.5l0,0c0,0.8-0.7,1.5-1.5,1.5l0,0
			C313.9,75,313.2,74.3,313.2,73.5z"/>
	</g>
	<g>
		<path class="st1" d="M434.5,501.8L434.5,501.8c0-0.8,0.7-1.5,1.5-1.5l0,0c0.8,0,1.5,0.7,1.5,1.5l0,0c0,0.8-0.7,1.5-1.5,1.5l0,0
			C435.1,503.3,434.5,502.6,434.5,501.8z"/>
		<path class="st1" d="M434.5,471.2L434.5,471.2c0-0.8,0.7-1.5,1.5-1.5l0,0c0.8,0,1.5,0.7,1.5,1.5l0,0c0,0.8-0.7,1.5-1.5,1.5l0,0
			C435.1,472.7,434.5,472.1,434.5,471.2z"/>
		<path class="st1" d="M404,501.8L404,501.8c0-0.8,0.7-1.5,1.5-1.5l0,0c0.8,0,1.5,0.7,1.5,1.5l0,0c0,0.8-0.7,1.5-1.5,1.5l0,0
			C404.7,503.3,404,502.6,404,501.8z"/>
		<path class="st1" d="M404,471.2L404,471.2c0-0.8,0.7-1.5,1.5-1.5l0,0c0.8,0,1.5,0.7,1.5,1.5l0,0c0,0.8-0.7,1.5-1.5,1.5l0,0
			C404.7,472.7,404,472.1,404,471.2z"/>
		<path class="st1" d="M373.5,501.8L373.5,501.8c0-0.8,0.7-1.5,1.5-1.5l0,0c0.8,0,1.5,0.7,1.5,1.5l0,0c0,0.8-0.7,1.5-1.5,1.5l0,0
			C374.2,503.3,373.5,502.6,373.5,501.8z"/>
		<path class="st1" d="M373.5,471.2L373.5,471.2c0-0.8,0.7-1.5,1.5-1.5l0,0c0.8,0,1.5,0.7,1.5,1.5l0,0c0,0.8-0.7,1.5-1.5,1.5l0,0
			C374.2,472.7,373.5,472.1,373.5,471.2z"/>
		<path class="st1" d="M434.5,440.6L434.5,440.6c0-0.8,0.7-1.5,1.5-1.5l0,0c0.8,0,1.5,0.7,1.5,1.5l0,0c0,0.8-0.7,1.5-1.5,1.5l0,0
			C435.1,442.1,434.5,441.5,434.5,440.6z"/>
		<path class="st1" d="M404,440.6L404,440.6c0-0.8,0.7-1.5,1.5-1.5l0,0c0.8,0,1.5,0.7,1.5,1.5l0,0c0,0.8-0.7,1.5-1.5,1.5l0,0
			C404.7,442.1,404,441.5,404,440.6z"/>
		<path class="st1" d="M373.5,440.6L373.5,440.6c0-0.8,0.7-1.5,1.5-1.5l0,0c0.8,0,1.5,0.7,1.5,1.5l0,0c0,0.8-0.7,1.5-1.5,1.5l0,0
			C374.2,442.1,373.5,441.5,373.5,440.6z"/>
		<path class="st1" d="M434.5,410L434.5,410c0-0.8,0.7-1.5,1.5-1.5l0,0c0.8,0,1.5,0.7,1.5,1.5l0,0c0,0.8-0.7,1.5-1.5,1.5l0,0
			C435.1,411.5,434.5,410.9,434.5,410z"/>
		<path class="st1" d="M404,410L404,410c0-0.8,0.7-1.5,1.5-1.5l0,0c0.8,0,1.5,0.7,1.5,1.5l0,0c0,0.8-0.7,1.5-1.5,1.5l0,0
			C404.7,411.5,404,410.9,404,410z"/>
		<path class="st1" d="M373.5,410L373.5,410c0-0.8,0.7-1.5,1.5-1.5l0,0c0.8,0,1.5,0.7,1.5,1.5l0,0c0,0.8-0.7,1.5-1.5,1.5l0,0
			C374.2,411.5,373.5,410.9,373.5,410z"/>
		<path class="st1" d="M434.5,379.4L434.5,379.4c0-0.8,0.7-1.5,1.5-1.5l0,0c0.8,0,1.5,0.7,1.5,1.5l0,0c0,0.8-0.7,1.5-1.5,1.5l0,0
			C435.1,380.9,434.5,380.3,434.5,379.4z"/>
		<path class="st1" d="M404,379.4L404,379.4c0-0.8,0.7-1.5,1.5-1.5l0,0c0.8,0,1.5,0.7,1.5,1.5l0,0c0,0.8-0.7,1.5-1.5,1.5l0,0
			C404.7,380.9,404,380.3,404,379.4z"/>
		<path class="st1" d="M373.5,379.4L373.5,379.4c0-0.8,0.7-1.5,1.5-1.5l0,0c0.8,0,1.5,0.7,1.5,1.5l0,0c0,0.8-0.7,1.5-1.5,1.5l0,0
			C374.2,380.9,373.5,380.3,373.5,379.4z"/>
		<path class="st1" d="M434.5,348.8L434.5,348.8c0-0.8,0.7-1.5,1.5-1.5l0,0c0.8,0,1.5,0.7,1.5,1.5l0,0c0,0.8-0.7,1.5-1.5,1.5l0,0
			C435.1,350.4,434.5,349.7,434.5,348.8z"/>
		<path class="st1" d="M404,348.8L404,348.8c0-0.8,0.7-1.5,1.5-1.5l0,0c0.8,0,1.5,0.7,1.5,1.5l0,0c0,0.8-0.7,1.5-1.5,1.5l0,0
			C404.7,350.4,404,349.7,404,348.8z"/>
		<path class="st1" d="M373.5,348.8L373.5,348.8c0-0.8,0.7-1.5,1.5-1.5l0,0c0.8,0,1.5,0.7,1.5,1.5l0,0c0,0.8-0.7,1.5-1.5,1.5l0,0
			C374.2,350.4,373.5,349.7,373.5,348.8z"/>
		<path class="st1" d="M434.5,318.2L434.5,318.2c0-0.8,0.7-1.5,1.5-1.5l0,0c0.8,0,1.5,0.7,1.5,1.5l0,0c0,0.8-0.7,1.5-1.5,1.5l0,0
			C435.1,319.8,434.5,319.1,434.5,318.2z"/>
		<path class="st1" d="M404,318.2L404,318.2c0-0.8,0.7-1.5,1.5-1.5l0,0c0.8,0,1.5,0.7,1.5,1.5l0,0c0,0.8-0.7,1.5-1.5,1.5l0,0
			C404.7,319.8,404,319.1,404,318.2z"/>
		<path class="st1" d="M373.5,318.2L373.5,318.2c0-0.8,0.7-1.5,1.5-1.5l0,0c0.8,0,1.5,0.7,1.5,1.5l0,0c0,0.8-0.7,1.5-1.5,1.5l0,0
			C374.2,319.8,373.5,319.1,373.5,318.2z"/>
		<path class="st1" d="M434.5,287.7L434.5,287.7c0-0.8,0.7-1.5,1.5-1.5l0,0c0.8,0,1.5,0.7,1.5,1.5l0,0c0,0.8-0.7,1.5-1.5,1.5l0,0
			C435.1,289.2,434.5,288.5,434.5,287.7z"/>
		<path class="st1" d="M404,287.7L404,287.7c0-0.8,0.7-1.5,1.5-1.5l0,0c0.8,0,1.5,0.7,1.5,1.5l0,0c0,0.8-0.7,1.5-1.5,1.5l0,0
			C404.7,289.2,404,288.5,404,287.7z"/>
		<path class="st1" d="M373.5,287.7L373.5,287.7c0-0.8,0.7-1.5,1.5-1.5l0,0c0.8,0,1.5,0.7,1.5,1.5l0,0c0,0.8-0.7,1.5-1.5,1.5l0,0
			C374.2,289.2,373.5,288.5,373.5,287.7z"/>
		<path class="st1" d="M434.5,287.7L434.5,287.7c0-0.8,0.7-1.5,1.5-1.5l0,0c0.8,0,1.5,0.7,1.5,1.5l0,0c0,0.8-0.7,1.5-1.5,1.5l0,0
			C435.1,289.2,434.5,288.5,434.5,287.7z"/>
		<path class="st1" d="M434.5,257.1L434.5,257.1c0-0.8,0.7-1.5,1.5-1.5l0,0c0.8,0,1.5,0.7,1.5,1.5l0,0c0,0.8-0.7,1.5-1.5,1.5l0,0
			C435.1,258.6,434.5,257.9,434.5,257.1z"/>
		<path class="st1" d="M404,287.7L404,287.7c0-0.8,0.7-1.5,1.5-1.5l0,0c0.8,0,1.5,0.7,1.5,1.5l0,0c0,0.8-0.7,1.5-1.5,1.5l0,0
			C404.7,289.2,404,288.5,404,287.7z"/>
		<path class="st1" d="M404,257.1L404,257.1c0-0.8,0.7-1.5,1.5-1.5l0,0c0.8,0,1.5,0.7,1.5,1.5l0,0c0,0.8-0.7,1.5-1.5,1.5l0,0
			C404.7,258.6,404,257.9,404,257.1z"/>
		<path class="st1" d="M373.5,287.7L373.5,287.7c0-0.8,0.7-1.5,1.5-1.5l0,0c0.8,0,1.5,0.7,1.5,1.5l0,0c0,0.8-0.7,1.5-1.5,1.5l0,0
			C374.2,289.2,373.5,288.5,373.5,287.7z"/>
		<path class="st1" d="M373.5,257.1L373.5,257.1c0-0.8,0.7-1.5,1.5-1.5l0,0c0.8,0,1.5,0.7,1.5,1.5l0,0c0,0.8-0.7,1.5-1.5,1.5l0,0
			C374.2,258.6,373.5,257.9,373.5,257.1z"/>
		<path class="st1" d="M434.5,226.5L434.5,226.5c0-0.8,0.7-1.5,1.5-1.5l0,0c0.8,0,1.5,0.7,1.5,1.5v0c0,0.8-0.7,1.5-1.5,1.5l0,0
			C435.1,228,434.5,227.3,434.5,226.5z"/>
		<path class="st1" d="M404,226.5L404,226.5c0-0.8,0.7-1.5,1.5-1.5l0,0c0.8,0,1.5,0.7,1.5,1.5v0c0,0.8-0.7,1.5-1.5,1.5l0,0
			C404.7,228,404,227.3,404,226.5z"/>
		<path class="st1" d="M373.5,226.5L373.5,226.5c0-0.8,0.7-1.5,1.5-1.5l0,0c0.8,0,1.5,0.7,1.5,1.5v0c0,0.8-0.7,1.5-1.5,1.5l0,0
			C374.2,228,373.5,227.3,373.5,226.5z"/>
		<path class="st1" d="M434.5,195.9L434.5,195.9c0-0.8,0.7-1.5,1.5-1.5l0,0c0.8,0,1.5,0.7,1.5,1.5l0,0c0,0.8-0.7,1.5-1.5,1.5l0,0
			C435.1,197.4,434.5,196.7,434.5,195.9z"/>
		<path class="st1" d="M404,195.9L404,195.9c0-0.8,0.7-1.5,1.5-1.5l0,0c0.8,0,1.5,0.7,1.5,1.5l0,0c0,0.8-0.7,1.5-1.5,1.5l0,0
			C404.7,197.4,404,196.7,404,195.9z"/>
		<path class="st1" d="M373.5,195.9L373.5,195.9c0-0.8,0.7-1.5,1.5-1.5l0,0c0.8,0,1.5,0.7,1.5,1.5l0,0c0,0.8-0.7,1.5-1.5,1.5l0,0
			C374.2,197.4,373.5,196.7,373.5,195.9z"/>
		<path class="st1" d="M434.5,165.3L434.5,165.3c0-0.8,0.7-1.5,1.5-1.5l0,0c0.8,0,1.5,0.7,1.5,1.5l0,0c0,0.8-0.7,1.5-1.5,1.5l0,0
			C435.1,166.8,434.5,166.1,434.5,165.3z"/>
		<path class="st1" d="M404,165.3L404,165.3c0-0.8,0.7-1.5,1.5-1.5l0,0c0.8,0,1.5,0.7,1.5,1.5l0,0c0,0.8-0.7,1.5-1.5,1.5l0,0
			C404.7,166.8,404,166.1,404,165.3z"/>
		<path class="st1" d="M373.5,165.3L373.5,165.3c0-0.8,0.7-1.5,1.5-1.5l0,0c0.8,0,1.5,0.7,1.5,1.5l0,0c0,0.8-0.7,1.5-1.5,1.5l0,0
			C374.2,166.8,373.5,166.1,373.5,165.3z"/>
		<path class="st1" d="M434.5,134.7L434.5,134.7c0-0.8,0.7-1.5,1.5-1.5l0,0c0.8,0,1.5,0.7,1.5,1.5l0,0c0,0.8-0.7,1.5-1.5,1.5l0,0
			C435.1,136.2,434.5,135.5,434.5,134.7z"/>
		<path class="st1" d="M404,134.7L404,134.7c0-0.8,0.7-1.5,1.5-1.5l0,0c0.8,0,1.5,0.7,1.5,1.5l0,0c0,0.8-0.7,1.5-1.5,1.5l0,0
			C404.7,136.2,404,135.5,404,134.7z"/>
		<path class="st1" d="M373.5,134.7L373.5,134.7c0-0.8,0.7-1.5,1.5-1.5l0,0c0.8,0,1.5,0.7,1.5,1.5l0,0c0,0.8-0.7,1.5-1.5,1.5l0,0
			C374.2,136.2,373.5,135.5,373.5,134.7z"/>
		<path class="st1" d="M434.5,104.1L434.5,104.1c0-0.8,0.7-1.5,1.5-1.5l0,0c0.8,0,1.5,0.7,1.5,1.5v0c0,0.8-0.7,1.5-1.5,1.5l0,0
			C435.1,105.6,434.5,104.9,434.5,104.1z"/>
		<path class="st1" d="M404,104.1L404,104.1c0-0.8,0.7-1.5,1.5-1.5l0,0c0.8,0,1.5,0.7,1.5,1.5v0c0,0.8-0.7,1.5-1.5,1.5l0,0
			C404.7,105.6,404,104.9,404,104.1z"/>
		<path class="st1" d="M373.5,104.1L373.5,104.1c0-0.8,0.7-1.5,1.5-1.5l0,0c0.8,0,1.5,0.7,1.5,1.5v0c0,0.8-0.7,1.5-1.5,1.5l0,0
			C374.2,105.6,373.5,104.9,373.5,104.1z"/>
		<path class="st1" d="M434.5,73.5L434.5,73.5c0-0.8,0.7-1.5,1.5-1.5l0,0c0.8,0,1.5,0.7,1.5,1.5l0,0c0,0.8-0.7,1.5-1.5,1.5l0,0
			C435.1,75,434.5,74.3,434.5,73.5z"/>
		<path class="st1" d="M404,73.5L404,73.5c0-0.8,0.7-1.5,1.5-1.5l0,0c0.8,0,1.5,0.7,1.5,1.5l0,0c0,0.8-0.7,1.5-1.5,1.5l0,0
			C404.7,75,404,74.3,404,73.5z"/>
		<path class="st1" d="M373.5,73.5L373.5,73.5c0-0.8,0.7-1.5,1.5-1.5l0,0c0.8,0,1.5,0.7,1.5,1.5l0,0c0,0.8-0.7,1.5-1.5,1.5l0,0
			C374.2,75,373.5,74.3,373.5,73.5z"/>
	</g>
</g>
<g>
	<path class="st2" d="M1628.3,604.1L1628.3,604.1c-1,0-1.8-0.8-1.8-1.8v0c0-1,0.8-1.8,1.8-1.8l0,0c1,0,1.8,0.8,1.8,1.8v0
		C1630.1,603.3,1629.3,604.1,1628.3,604.1z"/>
	<path class="st2" d="M1592.4,604.1L1592.4,604.1c-1,0-1.8-0.8-1.8-1.8v0c0-1,0.8-1.8,1.8-1.8l0,0c1,0,1.8,0.8,1.8,1.8v0
		C1594.2,603.3,1593.4,604.1,1592.4,604.1z"/>
	<path class="st2" d="M1628.3,639.9L1628.3,639.9c-1,0-1.8-0.8-1.8-1.8l0,0c0-1,0.8-1.8,1.8-1.8l0,0c1,0,1.8,0.8,1.8,1.8l0,0
		C1630.1,639.1,1629.3,639.9,1628.3,639.9z"/>
	<path class="st2" d="M1592.4,639.9L1592.4,639.9c-1,0-1.8-0.8-1.8-1.8l0,0c0-1,0.8-1.8,1.8-1.8l0,0c1,0,1.8,0.8,1.8,1.8l0,0
		C1594.2,639.1,1593.4,639.9,1592.4,639.9z"/>
	<path class="st2" d="M1628.3,675.7L1628.3,675.7c-1,0-1.8-0.8-1.8-1.8l0,0c0-1,0.8-1.8,1.8-1.8l0,0c1,0,1.8,0.8,1.8,1.8l0,0
		C1630.1,674.9,1629.3,675.7,1628.3,675.7z"/>
	<path class="st2" d="M1592.4,675.7L1592.4,675.7c-1,0-1.8-0.8-1.8-1.8l0,0c0-1,0.8-1.8,1.8-1.8l0,0c1,0,1.8,0.8,1.8,1.8l0,0
		C1594.2,674.9,1593.4,675.7,1592.4,675.7z"/>
	<path class="st2" d="M1556.4,604.1L1556.4,604.1c-1,0-1.8-0.8-1.8-1.8v0c0-1,0.8-1.8,1.8-1.8l0,0c1,0,1.8,0.8,1.8,1.8v0
		C1558.2,603.3,1557.4,604.1,1556.4,604.1z"/>
	<path class="st2" d="M1556.4,639.9L1556.4,639.9c-1,0-1.8-0.8-1.8-1.8l0,0c0-1,0.8-1.8,1.8-1.8l0,0c1,0,1.8,0.8,1.8,1.8l0,0
		C1558.2,639.1,1557.4,639.9,1556.4,639.9z"/>
	<path class="st2" d="M1556.4,675.7L1556.4,675.7c-1,0-1.8-0.8-1.8-1.8l0,0c0-1,0.8-1.8,1.8-1.8l0,0c1,0,1.8,0.8,1.8,1.8l0,0
		C1558.2,674.9,1557.4,675.7,1556.4,675.7z"/>
	<path class="st2" d="M1520.5,604.1L1520.5,604.1c-1,0-1.8-0.8-1.8-1.8v0c0-1,0.8-1.8,1.8-1.8l0,0c1,0,1.8,0.8,1.8,1.8v0
		C1522.3,603.3,1521.5,604.1,1520.5,604.1z"/>
	<path class="st2" d="M1520.5,639.9L1520.5,639.9c-1,0-1.8-0.8-1.8-1.8l0,0c0-1,0.8-1.8,1.8-1.8l0,0c1,0,1.8,0.8,1.8,1.8l0,0
		C1522.3,639.1,1521.5,639.9,1520.5,639.9z"/>
	<path class="st2" d="M1520.5,675.7L1520.5,675.7c-1,0-1.8-0.8-1.8-1.8l0,0c0-1,0.8-1.8,1.8-1.8l0,0c1,0,1.8,0.8,1.8,1.8l0,0
		C1522.3,674.9,1521.5,675.7,1520.5,675.7z"/>
	<path class="st2" d="M1484.6,604.1L1484.6,604.1c-1,0-1.8-0.8-1.8-1.8v0c0-1,0.8-1.8,1.8-1.8l0,0c1,0,1.8,0.8,1.8,1.8v0
		C1486.3,603.3,1485.5,604.1,1484.6,604.1z"/>
	<path class="st2" d="M1484.6,639.9L1484.6,639.9c-1,0-1.8-0.8-1.8-1.8l0,0c0-1,0.8-1.8,1.8-1.8l0,0c1,0,1.8,0.8,1.8,1.8l0,0
		C1486.3,639.1,1485.5,639.9,1484.6,639.9z"/>
	<path class="st2" d="M1484.6,675.7L1484.6,675.7c-1,0-1.8-0.8-1.8-1.8l0,0c0-1,0.8-1.8,1.8-1.8l0,0c1,0,1.8,0.8,1.8,1.8l0,0
		C1486.3,674.9,1485.5,675.7,1484.6,675.7z"/>
	<path class="st2" d="M1448.6,604.1L1448.6,604.1c-1,0-1.8-0.8-1.8-1.8v0c0-1,0.8-1.8,1.8-1.8l0,0c1,0,1.8,0.8,1.8,1.8v0
		C1450.4,603.3,1449.6,604.1,1448.6,604.1z"/>
	<path class="st2" d="M1448.6,639.9L1448.6,639.9c-1,0-1.8-0.8-1.8-1.8l0,0c0-1,0.8-1.8,1.8-1.8l0,0c1,0,1.8,0.8,1.8,1.8l0,0
		C1450.4,639.1,1449.6,639.9,1448.6,639.9z"/>
	<path class="st2" d="M1448.6,675.7L1448.6,675.7c-1,0-1.8-0.8-1.8-1.8l0,0c0-1,0.8-1.8,1.8-1.8l0,0c1,0,1.8,0.8,1.8,1.8l0,0
		C1450.4,674.9,1449.6,675.7,1448.6,675.7z"/>
	<path class="st2" d="M1412.7,604.1L1412.7,604.1c-1,0-1.8-0.8-1.8-1.8v0c0-1,0.8-1.8,1.8-1.8l0,0c1,0,1.8,0.8,1.8,1.8v0
		C1414.4,603.3,1413.6,604.1,1412.7,604.1z"/>
	<path class="st2" d="M1412.7,639.9L1412.7,639.9c-1,0-1.8-0.8-1.8-1.8l0,0c0-1,0.8-1.8,1.8-1.8l0,0c1,0,1.8,0.8,1.8,1.8l0,0
		C1414.4,639.1,1413.6,639.9,1412.7,639.9z"/>
	<path class="st2" d="M1412.7,675.7L1412.7,675.7c-1,0-1.8-0.8-1.8-1.8l0,0c0-1,0.8-1.8,1.8-1.8l0,0c1,0,1.8,0.8,1.8,1.8l0,0
		C1414.4,674.9,1413.6,675.7,1412.7,675.7z"/>
	<path class="st2" d="M1773.9,604.1L1773.9,604.1c-1,0-1.8-0.8-1.8-1.8v0c0-1,0.8-1.8,1.8-1.8l0,0c1,0,1.8,0.8,1.8,1.8v0
		C1775.7,603.3,1774.9,604.1,1773.9,604.1z"/>
	<path class="st2" d="M1738,604.1L1738,604.1c-1,0-1.8-0.8-1.8-1.8v0c0-1,0.8-1.8,1.8-1.8l0,0c1,0,1.8,0.8,1.8,1.8v0
		C1739.7,603.3,1738.9,604.1,1738,604.1z"/>
	<path class="st2" d="M1773.9,639.9L1773.9,639.9c-1,0-1.8-0.8-1.8-1.8l0,0c0-1,0.8-1.8,1.8-1.8l0,0c1,0,1.8,0.8,1.8,1.8l0,0
		C1775.7,639.1,1774.9,639.9,1773.9,639.9z"/>
	<path class="st2" d="M1738,639.9L1738,639.9c-1,0-1.8-0.8-1.8-1.8l0,0c0-1,0.8-1.8,1.8-1.8l0,0c1,0,1.8,0.8,1.8,1.8l0,0
		C1739.7,639.1,1738.9,639.9,1738,639.9z"/>
	<path class="st2" d="M1773.9,675.7L1773.9,675.7c-1,0-1.8-0.8-1.8-1.8l0,0c0-1,0.8-1.8,1.8-1.8l0,0c1,0,1.8,0.8,1.8,1.8l0,0
		C1775.7,674.9,1774.9,675.7,1773.9,675.7z"/>
	<path class="st2" d="M1738,675.7L1738,675.7c-1,0-1.8-0.8-1.8-1.8l0,0c0-1,0.8-1.8,1.8-1.8l0,0c1,0,1.8,0.8,1.8,1.8l0,0
		C1739.7,674.9,1738.9,675.7,1738,675.7z"/>
	<path class="st2" d="M1702,604.1L1702,604.1c-1,0-1.8-0.8-1.8-1.8v0c0-1,0.8-1.8,1.8-1.8l0,0c1,0,1.8,0.8,1.8,1.8v0
		C1703.8,603.3,1703,604.1,1702,604.1z"/>
	<path class="st2" d="M1702,639.9L1702,639.9c-1,0-1.8-0.8-1.8-1.8l0,0c0-1,0.8-1.8,1.8-1.8l0,0c1,0,1.8,0.8,1.8,1.8l0,0
		C1703.8,639.1,1703,639.9,1702,639.9z"/>
	<path class="st2" d="M1702,675.7L1702,675.7c-1,0-1.8-0.8-1.8-1.8l0,0c0-1,0.8-1.8,1.8-1.8l0,0c1,0,1.8,0.8,1.8,1.8l0,0
		C1703.8,674.9,1703,675.7,1702,675.7z"/>
	<path class="st2" d="M1666.1,604.1L1666.1,604.1c-1,0-1.8-0.8-1.8-1.8v0c0-1,0.8-1.8,1.8-1.8l0,0c1,0,1.8,0.8,1.8,1.8v0
		C1667.8,603.3,1667,604.1,1666.1,604.1z"/>
	<path class="st2" d="M1666.1,639.9L1666.1,639.9c-1,0-1.8-0.8-1.8-1.8l0,0c0-1,0.8-1.8,1.8-1.8l0,0c1,0,1.8,0.8,1.8,1.8l0,0
		C1667.8,639.1,1667,639.9,1666.1,639.9z"/>
	<path class="st2" d="M1666.1,675.7L1666.1,675.7c-1,0-1.8-0.8-1.8-1.8l0,0c0-1,0.8-1.8,1.8-1.8l0,0c1,0,1.8,0.8,1.8,1.8l0,0
		C1667.8,674.9,1667,675.7,1666.1,675.7z"/>
	<path class="st2" d="M1376.7,604.1L1376.7,604.1c-1,0-1.8-0.8-1.8-1.8v0c0-1,0.8-1.8,1.8-1.8l0,0c1,0,1.8,0.8,1.8,1.8v0
		C1378.5,603.3,1377.7,604.1,1376.7,604.1z"/>
	<path class="st2" d="M1376.7,639.9L1376.7,639.9c-1,0-1.8-0.8-1.8-1.8l0,0c0-1,0.8-1.8,1.8-1.8l0,0c1,0,1.8,0.8,1.8,1.8l0,0
		C1378.5,639.1,1377.7,639.9,1376.7,639.9z"/>
	<path class="st2" d="M1376.7,675.7L1376.7,675.7c-1,0-1.8-0.8-1.8-1.8l0,0c0-1,0.8-1.8,1.8-1.8l0,0c1,0,1.8,0.8,1.8,1.8l0,0
		C1378.5,674.9,1377.7,675.7,1376.7,675.7z"/>
	<path class="st2" d="M1376.7,604.1L1376.7,604.1c-1,0-1.8-0.8-1.8-1.8v0c0-1,0.8-1.8,1.8-1.8l0,0c1,0,1.8,0.8,1.8,1.8v0
		C1378.5,603.3,1377.7,604.1,1376.7,604.1z"/>
	<path class="st2" d="M1340.8,604.1L1340.8,604.1c-1,0-1.8-0.8-1.8-1.8v0c0-1,0.8-1.8,1.8-1.8l0,0c1,0,1.8,0.8,1.8,1.8v0
		C1342.6,603.3,1341.8,604.1,1340.8,604.1z"/>
	<path class="st2" d="M1376.7,639.9L1376.7,639.9c-1,0-1.8-0.8-1.8-1.8l0,0c0-1,0.8-1.8,1.8-1.8l0,0c1,0,1.8,0.8,1.8,1.8l0,0
		C1378.5,639.1,1377.7,639.9,1376.7,639.9z"/>
	<path class="st2" d="M1340.8,639.9L1340.8,639.9c-1,0-1.8-0.8-1.8-1.8l0,0c0-1,0.8-1.8,1.8-1.8l0,0c1,0,1.8,0.8,1.8,1.8l0,0
		C1342.6,639.1,1341.8,639.9,1340.8,639.9z"/>
	<path class="st2" d="M1376.7,675.7L1376.7,675.7c-1,0-1.8-0.8-1.8-1.8l0,0c0-1,0.8-1.8,1.8-1.8l0,0c1,0,1.8,0.8,1.8,1.8l0,0
		C1378.5,674.9,1377.7,675.7,1376.7,675.7z"/>
	<path class="st2" d="M1340.8,675.7L1340.8,675.7c-1,0-1.8-0.8-1.8-1.8l0,0c0-1,0.8-1.8,1.8-1.8l0,0c1,0,1.8,0.8,1.8,1.8l0,0
		C1342.6,674.9,1341.8,675.7,1340.8,675.7z"/>
	<path class="st2" d="M1304.8,604.1L1304.8,604.1c-1,0-1.8-0.8-1.8-1.8v0c0-1,0.8-1.8,1.8-1.8l0,0c1,0,1.8,0.8,1.8,1.8v0
		C1306.6,603.3,1305.8,604.1,1304.8,604.1z"/>
	<path class="st2" d="M1304.8,639.9L1304.8,639.9c-1,0-1.8-0.8-1.8-1.8l0,0c0-1,0.8-1.8,1.8-1.8l0,0c1,0,1.8,0.8,1.8,1.8l0,0
		C1306.6,639.1,1305.8,639.9,1304.8,639.9z"/>
	<path class="st2" d="M1304.8,675.7L1304.8,675.7c-1,0-1.8-0.8-1.8-1.8l0,0c0-1,0.8-1.8,1.8-1.8l0,0c1,0,1.8,0.8,1.8,1.8l0,0
		C1306.6,674.9,1305.8,675.7,1304.8,675.7z"/>
	<path class="st2" d="M1268.9,604.1L1268.9,604.1c-1,0-1.8-0.8-1.8-1.8v0c0-1,0.8-1.8,1.8-1.8l0,0c1,0,1.8,0.8,1.8,1.8v0
		C1270.7,603.3,1269.9,604.1,1268.9,604.1z"/>
	<path class="st2" d="M1268.9,639.9L1268.9,639.9c-1,0-1.8-0.8-1.8-1.8l0,0c0-1,0.8-1.8,1.8-1.8l0,0c1,0,1.8,0.8,1.8,1.8l0,0
		C1270.7,639.1,1269.9,639.9,1268.9,639.9z"/>
	<path class="st2" d="M1268.9,675.7L1268.9,675.7c-1,0-1.8-0.8-1.8-1.8l0,0c0-1,0.8-1.8,1.8-1.8l0,0c1,0,1.8,0.8,1.8,1.8l0,0
		C1270.7,674.9,1269.9,675.7,1268.9,675.7z"/>
	<path class="st2" d="M1232.9,604.1L1232.9,604.1c-1,0-1.8-0.8-1.8-1.8v0c0-1,0.8-1.8,1.8-1.8l0,0c1,0,1.8,0.8,1.8,1.8v0
		C1234.7,603.3,1233.9,604.1,1232.9,604.1z"/>
	<path class="st2" d="M1232.9,639.9L1232.9,639.9c-1,0-1.8-0.8-1.8-1.8l0,0c0-1,0.8-1.8,1.8-1.8l0,0c1,0,1.8,0.8,1.8,1.8l0,0
		C1234.7,639.1,1233.9,639.9,1232.9,639.9z"/>
	<path class="st2" d="M1232.9,675.7L1232.9,675.7c-1,0-1.8-0.8-1.8-1.8l0,0c0-1,0.8-1.8,1.8-1.8l0,0c1,0,1.8,0.8,1.8,1.8l0,0
		C1234.7,674.9,1233.9,675.7,1232.9,675.7z"/>
	<path class="st2" d="M1197,604.1L1197,604.1c-1,0-1.8-0.8-1.8-1.8v0c0-1,0.8-1.8,1.8-1.8l0,0c1,0,1.8,0.8,1.8,1.8v0
		C1198.8,603.3,1198,604.1,1197,604.1z"/>
	<path class="st2" d="M1197,639.9L1197,639.9c-1,0-1.8-0.8-1.8-1.8l0,0c0-1,0.8-1.8,1.8-1.8l0,0c1,0,1.8,0.8,1.8,1.8l0,0
		C1198.8,639.1,1198,639.9,1197,639.9z"/>
	<path class="st2" d="M1197,675.7L1197,675.7c-1,0-1.8-0.8-1.8-1.8l0,0c0-1,0.8-1.8,1.8-1.8l0,0c1,0,1.8,0.8,1.8,1.8l0,0
		C1198.8,674.9,1198,675.7,1197,675.7z"/>
	<path class="st2" d="M1161.1,604.1L1161.1,604.1c-1,0-1.8-0.8-1.8-1.8v0c0-1,0.8-1.8,1.8-1.8l0,0c1,0,1.8,0.8,1.8,1.8v0
		C1162.8,603.3,1162,604.1,1161.1,604.1z"/>
	<path class="st2" d="M1161.1,639.9L1161.1,639.9c-1,0-1.8-0.8-1.8-1.8l0,0c0-1,0.8-1.8,1.8-1.8l0,0c1,0,1.8,0.8,1.8,1.8l0,0
		C1162.8,639.1,1162,639.9,1161.1,639.9z"/>
	<path class="st2" d="M1161.1,675.7L1161.1,675.7c-1,0-1.8-0.8-1.8-1.8l0,0c0-1,0.8-1.8,1.8-1.8l0,0c1,0,1.8,0.8,1.8,1.8l0,0
		C1162.8,674.9,1162,675.7,1161.1,675.7z"/>
	<path class="st2" d="M1125.1,604.1L1125.1,604.1c-1,0-1.8-0.8-1.8-1.8v0c0-1,0.8-1.8,1.8-1.8l0,0c1,0,1.8,0.8,1.8,1.8v0
		C1126.9,603.3,1126.1,604.1,1125.1,604.1z"/>
	<path class="st2" d="M1125.1,639.9L1125.1,639.9c-1,0-1.8-0.8-1.8-1.8l0,0c0-1,0.8-1.8,1.8-1.8l0,0c1,0,1.8,0.8,1.8,1.8l0,0
		C1126.9,639.1,1126.1,639.9,1125.1,639.9z"/>
	<path class="st2" d="M1125.1,675.7L1125.1,675.7c-1,0-1.8-0.8-1.8-1.8l0,0c0-1,0.8-1.8,1.8-1.8l0,0c1,0,1.8,0.8,1.8,1.8l0,0
		C1126.9,674.9,1126.1,675.7,1125.1,675.7z"/>
</g>
</svg>
