<?xml version="1.0" encoding="utf-8"?>
<!-- Generator: Adobe Illustrator 25.4.1, SVG Export Plug-In . SVG Version: 6.00 Build 0)  -->
<svg version="1.1" id="Capa_1" xmlns="http://www.w3.org/2000/svg" xmlns:xlink="http://www.w3.org/1999/xlink" x="0px" y="0px"
	 viewBox="0 0 1024 511" style="enable-background:new 0 0 1024 511;" xml:space="preserve">
<style type="text/css">
	.st0{fill:#E33425;}
	.st1{fill:#FFFFFF;}
	.st2{fill:#3B3B3B;}
</style>
<rect x="0.49" y="0" class="st0" width="1024" height="510.77"/>
<g>
	<g>
		<g>
			<path class="st1" d="M1022.53,384.78v-36.41c-21.92,0-43.19,4.3-63.22,12.77c-9.63,4.07-18.91,9.11-27.59,14.98
				c-8.6,5.81-16.68,12.48-24.02,19.82c-7.34,7.34-14.01,15.43-19.82,24.02c-5.87,8.68-10.9,17.97-14.98,27.59
				c-8.47,20.03-12.77,41.3-12.77,63.22h36.41c0-17.02,3.33-33.51,9.89-49.03c6.34-15,15.43-28.48,27.01-40.05
				s25.05-20.66,40.05-27.01C989.02,388.11,1005.52,384.78,1022.53,384.78z"/>
		</g>
	</g>
	<g>
		<g>
			<path class="st2" d="M657.1,72.54l-6.93,6.93c4.17,4.17,9.03,7.4,14.45,9.6c2.61,1.06,5.33,1.86,8.1,2.4
				c2.74,0.53,5.55,0.8,8.34,0.8c2.79,0,5.6-0.27,8.34-0.8c2.77-0.54,5.49-1.34,8.1-2.4c5.42-2.2,10.29-5.43,14.45-9.6l-6.93-6.93
				c-3.24,3.24-7.01,5.74-11.21,7.45c-4.06,1.65-8.35,2.48-12.76,2.48s-8.7-0.83-12.76-2.48C664.1,78.28,660.33,75.78,657.1,72.54z"
				/>
		</g>
	</g>
</g>
</svg>
