<?xml version="1.0" encoding="utf-8"?>
<!-- Generator: Adobe Illustrator 25.4.1, SVG Export Plug-In . SVG Version: 6.00 Build 0)  -->
<svg version="1.1" id="Capa_1" xmlns="http://www.w3.org/2000/svg" xmlns:xlink="http://www.w3.org/1999/xlink" x="0px" y="0px"
	 viewBox="0 0 135 76" style="enable-background:new 0 0 135 76;" xml:space="preserve">
<style type="text/css">
	.st0{fill:#E33425;}
	.st1{fill:none;stroke:#E33425;stroke-width:2.9895;stroke-linecap:round;stroke-linejoin:round;stroke-miterlimit:10;}
</style>
<g>
	<g>
		<path class="st0" d="M107.03,52.61c3.59,0,6.51,2.92,6.51,6.5c-0.01,3.58-2.93,6.5-6.51,6.51c-3.59,0-6.51-2.92-6.51-6.51
			S103.44,52.61,107.03,52.61 M107.03,49.63c-5.24,0-9.5,4.25-9.5,9.5c0,5.24,4.25,9.5,9.5,9.5c5.24-0.01,9.48-4.26,9.5-9.5
			C116.53,53.88,112.28,49.63,107.03,49.63L107.03,49.63z"/>
	</g>
	<g>
		<path class="st0" d="M52.02,52.61c3.59,0,6.51,2.92,6.51,6.5c-0.01,3.58-2.93,6.5-6.51,6.51c-3.59,0-6.51-2.92-6.51-6.51
			S48.44,52.61,52.02,52.61 M52.02,49.63c-5.24,0-9.5,4.25-9.5,9.5c0,5.24,4.25,9.5,9.5,9.5c5.24-0.01,9.48-4.26,9.5-9.5
			C61.52,53.88,57.27,49.63,52.02,49.63L52.02,49.63z"/>
	</g>
	<path class="st1" d="M98.49,59.29h-5.26c-1.75,0-3.17-1.42-3.17-3.17V23.38c0-1.75,1.42-3.17,3.17-3.17h13.17
		c0.92-0.01,1.8,0.39,2.41,1.09l14.42,16.64c0.48,0.57,0.76,1.28,0.77,2.03v19.16c0,1.75-1.42,3.17-3.17,3.17h-4.86"/>
	<path class="st1" d="M100.3,44.21h-4.3"/>
	<path class="st1" d="M25.49,44.21h-7.17"/>
	<path class="st1" d="M25.49,51.15H12.21"/>
	<path class="st1" d="M122.43,38.62H90.07"/>
	<path class="st1" d="M93.23,59.29H61.37"/>
	<path class="st1" d="M42.53,59.29h-5.06c-1.75,0-3.17-1.42-3.17-3.17v-9.3c0-1.75,1.42-3.17,3.17-3.17h52.6"/>
	<g>
		<path class="st1" d="M41.61,42.25V14.78c0-2.58,2.09-4.66,4.67-4.67h11.49c2.58,0,4.66,2.09,4.67,4.67v27.47"/>
		<path class="st1" d="M48.3,20.44h7.44"/>
	</g>
	<g>
		<path class="st1" d="M62.43,42.25V14.78c0-2.58,2.09-4.66,4.67-4.67h11.49c2.58,0,4.66,2.09,4.67,4.67v27.47"/>
		<path class="st1" d="M69.12,20.44h7.44"/>
	</g>
</g>
</svg>
