<?xml version="1.0" encoding="utf-8"?>
<!-- Generator: Adobe Illustrator 25.4.1, SVG Export Plug-In . SVG Version: 6.00 Build 0)  -->
<svg version="1.1" id="Capa_1" xmlns="http://www.w3.org/2000/svg" xmlns:xlink="http://www.w3.org/1999/xlink" x="0px" y="0px"
	 viewBox="0 0 89 76" style="enable-background:new 0 0 89 76;" xml:space="preserve">
<style type="text/css">
	.st0{fill:none;stroke:#E33425;stroke-width:2.9895;stroke-linecap:round;stroke-linejoin:round;stroke-miterlimit:10;}
</style>
<g>
	<g>
		<path class="st0" d="M45.1,7.06c-17.43,0-31.56,14.13-31.56,31.56S27.67,70.17,45.1,70.17s31.56-14.13,31.56-31.56
			C76.64,21.19,62.53,7.07,45.1,7.06z"/>
	</g>
	<path class="st0" d="M41.99,7.21c0.91-0.05,4.3,4.72,4.68,5.74c0.34,0.92,0.04,1.95-0.81,2.6c-0.81,0.62-1.67,1.19-2.5,1.78
		c-0.2,0.14-0.41,0.28-0.6,0.43c-0.73,0.58-0.64,1.54,0.19,1.98c0.54,0.28,1.09,0.55,1.63,0.81c0.05,0.02,0.11,0.03,0.22,0.06
		c0.11-0.06,0.25-0.14,0.37-0.21c-0.04-0.4-0.08-0.75-0.09-1.1c-0.03-0.8,0.44-1.43,1.22-1.7c1.74-0.6,3.85,0.38,5.24,1.44
		c1.36,1.04,2.33,2.57,2.56,4.24c0.2,1.46-0.1,2.99-1.59,3.66c-0.61,0.27-1.22,0.54-1.85,0.75c-0.45,0.14-0.93,0.21-1.4,0.25
		c-0.53,0.04-1.07,0.01-1.66,0.01c-0.66,0.89-1.33,1.77-1.96,2.68c-0.32,0.47-0.24,1.32-0.44,1.87c-0.21,0.59-0.52,1.16-1.07,1.51
		c-0.58,0.36-1.32,0.4-2,0.29c-0.68-0.11-1.33-0.36-1.99-0.54c-0.19-0.05-0.42-0.09-0.56,0.04c-0.07,0.06-0.11,0.16-0.13,0.25
		c-0.08,0.48,0.35,0.89,0.75,1.19c0.41,0.32,0.82,0.64,1.23,0.96c0.27,0.21,0.55,0.42,0.88,0.53c0.35,0.11,0.73,0.08,1.1,0.07
		c1.4-0.04,2.61,0.31,3.96,0.53c1.44,0.23,2.88,0.46,4.32,0.66c1.23,0.17,2.13,0.67,2.66,1.77c0.07,0.13,0.16,0.25,0.27,0.42
		c0.73,0.13,1.46,0.43,2.23,0.41c2.39-0.07,5.19,2.93,2.06,4.82c-0.49,0.29-1.38,0.83-1.91,1.27c-0.53,0.44-0.35,1.83-1.46,2.53
		c-0.5,0.31-0.96,0.68-1.44,1.02c-0.55,0.38-0.92,0.88-1.16,1.49c-0.85,2.19-0.67,1.93-2.66,3.25c-0.39,0.26-0.79,0.52-1.21,0.8
		c0.07,0.64,0.11,1.27,0.22,1.89c0.14,0.82-0.04,1.55-0.48,2.24c-0.32,0.51-0.64,1.02-0.97,1.52c-0.96,1.49-3.15,1.51-3.79-0.16
		c-0.75-1.95,0.41-1.15-0.3-3.94c-0.21-0.81-0.75-1.47-0.48-2.37c0.21-0.7,1.83-3.2-0.27-5.33c-0.42-0.42-0.83-0.75-1.16-1.25
		c-0.4-0.6-0.82-1.18-1.22-1.78c-0.69-1.03-0.64-2.58,0.1-3.58c0.24-0.33,0.49-0.65,0.8-1.06c-0.24-0.06-0.39-0.11-0.54-0.14
		c-0.93-0.15-1.85-0.29-2.78-0.43c-0.61-0.09-1.11-0.37-1.55-0.78c-0.83-0.78-1.66-1.54-2.48-2.33c-0.37-0.35-0.77-0.57-1.3-0.63
		c-0.99-0.11-1.5-0.61-1.69-1.55c-0.15-0.75-0.31-1.49-0.43-2.25c-0.13-0.76-0.44-1.42-0.94-2c-0.33-0.38-0.67-0.77-1-1.15
		c-0.51-0.59-0.7-1.25-0.52-2.02c0.26-1.14,0.45-2.3,0.7-3.44c0.15-0.71-0.26-1.24-0.51-1.87c-0.62,0.2-1.17,0.5-1.74,0.53
		c-0.54,0.03-1.1-0.21-1.74-0.36c-0.23-0.05-1.43,1.31-1.6,1.52c-0.46,0.59-0.78,0.79-1.59,0.96c-1.17,0.25-2.45,0.5-3.53-0.02"/>
</g>
</svg>
