<?xml version="1.0" encoding="utf-8"?>
<!-- Generator: Adobe Illustrator 26.0.1, SVG Export Plug-In . SVG Version: 6.00 Build 0)  -->
<svg version="1.1" id="Capa_1" xmlns="http://www.w3.org/2000/svg" xmlns:xlink="http://www.w3.org/1999/xlink" x="0px" y="0px"
	 width="1908px" height="768px" viewBox="0 0 1908 768" style="enable-background:new 0 0 1908 768;" xml:space="preserve">
<style type="text/css">
	.st0{fill:#00A89C;}
</style>
<g>
	<g>
		<path class="st0" d="M1737.7,342.9V238.2c-63,0-124.2,12.4-181.7,36.7c-27.7,11.7-54.4,26.2-79.3,43.1
			c-24.7,16.7-47.9,35.9-69.1,57c-21.1,21.1-40.3,44.4-57,69.1c-16.9,25-31.3,51.7-43.1,79.3c-24.4,57.6-36.7,118.7-36.7,181.7
			h104.7c0-48.9,9.6-96.3,28.4-141c18.2-43.1,44.4-81.9,77.6-115.1c33.3-33.3,72-59.4,115.1-77.6
			C1641.3,352.5,1688.8,342.9,1737.7,342.9z"/>
	</g>
</g>
<g>
	<g>
		<path class="st0" d="M1461.5,732.3l-7.1,7.1c4.3,4.3,9.3,7.6,14.8,9.9c2.7,1.1,5.5,1.9,8.3,2.5c2.8,0.5,5.7,0.8,8.6,0.8
			c2.9,0,5.7-0.3,8.6-0.8c2.8-0.6,5.6-1.4,8.3-2.5c5.6-2.3,10.6-5.6,14.8-9.9l-7.1-7.1c-3.3,3.3-7.2,5.9-11.5,7.6
			c-4.2,1.7-8.6,2.5-13.1,2.5c-4.5,0-8.9-0.9-13.1-2.5C1468.7,738.2,1464.8,735.6,1461.5,732.3z"/>
	</g>
</g>
</svg>
