<?xml version="1.0" encoding="utf-8"?>
<!-- Generator: Adobe Illustrator 26.0.1, SVG Export Plug-In . SVG Version: 6.00 Build 0)  -->
<svg version="1.1" id="Capa_1" xmlns="http://www.w3.org/2000/svg" xmlns:xlink="http://www.w3.org/1999/xlink" x="0px" y="0px"
	 viewBox="0 0 77 77" style="enable-background:new 0 0 77 77;" xml:space="preserve">
<g>
	<g>
		<g>
			<path style="fill:#32BA46;" d="M38.6,76.8c-6.7,0-13.2-1.8-19-5.1L4.8,76.8l3-15.7c-4.8-6.5-7.3-14.2-7.3-22.3
				c0-21,17.1-38,38-38c21,0,38,17.1,38,38C76.6,59.7,59.6,76.8,38.6,76.8z"/>
		</g>
	</g>
	<g>
		<g>
			<path style="fill:none;" d="M38.6,15.7c-12.7,0-23,10.3-23,23c0,5.3,1.8,10.2,4.9,14.1L19,60.8l7.5-2.6c3.5,2.2,7.7,3.5,12.2,3.5
				c12.7,0,23-10.3,23-23C61.6,26,51.3,15.7,38.6,15.7z"/>
			<path style="fill:#FFFFFF;" d="M38.6,63.6c-4.3,0-8.6-1.2-12.4-3.3l-9.7,3.3l2-10.3c-3.1-4.3-4.8-9.3-4.8-14.6
				c0-13.7,11.1-24.9,24.9-24.9c13.7,0,24.9,11.1,24.9,24.9C63.5,52.4,52.3,63.6,38.6,63.6z M26.7,56.2l0.7,0.5
				c3.4,2.1,7.2,3.2,11.2,3.2c11.7,0,21.2-9.5,21.2-21.2c0-11.7-9.5-21.2-21.2-21.2c-11.7,0-21.2,9.5-21.2,21.2
				c0,4.7,1.6,9.2,4.5,13l0.5,0.7L21.4,58L26.7,56.2z"/>
		</g>
		<path style="fill:#FFFFFF;" d="M26.1,29.2c0,0,1.5-2.5,2.6-2.7c1.2-0.1,2.7-0.1,3.1,0.6c0.4,0.8,2.3,5.3,2.3,5.3s0.3,0.8-0.2,1.5
			c-0.5,0.8-1.6,1.8-1.6,1.8s-0.6,0.8,0,1.6c0.6,0.8,1.5,2.3,3.5,4.3c1.9,1.9,5.7,3.3,5.7,3.3s0.5,0.1,0.9-0.3
			c0.3-0.3,2.2-2.6,2.2-2.6s0.6-0.8,1.6-0.3c1,0.4,5.2,2.6,5.2,2.6s0.5,0.2,0.5,0.9c0,0.8-0.3,2.6-0.9,3.2c-0.6,0.6-2.4,2.5-5.2,2.5
			c-2.7,0-9.2-2.2-12.7-5.7c-3.5-3.5-6.6-7-7.3-10.2C25.1,31.9,25.2,30.5,26.1,29.2z"/>
	</g>
</g>
<g>
</g>
<g>
</g>
<g>
</g>
<g>
</g>
<g>
</g>
<g>
</g>
<g>
</g>
<g>
</g>
<g>
</g>
<g>
</g>
<g>
</g>
<g>
</g>
<g>
</g>
<g>
</g>
<g>
</g>
</svg>
