<?xml version="1.0" encoding="utf-8"?>
<!-- Generator: Adobe Illustrator 19.2.1, SVG Export Plug-In . SVG Version: 6.00 Build 0)  -->
<svg version="1.1" id="Capa_1" xmlns="http://www.w3.org/2000/svg" xmlns:xlink="http://www.w3.org/1999/xlink" x="0px" y="0px"
	 viewBox="0 0 100 100" style="enable-background:new 0 0 100 100;" xml:space="preserve">
<style type="text/css">
	.st0{fill-rule:evenodd;clip-rule:evenodd;fill:#F2F2F2;}
	.st1{fill:#85807F;}
	.st2{fill:#6C6764;}
	.st3{fill:#FFFFFF;}
	.st4{fill:#CDC7C7;}
	.st5{fill:#A02A1D;}
	.st6{fill:#221E20;}
</style>
<g>
	<g id="XMLID_56_">
		<g>
			<path id="XMLID_927_" class="st0" d="M99.5,50c0,27.3-22.2,49.5-49.5,49.5C22.7,99.5,0.5,77.3,0.5,50C0.5,22.7,22.7,0.5,50,0.5
				C77.3,0.5,99.5,22.7,99.5,50z"/>
			<path id="XMLID_926_" class="st1" d="M97.9,50c0,26.5-21.5,48.1-48.1,48.1c-25.4,0-46.2-19.7-47.9-44.7c-0.1-1.1-0.1-2.2-0.1-3.3
				c0-26.5,21.5-48.1,48.1-48.1C76.4,1.9,97.9,23.5,97.9,50"/>
			<path id="XMLID_925_" class="st2" d="M49.8,98.1c19,0,41.8-12,47.2-39.4c1.9-8.1,0.4-17.1-0.9-21.8c-0.9-2.8-3.4-8.5-3.6-8.9
				l-10.7,5.6l-64,0.2L7.5,27.1c-1,1.9-3.2,6-4.1,10.5c-1.1,3.6-2.3,9.9-1,19.6C6.7,84.5,30.5,98.1,49.8,98.1"/>
			<path id="XMLID_924_" class="st3" d="M86.1,50c0,20.1-16.3,36.3-36.3,36.3c-20.1,0-36.3-16.3-36.3-36.3
				c0-20.1,16.3-36.3,36.3-36.3C69.9,13.7,86.1,29.9,86.1,50"/>
			<path id="XMLID_921_" class="st1" d="M85.7,50c0,19.8-16.1,35.9-35.9,35.9C30,85.9,13.9,69.8,13.9,50c0-19.8,16.1-35.9,35.9-35.9
				C69.6,14.1,85.7,30.2,85.7,50 M49.8,13.3c-20.3,0-36.7,16.5-36.7,36.8c0,20.3,16.5,36.7,36.7,36.7c20.3,0,36.8-16.5,36.8-36.7
				C86.6,29.8,70.1,13.3,49.8,13.3"/>
			<path id="XMLID_918_" class="st4" d="M75.2,50c0,14-11.4,25.4-25.4,25.4c-14,0-25.4-11.4-25.4-25.4c0-14,11.4-25.4,25.4-25.4
				C63.9,24.6,75.2,36,75.2,50 M49.8,22.8c-15,0-27.2,12.2-27.2,27.2c0,15,12.2,27.2,27.2,27.2C64.8,77.2,77,65,77,50
				C77,35,64.8,22.8,49.8,22.8"/>
			<path id="XMLID_917_" class="st5" d="M76.1,50c0,14.5-11.8,26.3-26.3,26.3c-14.5,0-26.3-11.8-26.3-26.3
				c0-14.5,11.8-26.3,26.3-26.3C64.3,23.7,76.1,35.5,76.1,50"/>
			<g id="XMLID_844_">
				<path id="XMLID_914_" class="st3" d="M10.8,50.6c0.1,0.3,0.2,0.8,0.2,1.3c0.1,0.8-0.1,1.4-0.5,1.8c-0.5,0.6-1.3,0.9-2.6,1
					c-1.3,0.1-2.3-0.2-2.8-0.7c-0.4-0.4-0.7-1-0.7-2c0-0.4,0-0.8,0-1L10.8,50.6z M5.5,52.1c0,0.1,0,0.2,0,0.2c0,0.6,0.7,1.1,2.5,1
					c1.3-0.1,2.1-0.5,2.1-1.2c0-0.1,0-0.2,0-0.2L5.5,52.1z"/>
				<path id="XMLID_912_" class="st3" d="M11.5,56.5l-6.4,1l-0.2-1.3l6.4-1L11.5,56.5z"/>
				<path id="XMLID_910_" class="st3" d="M6.5,58.5c-0.1,0.3-0.1,0.8,0,1.1c0.1,0.6,0.5,0.8,0.9,0.7c0.5-0.1,0.6-0.4,0.9-1.1
					c0.3-1,0.9-1.5,1.5-1.6c1-0.2,2,0.3,2.3,1.6c0.1,0.4,0.1,0.9,0,1.1L11,60.3c0.1-0.2,0.1-0.5,0-0.9c-0.1-0.5-0.5-0.7-0.8-0.6
					c-0.4,0.1-0.5,0.3-0.8,1.1c-0.3,1-0.9,1.4-1.6,1.6c-1.2,0.3-2.1-0.4-2.4-1.7c-0.1-0.5-0.1-1,0-1.3L6.5,58.5z"/>
				<path id="XMLID_908_" class="st3" d="M9.9,64.8l-0.5-1.4L7.8,64l0.5,1.6l-1,0.3l-0.9-2.8l6.2-2l0.9,2.7l-1,0.3l-0.5-1.5
					l-1.4,0.5l0.5,1.4L9.9,64.8z"/>
				<path id="XMLID_905_" class="st3" d="M7.8,67.2l5.9-2.7l0.5,1l-1.9,2c-0.4,0.4-1,1-1.4,1.4l0,0c0.6-0.3,1.6-0.9,2.7-1.4l1.3-0.6
					l0.5,1l-5.9,2.7l-0.5-1.1l1.8-1.9c0.4-0.4,1-1,1.5-1.4l0,0c-0.6,0.3-1.5,0.8-2.7,1.3l-1.3,0.6L7.8,67.2z M14.4,65.1
					c0.6-0.3,1.1-0.2,1.3,0.1c0.1,0.2,0.1,0.4,0.1,0.5c0,0.2,0,0.3,0,0.4c0.1,0.1,0.2,0.1,0.4,0l0.2,0.5c-0.7,0.4-1.1,0.3-1.3-0.1
					C15,66.3,15,66.1,15,66c0-0.2,0-0.3,0-0.4c-0.1-0.1-0.2-0.1-0.4,0L14.4,65.1z"/>
				<path id="XMLID_902_" class="st3" d="M15,73.7c-2.1,1.3-3.4,1-4,0c-0.8-1.3,0.3-2.6,1.8-3.5c1.5-0.9,3.2-1.1,3.9,0.1
					C17.5,71.7,16.3,73,15,73.7z M13.5,71.4c-1.3,0.8-1.8,1.4-1.5,1.8c0.3,0.5,1.2,0.1,2.3-0.6c1-0.6,1.8-1.3,1.5-1.8
					C15.5,70.4,14.6,70.6,13.5,71.4z"/>
				<path id="XMLID_900_" class="st3" d="M11.5,76.6c0.8-0.2,1.8-0.6,2.5-1l0.8,1c-0.9,0.3-1.9,0.5-2.8,0.6L11.5,76.6z"/>
				<path id="XMLID_897_" class="st3" d="M20.1,75.4c0.3,0.2,0.7,0.5,1,0.9c0.5,0.5,0.8,1.1,0.8,1.6c0,0.5-0.2,1-0.6,1.4
					c-0.5,0.5-1,0.7-1.5,0.7c-0.6,0-1.2-0.3-1.6-0.7c-0.1-0.1-0.1-0.1-0.2-0.2l-1.8,1.7l-0.9-0.9L20.1,75.4z M18.8,78.3
					c0,0.1,0.1,0.1,0.1,0.2c0.4,0.5,1,0.4,1.4-0.1c0.4-0.4,0.6-0.9,0.2-1.3c-0.1-0.1-0.2-0.1-0.2-0.2L18.8,78.3z"/>
				<path id="XMLID_894_" class="st3" d="M23.1,78.5c0.3,0.2,0.8,0.5,1.1,0.8c0.5,0.5,0.9,0.9,1,1.5c0.1,0.5-0.1,0.9-0.5,1.4
					c-0.5,0.5-1.1,0.8-1.8,0.6l0,0c0.2,0.4,0.1,0.9-0.2,1.5c-0.4,0.6-0.8,1.4-0.8,1.6l-1-0.9c0.1-0.2,0.4-0.8,0.8-1.4
					c0.4-0.7,0.4-1,0.1-1.3l-0.1-0.1l-1.7,2l-1-0.8L23.1,78.5z M22.2,81.5l0.2,0.1c0.4,0.4,0.9,0.2,1.3-0.2c0.4-0.4,0.4-0.9,0-1.3
					c-0.1-0.1-0.2-0.1-0.3-0.2L22.2,81.5z"/>
				<path id="XMLID_892_" class="st3" d="M27.5,81.9l-2.4,3.5c-0.5,0.8-0.5,1.2-0.2,1.4c0.3,0.2,0.7,0.1,1.2-0.7l2.4-3.5l1.1,0.7
					l-2.3,3.3c-0.9,1.4-2,1.8-3,1.1c-1.1-0.8-1-1.9-0.1-3.2l2.3-3.3L27.5,81.9z"/>
				<path id="XMLID_889_" class="st3" d="M30.3,83.9c0.3,0.1,0.7,0.2,1.2,0.5c0.7,0.4,1.1,0.8,1.3,1.3c0.3,0.7,0.1,1.6-0.4,2.7
					c-0.6,1.2-1.3,1.8-2.1,2c-0.6,0.2-1.3,0.1-2-0.4c-0.4-0.2-0.7-0.4-0.9-0.6L30.3,83.9z M28.9,89.3c0,0,0.1,0.1,0.2,0.1
					c0.5,0.3,1.3,0,2.1-1.6c0.6-1.2,0.7-2.1,0-2.4c-0.1,0-0.2-0.1-0.2-0.1L28.9,89.3z"/>
				<path id="XMLID_887_" class="st3" d="M35.5,86.3L34,90.2c-0.3,0.9-0.2,1.3,0.1,1.4c0.3,0.1,0.7,0,1-0.9l1.5-3.9l1.2,0.4
					l-1.4,3.8c-0.6,1.6-1.5,2.2-2.7,1.7c-1.3-0.5-1.4-1.6-0.9-3.1l1.4-3.8L35.5,86.3z"/>
				<path id="XMLID_885_" class="st3" d="M40.1,94.4c-0.2,0-0.6,0-1-0.1c-1.6-0.4-2-1.9-1.6-3.7c0.6-2.4,2.2-2.9,3.4-2.6
					c0.4,0.1,0.7,0.3,0.8,0.4l-0.5,1c-0.1-0.1-0.3-0.2-0.5-0.3c-0.7-0.2-1.5,0.2-1.9,1.8c-0.4,1.5,0,2.2,0.8,2.4
					c0.2,0.1,0.4,0.1,0.6,0.1L40.1,94.4z"/>
				<path id="XMLID_883_" class="st3" d="M44.3,95.2c-0.2,0.1-0.6,0.1-1,0c-1.6-0.3-2.2-1.8-1.9-3.6c0.4-2.4,1.9-3.1,3.1-2.9
					c0.4,0.1,0.7,0.2,0.8,0.3L45,90c-0.1-0.1-0.3-0.2-0.6-0.2c-0.7-0.1-1.4,0.4-1.7,2c-0.3,1.5,0.2,2.2,1,2.4c0.2,0,0.4,0,0.6,0
					L44.3,95.2z"/>
				<path id="XMLID_881_" class="st3" d="M47.2,89l-0.6,6.5l-1.3-0.1l0.6-6.5L47.2,89z"/>
				<path id="XMLID_877_" class="st3" d="M52.1,92.2c0,2.4-0.9,3.4-2.1,3.4c-1.5,0-2.1-1.6-2.1-3.4c0-1.8,0.7-3.3,2.2-3.3
					C51.7,89,52.1,90.7,52.1,92.2z M49.2,92.3c0,1.5,0.3,2.2,0.8,2.2c0.5,0,0.8-1,0.8-2.3c0-1.1-0.2-2.2-0.7-2.2
					C49.5,90.1,49.3,90.9,49.2,92.3z M51.6,87.6l-1.2,1.1h-0.9l0.8-1.1H51.6z"/>
				<path id="XMLID_875_" class="st3" d="M53.4,95.5L52.7,89l1.2-0.1l1.3,2.4c0.3,0.5,0.7,1.3,0.9,1.8h0c-0.1-0.7-0.3-1.8-0.5-3
					l-0.2-1.4l1.1-0.1l0.7,6.5l-1.2,0.1l-1.3-2.3c-0.3-0.5-0.7-1.3-0.9-1.9h0c0.1,0.6,0.3,1.6,0.4,2.9l0.2,1.5L53.4,95.5z"/>
				<path id="XMLID_873_" class="st3" d="M61.3,94.2l-0.6-2.4l-2.4-3.5l1.3-0.3l0.8,1.4c0.2,0.4,0.5,0.8,0.7,1.3l0,0
					c0-0.5-0.1-1-0.1-1.4l0-1.6l1.3-0.3l-0.4,4.2l0.7,2.4L61.3,94.2z"/>
				<path id="XMLID_871_" class="st3" d="M69.4,91.2c-0.1,0.1-0.4,0.4-0.8,0.5c-1.5,0.7-2.8-0.3-3.5-2c-0.9-2.3-0.1-3.7,1.1-4.2
					c0.4-0.2,0.7-0.2,0.9-0.2l0.2,1.1c-0.2,0-0.3,0-0.6,0.1c-0.7,0.3-1,1.1-0.4,2.6c0.6,1.4,1.4,1.8,2.1,1.4
					c0.2-0.1,0.4-0.2,0.5-0.3L69.4,91.2z"/>
				<path id="XMLID_868_" class="st3" d="M72.1,86c1.2,2.1,0.9,3.4-0.2,4c-1.3,0.7-2.6-0.4-3.4-1.9c-0.9-1.6-1-3.2,0.3-3.9
					C70.2,83.4,71.4,84.7,72.1,86z M69.7,87.5c0.7,1.3,1.3,1.8,1.8,1.6c0.5-0.3,0.2-1.2-0.5-2.4c-0.5-1-1.2-1.8-1.7-1.5
					C68.9,85.4,69,86.3,69.7,87.5z"/>
				<path id="XMLID_866_" class="st3" d="M74.9,88.2L71.1,83l0.9-0.7l2.3,1.5c0.5,0.3,1.2,0.8,1.7,1.1l0,0c-0.4-0.5-1.2-1.4-1.9-2.4
					l-0.8-1.2l0.9-0.6L78,86l-0.9,0.7l-2.2-1.4c-0.5-0.3-1.2-0.8-1.7-1.2h0c0.4,0.5,1,1.3,1.8,2.4l0.8,1.2L74.9,88.2z"/>
				<path id="XMLID_864_" class="st3" d="M78.3,84.1c0.3-0.1,0.7-0.3,1-0.5c0.4-0.4,0.5-0.8,0.2-1.1c-0.3-0.3-0.7-0.3-1.3-0.2
					c-1,0.2-1.7-0.1-2.1-0.5c-0.7-0.8-0.8-1.9,0.3-2.8c0.3-0.3,0.7-0.5,0.9-0.5l0.6,0.9c-0.2,0-0.5,0.1-0.8,0.4
					c-0.4,0.4-0.4,0.8-0.1,1c0.3,0.3,0.5,0.3,1.3,0.2c1-0.2,1.7,0.1,2.1,0.6c0.8,0.9,0.6,2.1-0.3,2.9c-0.4,0.3-0.9,0.6-1.1,0.6
					L78.3,84.1z"/>
				<path id="XMLID_862_" class="st3" d="M79.1,77.9l-0.8,0.8l-0.8-0.8l2.4-2.6l0.9,0.8l-0.8,0.8l3.9,3.6l-0.9,0.9L79.1,77.9z"/>
				<path id="XMLID_859_" class="st3" d="M80.2,74.9c0.2-0.4,0.4-0.8,0.7-1.2c0.4-0.6,0.9-1,1.4-1.1c0.5-0.1,0.9,0.1,1.4,0.4
					c0.5,0.4,0.8,1.1,0.7,1.8l0,0c0.4-0.2,0.9-0.2,1.5,0.1c0.7,0.3,1.4,0.7,1.7,0.7l-0.8,1.1c-0.2,0-0.8-0.3-1.4-0.7
					c-0.7-0.4-1-0.4-1.3,0L84,76.2l2.1,1.6l-0.8,1L80.2,74.9z M83.3,75.7l0.1-0.2c0.3-0.4,0.2-1-0.3-1.3c-0.4-0.3-0.9-0.4-1.2,0.1
					c-0.1,0.1-0.1,0.2-0.2,0.3L83.3,75.7z"/>
				<path id="XMLID_857_" class="st3" d="M83.4,70.4l3.6,2.1c0.8,0.5,1.2,0.4,1.4,0.1c0.2-0.3,0.1-0.7-0.8-1.2L84,69.3l0.6-1.1
					l3.4,2c1.4,0.8,1.9,1.8,1.3,2.9c-0.7,1.2-1.8,1.2-3.2,0.3l-3.5-2L83.4,70.4z"/>
				<path id="XMLID_855_" class="st3" d="M92.2,67.1c0,0.2-0.1,0.6-0.3,0.9c-0.7,1.5-2.3,1.7-3.9,0.9c-2.2-1-2.5-2.6-2-3.8
					c0.2-0.4,0.4-0.7,0.5-0.7l0.9,0.6c-0.1,0.1-0.2,0.2-0.4,0.5c-0.3,0.6,0,1.5,1.5,2.1c1.4,0.6,2.2,0.4,2.5-0.3
					c0.1-0.2,0.1-0.4,0.2-0.6L92.2,67.1z"/>
				<path id="XMLID_853_" class="st3" d="M93.6,63.2c0,0.2,0,0.6-0.2,1c-0.5,1.6-2.1,1.9-3.8,1.3c-2.3-0.8-2.8-2.4-2.4-3.6
					c0.1-0.4,0.3-0.7,0.5-0.8l0.9,0.5c-0.1,0.1-0.2,0.3-0.3,0.5c-0.2,0.7,0.1,1.5,1.7,2c1.5,0.5,2.2,0.1,2.5-0.6
					c0.1-0.2,0.1-0.4,0.1-0.6L93.6,63.2z"/>
				<path id="XMLID_851_" class="st3" d="M88,59.3l6.3,1.6l-0.3,1.2l-6.3-1.6L88,59.3z"/>
				<path id="XMLID_847_" class="st3" d="M87.4,54.8l0.9,1.3L88.1,57l-0.9-1L87.4,54.8z M92,55c2.4,0.4,3.3,1.4,3,2.6
					c-0.2,1.5-1.9,1.8-3.6,1.5c-1.7-0.3-3.1-1.2-2.9-2.7C88.7,54.9,90.5,54.8,92,55z M91.6,57.8c1.5,0.2,2.3,0.1,2.3-0.4
					c0.1-0.5-0.8-0.9-2.1-1.1c-1.1-0.2-2.2-0.2-2.3,0.4C89.4,57.2,90.2,57.6,91.6,57.8z"/>
				<path id="XMLID_845_" class="st3" d="M95.4,54.2l-6.5-0.3l0.1-1.2l2.6-0.9c0.5-0.2,1.4-0.4,1.9-0.6v0c-0.7,0-1.8,0-3,0l-1.4-0.1
					l0.1-1.1l6.5,0.3l-0.1,1.2L93,52.4c-0.6,0.2-1.4,0.4-2,0.6v0c0.6,0,1.7,0,3,0.1l1.5,0.1L95.4,54.2z"/>
			</g>
			<g id="XMLID_828_">
				<rect id="XMLID_843_" x="39.2" y="27.5" class="st3" width="2.7" height="17"/>
				<path id="XMLID_842_" class="st3" d="M46.1,31.7c0-1.1,0.8-1.9,1.7-1.9c0.9,0,1.5,0.5,2,1.4l1.3-2.3c-0.8-1.1-2.5-1.9-3.8-1.9
					c-2.3,0-4,2.3-4,5.1c0,2.6,1.3,3.7,3,4.6c1.1,0.5,2.4,1,2.4,2.8c0,1.3-0.7,2.5-1.8,2.5c-1.1,0-2.1-1.2-2.5-2.5l-1.7,2.1
					c1,1.9,2.3,3.3,4.2,3.3c2.8,0,4.5-2.4,4.5-5.8C51.5,33.4,46.1,34.6,46.1,31.7z"/>
				<path id="XMLID_839_" class="st3" d="M58.6,27c-4.1,0-6.8,3.9-6.8,8.9c0,5,2.6,9,6.8,9c4.2,0,6.8-4,6.8-9
					C65.4,30.9,62.7,27,58.6,27z M58.6,41.6c-3,0-4-3.2-4-5.8c0-2.8,1.5-5.5,4-5.5c2.5,0,4,2.7,4,5.5C62.6,38.4,61.6,41.6,58.6,41.6
					z"/>
				<path id="XMLID_836_" class="st3" d="M36.8,47.3c-3.1,0-4.1,3.6-4.1,6.9c0,2.3,0.7,5.9,3,5.9c0.8,0,1.3-0.5,1.8-1.1l0.1,0
					l-2.8,7.4h2.8l1.2-3.2c1.1-3,2.1-5.9,2.1-9.4C40.9,50.6,39.8,47.3,36.8,47.3z M36.7,56.8c-1,0-1.2-2.1-1.2-3
					c0-0.9,0.2-3.3,1.3-3.3c1,0,1.2,2.1,1.2,3C38,54.5,37.8,56.8,36.7,56.8z"/>
				<path id="XMLID_833_" class="st3" d="M46.4,47.3c-3.6,0-4.2,6.4-4.2,9.8c0,3.3,0.6,9.8,4.2,9.8c3.5,0,4.2-6.5,4.2-9.8
					C50.6,53.7,49.9,47.3,46.4,47.3z M46.4,63.4c-1.5,0-1.3-5.1-1.3-6.4c0-1.2-0.1-6.4,1.3-6.4c1.4,0,1.3,5.1,1.3,6.4
					C47.7,58.3,47.8,63.4,46.4,63.4z"/>
				<path id="XMLID_830_" class="st3" d="M56,47.3c-3.5,0-4.1,6.4-4.1,9.8c0,3.3,0.6,9.8,4.1,9.8c3.6,0,4.2-6.5,4.2-9.8
					C60.2,53.7,59.6,47.3,56,47.3z M56,63.4c-1.4,0-1.3-5.1-1.3-6.4c0-1.2-0.1-6.4,1.3-6.4c1.5,0,1.3,5.1,1.3,6.4
					C57.3,58.3,57.4,63.4,56,63.4z"/>
				<polygon id="XMLID_829_" class="st3" points="63,47.6 63,50.9 64.4,50.9 64.4,66.5 67.3,66.5 67.3,47.6 				"/>
			</g>
			<g id="XMLID_804_">
				<path id="XMLID_826_" class="st3" d="M36.3,10.8l-1.4,0.5l0.6,1.7l1.6-0.6l0.4,1.1l-2.8,1l-2.3-6.2l2.7-1l0.4,1L34,8.9l0.5,1.4
					l1.4-0.5L36.3,10.8z"/>
				<path id="XMLID_824_" class="st3" d="M41.1,12.3c-0.2,0.1-0.5,0.3-0.9,0.4c-1.6,0.5-2.8-0.7-3.3-2.5c-0.7-2.4,0.4-3.7,1.6-4.1
					c0.4-0.1,0.8-0.1,0.9-0.1l0.1,1.1c-0.2,0-0.3-0.1-0.6,0c-0.7,0.2-1.2,1-0.7,2.6c0.4,1.5,1.2,1.9,1.9,1.7
					c0.2-0.1,0.4-0.2,0.6-0.3L41.1,12.3z"/>
				<path id="XMLID_821_" class="st3" d="M44.6,8.3c0.4,2.4-0.3,3.6-1.5,3.8c-1.5,0.3-2.3-1.2-2.6-3c-0.3-1.8,0.1-3.4,1.6-3.7
					C43.6,5.2,44.4,6.8,44.6,8.3z M41.8,8.9c0.3,1.5,0.7,2.2,1.2,2.1c0.5-0.1,0.6-1.1,0.4-2.4c-0.2-1.1-0.5-2.1-1.1-2
					C41.7,6.7,41.6,7.5,41.8,8.9z"/>
				<path id="XMLID_819_" class="st3" d="M45.4,10.4c0.3,0.1,0.7,0.2,1.1,0.2c0.6-0.1,0.9-0.4,0.8-0.8c0-0.5-0.3-0.7-0.9-1
					c-0.9-0.5-1.3-1.2-1.4-1.8c-0.1-1,0.6-2,1.9-2.1c0.4,0,0.8,0.1,1.1,0.2L48,6.2C47.8,6.1,47.5,6,47.1,6c-0.5,0-0.8,0.4-0.8,0.7
					c0,0.4,0.2,0.6,1,1c0.9,0.5,1.3,1.1,1.3,1.8c0.1,1.2-0.7,2-2,2.1c-0.5,0-1-0.1-1.3-0.2L45.4,10.4z"/>
				<path id="XMLID_816_" class="st3" d="M50.3,10L50,11.5l-1.2,0l1.7-6.5L51.9,5l1.1,6.6l-1.2,0L51.5,10L50.3,10z M51.4,9l-0.2-1.4
					c-0.1-0.4-0.1-1.1-0.2-1.5h0c-0.1,0.4-0.2,1.1-0.3,1.5L50.5,9L51.4,9z"/>
				<path id="XMLID_814_" class="st3" d="M53.3,11.6l1-6.5l1.2,0.2L56,8c0.1,0.5,0.3,1.4,0.4,2h0c0.1-0.7,0.2-1.8,0.3-3L57,5.5
					l1.1,0.2l-1,6.5L56,12l-0.6-2.6c-0.1-0.6-0.3-1.5-0.4-2.1h0c-0.1,0.7-0.2,1.7-0.4,3l-0.2,1.5L53.3,11.6z"/>
				<path id="XMLID_812_" class="st3" d="M59.6,11.4c0.2,0.2,0.6,0.4,1,0.6c0.6,0.2,1,0,1.1-0.5c0.1-0.5-0.1-0.8-0.5-1.3
					c-0.7-0.8-0.8-1.5-0.7-2.1c0.3-1,1.2-1.7,2.6-1.3c0.4,0.1,0.8,0.4,0.9,0.5l-0.5,1C63.3,8.2,63,8,62.7,7.9
					c-0.5-0.2-0.9,0.1-1,0.4c-0.1,0.4,0,0.6,0.6,1.3c0.7,0.8,0.8,1.5,0.6,2.2c-0.3,1.2-1.4,1.7-2.7,1.3c-0.5-0.1-1-0.4-1.1-0.6
					L59.6,11.4z"/>
				<path id="XMLID_810_" class="st3" d="M63,13.1c0.2-0.5,0.6-0.7,1-0.5c0.4,0.1,0.6,0.6,0.4,1.1c-0.2,0.5-0.6,0.7-1,0.5
					C63,14,62.8,13.6,63,13.1z"/>
				<path id="XMLID_807_" class="st3" d="M66.3,13.6l-0.9,1.2l-1.1-0.5L68.3,9l1.4,0.7l-1.7,6.5l-1.1-0.5l0.4-1.5L66.3,13.6z
					 M67.6,13.2l0.4-1.3c0.1-0.4,0.3-1,0.5-1.4l0,0c-0.2,0.4-0.6,0.9-0.8,1.3l-0.8,1.1L67.6,13.2z"/>
				<path id="XMLID_805_" class="st3" d="M68.8,15.7c0.2-0.4,0.7-0.6,1.1-0.3c0.4,0.2,0.5,0.6,0.2,1.1c-0.3,0.4-0.7,0.6-1.1,0.4
					C68.6,16.6,68.5,16.2,68.8,15.7z"/>
			</g>
		</g>
	</g>
	<g id="XMLID_1_">
		<path id="XMLID_97_" class="st6" d="M17.5,54.9c-0.1,0.2-0.1,0.5-0.1,0.9c0.1,0.6,0.5,0.9,0.9,1.1c0.5,0.2,1,0.2,1.6,0.1
			c0.1,0,0.1,0,0.2-0.1c0.1,0,0.1,0,0.2-0.1c0.4-0.1,0.8-0.4,1.1-0.7c0.3-0.3,0.4-0.7,0.3-1.2c-0.1-0.4-0.2-0.6-0.4-0.8
			c-0.2-0.2-0.4-0.3-0.7-0.3l-0.1-0.5c0.4,0,0.7,0.1,1,0.3c0.3,0.2,0.5,0.6,0.6,1.2c0.2,0.8,0,1.4-0.5,1.8c-0.5,0.5-1,0.8-1.7,0.9
			c-0.6,0.1-1.3,0.1-1.9-0.1c-0.6-0.2-1-0.7-1.2-1.5c0-0.1,0-0.1,0-0.2c0-0.1,0-0.1,0-0.2c0-0.3,0-0.7,0.2-1
			c0.1-0.3,0.4-0.5,0.8-0.7l0.1,0.5C17.8,54.5,17.6,54.6,17.5,54.9z"/>
		<path id="XMLID_54_" class="st6" d="M16.5,49.1l0.4,0l0.1,2.5l1.8-0.1l-0.1-2.4l0.4,0l0.1,2.4l1.9-0.1l-0.1-2.7l0.4,0l0.1,3.2
			l-5.1,0.2L16.5,49.1z"/>
		<path id="XMLID_51_" class="st6" d="M16.8,45.1c0.1-0.5,0.2-0.8,0.5-1c0.3-0.2,0.6-0.3,0.9-0.2c0.4,0,0.6,0.1,0.8,0.3
			c0.1,0.2,0.2,0.4,0.3,0.7c0-0.1,0.1-0.2,0.1-0.3c0-0.1,0.1-0.1,0.1-0.2c0,0,0,0,0.1,0c0,0,0,0,0,0c0,0,0,0,0,0c0,0,0,0,0,0
			c0.1-0.1,0.3-0.1,0.5-0.1c0.2,0,0.5,0,0.7,0c0,0,0,0,0,0c0,0,0,0,0,0c0.2,0,0.4,0,0.6,0c0.2,0,0.4,0,0.5-0.1L22,44.6
			c-0.1,0.1-0.2,0.1-0.4,0.1c-0.2,0-0.4,0-0.5,0c0,0-0.1,0-0.1,0c0,0-0.1,0-0.1,0c-0.3,0-0.6,0-0.9,0.1c-0.3,0.1-0.4,0.3-0.5,0.6
			l-0.2,1.5l2.4,0.3l-0.1,0.5l-5-0.6L16.8,45.1z M18.8,46.8l0.2-1.2c0-0.3,0-0.6-0.1-0.8c-0.1-0.2-0.3-0.3-0.6-0.4
			c-0.3,0-0.5,0-0.7,0.2c-0.2,0.2-0.3,0.4-0.3,0.9l-0.1,1.2L18.8,46.8z"/>
		<path id="XMLID_49_" class="st6" d="M18.3,38.5l0.4,0.1l-0.5,1.6l4.5,1.3L22.6,42l-4.5-1.3l-0.4,1.5l-0.4-0.1L18.3,38.5z"/>
		<path id="XMLID_47_" class="st6" d="M19.1,36.6l4.7,1.9L23.6,39l-4.7-1.9L19.1,36.6z"/>
		<path id="XMLID_45_" class="st6" d="M21.3,32.1l0.4,0.2l-1.1,2.1l1.6,0.9l1.1-2l0.4,0.2l-1.1,2l2.1,1.1l-0.2,0.4l-4.5-2.4
			L21.3,32.1z"/>
		<path id="XMLID_43_" class="st6" d="M22.6,30.2l4.2,2.9l-0.3,0.4l-4.2-2.9L22.6,30.2z"/>
		<path id="XMLID_41_" class="st6" d="M26.1,26.7c-0.3,0-0.5,0.2-0.8,0.5c-0.4,0.5-0.5,0.9-0.3,1.4c0.1,0.5,0.4,0.9,0.9,1.3
			C26,29.9,26,30,26.1,30c0.1,0,0.1,0.1,0.2,0.1c0.4,0.3,0.8,0.4,1.2,0.5c0.4,0.1,0.8-0.1,1.2-0.5c0.3-0.3,0.4-0.5,0.4-0.8
			c0-0.2-0.1-0.5-0.2-0.7l0.4-0.4c0.2,0.3,0.3,0.7,0.3,1c0,0.4-0.2,0.8-0.6,1.2c-0.5,0.6-1.1,0.8-1.7,0.7c-0.6-0.1-1.2-0.4-1.7-0.8
			c-0.5-0.5-0.8-1-1-1.6c-0.2-0.6,0-1.2,0.5-1.8c0,0,0.1-0.1,0.1-0.1c0,0,0.1-0.1,0.1-0.1c0.2-0.2,0.6-0.4,0.9-0.5
			c0.3-0.1,0.7,0,1,0.3l-0.4,0.4C26.6,26.7,26.4,26.7,26.1,26.7z"/>
		<path id="XMLID_38_" class="st6" d="M29.2,23.2l4.8,2.7l-0.4,0.4l-1.3-0.7l-1.9,1.6l0.5,1.4l-0.4,0.4l-1.6-5.3L29.2,23.2z
			 M29.3,23.7l0.9,2.9l1.7-1.4L29.3,23.7z"/>
		<path id="XMLID_35_" class="st6" d="M33.6,20.2c0.7-0.4,1.4-0.5,2-0.2c0.6,0.3,1,0.8,1.4,1.4c0.3,0.7,0.4,1.3,0.3,1.9
			c-0.2,0.6-0.6,1-1.2,1.4l-1.5,0.8L32.2,21L33.6,20.2z M34.8,24.8l1-0.6c0.4-0.2,0.7-0.6,0.9-1.1c0.2-0.5,0.1-1-0.3-1.6l-0.1-0.1
			c-0.3-0.6-0.7-0.9-1.2-1c-0.5-0.1-1.1,0-1.7,0.3l-0.7,0.4L34.8,24.8z"/>
		<path id="XMLID_32_" class="st6" d="M38.1,20.7c-0.2-0.7-0.2-1.3-0.1-2c0.2-0.6,0.7-1,1.4-1.3c0.7-0.2,1.3-0.2,1.8,0.2
			c0.5,0.3,0.9,0.8,1.1,1.3c0,0,0.1,0.1,0.1,0.2c0,0.1,0,0.1,0.1,0.2c0,0,0,0,0,0c0,0,0,0,0,0c0.2,0.6,0.2,1.2,0,1.8
			c-0.2,0.6-0.7,1-1.4,1.3c-0.8,0.3-1.4,0.2-1.9-0.2C38.7,22,38.4,21.4,38.1,20.7L38.1,20.7z M38.6,20.5c0.2,0.6,0.5,1,0.9,1.4
			c0.4,0.3,0.9,0.4,1.5,0.2c0.6-0.2,0.9-0.5,1.1-1c0.1-0.5,0.1-1-0.1-1.6c-0.2-0.6-0.5-1-0.9-1.4c-0.4-0.3-0.9-0.4-1.5-0.2
			c-0.5,0.1-0.8,0.4-1,0.9c-0.2,0.4-0.2,0.9-0.1,1.3c0,0.1,0,0.1,0,0.2C38.5,20.4,38.5,20.4,38.6,20.5
			C38.5,20.5,38.5,20.5,38.6,20.5C38.6,20.5,38.6,20.5,38.6,20.5C38.6,20.5,38.6,20.5,38.6,20.5C38.6,20.5,38.6,20.6,38.6,20.5
			L38.6,20.5z"/>
		<path id="XMLID_30_" class="st6" d="M48.4,16l0.3,5.1l-0.5,0L47.9,16L48.4,16z"/>
		<path id="XMLID_28_" class="st6" d="M51.1,15.9l2.5,4.6l0.3-4.4l0.5,0L54,21.3l-0.6,0L51,16.6L50.6,21l-0.5,0l0.4-5.1L51.1,15.9z"
			/>
		<path id="XMLID_26_" class="st6" d="M59.6,17.4l-0.1,0.4l-1.6-0.4l-1.1,4.5l-0.5-0.1l1.1-4.5l-1.6-0.4l0.1-0.4L59.6,17.4z"/>
		<path id="XMLID_24_" class="st6" d="M64,19l-0.2,0.4l-2.4-1l-0.7,1.7L63,21l-0.2,0.4l-2.3-0.9l-0.7,1.8l2.5,1l-0.2,0.4l-2.9-1.2
			l1.9-4.7L64,19z"/>
		<path id="XMLID_21_" class="st6" d="M67.5,21c0.4,0.3,0.6,0.5,0.7,0.9c0.1,0.3,0,0.6-0.1,0.9c-0.2,0.3-0.4,0.5-0.6,0.6
			c-0.2,0.1-0.4,0.1-0.7,0c0.1,0.1,0.2,0.2,0.2,0.2c0,0.1,0.1,0.1,0.1,0.2c0,0,0,0,0,0c0,0,0,0,0,0.1c0,0,0,0,0,0c0,0,0,0,0,0
			c0,0.1,0,0.3-0.1,0.5c-0.1,0.2-0.2,0.4-0.3,0.6c0,0,0,0,0,0c0,0,0,0,0,0c-0.1,0.2-0.2,0.4-0.3,0.6c-0.1,0.2-0.1,0.3-0.1,0.5
			l-0.4-0.3c0-0.1,0-0.2,0.1-0.4c0.1-0.2,0.2-0.3,0.2-0.5c0,0,0-0.1,0.1-0.1c0,0,0-0.1,0-0.1c0.2-0.3,0.3-0.6,0.3-0.8
			c0.1-0.3,0-0.5-0.3-0.6L65,22.5l-1.3,2.1l-0.4-0.3l2.6-4.3L67.5,21z M65.2,22.1l1,0.6c0.3,0.2,0.5,0.3,0.8,0.2
			c0.3,0,0.5-0.2,0.6-0.4c0.2-0.3,0.2-0.5,0.1-0.7c-0.1-0.2-0.3-0.4-0.7-0.6l-1-0.6L65.2,22.1z"/>
		<path id="XMLID_19_" class="st6" d="M70.9,23.3l-0.8,5.2l2.9-3.3l0.4,0.3l-3.3,3.8l-0.5-0.4l0.8-5.1l-2.9,3.3l-0.4-0.3l3.3-3.8
			L70.9,23.3z"/>
		<path id="XMLID_16_" class="st6" d="M76.2,28.5l-2.7,4.8l-0.3-0.4l0.7-1.3l-1.6-1.9l-1.4,0.5l-0.3-0.4l5.2-1.6L76.2,28.5z
			 M75.6,28.6l-2.9,0.9l1.3,1.7L75.6,28.6z"/>
		<path id="XMLID_14_" class="st6" d="M79.3,34.2c0-0.3,0-0.6-0.2-0.9c-0.3-0.5-0.7-0.7-1.2-0.8c-0.5,0-1,0.1-1.5,0.4
			c-0.1,0-0.1,0.1-0.2,0.1c-0.1,0-0.1,0.1-0.2,0.1c-0.4,0.3-0.6,0.6-0.8,1c-0.2,0.4-0.2,0.8,0.1,1.3c0.2,0.3,0.4,0.5,0.6,0.6
			c0.2,0.1,0.5,0.1,0.8,0l0.3,0.5c-0.4,0.1-0.7,0.1-1.1,0c-0.3-0.1-0.7-0.4-1-0.9c-0.4-0.7-0.4-1.3-0.1-1.9c0.3-0.6,0.7-1,1.3-1.4
			c0.6-0.3,1.2-0.5,1.8-0.4c0.6,0,1.2,0.4,1.6,1.1c0,0,0,0.1,0.1,0.1c0,0,0.1,0.1,0.1,0.1c0.1,0.3,0.2,0.7,0.2,1
			c0,0.3-0.2,0.6-0.6,0.9l-0.3-0.5C79.1,34.7,79.2,34.5,79.3,34.2z"/>
		<path id="XMLID_12_" class="st6" d="M81,36.9l-4.7,1.9l-0.2-0.5l4.7-1.9L81,36.9z"/>
		<path id="XMLID_9_" class="st6" d="M79.4,39.3c0.7-0.2,1.4-0.2,2,0.1c0.6,0.2,1,0.7,1.2,1.5c0.2,0.7,0.1,1.3-0.3,1.8
			c-0.4,0.5-0.8,0.8-1.4,1.1c-0.1,0-0.1,0-0.2,0.1c-0.1,0-0.1,0-0.2,0.1c0,0,0,0,0,0c0,0,0,0,0,0c-0.6,0.1-1.2,0.1-1.8-0.1
			c-0.6-0.2-1-0.7-1.2-1.5c-0.2-0.8-0.1-1.4,0.3-1.9C78.1,39.9,78.7,39.5,79.4,39.3L79.4,39.3z M79.5,39.8c-0.6,0.2-1.1,0.4-1.4,0.8
			c-0.4,0.4-0.4,0.9-0.3,1.5c0.1,0.6,0.5,1,0.9,1.2c0.5,0.2,1,0.2,1.6,0c0.6-0.2,1.1-0.4,1.4-0.8c0.4-0.4,0.5-0.9,0.3-1.4
			c-0.1-0.5-0.4-0.8-0.8-1c-0.4-0.2-0.9-0.3-1.3-0.2c-0.1,0-0.1,0-0.2,0C79.7,39.7,79.6,39.7,79.5,39.8
			C79.6,39.8,79.6,39.8,79.5,39.8C79.6,39.8,79.6,39.8,79.5,39.8C79.5,39.8,79.5,39.8,79.5,39.8C79.5,39.8,79.5,39.8,79.5,39.8
			L79.5,39.8z"/>
		<path id="XMLID_7_" class="st6" d="M83.3,45.7l-4.2,3.1l4.4-0.3l0,0.5l-5.1,0.3l0-0.6l4.2-3.1L78.2,46l0-0.5l5.1-0.3L83.3,45.7z"
			/>
		<path id="XMLID_4_" class="st6" d="M83.3,53.1L78,54.6l0.1-0.6l1.4-0.4l0.3-2.5l-1.3-0.6l0.1-0.5l4.8,2.6L83.3,53.1z M82.9,52.8
			l-2.7-1.4L80,53.6L82.9,52.8z"/>
		<path id="XMLID_2_" class="st6" d="M82.6,57.2L78.1,56l-0.7,2.5L77,58.4l0.8-2.9l4.9,1.3L82.6,57.2z"/>
	</g>
</g>
</svg>
