<?xml version="1.0" encoding="utf-8"?>
<!-- Generator: Adobe Illustrator 17.0.0, SVG Export Plug-In . SVG Version: 6.00 Build 0)  -->
<!DOCTYPE svg PUBLIC "-//W3C//DTD SVG 1.1//EN" "http://www.w3.org/Graphics/SVG/1.1/DTD/svg11.dtd">
<svg version="1.1" id="Capa_1" xmlns="http://www.w3.org/2000/svg" xmlns:xlink="http://www.w3.org/1999/xlink" x="0px" y="0px"
	 width="30px" height="18px" viewBox="0 0 30 18" enable-background="new 0 0 30 18" xml:space="preserve">
<g>
	<g>
		<defs>
			<rect id="SVGID_1_" width="30" height="18"/>
		</defs>
		<clipPath id="SVGID_2_">
			<use xlink:href="#SVGID_1_"  overflow="visible"/>
		</clipPath>
		<rect clip-path="url(#SVGID_2_)" fill="#FFFFFF" width="30" height="18"/>
		<rect clip-path="url(#SVGID_2_)" fill="#2530A9" width="8.75" height="18"/>
		<rect y="9" clip-path="url(#SVGID_2_)" fill="#C22623" width="30" height="9"/>
		<polygon clip-path="url(#SVGID_2_)" fill="#FFFFFF" points="4.375,2.25 3.699,4.39 4.739,4.738 		"/>
		<polygon clip-path="url(#SVGID_2_)" fill="#FFFFFF" points="4.375,2.25 5.051,4.39 4.011,4.738 		"/>
		<polygon clip-path="url(#SVGID_2_)" fill="#FFFFFF" points="6.456,3.805 4.268,3.805 4.268,4.93 		"/>
		<polygon clip-path="url(#SVGID_2_)" fill="#FFFFFF" points="6.456,3.805 4.686,5.127 4.043,4.217 		"/>
		<polygon clip-path="url(#SVGID_2_)" fill="#FFFFFF" points="2.294,3.805 4.064,5.127 4.707,4.217 		"/>
		<polygon clip-path="url(#SVGID_2_)" fill="#FFFFFF" points="2.294,3.805 4.482,3.805 4.482,4.93 		"/>
		<polygon clip-path="url(#SVGID_2_)" fill="#FFFFFF" points="5.66,6.32 4.985,4.18 3.945,4.528 		"/>
		<polygon clip-path="url(#SVGID_2_)" fill="#FFFFFF" points="5.66,6.32 3.891,4.998 4.534,4.088 		"/>
		<polygon clip-path="url(#SVGID_2_)" fill="#FFFFFF" points="3.089,6.32 4.859,4.998 4.216,4.088 		"/>
		<polygon clip-path="url(#SVGID_2_)" fill="#FFFFFF" points="3.089,6.32 3.765,4.18 4.805,4.528 		"/>
	</g>
</g>
</svg>
