<?xml version="1.0" encoding="utf-8"?>
<!-- Generator: Adobe Illustrator 17.0.0, SVG Export Plug-In . SVG Version: 6.00 Build 0)  -->
<!DOCTYPE svg PUBLIC "-//W3C//DTD SVG 1.1//EN" "http://www.w3.org/Graphics/SVG/1.1/DTD/svg11.dtd">
<svg version="1.1" id="Capa_1" xmlns="http://www.w3.org/2000/svg" xmlns:xlink="http://www.w3.org/1999/xlink" x="0px" y="0px"
	 width="30px" height="18px" viewBox="0 0 30 18" enable-background="new 0 0 30 18" xml:space="preserve">
<g>
	<g>
		<defs>
			<rect id="SVGID_1_" width="30" height="18"/>
		</defs>
		<clipPath id="SVGID_2_">
			<use xlink:href="#SVGID_1_"  overflow="visible"/>
		</clipPath>
		<rect y="5.999" clip-path="url(#SVGID_2_)" fill="#FFFFFF" width="30" height="6"/>
		<rect y="0" clip-path="url(#SVGID_2_)" fill="#80A7D8" width="30" height="5.999"/>
		<rect y="12" clip-path="url(#SVGID_2_)" fill="#80A7D8" width="30" height="6"/>
		<g clip-path="url(#SVGID_2_)">
			<defs>
				<rect id="SVGID_3_" width="30" height="18"/>
			</defs>
			<clipPath id="SVGID_4_">
				<use xlink:href="#SVGID_3_"  overflow="visible"/>
			</clipPath>
			<path clip-path="url(#SVGID_4_)" fill="#F1BD51" d="M14.88,8.999l0.09,2.455c0,0,0,0.046,0.03,0.046
				c0.029,0,0.029-0.046,0.029-0.046l0.091-2.455H14.88z"/>
			<g clip-path="url(#SVGID_4_)">
				<path fill="#7A361D" d="M15.001,11.507c-0.03,0-0.038-0.035-0.038-0.053l-0.09-2.454l0.015-0.001l0.09,2.455
					c0,0.001,0,0.039,0.023,0.039c0.021,0,0.021-0.038,0.021-0.038l0.091-2.455l-0.076,2.455
					C15.037,11.472,15.029,11.507,15.001,11.507L15.001,11.507z"/>
			</g>
			<polygon clip-path="url(#SVGID_4_)" fill="#7A361D" points="14.94,8.999 15.001,10.684 15.06,8.999 			"/>
			<path clip-path="url(#SVGID_4_)" fill="#F1BD51" d="M14.775,9.792c-0.138,0.309-0.021,0.561-0.157,0.831
				c-0.137,0.269-0.052,0.492-0.061,0.615c-0.008,0.124-0.107,0.158-0.082,0.188c0.024,0.028,0.128-0.029,0.168-0.193
				c0.04-0.164-0.055-0.259,0.108-0.589c0.165-0.331,0.034-0.48,0.199-0.776L14.775,9.792z"/>
			<g clip-path="url(#SVGID_4_)">
				<path fill="#7A361D" d="M14.501,11.439l-0.032-0.008c-0.015-0.018,0-0.035,0.018-0.056c0.023-0.027,0.058-0.068,0.062-0.138
					c0.002-0.033-0.002-0.073-0.007-0.119c-0.014-0.127-0.032-0.3,0.069-0.499c0.067-0.133,0.072-0.262,0.077-0.397
					c0.005-0.136,0.01-0.277,0.08-0.433l0.013,0.006c-0.068,0.153-0.073,0.293-0.079,0.427c-0.005,0.138-0.01,0.268-0.079,0.404
					c-0.099,0.195-0.081,0.365-0.068,0.49c0.005,0.047,0.01,0.088,0.007,0.122c-0.005,0.075-0.042,0.118-0.066,0.147
					c-0.018,0.021-0.024,0.029-0.018,0.036c0.059-0.007,0.125-0.066,0.155-0.19c0.013-0.055,0.011-0.102,0.009-0.153
					c-0.005-0.102-0.009-0.218,0.1-0.438c0.082-0.163,0.091-0.282,0.099-0.397c0.009-0.118,0.017-0.229,0.101-0.379
					c-0.069,0.155-0.077,0.264-0.086,0.38c-0.008,0.116-0.017,0.236-0.1,0.402c-0.107,0.216-0.103,0.33-0.099,0.431
					c0.002,0.052,0.004,0.1-0.01,0.157c-0.03,0.122-0.095,0.191-0.144,0.204L14.501,11.439L14.501,11.439z"/>
			</g>
			<path clip-path="url(#SVGID_4_)" fill="#7A361D" d="M14.813,9.87c-0.106,0.308,0.006,0.512-0.137,0.772
				c0.159-0.186,0.054-0.427,0.193-0.744L14.813,9.87z"/>
			<path clip-path="url(#SVGID_4_)" fill="#F1BD51" d="M15.12,8.999L15.03,6.545c0,0,0-0.046-0.029-0.046
				c-0.03,0-0.03,0.046-0.03,0.046l-0.09,2.454H15.12z"/>
			<g clip-path="url(#SVGID_4_)">
				<path fill="#7A361D" d="M15.113,8.999l-0.091-2.454c0-0.001,0-0.038-0.021-0.038c-0.023,0-0.023,0.038-0.023,0.038l-0.09,2.454
					l0.075-2.454c0-0.018,0.008-0.053,0.038-0.053c0.029,0,0.036,0.035,0.036,0.053l0.091,2.453L15.113,8.999L15.113,8.999z"/>
			</g>
			<polygon clip-path="url(#SVGID_4_)" fill="#7A361D" points="15.06,8.999 15.001,7.315 14.94,8.999 			"/>
			<path clip-path="url(#SVGID_4_)" fill="#F1BD51" d="M15.226,8.207c0.136-0.308,0.019-0.561,0.155-0.83
				c0.137-0.269,0.052-0.491,0.062-0.615c0.008-0.124,0.107-0.158,0.082-0.186c-0.024-0.03-0.127,0.028-0.168,0.192
				c-0.04,0.164,0.056,0.259-0.108,0.589c-0.165,0.331-0.034,0.48-0.199,0.775L15.226,8.207z"/>
			<g clip-path="url(#SVGID_4_)">
				<path fill="#7A361D" d="M15.233,8.21L15.22,8.203c0.067-0.152,0.072-0.291,0.077-0.426c0.005-0.138,0.009-0.268,0.078-0.405
					c0.099-0.194,0.081-0.365,0.068-0.489c-0.005-0.048-0.009-0.089-0.007-0.123c0.005-0.075,0.042-0.118,0.067-0.147
					c0.019-0.022,0.023-0.028,0.018-0.034c-0.058,0.005-0.125,0.064-0.155,0.189c-0.013,0.055-0.011,0.102-0.009,0.153
					c0.004,0.102,0.009,0.218-0.1,0.438c-0.082,0.163-0.091,0.282-0.099,0.397c-0.009,0.118-0.017,0.229-0.101,0.379
					c0.069-0.154,0.077-0.264,0.086-0.38s0.017-0.236,0.1-0.402c0.108-0.216,0.103-0.33,0.099-0.431
					c-0.002-0.052-0.004-0.1,0.01-0.157c0.032-0.132,0.104-0.194,0.144-0.204l0.004-0.001l0.032,0.01
					c0.015,0.016,0,0.034-0.018,0.054c-0.023,0.027-0.058,0.068-0.063,0.138c-0.003,0.033,0.002,0.074,0.007,0.121
					c0.013,0.126,0.032,0.3-0.069,0.498c-0.067,0.134-0.072,0.262-0.077,0.398C15.307,7.914,15.302,8.055,15.233,8.21L15.233,8.21z"
					/>
			</g>
			<path clip-path="url(#SVGID_4_)" fill="#7A361D" d="M15.188,8.128c0.107-0.307-0.006-0.512,0.137-0.772
				c-0.159,0.187-0.054,0.428-0.193,0.745L15.188,8.128z"/>
			<path clip-path="url(#SVGID_4_)" fill="#F1BD51" d="M15.001,8.876l-2.386,0.092c0,0-0.045,0-0.045,0.03
				c0,0.031,0.045,0.031,0.045,0.031l2.386,0.092V8.876z"/>
			<g clip-path="url(#SVGID_4_)">
				<path fill="#7A361D" d="M15.001,9.115l-2.387-0.077c-0.018,0-0.052-0.008-0.052-0.039c0-0.03,0.035-0.038,0.052-0.038
					l2.386-0.092l0.001,0.015l-2.386,0.092c-0.001,0-0.038,0-0.038,0.023c0,0.024,0.037,0.024,0.038,0.024L15.001,9.115
					L15.001,9.115z"/>
			</g>
			<polygon clip-path="url(#SVGID_4_)" fill="#7A361D" points="15.001,8.938 13.362,8.999 15.001,9.061 			"/>
			<path clip-path="url(#SVGID_4_)" fill="#F1BD51" d="M14.229,8.767c-0.3-0.141-0.545-0.02-0.807-0.161
				c-0.263-0.141-0.479-0.053-0.599-0.062c-0.119-0.01-0.153-0.111-0.181-0.085c-0.027,0.026,0.028,0.131,0.187,0.173
				c0.16,0.041,0.252-0.057,0.573,0.113c0.322,0.169,0.467,0.035,0.754,0.204L14.229,8.767z"/>
			<g clip-path="url(#SVGID_4_)">
				<path fill="#7A361D" d="M14.159,8.942c-0.15-0.071-0.257-0.079-0.369-0.088c-0.113-0.009-0.23-0.018-0.391-0.103
					c-0.211-0.112-0.322-0.107-0.419-0.102c-0.05,0.002-0.097,0.004-0.152-0.01c-0.119-0.031-0.186-0.099-0.198-0.148l-0.001-0.004
					l0.008-0.033c0.017-0.016,0.034,0.001,0.054,0.018c0.026,0.024,0.066,0.059,0.133,0.065c0.031,0.003,0.071-0.002,0.116-0.007
					c0.123-0.014,0.292-0.034,0.486,0.07c0.129,0.07,0.254,0.075,0.386,0.079c0.132,0.005,0.268,0.01,0.42,0.081l-0.006,0.014
					c-0.148-0.07-0.284-0.075-0.414-0.08c-0.134-0.005-0.26-0.01-0.393-0.081c-0.19-0.101-0.356-0.082-0.478-0.068
					c-0.046,0.005-0.085,0.009-0.119,0.007c-0.072-0.006-0.114-0.044-0.141-0.069c-0.02-0.018-0.029-0.024-0.034-0.018
					c0.006,0.061,0.063,0.128,0.184,0.16c0.053,0.013,0.099,0.012,0.148,0.009c0.099-0.004,0.212-0.009,0.426,0.104
					c0.159,0.084,0.274,0.092,0.385,0.101C13.905,8.847,14.014,8.856,14.159,8.942L14.159,8.942z"/>
			</g>
			<path clip-path="url(#SVGID_4_)" fill="#7A361D" d="M14.153,8.807c-0.299-0.11-0.497,0.005-0.75-0.141
				c0.181,0.163,0.416,0.055,0.723,0.198L14.153,8.807z"/>
			<path clip-path="url(#SVGID_4_)" fill="#F1BD51" d="M15.001,9.123l2.385-0.092c0,0,0.044,0,0.044-0.031
				c0-0.03-0.044-0.03-0.044-0.03l-2.385-0.092V9.123z"/>
			<g clip-path="url(#SVGID_4_)">
				<path fill="#7A361D" d="M15.001,9.13l-0.001-0.015l2.385-0.092c0.001,0,0.037,0,0.037-0.024c0-0.023-0.037-0.023-0.037-0.023
					l-2.385-0.092l2.386,0.077c0.018,0,0.051,0.008,0.051,0.038c0,0.031-0.034,0.039-0.052,0.039L15.001,9.13L15.001,9.13z"/>
			</g>
			<polygon clip-path="url(#SVGID_4_)" fill="#7A361D" points="15.001,9.061 16.638,8.999 15.001,8.938 			"/>
			<path clip-path="url(#SVGID_4_)" fill="#F1BD51" d="M15.771,9.231c0.3,0.141,0.545,0.02,0.808,0.162
				c0.261,0.141,0.477,0.053,0.598,0.063c0.119,0.009,0.153,0.11,0.181,0.085c0.028-0.025-0.027-0.131-0.187-0.173
				c-0.159-0.041-0.252,0.058-0.573-0.112c-0.322-0.169-0.467-0.035-0.753-0.205L15.771,9.231z"/>
			<g clip-path="url(#SVGID_4_)">
				<path fill="#7A361D" d="M17.349,9.552c-0.012,0-0.025-0.011-0.039-0.024c-0.026-0.024-0.066-0.059-0.133-0.064
					c-0.032-0.003-0.072,0.002-0.117,0.007c-0.124,0.014-0.292,0.033-0.484-0.071c-0.13-0.07-0.255-0.075-0.388-0.08
					c-0.132-0.005-0.269-0.01-0.42-0.081l0.006-0.014c0.148,0.07,0.283,0.075,0.414,0.08c0.134,0.005,0.261,0.01,0.394,0.082
					c0.188,0.102,0.353,0.083,0.475,0.069c0.046-0.005,0.086-0.01,0.12-0.007c0.072,0.006,0.114,0.043,0.142,0.068
					c0.022,0.02,0.028,0.022,0.033,0.018c-0.005-0.06-0.062-0.128-0.183-0.16c-0.052-0.013-0.098-0.011-0.149-0.009
					c-0.099,0.006-0.212,0.01-0.426-0.103c-0.158-0.084-0.274-0.092-0.385-0.101c-0.114-0.009-0.223-0.017-0.368-0.104
					c0.15,0.072,0.257,0.08,0.369,0.089c0.113,0.009,0.229,0.018,0.391,0.103c0.21,0.111,0.32,0.105,0.418,0.101
					c0.051-0.002,0.098-0.005,0.153,0.01c0.127,0.033,0.188,0.107,0.198,0.148l0.001,0.005l-0.009,0.033
					C17.358,9.55,17.353,9.552,17.349,9.552L17.349,9.552z"/>
			</g>
			<path clip-path="url(#SVGID_4_)" fill="#7A361D" d="M15.847,9.192c0.299,0.11,0.497-0.005,0.751,0.141
				c-0.182-0.163-0.417-0.056-0.724-0.198L15.847,9.192z"/>
			<path clip-path="url(#SVGID_4_)" fill="#F1BD51" d="M14.915,8.913l-1.623,1.8c0,0-0.031,0.033-0.011,0.054
				c0.022,0.022,0.053-0.011,0.053-0.011l1.751-1.669L14.915,8.913z"/>
			<g clip-path="url(#SVGID_4_)">
				<path fill="#7A361D" d="M13.299,10.782c-0.044-0.031-0.025-0.061-0.013-0.075l1.623-1.8l0.011,0.01l-1.623,1.8
					c0,0.001-0.026,0.028-0.011,0.044c0.016,0.018,0.043-0.01,0.043-0.01l1.751-1.669l-1.741,1.68
					C13.339,10.762,13.32,10.782,13.299,10.782L13.299,10.782z"/>
			</g>
			<polygon clip-path="url(#SVGID_4_)" fill="#7A361D" points="14.957,8.956 13.842,10.19 15.043,9.043 			"/>
			<path clip-path="url(#SVGID_4_)" fill="#F1BD51" d="M14.295,9.396c-0.309,0.118-0.399,0.383-0.681,0.473
				c-0.282,0.091-0.375,0.31-0.467,0.391c-0.091,0.08-0.185,0.034-0.187,0.072c-0.001,0.038,0.109,0.073,0.252-0.014
				c0.141-0.086,0.138-0.224,0.482-0.338c0.344-0.113,0.353-0.314,0.673-0.402L14.295,9.396z"/>
			<g clip-path="url(#SVGID_4_)">
				<path fill="#7A361D" d="M13.043,10.38c-0.029,0-0.052-0.006-0.069-0.016l-0.021-0.032c0.001-0.023,0.024-0.024,0.05-0.026
					c0.035-0.003,0.088-0.006,0.139-0.051c0.024-0.021,0.048-0.053,0.076-0.088c0.078-0.1,0.184-0.237,0.393-0.304
					c0.14-0.045,0.232-0.133,0.329-0.226c0.096-0.093,0.197-0.188,0.352-0.248l0.005,0.014c-0.152,0.058-0.251,0.153-0.347,0.244
					c-0.098,0.094-0.191,0.183-0.335,0.229c-0.205,0.066-0.31,0.201-0.386,0.299c-0.029,0.037-0.053,0.068-0.078,0.09
					c-0.055,0.049-0.111,0.052-0.148,0.055c-0.026,0.002-0.036,0.003-0.037,0.012c0.047,0.039,0.134,0.044,0.241-0.021
					c0.047-0.029,0.079-0.064,0.112-0.101c0.067-0.076,0.143-0.161,0.372-0.237c0.169-0.056,0.257-0.133,0.341-0.208
					c0.087-0.077,0.17-0.15,0.332-0.194c-0.155,0.058-0.237,0.13-0.322,0.206c-0.086,0.076-0.174,0.154-0.347,0.211
					c-0.225,0.075-0.299,0.159-0.365,0.233c-0.034,0.038-0.066,0.074-0.115,0.104C13.151,10.365,13.09,10.38,13.043,10.38
					L13.043,10.38z"/>
			</g>
			<path clip-path="url(#SVGID_4_)" fill="#7A361D" d="M14.269,9.479c-0.287,0.14-0.348,0.366-0.628,0.446
				c0.241-0.017,0.333-0.263,0.649-0.386L14.269,9.479z"/>
			<path clip-path="url(#SVGID_4_)" fill="#F1BD51" d="M15.085,9.087l1.623-1.801c0,0,0.031-0.032,0.011-0.054
				c-0.022-0.022-0.053,0.01-0.053,0.01l-1.751,1.671L15.085,9.087z"/>
			<g clip-path="url(#SVGID_4_)">
				<path fill="#7A361D" d="M15.091,9.092l-0.011-0.01l1.623-1.801c0-0.001,0.026-0.028,0.011-0.044
					c-0.017-0.016-0.043,0.01-0.043,0.01L14.92,8.918l1.741-1.682c0.012-0.012,0.042-0.032,0.063-0.01
					c0.02,0.022,0.001,0.052-0.011,0.065L15.091,9.092L15.091,9.092z"/>
			</g>
			<polygon clip-path="url(#SVGID_4_)" fill="#7A361D" points="15.043,9.043 16.158,7.808 14.957,8.956 			"/>
			<path clip-path="url(#SVGID_4_)" fill="#F1BD51" d="M15.705,8.603c0.308-0.118,0.399-0.383,0.681-0.473
				c0.282-0.091,0.375-0.311,0.467-0.391c0.091-0.08,0.184-0.033,0.187-0.072c0.001-0.038-0.11-0.073-0.252,0.015
				c-0.141,0.087-0.139,0.224-0.483,0.338c-0.343,0.113-0.353,0.314-0.673,0.403L15.705,8.603z"/>
			<g clip-path="url(#SVGID_4_)">
				<path fill="#7A361D" d="M15.708,8.61l-0.005-0.014c0.152-0.059,0.251-0.153,0.347-0.244c0.099-0.094,0.192-0.183,0.335-0.229
					c0.203-0.065,0.308-0.2,0.384-0.298c0.029-0.037,0.055-0.07,0.08-0.092c0.055-0.048,0.11-0.052,0.147-0.055
					c0.027-0.002,0.037-0.003,0.037-0.012c-0.046-0.038-0.134-0.044-0.241,0.022c-0.047,0.029-0.079,0.064-0.112,0.101
					c-0.067,0.075-0.143,0.161-0.373,0.237c-0.169,0.056-0.257,0.133-0.342,0.208c-0.087,0.077-0.169,0.15-0.331,0.195
					c0.155-0.059,0.236-0.13,0.322-0.206c0.086-0.076,0.174-0.154,0.347-0.211c0.225-0.075,0.3-0.159,0.366-0.233
					c0.034-0.038,0.066-0.074,0.115-0.104c0.105-0.065,0.199-0.066,0.242-0.04l0.021,0.032c-0.001,0.023-0.024,0.025-0.051,0.026
					c-0.035,0.002-0.087,0.006-0.138,0.051c-0.025,0.022-0.049,0.053-0.078,0.09c-0.077,0.1-0.184,0.236-0.392,0.303
					c-0.14,0.045-0.232,0.133-0.329,0.226C15.963,8.455,15.863,8.551,15.708,8.61L15.708,8.61z"/>
			</g>
			<path clip-path="url(#SVGID_4_)" fill="#7A361D" d="M15.731,8.52c0.287-0.14,0.349-0.366,0.628-0.445
				c-0.241,0.016-0.333,0.262-0.649,0.385L15.731,8.52z"/>
			<path clip-path="url(#SVGID_4_)" fill="#F1BD51" d="M15.085,8.913l-1.751-1.671c0,0-0.031-0.032-0.053-0.01
				c-0.021,0.022,0.011,0.054,0.011,0.054l1.623,1.801L15.085,8.913z"/>
			<g clip-path="url(#SVGID_4_)">
				<path fill="#7A361D" d="M14.921,9.082l-1.634-1.791c-0.013-0.013-0.031-0.043-0.011-0.064c0.022-0.022,0.051-0.003,0.064,0.01
					l1.75,1.67l-0.01,0.011L13.33,7.248c-0.001-0.001-0.027-0.027-0.043-0.01c-0.016,0.016,0.01,0.043,0.011,0.043L14.921,9.082
					L14.921,9.082z"/>
			</g>
			<polygon clip-path="url(#SVGID_4_)" fill="#7A361D" points="15.043,8.956 13.842,7.808 14.957,9.043 			"/>
			<path clip-path="url(#SVGID_4_)" fill="#F1BD51" d="M14.615,8.275c-0.116-0.319-0.373-0.411-0.461-0.702
				c-0.088-0.29-0.301-0.384-0.38-0.479c-0.078-0.094-0.033-0.19-0.07-0.192c-0.037-0.003-0.071,0.114,0.013,0.258
				c0.085,0.146,0.218,0.142,0.328,0.496c0.111,0.353,0.306,0.364,0.392,0.693L14.615,8.275z"/>
			<g clip-path="url(#SVGID_4_)">
				<path fill="#7A361D" d="M14.444,8.347c-0.057-0.16-0.126-0.243-0.2-0.332c-0.074-0.088-0.15-0.18-0.205-0.356
					c-0.073-0.232-0.154-0.309-0.226-0.376c-0.037-0.035-0.072-0.068-0.101-0.118c-0.067-0.116-0.059-0.212-0.038-0.249l0.031-0.021
					c0.022,0.002,0.024,0.025,0.025,0.052c0.002,0.036,0.006,0.09,0.05,0.143c0.021,0.026,0.052,0.051,0.088,0.08
					c0.097,0.079,0.229,0.188,0.293,0.402c0.044,0.144,0.129,0.238,0.219,0.338c0.09,0.1,0.183,0.203,0.242,0.364l-0.014,0.005
					c-0.057-0.158-0.149-0.26-0.238-0.359c-0.091-0.101-0.178-0.197-0.222-0.344c-0.063-0.209-0.194-0.316-0.289-0.395
					c-0.036-0.03-0.068-0.056-0.089-0.082c-0.047-0.056-0.051-0.114-0.053-0.151c-0.002-0.027-0.004-0.037-0.012-0.038
					c-0.038,0.047-0.044,0.137,0.02,0.247c0.028,0.048,0.062,0.081,0.099,0.115c0.074,0.069,0.157,0.147,0.23,0.383
					c0.055,0.174,0.13,0.264,0.203,0.351C14.33,8.095,14.401,8.18,14.444,8.347L14.444,8.347z"/>
			</g>
			<path clip-path="url(#SVGID_4_)" fill="#7A361D" d="M14.534,8.247c-0.136-0.296-0.356-0.358-0.434-0.646
				c0.015,0.247,0.257,0.342,0.376,0.667L14.534,8.247z"/>
			<path clip-path="url(#SVGID_4_)" fill="#F1BD51" d="M14.915,9.087l1.751,1.669c0,0,0.031,0.033,0.053,0.011
				c0.02-0.021-0.011-0.054-0.011-0.054l-1.623-1.8L14.915,9.087z"/>
			<g clip-path="url(#SVGID_4_)">
				<path fill="#7A361D" d="M16.702,10.775c-0.028,0-0.04-0.013-0.041-0.014l-1.75-1.668l0.01-0.011l1.751,1.669
					c0,0.001,0.026,0.029,0.043,0.011c0.015-0.015-0.011-0.043-0.011-0.043l-1.623-1.8l1.633,1.79
					c0.013,0.014,0.031,0.044,0.011,0.064C16.716,10.774,16.708,10.775,16.702,10.775L16.702,10.775z"/>
			</g>
			<polygon clip-path="url(#SVGID_4_)" fill="#7A361D" points="14.957,9.043 16.158,10.19 15.043,8.956 			"/>
			<path clip-path="url(#SVGID_4_)" fill="#F1BD51" d="M15.385,9.725c0.116,0.318,0.373,0.41,0.46,0.701
				c0.088,0.29,0.302,0.385,0.38,0.478c0.079,0.095,0.032,0.19,0.07,0.192c0.038,0.003,0.071-0.112-0.013-0.257
				c-0.084-0.146-0.217-0.143-0.328-0.496c-0.111-0.354-0.306-0.364-0.392-0.693L15.385,9.725z"/>
			<g clip-path="url(#SVGID_4_)">
				<path fill="#7A361D" d="M16.295,11.104c-0.022-0.001-0.024-0.024-0.025-0.051c-0.002-0.036-0.005-0.09-0.05-0.143
					c-0.021-0.025-0.051-0.049-0.086-0.078c-0.097-0.08-0.23-0.188-0.295-0.403c-0.044-0.145-0.129-0.239-0.22-0.339
					c-0.09-0.099-0.182-0.202-0.241-0.361l0.014-0.005c0.057,0.157,0.149,0.258,0.237,0.356c0.092,0.101,0.178,0.197,0.223,0.345
					c0.064,0.21,0.195,0.317,0.291,0.395c0.036,0.029,0.067,0.055,0.088,0.08c0.047,0.057,0.051,0.114,0.053,0.152
					c0.002,0.029,0.004,0.037,0.011,0.037c0.038-0.047,0.044-0.136-0.02-0.246c-0.028-0.049-0.062-0.081-0.099-0.115
					c-0.073-0.069-0.156-0.147-0.23-0.382c-0.055-0.175-0.13-0.265-0.203-0.352c-0.075-0.09-0.146-0.174-0.189-0.341
					c0.057,0.16,0.126,0.243,0.2,0.331c0.074,0.088,0.15,0.18,0.206,0.357c0.073,0.231,0.154,0.308,0.226,0.376
					c0.037,0.035,0.072,0.068,0.101,0.119c0.063,0.108,0.064,0.204,0.038,0.248L16.295,11.104L16.295,11.104z"/>
			</g>
			<path clip-path="url(#SVGID_4_)" fill="#7A361D" d="M15.466,9.752c0.136,0.295,0.355,0.357,0.434,0.646
				c-0.016-0.247-0.257-0.342-0.376-0.666L15.466,9.752z"/>
			<path clip-path="url(#SVGID_4_)" fill="#F1BD51" d="M14.89,8.952l-0.831,2.302c0,0-0.017,0.043,0.011,0.055
				c0.027,0.012,0.044-0.031,0.044-0.031l0.996-2.232L14.89,8.952z"/>
			<g clip-path="url(#SVGID_4_)">
				<path fill="#7A361D" d="M14.091,11.317c-0.051-0.012-0.046-0.048-0.039-0.065l0.83-2.302l0.014,0.005l-0.831,2.302
					c0,0.001-0.014,0.036,0.007,0.045l0.035-0.027l0.996-2.232l-0.983,2.238C14.121,11.282,14.11,11.309,14.091,11.317
					L14.091,11.317z"/>
			</g>
			<polygon clip-path="url(#SVGID_4_)" fill="#7A361D" points="14.945,8.975 14.374,10.556 15.055,9.023 			"/>
			<path clip-path="url(#SVGID_4_)" fill="#F1BD51" d="M14.497,9.643c-0.241,0.231-0.227,0.51-0.454,0.705
				c-0.228,0.196-0.23,0.434-0.286,0.545c-0.054,0.11-0.158,0.103-0.146,0.14c0.013,0.036,0.129,0.024,0.226-0.112
				c0.099-0.136,0.046-0.261,0.321-0.502c0.275-0.241,0.21-0.429,0.471-0.638L14.497,9.643z"/>
			<g clip-path="url(#SVGID_4_)">
				<path fill="#7A361D" d="M13.649,11.059c-0.004,0-0.008,0-0.012-0.001l-0.032-0.022c-0.007-0.022,0.013-0.032,0.037-0.044
					c0.031-0.016,0.079-0.04,0.109-0.102c0.015-0.03,0.026-0.069,0.039-0.115c0.034-0.122,0.081-0.289,0.249-0.433
					c0.112-0.097,0.164-0.214,0.22-0.337c0.055-0.124,0.112-0.251,0.234-0.368l0.01,0.011c-0.119,0.114-0.175,0.24-0.23,0.363
					c-0.056,0.125-0.109,0.244-0.224,0.343c-0.163,0.141-0.21,0.305-0.244,0.426c-0.013,0.046-0.025,0.087-0.04,0.117
					c-0.033,0.066-0.083,0.091-0.116,0.108c-0.024,0.012-0.032,0.017-0.03,0.025c0.058,0.017,0.14-0.012,0.213-0.114
					c0.033-0.045,0.049-0.091,0.066-0.138c0.035-0.096,0.073-0.205,0.256-0.365c0.136-0.119,0.188-0.225,0.239-0.327
					c0.051-0.105,0.1-0.205,0.233-0.31c-0.121,0.115-0.169,0.213-0.22,0.317s-0.104,0.211-0.242,0.332
					c-0.18,0.158-0.218,0.264-0.252,0.359c-0.017,0.049-0.034,0.095-0.068,0.142C13.777,11.019,13.699,11.059,13.649,11.059
					L13.649,11.059z"/>
			</g>
			<path clip-path="url(#SVGID_4_)" fill="#7A361D" d="M14.503,9.731c-0.213,0.242-0.186,0.475-0.415,0.659
				c0.217-0.109,0.21-0.374,0.456-0.611L14.503,9.731z"/>
			<path clip-path="url(#SVGID_4_)" fill="#F1BD51" d="M15.11,9.046l0.831-2.303c0,0,0.017-0.041-0.011-0.053
				c-0.028-0.012-0.045,0.03-0.045,0.03L14.89,8.952L15.11,9.046z"/>
			<g clip-path="url(#SVGID_4_)">
				<path fill="#7A361D" d="M15.117,9.049l-0.014-0.005l0.831-2.303c0-0.001,0.014-0.035-0.006-0.043l-0.036,0.026l-0.996,2.232
					l0.982-2.238c0-0.001,0.011-0.026,0.03-0.034l0.042,0.018c0.008,0.019-0.002,0.044-0.003,0.045L15.117,9.049L15.117,9.049z"/>
			</g>
			<polygon clip-path="url(#SVGID_4_)" fill="#7A361D" points="15.055,9.023 15.626,7.443 14.945,8.975 			"/>
			<path clip-path="url(#SVGID_4_)" fill="#F1BD51" d="M15.503,8.356c0.241-0.231,0.227-0.51,0.454-0.705
				c0.228-0.195,0.23-0.434,0.286-0.545c0.054-0.111,0.158-0.103,0.146-0.14c-0.013-0.036-0.129-0.025-0.226,0.112
				c-0.099,0.136-0.046,0.262-0.321,0.502c-0.275,0.24-0.21,0.43-0.472,0.637L15.503,8.356z"/>
			<g clip-path="url(#SVGID_4_)">
				<path fill="#7A361D" d="M15.508,8.361l-0.01-0.011c0.119-0.114,0.175-0.241,0.23-0.363c0.056-0.126,0.109-0.244,0.224-0.343
					c0.164-0.14,0.21-0.305,0.244-0.426c0.013-0.046,0.024-0.087,0.039-0.117c0.033-0.067,0.083-0.092,0.116-0.109
					c0.023-0.012,0.032-0.017,0.029-0.025c-0.058-0.017-0.141,0.012-0.213,0.114c-0.033,0.045-0.049,0.091-0.066,0.138
					c-0.034,0.096-0.073,0.205-0.256,0.365c-0.136,0.118-0.188,0.224-0.238,0.327c-0.052,0.106-0.101,0.205-0.234,0.31
					c0.121-0.115,0.169-0.213,0.22-0.317c0.051-0.104,0.104-0.211,0.242-0.332c0.18-0.157,0.218-0.264,0.252-0.359
					c0.017-0.049,0.034-0.095,0.068-0.142c0.072-0.101,0.157-0.14,0.207-0.132l0.032,0.022c0.007,0.022-0.013,0.032-0.037,0.044
					c-0.031,0.016-0.079,0.04-0.109,0.102c-0.015,0.03-0.026,0.069-0.039,0.114c-0.034,0.122-0.081,0.29-0.249,0.433
					c-0.112,0.097-0.164,0.214-0.22,0.338C15.687,8.117,15.63,8.245,15.508,8.361L15.508,8.361z"/>
			</g>
			<path clip-path="url(#SVGID_4_)" fill="#7A361D" d="M15.498,8.269c0.213-0.242,0.186-0.475,0.415-0.66
				c-0.217,0.11-0.21,0.375-0.456,0.612L15.498,8.269z"/>
			<path clip-path="url(#SVGID_4_)" fill="#F1BD51" d="M15.045,8.886l-2.237-0.854c0,0-0.041-0.018-0.053,0.01
				c-0.011,0.029,0.03,0.047,0.03,0.047l2.17,1.024L15.045,8.886z"/>
			<g clip-path="url(#SVGID_4_)">
				<path fill="#7A361D" d="M14.958,9.107l-2.177-1.011c-0.016-0.007-0.045-0.028-0.033-0.056c0.012-0.028,0.046-0.022,0.063-0.014
					l2.237,0.853l-0.005,0.014l-2.237-0.854c-0.001-0.001-0.035-0.015-0.044,0.006c-0.008,0.021,0.026,0.036,0.026,0.037
					L14.958,9.107L14.958,9.107z"/>
			</g>
			<polygon clip-path="url(#SVGID_4_)" fill="#7A361D" points="15.022,8.943 13.487,8.355 14.978,9.057 			"/>
			<path clip-path="url(#SVGID_4_)" fill="#F1BD51" d="M14.375,8.482c-0.226-0.249-0.497-0.234-0.687-0.467
				c-0.189-0.234-0.421-0.238-0.529-0.293c-0.107-0.056-0.1-0.163-0.136-0.151c-0.035,0.013-0.023,0.132,0.11,0.234
				c0.131,0.101,0.253,0.047,0.487,0.329c0.234,0.283,0.418,0.215,0.62,0.485L14.375,8.482z"/>
			<g clip-path="url(#SVGID_4_)">
				<path fill="#7A361D" d="M14.245,8.615c-0.112-0.125-0.208-0.175-0.309-0.228c-0.101-0.052-0.205-0.107-0.323-0.248
					c-0.153-0.185-0.257-0.224-0.349-0.259c-0.047-0.018-0.092-0.034-0.137-0.069c-0.099-0.076-0.137-0.164-0.129-0.215l0.021-0.032
					c0.02-0.008,0.031,0.014,0.043,0.039c0.015,0.032,0.038,0.081,0.099,0.112c0.029,0.014,0.066,0.025,0.108,0.038
					c0.12,0.035,0.283,0.084,0.424,0.257c0.094,0.115,0.208,0.169,0.328,0.225c0.12,0.057,0.245,0.115,0.359,0.241l-0.011,0.01
					c-0.112-0.123-0.235-0.181-0.355-0.237c-0.122-0.057-0.237-0.112-0.333-0.229c-0.138-0.17-0.299-0.218-0.417-0.252
					c-0.043-0.013-0.081-0.024-0.11-0.039c-0.065-0.034-0.089-0.085-0.106-0.119c-0.011-0.024-0.015-0.035-0.025-0.031
					c-0.017,0.058,0.011,0.143,0.112,0.22c0.044,0.034,0.087,0.05,0.133,0.067c0.093,0.035,0.199,0.075,0.355,0.263
					c0.115,0.139,0.218,0.193,0.318,0.244C14.045,8.428,14.142,8.478,14.245,8.615L14.245,8.615z"/>
			</g>
			<path clip-path="url(#SVGID_4_)" fill="#7A361D" d="M14.289,8.488c-0.235-0.218-0.462-0.19-0.641-0.426
				c0.106,0.223,0.363,0.215,0.595,0.468L14.289,8.488z"/>
			<path clip-path="url(#SVGID_4_)" fill="#F1BD51" d="M14.955,9.113l2.238,0.853c0,0,0.041,0.018,0.053-0.011
				c0.011-0.028-0.03-0.046-0.03-0.046l-2.171-1.024L14.955,9.113z"/>
			<g clip-path="url(#SVGID_4_)">
				<path fill="#7A361D" d="M17.218,9.98c-0.011,0-0.021-0.003-0.028-0.006l-2.238-0.853l0.005-0.014l2.238,0.853
					c0,0,0.035,0.014,0.044-0.007c0.008-0.02-0.026-0.036-0.026-0.036l-2.171-1.024l2.177,1.011
					c0.017,0.008,0.044,0.028,0.034,0.055C17.246,9.975,17.232,9.98,17.218,9.98L17.218,9.98z"/>
			</g>
			<polygon clip-path="url(#SVGID_4_)" fill="#7A361D" points="14.978,9.057 16.513,9.644 15.022,8.943 			"/>
			<path clip-path="url(#SVGID_4_)" fill="#F1BD51" d="M15.625,9.517c0.225,0.249,0.497,0.233,0.687,0.467
				c0.189,0.234,0.421,0.237,0.529,0.293c0.107,0.057,0.1,0.163,0.136,0.15c0.035-0.012,0.023-0.132-0.11-0.233
				c-0.131-0.101-0.253-0.046-0.487-0.329c-0.234-0.284-0.418-0.216-0.62-0.486L15.625,9.517z"/>
			<g clip-path="url(#SVGID_4_)">
				<path fill="#7A361D" d="M16.972,10.435c-0.016,0-0.024-0.019-0.035-0.04c-0.016-0.032-0.039-0.081-0.099-0.112
					c-0.029-0.015-0.066-0.026-0.109-0.039c-0.119-0.035-0.282-0.084-0.422-0.256c-0.094-0.116-0.208-0.169-0.329-0.226
					c-0.12-0.057-0.245-0.115-0.358-0.241l0.011-0.01c0.112,0.123,0.235,0.181,0.354,0.237c0.122,0.057,0.237,0.112,0.334,0.23
					c0.137,0.169,0.298,0.217,0.415,0.251c0.044,0.013,0.083,0.025,0.112,0.04c0.064,0.034,0.089,0.085,0.105,0.119
					c0.013,0.027,0.018,0.033,0.025,0.03c0.017-0.057-0.011-0.143-0.111-0.22c-0.044-0.034-0.087-0.05-0.133-0.067
					c-0.094-0.035-0.199-0.074-0.355-0.263c-0.115-0.14-0.218-0.194-0.318-0.245c-0.102-0.053-0.199-0.104-0.302-0.241
					c0.112,0.125,0.207,0.175,0.309,0.227c0.101,0.053,0.205,0.107,0.323,0.249c0.153,0.185,0.257,0.224,0.349,0.258
					c0.047,0.018,0.092,0.034,0.137,0.069c0.106,0.081,0.135,0.173,0.129,0.215l-0.021,0.031
					C16.977,10.435,16.975,10.435,16.972,10.435L16.972,10.435z"/>
			</g>
			<path clip-path="url(#SVGID_4_)" fill="#7A361D" d="M15.711,9.511c0.235,0.218,0.462,0.19,0.64,0.426
				c-0.106-0.222-0.363-0.215-0.594-0.468L15.711,9.511z"/>
			<path clip-path="url(#SVGID_4_)" fill="#F1BD51" d="M14.955,8.886l-2.17,1.024c0,0-0.041,0.018-0.03,0.046
				c0.012,0.029,0.053,0.011,0.053,0.011l2.237-0.853L14.955,8.886z"/>
			<g clip-path="url(#SVGID_4_)">
				<path fill="#7A361D" d="M12.782,9.98c-0.014,0-0.028-0.005-0.035-0.021c-0.011-0.028,0.017-0.048,0.034-0.055l2.17-1.024
					l0.006,0.014l-2.17,1.024c-0.001,0-0.035,0.015-0.026,0.036c0.009,0.021,0.043,0.007,0.044,0.007l2.238-0.854L12.81,9.974
					C12.803,9.977,12.793,9.98,12.782,9.98L12.782,9.98z"/>
			</g>
			<polygon clip-path="url(#SVGID_4_)" fill="#7A361D" points="14.978,8.943 13.487,9.644 15.022,9.057 			"/>
			<path clip-path="url(#SVGID_4_)" fill="#F1BD51" d="M14.201,9.089c-0.329-0.013-0.511,0.196-0.805,0.168
				c-0.294-0.027-0.462,0.14-0.576,0.178c-0.115,0.039-0.183-0.041-0.199-0.007c-0.017,0.034,0.074,0.111,0.238,0.086
				c0.162-0.024,0.211-0.151,0.57-0.122c0.361,0.03,0.444-0.151,0.773-0.107V9.089z"/>
			<g clip-path="url(#SVGID_4_)">
				<path fill="#7A361D" d="M12.795,9.526c-0.094,0-0.155-0.036-0.175-0.064l-0.006-0.037c0.009-0.02,0.031-0.013,0.056-0.004
					c0.033,0.012,0.084,0.029,0.148,0.007c0.031-0.01,0.065-0.03,0.105-0.052c0.108-0.061,0.254-0.145,0.474-0.126
					c0.146,0.015,0.263-0.031,0.387-0.079c0.124-0.047,0.25-0.097,0.418-0.09l-0.001,0.015c-0.16-0.005-0.29,0.042-0.412,0.089
					c-0.126,0.048-0.244,0.092-0.393,0.079c-0.21-0.019-0.359,0.063-0.466,0.124c-0.041,0.023-0.076,0.043-0.107,0.053
					c-0.069,0.023-0.122,0.005-0.157-0.007c-0.027-0.01-0.035-0.011-0.038-0.004c0.027,0.054,0.105,0.093,0.23,0.075
					c0.054-0.008,0.096-0.028,0.141-0.05c0.09-0.043,0.189-0.092,0.431-0.072c0.176,0.016,0.287-0.022,0.393-0.058
					c0.109-0.037,0.213-0.072,0.38-0.049c-0.172-0.01-0.268,0.027-0.375,0.064c-0.108,0.036-0.218,0.073-0.399,0.059
					c-0.236-0.02-0.335,0.029-0.423,0.071c-0.045,0.022-0.088,0.043-0.145,0.051C12.837,9.525,12.815,9.526,12.795,9.526
					L12.795,9.526z"/>
			</g>
			<path clip-path="url(#SVGID_4_)" fill="#7A361D" d="M14.146,9.154c-0.317,0.017-0.457,0.201-0.747,0.165
				c0.229,0.08,0.405-0.112,0.743-0.101L14.146,9.154z"/>
			<path clip-path="url(#SVGID_4_)" fill="#F1BD51" d="M15.045,9.113l2.171-1.024c0,0,0.041-0.018,0.03-0.047
				c-0.012-0.028-0.053-0.01-0.053-0.01l-2.238,0.854L15.045,9.113z"/>
			<g clip-path="url(#SVGID_4_)">
				<path fill="#7A361D" d="M15.048,9.12l-0.006-0.014l2.171-1.025c0.001,0,0.035-0.015,0.026-0.037
					c-0.009-0.021-0.043-0.006-0.043-0.006l-2.239,0.854l2.233-0.868c0.017-0.007,0.051-0.013,0.062,0.014
					c0.011,0.029-0.018,0.049-0.034,0.056L15.048,9.12L15.048,9.12z"/>
			</g>
			<polygon clip-path="url(#SVGID_4_)" fill="#7A361D" points="15.022,9.057 16.513,8.355 14.978,8.943 			"/>
			<path clip-path="url(#SVGID_4_)" fill="#F1BD51" d="M15.799,8.91c0.329,0.013,0.511-0.197,0.805-0.168
				c0.296,0.027,0.462-0.14,0.577-0.179c0.114-0.038,0.183,0.042,0.199,0.008c0.017-0.035-0.074-0.111-0.237-0.086
				c-0.163,0.025-0.211,0.152-0.571,0.123c-0.36-0.03-0.443,0.151-0.773,0.107V8.91z"/>
			<g clip-path="url(#SVGID_4_)">
				<path fill="#7A361D" d="M15.828,8.918c-0.01,0-0.019,0-0.029-0.001l0.001-0.015c0.163,0.005,0.289-0.042,0.411-0.089
					c0.126-0.048,0.248-0.093,0.394-0.079c0.214,0.02,0.36-0.064,0.467-0.125c0.04-0.023,0.075-0.043,0.106-0.054
					c0.07-0.023,0.122-0.004,0.157,0.008c0.026,0.009,0.034,0.011,0.038,0.004c-0.027-0.054-0.104-0.093-0.23-0.076
					c-0.054,0.009-0.096,0.029-0.141,0.05c-0.09,0.043-0.193,0.092-0.432,0.073c-0.176-0.015-0.287,0.022-0.393,0.058
					c-0.11,0.037-0.212,0.072-0.38,0.049c0.166,0.008,0.268-0.027,0.376-0.063c0.107-0.036,0.217-0.072,0.399-0.059
					c0.234,0.019,0.336-0.029,0.424-0.071c0.045-0.022,0.088-0.043,0.145-0.051c0.122-0.019,0.209,0.018,0.238,0.059l0.007,0.038
					c-0.01,0.02-0.031,0.013-0.056,0.004c-0.033-0.012-0.083-0.029-0.148-0.008c-0.03,0.01-0.064,0.03-0.104,0.052
					c-0.108,0.062-0.257,0.146-0.475,0.127c-0.145-0.014-0.264,0.031-0.388,0.078C16.099,8.872,15.979,8.918,15.828,8.918
					L15.828,8.918z"/>
			</g>
			<path clip-path="url(#SVGID_4_)" fill="#7A361D" d="M15.855,8.844c0.317-0.016,0.457-0.201,0.746-0.165
				c-0.229-0.079-0.405,0.113-0.742,0.102L15.855,8.844z"/>
			<path clip-path="url(#SVGID_4_)" fill="#F1BD51" d="M15.11,8.952l-0.996-2.232c0,0-0.017-0.042-0.044-0.03
				c-0.028,0.012-0.011,0.053-0.011,0.053l0.831,2.303L15.11,8.952z"/>
			<g clip-path="url(#SVGID_4_)">
				<path fill="#7A361D" d="M14.897,9.044l-0.845-2.297c0-0.001-0.01-0.026-0.002-0.045l0.042-0.018
					c0.019,0.008,0.029,0.034,0.03,0.035l0.996,2.232l-0.013,0.006L14.089,6.69l-0.016,0.007l-0.007,0.044L14.897,9.044
					L14.897,9.044z"/>
			</g>
			<polygon clip-path="url(#SVGID_4_)" fill="#7A361D" points="15.055,8.975 14.374,7.443 14.945,9.023 			"/>
			<path clip-path="url(#SVGID_4_)" fill="#F1BD51" d="M14.914,8.179c0.012-0.339-0.192-0.527-0.166-0.83
				c0.027-0.303-0.135-0.474-0.173-0.592c-0.037-0.118,0.041-0.189,0.007-0.206C14.55,6.535,14.476,6.628,14.5,6.795
				c0.024,0.169,0.147,0.218,0.118,0.588c-0.029,0.37,0.147,0.456,0.105,0.793L14.914,8.179z"/>
			<g clip-path="url(#SVGID_4_)">
				<path fill="#7A361D" d="M14.922,8.179l-0.015,0c0.006-0.168-0.042-0.298-0.087-0.425c-0.047-0.13-0.092-0.252-0.078-0.406
					c0.019-0.219-0.061-0.369-0.12-0.479c-0.022-0.042-0.042-0.078-0.052-0.11c-0.022-0.071-0.004-0.125,0.008-0.161
					c0.008-0.026,0.011-0.036,0.004-0.04c-0.052,0.03-0.091,0.11-0.073,0.236c0.008,0.056,0.027,0.1,0.048,0.146
					c0.042,0.093,0.089,0.198,0.07,0.444c-0.014,0.183,0.022,0.295,0.057,0.404c0.036,0.112,0.07,0.218,0.048,0.389
					c0.006-0.17-0.027-0.274-0.062-0.385c-0.035-0.11-0.072-0.225-0.057-0.41c0.019-0.243-0.027-0.346-0.068-0.437
					c-0.021-0.047-0.041-0.091-0.05-0.15c-0.018-0.124,0.017-0.213,0.056-0.244l0.037-0.008c0.02,0.01,0.013,0.033,0.004,0.059
					c-0.011,0.034-0.028,0.086-0.007,0.152c0.01,0.031,0.029,0.067,0.051,0.107c0.06,0.111,0.142,0.264,0.122,0.488
					c-0.013,0.15,0.031,0.271,0.077,0.399C14.879,7.876,14.927,8.008,14.922,8.179L14.922,8.179z"/>
			</g>
			<path clip-path="url(#SVGID_4_)" fill="#7A361D" d="M14.849,8.12c-0.016-0.326-0.195-0.47-0.159-0.767
				c-0.079,0.235,0.108,0.417,0.098,0.765L14.849,8.12z"/>
			<path clip-path="url(#SVGID_4_)" fill="#F1BD51" d="M14.89,9.046l0.996,2.232c0,0,0.017,0.043,0.045,0.031
				c0.027-0.012,0.011-0.055,0.011-0.055L15.11,8.952L14.89,9.046z"/>
			<g clip-path="url(#SVGID_4_)">
				<path fill="#7A361D" d="M15.933,11.317c-0.044-0.008-0.054-0.034-0.055-0.035L14.883,9.05l0.013-0.006l0.996,2.232
					c0,0.001,0.017,0.037,0.036,0.027c0.02-0.009,0.007-0.045,0.007-0.045l-0.831-2.302l0.845,2.297
					C15.955,11.269,15.961,11.305,15.933,11.317L15.933,11.317z"/>
			</g>
			<polygon clip-path="url(#SVGID_4_)" fill="#7A361D" points="14.945,9.023 15.626,10.556 15.055,8.975 			"/>
			<path clip-path="url(#SVGID_4_)" fill="#F1BD51" d="M15.086,9.82c-0.012,0.339,0.192,0.527,0.165,0.829
				c-0.026,0.303,0.135,0.475,0.172,0.593c0.038,0.118-0.041,0.187-0.007,0.205c0.034,0.017,0.107-0.077,0.084-0.245
				c-0.024-0.167-0.148-0.217-0.119-0.587c0.029-0.37-0.147-0.456-0.105-0.794L15.086,9.82z"/>
			<g clip-path="url(#SVGID_4_)">
				<path fill="#7A361D" d="M15.413,11.454c-0.02-0.011-0.013-0.033-0.004-0.058c0.011-0.034,0.029-0.085,0.007-0.151
					c-0.01-0.032-0.029-0.067-0.051-0.108c-0.06-0.112-0.141-0.265-0.122-0.488c0.013-0.15-0.031-0.27-0.077-0.398
					c-0.046-0.128-0.094-0.26-0.088-0.431l0.015,0.001c-0.006,0.168,0.041,0.298,0.087,0.425c0.047,0.129,0.091,0.251,0.078,0.404
					c-0.019,0.219,0.061,0.37,0.12,0.48c0.022,0.042,0.042,0.078,0.052,0.111c0.023,0.071,0.005,0.125-0.008,0.161
					c-0.009,0.026-0.011,0.036-0.003,0.04c0.052-0.029,0.091-0.109,0.073-0.237c-0.008-0.055-0.027-0.098-0.048-0.144
					c-0.042-0.093-0.09-0.198-0.07-0.445c0.014-0.183-0.021-0.295-0.056-0.405c-0.036-0.112-0.07-0.218-0.048-0.39
					c-0.006,0.17,0.027,0.274,0.062,0.385c0.035,0.111,0.071,0.225,0.057,0.41c-0.019,0.243,0.028,0.346,0.069,0.437
					c0.021,0.047,0.041,0.091,0.05,0.148c0.018,0.126-0.018,0.215-0.057,0.245L15.413,11.454L15.413,11.454z"/>
			</g>
			<path clip-path="url(#SVGID_4_)" fill="#7A361D" d="M15.152,9.878c0.016,0.326,0.195,0.471,0.161,0.768
				c0.077-0.235-0.11-0.417-0.099-0.764L15.152,9.878z"/>
			<path clip-path="url(#SVGID_4_)" fill="#F1BD51" d="M15.001,8c0.536,0,0.972,0.447,0.972,0.999c0,0.553-0.435,1.001-0.972,1.001
				c-0.538,0-0.973-0.448-0.973-1.001C14.027,8.447,14.463,8,15.001,8L15.001,8z"/>
			<g clip-path="url(#SVGID_4_)">
				<path fill="#7A361D" d="M15.001,10.008c-0.541,0-0.981-0.452-0.981-1.009c0-0.555,0.44-1.007,0.981-1.007
					c0.54,0,0.979,0.452,0.979,1.007C15.98,9.555,15.541,10.008,15.001,10.008L15.001,10.008z M15.001,8.008
					c-0.533,0-0.966,0.445-0.966,0.991c0,0.548,0.433,0.993,0.966,0.993c0.532,0,0.964-0.446,0.964-0.993
					C15.965,8.452,15.533,8.008,15.001,8.008L15.001,8.008z"/>
			</g>
			<path clip-path="url(#SVGID_4_)" fill="#7A361D" d="M15.613,8.784c-0.173-0.153-0.388-0.177-0.509-0.061
				c-0.087,0.118-0.079,0.26,0.023,0.407c-0.007,0-0.023,0.008-0.03,0.015c-0.075-0.147-0.088-0.3-0.038-0.439
				C15.225,8.569,15.45,8.554,15.613,8.784L15.613,8.784z"/>
			<path clip-path="url(#SVGID_4_)" fill="#7A361D" d="M15.345,8.737c-0.098,0-0.119,0.024-0.166,0.062
				c-0.044,0.039-0.066,0.031-0.074,0.039c-0.007,0.008,0,0.031,0.016,0.023c0.014-0.008,0.044-0.023,0.089-0.062
				c0.044-0.038,0.09-0.038,0.135-0.038c0.134,0,0.208,0.115,0.224,0.108C15.583,8.861,15.494,8.737,15.345,8.737L15.345,8.737z"/>
			<path clip-path="url(#SVGID_4_)" fill="#7A361D" d="M15.516,8.869c-0.097-0.108-0.276-0.115-0.351,0.008h0.03
				c0.075-0.123,0.255-0.07,0.269-0.015v0.015L15.516,8.869z"/>
			<path clip-path="url(#SVGID_4_)" fill="#7A361D" d="M15.329,8.792c0.037,0,0.068,0.031,0.068,0.07
				c0,0.038-0.03,0.069-0.068,0.069c-0.036,0-0.067-0.031-0.067-0.069C15.262,8.823,15.293,8.792,15.329,8.792L15.329,8.792z"/>
			<path clip-path="url(#SVGID_4_)" fill="#7A361D" d="M15.165,8.876c0.075,0.069,0.239,0.077,0.351-0.008l-0.052-0.008
				c-0.075,0.085-0.194,0.077-0.269,0.015V8.861L15.165,8.876z"/>
			<path clip-path="url(#SVGID_4_)" fill="#7A361D" d="M15.524,8.907c-0.127,0.101-0.254,0.092-0.329,0.047
				c-0.074-0.047-0.074-0.061-0.06-0.061c0.016,0,0.03,0.014,0.091,0.046C15.284,8.969,15.375,8.969,15.524,8.907L15.524,8.907z"/>
			<path clip-path="url(#SVGID_4_)" fill="#7A361D" d="M15.158,9.138c0.023,0.009,0.035,0.035,0.026,0.059
				c-0.008,0.024-0.034,0.036-0.057,0.028c-0.017-0.006-0.029-0.022-0.03-0.041C15.09,9.2,15.06,9.246,15.001,9.246h-0.015
				l0.015,0.023c0.014,0,0.059,0,0.089-0.023c0.021,0.031,0.062,0.039,0.094,0.018c0.03-0.022,0.037-0.065,0.017-0.097
				C15.19,9.152,15.175,9.141,15.158,9.138L15.158,9.138z"/>
			<path clip-path="url(#SVGID_4_)" fill="#7A361D" d="M15.247,9.461c-0.068-0.046-0.097-0.115-0.171-0.115
				c-0.016,0-0.046,0.009-0.075,0.024h-0.015l0.015,0.023c0.029,0,0.075-0.038,0.126-0.008C15.179,9.415,15.21,9.446,15.247,9.461
				L15.247,9.461z"/>
			<path clip-path="url(#SVGID_4_)" fill="#7A361D" d="M15.225,9.461c-0.15-0.046-0.18-0.015-0.224-0.015h-0.015l0.015,0.031
				C15.06,9.477,15.09,9.43,15.225,9.461L15.225,9.461z"/>
			<path clip-path="url(#SVGID_4_)" fill="#7A361D" d="M15.247,9.461c-0.164-0.015-0.112,0.085-0.246,0.085h-0.015l0.015,0.023
				C15.165,9.569,15.09,9.477,15.247,9.461L15.247,9.461z"/>
			<path clip-path="url(#SVGID_4_)" fill="#7A361D" d="M15.135,9.707c0-0.076-0.061-0.138-0.134-0.138
				c-0.075,0-0.135,0.062-0.135,0.138c0.017-0.076,0.091-0.124,0.166-0.105C15.083,9.614,15.123,9.654,15.135,9.707L15.135,9.707z"
				/>
			<path clip-path="url(#SVGID_4_)" fill="#7A361D" d="M14.387,8.784c0.172-0.153,0.388-0.177,0.509-0.061
				c0.087,0.118,0.078,0.26-0.023,0.407c0.007,0,0.023,0.008,0.03,0.015c0.075-0.147,0.088-0.3,0.037-0.439
				C14.775,8.569,14.551,8.554,14.387,8.784L14.387,8.784z"/>
			<path clip-path="url(#SVGID_4_)" fill="#7A361D" d="M14.656,8.737c0.098,0,0.119,0.024,0.165,0.062
				c0.045,0.039,0.067,0.031,0.075,0.039c0.007,0.008,0,0.031-0.016,0.023c-0.014-0.008-0.045-0.023-0.089-0.062
				c-0.045-0.038-0.091-0.038-0.135-0.038c-0.134,0-0.209,0.115-0.224,0.108C14.417,8.861,14.507,8.737,14.656,8.737L14.656,8.737z"
				/>
			<path clip-path="url(#SVGID_4_)" fill="#7A361D" d="M14.485,8.869c0.096-0.108,0.276-0.115,0.35,0.008h-0.03
				c-0.075-0.123-0.254-0.07-0.269-0.015v0.015L14.485,8.869z"/>
			<path clip-path="url(#SVGID_4_)" fill="#7A361D" d="M14.672,8.792c-0.037,0-0.067,0.031-0.067,0.07
				c0,0.038,0.03,0.069,0.067,0.069c0.036,0,0.066-0.031,0.066-0.069C14.738,8.823,14.708,8.792,14.672,8.792L14.672,8.792z"/>
			<path clip-path="url(#SVGID_4_)" fill="#7A361D" d="M14.835,8.876c-0.074,0.069-0.238,0.077-0.35-0.008l0.052-0.008
				c0.074,0.085,0.194,0.077,0.269,0.015V8.861L14.835,8.876z"/>
			<path clip-path="url(#SVGID_4_)" fill="#7A361D" d="M14.476,8.907c0.128,0.101,0.254,0.092,0.329,0.047
				c0.075-0.047,0.075-0.061,0.061-0.061c-0.016,0-0.031,0.014-0.091,0.046C14.716,8.969,14.626,8.969,14.476,8.907L14.476,8.907z"
				/>
			<path clip-path="url(#SVGID_4_)" fill="#7A361D" d="M14.843,9.138c-0.023,0.009-0.035,0.035-0.027,0.059
				c0.009,0.024,0.034,0.036,0.057,0.028c0.017-0.006,0.029-0.022,0.03-0.041C14.91,9.2,14.94,9.246,15.001,9.246h0.014
				l-0.014,0.023c-0.015,0-0.061,0-0.09-0.023c-0.022,0.031-0.063,0.039-0.094,0.018c-0.03-0.022-0.037-0.065-0.017-0.097
				C14.81,9.152,14.826,9.141,14.843,9.138L14.843,9.138z"/>
			<path clip-path="url(#SVGID_4_)" fill="#7A361D" d="M14.754,9.461c0.067-0.046,0.096-0.115,0.171-0.115
				c0.016,0,0.046,0.009,0.076,0.024h0.014l-0.014,0.023c-0.03,0-0.076-0.038-0.128-0.008C14.821,9.415,14.791,9.446,14.754,9.461
				L14.754,9.461z"/>
			<path clip-path="url(#SVGID_4_)" fill="#7A361D" d="M14.775,9.461c0.149-0.046,0.179-0.015,0.225-0.015h0.014l-0.014,0.031
				C14.94,9.477,14.91,9.43,14.775,9.461L14.775,9.461z"/>
			<path clip-path="url(#SVGID_4_)" fill="#7A361D" d="M14.754,9.461c0.164-0.015,0.112,0.085,0.247,0.085h0.014l-0.014,0.023
				C14.835,9.569,14.91,9.477,14.754,9.461L14.754,9.461z"/>
			<path clip-path="url(#SVGID_4_)" fill="#7A361D" d="M14.866,9.707c0-0.076,0.06-0.138,0.135-0.138
				c0.073,0,0.134,0.062,0.134,0.138c-0.017-0.076-0.092-0.124-0.166-0.105C14.918,9.614,14.878,9.654,14.866,9.707L14.866,9.707z"
				/>
		</g>
	</g>
</g>
</svg>
